<svg width="612" height="276" viewBox="0 0 612 276" fill="none" xmlns="http://www.w3.org/2000/svg">
<path d="M20.1427 257.931C17.3408 257.931 14.8891 257.673 12.7876 257.158C10.6862 256.606 8.91654 255.613 7.47871 254.177C6.07775 252.705 5.02703 250.608 4.32654 247.885C3.62606 245.161 3.27582 241.61 3.27582 237.231C3.27582 232.852 3.62606 229.301 4.32654 226.577C5.06389 223.817 6.13305 221.701 7.53401 220.229C8.93498 218.757 10.6862 217.745 12.7876 217.193C14.8891 216.641 17.3408 216.365 20.1427 216.365C22.9446 216.365 25.3963 216.641 27.4977 217.193C29.5992 217.745 31.3504 218.757 32.7514 220.229C34.1523 221.701 35.203 223.817 35.9035 226.577C36.604 229.301 36.9541 232.852 36.9541 237.231C36.9541 241.61 36.604 245.161 35.9035 247.885C35.203 250.608 34.1523 252.705 32.7514 254.177C31.3504 255.613 29.5992 256.606 27.4977 257.158C25.3963 257.673 22.9446 257.931 20.1427 257.931ZM20.1427 250.589C21.8017 250.589 23.1843 250.405 24.2903 250.037C25.3963 249.669 26.2627 249.025 26.8894 248.105C27.553 247.149 28.0323 245.805 28.3273 244.076C28.6222 242.309 28.7697 240.028 28.7697 237.231C28.7697 234.287 28.6222 231.932 28.3273 230.165C28.0323 228.399 27.553 227.056 26.8894 226.136C26.2627 225.179 25.3963 224.535 24.2903 224.204C23.1843 223.873 21.8017 223.707 20.1427 223.707C18.5574 223.707 17.2117 223.873 16.1057 224.204C14.9997 224.535 14.0964 225.179 13.3959 226.136C12.7323 227.056 12.2346 228.399 11.9028 230.165C11.6079 231.932 11.4604 234.287 11.4604 237.231C11.4604 240.028 11.5894 242.309 11.8475 244.076C12.1424 245.805 12.6217 247.149 13.2853 248.105C13.949 249.025 14.8338 249.669 15.9398 250.037C17.0827 250.405 18.4837 250.589 20.1427 250.589ZM79.6035 257.876C77.3546 257.876 75.2531 257.692 73.2992 257.324C71.3452 256.919 69.6308 256.238 68.1561 255.281C66.7183 254.288 65.5939 252.926 64.7828 251.197C64.0086 249.43 63.6214 247.185 63.6214 244.462V216.752H71.806V244.407C71.806 245.916 72.101 247.112 72.6908 247.995C73.3176 248.878 74.2024 249.522 75.3453 249.927C76.5251 250.332 77.9445 250.534 79.6035 250.534C81.2257 250.534 82.6082 250.332 83.7511 249.927C84.9308 249.522 85.8157 248.878 86.4055 247.995C87.0323 247.112 87.3457 245.916 87.3457 244.407V216.752H95.5855V244.462C95.5855 247.185 95.18 249.43 94.3689 251.197C93.5578 252.926 92.4334 254.288 90.9955 255.281C89.5577 256.238 87.8618 256.919 85.9078 257.324C83.9907 257.692 81.8893 257.876 79.6035 257.876ZM131.838 257.6V224.093H120.612V216.752H151.304V224.093H140.023V257.6H131.838ZM186.581 257.6C184.48 257.6 182.692 257.287 181.217 256.661C179.779 255.999 178.692 254.969 177.954 253.57C177.254 252.135 176.904 250.258 176.904 247.94V216.752H185.088V246.615C185.088 247.498 185.236 248.216 185.531 248.768C185.863 249.32 186.305 249.706 186.858 249.927C187.411 250.111 188.038 250.203 188.738 250.203H201.679V257.6H186.581ZM227.679 257.6V216.752H235.864V257.6H227.679ZM274.097 257.876C273.212 257.876 272.198 257.784 271.055 257.6C269.913 257.453 268.807 257.085 267.737 256.496C266.705 255.907 265.839 255.024 265.138 253.846C264.475 252.632 264.143 250.976 264.143 248.878V226.081C264.143 224.277 264.419 222.769 264.972 221.554C265.525 220.34 266.263 219.383 267.184 218.684C268.106 217.985 269.12 217.488 270.226 217.193C271.332 216.899 272.42 216.752 273.489 216.752C276.254 216.752 278.687 216.789 280.789 216.862C282.927 216.936 284.844 217.028 286.54 217.138C288.236 217.212 289.784 217.322 291.185 217.469V224.314H275.922C274.779 224.314 273.894 224.59 273.268 225.142C272.641 225.694 272.327 226.541 272.327 227.681V233.588L288.531 234.029V240.488L272.327 240.929V246.56C272.327 247.517 272.475 248.271 272.77 248.823C273.102 249.338 273.526 249.706 274.042 249.927C274.595 250.111 275.166 250.203 275.756 250.203H291.185V257.048C289.563 257.232 287.756 257.379 285.766 257.489C283.812 257.6 281.821 257.692 279.793 257.765C277.802 257.839 275.904 257.876 274.097 257.876ZM318.32 257.6V216.752H335.242C336.865 216.752 338.376 216.954 339.777 217.359C341.178 217.727 342.413 218.389 343.482 219.346C344.552 220.303 345.381 221.628 345.971 223.321C346.598 225.013 346.911 227.185 346.911 229.834C346.911 231.711 346.727 233.312 346.358 234.637C345.989 235.961 345.492 237.047 344.865 237.893C344.275 238.74 343.593 239.421 342.819 239.936C342.045 240.451 341.252 240.874 340.441 241.205L348.072 257.6H339.722L333.141 242.475C332.699 242.475 332.183 242.475 331.593 242.475C331.04 242.438 330.468 242.42 329.878 242.42C329.288 242.42 328.699 242.42 328.109 242.42C327.519 242.42 326.984 242.401 326.505 242.365V257.6H318.32ZM326.505 235.906H333.805C334.542 235.906 335.206 235.814 335.796 235.63C336.385 235.446 336.902 235.133 337.344 234.692C337.786 234.213 338.118 233.588 338.339 232.815C338.597 232.042 338.726 231.049 338.726 229.834C338.726 228.693 338.597 227.755 338.339 227.019C338.118 226.246 337.786 225.657 337.344 225.253C336.902 224.811 336.385 224.517 335.796 224.369C335.206 224.185 334.542 224.093 333.805 224.093H326.505V235.906ZM386.504 257.931C385.435 257.931 384.329 257.894 383.186 257.821C382.08 257.784 380.937 257.71 379.757 257.6C378.614 257.453 377.527 257.305 376.494 257.158C375.462 256.974 374.522 256.772 373.674 256.551V250.093C374.78 250.203 376.033 250.295 377.434 250.369C378.835 250.442 380.292 250.497 381.803 250.534C383.315 250.571 384.753 250.589 386.117 250.589C387.518 250.589 388.716 250.479 389.711 250.258C390.744 250.001 391.536 249.577 392.089 248.989C392.642 248.363 392.919 247.517 392.919 246.449V244.959C392.919 243.745 392.55 242.825 391.813 242.199C391.112 241.537 390.098 241.205 388.771 241.205H385.287C381.379 241.205 378.374 240.359 376.273 238.666C374.208 236.937 373.176 234.011 373.176 229.889V227.902C373.176 223.928 374.319 221.021 376.605 219.181C378.891 217.341 382.153 216.421 386.393 216.421C387.905 216.421 389.398 216.494 390.873 216.641C392.384 216.789 393.822 216.973 395.186 217.193C396.587 217.377 397.785 217.58 398.781 217.801V224.259C397.085 224.149 395.186 224.038 393.085 223.928C391.02 223.817 389.103 223.762 387.333 223.762C386.08 223.762 384.955 223.891 383.96 224.149C383.001 224.369 382.264 224.811 381.748 225.473C381.232 226.136 380.974 227.074 380.974 228.289V229.393C380.974 230.828 381.379 231.858 382.19 232.484C383.001 233.109 384.2 233.422 385.785 233.422H389.822C392.292 233.422 394.32 233.882 395.905 234.802C397.527 235.685 398.725 236.918 399.5 238.501C400.311 240.083 400.716 241.886 400.716 243.91V246.229C400.716 249.43 400.108 251.877 398.891 253.57C397.711 255.263 396.052 256.422 393.914 257.048C391.813 257.637 389.343 257.931 386.504 257.931ZM470.543 257.6L460.755 216.752H469.216L475.797 245.566L483.484 216.752H491.005L498.636 245.566L505.217 216.752H513.678L503.89 257.6H495.539L487.244 228.785L478.894 257.6H470.543ZM539.349 257.6V216.752H547.534V257.6H539.349ZM576.091 257.6V216.752H582.672L599.815 243.689V216.752H608V257.6H601.419L584.331 230.662V257.6H576.091Z" fill="#E92C79"/>
<path d="M119.51 95.6903C123.656 89.6025 126.088 82.2432 126.088 74.3202C126.088 63.855 121.856 54.3838 115.01 47.5026C111.554 52.157 106.029 55.1864 99.7863 55.1864C89.5411 55.1864 81.2109 47.0724 80.8566 36.9321C67.5191 39.436 56.6229 48.8789 52.0941 61.3607C56.4504 60.3189 60.9891 59.7548 65.6613 59.7548C89.9146 59.7452 110.749 74.6069 119.51 95.6903Z" fill="#E92C79"/>
<path d="M115.013 47.5026C117.35 44.3584 118.748 40.4782 118.748 36.2633C118.748 25.8076 110.255 17.3398 99.7892 17.3398C89.3144 17.3398 80.8312 25.8172 80.8312 36.2633C80.8312 36.4926 80.8599 36.7125 80.8695 36.9321C83.1675 36.5022 85.5421 36.2633 87.9643 36.2633C98.5349 36.2537 108.11 40.5544 115.013 47.5026Z" fill="#E92C79"/>
<path opacity="0.35" d="M87.9068 92.994C92.1388 95.5649 96.3516 98.8048 100.028 102.561C111.03 97.8969 118.747 87.0111 118.747 74.3191C118.747 57.3834 104.988 43.6497 88.0214 43.6497C71.055 43.6497 57.2961 57.3834 57.2961 74.3191C57.2961 78.6008 58.1768 82.6816 59.7662 86.3803C69.3986 85.071 79.1935 87.6993 87.9068 92.994Z" fill="url(#paint0_linear_75_28)"/>
<path opacity="0.35" d="M99.7884 49.6429C107.197 49.6429 113.203 43.6482 113.203 36.2532C113.203 28.8583 107.197 22.8635 99.7884 22.8635C92.3799 22.8635 86.3742 28.8583 86.3742 36.2532C86.3742 43.6482 92.3799 49.6429 99.7884 49.6429Z" fill="url(#paint1_linear_75_28)"/>
<path d="M393.494 176.508H379.315C343.934 176.508 315.152 147.779 315.152 112.464V60.2339H344.346V112.464C344.346 131.713 360.039 147.377 379.322 147.377H393.501V176.508H393.494Z" fill="#703372"/>
<path d="M267.425 96.2441H237.81V171.431H267.425V96.2441Z" fill="#703372"/>
<path d="M235.504 59.7539L203.046 88.8848H302.528V60.0122L235.504 59.7539Z" fill="#703372"/>
<path d="M584.39 138.287C598.035 131.482 605.522 118.694 605.522 100.918C605.522 75.0081 587.885 60.3948 557.112 60.3948H505.036V83.6476H534.648H555.036H557.112C569.923 83.6476 577.411 89.7932 577.411 101.912C577.411 114.202 569.923 120.673 557.112 120.673H534.648V96.2347H505.036V176.64H534.648V143.926H557.112H557.945L575.247 176.64H608.855L584.39 138.287Z" fill="#703372"/>
<path d="M211.353 65.1539V102.322C211.535 102.045 211.707 101.768 211.899 101.491C217.088 93.9786 225.715 89.0088 235.501 88.8944V59.7539C226.883 59.8017 218.706 61.7418 211.353 65.1539Z" fill="#1A1A1A"/>
<path d="M89.4759 101.251L94.7996 109.365V99.6455L89.4759 101.251Z" fill="#1A1A1A"/>
<path d="M211.319 65.1739C199.159 70.8315 189.268 80.561 183.418 92.5935H183.408L182.125 94.9447L153.037 148.36L118.127 92.5935L118.108 92.6031C108.658 73.1826 88.7135 59.7451 65.6669 59.7451C60.9943 59.7451 56.4559 60.3089 52.0993 61.3507C50.6342 65.3936 49.8301 69.7613 49.8301 74.3201C49.8301 80.4558 51.2948 86.2569 53.8803 91.3894C57.49 89.7839 61.4728 88.8852 65.6765 88.8852C75.7298 88.8852 84.5961 94.0081 89.8239 101.769L90.1207 102.227C90.4083 102.667 90.7526 103.126 91.0114 103.584C91.0306 103.584 90.9922 103.584 91.0114 103.584L100.404 117.92L130.718 164.158C135.601 171.603 143.912 176.096 152.836 176.096C162.21 176.096 170.884 171.135 175.624 163.069L211.194 102.581C211.233 102.514 211.28 102.447 211.319 102.38C211.51 102.074 211.702 101.778 211.903 101.482C217.092 93.9698 225.719 89 235.505 88.8852V59.7451C226.868 59.8025 218.682 61.7426 211.319 65.1739Z" fill="#703372"/>
<path d="M50.8768 35.0724C58.8401 31.7798 62.6216 22.6666 59.3231 14.7177C56.0246 6.76871 46.8947 2.99403 38.931 6.28666C30.9675 9.57931 27.1859 18.6924 30.4846 26.6414C33.7832 34.5903 42.913 38.3652 50.8768 35.0724Z" fill="#703372"/>
<path d="M99.7895 55.1765C106.032 55.1765 111.557 52.1468 115.013 47.4923C108.11 40.5537 98.5349 36.2529 87.9551 36.2529C85.5325 36.2529 83.1579 36.4918 80.8599 36.9219C81.2142 47.0621 89.5444 55.1765 99.7895 55.1765Z" fill="#E92C79"/>
<path opacity="0.35" d="M44.8957 32.3441C51.3523 32.3441 56.5864 27.1195 56.5864 20.6746C56.5864 14.2297 51.3523 9.00513 44.8957 9.00513C38.4391 9.00513 33.2048 14.2297 33.2048 20.6746C33.2048 27.1195 38.4391 32.3441 44.8957 32.3441Z" fill="url(#paint2_linear_75_28)"/>
<path d="M406.645 59.7451H376.856L420.193 139.739V176.64H449.809V138.899L406.645 59.7451Z" fill="#703372"/>
<path d="M456.194 127.009L492.302 59.7451H462.525L440.762 99.8954L456.194 127.009Z" fill="#E92C79"/>
<path d="M93.4797 126.417C89.8316 138.296 78.7441 146.955 65.665 146.955C49.6273 146.955 36.5766 133.929 36.5766 117.921C36.5766 106.098 43.6909 95.9101 53.8689 91.3892C51.2837 86.2571 49.8186 80.4655 49.8186 74.3199C49.8186 69.7707 50.6231 65.4032 52.0878 61.3508C26.4752 67.4769 7.37347 90.5005 7.37347 117.921C7.37347 149.995 33.5223 176.095 65.6554 176.095C84.4029 176.095 101.092 167.207 111.758 153.445L93.4797 126.417Z" fill="#703372"/>
<defs>
<linearGradient id="paint0_linear_75_28" x1="44.0312" y1="33.9693" x2="104.36" y2="86.7342" gradientUnits="userSpaceOnUse">
<stop stop-color="white"/>
<stop offset="0.9944" stop-color="white" stop-opacity="0"/>
</linearGradient>
<linearGradient id="paint1_linear_75_28" x1="80.1539" y1="19.1458" x2="106.482" y2="42.1728" gradientUnits="userSpaceOnUse">
<stop stop-color="white"/>
<stop offset="0.9944" stop-color="white" stop-opacity="0"/>
</linearGradient>
<linearGradient id="paint2_linear_75_28" x1="27.7744" y1="5.75745" x2="50.7352" y2="25.8393" gradientUnits="userSpaceOnUse">
<stop stop-color="white"/>
<stop offset="0.9944" stop-color="white" stop-opacity="0"/>
</linearGradient>
</defs>
</svg>
