<?xml version="1.0" encoding="utf-8"?>
<!-- Generator: Adobe Illustrator 25.2.2, SVG Export Plug-In . SVG Version: 6.00 Build 0)  -->
<svg version="1.1" id="Layer_1" xmlns="http://www.w3.org/2000/svg" xmlns:xlink="http://www.w3.org/1999/xlink" x="0px" y="0px"
	 viewBox="0 0 20.4 20.4" style="enable-background:new 0 0 20.4 20.4;" xml:space="preserve">
<style type="text/css">
	.st0{fill:#90CAF9;}
	.st1{fill:#42A5F5;}
</style>
<g>
	<circle class="st0" cx="10.2" cy="8.3" r="2.3"/>
	<path class="st1" d="M12,10.4c-0.3,0.3-0.6,0.4-0.9,0.5l0.2,2.1c0,0.1,0,0.2-0.1,0.3l-0.8,0.8c-0.1,0.1-0.3,0.1-0.4,0l-0.8-0.8
		C9,13.1,9,13,9,13l0.3-2.1c-0.3-0.1-0.7-0.3-0.9-0.5C6.9,11,6,12.5,6,14.1c0,0.2,0.1,0.3,0.3,0.3H14c0.2,0,0.3-0.1,0.3-0.3
		C14.4,12.5,13.5,11,12,10.4z"/>
</g>
</svg>
