<svg xmlns="http://www.w3.org/2000/svg" width="21.878" height="11.669" viewBox="0 0 21.878 11.669"><defs><style>.a{fill:#42a5f5;}.b{fill:#90caf9;}</style></defs><g transform="translate(-0.5 -11.603)"><path class="a" d="M22.164,16.522l-1.458-1.459a.73.73,0,0,0-.516-.213h-8.81a5.834,5.834,0,1,0,0,5.834H18a.732.732,0,0,0,.326-.077l1.132-.566c1.481.741,1.148.643,2.188.643a.729.729,0,0,0,.729-.729V17.038A.727.727,0,0,0,22.164,16.522ZM4.876,18.5a.729.729,0,1,1,.729-.729A.729.729,0,0,1,4.876,18.5Z" transform="translate(0 -0.33)"/><circle class="b" cx="2.785" cy="2.785" r="2.785" transform="translate(2.956 14.603)"/></g></svg>