<svg xmlns="http://www.w3.org/2000/svg" width="24.452" height="4.703" viewBox="0 0 24.452 4.703"><defs><style>.a{fill:#fff;}.b{fill:none;stroke-miterlimit:10;}.c,.d{stroke:none;}.d{fill:#fff;}</style></defs><g data-type="innerShadowGroup"><g class="a" transform="translate(0.5 0.5)"><path class="c" d="M 21.60009002685547 3.952583312988281 C 20.44174003601074 3.952583312988281 19.49934959411621 3.01020336151123 19.49934959411621 1.851853370666504 C 19.49934959411621 0.6928933262825012 20.44174003601074 -0.2499966770410538 21.60009002685547 -0.2499966770410538 C 22.75904846191406 -0.2499966770410538 23.70193862915039 0.6928933262825012 23.70193862915039 1.851853370666504 C 23.70193862915039 3.01020336151123 22.75904846191406 3.952583312988281 21.60009002685547 3.952583312988281 Z M 11.72652912139893 3.952583312988281 C 10.56756973266602 3.952583312988281 9.624679565429688 3.01020336151123 9.624679565429688 1.851853370666504 C 9.624679565429688 0.6928933262825012 10.56756973266602 -0.2499966770410538 11.72652912139893 -0.2499966770410538 C 12.88487911224365 -0.2499966770410538 13.8272590637207 0.6928933262825012 13.8272590637207 1.851853370666504 C 13.8272590637207 3.01020336151123 12.88487911224365 3.952583312988281 11.72652912139893 3.952583312988281 Z M 1.851849317550659 3.952583312988281 C 0.6928893327713013 3.952583312988281 -0.2500006854534149 3.01020336151123 -0.2500006854534149 1.851853370666504 C -0.2500006854534149 0.6928933262825012 0.6928893327713013 -0.2499966770410538 1.851849317550659 -0.2499966770410538 C 3.010199308395386 -0.2499966770410538 3.952589273452759 0.6928933262825012 3.952589273452759 1.851853370666504 C 3.952589273452759 3.01020336151123 3.010199308395386 3.952583312988281 1.851849317550659 3.952583312988281 Z"/><path class="c" d="M 21.60009002685547 3.702583312988281 C 22.62321853637695 3.702583312988281 23.45193862915039 2.873863220214844 23.45193862915039 1.851853370666504 C 23.45193862915039 0.8287233114242554 22.62321853637695 3.325424131617183e-06 21.60009002685547 3.325424131617183e-06 C 20.57806968688965 3.325424131617183e-06 19.74934959411621 0.8287233114242554 19.74934959411621 1.851853370666504 C 19.74934959411621 2.873863220214844 20.57806968688965 3.702583312988281 21.60009002685547 3.702583312988281 M 11.72652912139893 3.702583312988281 C 12.74853897094727 3.702583312988281 13.5772590637207 2.873863220214844 13.5772590637207 1.851853370666504 C 13.5772590637207 0.8287233114242554 12.74853897094727 3.325424131617183e-06 11.72652912139893 3.325424131617183e-06 C 10.70339965820312 3.325424131617183e-06 9.874679565429688 0.8287233114242554 9.874679565429688 1.851853370666504 C 9.874679565429688 2.873863220214844 10.70339965820312 3.702583312988281 11.72652912139893 3.702583312988281 M 1.851849317550659 3.702583312988281 C 2.8738694190979 3.702583312988281 3.702589273452759 2.873863220214844 3.702589273452759 1.851853370666504 C 3.702589273452759 0.8287233114242554 2.8738694190979 3.325424131617183e-06 1.851849317550659 3.325424131617183e-06 C 0.8287193179130554 3.325424131617183e-06 -6.854248226773052e-07 0.8287233114242554 -6.854248226773052e-07 1.851853370666504 C -6.854248226773052e-07 2.873863220214844 0.8287193179130554 3.702583312988281 1.851849317550659 3.702583312988281 M 21.60009002685547 4.202583312988281 C 20.30389022827148 4.202583312988281 19.24934959411621 3.148053407669067 19.24934959411621 1.851853370666504 C 19.24934959411621 0.5550433397293091 20.30389022827148 -0.4999966621398926 21.60009002685547 -0.4999966621398926 C 22.89690017700195 -0.4999966621398926 23.95193862915039 0.5550433397293091 23.95193862915039 1.851853370666504 C 23.95193862915039 3.148053407669067 22.89690017700195 4.202583312988281 21.60009002685547 4.202583312988281 Z M 11.72652912139893 4.202583312988281 C 10.42971897125244 4.202583312988281 9.374679565429688 3.148053407669067 9.374679565429688 1.851853370666504 C 9.374679565429688 0.5550433397293091 10.42971897125244 -0.4999966621398926 11.72652912139893 -0.4999966621398926 C 13.02272891998291 -0.4999966621398926 14.0772590637207 0.5550433397293091 14.0772590637207 1.851853370666504 C 14.0772590637207 3.148053407669067 13.02272891998291 4.202583312988281 11.72652912139893 4.202583312988281 Z M 1.851849317550659 4.202583312988281 C 0.5550392866134644 4.202583312988281 -0.5000006556510925 3.148053407669067 -0.5000006556510925 1.851853370666504 C -0.5000006556510925 0.5550433397293091 0.5550392866134644 -0.4999966621398926 1.851849317550659 -0.4999966621398926 C 3.148049354553223 -0.4999966621398926 4.202589511871338 0.5550433397293091 4.202589511871338 1.851853370666504 C 4.202589511871338 3.148053407669067 3.148049354553223 4.202583312988281 1.851849317550659 4.202583312988281 Z"/></g><g class="a" transform="translate(0.5 0.5)"><path class="c" d="M 21.60009002685547 3.952583312988281 C 20.44174003601074 3.952583312988281 19.49934959411621 3.01020336151123 19.49934959411621 1.851853370666504 C 19.49934959411621 0.6928933262825012 20.44174003601074 -0.2499966770410538 21.60009002685547 -0.2499966770410538 C 22.75904846191406 -0.2499966770410538 23.70193862915039 0.6928933262825012 23.70193862915039 1.851853370666504 C 23.70193862915039 3.01020336151123 22.75904846191406 3.952583312988281 21.60009002685547 3.952583312988281 Z M 11.72652912139893 3.952583312988281 C 10.56756973266602 3.952583312988281 9.624679565429688 3.01020336151123 9.624679565429688 1.851853370666504 C 9.624679565429688 0.6928933262825012 10.56756973266602 -0.2499966770410538 11.72652912139893 -0.2499966770410538 C 12.88487911224365 -0.2499966770410538 13.8272590637207 0.6928933262825012 13.8272590637207 1.851853370666504 C 13.8272590637207 3.01020336151123 12.88487911224365 3.952583312988281 11.72652912139893 3.952583312988281 Z M 1.851849317550659 3.952583312988281 C 0.6928893327713013 3.952583312988281 -0.2500006854534149 3.01020336151123 -0.2500006854534149 1.851853370666504 C -0.2500006854534149 0.6928933262825012 0.6928893327713013 -0.2499966770410538 1.851849317550659 -0.2499966770410538 C 3.010199308395386 -0.2499966770410538 3.952589273452759 0.6928933262825012 3.952589273452759 1.851853370666504 C 3.952589273452759 3.01020336151123 3.010199308395386 3.952583312988281 1.851849317550659 3.952583312988281 Z"/><path class="c" d="M 21.60009002685547 3.702583312988281 C 22.62321853637695 3.702583312988281 23.45193862915039 2.873863220214844 23.45193862915039 1.851853370666504 C 23.45193862915039 0.8287233114242554 22.62321853637695 3.325424131617183e-06 21.60009002685547 3.325424131617183e-06 C 20.57806968688965 3.325424131617183e-06 19.74934959411621 0.8287233114242554 19.74934959411621 1.851853370666504 C 19.74934959411621 2.873863220214844 20.57806968688965 3.702583312988281 21.60009002685547 3.702583312988281 M 11.72652912139893 3.702583312988281 C 12.74853897094727 3.702583312988281 13.5772590637207 2.873863220214844 13.5772590637207 1.851853370666504 C 13.5772590637207 0.8287233114242554 12.74853897094727 3.325424131617183e-06 11.72652912139893 3.325424131617183e-06 C 10.70339965820312 3.325424131617183e-06 9.874679565429688 0.8287233114242554 9.874679565429688 1.851853370666504 C 9.874679565429688 2.873863220214844 10.70339965820312 3.702583312988281 11.72652912139893 3.702583312988281 M 1.851849317550659 3.702583312988281 C 2.8738694190979 3.702583312988281 3.702589273452759 2.873863220214844 3.702589273452759 1.851853370666504 C 3.702589273452759 0.8287233114242554 2.8738694190979 3.325424131617183e-06 1.851849317550659 3.325424131617183e-06 C 0.8287193179130554 3.325424131617183e-06 -6.854248226773052e-07 0.8287233114242554 -6.854248226773052e-07 1.851853370666504 C -6.854248226773052e-07 2.873863220214844 0.8287193179130554 3.702583312988281 1.851849317550659 3.702583312988281 M 21.60009002685547 4.202583312988281 C 20.30389022827148 4.202583312988281 19.24934959411621 3.148053407669067 19.24934959411621 1.851853370666504 C 19.24934959411621 0.5550433397293091 20.30389022827148 -0.4999966621398926 21.60009002685547 -0.4999966621398926 C 22.89690017700195 -0.4999966621398926 23.95193862915039 0.5550433397293091 23.95193862915039 1.851853370666504 C 23.95193862915039 3.148053407669067 22.89690017700195 4.202583312988281 21.60009002685547 4.202583312988281 Z M 11.72652912139893 4.202583312988281 C 10.42971897125244 4.202583312988281 9.374679565429688 3.148053407669067 9.374679565429688 1.851853370666504 C 9.374679565429688 0.5550433397293091 10.42971897125244 -0.4999966621398926 11.72652912139893 -0.4999966621398926 C 13.02272891998291 -0.4999966621398926 14.0772590637207 0.5550433397293091 14.0772590637207 1.851853370666504 C 14.0772590637207 3.148053407669067 13.02272891998291 4.202583312988281 11.72652912139893 4.202583312988281 Z M 1.851849317550659 4.202583312988281 C 0.5550392866134644 4.202583312988281 -0.5000006556510925 3.148053407669067 -0.5000006556510925 1.851853370666504 C -0.5000006556510925 0.5550433397293091 0.5550392866134644 -0.4999966621398926 1.851849317550659 -0.4999966621398926 C 3.148049354553223 -0.4999966621398926 4.202589511871338 0.5550433397293091 4.202589511871338 1.851853370666504 C 4.202589511871338 3.148053407669067 3.148049354553223 4.202583312988281 1.851849317550659 4.202583312988281 Z"/></g><g class="b" transform="translate(0.5 0.5)"><path class="c" d="M 21.60009002685547 3.952583312988281 C 20.44174003601074 3.952583312988281 19.49934959411621 3.01020336151123 19.49934959411621 1.851853370666504 C 19.49934959411621 0.6928933262825012 20.44174003601074 -0.2499966770410538 21.60009002685547 -0.2499966770410538 C 22.75904846191406 -0.2499966770410538 23.70193862915039 0.6928933262825012 23.70193862915039 1.851853370666504 C 23.70193862915039 3.01020336151123 22.75904846191406 3.952583312988281 21.60009002685547 3.952583312988281 Z M 11.72652912139893 3.952583312988281 C 10.56756973266602 3.952583312988281 9.624679565429688 3.01020336151123 9.624679565429688 1.851853370666504 C 9.624679565429688 0.6928933262825012 10.56756973266602 -0.2499966770410538 11.72652912139893 -0.2499966770410538 C 12.88487911224365 -0.2499966770410538 13.8272590637207 0.6928933262825012 13.8272590637207 1.851853370666504 C 13.8272590637207 3.01020336151123 12.88487911224365 3.952583312988281 11.72652912139893 3.952583312988281 Z M 1.851849317550659 3.952583312988281 C 0.6928893327713013 3.952583312988281 -0.2500006854534149 3.01020336151123 -0.2500006854534149 1.851853370666504 C -0.2500006854534149 0.6928933262825012 0.6928893327713013 -0.2499966770410538 1.851849317550659 -0.2499966770410538 C 3.010199308395386 -0.2499966770410538 3.952589273452759 0.6928933262825012 3.952589273452759 1.851853370666504 C 3.952589273452759 3.01020336151123 3.010199308395386 3.952583312988281 1.851849317550659 3.952583312988281 Z"/><path class="d" d="M 21.60009002685547 3.702583312988281 C 22.62321853637695 3.702583312988281 23.45193862915039 2.873863220214844 23.45193862915039 1.851853370666504 C 23.45193862915039 0.8287233114242554 22.62321853637695 3.325424131617183e-06 21.60009002685547 3.325424131617183e-06 C 20.57806968688965 3.325424131617183e-06 19.74934959411621 0.8287233114242554 19.74934959411621 1.851853370666504 C 19.74934959411621 2.873863220214844 20.57806968688965 3.702583312988281 21.60009002685547 3.702583312988281 M 11.72652912139893 3.702583312988281 C 12.74853897094727 3.702583312988281 13.5772590637207 2.873863220214844 13.5772590637207 1.851853370666504 C 13.5772590637207 0.8287233114242554 12.74853897094727 3.325424131617183e-06 11.72652912139893 3.325424131617183e-06 C 10.70339965820312 3.325424131617183e-06 9.874679565429688 0.8287233114242554 9.874679565429688 1.851853370666504 C 9.874679565429688 2.873863220214844 10.70339965820312 3.702583312988281 11.72652912139893 3.702583312988281 M 1.851849317550659 3.702583312988281 C 2.8738694190979 3.702583312988281 3.702589273452759 2.873863220214844 3.702589273452759 1.851853370666504 C 3.702589273452759 0.8287233114242554 2.8738694190979 3.325424131617183e-06 1.851849317550659 3.325424131617183e-06 C 0.8287193179130554 3.325424131617183e-06 -6.854248226773052e-07 0.8287233114242554 -6.854248226773052e-07 1.851853370666504 C -6.854248226773052e-07 2.873863220214844 0.8287193179130554 3.702583312988281 1.851849317550659 3.702583312988281 M 21.60009002685547 4.202583312988281 C 20.30389022827148 4.202583312988281 19.24934959411621 3.148053407669067 19.24934959411621 1.851853370666504 C 19.24934959411621 0.5550433397293091 20.30389022827148 -0.4999966621398926 21.60009002685547 -0.4999966621398926 C 22.89690017700195 -0.4999966621398926 23.95193862915039 0.5550433397293091 23.95193862915039 1.851853370666504 C 23.95193862915039 3.148053407669067 22.89690017700195 4.202583312988281 21.60009002685547 4.202583312988281 Z M 11.72652912139893 4.202583312988281 C 10.42971897125244 4.202583312988281 9.374679565429688 3.148053407669067 9.374679565429688 1.851853370666504 C 9.374679565429688 0.5550433397293091 10.42971897125244 -0.4999966621398926 11.72652912139893 -0.4999966621398926 C 13.02272891998291 -0.4999966621398926 14.0772590637207 0.5550433397293091 14.0772590637207 1.851853370666504 C 14.0772590637207 3.148053407669067 13.02272891998291 4.202583312988281 11.72652912139893 4.202583312988281 Z M 1.851849317550659 4.202583312988281 C 0.5550392866134644 4.202583312988281 -0.5000006556510925 3.148053407669067 -0.5000006556510925 1.851853370666504 C -0.5000006556510925 0.5550433397293091 0.5550392866134644 -0.4999966621398926 1.851849317550659 -0.4999966621398926 C 3.148049354553223 -0.4999966621398926 4.202589511871338 0.5550433397293091 4.202589511871338 1.851853370666504 C 4.202589511871338 3.148053407669067 3.148049354553223 4.202583312988281 1.851849317550659 4.202583312988281 Z"/></g></g></svg>