<?xml version="1.0" encoding="utf-8"?>
<!-- Generator: Adobe Illustrator 25.4.1, SVG Export Plug-In . SVG Version: 6.00 Build 0)  -->
<svg version="1.1" id="Layer_1" xmlns="http://www.w3.org/2000/svg" xmlns:xlink="http://www.w3.org/1999/xlink" x="0px" y="0px"
	 viewBox="0 0 20 20" style="enable-background:new 0 0 20 20;" xml:space="preserve">
<style type="text/css">
	.st0{fill:#90CAF9;}
	.st1{fill:#42A5F5;}
	.st2{fill:#3990D5;}
</style>
<rect x="11.5" y="6.3" transform="matrix(0.5 -0.866 0.866 0.5 1.2097 16.8197)" class="st0" width="7.3" height="2.2"/>
<path class="st1" d="M14.7,11.8L14.7,11.8L14.7,11.8l-3.1,2.4c-0.2,0.1-0.4,0.1-0.5-0.1C11,14.1,11,14,11,13.9l0.6-3.9
	c0,0,0-0.1,0-0.1L16,2.3H1.1C0.5,2.3,0,2.8,0,3.4v11.7c0,0.6,0.5,1.1,1.1,1.1h0.7c0.2,0,0.4,0.2,0.4,0.4V20L6,16.3
	c0.1-0.1,0.2-0.1,0.3-0.1h10.9c0.6,0,1.1-0.5,1.1-1.1V5.6l-3.5,6.1C14.7,11.8,14.7,11.8,14.7,11.8z M1.5,3.8h12.4v0.7H1.5V3.8z
	 M1.5,8.9h8.7v0.7H1.5V8.9z M1.5,10.3h8.7v0.7H1.5V10.3z M1.5,11.8h8.7v0.7H1.5V11.8z M1.5,13.3h8.7V14H1.5V13.3z M9.5,15.4h-8v-0.7
	h8V15.4z M11,15.4h-0.7v-0.7H11V15.4z"/>
<path class="st2" d="M20,1c0-0.1-0.1-0.2-0.2-0.2L18.5,0c-0.1,0-0.2-0.1-0.3,0c-0.1,0-0.2,0.1-0.2,0.2L16.4,3l1.9,1.1l1.6-2.8
	C20,1.2,20,1.1,20,1z"/>
<polygon class="st0" points="11.8,13.1 13.8,11.6 12.2,10.7 "/>
</svg>
