<svg id="Layer_1" data-name="Layer 1" xmlns="http://www.w3.org/2000/svg" viewBox="0 0 20.03 20.03"><defs><style>.cls-1{fill:#3990d5;}.cls-2{fill:#42a5f5;}.cls-3{fill:#90caf9;}</style></defs><path class="cls-1" d="M2.38,4.48A1.35,1.35,0,0,0,1,5.82v5.4a1.35,1.35,0,0,0,1.35,1.34h.48v2.26a.35.35,0,0,0,.23.33.31.31,0,0,0,.13,0,.36.36,0,0,0,.26-.11L6,12.56H8V11.24H7.56A2.07,2.07,0,0,1,5.49,9.17V4.48Z"/><path class="cls-2" d="M14,13a.36.36,0,0,0,.26.11l.14,0a.35.35,0,0,0,.22-.33V10.51h.48a1.34,1.34,0,0,0,1.35-1.34V3.77a1.35,1.35,0,0,0-1.35-1.35H7.56A1.35,1.35,0,0,0,6.21,3.77v5.4a1.34,1.34,0,0,0,1.35,1.34h4Z"/><path class="cls-3" d="M17.65,6.9h-.44V9.17a2.08,2.08,0,0,1-1.84,2.05v1.55a1.07,1.07,0,0,1-.67,1,1,1,0,0,1-.4.08,1.09,1.09,0,0,1-.78-.33l-2.29-2.29H8.72v2.41A1.34,1.34,0,0,0,10.07,15h4l2.51,2.51a.36.36,0,0,0,.26.11l.14,0a.35.35,0,0,0,.22-.33V15h.48A1.35,1.35,0,0,0,19,13.64V8.25A1.36,1.36,0,0,0,17.65,6.9Z"/></svg>