<svg id="Layer_1" data-name="Layer 1" xmlns="http://www.w3.org/2000/svg" viewBox="0 0 20 20"><defs><style>.cls-1{fill:#fff;fill-rule:evenodd;}</style></defs><path class="cls-1" d="M4.4,10a5.7,5.7,0,0,1,.3-1.8L1.3,5.6a10.4,10.4,0,0,0,0,8.8l3.4-2.6A5.7,5.7,0,0,1,4.4,10"/><path class="cls-1" d="M10.2,4.2a5.8,5.8,0,0,1,3.7,1.3l2.8-2.9a9.8,9.8,0,0,0-13.9.9A8,8,0,0,0,1.3,5.6L4.7,8.2a5.8,5.8,0,0,1,5.5-4"/><path class="cls-1" d="M10.2,15.8a5.8,5.8,0,0,1-5.5-4L1.3,14.4a10.2,10.2,0,0,0,8.9,5.5,9.8,9.8,0,0,0,6.5-2.5L13.5,15a5.4,5.4,0,0,1-3.3.8"/><path class="cls-1" d="M19.7,10a5.7,5.7,0,0,0-.3-1.8H10.2V12h5.3a4.4,4.4,0,0,1-2,3l3.2,2.4a9.7,9.7,0,0,0,3-7.4"/></svg>