<svg id="Layer_1" data-name="Layer 1" xmlns="http://www.w3.org/2000/svg" viewBox="0 0 20 20"><defs><style>.cls-1{fill:#fff;}</style></defs><path class="cls-1" d="M19.9,5.1V15c-.1.4-.1.7-.2,1.1a5.4,5.4,0,0,1-5.2,3.7H5.6a6.3,6.3,0,0,1-2.7-.6A5.3,5.3,0,0,1,.2,14.4c-.1-3-.1-5.9,0-8.8A4.5,4.5,0,0,1,.3,4.5,5.1,5.1,0,0,1,4.3.3L5.2.1H15.5a5.4,5.4,0,0,1,4.2,4.1C19.8,4.5,19.8,4.8,19.9,5.1ZM15.4,10A5.4,5.4,0,1,0,10,15.4,5.4,5.4,0,0,0,15.4,10Zm.3-7.4a1.7,1.7,0,0,0-1.6,1.7,1.6,1.6,0,0,0,1.6,1.6,1.7,1.7,0,0,0,1.7-1.6A1.8,1.8,0,0,0,15.7,2.6Z"/></svg>