<svg xmlns="http://www.w3.org/2000/svg" width="20.418" height="20.421" viewBox="0 0 20.418 20.421"><defs><style>.a{fill:#42a5f5;}.b{fill:#90caf9;}</style></defs><g transform="translate(-1 -1)"><path class="a" d="M13.934,13.253a.681.681,0,0,0-.681.681v3.4H9.169V4.4a.681.681,0,0,0-.429-.633L5.214,2.361h8.039V8.488a.681.681,0,1,0,1.361,0V1.681A.681.681,0,0,0,13.934,1H1.681a.681.681,0,0,0-.225.041H1.415l-.088.048-.075.068H1.218a.511.511,0,0,0-.123.191v.041a.681.681,0,0,0-.1.293V18.018a.681.681,0,0,0,.429.633l6.807,2.723a.64.64,0,0,0,.252.048.679.679,0,0,0,.681-.681V18.7h4.765a.681.681,0,0,0,.681-.681V13.934A.681.681,0,0,0,13.934,13.253Z" transform="translate(0)"/><path class="b" d="M25.837,14.661a.7.7,0,0,0-.143-.742L22.971,11.2a.683.683,0,0,0-.967.967l.483.476v1.082H15.681a.681.681,0,1,0,0,1.361h6.807v1.082L22,16.642a.684.684,0,1,0,.967.967l2.723-2.723A.681.681,0,0,0,25.837,14.661Z" transform="translate(-4.47 -3.192)"/></g></svg>