<?xml version="1.0" encoding="utf-8"?>
<!-- Generator: Adobe Illustrator 25.2.2, SVG Export Plug-In . SVG Version: 6.00 Build 0)  -->
<svg version="1.1" id="Layer_1" xmlns="http://www.w3.org/2000/svg" xmlns:xlink="http://www.w3.org/1999/xlink" x="0px" y="0px"
	 viewBox="0 0 500 58" style="enable-background:new 0 0 500 58;" xml:space="preserve">
<style type="text/css">
	.st0{clip-path:url(#SVGID_2_);fill:#41A4FE;}
</style>
<g>
	<defs>
		<rect id="SVGID_1_" width="500" height="58"/>
	</defs>
	<clipPath id="SVGID_2_">
		<use xlink:href="#SVGID_1_"  style="overflow:visible;"/>
	</clipPath>
	<path class="st0" d="M486.2,14.9c-0.2-2.2,11.8-3.7,11.8-7c0-2-4.6-3.6-5-3.7c-4.3-1.5-9.3-0.7-12.4-2.1c-1.2-0.6-1.6-1.2-1.7-1.4
		c-0.6-1.3,0.6-2.6-2.8-4c-4.4-1.8-15.7-4-15.6-5.8l-8.1,0.3H53.5v0.1L41.1-9.1c0,1.8-11.2,4.1-15.6,5.8c-4.4,1.8-2.3,3.6-4.5,5.4
		c-2.8,2.2-6.3,2.1-13.4,5.4c-2.5,1.1-4.2,2.2-5.4,2.8C4.8,9,7.7,7.5,7.6,7.5c0,0-4.1,1.2-5.4,2.8c-3.6,4.7,15.6,8.8,11.7,12.8
		c-1.8,1.8-7.6,2.6-6.7,4.2c0.4,0.7,1.7,0.9,3.7,1.7c3.4,1.4,5.7,3.2,6,4.4c0.7,3.4-14.6,5.2-13.2,7.4c1.3,1.9,14,1.1,18.3,4.3
		c1.7,1.2,1.3,2.5,1.1,3.2c-1,3.4-8,4-7.3,6.1c0.8,2.5,12.5,3.5,11.6,5.3c-0.3,0.6-2,1.1-3,1.4c-2.9,0.9-4.7,0.5-6.4,1.1
		c-2.4,0.8-1.4,2.6,0.1,5.1c1.8,3,3.2,3.3,2.9,4.5c-0.4,1.1-2.5,2.8-11.1,4.5L5.4,77h48.1H59h383.7h9.8h43.6
		c-4.7-3.7-9.5-7.4-14.2-11c4.4,0.7,8.4,0.5,9.6-0.3c1.2-0.7-0.3-2-2.3-2.7c-3.5-1.3-7.4-0.5-12.1-2c-1.7-0.5-2.9-0.9-3-1.4
		c-0.5-1.9,16.2-2.8,16.3-5.2c0.1-1.9-9.5-2.7-9.7-5.7c-0.1-2.3,5.3-4.5,5.7-4.6c2.9-1.2,4.5-0.7,7.3-2.3c1-0.6,3.4-2,3.2-3
		c-0.5-2.3-13,0.3-15.6-4.4c-0.2-0.3-0.5-0.9-0.3-1.5c0.4-1.6,3.2-2,9.7-3.9c2.9-0.9,3.7-1.2,3.7-1.7c0-1.3-6.6-1.7-6.6-3
		c-0.1-1.8,12.3-3,12.3-4.7C500,17.6,486.3,17.2,486.2,14.9z"/>
</g>
</svg>
