<?xml version="1.0" encoding="utf-8"?>
<!-- Generator: Adobe Illustrator 25.2.2, SVG Export Plug-In . SVG Version: 6.00 Build 0)  -->
<svg version="1.1" id="Layer_1" xmlns="http://www.w3.org/2000/svg" xmlns:xlink="http://www.w3.org/1999/xlink" x="0px" y="0px"
	 viewBox="0 0 190 50" style="enable-background:new 0 0 190 50;" xml:space="preserve">
<style type="text/css">
	.st0{clip-path:url(#SVGID_2_);fill:#41A4FE;}
</style>
<g>
	<defs>
		<rect id="SVGID_1_" width="190" height="50"/>
	</defs>
	<clipPath id="SVGID_2_">
		<use xlink:href="#SVGID_1_"  style="overflow:visible;"/>
	</clipPath>
	<path class="st0" d="M184.7,12.8c-0.1-1.9,4.5-3.2,4.5-6c0-1.7-1.7-3.1-1.9-3.2c-1.6-1.3-3.6-0.6-4.7-1.8c-0.5-0.5-0.6-1.1-0.6-1.2
		c-0.2-1.1,0.2-2.3-1.1-3.4c-1.7-1.5-6-3.5-5.9-5l-3.1,0.2H20.3v0.1l-4.7-0.3c0,1.5-4.3,3.5-5.9,5C8-1.3,8.8,0.3,8,1.8
		C6.9,3.8,5.6,3.6,2.9,6.5c-0.9,1-1.6,1.9-2,2.4c1-1.2,2.1-2.4,2-2.4c0,0-1.6,1-2,2.4c-1.4,4.1,5.9,7.6,4.4,11
		c-0.7,1.6-2.9,2.3-2.5,3.6c0.2,0.6,0.7,0.7,1.4,1.4c1.3,1.2,2.2,2.8,2.3,3.8c0.3,2.9-5.5,4.5-5,6.3c0.5,1.6,5.3,1,6.9,3.7
		C9,39.9,8.9,41,8.8,41.6c-0.4,2.9-3,3.5-2.8,5.2c0.3,2.2,4.8,3,4.4,4.6c-0.1,0.5-0.7,1-1.1,1.2c-1.1,0.8-1.8,0.5-2.4,1
		c-0.9,0.7-0.5,2.2,0,4.4c0.7,2.6,1.2,2.9,1.1,3.9c-0.1,1-0.9,2.4-4.2,3.9l-1.7,0.7h18.3h2.1h145.8h3.7h16.6
		c-1.8-3.2-3.6-6.3-5.4-9.5c1.7,0.6,3.2,0.4,3.7-0.3c0.4-0.6-0.1-1.7-0.9-2.4c-1.3-1.1-2.8-0.4-4.6-1.7c-0.6-0.4-1.1-0.8-1.1-1.2
		c-0.2-1.6,6.1-2.4,6.2-4.5c0-1.6-3.6-2.3-3.7-4.9c0-1.9,2-3.9,2.1-4c1.1-1,1.7-0.6,2.8-2c0.4-0.5,1.3-1.7,1.2-2.6
		c-0.2-1.9-4.9,0.3-5.9-3.8c-0.1-0.3-0.2-0.8-0.1-1.3c0.1-1.3,1.2-1.7,3.7-3.4c1.1-0.7,1.4-1,1.4-1.4c0-1.1-2.5-1.5-2.5-2.6
		c0-1.5,4.7-2.6,4.7-4.1C190,15.2,184.8,14.9,184.7,12.8z"/>
</g>
</svg>
