<svg xmlns="http://www.w3.org/2000/svg" width="16.162" height="20.015" viewBox="0 0 16.162 20.015"><defs><style>.a{fill:#90caf9;}.b{fill:#42a5f5;}.c{fill:#1f2128;}</style></defs><g transform="translate(-5)"><path class="a" d="M17.81,0H6.2A1.2,1.2,0,0,0,5,1.2H5V16.813H5a1.2,1.2,0,0,0,1.2,1.2H17.81a1.2,1.2,0,0,0,1.2-1.2h0V1.2h0A1.2,1.2,0,0,0,17.81,0Zm-.949,16.813H7.149a.948.948,0,0,1-.948-.948V2.124A.923.923,0,0,1,7.124,1.2H16.89a.92.92,0,0,1,.92.92V15.864A.949.949,0,0,1,16.861,16.813Z"/><rect class="b" width="13.61" height="17.213" rx="1" transform="translate(7.552 2.802)"/><rect class="a" width="6.805" height="5.204" rx="1" transform="translate(10.955 5.204)"/><rect class="c" width="6.805" height="1.401" rx="0.701" transform="translate(10.955 13.41)"/><rect class="c" width="6.805" height="1.401" rx="0.701" transform="translate(10.955 15.812)"/></g></svg>