<svg id="Layer_1" data-name="Layer 1" xmlns="http://www.w3.org/2000/svg" viewBox="0 0 20 20"><defs><style>.cls-1{fill:#fff;}</style></defs><path class="cls-1" d="M19.9,3.8a6.2,6.2,0,0,1-2.3.7,4.2,4.2,0,0,0,1.8-2.3,8.2,8.2,0,0,1-2.6,1A4.2,4.2,0,0,0,11,3,4.3,4.3,0,0,0,9.7,6c.1.3.1.6.2.9A11.3,11.3,0,0,1,1.5,2.7,4,4,0,0,0,2.7,8.1,3.7,3.7,0,0,1,.9,7.6h0a3.9,3.9,0,0,0,3.2,3.9l-1,.2H2.3a4,4,0,0,0,3.8,2.8A7.8,7.8,0,0,1,1,16.3H.1a11.5,11.5,0,0,0,16-3.5,11.2,11.2,0,0,0,1.8-6.2V5.9A5.8,5.8,0,0,0,19.9,3.8Z"/></svg>