<svg xmlns="http://www.w3.org/2000/svg" width="14.718" height="20.071" viewBox="0 0 14.718 20.071"><defs><style>.a{fill:#42a5f5;}.b{fill-rule:evenodd;}</style></defs><g transform="translate(-6.664 0.004)"><path class="a" d="M20.713,0H7.333a.669.669,0,0,0-.669.669V19.4a.669.669,0,0,0,.669.669h13.38a.669.669,0,0,0,.669-.669V.665A.669.669,0,0,0,20.713,0ZM11.347,3.341H16.7a.669.669,0,0,1,0,1.338H11.347a.669.669,0,1,1,0-1.338Zm6.69,8.028H10.009a.669.669,0,0,1,0-1.338h8.028a.669.669,0,1,1,0,1.338Zm0-3.345H10.009a.669.669,0,0,1,0-1.338h8.028a.669.669,0,1,1,0,1.338Z"/><g transform="translate(8.972 13.644)"><g transform="translate(0)"><path class="b" d="M22.476,36.363A7.786,7.786,0,0,0,17.493,34a7.786,7.786,0,0,0-4.982,2.363.363.363,0,0,0,0,.492,7.786,7.786,0,0,0,4.982,2.363,7.786,7.786,0,0,0,4.982-2.363A.362.362,0,0,0,22.476,36.363Zm-4.982,2.032a1.786,1.786,0,1,1,1.786-1.786A1.789,1.789,0,0,1,17.493,38.394Z" transform="translate(-12.415 -34)"/><circle cx="1.037" cy="1.037" r="1.037" transform="translate(4.041 1.572)"/></g></g></g></svg>