<?xml version="1.0" encoding="utf-8"?>
<!-- Generator: Adobe Illustrator 26.0.2, SVG Export Plug-In . SVG Version: 6.00 Build 0)  -->
<svg version="1.1" xmlns="http://www.w3.org/2000/svg" xmlns:xlink="http://www.w3.org/1999/xlink" x="0px" y="0px"
	 viewBox="0 0 630 283" style="enable-background:new 0 0 630 283;" xml:space="preserve">
<style type="text/css">
	.st0{display:none;fill:#1A1A1A;}
	.st1{enable-background:new    ;}
	.st2{fill:#64C4DE;}
	.st3{fill:#41A4FE;}
	.st4{fill:#43C9FE;}
	.st5{opacity:0.35;fill:url(#SVGID_1_);enable-background:new    ;}
	.st6{opacity:0.35;fill:url(#SVGID_00000093146200625163362980000010408858301510053308_);enable-background:new    ;}
	.st7{fill:#FFFFFF;}
	.st8{fill:#46DCFF;}
	.st9{fill:#1181FD;}
	.st10{opacity:0.35;fill:url(#SVGID_00000101086425668026554940000016606028013211084467_);enable-background:new    ;}
</style>
<g id="Layer_1">
</g>
<g id="Layer_2">
	<rect x="-0.3" class="st0" width="630" height="283"/>
	<g class="st1">
		<path class="st2" d="M43.9,234.6c4,2.3,6,5.8,6,10.4c0,3.9-1.4,7-4.1,9.5s-6.1,3.7-10.1,3.7H16.4v-45.5h17.9
			c3.9,0,7.1,1.2,9.8,3.6c2.7,2.4,4,5.5,4,9.2C48.2,229.3,46.8,232.3,43.9,234.6z M34.3,221.1h-9v10h9c1.4,0,2.5-0.5,3.5-1.4
			c0.9-1,1.4-2.1,1.4-3.6c0-1.4-0.5-2.6-1.4-3.6C36.9,221.6,35.8,221.1,34.3,221.1z M25.4,249.8h10.3c1.5,0,2.8-0.5,3.8-1.5
			c1-1,1.5-2.3,1.5-3.9c0-1.5-0.5-2.8-1.5-3.8c-1-1-2.3-1.5-3.8-1.5H25.4V249.8z"/>
		<path class="st2" d="M64.7,239.4v10.2h19.2v8.6H55.7v-45.5h27.8v8.6H64.7v9.7h17.2v8.5H64.7z"/>
		<path class="st2" d="M116,212.7h10.1l-15.6,27.8v17.7h-8.9v-17.7l-15.5-27.8h10.1l9.9,19L116,212.7z"/>
		<path class="st2" d="M165.5,252.3c-4.6,4.5-10.2,6.8-16.8,6.8c-6.6,0-12.2-2.3-16.8-6.8c-4.6-4.6-6.8-10.2-6.8-16.8
			c0-6.6,2.3-12.2,6.8-16.8c4.6-4.6,10.2-6.9,16.8-6.9c6.6,0,12.2,2.3,16.8,6.9c4.6,4.5,6.9,10.1,6.9,16.8S170.1,247.7,165.5,252.3z
			 M138.3,246.2c2.8,2.8,6.3,4.2,10.5,4.2c4.2,0,7.7-1.4,10.5-4.2c2.8-2.8,4.2-6.4,4.2-10.7c0-4.3-1.4-7.9-4.2-10.7
			c-2.8-2.8-6.3-4.2-10.5-4.2c-4.2,0-7.6,1.4-10.5,4.2c-2.8,2.8-4.2,6.4-4.2,10.7C134.1,239.8,135.5,243.4,138.3,246.2z"/>
		<path class="st2" d="M205,240.5v-27.8h9v45.5h-6.8l-19.5-27.8v27.8h-9v-45.5h6.8L205,240.5z"/>
		<path class="st2" d="M222.5,212.7h18.1c6.2,0,11.4,2.2,15.6,6.6c4.2,4.3,6.3,9.7,6.3,16.2c0,6.5-2.1,11.9-6.3,16.2
			c-4.2,4.4-9.4,6.6-15.6,6.6h-18.1V212.7z M231.4,249.6h9.1c3.9,0,7.1-1.3,9.6-3.9c2.5-2.7,3.7-6.1,3.7-10.3
			c0-4.2-1.2-7.6-3.7-10.2c-2.5-2.6-5.7-4-9.6-4h-9.1V249.6z"/>
		<path class="st2" d="M300.6,259.1c-4.5,0-8.2-1-11.3-3c-3.1-2-5.3-4.7-6.6-8.3l7.7-4.5c1.8,4.6,5.3,7,10.5,7
			c2.4,0,4.2-0.4,5.5-1.3c1.2-0.9,1.8-2,1.8-3.5c0-1.6-0.7-2.8-2.1-3.7c-1.4-0.9-4-1.9-7.7-2.9c-4-1.2-7.1-2.6-9.4-4.2
			c-2.9-2.1-4.3-5.2-4.3-9.4c0-4.2,1.5-7.4,4.4-9.8c2.9-2.5,6.4-3.7,10.6-3.7c3.6,0,6.9,0.9,9.7,2.7c2.8,1.8,5,4.3,6.6,7.5l-7.5,4.4
			c-1.8-3.9-4.7-5.9-8.7-5.9c-1.8,0-3.3,0.4-4.4,1.3c-1.1,0.8-1.6,1.9-1.6,3.3c0,1.4,0.6,2.6,1.8,3.5c1.3,0.9,3.6,1.9,6.9,2.9l3.1,1
			c0.6,0.2,1.5,0.5,2.9,1.1c1.3,0.5,2.3,0.9,2.9,1.4c2.1,1.3,3.6,2.6,4.3,4c1.1,1.8,1.7,4,1.7,6.4c0,4.2-1.5,7.5-4.6,10
			S305.4,259.1,300.6,259.1z"/>
		<path class="st2" d="M331.6,239.4v10.2h19.2v8.6h-28.1v-45.5h27.8v8.6h-18.8v9.7h17.2v8.5H331.6z"/>
		<path class="st2" d="M383.4,240.5v-27.8h9v45.5h-6.8L366,230.4v27.8h-9v-45.5h6.8L383.4,240.5z"/>
		<path class="st2" d="M397.4,212.7h33.5v8.6h-12.3v36.9h-9v-36.9h-12.2V212.7z"/>
		<path class="st2" d="M435.9,258.2v-45.5h9v45.5H435.9z"/>
		<path class="st2" d="M488.6,212.7h9.2v45.5h-8.9v-29.5l-12.8,21.1h-1l-12.8-21.1v29.4h-9v-45.5h9.2l13.1,21.5L488.6,212.7z"/>
		<path class="st2" d="M515.3,239.4v10.2h19.2v8.6h-28.1v-45.5h27.8v8.6h-18.8v9.7h17.2v8.5H515.3z"/>
		<path class="st2" d="M567.1,240.5v-27.8h9v45.5h-6.8l-19.5-27.8v27.8h-9v-45.5h6.8L567.1,240.5z"/>
		<path class="st2" d="M581.1,212.7h33.5v8.6h-12.3v36.9h-9v-36.9h-12.2V212.7z"/>
	</g>
	<g>
		<path class="st3" d="M125.1,95.4c4.2-6.1,6.6-13.5,6.6-21.5c0-10.5-4.2-20.1-11.1-27c-3.5,4.7-9,7.7-15.3,7.7
			c-10.3,0-18.6-8.2-19-18.4c-13.4,2.5-24.3,12-28.9,24.6c4.4-1,8.9-1.6,13.6-1.6C95.3,59.2,116.3,74.2,125.1,95.4z"/>
		<path class="st4" d="M120.5,46.9c2.3-3.2,3.7-7.1,3.7-11.3c0-10.5-8.5-19-19-19s-19,8.5-19,19c0,0.2,0,0.4,0,0.7
			c2.3-0.4,4.7-0.7,7.1-0.7C104,35.6,113.6,39.9,120.5,46.9z"/>
		
			<linearGradient id="SVGID_1_" gradientUnits="userSpaceOnUse" x1="49.3208" y1="-385.2144" x2="109.9802" y2="-438.1711" gradientTransform="matrix(1 0 0 -1 0 -352)">
			<stop  offset="0" style="stop-color:#FFFFFF"/>
			<stop  offset="0.9944" style="stop-color:#FFFFFF;stop-opacity:0"/>
		</linearGradient>
		<path class="st5" d="M93.3,92.6c4.2,2.6,8.5,5.8,12.2,9.6c11-4.7,18.8-15.6,18.8-28.4c0-17-13.8-30.8-30.8-30.8
			S62.7,56.8,62.7,73.8c0,4.3,0.9,8.4,2.5,12.1C74.7,84.7,84.6,87.3,93.3,92.6z"/>
		
			<linearGradient id="SVGID_00000050638390494105180280000004384802884208002177_" gradientUnits="userSpaceOnUse" x1="85.5334" y1="-370.3634" x2="112.0054" y2="-393.4739" gradientTransform="matrix(1 0 0 -1 0 -352)">
			<stop  offset="0" style="stop-color:#FFFFFF"/>
			<stop  offset="0.9944" style="stop-color:#FFFFFF;stop-opacity:0"/>
		</linearGradient>
		
			<circle style="opacity:0.35;fill:url(#SVGID_00000050638390494105180280000004384802884208002177_);enable-background:new    ;" cx="105.3" cy="35.6" r="13.5"/>
		<g>
			<path class="st7" d="M400.1,176.6h-14.2c-35.5,0-64.4-28.9-64.4-64.4V59.7h29.3v52.5c0,19.4,15.7,35.1,35.1,35.1h14.2V176.6z"/>
		</g>
		<rect x="243.8" y="95.9" class="st7" width="29.7" height="75.6"/>
		<polygon class="st7" points="241.5,59.2 208.9,88.5 308.8,88.5 308.8,59.5 		"/>
		<path class="st7" d="M591.7,138.2c13.7-6.8,21.2-19.7,21.2-37.6c0-26.1-17.7-40.8-48.6-40.8H512v23.4h29.7h20.5h2.1
			c12.9,0,20.4,6.2,20.4,18.4c0,12.4-7.5,18.9-20.4,18.9h-22.5V95.9h-29.7v80.9h29.7v-32.9h22.5h0.8l17.4,32.9h33.7L591.7,138.2z"/>
		<g>
			<path class="st7" d="M217.3,64.6V102c0.2-0.3,0.4-0.6,0.5-0.8c5.2-7.6,13.9-12.5,23.7-12.7V59.2
				C232.8,59.3,224.6,61.2,217.3,64.6z"/>
			<polygon class="st7" points="94.9,101 100.2,109.1 100.2,99.3 			"/>
		</g>
		<path class="st7" d="M241.5,59.2v29.4c-9.8,0.2-18.5,5.1-23.7,12.7c-0.2,0.3-0.4,0.6-0.6,0.9c0,0.1-0.1,0.1-0.1,0.2l-35.7,60.8
			c-4.8,8.1-13.5,13.1-22.9,13.1c-9,0-17.3-4.5-22.2-12l-30.4-46.5l-9.4-14.4c-0.3-0.5-0.6-1-0.9-1.4l-0.3-0.5
			c-5.2-7.8-14.1-13-24.2-13c-4.2,0-8.2,0.9-11.8,2.5c-2.6-5.2-4.1-11-4.1-17.2c0-4.5,0.8-8.9,2.3-13c4.4-1,8.9-1.6,13.6-1.6
			c11.5,0,22.3,3.4,31.4,9.2c9.1,5.8,16.5,14.1,21.2,23.8l35,56.1l29.2-53.6l1.3-2.4c5.9-12.1,15.8-21.9,28-27.6
			C224.6,61.2,232.8,59.3,241.5,59.2z"/>
		<path class="st7" d="M98.9,126.3l18.4,27.1c-10.7,13.9-27.5,22.8-46.3,22.8c-32.3,0-58.5-26.2-58.5-58.5
			c0-27.6,21.5-51.3,47.2-57.4c-1.5,4-2.4,7.7-2.3,12.3c0.1,5.3,1.9,12.2,4.5,17.4c-10.3,4.6-20.1,15.9-20.1,27.8
			c0,16.1,13.1,29.2,29.2,29.2C84.1,147,95.2,138.2,98.9,126.3z"/>
		<ellipse class="st8" cx="50.2" cy="19.9" rx="15.7" ry="15.7"/>
		<path class="st9" d="M105.3,54.6c6.3,0,11.8-3,15.3-7.7c-6.9-7-16.5-11.3-27.2-11.3c-2.4,0-4.8,0.2-7.1,0.7
			C86.6,46.5,95,54.6,105.3,54.6z"/>
		
			<linearGradient id="SVGID_00000144318651042711254710000016219994992956422531_" gradientUnits="userSpaceOnUse" x1="32.9698" y1="-356.8778" x2="56.0562" y2="-377.0326" gradientTransform="matrix(1 0 0 -1 0 -352)">
			<stop  offset="0" style="stop-color:#FFFFFF"/>
			<stop  offset="0.9944" style="stop-color:#FFFFFF;stop-opacity:0"/>
		</linearGradient>
		
			<circle style="opacity:0.35;fill:url(#SVGID_00000144318651042711254710000016219994992956422531_);enable-background:new    ;" cx="50.2" cy="19.9" r="11.7"/>
		<g>
			<polygon class="st7" points="413.3,59.2 383.4,59.2 426.9,139.7 426.9,176.8 456.6,176.8 456.6,138.8 			"/>
			<polygon class="st3" points="463,126.9 499.3,59.2 469.4,59.2 447.5,99.6 			"/>
		</g>
	</g>
</g>
</svg>
