<?xml version="1.0" encoding="utf-8"?>
<!-- Generator: Adobe Illustrator 25.3.1, SVG Export Plug-In . SVG Version: 6.00 Build 0)  -->
<svg version="1.1" id="Layer_1" xmlns="http://www.w3.org/2000/svg" xmlns:xlink="http://www.w3.org/1999/xlink" x="0px" y="0px"
	 viewBox="0 0 356 511" style="enable-background:new 0 0 356 511;" xml:space="preserve">
<style type="text/css">
	.st0{fill:#43C9FE;}
	.st1{opacity:0.35;fill:url(#SVGID_1_);enable-background:new    ;}
	.st2{opacity:0.35;fill:url(#SVGID_2_);enable-background:new    ;}
	.st3{fill:#46DCFF;}
	.st4{fill:#1181FD;}
	.st5{opacity:0.35;fill:url(#SVGID_3_);enable-background:new    ;}
	.st6{fill:#1A1A1A;}
	.st7{fill:#41A4FE;}
	.st8{opacity:0.35;fill:url(#SVGID_4_);enable-background:new    ;}
	.st9{opacity:0.35;fill:url(#SVGID_5_);enable-background:new    ;}
	.st10{display:none;}
	.st11{display:inline;}
	.st12{opacity:0.35;fill:url(#SVGID_6_);enable-background:new    ;}
	.st13{opacity:0.35;fill:url(#SVGID_7_);enable-background:new    ;}
	.st14{opacity:0.35;fill:url(#SVGID_8_);enable-background:new    ;}
	.st15{fill:#FFFFFF;}
	.st16{display:inline;fill:#41A4FE;}
	.st17{display:inline;fill:#43C9FE;}
	.st18{display:inline;fill:#1181FD;}
	.st19{display:inline;opacity:0.35;fill:url(#SVGID_9_);enable-background:new    ;}
	.st20{display:inline;opacity:0.35;fill:url(#SVGID_10_);enable-background:new    ;}
</style>
<g>
	<g>
		<path class="st0" d="M317.8,128.6c6.7-9.1,10.8-20.3,10.8-32.4c0-30.1-24.4-54.6-54.6-54.6s-54.6,24.4-54.6,54.6
			c0,0.6,0.1,1.3,0.1,1.9c6.6-1.2,13.4-1.9,20.4-1.9C270.4,96.2,298,108.6,317.8,128.6z"/>
		
			<linearGradient id="SVGID_1_" gradientUnits="userSpaceOnUse" x1="113.589" y1="417.4016" x2="287.4615" y2="265.6082" gradientTransform="matrix(1 0 0 -1 0 507)">
			<stop  offset="0" style="stop-color:#FFFFFF"/>
			<stop  offset="0.9944" style="stop-color:#FFFFFF;stop-opacity:0"/>
		</linearGradient>
		<path class="st1" d="M239.8,259.8c12.2,7.4,24.3,16.7,34.9,27.6c31.7-13.5,53.9-44.8,53.9-81.4c0-48.8-39.6-88.4-88.4-88.4
			s-88.4,39.6-88.4,88.4c0,12.4,2.5,24.1,7.1,34.8C186.6,236.9,214.8,244.5,239.8,259.8z"/>
		
			<linearGradient id="SVGID_2_" gradientUnits="userSpaceOnUse" x1="217.5268" y1="460.1294" x2="293.4055" y2="393.8861" gradientTransform="matrix(1 0 0 -1 0 507)">
			<stop  offset="0" style="stop-color:#FFFFFF"/>
			<stop  offset="0.9944" style="stop-color:#FFFFFF;stop-opacity:0"/>
		</linearGradient>
		<circle class="st2" cx="274" cy="96.2" r="38.6"/>
		<ellipse class="st3" cx="116.1" cy="51.3" rx="44.9" ry="44.9"/>
		<path class="st4" d="M274,150.8c18,0,33.9-8.7,43.8-22.1c-19.9-20-47.4-32.4-77.9-32.4c-7,0-13.8,0.7-20.4,1.9
			C220.6,127.4,244.5,150.8,274,150.8z"/>
		
			<linearGradient id="SVGID_3_" gradientUnits="userSpaceOnUse" x1="66.8134" y1="498.7305" x2="132.9875" y2="440.9595" gradientTransform="matrix(1 0 0 -1 0 507)">
			<stop  offset="0" style="stop-color:#FFFFFF"/>
			<stop  offset="0.9944" style="stop-color:#FFFFFF;stop-opacity:0"/>
		</linearGradient>
		<circle class="st5" cx="116.1" cy="51.3" r="33.6"/>
		<path class="st6" d="M140.6,255.6c0.9-0.4,1.8-0.9,2.7-1.3c10.5-4.7,22.1-7.3,34.3-7.3c29.2,0,55,14.9,70.2,37.5l0.9,1.3
			c0.8,1.3,1.8,2.6,2.6,4l27.3,41.8l49.2,75.2c11-22.4,17.1-47.6,17.1-74.2c0-79.8-55.5-146.9-130-164.7c-12.7-3-25.9-4.7-39.5-4.7
			c-25.6,0-49.8,5.7-71.6,15.9C47.3,206.6,8.1,264.6,8.1,331.6c0,21.6,4.1,42.3,11.6,61.4c22.6,57.9,77.8,100.8,139.7,107.7
			c58.1,6.4,116.6-19.5,152.2-65.6l-0.6-0.9l-52.6-77.8c-6.8,22.3-22.6,40.6-43.2,50.9c-11.4,5.7-24.1,8.9-37.7,8.9
			c-46.6,0-84.6-37.9-84.6-84.6C93,298.2,112.5,269.4,140.6,255.6z"/>
	</g>
	<path class="st7" d="M176.9,240.7c-11.7,0-22.9,2.5-33,7c17.5,34.9,53.6,58.8,95.3,58.8c5.9,0,11.6-0.5,17.2-1.4
		C248.6,268.4,215.9,240.7,176.9,240.7z"/>
	<path class="st7" d="M327.5,259.8c11.6-17.1,18.4-37.7,18.4-59.9c0-29.3-11.8-55.9-31-75.1c-9.7,13-25.1,21.5-42.6,21.5
		c-28.7,0-51.9-22.8-52.9-51.2c-37.3,7-67.8,33.5-80.4,68.4c12.2-2.9,24.9-4.5,38-4.5C244.7,159,302.9,200.7,327.5,259.8z"/>
	<path class="st7" d="M143.9,247.7c10.1-4.5,21.2-7,33-7c39.1,0,71.8,27.7,79.6,64.4c29.5-4.8,54.9-21.7,71-45.4
		C302.9,200.7,244.7,159,176.8,159c-13.1,0-25.8,1.6-38,4.5c-4.1,11.3-6.4,23.6-6.4,36.3C132.5,217.1,136.6,233.3,143.9,247.7z"/>
	<path class="st0" d="M314.9,124.7c6.5-8.8,10.5-19.7,10.5-31.5c0-29.3-23.7-53-53-53s-53,23.7-53,53c0,0.6,0.1,1.2,0.1,1.9
		c6.4-1.2,13.1-1.9,19.9-1.9C268.8,93.2,295.5,105.3,314.9,124.7z"/>
	<path class="st4" d="M272.3,146.2c17.5,0,32.9-8.5,42.6-21.5c-19.3-19.5-46.1-31.5-75.7-31.5c-6.8,0-13.4,0.7-19.9,1.9
		C220.3,123.5,243.6,146.2,272.3,146.2z"/>
	
		<linearGradient id="SVGID_4_" gradientUnits="userSpaceOnUse" x1="113.5296" y1="416.9807" x2="282.5447" y2="269.4278" gradientTransform="matrix(1 0 0 -1 0 507)">
		<stop  offset="0" style="stop-color:#FFFFFF"/>
		<stop  offset="0.9944" style="stop-color:#FFFFFF;stop-opacity:0"/>
	</linearGradient>
	<circle class="st8" cx="239.4" cy="199.9" r="86"/>
	
		<linearGradient id="SVGID_5_" gradientUnits="userSpaceOnUse" x1="217.364" y1="461.7224" x2="291.123" y2="397.3297" gradientTransform="matrix(1 0 0 -1 0 507)">
		<stop  offset="0" style="stop-color:#FFFFFF"/>
		<stop  offset="0.9944" style="stop-color:#FFFFFF;stop-opacity:0"/>
	</linearGradient>
	<circle class="st9" cx="272.3" cy="93.2" r="37.5"/>
</g>
<g class="st10">
	<g class="st11">
		<path class="st0" d="M317.8,127.9c6.7-9.1,10.8-20.3,10.8-32.4c0-30.1-24.4-54.6-54.6-54.6s-54.6,24.4-54.6,54.6
			c0,0.6,0.1,1.3,0.1,1.9c6.6-1.2,13.4-1.9,20.4-1.9C270.4,95.4,298,107.8,317.8,127.9z"/>
		
			<linearGradient id="SVGID_6_" gradientUnits="userSpaceOnUse" x1="113.5448" y1="-57.101" x2="287.4173" y2="94.6925" gradientTransform="matrix(1 0 0 1 0 146)">
			<stop  offset="0" style="stop-color:#FFFFFF"/>
			<stop  offset="0.9944" style="stop-color:#FFFFFF;stop-opacity:0"/>
		</linearGradient>
		<path class="st12" d="M239.8,259c12.2,7.4,24.3,16.7,34.9,27.6c31.7-13.5,53.9-44.8,53.9-81.4c0-48.8-39.6-88.4-88.4-88.4
			s-88.4,39.6-88.4,88.4c0,12.4,2.5,24.1,7.1,34.8C186.6,236.1,214.8,243.8,239.8,259z"/>
		
			<linearGradient id="SVGID_7_" gradientUnits="userSpaceOnUse" x1="217.5132" y1="-99.8638" x2="293.3919" y2="-33.6206" gradientTransform="matrix(1 0 0 1 0 146)">
			<stop  offset="0" style="stop-color:#FFFFFF"/>
			<stop  offset="0.9944" style="stop-color:#FFFFFF;stop-opacity:0"/>
		</linearGradient>
		<circle class="st13" cx="274" cy="95.4" r="38.6"/>
		<ellipse class="st3" cx="116.1" cy="50.5" rx="44.9" ry="44.9"/>
		<path class="st4" d="M274,150.1c18,0,33.9-8.7,43.8-22.1c-19.9-20-47.4-32.4-77.9-32.4c-7,0-13.8,0.7-20.4,1.9
			C220.6,126.6,244.5,150.1,274,150.1z"/>
		
			<linearGradient id="SVGID_8_" gradientUnits="userSpaceOnUse" x1="66.8121" y1="-138.479" x2="132.9863" y2="-80.7081" gradientTransform="matrix(1 0 0 1 0 146)">
			<stop  offset="0" style="stop-color:#FFFFFF"/>
			<stop  offset="0.9944" style="stop-color:#FFFFFF;stop-opacity:0"/>
		</linearGradient>
		<circle class="st14" cx="116.1" cy="50.5" r="33.6"/>
		<path class="st15" d="M140.6,254.9c0.9-0.4,1.8-0.9,2.7-1.3c10.5-4.7,22.1-7.3,34.3-7.3c29.2,0,55,14.9,70.2,37.5l0.9,1.3
			c0.8,1.3,1.8,2.6,2.6,4l27.3,41.8l49.2,75.2c11-22.4,17.1-47.6,17.1-74.2c0-79.8-55.5-146.9-130-164.7c-12.7-3-25.9-4.7-39.5-4.7
			c-25.6,0-49.8,5.7-71.6,15.9C47.3,205.9,8.1,263.9,8.1,330.9c0,21.6,4.1,42.3,11.6,61.4C42.3,450.1,97.5,493,159.4,500
			c58.1,6.4,116.6-19.5,152.2-65.6l-0.6-0.9l-52.6-77.8c-6.8,22.3-22.6,40.6-43.2,50.9c-11.4,5.7-24.1,8.9-37.7,8.9
			c-46.6,0-84.6-37.9-84.6-84.6C93,297.5,112.5,268.6,140.6,254.9z"/>
	</g>
	<path class="st16" d="M176.9,239.9c-11.7,0-22.9,2.5-33,7c17.5,34.9,53.6,58.8,95.3,58.8c5.9,0,11.6-0.5,17.2-1.4
		C248.6,267.6,215.9,239.9,176.9,239.9z"/>
	<path class="st16" d="M327.5,259c11.6-17.1,18.4-37.7,18.4-59.9c0-29.3-11.8-55.9-31-75.1c-9.7,13-25.1,21.5-42.6,21.5
		c-28.7,0-51.9-22.8-52.9-51.2c-37.3,7-67.8,33.5-80.4,68.4c12.2-2.9,24.9-4.5,38-4.5C244.7,158.2,302.9,199.9,327.5,259z"/>
	<path class="st16" d="M143.9,246.9c10.1-4.5,21.2-7,33-7c39.1,0,71.8,27.7,79.6,64.4c29.5-4.8,54.9-21.7,71-45.4
		c-24.6-59-82.8-100.7-150.7-100.7c-13.1,0-25.8,1.6-38,4.5c-4.1,11.3-6.4,23.6-6.4,36.3C132.5,216.4,136.6,232.6,143.9,246.9z"/>
	<path class="st17" d="M314.9,123.9c6.5-8.8,10.5-19.7,10.5-31.5c0-29.3-23.7-53-53-53s-53,23.7-53,53c0,0.6,0.1,1.2,0.1,1.9
		c6.4-1.2,13.1-1.9,19.9-1.9C268.8,92.4,295.5,104.6,314.9,123.9z"/>
	<path class="st18" d="M272.3,145.4c17.5,0,32.9-8.5,42.6-21.5c-19.3-19.5-46.1-31.5-75.7-31.5c-6.8,0-13.4,0.7-19.9,1.9
		C220.3,122.8,243.6,145.4,272.3,145.4z"/>
	
		<linearGradient id="SVGID_9_" gradientUnits="userSpaceOnUse" x1="113.5327" y1="-56.7342" x2="282.5478" y2="90.8187" gradientTransform="matrix(1 0 0 1 0 146)">
		<stop  offset="0" style="stop-color:#FFFFFF"/>
		<stop  offset="0.9944" style="stop-color:#FFFFFF;stop-opacity:0"/>
	</linearGradient>
	<circle class="st19" cx="239.4" cy="199.1" r="86"/>
	
		<linearGradient id="SVGID_10_" gradientUnits="userSpaceOnUse" x1="217.3826" y1="-101.4937" x2="291.1416" y2="-37.101" gradientTransform="matrix(1 0 0 1 0 146)">
		<stop  offset="0" style="stop-color:#FFFFFF"/>
		<stop  offset="0.9944" style="stop-color:#FFFFFF;stop-opacity:0"/>
	</linearGradient>
	<circle class="st20" cx="272.3" cy="92.4" r="37.5"/>
</g>
</svg>
