<svg xmlns="http://www.w3.org/2000/svg" xmlns:xlink="http://www.w3.org/1999/xlink" width="682.828" height="700" viewBox="0 0 682.828 700">
  <defs>
    <clipPath id="clip-path">
      <path id="Path_4" data-name="Path 4" d="M8,355.607C8,544.183,160.838,697.021,349.414,697.021S690.828,544.183,690.828,355.607c0-147.026-114.927-251.091-124.758-259.672-49.643-43.342-103.358-62.46-108.79-64.361a324.619,324.619,0,0,0-107.867-17.38c-130.732.869-218.666,79.08-239.739,98.959-7.115,6.626-12.275,12.112-13.47,13.415C21.524,206.082,8,311.233,8,355.607Z" transform="translate(-8 -14.184)"/>
    </clipPath>
  </defs>
  <g id="contact-us-dark" transform="translate(-8 -14.184)">
    <g id="Group_4" data-name="Group 4" transform="translate(8 14.184)">
      <g id="Group_3" data-name="Group 3" clip-path="url(#clip-path)">
        <g id="Group_2" data-name="Group 2" transform="translate(-56.16 -56.097)">
          <g id="Group_1" data-name="Group 1">
            <path id="Path_32" data-name="Path 32" d="M0,0H795.094V795.094H0Z" fill="#1d1f26"/>
          </g>
        </g>
        <path id="Path_1" data-name="Path 1" d="M88.8,186.957c9.613.706,56.16,3.313,97.6-31.285S234.414,73.713,235.392,64.1" transform="translate(-44.915 -36.989)" fill="none" stroke="#a4a4a4" stroke-miterlimit="10" stroke-width="1.523"/>
        <path id="Path_2" data-name="Path 2" d="M167.1,185.9a280.6,280.6,0,0,1,55.291,50.186c31.447,37.368,36.336,63.492,58.333,95.266,16.294,23.518,44.428,53.77,96.08,78.972" transform="translate(-80.687 -92.635)" fill="none" stroke="#a4a4a4" stroke-miterlimit="10" stroke-width="1.4"/>
        <path id="Path_3" data-name="Path 3" d="M747.7-3.6c3.585,7.767,21.671,45.3,66.208,62.949S897.877,61.9,905.7,58.7" transform="translate(-345.944 -6.059)" fill="none" stroke="#a4a4a4" stroke-miterlimit="10" stroke-width="1.356"/>
      </g>
    </g>
    <rect id="Rectangle_2" data-name="Rectangle 2" width="32.697" height="69.467" transform="translate(518.838 169.282) rotate(-15.7)" fill="#a4a4a4"/>
    <path id="Path_5" data-name="Path 5" d="M400.25,742.6l40.192,34.761L388.9,816.684l-30.2-26.016Z" transform="translate(-160.223 -332.788)" fill="#a4a4a4"/>
    <path id="Path_6" data-name="Path 6" d="M506.8,1112.2h53.173v63.492H517.228Z" transform="translate(-227.885 -501.646)" fill="#a4a4a4"/>
    <path id="Path_7" data-name="Path 7" d="M719.3,815.707,673.239,723.7H467.5l16.511,227.628H553.37l6.355-135.621Z" transform="translate(-209.93 -324.153)" fill="#353945"/>
    <path id="Path_8" data-name="Path 8" d="M625.2,465.2l-49.7-29.492-32.371-74.844L506.8,333.6l38.508,105.151L625.2,465.2" transform="translate(-227.885 -145.93)" fill="#94e0ed"/>
    <path id="Path_9" data-name="Path 9" d="M576.533,442.479H553.449L518.2,350.2l28.732,20.368Z" transform="translate(-233.093 -153.514)" fill="#4eafc6"/>
    <path id="Path_10" data-name="Path 10" d="M523.426,1228l11.623,40.735H427.4l53.553-40.138Z" transform="translate(-191.609 -554.551)" fill="#353945"/>
    <path id="Path_11" data-name="Path 11" d="M332.025,853.268l4.617,15.588H220.9L298.351,826.6Z" transform="translate(-97.267 -371.165)" fill="#353945"/>
    <path id="Path_12" data-name="Path 12" d="M795.1,429.3l-80.384,77.994L606.746,469.872a26.9,26.9,0,0,0-26.559,5.268L555.8,496.7l47.85,24.821,156.042,77.994,96.9-102.381,7.115-7.55Z" transform="translate(-250.271 -189.652)" fill="#fff"/>
    <path id="Path_13" data-name="Path 13" d="M863.271,472.276,808.088,533.7,758.5,518.714,839.7,451.8Z" transform="translate(-342.878 -199.932)" fill="#fff"/>
    <path id="Path_14" data-name="Path 14" d="M939.961,379.1h0a147.746,147.746,0,0,1,28.623,99.285c-5.486,70.01-38.291,128.125-38.291,128.125L758.5,487.622l88.259-87.933,45.135-29.329A35.588,35.588,0,0,1,939.961,379.1Z" transform="translate(-342.878 -160.095)" fill="#fff"/>
    <path id="Path_15" data-name="Path 15" d="M927.222,241.366l1.195-.326a27.362,27.362,0,0,1,33.729,18.9l5.486,19.444a27.362,27.362,0,0,1-18.9,33.729l-1.195.326a27.361,27.361,0,0,1-33.729-18.9L908.321,275.1A27.276,27.276,0,0,1,927.222,241.366Z" transform="translate(-410.849 -103.176)" fill="#a4a4a4"/>
    <path id="Path_16" data-name="Path 16" d="M957.2,646.3l82.339-81.8-66.969,93.691Z" transform="translate(-433.657 -251.42)" fill="#353945"/>
    <path id="Path_17" data-name="Path 17" d="M766.1,511.369l44.7,15.479L867.177,472.1" transform="translate(-346.35 -209.206)" fill="none" stroke="#07262d" stroke-miterlimit="10" stroke-width="1.689"/>
    <path id="Path_18" data-name="Path 18" d="M606.863,502.84a27.132,27.132,0,0,0-26.885,5.323L555.7,529.616l47.85,24.821,38.019,19.01,24.007-50.24Z" transform="translate(-250.225 -222.565)" fill="#a4a4a4"/>
    <path id="Path_19" data-name="Path 19" d="M648.114,588.194,516.947,528.667a41.316,41.316,0,0,0-48.991,11.3L385.4,667.546l52.087,33.729L517,637.837l83.317,93.2H720.84l39.051-51.272Z" transform="translate(-172.421 -233.348)" fill="#4a4e59"/>
    <path id="Path_20" data-name="Path 20" d="M8,631.788H626.413V307.7" transform="translate(0 -134.097)" fill="none" stroke="#4a4e59" stroke-miterlimit="10" stroke-width="3.379"/>
    <line id="Line_1" data-name="Line 1" x2="71.802" transform="translate(274.081 627.174)" fill="none" stroke="#07262d" stroke-miterlimit="10" stroke-width="3.379"/>
    <path id="Path_21" data-name="Path 21" d="M893.7,251.741c6.735.163,14.665-9.016,17.38-12.6a14.812,14.812,0,0,1,2.607-2.607c27.537-22.16,45.135-2.5,45.135-2.5,7.767,2.118,11.786,11.189,11.786,11.189,13.85,22.975-6.355,52.141-6.355,52.141-6.952-5.268-8.038-8.636-8.038-8.636-16.023-11.84-10.374-42.31-10.374-42.31C915.534,264.179,893.646,251.741,893.7,251.741Z" transform="translate(-404.646 -96.768)" fill="#4eafc6"/>
    <circle id="Ellipse_1" data-name="Ellipse 1" cx="9.939" cy="9.939" r="9.939" transform="translate(542.824 176.59)" fill="#a4a4a4"/>
    <path id="Path_22" data-name="Path 22" d="M913.078,274.534a42.193,42.193,0,0,0,14.013-1.629l3.367-1.086c1.141-.38,2.173-.923,3.259-1.3a70.037,70.037,0,0,0,6.355-3.259l.76-.434.76-.489,1.467-.978,3.042-2.01L951.7,259l-5.377,4.725-2.879,2.118-1.521,1.032-.706.543-.76.435-3.1,1.847a25,25,0,0,1-3.2,1.575l-3.313,1.466-3.422,1.086a42.461,42.461,0,0,1-14.285,1.521l-1.792-.163-1.792-.326a27.116,27.116,0,0,1-3.476-.869,29.273,29.273,0,0,1-6.572-2.824A33.386,33.386,0,0,0,913.078,274.534Z" transform="translate(-407.296 -111.848)" fill="#4b3b3b"/>
    <path id="Path_23" data-name="Path 23" d="M913.906,312.781h0a2.056,2.056,0,0,1,2.824.815l1.629,3.042a2.054,2.054,0,0,1-.815,2.77l-.054.054a2.054,2.054,0,0,1-2.77-.815l-1.629-3.042A2.074,2.074,0,0,1,913.906,312.781Z" transform="translate(-413.391 -136.3)" fill="#07262d"/>
    <path id="Path_24" data-name="Path 24" d="M914.546,304.729a.914.914,0,0,0,.652-1.086c0-.054,0-.054-.054-.109h0a.846.846,0,0,0-.978-.652h-.054l-9.45,1.466h-.217a.993.993,0,0,0-.489,1.195l.434,1.412a1.035,1.035,0,0,0,1.195.652l9.016-2.879h0Z" transform="translate(-409.306 -131.887)" fill="#4b3b3b"/>
    <path id="Path_25" data-name="Path 25" d="M917.831,333.921l-3.042.435h-.38A1.622,1.622,0,0,1,913,332.618h0l.76-6.518" transform="translate(-413.461 -142.504)" fill="none" stroke="#995c42" stroke-miterlimit="10" stroke-width="1.689"/>
    <path id="Path_26" data-name="Path 26" d="M935.378,344.2c-2.281,6.518-7.278,6.572-7.278,6.572" transform="translate(-420.362 -150.773)" fill="none" stroke="#4c3e3f" stroke-miterlimit="10" stroke-width="1.689"/>
    <path id="Path_27" data-name="Path 27" d="M940.031,697.184,919.5,679.695c12.981-9.722,35.9,2.227,35.9,2.227Z" transform="translate(-416.433 -302.308)" fill="#e9feff"/>
    <line id="Line_2" data-name="Line 2" x1="42.908" y2="34.598" transform="translate(319.216 390.096)" fill="none" stroke="#07262d" stroke-miterlimit="10" stroke-width="3.379"/>
    <line id="Line_3" data-name="Line 3" x2="26.559" y2="21.78" transform="translate(560.856 424.694)" fill="none" stroke="#07262d" stroke-miterlimit="10" stroke-width="3.379"/>
    <line id="Line_4" data-name="Line 4" y1="29.329" x2="45.08" transform="translate(503.882 210.264)" fill="none" stroke="#4c3e3f" stroke-miterlimit="10" stroke-width="3.379"/>
    <path id="Path_28" data-name="Path 28" d="M972.916,382.935l10.645-6.9-1.032-6.137c-2.553,3.367-12.329,3.313-12.329,3.313Z" transform="translate(-439.596 -162.514)" fill="#a4a4a4"/>
    <path id="Path_29" data-name="Path 29" d="M93.247,832.5v32.371h0a6.618,6.618,0,0,1-6.626,6.626H68.426a6.618,6.618,0,0,1-6.626-6.626h0V832.5Z" transform="translate(-24.579 -373.86)" fill="#353945"/>
    <path id="Path_30" data-name="Path 30" d="M119.7,859.734a9.427,9.427,0,0,0,0-18.793v-3.367a12.793,12.793,0,0,1,1.738,25.527,9.284,9.284,0,0,1-1.738,0v-3.367Z" transform="translate(-51.032 -376.164)" fill="#4c3e3f"/>
    <path id="Path_31" data-name="Path 31" d="M88.8,334.3" transform="translate(-36.915 -146.25)" fill="#e9feff"/>
    <circle id="Ellipse_2" data-name="Ellipse 2" cx="14.61" cy="14.61" r="14.61" transform="translate(282.066 74.372)" fill="none" stroke="#4a4e59" stroke-miterlimit="10" stroke-width="8.135"/>
    <circle id="Ellipse_3" data-name="Ellipse 3" cx="10.32" cy="10.32" r="10.32" transform="translate(162.576 345.287)" fill="none" stroke="#4a4e59" stroke-miterlimit="10" stroke-width="5.746"/>
  </g>
</svg>
