<svg xmlns="http://www.w3.org/2000/svg" xmlns:xlink="http://www.w3.org/1999/xlink" width="682.855" height="700" viewBox="0 0 682.855 700">
  <defs>
    <clipPath id="clip-path">
      <path id="Path_4" data-name="Path 4" d="M13,351.868c0,188.578,152.845,341.419,341.427,341.419s341.427-152.9,341.427-341.419c0-147.056-114.944-251.131-124.785-259.673C521.438,48.835,467.7,29.7,462.289,27.8A326.586,326.586,0,0,0,354.427,10.395c-130.678.865-218.643,79.1-239.729,98.938-7.137,6.65-12.273,12.11-13.462,13.408C26.517,202.324,13,307.48,13,351.868Z" transform="translate(-13 -10.389)"/>
    </clipPath>
  </defs>
  <g id="contact-us-light" transform="translate(-13 -10.389)">
    <g id="Group_2" data-name="Group 2" transform="translate(13 10.389)">
      <g id="Group_1" data-name="Group 1" clip-path="url(#clip-path)">
        <rect id="Rectangle_1" data-name="Rectangle 1" width="795.096" height="795.076" transform="translate(-56.121 -56.059)" fill="#e0e0e0"/>
        <path id="Path_1" data-name="Path 1" d="M94.2,183.435c9.624.7,56.121,3.3,97.589-31.249S239.8,70.224,240.827,60.6" transform="translate(-50.298 -33.453)" fill="none" stroke="#a4a4a4" stroke-miterlimit="10" stroke-width="1.53"/>
        <path id="Path_2" data-name="Path 2" d="M172.9,183a278.728,278.728,0,0,1,55.31,50.172c31.466,37.359,36.332,63.526,58.337,95.262,16.274,23.518,44.442,53.794,96.075,78.934" transform="translate(-86.448 -89.678)" fill="none" stroke="#a4a4a4" stroke-miterlimit="10" stroke-width="1.407"/>
        <path id="Path_3" data-name="Path 3" d="M756.1-7.4c3.568,7.785,21.68,45.252,66.231,62.931s83.965,2.541,91.8-.649" transform="translate(-354.335 -2.217)" fill="none" stroke="#a4a4a4" stroke-miterlimit="10" stroke-width="1.362"/>
      </g>
    </g>
    <rect id="Rectangle_2" data-name="Rectangle 2" width="32.743" height="69.546" transform="translate(523.859 165.488) rotate(-15.7)" fill="#a4a4a4"/>
    <path id="Path_5" data-name="Path 5" d="M406.965,742.2,447.177,777,395.6,816.346l-30.2-26.032Z" transform="translate(-161.897 -336.197)" fill="#a4a4a4"/>
    <path id="Path_6" data-name="Path 6" d="M514.1,1113.4h53.2v63.592H524.545Z" transform="translate(-230.198 -506.762)" fill="#a4a4a4"/>
    <path id="Path_7" data-name="Path 7" d="M726.742,815.314,680.631,723.2H474.7l16.507,227.9H560.59l6.44-135.79Z" transform="translate(-212.225 -327.742)" fill="#353945"/>
    <path id="Path_8" data-name="Path 8" d="M632.625,463.131l-49.737-29.55-32.418-74.958L514.1,331.4l38.534,105.211,79.991,26.519" transform="translate(-230.233 -147.494)" fill="#94e0ed"/>
    <path id="Path_9" data-name="Path 9" d="M583.943,440.385H560.887L525.6,348l28.738,20.35Z" transform="translate(-235.483 -155.106)" fill="#4eafc6"/>
    <path id="Path_10" data-name="Path 10" d="M530.519,1229.8l11.582,40.753H434.4l53.58-40.158Z" transform="translate(-193.609 -560.165)" fill="#353945"/>
    <path id="Path_11" data-name="Path 11" d="M338.173,853.282l4.6,15.641H226.9L304.455,826.6Z" transform="translate(-98.277 -374.947)" fill="#353945"/>
    <path id="Path_12" data-name="Path 12" d="M802.94,427.5l-80.478,78.043-108.08-37.452a27,27,0,0,0-26.573,5.25L563.4,494.935l47.9,24.842L767.49,597.819l96.985-102.505,7.144-7.577Z" transform="translate(-253.212 -191.669)" fill="#fff"/>
    <path id="Path_13" data-name="Path 13" d="M871.887,470.512l-55.258,61.482L767,517.056,848.236,450Z" transform="translate(-346.417 -201.963)" fill="#fff"/>
    <path id="Path_14" data-name="Path 14" d="M948.63,376.978h0a147.65,147.65,0,0,1,28.63,99.42c-5.52,70.087-38.318,128.267-38.318,128.267L767,485.6l88.326-88.055,45.191-29.388A35.7,35.7,0,0,1,948.63,376.978Z" transform="translate(-346.621 -161.814)" fill="#fff"/>
    <path id="Path_15" data-name="Path 15" d="M936.38,238.646l1.245-.325A27.371,27.371,0,0,1,971.4,257.264l5.466,19.429a27.371,27.371,0,0,1-18.942,33.772l-1.245.325A27.371,27.371,0,0,1,922.9,291.847l-5.466-19.429A27.366,27.366,0,0,1,936.38,238.646Z" transform="translate(-415.025 -104.237)" fill="#a4a4a4"/>
    <path id="Path_16" data-name="Path 16" d="M966.6,645.131l82.426-81.831-67,93.738Z" transform="translate(-438.196 -254.021)" fill="#353945"/>
    <path id="Path_17" data-name="Path 17" d="M774.7,509.738l44.7,15.533L875.852,470.5" transform="translate(-349.951 -211.369)" fill="none" stroke="#07262d" stroke-miterlimit="10" stroke-width="1.697"/>
    <path id="Path_18" data-name="Path 18" d="M614.5,501.334a27.233,27.233,0,0,0-26.9,5.3L563.3,528.07l47.9,24.842,38.047,19.051,24.03-50.278Z" transform="translate(-252.832 -224.856)" fill="#a4a4a4"/>
    <path id="Path_19" data-name="Path 19" d="M655.082,586.833,523.731,527.246a41.424,41.424,0,0,0-49.088,11.311L392,666.283l52.173,33.772,79.558-63.484,83.4,93.3h120.69L766.9,678.568Z" transform="translate(-174.342 -235.821)" fill="#4a4e59"/>
    <path id="Path_20" data-name="Path 20" d="M13,629.756H631.343V305.3" transform="translate(0 -135.604)" fill="none" stroke="#07262d" stroke-miterlimit="10" stroke-width="3.394"/>
    <line id="Line_1" data-name="Line 1" x2="71.873" transform="translate(279.082 623.362)" fill="none" stroke="#07262d" stroke-miterlimit="10" stroke-width="3.394"/>
    <path id="Path_21" data-name="Path 21" d="M902.8,248.963c6.765.162,14.667-8.984,17.427-12.61a14.752,14.752,0,0,1,2.6-2.6c27.548-22.19,45.191-2.49,45.191-2.49,7.793,2.111,11.8,11.2,11.8,11.2,13.855,23-6.332,52.227-6.332,52.227-6.927-5.25-8.01-8.659-8.01-8.659-16.02-11.853-10.391-42.377-10.391-42.377C924.611,261.411,902.746,248.963,902.8,248.963Z" transform="translate(-408.786 -97.768)" fill="#4eafc6"/>
    <circle id="Ellipse_1" data-name="Ellipse 1" cx="9.958" cy="9.958" r="9.958" transform="translate(547.806 172.804)" fill="#a4a4a4"/>
    <path id="Path_22" data-name="Path 22" d="M922.238,271.933a42.363,42.363,0,0,0,14.017-1.624l3.41-1.082c1.137-.379,2.165-.92,3.247-1.353a69.785,69.785,0,0,0,6.332-3.247l.812-.433.812-.487,1.461-.974,3.031-2,5.629-4.33-5.358,4.709-2.923,2.111-1.515,1.028-.7.541-.812.433-3.085,1.894a24.915,24.915,0,0,1-3.193,1.569l-3.3,1.461-3.464,1.082a42.649,42.649,0,0,1-14.342,1.515l-1.786-.162-1.786-.325a27.774,27.774,0,0,1-3.518-.866,29.576,29.576,0,0,1-6.6-2.814A33.769,33.769,0,0,0,922.238,271.933Z" transform="translate(-411.425 -113.006)" fill="#4b3b3b"/>
    <path id="Path_23" data-name="Path 23" d="M923.1,310.36h0a2,2,0,0,1,2.814.812l1.624,3.031a2.046,2.046,0,0,1-.812,2.76l-.054.054a2.046,2.046,0,0,1-2.76-.812l-1.624-3.031A2.1,2.1,0,0,1,923.1,310.36Z" transform="translate(-417.563 -137.66)" fill="#07262d"/>
    <path id="Path_24" data-name="Path 24" d="M923.716,302.276a.942.942,0,0,0,.649-1.137c0-.054,0-.054-.054-.108h0a.843.843,0,0,0-.974-.649h-.054l-9.471,1.461h-.271a.99.99,0,0,0-.487,1.191l.433,1.407a.981.981,0,0,0,1.191.649l8.984-2.923v.108Z" transform="translate(-413.414 -133.197)" fill="#4b3b3b"/>
    <path id="Path_25" data-name="Path 25" d="M927.014,331.648l-3.031.433H923.6a1.616,1.616,0,0,1-1.407-1.732h0l.812-6.549" transform="translate(-417.632 -143.964)" fill="none" stroke="#995c42" stroke-miterlimit="10" stroke-width="1.697"/>
    <path id="Path_26" data-name="Path 26" d="M944.606,342c-2.273,6.549-7.306,6.6-7.306,6.6" transform="translate(-424.573 -152.324)" fill="none" stroke="#4c3e3f" stroke-miterlimit="10" stroke-width="1.697"/>
    <path id="Path_27" data-name="Path 27" d="M949.266,696.4,928.7,678.861c12.989-9.742,35.936,2.219,35.936,2.219Z" transform="translate(-420.645 -305.312)" fill="#e9feff"/>
    <line id="Line_2" data-name="Line 2" x1="42.918" y2="34.637" transform="translate(324.237 386.296)" fill="none" stroke="#07262d" stroke-miterlimit="10" stroke-width="3.394"/>
    <line id="Line_3" data-name="Line 3" x2="26.573" y2="21.811" transform="translate(565.748 420.905)" fill="none" stroke="#07262d" stroke-miterlimit="10" stroke-width="3.394"/>
    <line id="Line_4" data-name="Line 4" y1="29.388" x2="45.137" transform="translate(508.859 206.484)" fill="none" stroke="#4c3e3f" stroke-miterlimit="10" stroke-width="3.394"/>
    <path id="Path_28" data-name="Path 28" d="M982.36,380.843l10.608-6.873-1.028-6.17c-2.544,3.41-12.34,3.3-12.34,3.3Z" transform="translate(-444.008 -164.177)" fill="#a4a4a4"/>
    <path id="Path_29" data-name="Path 29" d="M98.5,832.5v32.364h0a6.652,6.652,0,0,1-6.657,6.657H73.657A6.652,6.652,0,0,1,67,864.864h0V832.5Z" transform="translate(-24.775 -377.655)" fill="#353945"/>
    <path id="Path_30" data-name="Path 30" d="M125.2,859.818a9.447,9.447,0,0,0,0-18.834v-3.41a12.8,12.8,0,0,1,1.732,25.545,9.259,9.259,0,0,1-1.732,0Z" transform="translate(-51.476 -379.961)" fill="#4c3e3f"/>
    <path id="Path_31" data-name="Path 31" d="M94.2,332" transform="translate(-37.254 -147.729)" fill="#e9feff"/>
    <circle id="Ellipse_2" data-name="Ellipse 2" cx="14.613" cy="14.613" r="14.613" transform="translate(287.103 70.686)" fill="none" stroke="#fff" stroke-miterlimit="10" stroke-width="8.173"/>
    <circle id="Ellipse_3" data-name="Ellipse 3" cx="10.337" cy="10.337" r="10.337" transform="translate(167.57 341.539)" fill="none" stroke="#fff" stroke-miterlimit="10" stroke-width="5.772"/>
  </g>
</svg>
