<?xml version="1.0" encoding="utf-8"?>
<!-- Generator: Adobe Illustrator 25.4.1, SVG Export Plug-In . SVG Version: 6.00 Build 0)  -->
<svg version="1.1" id="Layer_1" xmlns="http://www.w3.org/2000/svg" xmlns:xlink="http://www.w3.org/1999/xlink" x="0px" y="0px"
	 viewBox="0 0 87 79.3" style="enable-background:new 0 0 87 79.3;" xml:space="preserve">
<style type="text/css">
	.st0{fill:url(#Path-5_00000150797707845971571250000003404041824229752758_);}
	.st1{fill:url(#Path-7_00000011740829767717780120000013862151247866020997_);}
	.st2{fill:url(#Path-93_00000067197888733728295460000007970834368930115737_);}
	.st3{fill:url(#Path-94_00000118394035811333383580000001746682963502899353_);}
	.st4{fill:url(#Path-95_00000031185274636170765410000017717761636389320861_);}
	.st5{fill:url(#Path-99_00000066477418742776940000000008537631847020843175_);}
	.st6{fill:url(#Path-101_00000135672276284473907290000014256696797772343953_);}
	.st7{fill:url(#Path-109_00000101782147575043191780000003279382116300728470_);}
	.st8{fill:url(#Path-110_00000091005928855481418030000007921692409357857204_);}
	.st9{fill:url(#Path-113_00000160164989352211709610000011508783133791936902_);}
	.st10{fill:url(#Path-115_00000150806044712586747280000011238839090975852985_);}
	.st11{fill:url(#Path-118_00000150817914888350288180000000995016172318862742_);}
	.st12{fill:url(#Path-122_00000047025980158105609990000001721973830210364570_);}
	.st13{fill:url(#Path-13_00000091707534012440219590000010702296452567585721_);}
	.st14{fill:#FFFFFF;}
	.st15{fill:url(#Path-69_00000106835832331181647530000000426151523933215155_);}
	.st16{fill:url(#Path-123_00000044881985066551498210000007036795229856670116_);}
	.st17{fill:url(#Path_00000134236097792535775680000003802087630481114276_);}
	.st18{opacity:0.33;}
	.st19{fill:#141414;}
	.st20{fill:url(#Path-5_00000064356399273349004030000015483834032546780301_);}
	.st21{fill:url(#Path-6_00000139984420978735492930000008682598717765085858_);}
	.st22{fill:url(#Path-7_00000014613735667447851250000003735470186487523207_);}
	.st23{fill:#DBDBDB;stroke:#898989;stroke-width:0.25;stroke-miterlimit:10;}
	.st24{fill:#DBDBDB;stroke:#898989;stroke-width:0.2676;stroke-miterlimit:10;}
	.st25{fill:#64C4DE;}
	.st26{fill:url(#Path-13_00000149370379310409583670000007987059948869292936_);}
	.st27{fill:#2A2A2A;}
	.st28{fill:url(#Path-69_00000097459040318696174850000001254768428767944626_);}
	.st29{fill:url(#Path-93_00000170971053029535658620000014613433539706884514_);}
	.st30{fill:url(#Path-94_00000021099862320294679300000003167466925369376156_);}
	.st31{fill:url(#Path-95_00000019654600006458181810000009928957277176384652_);}
	.st32{fill:url(#Path-99_00000098180466595103600360000015866660957177987732_);}
	.st33{fill:url(#Path-101_00000152975044867732192790000013921027384732193462_);}
	.st34{fill:url(#Path-109_00000107554724016720917100000015340469155528921525_);}
	.st35{fill:url(#Path-110_00000139992958754647826850000014999519727270290851_);}
	.st36{fill:url(#Path-113_00000085967845127784930550000002403925692188892343_);}
	.st37{fill:url(#Path-115_00000142893049351989725710000013219312214183605411_);}
	.st38{fill:url(#Path-118_00000028286262630220402130000003553839687080590990_);}
	.st39{fill:url(#Path-122_00000052083173383642231760000009901177508046875540_);}
	.st40{fill:url(#Path-123_00000023239698756022052490000012462318771992294273_);}
	.st41{fill:url(#Path_00000016075887320761446480000016325886068683901105_);}
</style>
<g>
	
		<linearGradient id="Path-5_00000103968788348338791220000013107592737316313227_" gradientUnits="userSpaceOnUse" x1="-967.9277" y1="23.4411" x2="-967.2319" y2="23.2163" gradientTransform="matrix(2.33 0 0 -2.33 2263.03 131.76)">
		<stop  offset="0" style="stop-color:#64C4DE"/>
		<stop  offset="1" style="stop-color:#5A78FF"/>
	</linearGradient>
	
		<path id="Path-5_00000004521520721487067770000002816928290875464118_" style="fill:url(#Path-5_00000103968788348338791220000013107592737316313227_);" d="
		M8.5,78.3c0.4,0,0.9-0.4,0.9-0.9c0.1-0.4-0.3-0.9-0.7-1H8.5c-0.4,0-0.9,0.4-0.9,0.9l0,0c-0.1,0.4,0.3,0.9,0.7,1
		C8.5,78.3,8.5,78.3,8.5,78.3z"/>
	
		<linearGradient id="Path-7_00000023993111851081248990000012803867608871615873_" gradientUnits="userSpaceOnUse" x1="-1158.1097" y1="217.9033" x2="-1157.3818" y2="217.9033" gradientTransform="matrix(3.6 0 0 -3.6 4237.1499 786.59)">
		<stop  offset="0" style="stop-color:#64C4DE"/>
		<stop  offset="1" style="stop-color:#5A78FF"/>
	</linearGradient>
	
		<path id="Path-7_00000102511879124864304790000005657411420076021895_" style="fill:url(#Path-7_00000023993111851081248990000012803867608871615873_);" d="
		M69.2,3.5c0.7,0,1.3-0.5,1.3-1.3c0.1-0.7-0.4-1.3-1.2-1.4h-0.1c-0.7,0-1.4,0.6-1.4,1.4l0,0c0,0.7,0.5,1.3,1.3,1.3
		C69.2,3.5,69.2,3.5,69.2,3.5z"/>
	
		<linearGradient id="Path-93_00000078029353371369872790000016119999231403152545_" gradientUnits="userSpaceOnUse" x1="-1233.0183" y1="-312.43" x2="-1232.2904" y2="-312.43" gradientTransform="matrix(4.65 0 0 -1.48 5793 -430.5)">
		<stop  offset="0" style="stop-color:#64C4DE"/>
		<stop  offset="1" style="stop-color:#5A78FF"/>
	</linearGradient>
	
		<path id="Path-93_00000056422981531065057980000007406917836399425420_" style="fill:url(#Path-93_00000078029353371369872790000016119999231403152545_);" d="
		M64.5,32.5H62c-0.3,0-0.5-0.2-0.5-0.5l0,0c0-0.3,0.2-0.6,0.5-0.6h2.5c0.3,0,0.5,0.2,0.5,0.5l0,0c0,0.3-0.2,0.5-0.5,0.5V32.5z"/>
	
		<linearGradient id="Path-94_00000152962218978648680410000007424411356388545672_" gradientUnits="userSpaceOnUse" x1="-1423.1664" y1="-312.2672" x2="-1422.4171" y2="-312.2672" gradientTransform="matrix(17.74 0 0 -1.48 25262.2285 -427.69)">
		<stop  offset="0" style="stop-color:#64C4DE"/>
		<stop  offset="1" style="stop-color:#5A78FF"/>
	</linearGradient>
	
		<path id="Path-94_00000158717967706695559770000011370202917241829049_" style="fill:url(#Path-94_00000152962218978648680410000007424411356388545672_);" d="
		M28.2,35.1H15.9c-0.3,0-0.5-0.2-0.5-0.5l0,0c0-0.3,0.2-0.6,0.5-0.6h12.3c0.3,0,0.6,0.2,0.6,0.5l0,0C28.8,34.7,28.5,34.9,28.2,35.1z
		"/>
	
		<linearGradient id="Path-95_00000030469688146115338210000008033621541216930485_" gradientUnits="userSpaceOnUse" x1="-1423.1664" y1="-310.0771" x2="-1422.4171" y2="-310.0771" gradientTransform="matrix(17.74 0 0 -1.48 25262.2188 -414.24)">
		<stop  offset="0" style="stop-color:#64C4DE"/>
		<stop  offset="1" style="stop-color:#5A78FF"/>
	</linearGradient>
	
		<path id="Path-95_00000097472530233514901640000013955305762821492646_" style="fill:url(#Path-95_00000030469688146115338210000008033621541216930485_);" d="
		M28.2,45.2H15.9c-0.3,0-0.5-0.2-0.5-0.5l0,0c0-0.3,0.2-0.5,0.5-0.5h12.3c0.3-0.1,0.5,0.1,0.6,0.4v0.1l0,0
		C28.8,44.9,28.5,45.2,28.2,45.2z"/>
	
		<linearGradient id="Path-99_00000094578728030796835340000016034964052571575984_" gradientUnits="userSpaceOnUse" x1="-1334.5608" y1="-311.7057" x2="-1333.811" y2="-311.7057" gradientTransform="matrix(7.71 0 0 -1.48 10321.7197 -424.29)">
		<stop  offset="0" style="stop-color:#64C4DE"/>
		<stop  offset="1" style="stop-color:#5A78FF"/>
	</linearGradient>
	
		<path id="Path-99_00000088830917071081839560000018093824500137939383_" style="fill:url(#Path-99_00000094578728030796835340000016034964052571575984_);" d="
		M38.2,37.6h-4.7c-0.3,0-0.5-0.2-0.5-0.5l0,0c0-0.3,0.2-0.6,0.5-0.6h4.7c0.3,0,0.5,0.2,0.5,0.5l0,0C38.7,37.3,38.5,37.5,38.2,37.6
		L38.2,37.6z"/>
	
		<linearGradient id="Path-101_00000009567757581925515820000001800199684850504323_" gradientUnits="userSpaceOnUse" x1="-1267.726" y1="-311.196" x2="-1266.9767" y2="-311.196" gradientTransform="matrix(5.38 0 0 -1.48 6876.7202 -421.02)">
		<stop  offset="0" style="stop-color:#64C4DE"/>
		<stop  offset="1" style="stop-color:#5A78FF"/>
	</linearGradient>
	
		<path id="Path-101_00000043414855408246011610000011064005554761245595_" style="fill:url(#Path-101_00000009567757581925515820000001800199684850504323_);" d="
		M57.6,40.1h-2.9c-0.3,0-0.5-0.2-0.5-0.5l0,0C54,39.2,54.3,39,54.7,39h2.9c0.3,0,0.6,0.2,0.6,0.5l0,0C58.2,39.9,57.9,40.1,57.6,40.1
		z"/>
	
		<linearGradient id="Path-109_00000181803068331475265040000007732648678729167278_" gradientUnits="userSpaceOnUse" x1="-1459.7649" y1="-305.0984" x2="-1459.0049" y2="-305.0984" gradientTransform="matrix(37.9 0 0 -1.48 55348.8242 -383.95)">
		<stop  offset="0" style="stop-color:#64C4DE"/>
		<stop  offset="1" style="stop-color:#5A78FF"/>
	</linearGradient>
	
		<path id="Path-109_00000057846766255995487350000007264890014379019928_" style="fill:url(#Path-109_00000181803068331475265040000007732648678729167278_);" d="
		M51.6,68.1H24c-0.3,0-0.5-0.2-0.5-0.5l0,0c-0.1-0.3,0.2-0.5,0.5-0.5h27.5c0.3,0,0.6,0.2,0.6,0.5l0,0C52.2,67.9,51.9,68.1,51.6,68.1
		z"/>
	
		<linearGradient id="Path-110_00000173867299570352211010000011999968888913900479_" gradientUnits="userSpaceOnUse" x1="-1395.9818" y1="-307.4712" x2="-1395.2324" y2="-307.4712" gradientTransform="matrix(12.67 0 0 -1.48 17714.7402 -400.2)">
		<stop  offset="0" style="stop-color:#64C4DE"/>
		<stop  offset="1" style="stop-color:#5A78FF"/>
	</linearGradient>
	
		<path id="Path-110_00000106829038325400774710000018024375641790353536_" style="fill:url(#Path-110_00000173867299570352211010000011999968888913900479_);" d="
		M36.3,55.4h-8.5c-0.3,0-0.5-0.2-0.5-0.5l0,0c0-0.3,0.2-0.5,0.5-0.5h8.5c0.3,0,0.5,0.2,0.5,0.5l0,0C36.8,55.2,36.6,55.4,36.3,55.4z"
		/>
	
		<linearGradient id="Path-113_00000146458579449122271060000005285615023576528517_" gradientUnits="userSpaceOnUse" x1="-1206.5078" y1="-307.4712" x2="-1205.78" y2="-307.4712" gradientTransform="matrix(4.22 0 0 -1.48 5152.5601 -400.2)">
		<stop  offset="0" style="stop-color:#64C4DE"/>
		<stop  offset="1" style="stop-color:#5A78FF"/>
	</linearGradient>
	
		<path id="Path-113_00000134224261472613577130000004893955115018818463_" style="fill:url(#Path-113_00000146458579449122271060000005285615023576528517_);" d="
		M61.9,55.4h-2.1c-0.3,0-0.5-0.2-0.5-0.5l0,0c0-0.3,0.2-0.5,0.5-0.5h2.1c0.3,0,0.5,0.2,0.5,0.5l0,0C62.5,55.2,62.3,55.4,61.9,55.4z"
		/>
	
		<linearGradient id="Path-115_00000150095134330792697030000004851407163731050940_" gradientUnits="userSpaceOnUse" x1="-1262.5889" y1="-307.3104" x2="-1261.8396" y2="-307.3104" gradientTransform="matrix(5.28 0 0 -1.48 6705.4297 -397.5)">
		<stop  offset="0" style="stop-color:#64C4DE"/>
		<stop  offset="1" style="stop-color:#5A78FF"/>
	</linearGradient>
	
		<path id="Path-115_00000064348953999815587490000003721320087624042631_" style="fill:url(#Path-115_00000150095134330792697030000004851407163731050940_);" d="
		M43,57.9h-2.8c-0.3,0-0.6-0.2-0.6-0.5l0,0c0-0.3,0.2-0.5,0.5-0.5H43c0.3,0,0.6,0.2,0.6,0.5l0,0c0,0.3-0.2,0.5-0.5,0.5H43z"/>
	
		<linearGradient id="Path-118_00000042696562226317703340000014138214925001946242_" gradientUnits="userSpaceOnUse" x1="-1279.1674" y1="-308.9724" x2="-1278.418" y2="-308.9724" gradientTransform="matrix(5.7 0 0 -1.48 7325.4995 -407.56)">
		<stop  offset="0" style="stop-color:#64C4DE"/>
		<stop  offset="1" style="stop-color:#5A78FF"/>
	</linearGradient>
	
		<path id="Path-118_00000091699298285038578600000013496080430205863098_" style="fill:url(#Path-118_00000042696562226317703340000014138214925001946242_);" d="
		M37.6,50.3h-3.1c-0.3,0-0.6-0.2-0.6-0.5l0,0c0-0.3,0.2-0.5,0.5-0.5h3.2c0.3,0,0.6,0.2,0.6,0.5l0,0C38.3,50,38,50.3,37.6,50.3z"/>
	
		<linearGradient id="Path-122_00000055672819652448109230000010816045861226588577_" gradientUnits="userSpaceOnUse" x1="-1280.2271" y1="-305.6463" x2="-1279.4884" y2="-305.6463" gradientTransform="matrix(5.7 0 0 -1.48 7350.6294 -387.33)">
		<stop  offset="0" style="stop-color:#64C4DE"/>
		<stop  offset="1" style="stop-color:#5A78FF"/>
	</linearGradient>
	
		<path id="Path-122_00000129206132724957763130000016623784832448198546_" style="fill:url(#Path-122_00000055672819652448109230000010816045861226588577_);" d="
		M56.7,65.6h-3.2c-0.3,0-0.5-0.2-0.5-0.5l0,0c0-0.3,0.2-0.5,0.5-0.5h3.2c0.3,0,0.5,0.2,0.5,0.5l0,0C57.2,65.3,57,65.6,56.7,65.6z"/>
	
		<linearGradient id="Path-13_00000106123356637836993850000011658442963716166021_" gradientUnits="userSpaceOnUse" x1="-1477.9218" y1="339.0764" x2="-1477.1725" y2="339.0764" gradientTransform="matrix(87.53 0 0 -5.3 129376.1016 1807.8601)">
		<stop  offset="0" style="stop-color:#64C4DE"/>
		<stop  offset="1" style="stop-color:#6E88FF;stop-opacity:0"/>
	</linearGradient>
	
		<path id="Path-13_00000004538424332794830570000009900322279620388261_" style="fill:url(#Path-13_00000106123356637836993850000011658442963716166021_);" d="
		M82.3,10.5v2.2H16v-2.2c0-1,0.9-1.8,1.8-1.8h62.6C81.4,8.7,82.3,9.6,82.3,10.5z"/>
	<path id="Path-14_00000176035489211152053800000001407180913363323806_" class="st14" d="M18.1,11.5c0.3,0,0.5-0.3,0.5-0.6
		c0-0.3-0.2-0.5-0.5-0.5c-0.3,0-0.5,0.2-0.5,0.5l0,0C17.5,11.2,17.7,11.5,18.1,11.5z"/>
	<path id="Path-15_00000052791412028633387800000008442884830514893237_" class="st14" d="M19.7,11.5c0.3,0,0.5-0.3,0.5-0.6
		c0-0.3-0.2-0.5-0.5-0.5c-0.3,0-0.5,0.2-0.5,0.5l0,0c-0.1,0.3,0.1,0.5,0.4,0.6C19.6,11.5,19.6,11.5,19.7,11.5z"/>
	<path id="Path-16_00000064356086164189310770000010373469819101897365_" class="st14" d="M21.3,11.5c0.3,0,0.5-0.3,0.5-0.6
		c0-0.3-0.2-0.5-0.5-0.5c-0.3,0-0.6,0.2-0.6,0.5l0,0C20.6,11.2,20.8,11.5,21.3,11.5L21.3,11.5z"/>
	
		<linearGradient id="Path-69_00000119091210114068235220000018228766394468123283_" gradientUnits="userSpaceOnUse" x1="-1477.8632" y1="339.2947" x2="-1477.1031" y2="339.2947" gradientTransform="matrix(87.42 0 0 -5.3 129200.9766 1822.1299)">
		<stop  offset="0" style="stop-color:#64C4DE"/>
		<stop  offset="1" style="stop-color:#6E88FF;stop-opacity:0"/>
	</linearGradient>
	
		<path id="Path-69_00000005962810095538620160000007052289007150956697_" style="fill:url(#Path-69_00000119091210114068235220000018228766394468123283_);" d="
		M71.3,23.7v2.1H5.1v-2.1c-0.1-1,0.6-1.7,1.6-1.8h0.1h62.7c0.9,0,1.6,0.7,1.7,1.6C71.3,23.5,71.3,23.7,71.3,23.7z"/>
	
		<linearGradient id="Path-123_00000049941996361019990700000000855422003649945239_" gradientUnits="userSpaceOnUse" x1="-1443.3676" y1="539.983" x2="-1442.6075" y2="539.983" gradientTransform="matrix(25.42 0 0 -25.43 36753.3711 13790.5898)">
		<stop  offset="0" style="stop-color:#64C4DE"/>
		<stop  offset="1" style="stop-color:#5A78FF"/>
	</linearGradient>
	
		<path id="Path-123_00000106841937583853535470000014852283146062262205_" style="fill:url(#Path-123_00000049941996361019990700000000855422003649945239_);" d="
		M80,60c0,0.5-0.1,1-0.3,1.4c-0.9,3.2-3.4,5.8-6.6,6.7c-1.2,0.3-2.5,0.3-3.7,0.2c-5.2-0.6-9-5.5-8.3-10.7l0,0
		c0.6-5.2,5.2-9,10.5-8.5h0.2C76.9,49.9,80.6,54.7,80,60L80,60z"/>
	
		<linearGradient id="Path_00000158016208129891467580000005265634663400193457_" gradientUnits="userSpaceOnUse" x1="-1414.4888" y1="429.7144" x2="-1414.7136" y2="430.1534" gradientTransform="matrix(17.11 0 0 -8.66 24276.6211 3784.1602)">
		<stop  offset="1.000000e-02" style="stop-color:#C2D1FF"/>
		<stop  offset="1" style="stop-color:#FFFFFF"/>
	</linearGradient>
	
		<path id="Path_00000151530202494334089110000011667390970084171943_" style="fill:url(#Path_00000158016208129891467580000005265634663400193457_);" d="
		M75.8,56.6c0-0.2-0.1-0.3-0.3-0.3h-3c-0.1,0-0.2,0.1-0.3,0.3v0.6c0.1,0.1,0.2,0.3,0.3,0.3h1.1l-2.4,2.4l-2.4-2.4
		c-0.2-0.2-0.6-0.2-0.9,0l0,0l-2.8,2.8c-0.1,0.1-0.1,0.3,0,0.4l0.4,0.5c0.1,0.1,0.4,0.1,0.5,0l2.2-2.2l2.2,2.4c0.3,0.2,0.6,0.2,1,0
		l0,0l2.8-2.9v1.1c0.1,0.1,0.2,0.2,0.3,0.3h0.6c0.2,0,0.3-0.1,0.3-0.3L75.8,56.6z"/>
	<path id="Path-14_00000055688135974350616730000015047288580918172079_" class="st14" d="M7.2,24.6c0.3,0,0.5-0.3,0.5-0.6
		s-0.2-0.5-0.5-0.5s-0.5,0.2-0.5,0.5l0,0C6.7,24.2,6.9,24.6,7.2,24.6z"/>
	<path id="Path-15_00000139996856849752162350000011192695112509448078_" class="st14" d="M8.8,24.6c0.3,0,0.5-0.3,0.5-0.6
		s-0.2-0.5-0.5-0.5s-0.5,0.2-0.5,0.5l0,0c-0.1,0.3,0.1,0.5,0.3,0.6C8.7,24.6,8.7,24.6,8.8,24.6z"/>
	<path id="Path-16_00000117654039446741553610000010035228961056374146_" class="st14" d="M10.5,24.6c0.3,0,0.5-0.3,0.5-0.6
		s-0.2-0.5-0.5-0.5s-0.6,0.2-0.6,0.5l0,0C9.8,24.2,10,24.6,10.5,24.6L10.5,24.6z"/>
	<g class="st18">
		<g id="_27_00000155117226208434624340000010798349328481888944_">
			<path id="Path-3_00000065072894602381484240000005974155288626267266_" class="st19" d="M3.7,15c1-0.3,1.5-1.3,1.2-2.2
				c0,0,0,0,0-0.1c-0.2-0.9-1.1-1.5-2-1.3c-0.1,0-0.2,0-0.3,0.1c-1,0.3-1.5,1.3-1.2,2.2c0,0,0,0,0,0.1l0,0C1.7,14.8,2.7,15.3,3.7,15
				L3.7,15z"/>
			<path id="Path-4_00000057845703674992051770000009469618375843639979_" class="st19" d="M7.8,8.9c0.6-0.2,1-0.8,0.8-1.5V7.3
				c-0.2-0.6-0.8-1-1.5-0.8H7C6.3,6.7,6,7.4,6.2,8.1l0,0c0.2,0.6,0.8,1,1.5,0.8C7.7,8.9,7.8,8.9,7.8,8.9z"/>
			
				<linearGradient id="Path-5_00000150085843019482301740000016387116826730016171_" gradientUnits="userSpaceOnUse" x1="-1388.1245" y1="-95.6957" x2="-1387.4287" y2="-95.9205" gradientTransform="matrix(2.33 0 0 -2.33 3242.1299 -145.8501)">
				<stop  offset="0" style="stop-color:#AAAAAA"/>
				<stop  offset="1" style="stop-color:#7E7E7E"/>
			</linearGradient>
			
				<path id="Path-5_00000088134969587648898410000016557670498809241276_" style="fill:url(#Path-5_00000150085843019482301740000016387116826730016171_);" d="
				M8.6,78.3c0.4,0,0.9-0.4,0.9-0.9c0.1-0.4-0.3-0.9-0.7-1H8.6c-0.4,0-0.9,0.4-0.9,0.9l0,0c-0.1,0.4,0.3,0.9,0.7,1
				C8.5,78.3,8.6,78.3,8.6,78.3z"/>
			
				<linearGradient id="Path-6_00000000214913944973289630000016050427064076068739_" gradientUnits="userSpaceOnUse" x1="-1402.1503" y1="-98.3314" x2="-1401.4103" y2="-98.3314" gradientTransform="matrix(2.33 0 0 -2.33 3352.71 -185.62)">
				<stop  offset="0" style="stop-color:#AAAAAA"/>
				<stop  offset="1" style="stop-color:#7E7E7E"/>
			</linearGradient>
			
				<path id="Path-6_00000061444592255828584980000007912398730096008096_" style="fill:url(#Path-6_00000000214913944973289630000016050427064076068739_);" d="
				M84.9,44.3c0.4,0,0.8-0.4,0.8-0.8c0-0.4-0.4-0.8-0.8-0.8c-0.4-0.1-0.8,0.3-0.9,0.7v0.1l0,0C84,43.9,84.4,44.3,84.9,44.3
				L84.9,44.3z"/>
			
				<linearGradient id="Path-7_00000031892114302987578640000011427450624343882418_" gradientUnits="userSpaceOnUse" x1="-1690.925" y1="111.4055" x2="-1690.235" y2="111.4055" gradientTransform="matrix(3.6 0 0 -3.6 6151.1802 403.11)">
				<stop  offset="0" style="stop-color:#AAAAAA"/>
				<stop  offset="1" style="stop-color:#7E7E7E"/>
			</linearGradient>
			
				<path id="Path-7_00000144318795435149330270000014363729332830488998_" style="fill:url(#Path-7_00000031892114302987578640000011427450624343882418_);" d="
				M65.1,3.3c0.7,0,1.2-0.5,1.2-1.2c0.1-0.7-0.4-1.2-1.1-1.3h-0.1c-0.7,0-1.3,0.6-1.3,1.3l0,0C63.8,2.8,64.3,3.3,65.1,3.3L65.1,3.3z
				"/>
			<path id="Path-8_00000034799485157096642070000000891038092754953348_" class="st19" d="M83.5,21.3c1.2-0.9,1.3-2.6,0.4-3.8
				c-0.1-0.1-0.1-0.1-0.2-0.2c-1-1.2-2.8-1.3-4-0.2l0,0c-1.1,1.1-1.2,2.8-0.2,4C80.5,22.3,82.3,22.4,83.5,21.3L83.5,21.3z"/>
			<path id="Path-9_00000178915786996615155030000002210009132448107409_" class="st19" d="M83.8,8.6c0.5-0.5,0.5-1.2,0-1.7l0,0
				c-0.4-0.5-1.2-0.5-1.7-0.1l0,0c-0.4,0.5-0.4,1.2,0,1.7C82.6,8.9,83.3,9,83.8,8.6z"/>
			<path id="Path-10_00000113341346319489817390000018141014165824270508_" class="st23" d="M41,76.5C61.6,76.6,78.4,60,78.5,39.4
				S62,2,41.4,1.9S4,18.4,3.9,39v0.1l0,0C3.8,59.7,20.4,76.4,41,76.5z"/>
			<path id="Path-11_00000098937004941122530910000015017390024214454702_" class="st24" d="M82.4,10.5v45.7c0.1,1-0.6,1.7-1.6,1.8
				h-0.1H17.9c-1,0-1.8-0.9-1.8-1.8l0,0V10.5c0-1,0.9-1.8,1.8-1.8h62.6C81.5,8.7,82.4,9.6,82.4,10.5z"/>
			<path id="Path-12_00000008133964674122181850000004313906026432009124_" class="st25" d="M21.2,12.1v45.9h-3.2
				c-1,0-1.8-0.9-1.8-1.8V12.1H21.2z"/>
			
				<linearGradient id="Path-13_00000077311349454448404660000007597130601349270956_" gradientUnits="userSpaceOnUse" x1="-2205.6838" y1="239.9726" x2="-2204.9238" y2="239.9726" gradientTransform="matrix(87.53 0 0 -5.3 193072.625 1282.6101)">
				<stop  offset="0" style="stop-color:#AAAAAA"/>
				<stop  offset="1" style="stop-color:#8D8D8D;stop-opacity:0"/>
			</linearGradient>
			
				<path id="Path-13_00000160910730600178116230000017204886433693232275_" style="fill:url(#Path-13_00000077311349454448404660000007597130601349270956_);" d="
				M82.4,10.5v2.2H16.1v-2.2c0-1,0.9-1.8,1.8-1.8h62.6C81.5,8.7,82.4,9.6,82.4,10.5z"/>
			<path id="Path-14_00000111874610719694088950000003992829368356688523_" class="st14" d="M18.2,11.5c0.3,0,0.5-0.3,0.5-0.6
				c0-0.3-0.2-0.5-0.5-0.5c-0.3,0-0.5,0.2-0.5,0.5l0,0C17.6,11.2,17.8,11.5,18.2,11.5z"/>
			<path id="Path-15_00000018955826112278629140000014913974703312170673_" class="st14" d="M19.8,11.5c0.3,0,0.5-0.3,0.5-0.6
				c0-0.3-0.2-0.5-0.5-0.5c-0.3,0-0.5,0.2-0.5,0.5l0,0c-0.1,0.3,0.1,0.5,0.4,0.6C19.7,11.5,19.8,11.5,19.8,11.5z"/>
			<path id="Path-16_00000039108166170500914590000006274638047202740618_" class="st14" d="M21.4,11.5c0.3,0,0.5-0.3,0.5-0.6
				c0-0.3-0.2-0.5-0.5-0.5c-0.3,0-0.6,0.2-0.6,0.5l0,0C20.7,11.2,21.1,11.5,21.4,11.5L21.4,11.5z"/>
			<path id="Path-17_00000158734894504571957460000003985750450834562736_" class="st27" d="M35.6,16.9H23.3c-0.3,0-0.5-0.2-0.5-0.5
				l0,0c0-0.3,0.2-0.6,0.5-0.6h12.3c0.3,0,0.5,0.3,0.6,0.5l0,0C36.1,16.5,35.9,16.9,35.6,16.9z"/>
			<path id="Path-18_00000111150938955334801250000003276013810327973802_" class="st27" d="M18.7,16.9h-0.4c-0.3,0-0.6-0.2-0.6-0.5
				l0,0c0-0.3,0.2-0.6,0.5-0.6h0.5c0.3,0,0.5,0.2,0.5,0.5l0,0c0,0.3-0.2,0.5-0.5,0.5V16.9z"/>
			<path id="Path-19_00000154394582249540126910000017264158250215444113_" class="st27" d="M18.7,19.4h-0.4c-0.3,0-0.6-0.2-0.6-0.5
				l0,0c0-0.3,0.2-0.6,0.5-0.6h0.5c0.3,0,0.5,0.2,0.5,0.5l0,0c0,0.3-0.2,0.5-0.5,0.5V19.4z"/>
			<path id="Path-20_00000131339344475090718440000017288643919921646464_" class="st27" d="M18.7,22h-0.4c-0.3,0-0.6-0.2-0.6-0.5
				l0,0c0-0.3,0.2-0.6,0.5-0.6h0.5c0.3,0,0.5,0.2,0.5,0.5l0,0c0,0.3-0.2,0.5-0.5,0.5V22z"/>
			<path id="Path-21_00000019676004637822515930000004229209492653608070_" class="st27" d="M18.7,24.6h-0.4c-0.3,0-0.6-0.2-0.6-0.5
				l0,0c0-0.3,0.2-0.6,0.5-0.6h0.5c0.3,0,0.5,0.2,0.5,0.5l0,0c0,0.3-0.2,0.5-0.5,0.5V24.6z"/>
			<path id="Path-22_00000176040675898285019600000016291852335093823372_" class="st27" d="M18.7,27.1h-0.4c-0.3,0-0.6-0.2-0.6-0.5
				l0,0c0-0.3,0.2-0.5,0.5-0.5h0.5c0.3,0,0.5,0.2,0.5,0.5l0,0c0,0.3-0.2,0.6-0.5,0.6V27.1z"/>
			<path id="Path-23_00000089571737253257027910000003084645646577497023_" class="st27" d="M18.7,29.6h-0.4c-0.3,0-0.6-0.2-0.6-0.5
				l0,0c0-0.3,0.2-0.6,0.5-0.6h0.5c0.3,0,0.5,0.2,0.5,0.5l0,0c0.1,0.2-0.1,0.5-0.4,0.5L18.7,29.6z"/>
			<path id="Path-24_00000041983377145175250300000012659966182193210792_" class="st27" d="M18.7,32.2h-0.4c-0.3,0-0.6-0.2-0.6-0.5
				l0,0c0-0.3,0.2-0.6,0.5-0.6h0.5c0.3,0,0.5,0.2,0.5,0.5l0,0c0,0.3-0.2,0.5-0.5,0.5V32.2z"/>
			<path id="Path-25_00000027578320523990421760000015554111416910867584_" class="st27" d="M18.7,34.7h-0.4c-0.3,0-0.6-0.2-0.6-0.5
				l0,0c0-0.3,0.2-0.6,0.5-0.6h0.5c0.3,0,0.5,0.2,0.5,0.5l0,0C19.2,34.4,19,34.6,18.7,34.7L18.7,34.7z"/>
			<path id="Path-26_00000076592533979212934630000009172518001853471651_" class="st27" d="M18.7,37.3h-0.4c-0.3,0-0.6-0.2-0.6-0.5
				l0,0c0-0.3,0.2-0.6,0.5-0.6h0.5c0.3,0,0.5,0.2,0.5,0.5l0,0C19.2,37,19,37.2,18.7,37.3L18.7,37.3z"/>
			<path id="Path-27_00000036219388746959777410000011772588385913510590_" class="st27" d="M18.7,39.9h-0.4c-0.3,0-0.6-0.2-0.6-0.5
				l0,0c0-0.3,0.2-0.6,0.5-0.6h0.5c0.3,0,0.5,0.2,0.5,0.5l0,0C19.2,39.6,19,39.8,18.7,39.9L18.7,39.9z"/>
			<path id="Path-28_00000160893982574381771030000007673676236570886571_" class="st27" d="M18.7,42.4h-0.4c-0.3,0-0.6-0.2-0.6-0.5
				l0,0c0-0.3,0.2-0.6,0.5-0.6h0.5c0.3,0,0.5,0.2,0.5,0.5l0,0C19.2,42.1,19,42.3,18.7,42.4L18.7,42.4z"/>
			<path id="Path-29_00000074444246369844428140000018430888544968215730_" class="st27" d="M18.7,45h-0.4c-0.3,0-0.6-0.2-0.6-0.5
				l0,0c0-0.3,0.2-0.6,0.5-0.6h0.5c0.3,0,0.5,0.2,0.5,0.5l0,0C19.2,44.7,19,44.9,18.7,45L18.7,45z"/>
			<path id="Path-30_00000019658494033857347780000008558791581188018838_" class="st27" d="M18.7,47.6h-0.4c-0.3,0-0.6-0.2-0.6-0.5
				l0,0c0-0.3,0.2-0.6,0.5-0.6h0.5c0.3,0,0.5,0.2,0.5,0.5l0,0C19.2,47.3,19,47.5,18.7,47.6L18.7,47.6z"/>
			<path id="Path-31_00000138554301438620710290000004578561768695560579_" class="st27" d="M18.7,50.1h-0.4c-0.3,0-0.6-0.2-0.6-0.5
				l0,0c0-0.3,0.2-0.5,0.5-0.5h0.5c0.3,0,0.5,0.2,0.5,0.5l0,0C19.2,49.9,19,50.3,18.7,50.1L18.7,50.1z"/>
			<path id="Path-32_00000109720963766956972490000004854346674800412036_" class="st27" d="M18.7,52.7h-0.4c-0.3,0-0.6-0.2-0.6-0.5
				l0,0c0-0.3,0.2-0.5,0.5-0.5h0.5c0.3,0,0.5,0.2,0.5,0.5l0,0C19.2,52.5,19,52.8,18.7,52.7L18.7,52.7z"/>
			<path id="Path-33_00000088129604526536014540000013429408366599196345_" class="st27" d="M18.7,55.2h-0.4c-0.3,0-0.6-0.2-0.6-0.5
				l0,0c0-0.3,0.2-0.6,0.5-0.6h0.5c0.3,0,0.5,0.2,0.5,0.5l0,0C19.2,54.9,19,55.1,18.7,55.2L18.7,55.2z"/>
			<path id="Path-34_00000064336908389015110570000008012022225319185834_" class="st27" d="M33,19.4h-9.7c-0.3,0-0.5-0.2-0.5-0.5
				l0,0c0-0.3,0.2-0.6,0.5-0.6H33c0.3,0,0.6,0.2,0.6,0.5l0,0C33.7,19.1,33.4,19.4,33,19.4L33,19.4z"/>
			<path id="Path-35_00000052082179042673794250000010659977004304466838_" class="st27" d="M59.3,19.4H35c-0.3,0-0.5-0.2-0.5-0.5
				l0,0c0-0.3,0.2-0.6,0.5-0.6h24.3c0.3,0,0.5,0.2,0.5,0.5l0,0c0.1,0.3-0.1,0.5-0.4,0.6H59.3z"/>
			<path id="Path-36_00000041274159504742883620000006268502898359644802_" class="st27" d="M69.8,19.4h-7.1c-0.3,0-0.5-0.2-0.5-0.5
				l0,0c0-0.3,0.2-0.6,0.5-0.6h7.1c0.3,0,0.5,0.2,0.5,0.5l0,0C70.3,19.1,70.1,19.3,69.8,19.4z"/>
			<path id="Path-37_00000114076018705273987900000015759058109447551678_" class="st27" d="M75.5,19.4h-2.5c-0.3,0-0.5-0.2-0.5-0.5
				l0,0c0-0.3,0.2-0.6,0.5-0.6h2.5c0.3,0,0.5,0.2,0.5,0.5l0,0c0,0.3-0.2,0.5-0.5,0.5V19.4z"/>
			<path id="Path-38_00000011030430154778709460000017221960494684145080_" class="st27" d="M39.4,21.9H27c-0.3,0-0.6-0.2-0.6-0.5
				l0,0c0-0.3,0.2-0.5,0.5-0.5h12.4c0.2-0.1,0.5,0.2,0.5,0.5l0,0C39.9,21.7,39.7,21.9,39.4,21.9z"/>
			<path id="Path-39_00000090274048524612003500000000450664884236831128_" class="st27" d="M39.4,32.1H27c-0.3,0-0.6-0.2-0.6-0.5
				l0,0c0-0.3,0.2-0.5,0.5-0.5h12.4c0.3,0,0.5,0.2,0.5,0.5l0,0C39.9,31.8,39.7,32.1,39.4,32.1z"/>
			<path id="Path-40_00000168099215939976783770000008026438806825035141_" class="st27" d="M36,34.6h-9c-0.3,0-0.6-0.2-0.6-0.5l0,0
				c0-0.3,0.2-0.5,0.5-0.5H36c0.3,0,0.5,0.2,0.5,0.5l0,0C36.6,34.4,36.4,34.6,36,34.6z"/>
			<path id="Path-41_00000139987570058033789390000016298933186594488986_" class="st27" d="M59.9,34.6H38.6c-0.3,0-0.5-0.2-0.5-0.5
				l0,0c0-0.3,0.2-0.5,0.5-0.5h21.3c0.3,0,0.6,0.2,0.6,0.5l0,0C60.5,34.4,60.3,34.6,59.9,34.6L59.9,34.6z"/>
			<path id="Path-42_00000028295740547876812720000006690847990447279510_" class="st27" d="M42.8,24.5H31.3c-0.3,0-0.5-0.2-0.5-0.5
				l0,0c0-0.3,0.2-0.5,0.5-0.5h11.5c0.3-0.1,0.5,0.1,0.6,0.4v0.1l0,0C43.3,24.2,43.1,24.5,42.8,24.5z"/>
			<path id="Path-43_00000147185345964293308640000004690153991374977967_" class="st27" d="M49.2,24.5h-4.7c-0.3,0-0.5-0.2-0.5-0.5
				l0,0c0-0.3,0.2-0.5,0.5-0.5h4.7c0.3-0.1,0.5,0.2,0.5,0.5l0,0C49.8,24.2,49.5,24.5,49.2,24.5z"/>
			<path id="Path-44_00000097477412660282387830000009215974758082814130_" class="st27" d="M63,27H31.3c-0.3,0-0.5-0.2-0.5-0.5l0,0
				c0-0.3,0.2-0.6,0.5-0.6H63c0.3,0,0.6,0.2,0.6,0.5l0,0C63.7,26.7,63.3,27,63,27z"/>
			<path id="Path-45_00000180366034362405974490000011031156882214170558_" class="st27" d="M68.7,27h-3c-0.3,0-0.5-0.2-0.5-0.5l0,0
				c0-0.3,0.2-0.6,0.5-0.6h3c0.3,0,0.5,0.2,0.5,0.5l0,0c0,0.3-0.2,0.5-0.5,0.5V27z"/>
			<path id="Path-46_00000101086140687295518330000005518475218370986163_" class="st27" d="M80,27h-9.1c-0.3,0-0.6-0.2-0.6-0.5l0,0
				c0-0.3,0.3-0.5,0.5-0.6H80c0.3,0,0.5,0.2,0.5,0.5l0,0c0.1,0.3-0.1,0.5-0.4,0.6H80z"/>
			<path id="Path-47_00000057132096043649168020000014955052776062078135_" class="st27" d="M53.2,29.6H31.3c-0.3,0-0.5-0.2-0.5-0.5
				l0,0c0-0.3,0.2-0.6,0.5-0.6h21.8c0.3,0,0.5,0.2,0.5,0.5l0,0c0.1,0.3-0.1,0.5-0.4,0.6H53.2z"/>
			<path id="Path-48_00000000207792076126106680000009447596476965515668_" class="st27" d="M43.5,39.8h-8.5c-0.3,0-0.5-0.2-0.5-0.5
				l0,0c0-0.3,0.2-0.5,0.5-0.5h8.5c0.3,0,0.5,0.2,0.5,0.5l0,0C44.2,39.6,43.9,39.8,43.5,39.8z"/>
			<path id="Path-49_00000137098347084268272430000009607380464003125404_" class="st27" d="M54.6,39.8h-9.1c-0.3,0-0.5-0.2-0.5-0.5
				l0,0c0-0.3,0.2-0.5,0.5-0.5h9.1c0.3,0,0.5,0.2,0.5,0.5l0,0C55.1,39.6,54.9,39.8,54.6,39.8z"/>
			<path id="Path-50_00000143580049395193800840000016027846905823001501_" class="st27" d="M62.7,39.8h-6.3c-0.3,0-0.6-0.2-0.6-0.5
				l0,0c0-0.3,0.2-0.5,0.5-0.5h6.4c0.3,0,0.6,0.2,0.6,0.5l0,0C63.2,39.6,63,39.8,62.7,39.8z"/>
			<path id="Path-51_00000071554581107758593310000009168395609165276854_" class="st27" d="M68.4,39.8h-3.2c-0.3,0-0.5-0.2-0.5-0.5
				l0,0c0-0.3,0.2-0.5,0.5-0.5h3.2c0.3,0,0.6,0.2,0.6,0.5l0,0C69,39.6,68.8,39.8,68.4,39.8L68.4,39.8z"/>
			<path id="Path-52_00000102505889564544007600000005274092725486149297_" class="st27" d="M43.5,47.4h-8.5c-0.3,0-0.5-0.2-0.5-0.5
				l0,0c0-0.3,0.2-0.5,0.5-0.5h8.5c0.3,0,0.5,0.2,0.5,0.5l0,0C44.2,47.2,43.9,47.4,43.5,47.4z"/>
			<path id="Path-53_00000115499204308942186880000016859669261458596498_" class="st27" d="M62.7,55.1H35.1c-0.3,0-0.5-0.2-0.5-0.5
				l0,0c0-0.3,0.2-0.5,0.5-0.5h27.6c0.3,0,0.5,0.2,0.5,0.5l0,0C63.2,54.9,63,55.1,62.7,55.1z"/>
			<path id="Path-54_00000155864692027697669190000004638160966006280069_" class="st27" d="M47.4,42.2h-8.6c-0.3,0-0.5-0.2-0.5-0.5
				l0,0c0-0.3,0.2-0.5,0.5-0.5h8.6c0.3,0,0.5,0.2,0.5,0.5l0,0C47.9,42,47.7,42.2,47.4,42.2z"/>
			<path id="Path-55_00000126290033708580707920000006612777911333368490_" class="st27" d="M61.2,42.2H49.1c-0.3,0-0.5-0.2-0.5-0.5
				l0,0c0-0.3,0.2-0.5,0.5-0.5h12.1c0.3,0,0.5,0.2,0.5,0.5l0,0C61.7,42,61.5,42.2,61.2,42.2z"/>
			<path id="Path-56_00000125560553456022907520000013088196607857164433_" class="st27" d="M69.1,42.2H63c-0.3,0-0.6-0.2-0.6-0.5
				l0,0c0-0.3,0.2-0.5,0.5-0.5h6.2c0.3,0,0.5,0.2,0.5,0.5l0,0C69.6,42,69.4,42.2,69.1,42.2z"/>
			<path id="Path-57_00000150066006869043864120000014798182424161366936_" class="st27" d="M73,42.2h-2c-0.3,0-0.6-0.2-0.6-0.5l0,0
				c0-0.3,0.2-0.5,0.5-0.5H73c0.3,0,0.5,0.2,0.5,0.5l0,0C73.5,42,73.3,42.2,73,42.2z"/>
			<path id="Path-58_00000047041692394848897070000000148642905110409402_" class="st27" d="M49.3,44.8H38.9c-0.3,0-0.5-0.2-0.5-0.5
				l0,0c0-0.3,0.2-0.5,0.5-0.5h10.4c0.3,0,0.5,0.2,0.5,0.5l0,0C49.8,44.6,49.6,44.8,49.3,44.8z"/>
			<path id="Path-59_00000054987833877310125900000007774996325558039474_" class="st27" d="M54.2,44.8h-2.9c-0.3,0-0.6-0.2-0.6-0.5
				l0,0c0-0.3,0.2-0.5,0.5-0.5h3c0.3,0,0.5,0.2,0.5,0.5l0,0C54.8,44.6,54.6,44.8,54.2,44.8z"/>
			<path id="Path-60_00000041979214847198573590000014607160917338001063_" class="st27" d="M77.7,44.8H56.2c-0.3,0-0.5-0.2-0.5-0.5
				l0,0c0-0.3,0.2-0.5,0.5-0.5h21.5c0.3,0,0.5,0.2,0.5,0.5l0,0C78.2,44.6,78,44.8,77.7,44.8z"/>
			<path id="Path-61_00000016794981879827207890000016035485504012002745_" class="st27" d="M43.5,37.2H31.3c-0.3,0-0.5-0.2-0.5-0.5
				l0,0c0-0.3,0.2-0.5,0.5-0.5h12.3c0.3,0,0.5,0.2,0.5,0.5l0,0C44.1,37,43.9,37.2,43.5,37.2z"/>
			<path id="Path-62_00000043440429944963137670000008724188101981887627_" class="st27" d="M48.8,37.2h-3.2c-0.3,0-0.5-0.2-0.5-0.5
				l0,0c0-0.3,0.2-0.5,0.5-0.5h3.2c0.3,0,0.5,0.2,0.5,0.5l0,0C49.3,37,49.1,37.2,48.8,37.2z"/>
			<path id="Path-63_00000144317345404517427750000018141933576237910709_" class="st27" d="M43.5,49.9H31.3c-0.3,0-0.5-0.2-0.5-0.5
				l0,0c0-0.3,0.2-0.5,0.5-0.5h12.3c0.3,0,0.5,0.2,0.5,0.5l0,0C44.1,49.7,43.9,49.9,43.5,49.9z"/>
			<path id="Path-64_00000101105224097543824100000014300003013132738456_" class="st27" d="M53.3,52.4H31.3
				c-0.3,0.1-0.5-0.2-0.5-0.5l0,0c0-0.3,0.2-0.5,0.5-0.5h21.9c0.3,0,0.6,0.2,0.6,0.5l0,0C53.8,52.2,53.6,52.4,53.3,52.4z"/>
			<path id="Path-65_00000111176147187345264460000008878751218193528723_" class="st27" d="M62.7,52.4H55c-0.3,0.1-0.5-0.2-0.5-0.5
				l0,0c0-0.3,0.2-0.5,0.5-0.5h7.7c0.3,0,0.6,0.2,0.6,0.5l0,0C63.3,52.2,63.1,52.4,62.7,52.4L62.7,52.4z"/>
			<path id="Path-66_00000179641909555230611660000007572233716383235771_" class="st27" d="M67.7,52.4h-3.1
				c-0.3,0.1-0.5-0.1-0.6-0.4v-0.1l0,0c0-0.3,0.2-0.5,0.5-0.5h3.2c0.3,0,0.6,0.2,0.6,0.5l0,0c0,0.3-0.2,0.5-0.5,0.5H67.7z"/>
			<path id="Path-67_00000070097341869267472440000004805115207941144727_" class="st24" d="M71.4,23.7v45.7c0,1-0.7,1.7-1.7,1.8
				H6.9c-1-0.1-1.7-0.9-1.7-1.8V23.7c-0.1-1,0.6-1.7,1.6-1.8h0.1h62.7c0.9,0,1.6,0.7,1.7,1.6V23.7z"/>
			<path id="Path-68_00000033365363821263464720000008063132031309782154_" class="st25" d="M10.2,25.2v46H6.9
				c-1-0.1-1.7-0.9-1.7-1.8V25.2H10.2z"/>
			
				<linearGradient id="Path-69_00000080178442992716963930000013509036778483135640_" gradientUnits="userSpaceOnUse" x1="-2205.6003" y1="240.2721" x2="-2204.8511" y2="240.2721" gradientTransform="matrix(87.42 0 0 -5.3 192821.5938 1297.3101)">
				<stop  offset="0" style="stop-color:#AAAAAA"/>
				<stop  offset="1" style="stop-color:#8D8D8D;stop-opacity:0"/>
			</linearGradient>
			
				<path id="Path-69_00000170976312257626039630000002034612963624721070_" style="fill:url(#Path-69_00000080178442992716963930000013509036778483135640_);" d="
				M71.4,23.7v2.1H5.2v-2.1c-0.1-1,0.6-1.7,1.6-1.8h0.1h62.7c0.9,0,1.6,0.7,1.7,1.6V23.7z"/>
			<path id="Path-70_00000030472378855805164060000011643261539954573229_" class="st14" d="M7.2,24.6c0.3-0.1,0.4-0.5,0.3-0.9
				c-0.1-0.1-0.2-0.2-0.3-0.3c-0.3,0-0.6,0.2-0.6,0.5l0,0c0,0.3,0.3,0.5,0.6,0.5V24.6z"/>
			<path id="Path-71_00000181052206970172350680000002994030966467450558_" class="st14" d="M8.7,24.6c0.3,0.1,0.7,0,0.9-0.3
				c0.1-0.3,0-0.7-0.3-0.9c-0.2-0.1-0.3-0.1-0.5,0c-0.3,0-0.5,0.2-0.5,0.5l0,0c0,0.3,0.2,0.5,0.5,0.5V24.6z"/>
			<path id="Path-72_00000045584055363610813090000001058651424124656534_" class="st14" d="M10.3,24.6c0.3,0.1,0.7,0,0.9-0.3
				c0.1-0.3,0-0.7-0.3-0.9c-0.2-0.1-0.3-0.1-0.5,0c-0.3,0-0.5,0.2-0.5,0.5l0,0c0,0.3,0.2,0.5,0.5,0.5V24.6z"/>
			<path id="Path-73_00000029755940242020888450000014209218407316150931_" class="st27" d="M24.7,29.9H12.4c-0.3,0-0.5-0.2-0.5-0.5
				l0,0c0-0.3,0.2-0.6,0.5-0.6h12.3c0.3,0,0.5,0.2,0.5,0.5l0,0c0.1,0.3-0.1,0.5-0.4,0.6H24.7z"/>
			<path id="Path-74_00000161605721794625698090000009853336666907054743_" class="st27" d="M7.8,29.9H7.2c-0.3,0-0.5-0.2-0.5-0.5
				l0,0c0-0.3,0.2-0.5,0.5-0.5h0.5c0.3,0,0.5,0.2,0.5,0.5l0,0l0,0C8.3,29.7,8.1,29.9,7.8,29.9L7.8,29.9z"/>
			<path id="Path-75_00000114759063043671972380000008952844104128133286_" class="st27" d="M7.8,32.5H7.2c-0.3,0-0.5-0.2-0.5-0.5
				l0,0c0-0.3,0.2-0.6,0.5-0.6h0.5c0.3,0,0.5,0.2,0.5,0.5l0,0l0,0c0,0.3-0.2,0.5-0.5,0.5L7.8,32.5z"/>
			<path id="Path-76_00000148640922749446610060000011474568495778857396_" class="st27" d="M7.8,35.1H7.2c-0.3,0-0.5-0.2-0.5-0.5
				l0,0c0-0.3,0.2-0.6,0.5-0.6h0.5c0.3,0,0.5,0.2,0.5,0.5l0,0l0,0C8.3,34.7,8.1,34.9,7.8,35.1L7.8,35.1z"/>
			<path id="Path-77_00000070839682388352573550000002583868541935704765_" class="st27" d="M7.8,37.6H7.2c-0.3,0-0.5-0.2-0.5-0.5
				l0,0c0-0.3,0.2-0.6,0.5-0.6h0.5c0.3,0,0.5,0.2,0.5,0.5l0,0l0,0C8.3,37.3,8.1,37.5,7.8,37.6L7.8,37.6z"/>
			<path id="Path-78_00000022550319115436842040000006187401570550323635_" class="st27" d="M7.8,40.2H7.2c-0.3,0-0.5-0.2-0.5-0.5
				l0,0c0-0.3,0.2-0.6,0.5-0.6h0.5c0.3,0,0.5,0.2,0.5,0.5l0,0l0,0C8.3,39.9,8.1,40.1,7.8,40.2L7.8,40.2z"/>
			<path id="Path-79_00000150097517709613568550000001566223450447141786_" class="st27" d="M7.8,42.8H7.2c-0.3,0-0.5-0.2-0.5-0.5
				l0,0c0-0.3,0.2-0.5,0.5-0.5h0.5c0.3,0,0.5,0.2,0.5,0.5l0,0l0,0C8.3,42.5,8.1,42.8,7.8,42.8L7.8,42.8z"/>
			<path id="Path-80_00000178885417290133458210000003091224097202844042_" class="st27" d="M7.8,45.3H7.2c-0.3,0-0.5-0.2-0.5-0.5
				l0,0c0-0.3,0.2-0.6,0.5-0.6h0.5c0.3,0,0.5,0.2,0.5,0.5l0,0l0,0C8.3,45,8.1,45.2,7.8,45.3L7.8,45.3z"/>
			<path id="Path-81_00000078729413575290498450000005858886820559920043_" class="st27" d="M7.8,47.9H7.2c-0.3,0-0.5-0.2-0.5-0.5
				l0,0c0-0.3,0.2-0.6,0.5-0.6h0.5c0.3,0,0.5,0.2,0.5,0.5l0,0l0,0C8.3,47.6,8.1,47.8,7.8,47.9L7.8,47.9z"/>
			<path id="Path-82_00000045585535057684605320000010368989727735170990_" class="st27" d="M7.8,50.5H7.2c-0.3,0-0.5-0.2-0.5-0.5
				l0,0c0-0.3,0.2-0.5,0.5-0.5h0.5c0.3,0,0.5,0.2,0.5,0.5l0,0l0,0C8.3,50.3,8.1,50.6,7.8,50.5L7.8,50.5z"/>
			<path id="Path-83_00000149378568579983053500000003242657214930398632_" class="st27" d="M7.8,52.9H7.2c-0.3,0-0.5-0.2-0.5-0.5
				l0,0c0-0.3,0.2-0.6,0.5-0.6h0.5c0.3,0,0.5,0.2,0.5,0.5l0,0l0,0C8.3,52.6,8.1,52.8,7.8,52.9L7.8,52.9z"/>
			<path id="Path-84_00000021811086499185243300000016638807361641168520_" class="st27" d="M7.8,55.5H7.2c-0.3,0-0.5-0.2-0.5-0.5
				l0,0c0-0.3,0.2-0.6,0.5-0.6h0.5c0.3,0,0.5,0.2,0.5,0.5l0,0l0,0C8.3,55.2,8.1,55.4,7.8,55.5L7.8,55.5z"/>
			<path id="Path-85_00000085958241154258215940000012233341468218806970_" class="st27" d="M7.8,58.1H7.2c-0.3,0-0.5-0.2-0.5-0.5
				l0,0c0-0.3,0.2-0.6,0.5-0.6h0.5c0.3,0,0.5,0.2,0.5,0.5l0,0l0,0C8.3,57.7,8.1,58,7.8,58.1L7.8,58.1z"/>
			<path id="Path-86_00000101785341239229049210000009307652189914692266_" class="st27" d="M7.8,60.6H7.2c-0.3,0-0.5-0.2-0.5-0.5
				l0,0c0-0.3,0.2-0.6,0.5-0.6h0.5c0.3,0,0.5,0.2,0.5,0.5l0,0l0,0C8.3,60.3,8.1,60.5,7.8,60.6L7.8,60.6z"/>
			<path id="Path-87_00000126314045325170530400000013106058316361325966_" class="st27" d="M7.8,63.2H7.2c-0.3,0-0.5-0.2-0.5-0.5
				l0,0c0-0.3,0.2-0.6,0.5-0.6h0.5c0.3,0,0.5,0.2,0.5,0.5l0,0l0,0C8.3,62.9,8.1,63.1,7.8,63.2L7.8,63.2z"/>
			<path id="Path-88_00000116940245832100792960000013591863610071076274_" class="st27" d="M7.8,65.8H7.2c-0.3,0-0.5-0.2-0.5-0.5
				l0,0c0-0.3,0.2-0.6,0.5-0.6h0.5c0.3,0,0.5,0.2,0.5,0.5l0,0l0,0C8.3,65.5,8.1,65.7,7.8,65.8L7.8,65.8z"/>
			<path id="Path-89_00000137104940149304078790000004030523066838318981_" class="st27" d="M7.8,68.3H7.2c-0.3,0-0.5-0.2-0.5-0.5
				l0,0c0-0.3,0.2-0.6,0.5-0.6h0.5c0.3,0,0.5,0.2,0.5,0.5l0,0l0,0C8.3,68,8.1,68.2,7.8,68.3L7.8,68.3z"/>
			<path id="Path-90_00000111158861963314609230000005061850315358769053_" class="st27" d="M22.1,32.5h-9.7c-0.3,0-0.5-0.2-0.5-0.5
				l0,0c0-0.3,0.2-0.6,0.5-0.6h9.7c0.3,0,0.5,0.2,0.5,0.5l0,0C22.7,32.2,22.4,32.4,22.1,32.5z"/>
			<path id="Path-91_00000158723268262389102210000012348809334482404765_" class="st27" d="M48.2,32.5H24c-0.3,0-0.5-0.2-0.5-0.5
				l0,0c0-0.3,0.2-0.6,0.5-0.6h24.2c0.3,0,0.5,0.3,0.6,0.5l0,0c0,0.3-0.2,0.5-0.5,0.5L48.2,32.5z"/>
			<path id="Path-92_00000162334201282131733720000012513880842892841142_" class="st14" d="M58.7,32.5h-7.1c-0.3,0-0.5-0.2-0.5-0.5
				l0,0c0-0.3,0.2-0.6,0.5-0.6h7.1c0.3,0,0.5,0.2,0.5,0.5l0,0c0,0.3-0.2,0.5-0.5,0.5V32.5z"/>
			
				<linearGradient id="Path-93_00000177463527523217863550000001528910978597591473_" gradientUnits="userSpaceOnUse" x1="-1810.7465" y1="-452.3691" x2="-1810.0078" y2="-452.3691" gradientTransform="matrix(4.65 0 0 -1.48 8476.7002 -637.61)">
				<stop  offset="0" style="stop-color:#AAAAAA"/>
				<stop  offset="1" style="stop-color:#7E7E7E"/>
			</linearGradient>
			
				<path id="Path-93_00000093863636799817131360000003243670435228009610_" style="fill:url(#Path-93_00000177463527523217863550000001528910978597591473_);" d="
				M64.6,32.5h-2.5c-0.3,0-0.5-0.2-0.5-0.5l0,0c0-0.3,0.2-0.6,0.5-0.6h2.5c0.3,0,0.5,0.2,0.5,0.5l0,0c0,0.3-0.2,0.5-0.5,0.5V32.5z"
				/>
			
				<linearGradient id="Path-94_00000091006810003659955920000013678679317185648814_" gradientUnits="userSpaceOnUse" x1="-2117.8352" y1="-452.1523" x2="-2117.075" y2="-452.1523" gradientTransform="matrix(17.74 0 0 -1.48 37585.2383 -634.72)">
				<stop  offset="0" style="stop-color:#AAAAAA"/>
				<stop  offset="1" style="stop-color:#7E7E7E"/>
			</linearGradient>
			
				<path id="Path-94_00000124149852233439540710000002426222818512508556_" style="fill:url(#Path-94_00000091006810003659955920000013678679317185648814_);" d="
				M28.3,35.1H16c-0.3,0-0.5-0.2-0.5-0.5l0,0c0-0.3,0.2-0.6,0.5-0.6h12.3c0.3,0,0.6,0.2,0.6,0.5l0,0C28.9,34.7,28.7,34.9,28.3,35.1z
				"/>
			
				<linearGradient id="Path-95_00000081626608485347873580000016527720160268399550_" gradientUnits="userSpaceOnUse" x1="-2117.8352" y1="-449.9555" x2="-2117.075" y2="-449.9555" gradientTransform="matrix(17.74 0 0 -1.48 37585.2383 -621.26)">
				<stop  offset="0" style="stop-color:#AAAAAA"/>
				<stop  offset="1" style="stop-color:#7E7E7E"/>
			</linearGradient>
			
				<path id="Path-95_00000057832294663498402940000009514410239238833820_" style="fill:url(#Path-95_00000081626608485347873580000016527720160268399550_);" d="
				M28.3,45.2H16c-0.3,0-0.5-0.2-0.5-0.5l0,0c0-0.3,0.2-0.5,0.5-0.5h12.3c0.3-0.1,0.5,0.1,0.6,0.4v0.1l0,0
				C28.9,44.9,28.7,45.2,28.3,45.2z"/>
			<path id="Path-96_00000034057709052303911880000001129866646103725712_" class="st27" d="M25.1,47.8H16c-0.3,0-0.5-0.2-0.5-0.5
				l0,0c0-0.3,0.2-0.5,0.5-0.5h9.1c0.3-0.1,0.5,0.2,0.5,0.5l0,0C25.7,47.6,25.4,47.8,25.1,47.8z"/>
			<path id="Path-97_00000142142594444026244790000002152963055011815311_" class="st27" d="M49,47.8H27.6c-0.3,0-0.5-0.2-0.5-0.5
				l0,0c0-0.3,0.2-0.5,0.5-0.5H49c0.3-0.1,0.5,0.2,0.5,0.5l0,0C49.5,47.6,49.3,47.8,49,47.8z"/>
			<path id="Path-98_00000123437832644211200920000013949957780098377916_" class="st27" d="M31.8,37.6H20.3c-0.3,0-0.5-0.2-0.5-0.5
				l0,0c0-0.3,0.2-0.6,0.5-0.6h11.5c0.3,0,0.6,0.2,0.6,0.5l0,0c0,0.3-0.2,0.5-0.5,0.5L31.8,37.6z"/>
			
				<linearGradient id="Path-99_00000106825915914556464420000013495858685990751662_" gradientUnits="userSpaceOnUse" x1="-1975.2224" y1="-451.5909" x2="-1974.4839" y2="-451.5909" gradientTransform="matrix(7.71 0 0 -1.48 15260.2803 -631.32)">
				<stop  offset="0" style="stop-color:#AAAAAA"/>
				<stop  offset="1" style="stop-color:#7E7E7E"/>
			</linearGradient>
			
				<path id="Path-99_00000142873251703918156260000013217179815436230566_" style="fill:url(#Path-99_00000106825915914556464420000013495858685990751662_);" d="
				M38.3,37.6h-4.7c-0.3,0-0.5-0.2-0.5-0.5l0,0c0-0.3,0.2-0.6,0.5-0.6h4.7c0.3,0,0.5,0.2,0.5,0.5l0,0C38.8,37.3,38.6,37.5,38.3,37.6
				L38.3,37.6z"/>
			<path id="Path-100_00000044899889392102533490000004177308277858642066_" class="st27" d="M52,40.1H20.3c-0.3,0-0.5-0.2-0.5-0.5
				l0,0c0-0.3,0.2-0.5,0.5-0.5H52c0.3,0,0.6,0.2,0.6,0.5l0,0C52.6,39.9,52.4,40.1,52,40.1L52,40.1z"/>
			
				<linearGradient id="Path-101_00000030486343296730167830000001420033598669450113_" gradientUnits="userSpaceOnUse" x1="-1867.1204" y1="-451.0743" x2="-1866.371" y2="-451.0743" gradientTransform="matrix(5.38 0 0 -1.48 10104.4404 -628.04)">
				<stop  offset="0" style="stop-color:#AAAAAA"/>
				<stop  offset="1" style="stop-color:#7E7E7E"/>
			</linearGradient>
			
				<path id="Path-101_00000109724947271887591380000004255884069506876593_" style="fill:url(#Path-101_00000030486343296730167830000001420033598669450113_);" d="
				M57.7,40.1h-2.9c-0.3,0-0.5-0.2-0.5-0.5l0,0c-0.1-0.3,0.2-0.5,0.5-0.5h2.9c0.3,0,0.6,0.2,0.6,0.5l0,0
				C58.2,39.9,58,40.1,57.7,40.1z"/>
			<path id="Path-102_00000070083159865560002310000011508651258623515303_" class="st27" d="M69,40.1h-9.1c-0.3,0-0.5-0.2-0.5-0.5
				l0,0c0-0.3,0.2-0.5,0.5-0.5H69c0.3,0,0.6,0.2,0.6,0.5l0,0C69.6,39.9,69.4,40.1,69,40.1L69,40.1z"/>
			<path id="Path-103_00000072995608208025059680000001494146186046642869_" class="st27" d="M42.1,42.7H20.3
				c-0.3,0-0.5-0.2-0.5-0.5l0,0c0-0.3,0.2-0.5,0.5-0.5h21.8c0.3,0,0.5,0.2,0.5,0.5l0,0C42.7,42.4,42.5,42.7,42.1,42.7z"/>
			<path id="Path-104_00000088824081123455204520000017343469171685184182_" class="st27" d="M32.6,52.9h-8.5
				c-0.3,0-0.5-0.2-0.5-0.5l0,0c-0.1-0.3,0.2-0.5,0.5-0.6h8.5c0.3,0,0.5,0.2,0.5,0.5l0,0C33.1,52.6,32.9,52.8,32.6,52.9L32.6,52.9z"
				/>
			<path id="Path-105_00000134232452263509679400000015184046729184437640_" class="st27" d="M43.5,52.9h-9c-0.3,0-0.5-0.2-0.5-0.5
				l0,0c0-0.3,0.2-0.6,0.5-0.6h9c0.3,0,0.5,0.2,0.5,0.5l0,0c0.1,0.3-0.1,0.5-0.4,0.6H43.5z"/>
			<path id="Path-106_00000150784364222074046300000014175216293162854547_" class="st14" d="M51.7,52.9h-6.3
				c-0.3,0-0.6-0.2-0.6-0.5l0,0c0-0.3,0.3-0.5,0.5-0.6h6.4c0.3,0,0.6,0.2,0.6,0.5l0,0c0,0.3-0.2,0.5-0.5,0.5L51.7,52.9z"/>
			<path id="Path-107_00000095305158546344325290000010474335425291627904_" class="st14" d="M57.4,52.9h-3.2
				c-0.3,0-0.6-0.2-0.6-0.5l0,0c0-0.3,0.2-0.6,0.5-0.6h3.3c0.3,0,0.5,0.2,0.5,0.5l0,0c0.1,0.3-0.1,0.5-0.4,0.6H57.4z"/>
			<path id="Path-108_00000103246219373110603760000018262516373656295097_" class="st14" d="M32.6,60.5h-8.5
				c-0.3,0-0.5-0.2-0.5-0.5l0,0c-0.1-0.3,0.2-0.5,0.5-0.5h8.5c0.3,0,0.5,0.2,0.5,0.5l0,0C33.1,60.3,32.9,60.5,32.6,60.5z"/>
			
				<linearGradient id="Path-109_00000021823309069099754810000005952310121534990722_" gradientUnits="userSpaceOnUse" x1="-2176.5027" y1="-444.9835" x2="-2175.7427" y2="-444.9835" gradientTransform="matrix(37.9 0 0 -1.48 82513.625 -590.98)">
				<stop  offset="0" style="stop-color:#AAAAAA"/>
				<stop  offset="1" style="stop-color:#7E7E7E"/>
			</linearGradient>
			
				<path id="Path-109_00000119827262065010377380000005963470754393824136_" style="fill:url(#Path-109_00000021823309069099754810000005952310121534990722_);" d="
				M51.7,68.1H24.2c-0.3,0-0.5-0.2-0.5-0.5l0,0c-0.1-0.3,0.2-0.5,0.5-0.5h27.5c0.3,0,0.6,0.2,0.6,0.5l0,0
				C52.2,67.9,52,68.1,51.7,68.1z"/>
			
				<linearGradient id="Path-110_00000062894207916783669680000008464176286693811891_" gradientUnits="userSpaceOnUse" x1="-2074.0459" y1="-447.4103" x2="-2073.2861" y2="-447.4103" gradientTransform="matrix(12.67 0 0 -1.48 26306.1504 -607.31)">
				<stop  offset="0" style="stop-color:#AAAAAA"/>
				<stop  offset="1" style="stop-color:#7E7E7E"/>
			</linearGradient>
			
				<path id="Path-110_00000045588644566297518710000005020731613583718541_" style="fill:url(#Path-110_00000062894207916783669680000008464176286693811891_);" d="
				M36.4,55.4h-8.5c-0.3,0-0.5-0.2-0.5-0.5l0,0c0-0.3,0.2-0.5,0.5-0.5h8.5c0.3,0,0.5,0.2,0.5,0.5l0,0C36.9,55.2,36.7,55.4,36.4,55.4
				z"/>
			<path id="Path-111_00000075876212748203885800000015073647963847372182_" class="st27" d="M50.3,55.4H38.1
				c-0.3,0-0.5-0.2-0.5-0.5l0,0c0-0.3,0.2-0.5,0.5-0.5h12.1c0.3,0,0.5,0.2,0.5,0.5l0,0C50.8,55.2,50.6,55.4,50.3,55.4z"/>
			<path id="Path-112_00000085250914500370318780000001926624912936262547_" class="st27" d="M58.2,55.4H52c-0.3,0-0.5-0.2-0.5-0.5
				l0,0c0-0.3,0.2-0.5,0.5-0.5h6.2c0.3,0,0.5,0.2,0.5,0.5l0,0C58.7,55.2,58.5,55.4,58.2,55.4z"/>
			
				<linearGradient id="Path-113_00000080901523130372392210000012105777491239047046_" gradientUnits="userSpaceOnUse" x1="-1768.3329" y1="-447.4103" x2="-1767.5942" y2="-447.4103" gradientTransform="matrix(4.22 0 0 -1.48 7525.5903 -607.31)">
				<stop  offset="0" style="stop-color:#AAAAAA"/>
				<stop  offset="1" style="stop-color:#7E7E7E"/>
			</linearGradient>
			
				<path id="Path-113_00000062191555038333272590000017005436454493736100_" style="fill:url(#Path-113_00000080901523130372392210000012105777491239047046_);" d="
				M62,55.4h-2.1c-0.3,0-0.5-0.2-0.5-0.5l0,0c0-0.3,0.2-0.5,0.5-0.5H62c0.3,0,0.5,0.2,0.5,0.5l0,0C62.6,55.2,62.4,55.4,62,55.4z"/>
			<path id="Path-114_00000007406457975393711220000006758415445669928102_" class="st27" d="M38.4,57.9H28c-0.3,0-0.6-0.2-0.6-0.5
				l0,0c0-0.3,0.2-0.5,0.5-0.5h10.5c0.3,0,0.5,0.2,0.5,0.5l0,0C38.9,57.6,38.7,57.9,38.4,57.9z"/>
			
				<linearGradient id="Path-115_00000093895927854568466140000015327424436952297624_" gradientUnits="userSpaceOnUse" x1="-1859.2906" y1="-447.1955" x2="-1858.5414" y2="-447.1955" gradientTransform="matrix(5.28 0 0 -1.48 9855.1201 -604.53)">
				<stop  offset="0" style="stop-color:#AAAAAA"/>
				<stop  offset="1" style="stop-color:#7E7E7E"/>
			</linearGradient>
			
				<path id="Path-115_00000031900503857675285330000003997221802555130792_" style="fill:url(#Path-115_00000093895927854568466140000015327424436952297624_);" d="
				M43.1,57.9h-2.8c-0.3,0-0.6-0.2-0.6-0.5l0,0c0-0.3,0.2-0.5,0.5-0.5h2.9c0.3,0,0.6,0.2,0.6,0.5l0,0c0,0.3-0.2,0.5-0.5,0.5H43.1z"
				/>
			<path id="Path-116_00000067212128642027048600000000472023099090696076_" class="st27" d="M66.8,57.9H45.1
				c-0.3,0-0.5-0.2-0.5-0.5l0,0c0-0.3,0.2-0.5,0.5-0.5h21.5c0.3,0,0.5,0.2,0.5,0.5l0,0C67.2,57.5,67,57.9,66.8,57.9z"/>
			<path id="Path-117_00000136378512380555918150000010722402413234746303_" class="st27" d="M32.6,50.3H20.3
				c-0.3,0-0.5-0.2-0.5-0.5l0,0c0-0.3,0.2-0.5,0.5-0.5h12.3c0.3,0,0.5,0.2,0.5,0.5l0,0C33.1,50,32.9,50.3,32.6,50.3z"/>
			
				<linearGradient id="Path-118_00000053527858834397601450000002827168911974666376_" gradientUnits="userSpaceOnUse" x1="-1886.1741" y1="-448.8575" x2="-1885.4354" y2="-448.8575" gradientTransform="matrix(5.7 0 0 -1.48 10785.8506 -614.59)">
				<stop  offset="0" style="stop-color:#AAAAAA"/>
				<stop  offset="1" style="stop-color:#7E7E7E"/>
			</linearGradient>
			
				<path id="Path-118_00000071520898805264843980000002811997037633904258_" style="fill:url(#Path-118_00000053527858834397601450000002827168911974666376_);" d="
				M37.7,50.3h-3.1c-0.3,0-0.6-0.2-0.6-0.5l0,0c0-0.3,0.2-0.5,0.5-0.5h3.2c0.3,0,0.6,0.2,0.6,0.5l0,0C38.3,50,38.1,50.3,37.7,50.3z"
				/>
			<path id="Path-119_00000141425812803420764200000002404379573232863112_" class="st27" d="M32.6,63H20.3c-0.3,0-0.5-0.2-0.5-0.5
				l0,0c0-0.3,0.2-0.5,0.5-0.5h12.3c0.3,0,0.5,0.2,0.5,0.5l0,0C33.1,62.8,32.9,63,32.6,63z"/>
			<path id="Path-120_00000085228048762658208730000012069677206842373015_" class="st27" d="M42.2,65.6H20.3
				c-0.3,0-0.5-0.2-0.5-0.5l0,0c0-0.3,0.2-0.5,0.5-0.5h21.9c0.3,0,0.6,0.2,0.6,0.5l0,0C42.9,65.3,42.7,65.6,42.2,65.6L42.2,65.6z"/>
			<path id="Path-121_00000097479315518108752240000005969893903341092247_" class="st14" d="M51.8,65.6h-7.7
				c-0.3,0-0.6-0.2-0.6-0.5l0,0c0-0.3,0.2-0.5,0.5-0.5h7.8c0.3,0,0.5,0.2,0.5,0.5l0,0C52.3,65.3,52.1,65.6,51.8,65.6z"/>
			
				<linearGradient id="Path-122_00000005241198082192691500000012648151640901597594_" gradientUnits="userSpaceOnUse" x1="-1887.2443" y1="-445.5314" x2="-1886.495" y2="-445.5314" gradientTransform="matrix(5.7 0 0 -1.48 10810.9805 -594.36)">
				<stop  offset="0" style="stop-color:#AAAAAA"/>
				<stop  offset="1" style="stop-color:#7E7E7E"/>
			</linearGradient>
			
				<path id="Path-122_00000076567344143118814900000014001673972777572744_" style="fill:url(#Path-122_00000005241198082192691500000012648151640901597594_);" d="
				M56.8,65.6h-3.2c-0.3,0-0.5-0.2-0.5-0.5l0,0c0-0.3,0.2-0.5,0.5-0.5h3.2c0.3,0,0.5,0.2,0.5,0.5l0,0C57.3,65.3,57.1,65.6,56.8,65.6
				z"/>
			
				<linearGradient id="Path-123_00000016076369451097654650000012652171548034695310_" gradientUnits="userSpaceOnUse" x1="-2150.5645" y1="453.3334" x2="-2149.8044" y2="453.3334" gradientTransform="matrix(25.42 0 0 -25.43 54733.5 11587.0898)">
				<stop  offset="0" style="stop-color:#AAAAAA"/>
				<stop  offset="1" style="stop-color:#7E7E7E"/>
			</linearGradient>
			
				<path id="Path-123_00000061468678122531118360000012017703323496721820_" style="fill:url(#Path-123_00000016076369451097654650000012652171548034695310_);" d="
				M80.1,60c0,0.5-0.1,1-0.3,1.4c-0.9,3.2-3.4,5.8-6.6,6.7c-1.2,0.3-2.5,0.3-3.7,0.2c-5.2-0.6-9-5.5-8.3-10.7l0,0
				c0.6-5.2,5.2-9,10.5-8.5h0.2C77,49.9,80.7,54.7,80.1,60L80.1,60z"/>
		</g>
		
			<linearGradient id="Path_00000146493772723178838140000002559079068847865476_" gradientUnits="userSpaceOnUse" x1="-2107.6741" y1="336.6972" x2="-2107.8989" y2="337.1361" gradientTransform="matrix(17.11 0 0 -8.66 36137.1289 2978.6299)">
			<stop  offset="1.000000e-02" style="stop-color:#D2D2D2"/>
			<stop  offset="1" style="stop-color:#FFFFFF"/>
		</linearGradient>
		
			<path id="Path_00000129190911861240992190000006260091083657244808_" style="fill:url(#Path_00000146493772723178838140000002559079068847865476_);" d="
			M75.9,56.6c0-0.2-0.1-0.3-0.3-0.3h-3c-0.1,0-0.2,0.1-0.3,0.3v0.6c0.1,0.1,0.2,0.3,0.3,0.3h1.1l-2.4,2.4L69,57.6
			c-0.2-0.2-0.6-0.2-0.9,0l0,0l-2.8,2.8c-0.1,0.1-0.1,0.3,0,0.4l0.4,0.5c0.1,0.1,0.4,0.1,0.5,0l2.2-2.2l2.2,2.4c0.3,0.2,0.6,0.2,1,0
			l0,0l2.8-2.9v1.1c0.1,0.1,0.2,0.2,0.3,0.3h0.6c0.2,0,0.3-0.1,0.3-0.3L75.9,56.6z"/>
	</g>
</g>
</svg>
