<?xml version="1.0" encoding="utf-8"?>
<!-- Generator: Adobe Illustrator 25.4.1, SVG Export Plug-In . SVG Version: 6.00 Build 0)  -->
<svg version="1.1" id="Layer_1" xmlns="http://www.w3.org/2000/svg" xmlns:xlink="http://www.w3.org/1999/xlink" x="0px" y="0px"
	 viewBox="0 0 87 79.3" style="enable-background:new 0 0 87 79.3;" xml:space="preserve">
<style type="text/css">
	.st0{fill:#141416;}
	.st1{fill:url(#Path-5_00000175295120437405454810000012550001454908353973_);}
	.st2{fill:url(#Path-7_00000080893668787887686690000015440105187789660318_);}
	.st3{fill:#2A2E38;}
	.st4{fill:#383F52;}
	.st5{fill:url(#Path-13_00000104673310990576454290000009807987028164504490_);}
	.st6{fill:#FFFFFF;}
	.st7{fill:#242B37;}
	.st8{fill:#474E61;}
	.st9{fill:url(#Path-69_00000091008474624778103920000017557717098395433388_);}
	.st10{fill:url(#Path-93_00000085222556669782638320000001004833587780416939_);}
	.st11{fill:url(#Path-94_00000152245451091703175470000005276993376564367016_);}
	.st12{fill:url(#Path-95_00000047767228895331303540000009703785566186287788_);}
	.st13{fill:url(#Path-99_00000023264767948260853670000017732062758180215724_);}
	.st14{fill:url(#Path-101_00000167378047021815217830000015253673920592132481_);}
	.st15{fill:url(#Path-109_00000045617624301848389760000013732252256435571359_);}
	.st16{fill:url(#Path-110_00000129916819232516770820000000861896889340725913_);}
	.st17{fill:url(#Path-113_00000045608734363758382730000002622822235562733700_);}
	.st18{fill:url(#Path-115_00000116954840538357965540000013937741748785017271_);}
	.st19{fill:url(#Path-118_00000103265663094935422720000010966479278171237039_);}
	.st20{fill:url(#Path-122_00000108276819553137032000000015709087675533269122_);}
	.st21{fill:url(#Path-123_00000029013591514570498190000016762554499489959322_);}
	.st22{fill:url(#Path_00000093891326885853416630000017770830438410041515_);}
</style>
<g id="_27">
	<path id="Path-3" class="st0" d="M3.7,16c1-0.3,1.5-1.3,1.2-2.2c0,0,0,0,0-0.1c-0.2-0.9-1.1-1.5-2-1.3c-0.1,0-0.2,0-0.3,0.1
		c-1,0.3-1.5,1.3-1.2,2.2c0,0,0,0,0,0.1l0,0C1.7,15.8,2.7,16.3,3.7,16C3.7,16,3.7,16,3.7,16z"/>
	<path id="Path-4" class="st0" d="M7.8,9.9c0.6-0.2,1-0.8,0.8-1.5c0,0,0-0.1,0-0.1c-0.2-0.6-0.8-1-1.5-0.8c0,0-0.1,0-0.1,0
		C6.4,7.7,6,8.4,6.2,9.1l0,0c0.2,0.6,0.8,1,1.5,0.8C7.7,9.9,7.8,9.9,7.8,9.9z"/>
	
		<linearGradient id="Path-5_00000121990496248303325750000005240416395641261705_" gradientUnits="userSpaceOnUse" x1="-684.7821" y1="343.5538" x2="-684.0872" y2="343.7783" gradientTransform="matrix(2.33 0 0 2.33 1603.35 -722.97)">
		<stop  offset="0" style="stop-color:#64C4DE"/>
		<stop  offset="1" style="stop-color:#5A78FF"/>
	</linearGradient>
	<path id="Path-5" style="fill:url(#Path-5_00000121990496248303325750000005240416395641261705_);" d="M8.6,78.7
		c0.5,0,0.8-0.4,0.9-0.9c0.1-0.5-0.3-0.9-0.7-1c0,0-0.1,0-0.1,0c-0.5,0-0.9,0.4-0.9,0.9l0,0c-0.1,0.5,0.3,0.9,0.7,1
		C8.5,78.7,8.6,78.7,8.6,78.7z"/>
	
		<linearGradient id="Path-7_00000124146793146223454600000012041801804970229434_" gradientUnits="userSpaceOnUse" x1="-801.0222" y1="224.7395" x2="-800.3422" y2="224.7395" gradientTransform="matrix(3.6 0 0 3.6 2947.5498 -806.0099)">
		<stop  offset="0" style="stop-color:#64C4DE"/>
		<stop  offset="1" style="stop-color:#5A78FF"/>
	</linearGradient>
	<path id="Path-7" style="fill:url(#Path-7_00000124146793146223454600000012041801804970229434_);" d="M65.1,4.3
		c0.7,0,1.2-0.5,1.2-1.2c0.1-0.7-0.4-1.2-1.1-1.3c0,0-0.1,0-0.1,0c-0.7,0-1.3,0.6-1.3,1.3l0,0c0,0.7,0.5,1.2,1.2,1.2
		C65,4.3,65.1,4.3,65.1,4.3z"/>
	<path id="Path-8" class="st0" d="M83.5,22.3c1.2-0.9,1.3-2.6,0.4-3.8c-0.1-0.1-0.1-0.1-0.2-0.2c-1-1.2-2.8-1.3-4-0.2c0,0,0,0,0,0
		c-1.1,1.1-1.2,2.8-0.2,4C80.5,23.3,82.3,23.4,83.5,22.3C83.5,22.3,83.5,22.3,83.5,22.3z"/>
	<path id="Path-9" class="st0" d="M83.8,9.6c0.5-0.5,0.5-1.2,0-1.7c0,0,0,0,0,0c-0.4-0.5-1.2-0.5-1.7-0.1c0,0,0,0,0,0
		c-0.4,0.5-0.4,1.2,0,1.7C82.6,9.9,83.3,10,83.8,9.6z"/>
	<path id="Path-10" class="st3" d="M41,77.5C61.6,77.6,78.4,61,78.5,40.4S62,3,41.4,2.9S4,19.4,3.9,40c0,0,0,0.1,0,0.1l0,0
		C3.8,60.7,20.4,77.4,41,77.5z"/>
	<path id="Path-11" class="st4" d="M82.3,11v45.6c0.1,0.9-0.7,1.8-1.6,1.8c0,0-0.1,0-0.1,0H17.9c-1,0-1.8-0.8-1.8-1.8l0,0V11
		c0-1,0.8-1.8,1.8-1.8h62.5C81.5,9.2,82.3,10,82.3,11z"/>
	<path id="Path-12" class="st0" d="M21.1,12.6v45.9h-3.2c-1-0.1-1.8-0.8-1.8-1.8v-44H21.1z"/>
	
		<linearGradient id="Path-13_00000060734617588382465220000004071731968637913732_" gradientUnits="userSpaceOnUse" x1="-987.5871" y1="147.8624" x2="-986.8388" y2="147.8624" gradientTransform="matrix(87.53 0 0 5.3 86457.2188 -772.44)">
		<stop  offset="0" style="stop-color:#64C4DE"/>
		<stop  offset="1" style="stop-color:#6E88FF;stop-opacity:0"/>
	</linearGradient>
	<path id="Path-13" style="fill:url(#Path-13_00000060734617588382465220000004071731968637913732_);" d="M82.3,11v2.2H16.1V11
		c0.1-1,0.8-1.8,1.8-1.8h62.5C81.5,9.2,82.3,10,82.3,11z"/>
	<path id="Path-14" class="st6" d="M18.1,12c0.3-0.1,0.5-0.3,0.5-0.6c0-0.3-0.2-0.5-0.5-0.5c-0.3,0-0.5,0.2-0.5,0.5l0,0
		C17.6,11.7,17.8,11.9,18.1,12z"/>
	<path id="Path-15" class="st6" d="M19.7,12c0.3-0.1,0.5-0.3,0.5-0.6c0-0.3-0.2-0.5-0.5-0.5c-0.3,0-0.5,0.2-0.5,0.5l0,0
		c-0.1,0.3,0.1,0.6,0.4,0.6C19.7,12,19.7,12,19.7,12z"/>
	<path id="Path-16" class="st6" d="M21.3,12c0.3-0.1,0.5-0.3,0.5-0.6c0-0.3-0.2-0.5-0.5-0.5c-0.3,0-0.6,0.2-0.6,0.5l0,0
		C20.7,11.7,21,12,21.3,12L21.3,12z"/>
	<path id="Path-17" class="st7" d="M35.6,17.3H23.3c-0.3,0-0.5-0.2-0.5-0.5l0,0c0-0.3,0.2-0.6,0.5-0.6h12.3c0.3,0,0.5,0.3,0.6,0.5
		l0,0C36.1,17,35.9,17.3,35.6,17.3z"/>
	<path id="Path-18" class="st7" d="M18.7,17.3h-0.4c-0.3,0-0.6-0.2-0.6-0.5l0,0c0-0.3,0.2-0.6,0.5-0.6h0.5c0.3,0,0.5,0.2,0.5,0.5
		l0,0c0,0.3-0.2,0.5-0.5,0.5V17.3z"/>
	<path id="Path-19" class="st7" d="M18.7,19.9h-0.4c-0.3,0-0.6-0.2-0.6-0.5l0,0c0-0.3,0.2-0.6,0.5-0.6h0.5c0.3,0,0.5,0.2,0.5,0.5
		l0,0c0,0.3-0.2,0.5-0.5,0.5V19.9z"/>
	<path id="Path-20" class="st7" d="M18.7,22.5h-0.4c-0.3,0-0.6-0.2-0.6-0.5l0,0c0-0.3,0.2-0.6,0.5-0.6h0.5c0.3,0,0.5,0.2,0.5,0.5
		l0,0c0,0.3-0.2,0.5-0.5,0.5V22.5z"/>
	<path id="Path-21" class="st7" d="M18.7,25h-0.4c-0.3,0-0.6-0.2-0.6-0.5l0,0c0-0.3,0.2-0.6,0.5-0.6h0.5c0.3,0,0.5,0.2,0.5,0.5l0,0
		c0,0.3-0.2,0.5-0.5,0.5V25z"/>
	<path id="Path-22" class="st7" d="M18.7,27.6h-0.4c-0.3,0-0.6-0.2-0.6-0.5l0,0c0-0.3,0.2-0.5,0.5-0.5h0.5c0.3,0,0.5,0.2,0.5,0.5
		l0,0c0,0.3-0.2,0.6-0.5,0.6V27.6z"/>
	<path id="Path-23" class="st7" d="M18.7,30h-0.4c-0.3,0-0.6-0.2-0.6-0.5l0,0c0-0.3,0.2-0.6,0.5-0.6h0.5c0.3,0,0.5,0.2,0.5,0.5l0,0
		c0.1,0.2-0.1,0.5-0.4,0.5L18.7,30z"/>
	<path id="Path-24" class="st7" d="M18.7,32.6h-0.4c-0.3,0-0.6-0.2-0.6-0.5l0,0c0-0.3,0.2-0.6,0.5-0.6h0.5c0.3,0,0.5,0.2,0.5,0.5
		l0,0c0,0.3-0.2,0.5-0.5,0.5V32.6z"/>
	<path id="Path-25" class="st7" d="M18.7,35.2h-0.4c-0.3,0-0.6-0.2-0.6-0.5l0,0c0-0.3,0.2-0.6,0.5-0.6h0.5c0.3,0,0.5,0.2,0.5,0.5
		l0,0c0,0.3-0.2,0.5-0.5,0.5V35.2z"/>
	<path id="Path-26" class="st7" d="M18.7,37.7h-0.4c-0.3,0-0.6-0.2-0.6-0.5l0,0c0-0.3,0.2-0.6,0.5-0.6h0.5c0.3,0,0.5,0.2,0.5,0.5
		l0,0c0,0.3-0.2,0.5-0.5,0.5V37.7z"/>
	<path id="Path-27" class="st7" d="M18.7,40.3h-0.4c-0.3,0-0.6-0.2-0.6-0.5l0,0c0-0.3,0.2-0.6,0.5-0.6h0.5c0.3,0,0.5,0.2,0.5,0.5
		l0,0c0,0.3-0.2,0.5-0.5,0.5V40.3z"/>
	<path id="Path-28" class="st7" d="M18.7,42.9h-0.4c-0.3,0-0.6-0.2-0.6-0.5l0,0c0-0.3,0.2-0.6,0.5-0.6h0.5c0.3,0,0.5,0.2,0.5,0.5
		l0,0c0,0.3-0.2,0.5-0.5,0.5V42.9z"/>
	<path id="Path-29" class="st7" d="M18.7,45.4h-0.4c-0.3,0-0.6-0.2-0.6-0.5l0,0c0-0.3,0.2-0.6,0.5-0.6h0.5c0.3,0,0.5,0.2,0.5,0.5
		l0,0c0,0.3-0.2,0.5-0.5,0.5V45.4z"/>
	<path id="Path-30" class="st7" d="M18.7,48h-0.4c-0.3,0-0.6-0.2-0.6-0.5l0,0c0-0.3,0.2-0.6,0.5-0.6h0.5c0.3,0,0.5,0.2,0.5,0.5l0,0
		c0,0.3-0.2,0.5-0.5,0.5V48z"/>
	<path id="Path-31" class="st7" d="M18.7,50.6h-0.4c-0.3,0-0.6-0.2-0.6-0.5l0,0c0-0.3,0.2-0.5,0.5-0.5h0.5c0.3,0,0.5,0.2,0.5,0.5
		l0,0c0,0.3-0.2,0.6-0.5,0.6V50.6z"/>
	<path id="Path-32" class="st7" d="M18.7,53.1h-0.4c-0.3,0-0.6-0.2-0.6-0.5l0,0c0-0.3,0.2-0.5,0.5-0.5h0.5c0.3,0,0.5,0.2,0.5,0.5
		l0,0c0,0.3-0.2,0.6-0.5,0.6V53.1z"/>
	<path id="Path-33" class="st7" d="M18.7,55.6h-0.4c-0.3,0-0.6-0.2-0.6-0.5l0,0c0-0.3,0.2-0.6,0.5-0.6h0.5c0.3,0,0.5,0.2,0.5,0.5
		l0,0c0,0.3-0.2,0.5-0.5,0.5V55.6z"/>
	<path id="Path-34" class="st7" d="M33,19.9h-9.7c-0.3,0-0.5-0.2-0.5-0.5l0,0c0-0.3,0.2-0.6,0.5-0.6H33c0.3,0,0.6,0.2,0.6,0.5l0,0
		C33.6,19.6,33.3,19.9,33,19.9L33,19.9z"/>
	<path id="Path-35" class="st7" d="M59.2,19.9H34.9c-0.3,0-0.5-0.2-0.5-0.5l0,0c0-0.3,0.2-0.6,0.5-0.6h24.3c0.3,0,0.5,0.2,0.5,0.5
		l0,0c0.1,0.3-0.1,0.6-0.4,0.6C59.3,19.9,59.2,19.9,59.2,19.9z"/>
	<path id="Path-36" class="st7" d="M69.7,19.9h-7.1c-0.3,0-0.5-0.2-0.5-0.5l0,0c0-0.3,0.2-0.6,0.5-0.6h7.1c0.3,0,0.5,0.2,0.5,0.5
		l0,0C70.2,19.6,70,19.8,69.7,19.9z"/>
	<path id="Path-37" class="st7" d="M75.4,19.9H73c-0.3,0-0.5-0.2-0.5-0.5l0,0c0-0.3,0.2-0.6,0.5-0.6h2.5c0.3,0,0.5,0.2,0.5,0.5l0,0
		c0,0.3-0.2,0.5-0.5,0.5V19.9z"/>
	<path id="Path-38" class="st7" d="M39.3,22.3H27c-0.3,0-0.6-0.2-0.6-0.5l0,0c0-0.3,0.2-0.5,0.5-0.5h12.4c0.2-0.1,0.5,0.2,0.5,0.5
		l0,0C39.8,22.1,39.6,22.3,39.3,22.3z"/>
	<path id="Path-39" class="st7" d="M39.3,32.5H27c-0.3,0-0.6-0.2-0.6-0.5l0,0c0-0.3,0.2-0.5,0.5-0.5h12.4c0.3,0,0.5,0.2,0.5,0.5l0,0
		C39.8,32.3,39.6,32.5,39.3,32.5z"/>
	<path id="Path-40" class="st7" d="M36,35.1h-9c-0.3,0-0.6-0.2-0.6-0.5l0,0c0-0.3,0.2-0.5,0.5-0.5H36c0.3,0,0.5,0.2,0.5,0.5l0,0
		C36.5,34.8,36.3,35.1,36,35.1z"/>
	<path id="Path-41" class="st7" d="M59.8,35.1H38.6c-0.3,0-0.5-0.2-0.5-0.5l0,0c0-0.3,0.2-0.5,0.5-0.5h21.3c0.3,0,0.6,0.2,0.6,0.5
		l0,0c0,0.3-0.2,0.5-0.5,0.5H59.8z"/>
	<path id="Path-42" class="st7" d="M42.7,24.9H31.3c-0.3,0-0.5-0.2-0.5-0.5l0,0c0-0.3,0.2-0.5,0.5-0.5h11.4c0.3-0.1,0.6,0.1,0.6,0.4
		c0,0,0,0.1,0,0.1l0,0C43.3,24.7,43,24.9,42.7,24.9z"/>
	<path id="Path-43" class="st7" d="M49.1,24.9h-4.7c-0.3,0-0.5-0.2-0.5-0.5l0,0c0-0.3,0.2-0.5,0.5-0.5h4.7c0.3-0.1,0.5,0.2,0.5,0.5
		l0,0C49.8,24.7,49.5,24.9,49.1,24.9z"/>
	<path id="Path-44" class="st7" d="M62.9,27.5H31.3c-0.3,0-0.5-0.2-0.5-0.5l0,0c0-0.3,0.2-0.6,0.5-0.6h31.6c0.3,0,0.6,0.2,0.6,0.5
		l0,0C63.6,27.2,63.3,27.5,62.9,27.5z"/>
	<path id="Path-45" class="st7" d="M68.6,27.5h-3c-0.3,0-0.5-0.2-0.5-0.5l0,0c0-0.3,0.2-0.6,0.5-0.6h3c0.3,0,0.5,0.2,0.5,0.5l0,0
		c0,0.3-0.2,0.5-0.5,0.5V27.5z"/>
	<path id="Path-46" class="st7" d="M79.9,27.5h-9.1c-0.3,0-0.6-0.2-0.6-0.5l0,0c0-0.3,0.3-0.5,0.5-0.6h9.2c0.3,0,0.5,0.2,0.5,0.5
		l0,0c0.1,0.3-0.1,0.6-0.4,0.6C80,27.5,80,27.5,79.9,27.5z"/>
	<path id="Path-47" class="st7" d="M53.1,30H31.3c-0.3,0-0.5-0.2-0.5-0.5l0,0c0-0.3,0.2-0.6,0.5-0.6h21.8c0.3,0,0.5,0.2,0.5,0.5l0,0
		c0.1,0.3-0.1,0.6-0.4,0.6C53.2,30,53.1,30,53.1,30z"/>
	<path id="Path-48" class="st7" d="M43.5,40.2H35c-0.3,0-0.5-0.2-0.5-0.5l0,0c0-0.3,0.2-0.5,0.5-0.5h8.4c0.3,0,0.5,0.2,0.5,0.5l0,0
		C44.1,40,43.8,40.2,43.5,40.2z"/>
	<path id="Path-49" class="st7" d="M54.5,40.2h-9.1c-0.3,0-0.5-0.2-0.5-0.5l0,0c0-0.3,0.2-0.5,0.5-0.5h9.1c0.3,0,0.5,0.2,0.5,0.5
		l0,0C55,40,54.8,40.2,54.5,40.2z"/>
	<path id="Path-50" class="st7" d="M62.6,40.2h-6.3c-0.3,0-0.6-0.2-0.6-0.5l0,0c0-0.3,0.2-0.5,0.5-0.5h6.4c0.3,0,0.6,0.2,0.6,0.5
		l0,0C63.2,40,62.9,40.2,62.6,40.2z"/>
	<path id="Path-51" class="st7" d="M68.3,40.2h-3.2c-0.3,0-0.5-0.2-0.5-0.5l0,0c0-0.3,0.2-0.5,0.5-0.5h3.2c0.3,0,0.6,0.2,0.6,0.5
		l0,0c0,0.3-0.2,0.5-0.5,0.5H68.3z"/>
	<path id="Path-52" class="st7" d="M43.5,47.8H35c-0.3,0-0.5-0.2-0.5-0.5l0,0c0-0.3,0.2-0.5,0.5-0.5h8.4c0.3,0,0.5,0.2,0.5,0.5l0,0
		C44.1,47.6,43.8,47.8,43.5,47.8z"/>
	<path id="Path-53" class="st7" d="M62.6,55.5H35c-0.3,0-0.5-0.2-0.5-0.5l0,0c0-0.3,0.2-0.5,0.5-0.5h27.6c0.3,0,0.5,0.2,0.5,0.5l0,0
		C63.1,55.2,62.9,55.5,62.6,55.5z"/>
	<path id="Path-54" class="st7" d="M47.3,42.7h-8.6c-0.3,0-0.5-0.2-0.5-0.5l0,0c0-0.3,0.2-0.5,0.5-0.5h8.6c0.3,0,0.5,0.2,0.5,0.5
		l0,0C47.9,42.4,47.6,42.7,47.3,42.7z"/>
	<path id="Path-55" class="st7" d="M61.1,42.7H49c-0.3,0-0.5-0.2-0.5-0.5l0,0c0-0.3,0.2-0.5,0.5-0.5h12.1c0.3,0,0.5,0.2,0.5,0.5l0,0
		C61.6,42.4,61.4,42.7,61.1,42.7z"/>
	<path id="Path-56" class="st7" d="M69,42.7h-6.1c-0.3,0-0.6-0.2-0.6-0.5l0,0c0-0.3,0.2-0.5,0.5-0.5H69c0.3,0,0.5,0.2,0.5,0.5l0,0
		C69.6,42.4,69.3,42.7,69,42.7z"/>
	<path id="Path-57" class="st7" d="M72.9,42.7h-2c-0.3,0-0.6-0.2-0.6-0.5l0,0c0-0.3,0.2-0.5,0.5-0.5h2.1c0.3,0,0.5,0.2,0.5,0.5l0,0
		C73.4,42.4,73.2,42.7,72.9,42.7z"/>
	<path id="Path-58" class="st7" d="M49.2,45.2H38.9c-0.3,0-0.5-0.2-0.5-0.5l0,0c0-0.3,0.2-0.5,0.5-0.5h10.4c0.3,0,0.5,0.2,0.5,0.5
		l0,0C49.8,45,49.5,45.2,49.2,45.2z"/>
	<path id="Path-59" class="st7" d="M54.2,45.2h-2.9c-0.3,0-0.6-0.2-0.6-0.5l0,0c0-0.3,0.2-0.5,0.5-0.5h3c0.3,0,0.5,0.2,0.5,0.5l0,0
		C54.7,45,54.5,45.2,54.2,45.2z"/>
	<path id="Path-60" class="st7" d="M77.6,45.2H56.1c-0.3,0-0.5-0.2-0.5-0.5l0,0c0-0.3,0.2-0.5,0.5-0.5h21.5c0.3,0,0.5,0.2,0.5,0.5
		l0,0C78.1,45,77.9,45.2,77.6,45.2z"/>
	<path id="Path-61" class="st7" d="M43.5,37.6H31.3c-0.3,0-0.5-0.2-0.5-0.5l0,0c0-0.3,0.2-0.5,0.5-0.5h12.3c0.3,0,0.5,0.2,0.5,0.5
		l0,0C44.1,37.4,43.8,37.6,43.5,37.6z"/>
	<path id="Path-62" class="st7" d="M48.7,37.6h-3.2c-0.3,0-0.5-0.2-0.5-0.5l0,0c0-0.3,0.2-0.5,0.5-0.5h3.2c0.3,0,0.5,0.2,0.5,0.5
		l0,0C49.2,37.4,49,37.6,48.7,37.6z"/>
	<path id="Path-63" class="st7" d="M43.5,50.4H31.3c-0.3,0-0.5-0.2-0.5-0.5l0,0c0-0.3,0.2-0.5,0.5-0.5h12.3c0.3,0,0.5,0.2,0.5,0.5
		l0,0C44.1,50.1,43.8,50.4,43.5,50.4z"/>
	<path id="Path-64" class="st7" d="M53.2,52.8H31.3c-0.3,0.1-0.5-0.2-0.5-0.5l0,0c0-0.3,0.2-0.5,0.5-0.5h21.9c0.3,0,0.6,0.2,0.6,0.5
		l0,0C53.8,52.6,53.5,52.8,53.2,52.8z"/>
	<path id="Path-65" class="st7" d="M62.6,52.8h-7.7c-0.3,0.1-0.5-0.2-0.5-0.5l0,0c0-0.3,0.2-0.5,0.5-0.5h7.7c0.3,0,0.6,0.2,0.6,0.5
		l0,0c0,0.3-0.2,0.5-0.5,0.5H62.6z"/>
	<path id="Path-66" class="st7" d="M67.6,52.8h-3.1c-0.3,0.1-0.6-0.1-0.6-0.4c0,0,0-0.1,0-0.1l0,0c0-0.3,0.2-0.5,0.5-0.5h3.2
		c0.3,0,0.6,0.2,0.6,0.5l0,0c0,0.3-0.2,0.5-0.5,0.5H67.6z"/>
	<path id="Path-67" class="st8" d="M71.3,24.2v45.6c0,1-0.7,1.8-1.7,1.8H6.9c-1-0.1-1.7-0.9-1.7-1.8V24.2c-0.1-0.9,0.7-1.8,1.6-1.8
		c0,0,0.1,0,0.1,0h62.6c0.9,0,1.7,0.7,1.7,1.6V24.2z"/>
	<path id="Path-68" class="st0" d="M10.2,25.7v46H6.9c-1-0.1-1.7-0.9-1.7-1.8V25.7H10.2z"/>
	
		<linearGradient id="Path-69_00000029743527213293039420000018323841395479381418_" gradientUnits="userSpaceOnUse" x1="-987.5354" y1="147.6407" x2="-986.7765" y2="147.6407" gradientTransform="matrix(87.42 0 0 5.3 86336.6562 -758.1702)">
		<stop  offset="0" style="stop-color:#64C4DE"/>
		<stop  offset="1" style="stop-color:#6E88FF;stop-opacity:0"/>
	</linearGradient>
	<path id="Path-69" style="fill:url(#Path-69_00000029743527213293039420000018323841395479381418_);" d="M71.3,24.2v2.1H5.2v-2.1
		c-0.1-0.9,0.7-1.8,1.6-1.8c0,0,0.1,0,0.1,0h62.6c0.9,0,1.7,0.7,1.7,1.6V24.2z"/>
	<path id="Path-70" class="st6" d="M7.2,25c0.3-0.1,0.5-0.5,0.3-0.8c-0.1-0.1-0.2-0.3-0.3-0.3c-0.3,0-0.6,0.2-0.6,0.5l0,0
		c0.1,0.3,0.3,0.5,0.6,0.5V25z"/>
	<path id="Path-71" class="st6" d="M8.7,25c0.3,0.1,0.7,0,0.8-0.3c0.1-0.3,0-0.7-0.3-0.8c-0.2-0.1-0.3-0.1-0.5,0
		c-0.3,0-0.5,0.3-0.5,0.5l0,0c0,0.3,0.3,0.5,0.5,0.5V25z"/>
	<path id="Path-72" class="st6" d="M10.3,25c0.3,0.1,0.7,0,0.8-0.3c0.1-0.3,0-0.7-0.3-0.8c-0.2-0.1-0.3-0.1-0.5,0
		c-0.3,0-0.5,0.3-0.5,0.5l0,0c0,0.3,0.2,0.5,0.5,0.5V25z"/>
	<path id="Path-73" class="st7" d="M24.7,30.4H12.4c-0.3,0-0.5-0.2-0.5-0.5l0,0c0-0.3,0.2-0.6,0.5-0.6h12.3c0.3,0,0.5,0.2,0.5,0.5
		l0,0c0.1,0.3-0.1,0.6-0.4,0.6C24.7,30.4,24.7,30.4,24.7,30.4z"/>
	<path id="Path-74" class="st7" d="M7.8,30.4H7.2c-0.3,0-0.5-0.2-0.5-0.5l0,0c0-0.3,0.2-0.5,0.5-0.5h0.5c0.3,0,0.5,0.2,0.5,0.5l0,0
		l0,0C8.3,30.1,8.1,30.4,7.8,30.4L7.8,30.4z"/>
	<path id="Path-75" class="st7" d="M7.8,32.9H7.2c-0.3,0-0.5-0.2-0.5-0.5l0,0c0-0.3,0.2-0.6,0.5-0.6h0.5c0.3,0,0.5,0.2,0.5,0.5l0,0
		l0,0c0,0.3-0.2,0.5-0.5,0.5L7.8,32.9z"/>
	<path id="Path-76" class="st7" d="M7.8,35.5H7.2c-0.3,0-0.5-0.2-0.5-0.5l0,0c0-0.3,0.2-0.6,0.5-0.6h0.5c0.3,0,0.5,0.2,0.5,0.5l0,0
		l0,0c0,0.3-0.2,0.5-0.5,0.5L7.8,35.5z"/>
	<path id="Path-77" class="st7" d="M7.8,38.1H7.2c-0.3,0-0.5-0.2-0.5-0.5l0,0c0-0.3,0.2-0.6,0.5-0.6h0.5c0.3,0,0.5,0.2,0.5,0.5l0,0
		l0,0c0,0.3-0.2,0.5-0.5,0.5L7.8,38.1z"/>
	<path id="Path-78" class="st7" d="M7.8,40.6H7.2c-0.3,0-0.5-0.2-0.5-0.5l0,0c0-0.3,0.2-0.6,0.5-0.6h0.5c0.3,0,0.5,0.2,0.5,0.5l0,0
		l0,0c0,0.3-0.2,0.5-0.5,0.5L7.8,40.6z"/>
	<path id="Path-79" class="st7" d="M7.8,43.2H7.2c-0.3,0-0.5-0.2-0.5-0.5l0,0c0-0.3,0.2-0.5,0.5-0.5h0.5c0.3,0,0.5,0.2,0.5,0.5l0,0
		l0,0C8.3,43,8.1,43.2,7.8,43.2L7.8,43.2z"/>
	<path id="Path-80" class="st7" d="M7.8,45.8H7.2c-0.3,0-0.5-0.2-0.5-0.5l0,0c0-0.3,0.2-0.6,0.5-0.6h0.5c0.3,0,0.5,0.2,0.5,0.5l0,0
		l0,0c0,0.3-0.2,0.5-0.5,0.5L7.8,45.8z"/>
	<path id="Path-81" class="st7" d="M7.8,48.3H7.2c-0.3,0-0.5-0.2-0.5-0.5l0,0c0-0.3,0.2-0.6,0.5-0.6h0.5c0.3,0,0.5,0.2,0.5,0.5l0,0
		l0,0c0,0.3-0.2,0.5-0.5,0.5L7.8,48.3z"/>
	<path id="Path-82" class="st7" d="M7.8,50.9H7.2c-0.3,0-0.5-0.2-0.5-0.5l0,0c0-0.3,0.2-0.5,0.5-0.5h0.5c0.3,0,0.5,0.2,0.5,0.5l0,0
		l0,0c0,0.3-0.2,0.6-0.5,0.6L7.8,50.9z"/>
	<path id="Path-83" class="st7" d="M7.8,53.3H7.2c-0.3,0-0.5-0.2-0.5-0.5l0,0c0-0.3,0.2-0.6,0.5-0.6h0.5c0.3,0,0.5,0.2,0.5,0.5l0,0
		l0,0c0,0.3-0.2,0.5-0.5,0.5L7.8,53.3z"/>
	<path id="Path-84" class="st7" d="M7.8,55.9H7.2c-0.3,0-0.5-0.2-0.5-0.5l0,0c0-0.3,0.2-0.6,0.5-0.6h0.5c0.3,0,0.5,0.2,0.5,0.5l0,0
		l0,0c0,0.3-0.2,0.5-0.5,0.5L7.8,55.9z"/>
	<path id="Path-85" class="st7" d="M7.8,58.5H7.2c-0.3,0-0.5-0.2-0.5-0.5l0,0c0-0.3,0.2-0.6,0.5-0.6h0.5c0.3,0,0.5,0.2,0.5,0.5l0,0
		l0,0c0,0.3-0.2,0.5-0.5,0.5L7.8,58.5z"/>
	<path id="Path-86" class="st7" d="M7.8,61H7.2c-0.3,0-0.5-0.2-0.5-0.5l0,0c0-0.3,0.2-0.6,0.5-0.6h0.5c0.3,0,0.5,0.2,0.5,0.5l0,0
		l0,0c0,0.3-0.2,0.5-0.5,0.5L7.8,61z"/>
	<path id="Path-87" class="st7" d="M7.8,63.6H7.2c-0.3,0-0.5-0.2-0.5-0.5l0,0c0-0.3,0.2-0.6,0.5-0.6h0.5c0.3,0,0.5,0.2,0.5,0.5l0,0
		l0,0c0,0.3-0.2,0.5-0.5,0.5L7.8,63.6z"/>
	<path id="Path-88" class="st7" d="M7.8,66.2H7.2c-0.3,0-0.5-0.2-0.5-0.5l0,0c0-0.3,0.2-0.6,0.5-0.6h0.5c0.3,0,0.5,0.2,0.5,0.5l0,0
		l0,0c0,0.3-0.2,0.5-0.5,0.5L7.8,66.2z"/>
	<path id="Path-89" class="st7" d="M7.8,68.7H7.2c-0.3,0-0.5-0.2-0.5-0.5l0,0c0-0.3,0.2-0.6,0.5-0.6h0.5c0.3,0,0.5,0.2,0.5,0.5l0,0
		l0,0c0,0.3-0.2,0.5-0.5,0.5L7.8,68.7z"/>
	<path id="Path-90" class="st7" d="M22.1,32.9h-9.7c-0.3,0-0.5-0.2-0.5-0.5l0,0c0-0.3,0.2-0.6,0.5-0.6h9.7c0.3,0,0.5,0.2,0.5,0.5
		l0,0C22.6,32.6,22.4,32.8,22.1,32.9z"/>
	<path id="Path-91" class="st7" d="M48.2,32.9H24c-0.3,0-0.5-0.2-0.5-0.5l0,0c0-0.3,0.2-0.6,0.5-0.6h24.2c0.3,0,0.5,0.3,0.6,0.5l0,0
		c0,0.3-0.3,0.5-0.5,0.5L48.2,32.9z"/>
	<path id="Path-92" class="st6" d="M58.6,32.9h-7.1c-0.3,0-0.5-0.2-0.5-0.5l0,0c0-0.3,0.2-0.6,0.5-0.6h7.1c0.3,0,0.5,0.2,0.5,0.5
		l0,0c0,0.3-0.2,0.5-0.5,0.5L58.6,32.9z"/>
	
		<linearGradient id="Path-93_00000092430065864107978220000009704164111642852783_" gradientUnits="userSpaceOnUse" x1="-843.6909" y1="556.5695" x2="-842.9641" y2="556.5695" gradientTransform="matrix(4.65 0 0 1.48 3982.6001 -791.38)">
		<stop  offset="0" style="stop-color:#64C4DE"/>
		<stop  offset="1" style="stop-color:#5A78FF"/>
	</linearGradient>
	<path id="Path-93" style="fill:url(#Path-93_00000092430065864107978220000009704164111642852783_);" d="M64.5,32.9h-2.5
		c-0.3,0-0.5-0.2-0.5-0.5l0,0c0-0.3,0.2-0.6,0.5-0.6h2.5c0.3,0,0.5,0.3,0.5,0.5l0,0c0,0.3-0.2,0.5-0.5,0.5V32.9z"/>
	
		<linearGradient id="Path-94_00000078019120847849423890000005901045812970469536_" gradientUnits="userSpaceOnUse" x1="-955.1239" y1="556.4042" x2="-954.3756" y2="556.4042" gradientTransform="matrix(17.74 0 0 1.48 16959.1895 -788.57)">
		<stop  offset="0" style="stop-color:#64C4DE"/>
		<stop  offset="1" style="stop-color:#5A78FF"/>
	</linearGradient>
	<path id="Path-94" style="fill:url(#Path-94_00000078019120847849423890000005901045812970469536_);" d="M28.3,35.5H16
		c-0.3,0-0.5-0.2-0.5-0.5l0,0c0-0.3,0.2-0.6,0.5-0.6h12.3c0.3,0,0.6,0.2,0.6,0.5l0,0C28.8,35.2,28.6,35.4,28.3,35.5z"/>
	
		<linearGradient id="Path-95_00000131364604043912881620000013384941370410135996_" gradientUnits="userSpaceOnUse" x1="-955.1239" y1="554.2103" x2="-954.3757" y2="554.2103" gradientTransform="matrix(17.74 0 0 1.48 16959.1797 -775.12)">
		<stop  offset="0" style="stop-color:#64C4DE"/>
		<stop  offset="1" style="stop-color:#5A78FF"/>
	</linearGradient>
	<path id="Path-95" style="fill:url(#Path-95_00000131364604043912881620000013384941370410135996_);" d="M28.3,45.7H16
		c-0.3,0-0.5-0.2-0.5-0.5l0,0c0-0.3,0.2-0.5,0.5-0.5h12.3c0.3-0.1,0.6,0.1,0.6,0.4c0,0,0,0.1,0,0.1l0,0
		C28.8,45.3,28.6,45.7,28.3,45.7z"/>
	<path id="Path-96" class="st7" d="M25.1,48.2H16c-0.3,0-0.5-0.2-0.5-0.5l0,0c0-0.3,0.2-0.5,0.5-0.5h9.1c0.3-0.1,0.5,0.2,0.5,0.5
		l0,0C25.6,48,25.4,48.2,25.1,48.2z"/>
	<path id="Path-97" class="st7" d="M48.9,48.2H27.5c-0.3,0-0.5-0.2-0.5-0.5l0,0c0-0.3,0.2-0.5,0.5-0.5h21.4c0.3-0.1,0.5,0.2,0.5,0.5
		l0,0C49.5,48,49.2,48.2,48.9,48.2z"/>
	<path id="Path-98" class="st7" d="M31.7,38.1H20.3c-0.3,0-0.5-0.2-0.5-0.5l0,0c0-0.3,0.2-0.6,0.5-0.6h11.4c0.3,0,0.6,0.2,0.6,0.5
		l0,0c0,0.3-0.2,0.5-0.5,0.5L31.7,38.1z"/>
	
		<linearGradient id="Path-99_00000025432434144414023210000013681057651111594126_" gradientUnits="userSpaceOnUse" x1="-902.8915" y1="555.8403" x2="-902.1428" y2="555.8403" gradientTransform="matrix(7.71 0 0 1.48 6993.5601 -785.17)">
		<stop  offset="0" style="stop-color:#64C4DE"/>
		<stop  offset="1" style="stop-color:#5A78FF"/>
	</linearGradient>
	<path id="Path-99" style="fill:url(#Path-99_00000025432434144414023210000013681057651111594126_);" d="M38.2,38.1h-4.7
		c-0.3,0-0.5-0.2-0.5-0.5l0,0c0-0.3,0.2-0.6,0.5-0.6h4.7c0.3,0,0.5,0.2,0.5,0.5l0,0c0,0.3-0.2,0.5-0.5,0.5L38.2,38.1z"/>
	<path id="Path-100" class="st7" d="M51.9,40.5H20.3c-0.3,0-0.5-0.2-0.5-0.5l0,0c0-0.3,0.2-0.5,0.5-0.5h31.6c0.3,0,0.6,0.2,0.6,0.5
		l0,0c0,0.3-0.2,0.5-0.5,0.5H51.9z"/>
	
		<linearGradient id="Path-101_00000000920267333400920680000006994349807410162825_" gradientUnits="userSpaceOnUse" x1="-863.9236" y1="555.3282" x2="-863.1754" y2="555.3282" gradientTransform="matrix(5.38 0 0 1.48 4704.2402 -781.9)">
		<stop  offset="0" style="stop-color:#64C4DE"/>
		<stop  offset="1" style="stop-color:#5A78FF"/>
	</linearGradient>
	<path id="Path-101" style="fill:url(#Path-101_00000000920267333400920680000006994349807410162825_);" d="M57.6,40.5h-2.9
		c-0.3,0-0.5-0.2-0.5-0.5l0,0c-0.1-0.3,0.2-0.5,0.5-0.5h2.9c0.3,0,0.6,0.2,0.6,0.5l0,0C58.2,40.3,57.9,40.5,57.6,40.5z"/>
	<path id="Path-102" class="st7" d="M68.9,40.5h-9.1c-0.3,0-0.5-0.2-0.5-0.5l0,0c0-0.3,0.2-0.5,0.5-0.5h9.1c0.3,0,0.6,0.2,0.6,0.5
		l0,0c0,0.3-0.2,0.5-0.5,0.5H68.9z"/>
	<path id="Path-103" class="st7" d="M42.1,43.1H20.3c-0.3,0-0.5-0.2-0.5-0.5l0,0c0-0.3,0.2-0.5,0.5-0.5h21.8c0.3,0,0.5,0.2,0.5,0.5
		l0,0C42.6,42.8,42.4,43.1,42.1,43.1z"/>
	<path id="Path-104" class="st7" d="M32.6,53.3h-8.4c-0.3,0-0.5-0.2-0.5-0.5l0,0c-0.1-0.3,0.2-0.5,0.5-0.6h8.4
		c0.3,0,0.5,0.2,0.5,0.5l0,0c0,0.3-0.2,0.5-0.5,0.5V53.3z"/>
	<path id="Path-105" class="st7" d="M43.5,53.3h-9c-0.3,0-0.5-0.2-0.5-0.5l0,0c0-0.3,0.2-0.6,0.5-0.6h9c0.3,0,0.5,0.2,0.5,0.5l0,0
		c0.1,0.3-0.1,0.6-0.4,0.6C43.5,53.3,43.5,53.3,43.5,53.3z"/>
	<path id="Path-106" class="st6" d="M51.6,53.3h-6.3c-0.3,0-0.6-0.2-0.6-0.5l0,0c0-0.3,0.3-0.5,0.5-0.6h6.4c0.3,0,0.6,0.2,0.6,0.5
		l0,0c0,0.3-0.2,0.5-0.5,0.5L51.6,53.3z"/>
	<path id="Path-107" class="st6" d="M57.4,53.3h-3.2c-0.3,0-0.6-0.2-0.6-0.5l0,0c0-0.3,0.2-0.6,0.5-0.6h3.3c0.3,0,0.5,0.2,0.5,0.5
		l0,0c0.1,0.3-0.1,0.6-0.4,0.6C57.4,53.3,57.4,53.3,57.4,53.3z"/>
	<path id="Path-108" class="st6" d="M32.6,60.9h-8.4c-0.3,0-0.5-0.2-0.5-0.5l0,0c-0.1-0.3,0.2-0.5,0.5-0.5h8.4
		c0.3,0,0.5,0.2,0.5,0.5l0,0C33.1,60.7,32.9,60.9,32.6,60.9z"/>
	
		<linearGradient id="Path-109_00000138538586741233720150000000928332440117967234_" gradientUnits="userSpaceOnUse" x1="-976.8514" y1="549.2042" x2="-976.0924" y2="549.2042" gradientTransform="matrix(37.9 0 0 1.48 37046.4219 -744.83)">
		<stop  offset="0" style="stop-color:#64C4DE"/>
		<stop  offset="1" style="stop-color:#5A78FF"/>
	</linearGradient>
	<path id="Path-109" style="fill:url(#Path-109_00000138538586741233720150000000928332440117967234_);" d="M51.6,68.5H24.1
		c-0.3,0-0.5-0.2-0.5-0.5l0,0c-0.1-0.3,0.2-0.5,0.5-0.5h27.5c0.3,0,0.6,0.2,0.6,0.5l0,0C52.2,68.3,51.9,68.5,51.6,68.5z"/>
	
		<linearGradient id="Path-110_00000023246211635686260780000004418205938406197124_" gradientUnits="userSpaceOnUse" x1="-939.1281" y1="551.589" x2="-938.3798" y2="551.589" gradientTransform="matrix(12.67 0 0 1.48 11926.4199 -761.08)">
		<stop  offset="0" style="stop-color:#64C4DE"/>
		<stop  offset="1" style="stop-color:#5A78FF"/>
	</linearGradient>
	<path id="Path-110" style="fill:url(#Path-110_00000023246211635686260780000004418205938406197124_);" d="M36.3,55.8h-8.4
		c-0.3,0-0.5-0.2-0.5-0.5l0,0c0-0.3,0.2-0.5,0.5-0.5h8.4c0.3,0,0.5,0.2,0.5,0.5l0,0C36.8,55.6,36.6,55.8,36.3,55.8z"/>
	<path id="Path-111" class="st7" d="M50.2,55.8H38c-0.3,0-0.5-0.2-0.5-0.5l0,0c0-0.3,0.2-0.5,0.5-0.5h12.1c0.3,0,0.5,0.2,0.5,0.5
		l0,0C50.7,55.6,50.5,55.8,50.2,55.8z"/>
	<path id="Path-112" class="st7" d="M58.1,55.8h-6.2c-0.3,0-0.5-0.2-0.5-0.5l0,0c0-0.3,0.2-0.5,0.5-0.5h6.2c0.3,0,0.5,0.2,0.5,0.5
		l0,0C58.6,55.6,58.4,55.8,58.1,55.8z"/>
	
		<linearGradient id="Path-113_00000018938265932476288160000011922043411951413950_" gradientUnits="userSpaceOnUse" x1="-828.0505" y1="551.589" x2="-827.3236" y2="551.589" gradientTransform="matrix(4.22 0 0 1.48 3555.4399 -761.08)">
		<stop  offset="0" style="stop-color:#64C4DE"/>
		<stop  offset="1" style="stop-color:#5A78FF"/>
	</linearGradient>
	<path id="Path-113" style="fill:url(#Path-113_00000018938265932476288160000011922043411951413950_);" d="M62,55.8h-2.1
		c-0.3,0-0.5-0.2-0.5-0.5l0,0c0-0.3,0.2-0.5,0.5-0.5H62c0.3,0,0.5,0.2,0.5,0.5l0,0C62.5,55.6,62.3,55.8,62,55.8z"/>
	<path id="Path-114" class="st7" d="M38.3,58.3H28c-0.3,0-0.6-0.2-0.6-0.5l0,0c0-0.3,0.2-0.5,0.5-0.5h10.5c0.3,0,0.5,0.2,0.5,0.5
		l0,0C38.9,58,38.6,58.3,38.3,58.3z"/>
	
		<linearGradient id="Path-115_00000150089821754101889580000004170132137231090063_" gradientUnits="userSpaceOnUse" x1="-860.5281" y1="551.4259" x2="-859.7798" y2="551.4259" gradientTransform="matrix(5.28 0 0 1.48 4582.5498 -758.38)">
		<stop  offset="0" style="stop-color:#64C4DE"/>
		<stop  offset="1" style="stop-color:#5A78FF"/>
	</linearGradient>
	<path id="Path-115" style="fill:url(#Path-115_00000150089821754101889580000004170132137231090063_);" d="M43,58.3h-2.8
		c-0.3,0-0.6-0.2-0.6-0.5l0,0c0-0.3,0.2-0.5,0.5-0.5H43c0.3,0,0.6,0.2,0.6,0.5l0,0c0,0.3-0.2,0.5-0.5,0.5H43z"/>
	<path id="Path-116" class="st7" d="M66.7,58.3H45.1c-0.3,0-0.5-0.2-0.5-0.5l0,0c0-0.3,0.2-0.5,0.5-0.5h21.5c0.3,0,0.5,0.2,0.5,0.5
		l0,0C67.1,58,66.9,58.2,66.7,58.3z"/>
	<path id="Path-117" class="st7" d="M32.6,50.7H20.3c-0.3,0-0.5-0.2-0.5-0.5l0,0c0-0.3,0.2-0.5,0.5-0.5h12.3c0.3,0,0.5,0.2,0.5,0.5
		l0,0C33.1,50.4,32.9,50.7,32.6,50.7z"/>
	
		<linearGradient id="Path-118_00000021825075089714439390000018350894817006870428_" gradientUnits="userSpaceOnUse" x1="-870.1837" y1="553.0951" x2="-869.4354" y2="553.0951" gradientTransform="matrix(5.7 0 0 1.48 4994.2998 -768.44)">
		<stop  offset="0" style="stop-color:#64C4DE"/>
		<stop  offset="1" style="stop-color:#5A78FF"/>
	</linearGradient>
	<path id="Path-118" style="fill:url(#Path-118_00000021825075089714439390000018350894817006870428_);" d="M37.7,50.7h-3.1
		c-0.3,0-0.6-0.2-0.6-0.5l0,0c0-0.3,0.2-0.5,0.5-0.5h3.2c0.3,0,0.6,0.2,0.6,0.5l0,0C38.3,50.5,38,50.7,37.7,50.7z"/>
	<path id="Path-119" class="st7" d="M32.6,63.4H20.3c-0.3,0-0.5-0.2-0.5-0.5l0,0c0-0.3,0.2-0.5,0.5-0.5h12.3c0.3,0,0.5,0.2,0.5,0.5
		l0,0C33.1,63.2,32.9,63.4,32.6,63.4z"/>
	<path id="Path-120" class="st7" d="M42.2,66H20.3c-0.3,0-0.5-0.2-0.5-0.5l0,0c0-0.3,0.2-0.5,0.5-0.5h21.9c0.3,0,0.6,0.2,0.6,0.5
		l0,0c0,0.3-0.2,0.5-0.5,0.5H42.2z"/>
	<path id="Path-121" class="st6" d="M51.7,66H44c-0.3,0-0.6-0.2-0.6-0.5l0,0c0-0.3,0.2-0.5,0.5-0.5h7.8c0.3,0,0.5,0.2,0.5,0.5l0,0
		C52.2,65.7,52,66,51.7,66z"/>
	
		<linearGradient id="Path-122_00000005975477171154855170000008505366822986218885_" gradientUnits="userSpaceOnUse" x1="-871.2479" y1="549.7546" x2="-870.5103" y2="549.7546" gradientTransform="matrix(5.7 0 0 1.48 5019.4297 -748.21)">
		<stop  offset="0" style="stop-color:#64C4DE"/>
		<stop  offset="1" style="stop-color:#5A78FF"/>
	</linearGradient>
	<path id="Path-122" style="fill:url(#Path-122_00000005975477171154855170000008505366822986218885_);" d="M56.7,66h-3.2
		c-0.3,0-0.5-0.2-0.5-0.5l0,0c0-0.3,0.2-0.5,0.5-0.5h3.2c0.3,0,0.5,0.2,0.5,0.5l0,0C57.3,65.7,57,66,56.7,66z"/>
	
		<linearGradient id="Path-123_00000031917350094991808770000000559967776072442519_" gradientUnits="userSpaceOnUse" x1="-966.8892" y1="21.3979" x2="-966.1302" y2="21.3979" gradientTransform="matrix(25.42 0 0 25.43 24641.0508 -485.2403)">
		<stop  offset="0" style="stop-color:#64C4DE"/>
		<stop  offset="1" style="stop-color:#5A78FF"/>
	</linearGradient>
	<path id="Path-123" style="fill:url(#Path-123_00000031917350094991808770000000559967776072442519_);" d="M79.7,60.1
		c0,0.5-0.1,1-0.3,1.4c-0.9,3.2-3.4,5.8-6.6,6.7c-1.2,0.3-2.5,0.4-3.7,0.2c-5.2-0.7-9-5.4-8.3-10.7l0,0c0.6-5.2,5.3-8.9,10.5-8.4
		h0.2C76.6,50,80.4,54.8,79.7,60.1C79.7,60.1,79.7,60.1,79.7,60.1z"/>
</g>
<linearGradient id="Path_00000098911754732704325020000014372037588849650071_" gradientUnits="userSpaceOnUse" x1="-947.4946" y1="93.6742" x2="-947.7191" y2="93.2359" gradientTransform="matrix(17.11 0 0 8.66 16286.0605 -748.2997)">
	<stop  offset="1.000000e-02" style="stop-color:#C2D1FF"/>
	<stop  offset="1" style="stop-color:#FFFFFF"/>
</linearGradient>
<path id="Path" style="fill:url(#Path_00000098911754732704325020000014372037588849650071_);" d="M75.5,56.7c0-0.2-0.1-0.3-0.3-0.3
	h-3c-0.1,0-0.2,0.1-0.3,0.3v0.6c0.1,0.1,0.2,0.3,0.3,0.3h1.1L70.9,60l-2.4-2.4c-0.2-0.2-0.6-0.2-0.9,0l0,0l-2.8,2.8
	c-0.1,0.1-0.1,0.3,0,0.4l0.4,0.5c0.2,0.1,0.4,0.1,0.5,0l2.2-2.2l2.2,2.4c0.3,0.2,0.7,0.2,1,0l0,0l2.8-2.9v1.1
	c0.1,0.1,0.2,0.3,0.3,0.3h0.6c0.2,0,0.3-0.1,0.3-0.3L75.5,56.7z"/>
</svg>
