<?xml version="1.0" encoding="utf-8"?>
<!-- Generator: Adobe Illustrator 25.4.1, SVG Export Plug-In . SVG Version: 6.00 Build 0)  -->
<svg version="1.1" id="Layer_1" xmlns="http://www.w3.org/2000/svg" xmlns:xlink="http://www.w3.org/1999/xlink" x="0px" y="0px"
	 viewBox="0 0 344.4 284.1" style="enable-background:new 0 0 344.4 284.1;" xml:space="preserve">
<style type="text/css">
	.st0{fill:#64C4DE;}
	.st1{clip-path:url(#SVGID_00000150083048665450588270000000528891558780109708_);}
	.st2{clip-path:url(#SVGID_00000133513278079995772890000004652345800920789665_);}
	.st3{fill:#FFFFFF;}
	.st4{clip-path:url(#SVGID_00000079475790207799512140000010691911342693655202_);}
	.st5{clip-path:url(#SVGID_00000104700400798520509950000012694426477041175440_);}
	.st6{fill:#D8D8D8;}
	.st7{clip-path:url(#SVGID_00000075846697035659115270000007770063320847119769_);}
	.st8{clip-path:url(#SVGID_00000121982393104837227960000008598011082116706450_);}
	.st9{clip-path:url(#SVGID_00000047053125036735975690000009597961490782100638_);}
	.st10{clip-path:url(#SVGID_00000112628094928652116110000017468854972809288348_);}
	.st11{clip-path:url(#SVGID_00000124123432138231142540000012058674817753071257_);}
	.st12{clip-path:url(#SVGID_00000064311861835847984380000011887761642749707195_);}
	.st13{clip-path:url(#SVGID_00000057827799572677174220000008044392093150676624_);}
	.st14{clip-path:url(#SVGID_00000158727839433527193330000017278729602054243753_);}
	.st15{clip-path:url(#SVGID_00000025412012281369516740000013083069036876711312_);}
	.st16{clip-path:url(#SVGID_00000142173135465861960940000008278025911936936111_);}
	.st17{clip-path:url(#SVGID_00000176034889974987739500000003667943606447825545_);}
	.st18{clip-path:url(#SVGID_00000120543495222984924890000009726293111166877086_);}
	.st19{clip-path:url(#SVGID_00000167374672483359503070000001945747994452309402_);}
	.st20{clip-path:url(#SVGID_00000162334921525278208420000006723160040243678364_);}
	.st21{clip-path:url(#SVGID_00000174562403759462319700000013938338020644890284_);}
	.st22{clip-path:url(#SVGID_00000135677824023580686040000014512840590319559867_);}
	.st23{clip-path:url(#SVGID_00000137853290599294554990000000727274787291847612_);}
	.st24{clip-path:url(#SVGID_00000150819731637392224230000016554916786561069755_);}
	.st25{clip-path:url(#SVGID_00000000944588802177621800000002859690505431379328_);}
	.st26{clip-path:url(#SVGID_00000007404201359872124710000008548736785099561379_);}
	.st27{clip-path:url(#SVGID_00000076588995805777814930000007931620987516558250_);}
	.st28{clip-path:url(#SVGID_00000029032249110825194590000006006641739514424214_);}
	.st29{clip-path:url(#SVGID_00000114053781335928862420000004395371419065105817_);}
	.st30{clip-path:url(#SVGID_00000057835978243201538020000007912882144998678413_);}
	.st31{clip-path:url(#SVGID_00000119093264546490388630000009581744861409747884_);}
	.st32{clip-path:url(#SVGID_00000181765853061729632330000017809948233586667676_);}
	.st33{clip-path:url(#SVGID_00000023977146742500339430000015429171762754532762_);}
	.st34{clip-path:url(#SVGID_00000087370579756341723570000008851669084917344386_);}
	.st35{clip-path:url(#SVGID_00000103265339664642330320000001763817460435763610_);}
	.st36{clip-path:url(#SVGID_00000013155481325196401340000014759041157882156449_);}
	.st37{clip-path:url(#SVGID_00000011013156085992067320000005565323870626923649_);}
	.st38{clip-path:url(#SVGID_00000172439644971912800210000007164664051512671391_);}
	.st39{clip-path:url(#SVGID_00000110433543987961040320000007092719537030255503_);}
	.st40{clip-path:url(#SVGID_00000149371563456167706080000008429443773085555088_);}
	.st41{clip-path:url(#SVGID_00000092418621371750623900000009528368094195466666_);}
	.st42{clip-path:url(#SVGID_00000062901520508213523620000013250988962725965741_);}
	.st43{clip-path:url(#SVGID_00000013161221403070994140000014666658198905792958_);}
	.st44{clip-path:url(#SVGID_00000152987115022691183290000009061229630856494223_);}
	.st45{clip-path:url(#SVGID_00000009573755057316284920000004465663300075854236_);}
	.st46{clip-path:url(#SVGID_00000111154578918772121500000014719554418894284213_);}
	.st47{clip-path:url(#SVGID_00000181784507336667211380000014875922257319783329_);}
	.st48{clip-path:url(#SVGID_00000011023533722793872060000015917189745784597166_);}
	.st49{clip-path:url(#SVGID_00000087385905754967263030000018325770542663136384_);}
	.st50{clip-path:url(#SVGID_00000125587633813546463150000015020260155285435825_);}
	.st51{clip-path:url(#SVGID_00000091727912527391898410000012796304043880018065_);}
	.st52{clip-path:url(#SVGID_00000008133951594434061680000017122945373590149049_);}
	.st53{clip-path:url(#SVGID_00000005256726347314125600000016844626725993503155_);}
	.st54{clip-path:url(#SVGID_00000092440185040563121370000013016557591388602003_);}
	.st55{clip-path:url(#SVGID_00000078038004197261788960000006749953991514813361_);}
	.st56{clip-path:url(#SVGID_00000163780088938510664790000009837909425787810488_);}
	.st57{clip-path:url(#SVGID_00000010304328119379991600000007357534486560505995_);}
	.st58{clip-path:url(#SVGID_00000031169039349515017400000006559613376640243337_);}
	.st59{clip-path:url(#SVGID_00000114777266160946106700000017683788934501709732_);}
	.st60{clip-path:url(#SVGID_00000176042905391036729680000011303283808641021604_);}
	.st61{clip-path:url(#SVGID_00000063608081867640001610000007668447450226988198_);}
	.st62{clip-path:url(#SVGID_00000138575521007193728220000014147008217121179816_);}
	.st63{clip-path:url(#SVGID_00000114783591588533152710000016717096038964788649_);}
	.st64{clip-path:url(#SVGID_00000098203427046985477720000014131674643799860144_);}
	.st65{clip-path:url(#SVGID_00000075152926943536601640000003067888638334719123_);}
	.st66{clip-path:url(#SVGID_00000129922108962584395930000011665540958746973316_);}
	.st67{clip-path:url(#SVGID_00000129915833406667925180000013119306344894297757_);}
	.st68{clip-path:url(#SVGID_00000178909026362040234330000009303239901795212985_);}
	.st69{fill:#333333;stroke:#333333;stroke-width:1.34;stroke-linecap:round;stroke-linejoin:round;}
	.st70{fill:#FFFFFF;stroke:#333333;stroke-width:0.86;stroke-linecap:round;stroke-linejoin:round;}
</style>
<g>
	<path class="st0" d="M277.6,174.2c0.3,1.5,0.4,3.1,0.5,4.7c1.5,25.8-18.1,47.9-43.8,49.4v53.1c54.2-1.4,97.3-45.7,97.4-99.9
		c0-2.5-0.1-4.9-0.3-7.3H277.6z"/>
	<g>
		<g>
			<g>
				<defs>
					<path id="SVGID_1_" d="M277.6,174.2c0.3,1.5,0.4,3.1,0.5,4.7c1.5,25.8-18.1,47.9-43.8,49.4v53.1c54.2-1.4,97.3-45.7,97.4-99.9
						c0-2.5-0.1-4.9-0.3-7.3H277.6z"/>
				</defs>
				<clipPath id="SVGID_00000148650526759608938780000006758995758296531072_">
					<use xlink:href="#SVGID_1_"  style="overflow:visible;"/>
				</clipPath>
				<g style="clip-path:url(#SVGID_00000148650526759608938780000006758995758296531072_);">
					<rect x="232.4" y="172.4" class="st0" width="101" height="110.9"/>
				</g>
			</g>
		</g>
	</g>
	<g>
		<g>
			<g>
				<defs>
					<path id="SVGID_00000172399574254021875610000009811074874702571160_" d="M301.6,181.2l13.2-6.4h16c0.2,2.3,0.2,4.5,0.2,6.8
						c0,6.2-0.6,12.5-1.7,18.6c-3.2,2.9-6.5,5.5-10.1,7.9c-11.4,7.6-19.3,17-24.4,27.9c-3.9,8.6-6.2,17.9-6.7,27.4
						c-7.8,5.4-16.3,9.6-25.2,12.6c0.2-28.4,10.3-50.8,30.5-67c12.5-10.1,15.9-19.2,10.8-25.4C303.4,182.6,302.6,181.8,301.6,181.2
						L301.6,181.2z M301.7,181.2c-5.3-3.7-14.4-4.8-23.7-2.6c-0.3,0.1-0.4,0.3-0.4,0.6c0.1,0.9,0.1,1.7,0.1,2.6
						c0,3.6-0.4,7.2-1.2,10.7c0,0.1,0,0.3,0,0.4c0.1,0.3,0.5,0.4,0.7,0.2L301.7,181.2z M277.7,191.6c0.7-3.2,1-6.6,1-9.9
						c0-0.7,0-1.4,0-2.1c7.9-1.8,15.6-1.1,20.7,1.5L277.7,191.6z M303.3,184.2c4.7,5.6,1.5,14.2-10.6,23.9
						c-20.6,16.6-30.9,39.5-30.9,68.7c0,0.1,0,0.1,0,0.2c0.1,0.3,0.4,0.5,0.7,0.4c9.4-3,18.3-7.5,26.5-13.1c0.1-0.1,0.2-0.2,0.2-0.4
						c0.5-9.4,2.7-18.7,6.6-27.4c5-10.7,12.8-19.9,24-27.4c3.7-2.4,7.2-5.1,10.4-8.1c0.1-0.1,0.1-0.2,0.2-0.3
						c1.2-6.3,1.8-12.6,1.8-19c0-2.5-0.1-4.9-0.3-7.4c0-0.3-0.3-0.5-0.6-0.5h-16.6c-0.1,0-0.2,0-0.2,0.1l-15.1,7.4
						C300.9,181.9,302.2,182.9,303.3,184.2z M255.4,222.5c0,2.4,0.1,4.9,0.2,7.7c0.1,2.7,0.2,5.1,0.4,9.3
						c0.7,12.7,0.8,17.3,0.6,22.7c-0.3,7.1-1.3,11.8-3.4,14.4c-0.7,1-1.6,1.8-2.6,2.5c-0.9,0.2-1.9,0.4-2.8,0.5
						c-5.9-2-8.9-25.2-5.6-39.1c1.1-4.4,1.9-8.9,2.5-13.4C248.5,226,252.1,224.5,255.4,222.5z M256.5,221.5c0-0.1,0-0.2-0.1-0.3
						c-0.2-0.3-0.5-0.3-0.8-0.2c-3.6,2.2-7.5,3.9-11.6,5.1c-0.2,0.1-0.4,0.2-0.4,0.5c-0.5,4.6-1.4,9.2-2.5,13.7
						c-1.5,6.4-1.8,15.9-0.7,24.2c1.2,9,3.7,15.2,7.2,16.2c0.1,0,0.2,0,0.2,0c1.1-0.2,2.1-0.3,3.1-0.5c0.1,0,0.1,0,0.2-0.1
						c1.2-0.7,2.2-1.7,3-2.8c2.3-2.9,3.4-7.8,3.7-15.1c0.2-5.5,0.1-10-0.6-22.8c-0.2-4.3-0.3-6.7-0.4-9.3
						C256.6,227,256.5,224.2,256.5,221.5L256.5,221.5z"/>
				</defs>
				<clipPath id="SVGID_00000070826650353937934940000016431618738170613922_">
					<use xlink:href="#SVGID_00000172399574254021875610000009811074874702571160_"  style="overflow:visible;"/>
				</clipPath>
				<g style="clip-path:url(#SVGID_00000070826650353937934940000016431618738170613922_);">
					<rect x="238" y="171.8" class="st3" width="96" height="110.7"/>
				</g>
			</g>
		</g>
	</g>
	<g>
		<g>
			<g>
				<defs>
					<path id="SVGID_00000075877078964238997510000009553818428030387347_" d="M94.1,151.5l-36.3,36.3h-2.9L94,148.7L94.1,151.5
						L94.1,151.5z M68.5,187.8h-2.8l28.4-28.4v2.9L68.5,187.8z M94.1,173l-14.8,14.8h-2.9l17.7-17.7L94.1,173L94.1,173z M94.1,183.7
						l-4.1,4.1h-2.9l6.9-6.9L94.1,183.7L94.1,183.7L94.1,183.7z M94.1,140.5l-47.4,47.3h-2.9L94,137.6L94.1,140.5L94.1,140.5z
						 M94.1,129.4l-58.4,58.4h-2.9L94,126.6L94.1,129.4L94.1,129.4z M94.1,118.4l-69.4,69.4h-2.9l72.3-72.2V118.4L94.1,118.4z
						 M94.1,107.4l-80.4,80.4h-2.9l83.3-83.3V107.4L94.1,107.4z M93.4,97L3.3,187.1v-2.8l87.2-87.2L93.4,97L93.4,97z M82.4,97.1
						L3.3,176.2v-2.9l76.2-76.2L82.4,97.1L82.4,97.1z M71.3,97l-68,68v-2.9l65.2-65L71.3,97L71.3,97z M60.3,97l-57,57v-2.9l54.2-54
						h2.9L60.3,97z M3.4,143v-2.9l43.1-43h2.9C49.4,97.1,3.4,143,3.4,143z M38.4,97.1L3.5,132v-2.9l32-32L38.4,97.1L38.4,97.1z
						 M27.4,97.1L3.5,120.9v-2.8l21-21H27.4L27.4,97.1z M3.6,109.9V107l10-9.9h2.9L3.6,109.9z M3.6,98.9v-1.8h1.8L3.6,98.9z"/>
				</defs>
				<clipPath id="SVGID_00000019642732524203178090000009059565102998852486_">
					<use xlink:href="#SVGID_00000075877078964238997510000009553818428030387347_"  style="overflow:visible;"/>
				</clipPath>
				<g style="clip-path:url(#SVGID_00000019642732524203178090000009059565102998852486_);">
					<rect x="1.4" y="95.2" width="94.4" height="94.4"/>
				</g>
			</g>
		</g>
	</g>
	<g>
		<g>
			<g>
				<defs>
					<path id="SVGID_00000114050225913963598000000017930540402081523380_" d="M30.7,123.3L30.7,123.3c0-29.9,24.3-54.2,54.2-54.2
						s54.2,24.3,54.2,54.2s-24.3,54.2-54.2,54.2C54.9,177.5,30.7,153.2,30.7,123.3z"/>
				</defs>
				<clipPath id="SVGID_00000063634565803037313000000013764834624232518020_">
					<use xlink:href="#SVGID_00000114050225913963598000000017930540402081523380_"  style="overflow:visible;"/>
				</clipPath>
				<g style="clip-path:url(#SVGID_00000063634565803037313000000013764834624232518020_);">
					<rect x="28.9" y="67.3" class="st6" width="112" height="112"/>
				</g>
			</g>
		</g>
	</g>
	<g>
		<g>
			<g>
				<defs>
					<path id="SVGID_00000031205044299102229540000008305927166343632063_" d="M44.7,87.7c3.8-4.3,8.4-8,13.4-10.9l8.8-1
						c-9.3,14-15.9,29.5-19.5,45.9v0.1c-2,14.3-3.8,25.5-5.5,33.6c-4.6-6.2-7.8-13.3-9.4-20.8C34.3,121.4,38.4,105.8,44.7,87.7
						L44.7,87.7z M70.6,70.6c-1.2,1.7-2.4,3.4-3.6,5.2l13.1-1.5c0.7-1.6,1.5-3.2,2.3-4.8c0-0.1,0.1-0.2,0.1-0.3
						c0-0.3-0.3-0.5-0.6-0.5c-3.7,0.2-7.4,0.8-11,1.7C70.7,70.5,70.6,70.5,70.6,70.6L70.6,70.6z M80.1,74.3l20.3-2.3
						c19.5,5.9,34,22.3,37.4,42.4c-11.7,8-19.6,17.9-24.5,29.4c-3.8,8.9-5.5,18.1-6,28.3c-7,3.3-14.7,4.9-22.5,4.9
						c-0.8,0-1.7-0.1-2.5-0.1c1.2-26.2,11.4-46.9,30.4-62.2c7.4-5.9,11.6-11.5,12.8-16.5c1.1-4.3-0.7-8.8-4.5-11.1
						c-7.5-5.3-21.8-5-33.5,1.1c-5.9,3.1-9.5,9.4-11.3,18.8c-1.4,7.5-1.7,16.5-1.2,29.2c0.1,2.7,0.2,5.1,0.5,9.3
						c0.5,9.7,0.7,13.1,0.7,17.6c0.1,4.4-0.2,8.9-0.9,13.3c-6.6-1.2-13-3.6-18.7-7.2c-3.1-10.9-1.5-20.1,4.8-22.2
						c1.8-0.6,2.8-2.3,3.3-5.2c0.4-2.2,0.5-4.5,0.6-10.2c0.1-6.8,0.2-9.9,0.6-14.2c0.5-5.4,1.6-10.8,3.2-16c0-0.1,0.1-0.2,0.1-0.3
						C72.3,91.8,75.9,82.9,80.1,74.3L80.1,74.3z M42.7,156.7c1.8-8.2,3.8-19.8,5.8-34.8c3.8-17,10.8-33.1,20.7-47.5l-11.3,1.3
						c-0.1,0-0.1,0-0.2,0.1c-5.2,3-9.9,6.8-13.9,11.3c0,0.1-0.1,0.1-0.1,0.2c-6.4,18.2-10.6,33.9-12.4,47.2c0,0.1,0,0.1,0,0.2
						c1.7,8.1,5.3,15.8,10.4,22.3c0.1,0.1,0.2,0.2,0.4,0.2C42.4,157.3,42.7,157,42.7,156.7L42.7,156.7z M69.2,74.4
						c0.7-1,1.4-2,2.1-3c3.2-0.8,6.4-1.4,9.6-1.6l-1.6,3.4L69.2,74.4z M79.3,73.3c-4.3,8.8-8,17.9-11.2,27.2c0,0.1-0.1,0.2-0.1,0.3
						c-1.7,5.3-2.8,10.7-3.3,16.2c-0.4,4.3-0.5,7.4-0.6,14.3c0.1,3.3-0.1,6.7-0.6,10c-0.5,2.6-1.3,4-2.6,4.4
						c-7.1,2.3-8.7,12.3-5.4,23.8c0,0.1,0.1,0.2,0.2,0.3c6,3.8,12.7,6.4,19.7,7.6c0.3,0,0.6-0.1,0.6-0.4c0.9-4.6,1.2-9.3,1.1-14
						c0-4.5-0.2-7.8-0.7-17.6c-0.2-4.3-0.3-6.7-0.4-9.3c-0.5-12.6-0.2-21.5,1.2-28.9c1.7-9.1,5.1-15.1,10.7-18
						c11.4-5.9,25.3-6.2,32.4-1.2c7.6,5.4,5.4,14.9-8.4,26c-19.4,15.6-29.7,36.8-30.8,63.6l0,0c0,0.3,0.2,0.6,0.5,0.6
						c1,0.1,2.1,0.1,3.1,0.1c8,0,16-1.8,23.3-5.2c0.2-0.1,0.3-0.3,0.3-0.5c0.4-10.3,2.1-19.4,5.9-28.3c4.8-11.4,12.7-21.2,24.4-29.1
						c0.2-0.1,0.3-0.3,0.2-0.5c-3.4-20.7-18.3-37.6-38.3-43.6c-0.1,0-0.1,0-0.2,0L79.3,73.3z"/>
				</defs>
				<clipPath id="SVGID_00000160898131233117622640000010602420415614798264_">
					<use xlink:href="#SVGID_00000031205044299102229540000008305927166343632063_"  style="overflow:visible;"/>
				</clipPath>
				<g style="clip-path:url(#SVGID_00000160898131233117622640000010602420415614798264_);">
					<rect x="29.5" y="66.9" class="st3" width="111.2" height="113"/>
				</g>
			</g>
		</g>
	</g>
	<g>
		<g>
			<g>
				<defs>
					<path id="SVGID_00000085968698707094976070000003280005792103194526_" d="M310.8,52.5c0,1.7,1,2.6,3.1,3.2
						c1.7,0.4,3.3,0.5,7.6,0.5s6,0.1,7.8,0.6c2.5,0.6,3.9,2,3.9,4.2s-1.4,3.6-3.9,4.3c-1.8,0.5-3.7,0.6-7.8,0.7h-0.3
						c-4.1,0.1-5.8,0.2-7.4,0.6c-2,0.5-3,1.4-3,2.9s1,2.4,3,3c1.6,0.5,3.3,0.6,7.3,0.8h0.4c4.1,0.2,6,0.4,7.8,1
						c2.6,0.8,3.9,2.2,3.9,4.5s-1.4,3.7-3.9,4.5c-2.6,0.6-5.2,0.9-7.9,0.7H320c-2.3-0.1-4.5,0-6.8,0.3c-1.8,0.3-2.6,0.9-2.6,2
						s1,1.9,3.1,2.3c2.5,0.4,5.1,0.6,7.6,0.6c2.6,0,5.2,0.1,7.8,0.6c2.5,0.5,3.9,1.6,3.9,3.3c0.2,1.5-0.5,3-1.7,3.9
						c-1.1,0.6-2.3,0.9-3.5,0.9h-0.4c-2.1,0.2-2.9,0.4-3.4,1c-1.2,1.5-2.1,16.3-2.3,43.4c0,0.3-0.2,0.5-0.5,0.5s-0.6-0.2-0.6-0.5
						c0.3-27.9,1.1-42.2,2.5-44.1c0.8-1,1.7-1.2,4.1-1.4h0.4c3.1-0.3,4.2-1,4.2-3.7c0-1.1-1-1.8-3-2.3c-2.5-0.4-5-0.6-7.6-0.6
						s-5.3-0.2-7.8-0.6c-2.5-0.5-3.9-1.7-3.9-3.4s1.2-2.6,3.5-3.1c2.3-0.4,4.7-0.5,7-0.4h1.3c2.5,0.1,5.1-0.1,7.5-0.7
						c2.1-0.6,3.1-1.7,3.1-3.4s-1-2.8-3.1-3.5c-1.7-0.5-3.6-0.8-7.6-0.9h-0.4c-4.1-0.2-5.8-0.3-7.6-0.8c-2.4-0.7-3.7-2-3.7-4.1
						s1.3-3.4,3.8-4c1.8-0.4,3.5-0.6,7.6-0.6h0.3c4-0.1,5.9-0.2,7.6-0.7c2.1-0.6,3.1-1.6,3.1-3.3s-1-2.6-3.1-3.2
						c-1.7-0.4-3.3-0.5-7.6-0.5c-4.3,0-6-0.1-7.8-0.5c-2.5-0.6-3.9-2-3.9-4.2V35.7c0-3.4,0.4-6.8,1.2-10.2h-16.4h-0.1
						c-0.3,0-0.5-0.3-0.5-0.6s0.3-0.5,0.6-0.5h16.6c2.3-8.4,7.1-15,13.4-18.9c7.9-4.9,15.8-3.5,16.7,3.6c1.3,9.5-7.8,14.9-27,16.4
						h-2.2c-0.8,3.3-1.2,6.8-1.2,10.2v16.8H310.8z M314.1,24.4c18.6-1.4,27.1-6.5,26-15.2c-0.8-6.1-7.7-7.3-15-2.8
						c-5.9,3.7-10.5,10-12.8,18H314.1L314.1,24.4z"/>
				</defs>
				<clipPath id="SVGID_00000134246434990999262840000013017846337866289808_">
					<use xlink:href="#SVGID_00000085968698707094976070000003280005792103194526_"  style="overflow:visible;"/>
				</clipPath>
				<g style="clip-path:url(#SVGID_00000134246434990999262840000013017846337866289808_);">
					<rect x="292.1" y="0.8" width="51.1" height="144.1"/>
				</g>
			</g>
		</g>
	</g>
	<g>
		<g>
			<g>
				<defs>
					<path id="SVGID_00000141455671012382880200000001958710618562476974_" d="M321,157.9c-2.3,0-4.2-1.9-4.2-4.2s1.9-4.2,4.2-4.2
						s4.2,1.9,4.2,4.2S323.3,157.9,321,157.9L321,157.9z M324.1,153.7L324.1,153.7c0-1.7-1.4-3.1-3.1-3.1s-3.1,1.4-3.1,3.1
						s1.4,3.1,3.1,3.1S324.1,155.4,324.1,153.7z"/>
				</defs>
				<clipPath id="SVGID_00000057145439046111889180000000538212407040621457_">
					<use xlink:href="#SVGID_00000141455671012382880200000001958710618562476974_"  style="overflow:visible;"/>
				</clipPath>
				<g style="clip-path:url(#SVGID_00000057145439046111889180000000538212407040621457_);">
					<rect x="315" y="147.7" width="12.1" height="12.1"/>
				</g>
			</g>
		</g>
	</g>
	<g>
		<g>
			<g>
				<defs>
					<path id="SVGID_00000101793946265787071890000000858245745236296333_" d="M278.7,23.8L278.7,23.8c0-2.3,1.9-4.2,4.2-4.2
						c2.3,0,4.2,1.9,4.2,4.2s-1.9,4.2-4.2,4.2S278.7,26.1,278.7,23.8z M282.9,26.9c1.7,0,3.1-1.4,3.1-3.1l0,0c0-1.7-1.4-3.1-3.1-3.1
						s-3.1,1.4-3.1,3.1S281.2,26.9,282.9,26.9L282.9,26.9z"/>
				</defs>
				<clipPath id="SVGID_00000029045009304279608470000000887644878298552968_">
					<use xlink:href="#SVGID_00000101793946265787071890000000858245745236296333_"  style="overflow:visible;"/>
				</clipPath>
				<g style="clip-path:url(#SVGID_00000029045009304279608470000000887644878298552968_);">
					<rect x="276.9" y="17.7" width="12.1" height="12.1"/>
				</g>
			</g>
		</g>
	</g>
	<g>
		<g>
			<g>
				<defs>
					<path id="SVGID_00000154410399410307921470000012749547655728371113_" d="M95.4,44.1c-0.9-3.9-2.1-7.8-3.7-11.5
						c-1-2-1.7-2.6-2.3-2.1c-1.9,1.7-3,5.4-4.3,13.4c-0.1,0.3-0.1,0.6-0.2,1c0,0-0.2,0.8-0.2,1c-0.4,3-1,6.1-1.9,9
						c-1,2.7-2.1,4.1-4,4s-3.4-1.9-4.9-5c-1.4-3.2-2.6-6.6-3.6-10l-0.3-1c-0.9-3.1-1.9-6.2-3.2-9.2c-1.2-2.9-2.4-4.7-3.7-5.6
						c-0.3-0.2-0.5,0-0.7,1.1C62.1,31,62,32.8,62,34.7c-0.1,1-0.1,1.2-0.1,1.7c0,2.1-0.2,4.2-0.6,6.2c-0.5,2-1.3,3.2-2.6,3.2
						c-1.8,0-3.1-1.5-4.7-4.8c-0.4-0.8-1.9-4-2-4.4c-2.5-5.1-4.5-7.8-7.5-8.4c-3.2-0.8-7.2,2.9-11.7,11.2c-0.1,0.3-0.5,0.4-0.8,0.2
						c-0.3-0.1-0.4-0.5-0.2-0.8c4.8-8.7,9-12.6,12.9-11.7c3.4,0.8,5.6,3.6,8.2,9c0.2,0.4,1.6,3.6,2,4.4c1.4,2.9,2.4,4.2,3.7,4.2
						s1.9-2.7,2.1-8.4c0.1-0.5,0.1-0.7,0.1-1.7c0-1.9,0.1-3.8,0.4-5.7c0.4-1.8,1.2-2.7,2.4-1.8c1.5,1,2.8,3,4.1,6.1
						c1.2,3.1,2.3,6.2,3.2,9.3l0.3,1c0.9,3.4,2.1,6.7,3.5,9.9c1.4,2.8,2.7,4.3,4,4.4c1.1,0.1,2-1,2.8-3.3c0.9-2.9,1.5-5.9,1.9-8.9
						c0-0.3,0.2-1.1,0.2-1c0.1-0.4,0.1-0.7,0.1-1c1.4-8.3,2.5-12.1,4.7-14c1.4-1.1,2.7-0.1,4,2.5c1.6,3.8,2.9,7.7,3.8,11.7
						c0.1,0.3-0.1,0.6-0.4,0.7C95.7,44.6,95.4,44.5,95.4,44.1L95.4,44.1z"/>
				</defs>
				<clipPath id="SVGID_00000105405990828420885060000013341364146820042897_">
					<use xlink:href="#SVGID_00000154410399410307921470000012749547655728371113_"  style="overflow:visible;"/>
				</clipPath>
				<g style="clip-path:url(#SVGID_00000105405990828420885060000013341364146820042897_);">
					<rect x="30" y="25" width="68.2" height="35.8"/>
				</g>
			</g>
		</g>
	</g>
	<rect x="252.4" y="108.9" width="12.1" height="12.5"/>
	<g>
		<g>
			<g>
				<defs>
					<path id="SVGID_00000093886778987120898600000011923255870645857722_" d="M211.4,115.1c0-0.1,0-0.1,0-0.2
						c0.1-2.4,2.2-4.3,4.6-4.2c2.4,0.1,4.3,2.2,4.2,4.6s-2.2,4.3-4.6,4.2S211.3,117.5,211.4,115.1z M219.4,115.1c0-0.1,0-0.1,0-0.2
						c-0.1-2.2-1.9-3.9-4.2-3.8c-2.2,0.1-3.9,1.9-3.8,4.2c0.1,2.2,1.9,3.9,4.2,3.8C217.7,119.1,219.5,117.3,219.4,115.1z"/>
				</defs>
				<clipPath id="SVGID_00000052096608331244709360000009604722050316858520_">
					<use xlink:href="#SVGID_00000093886778987120898600000011923255870645857722_"  style="overflow:visible;"/>
				</clipPath>
				<g style="clip-path:url(#SVGID_00000052096608331244709360000009604722050316858520_);">
					<rect x="209.5" y="108.9" width="12.1" height="12.5"/>
				</g>
			</g>
		</g>
	</g>
	<g>
		<g>
			<g>
				<defs>
					<path id="SVGID_00000013908577130824253510000010321740386561285305_" d="M117.9,113.4c0.7,37.6-1.4,62.4-6.4,74.5
						c-5,12.1-9.7,12.1-14.3,0c-0.8-17.2-0.8-35.1,0-53.7s5.6-31.2,14.3-37.5L117.9,113.4z"/>
				</defs>
				<clipPath id="SVGID_00000098179922070523556290000009852446108788726934_">
					<use xlink:href="#SVGID_00000013908577130824253510000010321740386561285305_"  style="overflow:visible;"/>
				</clipPath>
				<g style="clip-path:url(#SVGID_00000098179922070523556290000009852446108788726934_);">
					<rect x="94.8" y="94.9" class="st3" width="25.1" height="104"/>
				</g>
			</g>
		</g>
	</g>
	<g>
		<g>
			<g>
				<defs>
					<path id="SVGID_00000109725758609512247480000005297881993755484826_" d="M117.7,113.5L111.4,97c-8.5,6.4-13.2,18.8-14,37.3
						c-0.8,18.6-0.8,36.5,0,53.7c4.5,12,9,11.9,13.9,0C116.3,175.8,118.4,151,117.7,113.5L117.7,113.5z M111.5,96.6
						c0.1,0,0.2,0,0.2,0.1l6.4,16.8c0.7,37.6-1.4,62.3-6.4,74.6s-10,12.3-14.6-0.1c-0.8-17.1-0.8-35,0-53.7S102.7,103,111.5,96.6
						C111.4,96.6,111.5,96.6,111.5,96.6z"/>
				</defs>
				<clipPath id="SVGID_00000178198733212787129550000011041377307915656102_">
					<use xlink:href="#SVGID_00000109725758609512247480000005297881993755484826_"  style="overflow:visible;"/>
				</clipPath>
				<g style="clip-path:url(#SVGID_00000178198733212787129550000011041377307915656102_);">
					<rect x="94.6" y="94.7" width="25.4" height="104.3"/>
				</g>
			</g>
		</g>
	</g>
	<g>
		<g>
			<g>
				<defs>
					<path id="SVGID_00000083055697218080078350000011520175632966815880_" d="M97.3,188c5.2-26.3,7.5-44.3,6.8-54
						c-2.1-28.7,12.1,42.6,7.5,54C106.5,200.1,101.8,200.1,97.3,188L97.3,188z"/>
				</defs>
				<clipPath id="SVGID_00000011002673981050050940000001125228920280853416_">
					<use xlink:href="#SVGID_00000083055697218080078350000011520175632966815880_"  style="overflow:visible;"/>
				</clipPath>
				<g style="clip-path:url(#SVGID_00000011002673981050050940000001125228920280853416_);">
					<rect x="95.4" y="125.4" width="18.9" height="73.5"/>
				</g>
			</g>
		</g>
	</g>
	<g>
		<g>
			<g>
				<defs>
					<path id="SVGID_00000034778096404256744660000010474616084269627790_" d="M106.4,103.2c1.2-3.3,3.5-6.1,6.4-7.9
						c4.3-2.5,15.6-3.7,28.8-3.7V71.3H165v21.1c18.9,1.5,36.2,4.8,39.4,8.9c6.8,9,0,48.3-10.7,60.3s-1.6,41,0,48.5s10.6,24.2,7,25.4
						s-53.9,4.2-73,1.2c-12.8-2-21.2-2-32.4-15.3c14.1-23.9,11.9-33.8,13.2-38c2.1-6.3,0.2-28.4-2.1-42.1c-0.6-3.5-1.3-7.7-1.8-12.2
						"/>
				</defs>
				<clipPath id="SVGID_00000052819583411846678540000014008905388217222541_">
					<use xlink:href="#SVGID_00000034778096404256744660000010474616084269627790_"  style="overflow:visible;"/>
				</clipPath>
				<g style="clip-path:url(#SVGID_00000052819583411846678540000014008905388217222541_);">
					<rect x="93.6" y="69.5" class="st3" width="115.4" height="170.4"/>
				</g>
			</g>
		</g>
	</g>
	<g>
		<g>
			<g>
				<defs>
					<path id="SVGID_00000031919390076339229780000016230407428656407998_" d="M106,198.7c-2.5,8-6,15.7-10.4,22.8
						c4,4.8,7.7,7.9,11.9,10.2s7.9,3.2,15.5,4.3l2.3,0.3l2.4,0.4c8.5,1.3,24.1,1.6,42.3,0.9c14.5-0.5,28.7-1.6,30.6-2.2
						c0.9-0.3,1-1.9,0.2-4.7c-1-3.3-2.2-6.5-3.5-9.7c-2.5-6.2-3.3-8.5-3.8-10.8c-0.1-0.3-1.8-7.2-2.4-10c-1.2-5.3-2.1-10.6-2.5-16
						c-0.7-10,0.7-17.8,5-22.6c10.5-11.9,17.4-51.1,10.6-60.1c-2.9-3.8-18.6-7.2-39.4-9v-21h-23c-0.1,13.5-0.1,20.2-0.2,20.2
						c-14.1,0-24.7,1.3-28.7,3.7c-2.9,1.8-5.2,4.6-6.4,7.8c0,0.1-0.1,0.1-0.3-0.1c1.2-3.3,3.5-6.1,6.5-8c4.1-2.4,14.6-3.7,28.7-3.7
						c0.1-13.5,0.1-20.2,0.2-20.2c15.7,0.1,23.6,0.1,23.6,0.2v21c20.7,1.7,36.4,5,39.4,9c6.9,9.1,0,48.5-10.7,60.5
						c-4.2,4.7-5.6,12.4-4.9,22.4c0.4,5.4,1.3,10.7,2.5,15.9c0.6,2.8,2.3,9.6,2.4,10c0.5,2.2,1.4,4.6,3.9,10.9
						c1.3,3.1,2.5,6.3,3.5,9.5c0.8,3,0.8,4.8-0.4,5.1c-2,0.6-16.2,1.7-30.7,2.2c-18.2,0.6-33.8,0.4-42.4-0.9l-2.4-0.4l-2.3-0.3
						c-7.6-1.1-11.5-2.1-15.6-4.3s-8-5.5-12.1-10.6c5.2-8.8,8.5-16.3,10.4-22.9c0.7-2.4,1.2-4.8,1.6-7.2c0.1-0.9,0.3-1.8,0.4-2.8
						c0.1-0.5,0.2-2.1,0.2-2.2c0.1-1,0.3-2,0.5-2.9c1.9-5.6,0.6-25.9-2.1-42.1c-0.9-5.4-1.4-8.5-1.8-12.2c0-0.1,0.1-0.1,0.4,0
						c0.4,3.7,0.9,6.9,1.8,12.2c2.7,16.2,4,36.6,2.1,42.2c-0.3,0.9-0.4,1.9-0.5,2.9c0,0.1-0.2,1.7-0.2,2.2c-0.1,1-0.2,1.8-0.4,2.8
						C107.3,193.9,106.8,196.3,106,198.7L106,198.7z"/>
				</defs>
				<clipPath id="SVGID_00000031202367482871475090000006781290952089892247_">
					<use xlink:href="#SVGID_00000031919390076339229780000016230407428656407998_"  style="overflow:visible;"/>
				</clipPath>
				<g style="clip-path:url(#SVGID_00000031202367482871475090000006781290952089892247_);">
					<rect x="93.4" y="69.3" width="115.8" height="170.8"/>
				</g>
			</g>
		</g>
	</g>
	<g>
		<g>
			<g>
				<defs>
					<path id="SVGID_00000158713233796531236260000015997063638562663069_" d="M106.4,103.1c1.2-3.3,3.5-6.1,6.4-7.9
						c4.3-2.5,5.8,56.2,5.8,99.7c0,21.1-5.8,40.3-23.2,26.6c14.1-23.9,11.9-33.8,13.2-38c2.1-6.3,0.2-28.4-2.1-42.1
						c-0.6-3.5-1.3-7.7-1.8-12.2L106.4,103.1z"/>
				</defs>
				<clipPath id="SVGID_00000163787732554187586270000009645675713773447599_">
					<use xlink:href="#SVGID_00000158713233796531236260000015997063638562663069_"  style="overflow:visible;"/>
				</clipPath>
				<g style="clip-path:url(#SVGID_00000163787732554187586270000009645675713773447599_);">
					<rect x="93.6" y="93.4" width="26.8" height="134.6"/>
					<rect x="93.6" y="93.4" width="26.8" height="134.6"/>
				</g>
			</g>
		</g>
	</g>
	<g>
		<g>
			<g>
				<defs>
					<path id="SVGID_00000023979169351480129780000014074926427821695885_" d="M143.9,93.9c1.9,0,4.6-1.8,7.5-4.5l0.4-0.4
						c0.3-0.3,0.6-0.7,0.9-0.9s1.7-0.1,1.9-0.3c3.6-4.1,6.4-10,8-17c3.1-13.8,6.8-37.1-6.8-37.1s-27.2,8.5-27.2,22.2
						S139.1,93.9,143.9,93.9L143.9,93.9z"/>
				</defs>
				<clipPath id="SVGID_00000151533929466788182620000005361673543478614697_">
					<use xlink:href="#SVGID_00000023979169351480129780000014074926427821695885_"  style="overflow:visible;"/>
				</clipPath>
				<g style="clip-path:url(#SVGID_00000151533929466788182620000005361673543478614697_);">
					<rect x="126.6" y="31.8" class="st3" width="40.7" height="63.9"/>
				</g>
			</g>
		</g>
	</g>
	<g>
		<g>
			<g>
				<defs>
					<path id="SVGID_00000133502361497156092040000011579502113947712955_" d="M146.5,177.8c-2.7-14.3-4-29.4-2.6-43.6
						c1.3-13,8.4-26.9,21.2-41.7c18.9,1.5,36.2,4.8,39.4,8.9c6.8,9,0,48.3-10.7,60.3s-1.6,41,0,48.5s10.6,21.1,7,25.4
						s-10.6,8.5-29.8,5.5C166.8,240.4,152.8,211.4,146.5,177.8z"/>
				</defs>
				<clipPath id="SVGID_00000079448145004407177270000013673107380846317699_">
					<use xlink:href="#SVGID_00000133502361497156092040000011579502113947712955_"  style="overflow:visible;"/>
				</clipPath>
				<g style="clip-path:url(#SVGID_00000079448145004407177270000013673107380846317699_);">
					<rect x="141.5" y="90.7" class="st3" width="67.6" height="153.2"/>
				</g>
			</g>
		</g>
	</g>
	<g>
		<g>
			<g>
				<defs>
					<path id="SVGID_00000056386178398947969370000005481356810951886749_" d="M204.3,101.6c-2.9-3.9-18.6-7.2-39.2-8.9
						c-12.8,14.7-19.9,28.5-21.1,41.5c-1.3,13.2-0.3,28,2.6,43.5c2.9,15.1,7.2,29.8,13.1,44c4.7,11.2,9.3,18.8,11.4,19.2
						c8.9,1.4,15.6,1.3,20.6,0c3.5-0.8,6.7-2.7,9-5.4c1-1.1,1.1-3.1,0.4-5.8c-0.8-2.9-1.9-5.8-3.2-8.5l-0.4-0.9
						c-2.6-5.8-3.3-7.7-3.8-10c-0.1-0.3-1.8-7.2-2.4-10c-1.2-5.3-2.1-10.6-2.5-16c-0.7-10,0.7-17.8,5-22.6
						C204.2,149.7,211.1,110.6,204.3,101.6L204.3,101.6z M171,241.3c-2.3-0.4-6.9-8-11.6-19.4c-5.8-14.2-10.2-29-13.1-44.1
						c-2.9-15.6-3.9-30.4-2.6-43.6c1.3-13.1,8.4-27,21.4-41.8c20.8,1.7,36.5,5,39.5,9c6.9,9.1,0,48.5-10.7,60.5
						c-4.2,4.7-5.6,12.4-4.9,22.4c0.4,5.4,1.3,10.7,2.5,15.9c0.6,2.8,2.3,9.6,2.4,10c0.5,2.2,1.3,4.1,3.8,9.9
						c0.1,0.4,0.3,0.6,0.4,0.9c1.3,2.8,2.4,5.6,3.2,8.6c0.7,2.9,0.6,4.9-0.4,6.1c-2.4,2.8-5.6,4.7-9.2,5.5
						C186.7,242.6,180,242.7,171,241.3L171,241.3z"/>
				</defs>
				<clipPath id="SVGID_00000150070013297625745580000009270834112542728855_">
					<use xlink:href="#SVGID_00000056386178398947969370000005481356810951886749_"  style="overflow:visible;"/>
				</clipPath>
				<g style="clip-path:url(#SVGID_00000150070013297625745580000009270834112542728855_);">
					<rect x="141.3" y="90.5" width="67.9" height="153.6"/>
				</g>
			</g>
		</g>
	</g>
	<g>
		<g>
			<g>
				<defs>
					<path id="SVGID_00000095306096205105303970000008999538696634460831_" d="M193.8,210.2c1.7,7.4-25.8-5.9-43.9-41.7
						c-5.8-11.4,22,12.1,27.9,1.7c8.1-14.3,9.8-44.6,11.4-41.5c6.8,9,15.3,21,4.6,33S192.1,202.8,193.8,210.2L193.8,210.2z"/>
				</defs>
				<clipPath id="SVGID_00000091005009355398691760000002147999218990979236_">
					<use xlink:href="#SVGID_00000095306096205105303970000008999538696634460831_"  style="overflow:visible;"/>
				</clipPath>
				<g style="clip-path:url(#SVGID_00000091005009355398691760000002147999218990979236_);">
					<rect x="147.3" y="126.7" width="53.4" height="87.3"/>
				</g>
			</g>
		</g>
	</g>
	<g>
		<g>
			<g>
				<defs>
					<path id="SVGID_00000176012255083136732110000012804947191102197672_" d="M183.2,94.8c-5.4-0.9-11.6-1.6-18.1-2.1
						c-12.8,14.7-19.9,28.5-21.1,41.5c-1.2,12.7-0.4,26.8,2.3,41.7c0.3-14,4.6-27.6,11.9-41c0.2-0.3-0.5-1.1-2.4-2.7
						c-2.3-1.9-2.8-2.6-2.5-3.2c0.4-0.7,1.4-1.1,3.9-1.7h0.1c2.3-0.6,3.2-0.9,3.5-1.4c1-1.5,2.1-2.9,3.2-4.4
						c2.8-3.7,5.6-7.2,9.1-11.1c1.3-1.5,6.3-7.1,7.3-8.3c1.5-1.6,2.8-3.4,3.9-5.3C184.9,95.6,184.6,95,183.2,94.8L183.2,94.8z
						 M183.2,94.6c1.6,0.2,2,1.1,1.4,2.5c-0.5,1.2-1.7,2.8-3.9,5.4c-1,1.2-6,6.7-7.3,8.3c-3.4,3.8-6.2,7.3-9,11
						c-1.1,1.5-2.1,2.9-3.1,4.4c-0.4,0.7-1.3,1-3.8,1.6h-0.1c-2.4,0.6-3.4,0.9-3.7,1.6c-0.2,0.3,0.5,1,2.5,2.7
						c2.2,1.9,2.8,2.6,2.5,3.2c-7.7,14-11.9,28.1-11.9,42.7c0,0.1-0.1,0.2-0.2,0.2c-0.1,0-0.2-0.1-0.2-0.2
						c-2.9-15.6-3.9-30.4-2.6-43.7c1.3-13.1,8.4-27,21.3-41.8l0.1-0.1c6.5,0.5,12.7,1.2,18.2,2.1L183.2,94.6z"/>
				</defs>
				<clipPath id="SVGID_00000041269537340043240590000015159640496649918382_">
					<use xlink:href="#SVGID_00000176012255083136732110000012804947191102197672_"  style="overflow:visible;"/>
				</clipPath>
				<g style="clip-path:url(#SVGID_00000041269537340043240590000015159640496649918382_);">
					<rect x="141.3" y="90.5" width="45.5" height="89.3"/>
				</g>
			</g>
		</g>
	</g>
	<g>
		<g>
			<g>
				<defs>
					<path id="SVGID_00000082362263833614430380000014763681457011490998_" d="M104.7,128.4c0.2-11.1,0.4-18.3,0.7-21.7
						c0.2-2.3,0.6-3.7,1.3-4.1c1.2-3,3.4-5.6,6.2-7.3c4.3-2.5,15.6-3.7,28.8-3.7c-12,9.9-18.8,25-20.4,45.3
						c-5.1,64.8-10.5,85.9-21.4,87.8s-12.7,0-14.8-2.8c17.9-23.2,22.2-34.3,23.6-38.5c2.1-6.3,0.2-28.4-2.1-42.1
						C105.9,137.6,105.2,133.1,104.7,128.4L104.7,128.4z"/>
				</defs>
				<clipPath id="SVGID_00000054944840818074968110000018374393506585621694_">
					<use xlink:href="#SVGID_00000082362263833614430380000014763681457011490998_"  style="overflow:visible;"/>
				</clipPath>
				<g style="clip-path:url(#SVGID_00000054944840818074968110000018374393506585621694_);">
					<rect x="83.3" y="89.8" class="st3" width="60.2" height="137.6"/>
				</g>
			</g>
		</g>
	</g>
	<g>
		<g>
			<g>
				<defs>
					<path id="SVGID_00000176017827583356456250000012580031487031020950_" d="M103.2,195.6c-5.3,9.2-11.3,18-17.9,26.3
						c0.9,1.4,2.3,2.5,4,2.9c2.2,0.6,5.5,0.5,10.6-0.4c10.7-1.9,16.1-24,21.2-87.7c1.6-20.1,8.3-35.2,20.1-45.1
						c-13.9,0.1-24.2,1.3-28.2,3.7c-2.8,1.7-4.9,4.2-6.1,7.2c0,0.1-0.1,0.1-0.3-0.2c1.2-3.1,3.4-5.6,6.3-7.4
						c4.1-2.4,14.7-3.7,28.9-3.7c0.1,0,0.1,0,0.1,0.1c0.1,0.1,0.1,0.2,0,0.3c-11.9,9.8-18.7,24.9-20.3,45.2
						c-5.1,63.9-10.5,86.1-21.5,88c-5.1,0.9-8.5,1-10.7,0.4c-1.8-0.5-2.8-1.3-4.3-3.4c6.6-8.4,12.6-17.2,18-26.4
						c2.2-3.8,4.1-7.8,5.6-12c1.9-5.6,0.6-25.9-2.1-42.1c-1-5.7-1.5-9-1.9-13c0-0.1,0.1-0.2,0.2-0.2l0,0c0.1,0,0.2,0.1,0.2,0.2
						c0.4,4,0.9,7.3,1.9,13c2.7,16.2,4,36.6,2.1,42.2C107.4,187.8,105.5,191.8,103.2,195.6L103.2,195.6z"/>
				</defs>
				<clipPath id="SVGID_00000182487662204297909520000009077707350023261830_">
					<use xlink:href="#SVGID_00000176017827583356456250000012580031487031020950_"  style="overflow:visible;"/>
				</clipPath>
				<g style="clip-path:url(#SVGID_00000182487662204297909520000009077707350023261830_);">
					<rect x="83.1" y="89.6" width="60.5" height="137.9"/>
				</g>
			</g>
		</g>
	</g>
	<g>
		<g>
			<g>
				<defs>
					<path id="SVGID_00000051361263479991071390000012164602961157736873_" d="M141.6,91.6c-12,9.9-18.8,25-20.4,45.3
						c-1.1,13.5-2.2,25.1-3.3,35.1c-5.1-25.2-3.9-27.9-6.2-41.7c-0.6-3.4,7-4.2,7-6.2s-7.3-0.5-7-4.2c0.7-10.4,16.8-28.7,21.1-29.2
						C137.5,90.3,136.5,89.9,141.6,91.6L141.6,91.6z"/>
				</defs>
				<clipPath id="SVGID_00000139285949499414837070000014170891470243071931_">
					<use xlink:href="#SVGID_00000051361263479991071390000012164602961157736873_"  style="overflow:visible;"/>
				</clipPath>
				<g style="clip-path:url(#SVGID_00000139285949499414837070000014170891470243071931_);">
					<rect x="109.9" y="88.5" class="st3" width="33.6" height="85.2"/>
				</g>
			</g>
		</g>
	</g>
	<g>
		<g>
			<g>
				<defs>
					<path id="SVGID_00000024723105777591880990000017207240228837186449_" d="M141.3,91.7c-2.9-0.9-3.5-1.1-4.4-1.1
						c-0.5,0-1,0-1.5,0.1l-1.1,0.1l-1.5,0.2c-2,0.2-7.1,4.8-11.7,10.8c-5.3,6.7-8.8,13.5-9.2,18.2c-0.1,1.5,0.9,2.1,3.4,2.6l0.5,0.1
						l0.5,0.1c2,0.3,2.6,0.6,2.6,1.4c0,0.6-0.5,1.1-1.7,1.7l-0.9,0.4l-0.2,0.1l-0.2,0.1l-0.5,0.2c-2.6,1.2-3.6,2.2-3.4,3.5
						c0.7,3.9,1,6.8,1.5,11.2c0,0.3,0.1,0.5,0.1,0.9c0.9,9.6,2.4,19.1,4.4,28.4c1.1-9.6,2.2-20.8,3.2-33.9
						C122.7,116.6,129.4,101.6,141.3,91.7z M136.9,90.2c0.9,0,1.6,0.2,4.8,1.2c0,0,0.1,0,0.1,0.1c0.1,0.1,0.1,0.2,0,0.3
						c-11.9,9.8-18.7,24.9-20.3,45.2c-1.1,13.7-2.2,25.3-3.3,35.1c0,0.1-0.1,0.1-0.1,0.1c-0.1,0-0.2,0-0.2-0.1
						c-2.1-9.8-3.7-19.7-4.6-29.6c0-0.3-0.1-0.6-0.1-0.9c-0.5-4.3-0.8-7.3-1.5-11.2c-0.3-1.6,0.9-2.6,3.6-3.9l0.5-0.2l0.2-0.1
						l0.2-0.1l0.9-0.4c1-0.5,1.5-0.9,1.5-1.4s-0.6-0.8-2.4-1.1l-0.5-0.1l-0.5-0.1c-2.6-0.5-3.8-1.3-3.7-3c0.3-4.8,3.9-11.6,9.2-18.4
						c4.7-6,9.8-10.7,12-10.9c0.5,0,1-0.1,1.5-0.2l1.1-0.1C135.9,90.2,136.4,90.2,136.9,90.2L136.9,90.2z"/>
				</defs>
				<clipPath id="SVGID_00000083051468121775527990000011996856748246460580_">
					<use xlink:href="#SVGID_00000024723105777591880990000017207240228837186449_"  style="overflow:visible;"/>
				</clipPath>
				<g style="clip-path:url(#SVGID_00000083051468121775527990000011996856748246460580_);">
					<rect x="109.7" y="88.3" width="34" height="85.6"/>
				</g>
			</g>
		</g>
	</g>
	<g>
		<g>
			<g>
				<defs>
					<path id="SVGID_00000025412301481778961630000005821897614344978869_" d="M153,151.6c7.1,3.8,9.6,32.1-5,16.6
						c-7-7.4-12.3-13.1-13.4-13.1c-2.2,0-5.8-1.2-10.9-3.6l-3.9,1c2.4,5.4,3.1,7.7,1.9,7s-6.4-5.7-15.8-14.8l4.8-4.5l-8.7-1.3
						l-3.8-4.7h17.5c3,0,20.4,8,24.8,10.4C141.9,145.6,146,147.9,153,151.6L153,151.6z"/>
				</defs>
				<clipPath id="SVGID_00000054259743769597213290000018438357140901871265_">
					<use xlink:href="#SVGID_00000025412301481778961630000005821897614344978869_"  style="overflow:visible;"/>
				</clipPath>
				<g style="clip-path:url(#SVGID_00000054259743769597213290000018438357140901871265_);">
					<rect x="96.4" y="132.5" class="st3" width="64.1" height="42.1"/>
				</g>
			</g>
		</g>
	</g>
	<g>
		<g>
			<g>
				<defs>
					<path id="SVGID_00000079445802520041142330000015536113290151476642_" d="M98.6,134.6l3.5,4.3l8.6,1.3c0,0,0.1,0,0.1,0.1
						c0.1,0.1,0.1,0.2,0,0.3l-4.6,4.3c9.3,9,14.5,13.9,15.6,14.6c0.2,0.1,0.3,0.1,0.3,0.1c0-0.4,0-0.7-0.1-1.1
						c-0.6-2-1.4-3.9-2.3-5.7l0,0c0-0.1,0-0.2,0.1-0.2c2.6-0.7,4-1,4-1c5,2.4,8.6,3.6,10.8,3.6c1,0,3.1,2.1,13.5,13.1
						c3.4,3.6,6,4.9,7.8,4.4c1.5-0.5,2.4-2.4,2.6-5.4c0.3-6-2.3-13.6-5.6-15.4c-6.9-3.7-11.1-6-12.5-6.8c-6-3.4-22.2-10.4-24.7-10.4
						L98.6,134.6z M102.1,138.9L102.1,138.9L102.1,138.9L102.1,138.9z M134.6,155.4c-2.2,0-5.9-1.2-10.9-3.6l-3.6,0.9
						c0.9,1.8,1.6,3.7,2.2,5.6c0.2,0.4,0.2,0.8,0.1,1.3c-0.1,0.3-0.4,0.4-0.8,0.1c-1.2-0.7-6.5-5.6-15.8-14.8l0,0
						c-0.1-0.1-0.1-0.2,0-0.3l4.5-4.2c-5.6-0.8-8.4-1.3-8.4-1.3l-3.8-4.7v-0.1c0-0.1,0.1-0.2,0.2-0.2h17.4c2.6,0,18.8,7.1,24.9,10.5
						c1.4,0.8,5.6,3.1,12.5,6.8c3.4,1.9,6.1,9.6,5.8,15.7c-0.2,3.1-1.1,5.2-2.8,5.7c-1.9,0.6-4.7-0.8-8.1-4.5
						C137.8,157.8,135.4,155.4,134.6,155.4L134.6,155.4z"/>
				</defs>
				<clipPath id="SVGID_00000042005661744442058040000009410945150648977313_">
					<use xlink:href="#SVGID_00000079445802520041142330000015536113290151476642_"  style="overflow:visible;"/>
				</clipPath>
				<g style="clip-path:url(#SVGID_00000042005661744442058040000009410945150648977313_);">
					<rect x="96.2" y="132.4" width="64.4" height="42.5"/>
				</g>
			</g>
		</g>
	</g>
	<g>
		<g>
			<g>
				<defs>
					<path id="SVGID_00000098931818881368582050000006122299311589625504_" d="M196.7,105.1c1.9-3.4,4-5.4,6-4.9
						c5.5,1.3,14,19.7,14,33s-11.9,65.4-23.9,70.3c-9,3.7-37.1-23.9-51.2-38.6c-4.7-4.9,2.3-18.1,6.2-16c4.7,2.5,16.4,8.9,35,18.9
						c3-17.9,5.2-30.9,6.4-39.1"/>
				</defs>
				<clipPath id="SVGID_00000039813705113670132950000015993847259587573422_">
					<use xlink:href="#SVGID_00000098931818881368582050000006122299311589625504_"  style="overflow:visible;"/>
				</clipPath>
				<g style="clip-path:url(#SVGID_00000039813705113670132950000015993847259587573422_);">
					<rect x="138.3" y="98.3" class="st3" width="80.3" height="107.4"/>
				</g>
			</g>
		</g>
	</g>
	<g>
		<g>
			<g>
				<defs>
					<path id="SVGID_00000036935076926947863520000011596209722234509976_" d="M148,148.7l34.7,18.8c3-17.8,5.1-30.7,6.4-38.8
						c0-0.1,0.1-0.2,0.4,0.1c-1.3,8.1-3.4,21.1-6.4,39.1l0,0c0,0.1-0.2,0.1-0.3,0.1c-18.7-10.1-30.3-16.4-35-18.9
						c-1.7-0.9-4.4,1.4-6.1,5.3c-1.9,4.1-2,8.3,0.1,10.4c8.7,9.2,17.8,18,27.5,26.2c11.3,9.4,19.5,14,23.5,12.4
						c5.4-2.2,11.2-14.2,16.4-31.9c4.3-14.6,7.5-31.2,7.5-38.2c0-12.7-8.2-31.5-13.9-32.9c-1.8-0.4-3.8,1.3-5.8,4.8
						c-0.1,0.1-0.2,0.1-0.3-0.2c2.1-3.7,4.2-5.5,6.2-5c5.9,1.4,14.1,20.4,14.1,33.2c0,7-3.2,23.7-7.5,38.3
						c-5.2,17.8-11.1,29.9-16.6,32.1c-4.2,1.7-12.5-2.9-23.9-12.4c-9.6-8.2-18.8-17-27.5-26.2c-2.1-2.3-2.1-6.6-0.1-10.9
						C143.2,150.2,146,147.7,148,148.7L148,148.7z"/>
				</defs>
				<clipPath id="SVGID_00000022524925441944460220000015304606546758987427_">
					<use xlink:href="#SVGID_00000036935076926947863520000011596209722234509976_"  style="overflow:visible;"/>
				</clipPath>
				<g style="clip-path:url(#SVGID_00000022524925441944460220000015304606546758987427_);">
					<rect x="138.1" y="98.1" width="80.7" height="107.8"/>
				</g>
			</g>
		</g>
	</g>
	<g>
		<g>
			<g>
				<defs>
					<path id="SVGID_00000165947209285892274180000010889923909319877302_" d="M81.6,179.5l3.3,4.1h15.3l-2-13.7
						c-5.3,2.3-9.5,4.1-12.5,5.5C82.6,176.6,81.2,178,81.6,179.5L81.6,179.5z"/>
				</defs>
				<clipPath id="SVGID_00000068651195801133738240000015808050088260183479_">
					<use xlink:href="#SVGID_00000165947209285892274180000010889923909319877302_"  style="overflow:visible;"/>
				</clipPath>
				<g style="clip-path:url(#SVGID_00000068651195801133738240000015808050088260183479_);">
					<rect x="79.7" y="168" width="22.3" height="17.4"/>
				</g>
			</g>
		</g>
	</g>
	<g>
		<g>
			<g>
				<defs>
					<path id="SVGID_00000139983687063173911440000000482980698416929667_" d="M96.5,116.4l27.3,52.3c0.2,0.3,0.1,0.7-0.2,0.9
						l-1.6,1.3l-38.5-6l-27.7-53.1l0.8-2c0.1-0.3,0.5-0.5,0.8-0.4l37.5,5.8C95.6,115.3,96.2,115.7,96.5,116.4L96.5,116.4z
						 M96.5,116.4l27.3,52.3c0.2,0.3,0.1,0.7-0.2,0.9l-1.6,1.3l-38.5-6l-27.7-53.1l0.8-2c0.1-0.3,0.5-0.5,0.8-0.4l37.5,5.8
						C95.6,115.3,96.2,115.7,96.5,116.4L96.5,116.4z"/>
				</defs>
				<clipPath id="SVGID_00000090286275673855035310000012915495120924399033_">
					<use xlink:href="#SVGID_00000139983687063173911440000000482980698416929667_"  style="overflow:visible;"/>
				</clipPath>
				<g style="clip-path:url(#SVGID_00000090286275673855035310000012915495120924399033_);">
					<rect x="54" y="107.6" class="st3" width="71.8" height="65.1"/>
				</g>
			</g>
		</g>
	</g>
	<g>
		<g>
			<g>
				<defs>
					<path id="SVGID_00000126323428724994918340000006942327906628816286_" d="M96.7,116.3l27.3,52.3c0.2,0.4,0.1,0.9-0.2,1.1
						c-1.1,0.9,36.9,7.3-1.8,1.3c-25.8-4-38.6-6-38.6-6.1c-18.5-35.3-27.7-53.1-27.7-53.1l0.8-2c0.2-0.4,0.6-0.6,1-0.6L95,115
						C95.7,115.1,96.4,115.6,96.7,116.3L96.7,116.3z M56.8,109.9l-0.8,1.9l27.6,52.9l38.3,5.9l1.5-1.2c0.2-0.2,0.3-0.4,0.1-0.7
						l-27.4-52.3c-0.3-0.6-0.8-1-1.5-1.1l-37.5-5.8C57.2,109.5,56.9,109.7,56.8,109.9L56.8,109.9z"/>
				</defs>
				<clipPath id="SVGID_00000096771356170690708390000009785160091179192983_">
					<use xlink:href="#SVGID_00000126323428724994918340000006942327906628816286_"  style="overflow:visible;"/>
				</clipPath>
				<g style="clip-path:url(#SVGID_00000096771356170690708390000009785160091179192983_);">
					<rect x="53.8" y="107.4" width="72.1" height="65.5"/>
				</g>
			</g>
		</g>
	</g>
	<g>
		<g>
			<g>
				<defs>
					<path id="SVGID_00000000224355156959389200000003320324925759305888_" d="M95.4,118.2l27,51.6c0.2,0.4,0,0.8-0.3,1
						c-0.1,0.1-0.3,0.1-0.4,0.1l-39.2-4.1L56,112.4c-0.2-0.4,0-0.8,0.3-1c0.1-0.1,0.3-0.1,0.4-0.1l37.1,5.8
						C94.5,117.1,95.1,117.6,95.4,118.2L95.4,118.2z"/>
				</defs>
				<clipPath id="SVGID_00000070117619399158407810000000078163673364099998_">
					<use xlink:href="#SVGID_00000000224355156959389200000003320324925759305888_"  style="overflow:visible;"/>
				</clipPath>
				<g style="clip-path:url(#SVGID_00000070117619399158407810000000078163673364099998_);">
					<rect x="54.1" y="109.4" class="st3" width="70.3" height="63.3"/>
				</g>
			</g>
		</g>
	</g>
	<g>
		<g>
			<g>
				<defs>
					<path id="SVGID_00000061448091434066488140000005004603458020356744_" d="M95.6,118.1l27,51.6l0,0c0.2,0.4,0.1,1-0.4,1.2
						c-0.2,0.1-0.3,0.1-0.5,0.1c-26.2-2.8-39.4-4.2-39.4-4.2l-26.5-54.4c-0.1-0.2-0.1-0.4-0.1-0.6c0.1-0.5,0.6-0.8,1.1-0.7l37.1,5.8
						C94.6,117,95.3,117.4,95.6,118.1L95.6,118.1z M82.6,166.6L82.6,166.6L82.6,166.6L82.6,166.6z M56.2,112.2l26.5,54.3l39.1,4.1
						c0.1,0,0.2,0,0.3-0.1c0.3-0.1,0.4-0.5,0.2-0.7l-27-51.6c-0.3-0.6-0.8-1-1.5-1.1l-37.1-5.6c-0.1,0-0.2,0-0.3,0l0,0
						C56.1,111.6,56,112,56.2,112.2L56.2,112.2z"/>
				</defs>
				<clipPath id="SVGID_00000151516809766953875380000002508131150280021158_">
					<use xlink:href="#SVGID_00000061448091434066488140000005004603458020356744_"  style="overflow:visible;"/>
				</clipPath>
				<g style="clip-path:url(#SVGID_00000151516809766953875380000002508131150280021158_);">
					<rect x="53.9" y="109.2" width="70.6" height="63.7"/>
				</g>
			</g>
		</g>
	</g>
	<g>
		<g>
			<g>
				<defs>
					<path id="SVGID_00000026844660852790603040000008846790906961687956_" d="M92.3,121.8c0.4-0.2,0.6-0.8,0.4-1.2
						c-0.3-0.7-0.9-1.2-1.7-1.3c-0.7,0-1,0.6-0.8,1.3c0.3,0.7,0.9,1.2,1.7,1.3C92,121.9,92.2,121.8,92.3,121.8z"/>
				</defs>
				<clipPath id="SVGID_00000061450829341701910180000009375072179006089103_">
					<use xlink:href="#SVGID_00000026844660852790603040000008846790906961687956_"  style="overflow:visible;"/>
				</clipPath>
				<g style="clip-path:url(#SVGID_00000061450829341701910180000009375072179006089103_);">
					<rect x="88.2" y="117.5" width="6.3" height="6.2"/>
				</g>
			</g>
		</g>
	</g>
	<g>
		<g>
			<g>
				<defs>
					<path id="SVGID_00000050656386595128223690000009888207023929609096_" d="M95.6,167.4c1.2-1.1,2.1-2.4,2.8-3.9
						c0.8-1.2,1.2-2.6,1.4-4c4.6-6.3,6.6-9.9,6-10.8c-1-1.2-10.2,7.4-10.2,5.8s5.6-18.1,4.2-18.8c-0.9-0.5-3.9,4.1-9.1,13.8
						c1.6-13.7,1.9-20.7,0.9-20.9s-3.3,6.1-6.7,18.9c-1.6-14.7-2.9-22.1-4-22.1s-1.9,8.4-2.5,25.1c-2-2.7-3.8-5.4-5.4-8.3
						c-1.3-2.5-2.9-3.2-4.8-2.1l4.8,14.5l5.4,12.9c2.6,6.1,7.6,12.9,14.9,20.4c11,11.3,10.8-8.4,9.2-11.3
						C100.5,173.3,98.2,170.3,95.6,167.4L95.6,167.4z"/>
				</defs>
				<clipPath id="SVGID_00000034066928595328160810000000829053728331282617_">
					<use xlink:href="#SVGID_00000050656386595128223690000009888207023929609096_"  style="overflow:visible;"/>
				</clipPath>
				<g style="clip-path:url(#SVGID_00000034066928595328160810000000829053728331282617_);">
					<rect x="66.4" y="123.6" class="st3" width="41.4" height="69.6"/>
				</g>
			</g>
		</g>
	</g>
	<g>
		<g>
			<g>
				<defs>
					<path id="SVGID_00000106134325758094352370000004609770493030828178_" d="M98.5,163.7c-0.7,1.4-1.6,2.7-2.7,3.8
						c2.5,2.8,4.8,5.8,6.8,9c1,1.7,1.2,7.6,0.2,11.1c-1.4,4.9-4.6,5.5-9.6,0.4c-7.4-7.5-12.4-14.4-14.9-20.5l-5.4-12.9l-4.7-14.5
						c0-0.1,0-0.2,0.1-0.2c2-1.1,3.7-0.4,5,2.1c1.5,2.7,3.2,5.4,5.1,7.9c0.6-16.8,1.5-24.7,2.7-24.7s2.5,6.9,4,21.2
						c3.4-12.5,5.5-18.3,6.7-18.1s0.9,6.7-0.6,20.1c5-9.4,7.8-13.6,8.9-13c0.7,0.4,0.1,3.5-1.6,9.7l-0.3,1.1
						c-0.2,0.6-1.3,4.4-1.5,5.3c-0.3,0.9-0.5,1.9-0.7,2.9c0,0.1,0,0.1,0.2,0c0.4-0.1,0.7-0.3,1.1-0.6c0.7-0.5,0.9-0.6,3.4-2.4
						l0.3-0.2c3.4-2.5,4.8-3.3,5.3-2.7c0.7,0.9-1.3,4.5-6,10.9C99.8,161.1,99.3,162.4,98.5,163.7L98.5,163.7z M72.9,142.2
						c-1.3-2.3-2.7-3-4.4-2.1l4.8,14.4l5.4,12.9c2.6,6.1,7.5,12.9,14.9,20.4c4.8,4.9,7.7,4.3,9-0.3c1-3.4,0.8-9.2-0.1-10.8
						c-2-3.2-4.3-6.3-6.9-9.1c-0.1-0.1-0.1-0.2,0-0.3c1.1-1.1,2.1-2.4,2.8-3.8c0.8-1.2,1.2-2.6,1.4-4c4.5-6.2,6.5-9.8,6-10.5
						c-0.3-0.3-1.8,0.6-4.8,2.8l-0.3,0.2c-2.5,1.8-2.7,1.9-3.4,2.4c-0.4,0.2-0.7,0.5-1.1,0.6s-0.6,0-0.6-0.3c0.1-1,0.4-2,0.7-3
						c0.3-0.9,1.4-4.8,1.5-5.3l0.3-1.1c1.6-5.6,2.3-9,1.8-9.3c-0.7-0.4-3.9,4.3-8.9,13.7c0,0.1-0.1,0.1-0.2,0.1s-0.2-0.1-0.2-0.2
						c1.6-13.4,1.9-20.5,1-20.7s-3.2,6.3-6.5,18.8c0,0.1-0.1,0.2-0.2,0.2s-0.2-0.1-0.2-0.2c-1.5-14.4-2.9-21.9-3.8-21.9
						c-0.1,0-0.4,0.5-0.6,1.4c-0.3,1.5-0.5,3.1-0.7,4.7c-0.4,4.2-0.8,10.4-1.1,18.8c0,0.1,0,0.1-0.1,0.2c-0.1,0.1-0.2,0-0.2-0.1
						C76.3,147.9,74.5,145.1,72.9,142.2L72.9,142.2z"/>
				</defs>
				<clipPath id="SVGID_00000153705996776496835170000011518522673571037824_">
					<use xlink:href="#SVGID_00000106134325758094352370000004609770493030828178_"  style="overflow:visible;"/>
				</clipPath>
				<g style="clip-path:url(#SVGID_00000153705996776496835170000011518522673571037824_);">
					<rect x="66.2" y="123.4" width="41.7" height="70"/>
				</g>
			</g>
		</g>
	</g>
	<g>
		<g>
			<g>
				<defs>
					<path id="SVGID_00000160882967097346212810000011626129954496204727_" d="M98.4,169.8c-0.5-0.4,1.2,10.8-6.7,12.4
						c-6.8,1.4-10.9-3.9-10.2-2.7c8.7,14.2,16.4,17.8,19.7,18.5c1.8-0.9,8-13,8-17.4C109.2,178.8,103.4,174,98.4,169.8L98.4,169.8z"
						/>
				</defs>
				<clipPath id="SVGID_00000026882595533232655530000015955100855093842820_">
					<use xlink:href="#SVGID_00000160882967097346212810000011626129954496204727_"  style="overflow:visible;"/>
				</clipPath>
				<g style="clip-path:url(#SVGID_00000026882595533232655530000015955100855093842820_);">
					<rect x="79.7" y="168" class="st3" width="31.4" height="31.9"/>
				</g>
			</g>
		</g>
	</g>
	<g>
		<g>
			<g>
				<defs>
					<path id="SVGID_00000029742267778694308800000011243804958798168467_" d="M98.2,169.8C98.3,169.8,98.3,169.7,98.2,169.8
						c0.1-0.1,0.2-0.2,0.3-0.1l0.5,0.4l0.5,0.4l0.9,0.8l0.7,0.6c5.7,4.8,8.3,7.4,8.3,8.8c0,4-6,16.4-8.1,17.6h-0.1
						c-2.9-0.8-5.6-2.3-7.9-4.2c-4-3.2-8-7.9-11.9-14.3c0-0.1-0.1-0.1-0.1-0.2c0-0.1,0-0.1,0-0.2c0.1-0.1,0.2-0.1,0.3-0.1
						c0.1,0.1,0.3,0.2,0.4,0.3c0.6,0.5,1.2,0.9,1.9,1.3c2.4,1.4,5.2,1.9,7.8,1.3c3.1-0.6,4.9-2.8,5.8-6c0.4-1.8,0.7-3.6,0.6-5.4
						c0-0.4,0-0.6,0-0.7C98.2,169.9,98.2,169.8,98.2,169.8L98.2,169.8z M98.5,169.9L98.5,169.9z M98.8,170.3l-0.2-0.2
						c0,0.1,0,0.3,0,0.5c0,1.9-0.2,3.7-0.6,5.5c-0.9,3.4-2.8,5.6-6.1,6.3c-2.8,0.6-5.7,0.1-8.1-1.4c-0.6-0.3-1.1-0.7-1.6-1.1
						c3,5.2,6.9,9.8,11.5,13.7c2.2,1.9,4.8,3.4,7.7,4.2c2-1.3,7.8-13.3,7.8-17.2c0-1.2-2.6-3.9-8.2-8.6l-0.7-0.6l-0.9-0.8
						L98.8,170.3L98.8,170.3z M81.7,179.3L81.7,179.3z"/>
				</defs>
				<clipPath id="SVGID_00000121261609433081783680000006505885763045728654_">
					<use xlink:href="#SVGID_00000029742267778694308800000011243804958798168467_"  style="overflow:visible;"/>
				</clipPath>
				<g style="clip-path:url(#SVGID_00000121261609433081783680000006505885763045728654_);">
					<rect x="79.5" y="167.8" width="31.8" height="32.3"/>
				</g>
			</g>
		</g>
	</g>
	<g>
		<g>
			<g>
				<defs>
					<path id="SVGID_00000043441185758742280340000002279602347721073067_" d="M140.5,91.9c-4,0-8.8-5.9-13-15.1
						c-3.9-8.6-6.5-18.6-6.5-25.3c0-12.9,12.6-22.3,27.4-22.3c13.7,0,24.9,11.1,24.9,24.9c0,6.3-5.2,15.4-13.2,24.1
						C152.7,86.1,144.7,91.8,140.5,91.9L140.5,91.9z"/>
				</defs>
				<clipPath id="SVGID_00000031913489867283056080000014136595336680908709_">
					<use xlink:href="#SVGID_00000043441185758742280340000002279602347721073067_"  style="overflow:visible;"/>
				</clipPath>
				<g style="clip-path:url(#SVGID_00000031913489867283056080000014136595336680908709_);">
					<rect x="119.2" y="27.2" width="56" height="66.4"/>
				</g>
			</g>
		</g>
	</g>
	<g>
		<g>
			<g>
				<defs>
					<path id="SVGID_00000064322730360168973410000017853269154469789118_" d="M140.5,91.4c4,0,12-5.7,19.3-13.7
						c7.9-8.6,13.1-17.6,13.1-23.8l0,0c0-13.5-11-24.5-24.5-24.5c-14.7,0-27.1,9.3-27.1,22c0,6.6,2.6,16.6,6.5,25.2
						C132,85.7,136.7,91.5,140.5,91.4L140.5,91.4z"/>
				</defs>
				<clipPath id="SVGID_00000011016237162650651030000017903542728320309902_">
					<use xlink:href="#SVGID_00000064322730360168973410000017853269154469789118_"  style="overflow:visible;"/>
				</clipPath>
				<g style="clip-path:url(#SVGID_00000011016237162650651030000017903542728320309902_);">
					<rect x="119.5" y="27.6" class="st3" width="55.3" height="65.7"/>
				</g>
			</g>
		</g>
	</g>
	<g>
		<g>
			<g>
				<defs>
					<path id="SVGID_00000101789207759819040630000007233340842025484441_" d="M133.8,60.7c0-0.7,0.6-1.3,1.3-1.3s1.3,0.6,1.3,1.3
						c0,0.1-0.1,0.2-0.2,0.2c-0.1,0-0.2-0.1-0.2-0.2s0-0.1,0-0.2c-0.1-0.5-0.5-0.9-1-0.8s-0.9,0.5-0.8,1c0,0.1-0.1,0.2-0.2,0.2l0,0
						C133.8,60.9,133.8,60.8,133.8,60.7L133.8,60.7z"/>
				</defs>
				<clipPath id="SVGID_00000142875087214184683850000013220165912697086599_">
					<use xlink:href="#SVGID_00000101789207759819040630000007233340842025484441_"  style="overflow:visible;"/>
				</clipPath>
				<g style="clip-path:url(#SVGID_00000142875087214184683850000013220165912697086599_);">
					<rect x="131.9" y="57.6" width="6.2" height="5.1"/>
				</g>
			</g>
		</g>
	</g>
	<g>
		<g>
			<g>
				<defs>
					<path id="SVGID_00000136373137618244322280000007526948814769421981_" d="M134,79.9L134,79.9c-0.1-0.1-0.1-0.2-0.1-0.2
						c0.1-0.1,0.2-0.1,0.2-0.1c1.9,1.2,4.1,0.6,6.6-1.8c0.1-0.1,0.2-0.1,0.3,0s0.1,0.2,0,0.3C138.4,80.6,136.1,81.2,134,79.9z"/>
				</defs>
				<clipPath id="SVGID_00000139998631967935945680000018177142664909281720_">
					<use xlink:href="#SVGID_00000136373137618244322280000007526948814769421981_"  style="overflow:visible;"/>
				</clipPath>
				<g style="clip-path:url(#SVGID_00000139998631967935945680000018177142664909281720_);">
					<rect x="132.1" y="75.9" width="10.8" height="6.5"/>
				</g>
			</g>
		</g>
	</g>
	<g>
		<g>
			<g>
				<defs>
					<path id="SVGID_00000128464159258688882140000006409424625610073992_" d="M135.3,63L135.3,63l-4.2,11.3l5.1,0.8l0,0
						c0.1,0,0.2,0.1,0.1,0.2l0,0c0,0.1-0.1,0.2-0.2,0.1l-5.3-0.9c0,0,0,0-0.1,0s-0.1-0.1-0.1-0.2l4.3-11.5"/>
				</defs>
				<clipPath id="SVGID_00000031202703466770808940000006540596988110925748_">
					<use xlink:href="#SVGID_00000128464159258688882140000006409424625610073992_"  style="overflow:visible;"/>
				</clipPath>
				<g style="clip-path:url(#SVGID_00000031202703466770808940000006540596988110925748_);">
					<rect x="128.9" y="60.9" width="9.3" height="16.4"/>
				</g>
			</g>
		</g>
	</g>
	<g>
		<g>
			<g>
				<defs>
					<path id="SVGID_00000096768533890559045080000014983991089035638669_" d="M145.3,61.6L145.3,61.6c0-0.9-0.7-1.7-1.7-1.6
						s-1.6,0.7-1.6,1.7s0.7,1.6,1.7,1.6C144.6,63.3,145.3,62.6,145.3,61.6z"/>
				</defs>
				<clipPath id="SVGID_00000104673744515496034860000006513249862252016021_">
					<use xlink:href="#SVGID_00000096768533890559045080000014983991089035638669_"  style="overflow:visible;"/>
				</clipPath>
				<g style="clip-path:url(#SVGID_00000104673744515496034860000006513249862252016021_);">
					<rect x="140.2" y="58.2" width="7" height="7"/>
				</g>
			</g>
		</g>
	</g>
	<g>
		<g>
			<g>
				<defs>
					<path id="SVGID_00000104706342518425349210000000056884009115724726_" d="M127.2,64.4L127.2,64.4c0.9,0,1.7-0.7,1.6-1.7
						c0-0.9-0.7-1.6-1.6-1.6s-1.7,0.7-1.7,1.6C125.5,63.6,126.3,64.4,127.2,64.4L127.2,64.4z"/>
				</defs>
				<clipPath id="SVGID_00000118377400042853313160000004624103166599466419_">
					<use xlink:href="#SVGID_00000104706342518425349210000000056884009115724726_"  style="overflow:visible;"/>
				</clipPath>
				<g style="clip-path:url(#SVGID_00000118377400042853313160000004624103166599466419_);">
					<rect x="123.7" y="59.3" width="7" height="7"/>
				</g>
			</g>
		</g>
	</g>
	<g>
		<g>
			<g>
				<defs>
					<path id="SVGID_00000010272220163087707970000008533213587238615947_" d="M166.3,52.5c1.7,0,0.8,6.9-2.6,20.8
						c0.8,0.4,1.8,0.4,2.6,0c1-0.4,1.8-1.1,2.3-2c-6,7.1-9,12.9-9,17.4s3,7.3,9,8.5c-5.3,6.2-8.3,11.1-9,14.9
						c-0.7,3.7,2.3,7.5,9,11.4c-3.6,3.1-5.5,7.8-4.9,12.5c0.7,7.5,18.3,16.1,20.3,9.1s-7.4-10.3-1.6-16.6c3.9-4.2,3.9-7.6,0-10.2
						c4.7-4.7,8.5-11.5,11.3-20.2s0.3-14.1-7.7-16c4.1-8.8,5.6-16.2,4.3-22.2c-1.2-6-5.6-6.5-13-1.5c6.4-5.3,5.7-15.3-2.1-30.3
						c-6.2-12-26.2-11.4-37.4-9.9c-9.6,1.4-19.7-2.7-24.6,4.5c-3.3,4.8-0.7,14.7,7.7,29.8c0-6.7,2-9.4,6.3-8
						c4.3,1.4,11.9,0.2,23-3.6c0.5,4.5,1.6,7.9,3.5,10.3s3.3,3.4,4.3,3l1.6,5.7C162.4,55,164.6,52.5,166.3,52.5z"/>
				</defs>
				<clipPath id="SVGID_00000059272692445403621880000012436971166824042643_">
					<use xlink:href="#SVGID_00000010272220163087707970000008533213587238615947_"  style="overflow:visible;"/>
				</clipPath>
				<g style="clip-path:url(#SVGID_00000059272692445403621880000012436971166824042643_);">
					<rect x="110.1" y="15.6" width="86.7" height="133.9"/>
				</g>
			</g>
		</g>
	</g>
	<g>
		<g>
			<g>
				<defs>
					<path id="SVGID_00000109031252258415019360000002887455809299527343_" d="M168.5,53.9c2.2,0.8,3.6,7.9,1.1,11.1
						c-1.7,2.2-3.6,3-5.6,2.6l-0.8-11.3C165.3,54.2,167,53.4,168.5,53.9z"/>
				</defs>
				<clipPath id="SVGID_00000117648065151009550870000002090937560986125485_">
					<use xlink:href="#SVGID_00000109031252258415019360000002887455809299527343_"  style="overflow:visible;"/>
				</clipPath>
				<g style="clip-path:url(#SVGID_00000117648065151009550870000002090937560986125485_);">
					<rect x="161.4" y="51.9" class="st3" width="11.4" height="17.6"/>
				</g>
			</g>
		</g>
	</g>
	<g>
		<g>
			<g>
				<defs>
					<path id="SVGID_00000070080890869328305620000010940093389696743082_" d="M163.4,56.4c-0.1,0.1-0.2,0.1-0.2,0l0,0
						c-0.1-0.1-0.1-0.2,0-0.3c2.1-2.1,3.9-2.9,5.4-2.4c2.6,0.9,3.6,8.3,1.2,11.4c-1.7,2.2-3.6,3.1-5.7,2.6c-0.1,0-0.2-0.1-0.1-0.2
						s0.1-0.2,0.2-0.1c1.9,0.4,3.7-0.4,5.4-2.5c1.2-1.4,1.5-3.9,1.2-6.3c-0.3-2.3-1.2-4.2-2.2-4.5C167.1,53.6,165.4,54.4,163.4,56.4
						L163.4,56.4z"/>
				</defs>
				<clipPath id="SVGID_00000088840346126584523530000014599411699570259846_">
					<use xlink:href="#SVGID_00000070080890869328305620000010940093389696743082_"  style="overflow:visible;"/>
				</clipPath>
				<g style="clip-path:url(#SVGID_00000088840346126584523530000014599411699570259846_);">
					<rect x="161.2" y="51.8" width="11.7" height="18"/>
				</g>
			</g>
		</g>
	</g>
	<g>
		<g>
			<g>
				<defs>
					<path id="SVGID_00000168098781282512922540000014740759983181502856_" d="M164.9,61.2c-0.1,0.1-0.2,0.1-0.2,0.1
						c-0.1-0.1-0.1-0.2-0.1-0.2c1.2-2.1,2.2-2.9,3-2.3c0.1,0.1,0.1,0.2,0,0.3s-0.2,0.1-0.3,0C166.9,58.6,166.1,59.3,164.9,61.2
						L164.9,61.2z"/>
				</defs>
				<clipPath id="SVGID_00000138571126323910406240000004705594634162711200_">
					<use xlink:href="#SVGID_00000168098781282512922540000014740759983181502856_"  style="overflow:visible;"/>
				</clipPath>
				<g style="clip-path:url(#SVGID_00000138571126323910406240000004705594634162711200_);">
					<rect x="162.8" y="56.7" width="6.8" height="6.4"/>
				</g>
			</g>
		</g>
	</g>
	<g>
		<g>
			<g>
				<defs>
					<path id="SVGID_00000001638373044083400470000003142423198030960811_" d="M166.6,57.7c-0.1-0.1-0.1-0.2,0-0.3l0,0
						c0.1-0.1,0.2-0.1,0.3,0c1.4,1.2,1.6,3.2,0.5,6.2l0,0c0,0.1-0.1,0.1-0.2,0.1c-0.1,0-0.1-0.1-0.1-0.2
						C168.1,60.7,167.9,58.7,166.6,57.7L166.6,57.7z"/>
				</defs>
				<clipPath id="SVGID_00000137853923671266085970000010186747942645699974_">
					<use xlink:href="#SVGID_00000001638373044083400470000003142423198030960811_"  style="overflow:visible;"/>
				</clipPath>
				<g style="clip-path:url(#SVGID_00000137853923671266085970000010186747942645699974_);">
					<rect x="164.7" y="55.5" width="5.2" height="10"/>
				</g>
			</g>
		</g>
	</g>
	<g>
		<g>
			<g>
				<defs>
					<path id="SVGID_00000152977855069261165630000011656674798366658710_" d="M155.2,58.5l8.7-3.4c0,0,0,0,0.1,0s0.2,0,0.2,0.1
						s0,0.2-0.1,0.2l-8.7,3.4l0,0c-0.1,0-0.2,0-0.2-0.1S155.1,58.6,155.2,58.5L155.2,58.5z"/>
				</defs>
				<clipPath id="SVGID_00000168112656608100945970000009801983429802012841_">
					<use xlink:href="#SVGID_00000152977855069261165630000011656674798366658710_"  style="overflow:visible;"/>
				</clipPath>
				<g style="clip-path:url(#SVGID_00000168112656608100945970000009801983429802012841_);">
					<rect x="153.3" y="53.2" width="12.7" height="7.5"/>
				</g>
			</g>
		</g>
	</g>
	<g>
		<g>
			<g>
				<defs>
					<path id="SVGID_00000097498752724720515000000009878253651908588189_" d="M139.8,97.5c1.1-0.9,1.9-5.9,1.9-5.9
						s-6.9,6.5-7.5,7.2s-7.9,10.1-9.6,19.4c5.6-13.6,9.9-18.8,11.8-19.5C138.3,98.1,138.7,98.5,139.8,97.5z"/>
				</defs>
				<clipPath id="SVGID_00000112623659054126430090000010310277710027614113_">
					<use xlink:href="#SVGID_00000097498752724720515000000009878253651908588189_"  style="overflow:visible;"/>
				</clipPath>
				<g style="clip-path:url(#SVGID_00000112623659054126430090000010310277710027614113_);">
					<rect x="122.7" y="89.8" width="20.8" height="30.3"/>
				</g>
			</g>
		</g>
	</g>
	<g>
		<g>
			<g>
				<defs>
					<path id="SVGID_00000160185040156451029640000018041699420134770066_" d="M159.6,99.5l-0.2,0.1c-0.2,0.1-0.4,0.2-0.6,0.3
						c-0.7,0.4-1.4,0.7-2.2,1c-2.7,1.2-5.7,1.6-8.7,1.3c-1.5-0.2-2.9-0.7-4.2-1.5c-0.1-0.1-0.1-0.2-0.1-0.2l0,0
						c0.1-0.1,0.2-0.1,0.3,0c1.2,0.8,2.6,1.2,4,1.4c2.9,0.3,5.8-0.1,8.5-1.3c0.7-0.3,1.4-0.6,2.1-1l0.6-0.3l0.2-0.1
						c0.1,0,0.2,0,0.3,0.1C159.7,99.4,159.7,99.5,159.6,99.5L159.6,99.5z"/>
				</defs>
				<clipPath id="SVGID_00000033337549692272111020000016063504081932528312_">
					<use xlink:href="#SVGID_00000160185040156451029640000018041699420134770066_"  style="overflow:visible;"/>
				</clipPath>
				<g style="clip-path:url(#SVGID_00000033337549692272111020000016063504081932528312_);">
					<rect x="141.8" y="97.3" width="19.7" height="6.9"/>
				</g>
			</g>
		</g>
	</g>
	<g>
		<g>
			<g>
				<defs>
					<path id="SVGID_00000137850056047519956000000014290397246760026253_" d="M142,99.9c-1.8-1-2.8-1.9-2.8-2.8l0,0
						c0-0.1,0.1-0.2,0.2-0.2c0.1,0,0.2,0.1,0.2,0.2c0,0.7,0.9,1.5,2.6,2.4c0.1,0.1,0.1,0.2,0.1,0.2l0,0
						C142.2,99.9,142.1,99.9,142,99.9L142,99.9z"/>
				</defs>
				<clipPath id="SVGID_00000121258836897747415950000002878719398493250226_">
					<use xlink:href="#SVGID_00000137850056047519956000000014290397246760026253_"  style="overflow:visible;"/>
				</clipPath>
				<g style="clip-path:url(#SVGID_00000121258836897747415950000002878719398493250226_);">
					<rect x="137.4" y="95.1" width="6.7" height="6.6"/>
				</g>
			</g>
		</g>
	</g>
	<g>
		<g>
			<g>
				<defs>
					<path id="SVGID_00000123443551301561879080000011124373758744159418_" d="M161.5,85.5l-0.2,0.2l-0.7,0.4
						c-0.7,0.4-1.5,0.9-2.3,1.3s-1.6,0.7-2.3,1c-1.9,0.8-3.4,1-4.4,0.7l0,0c-0.1,0-0.1-0.1-0.1-0.2s0.1-0.1,0.2-0.1
						c0.9,0.3,2.4,0,4.2-0.7c0.7-0.3,1.5-0.6,2.3-1s1.6-0.8,2.3-1.2l0.7-0.4l0.2-0.2c0.1-0.1,0.2-0.1,0.3,0l0,0
						C161.6,85.2,161.6,85.4,161.5,85.5L161.5,85.5z"/>
				</defs>
				<clipPath id="SVGID_00000078014181945207213150000009814343991395125656_">
					<use xlink:href="#SVGID_00000123443551301561879080000011124373758744159418_"  style="overflow:visible;"/>
				</clipPath>
				<g style="clip-path:url(#SVGID_00000078014181945207213150000009814343991395125656_);">
					<rect x="149.5" y="83.3" width="13.9" height="7.7"/>
				</g>
			</g>
		</g>
	</g>
	<g>
		<g>
			<g>
				<defs>
					<path id="SVGID_00000061450697960959175730000001898810873143655556_" d="M185.6,100.1L185.6,100.1c-0.1,0-0.2-0.1-0.1-0.2
						c0-0.1,0.1-0.2,0.2-0.1l12.3,2.8c0.1,0,0.2,0.1,0.1,0.2s-0.1,0.2-0.2,0.1L185.6,100.1z"/>
				</defs>
				<clipPath id="SVGID_00000134244573713116880390000010294543539427093897_">
					<use xlink:href="#SVGID_00000061450697960959175730000001898810873143655556_"  style="overflow:visible;"/>
				</clipPath>
				<g style="clip-path:url(#SVGID_00000134244573713116880390000010294543539427093897_);">
					<rect x="183.6" y="97.9" width="16.3" height="6.8"/>
				</g>
			</g>
		</g>
	</g>
	<g>
		<g>
			<g>
				<defs>
					<path id="SVGID_00000039107842842694294740000013724498267562918814_" d="M115.6,152.1L115.6,152.1c-0.1,0.1-0.2,0.1-0.2,0.1
						c-0.1,0-0.1-0.2-0.1-0.2l1.7-3.4c0-0.1,0.2-0.1,0.2-0.1l0,0c0.1,0,0.1,0.2,0.1,0.2L115.6,152.1z"/>
				</defs>
				<clipPath id="SVGID_00000026859036745358380890000011958026497972328342_">
					<use xlink:href="#SVGID_00000039107842842694294740000013724498267562918814_"  style="overflow:visible;"/>
				</clipPath>
				<g style="clip-path:url(#SVGID_00000026859036745358380890000011958026497972328342_);">
					<rect x="113.4" y="146.6" width="5.7" height="7.4"/>
				</g>
			</g>
		</g>
	</g>
	<g>
		<g>
			<g>
				<defs>
					<path id="SVGID_00000068664500110179420620000017094777137888148354_" d="M115.1,145.8l-1.6,2.2c-0.1,0.1-0.2,0.1-0.2,0
						c-0.1-0.1-0.1-0.2,0-0.2l1.6-2.2l0,0c0.1-0.1,0.2-0.1,0.3,0C115.1,145.6,115.1,145.7,115.1,145.8L115.1,145.8z"/>
				</defs>
				<clipPath id="SVGID_00000180343473354181118070000014554893944703227299_">
					<use xlink:href="#SVGID_00000068664500110179420620000017094777137888148354_"  style="overflow:visible;"/>
				</clipPath>
				<g style="clip-path:url(#SVGID_00000180343473354181118070000014554893944703227299_);">
					<rect x="111.3" y="143.7" width="5.6" height="6.3"/>
				</g>
			</g>
		</g>
	</g>
	<g>
		<g>
			<g>
				<defs>
					<path id="SVGID_00000076561829385979365590000015323105209265121709_" d="M111.6,145.2L111.6,145.2c-0.1,0.1-0.2,0.1-0.2,0.1
						l0,0c-0.1-0.1-0.1-0.2,0-0.2l1.3-2l0,0c0.1-0.1,0.2-0.1,0.2,0l0,0c0.1,0.1,0.1,0.2,0.1,0.2L111.6,145.2z"/>
				</defs>
				<clipPath id="SVGID_00000090994381475077351880000013455283619409061769_">
					<use xlink:href="#SVGID_00000076561829385979365590000015323105209265121709_"  style="overflow:visible;"/>
				</clipPath>
				<g style="clip-path:url(#SVGID_00000090994381475077351880000013455283619409061769_);">
					<rect x="109.4" y="141.1" width="5.3" height="6"/>
				</g>
			</g>
		</g>
	</g>
	<g>
		<g>
			<g>
				<defs>
					<path id="SVGID_00000166674516456404134260000000351070667553109163_" d="M237.3,242.5c27.1-12.2,40.6-39,40.4-80.6l-0.9-0.4
						l-3.2-1.3c-3.4-1.3-7-2.7-10.7-3.9c-3.2-1.1-6.3-2-9.3-2.9c-6.6-1.8-12.1-2.8-16.2-2.8c-6.1,0-15,2.1-25.5,5.7
						c-3.7,1.2-7.3,2.6-10.7,3.9c-1.2,0.5-2.2,0.9-3.2,1.3l-1.1,0.4C196.8,203.4,210.3,230.3,237.3,242.5L237.3,242.5z M277.8,161.5
						c0.2,0.1,0.3,0.2,0.4,0.3c0.1,41.7-13.6,68.7-41,81c-27.3-12.2-40.9-39.3-40.7-81.2l0.3-0.1l0.9-0.4c0.9-0.4,2-0.8,3.2-1.3
						c3.4-1.3,7.1-2.7,10.8-3.9c10.6-3.6,19.5-5.7,25.7-5.7c4.2,0,9.7,1,16.3,2.8c3,0.8,6.1,1.8,9.3,2.9c3.8,1.2,7.3,2.6,10.8,3.9
						c1.2,0.5,2.2,0.9,3.2,1.3L277.8,161.5L277.8,161.5z"/>
				</defs>
				<clipPath id="SVGID_00000053530685910270000400000000264032963634073762_">
					<use xlink:href="#SVGID_00000166674516456404134260000000351070667553109163_"  style="overflow:visible;"/>
				</clipPath>
				<g style="clip-path:url(#SVGID_00000053530685910270000400000000264032963634073762_);">
					<rect x="194.7" y="148.4" width="85.4" height="96.3"/>
				</g>
			</g>
		</g>
	</g>
	<g>
		<g>
			<g>
				<defs>
					<path id="SVGID_00000099656875391757010950000018028299848605561254_" d="M271.1,169.7c0,33.2-10.8,54.7-32.5,64.4
						c-3.7-1.7-7.2-3.8-10.5-6.3c2.8,2,5.8,3.7,9,5.2c21.5-9.7,32.4-31,32.5-63.9L271.1,169.7z"/>
				</defs>
				<clipPath id="SVGID_00000142880397459576806950000001685762278785022633_">
					<use xlink:href="#SVGID_00000099656875391757010950000018028299848605561254_"  style="overflow:visible;"/>
				</clipPath>
				<g style="clip-path:url(#SVGID_00000142880397459576806950000001685762278785022633_);">
					<rect x="226.4" y="167.3" width="46.6" height="68.7"/>
				</g>
			</g>
		</g>
	</g>
	<g>
		<g>
			<g>
				<defs>
					<path id="SVGID_00000147907396177005640990000001495290309069131398_" d="M43.2,264.3L43.2,264.3c-0.8,0-1.5-0.7-1.5-1.5
						s0.7-1.5,1.5-1.5s1.5,0.7,1.5,1.5C44.6,263.6,44,264.3,43.2,264.3z M44.6,252.6c0,0.8-0.7,1.5-1.5,1.4l0,0
						c-0.8,0-1.5-0.7-1.5-1.5s0.7-1.5,1.5-1.5S44.6,251.7,44.6,252.6L44.6,252.6z M44.6,242.3c0,0.8-0.7,1.5-1.5,1.4l0,0
						c-0.8,0-1.5-0.7-1.5-1.5s0.7-1.5,1.5-1.5C44,240.8,44.6,241.5,44.6,242.3L44.6,242.3z M44.6,232.1c0,0.8-0.7,1.5-1.5,1.4l0,0
						c-0.8,0-1.5-0.7-1.5-1.5s0.7-1.5,1.5-1.5C44,230.6,44.6,231.2,44.6,232.1L44.6,232.1z M44.6,221.8c0,0.8-0.7,1.5-1.5,1.4
						c-0.8,0-1.5-0.7-1.5-1.5s0.7-1.5,1.5-1.5S44.6,221,44.6,221.8L44.6,221.8z M44.6,211.6c0,0.8-0.7,1.5-1.5,1.4
						c-0.8,0-1.5-0.7-1.5-1.5s0.7-1.5,1.5-1.5S44.6,210.7,44.6,211.6L44.6,211.6z M53.5,264.1c-0.8,0.1-1.5-0.5-1.6-1.3
						c0-0.1,0-0.2,0-0.2c0.1-0.8,0.8-1.4,1.6-1.3s1.4,0.8,1.3,1.6C54.8,263.5,54.2,264.1,53.5,264.1z M63.8,264.1
						c-0.8,0.1-1.5-0.5-1.6-1.3c0-0.1,0-0.2,0-0.2c0.1-0.8,0.8-1.4,1.6-1.3s1.4,0.8,1.3,1.6C65,263.5,64.5,264.1,63.8,264.1z
						 M54.8,252.6c0,0.8-0.7,1.5-1.5,1.4l0,0c-0.8,0-1.5-0.7-1.5-1.5s0.7-1.5,1.5-1.5S54.9,251.7,54.8,252.6L54.8,252.6z
						 M65.1,252.6c0,0.8-0.7,1.5-1.5,1.4l0,0c-0.8,0-1.5-0.7-1.5-1.5s0.7-1.5,1.5-1.5C64.4,251,65.1,251.7,65.1,252.6L65.1,252.6z
						 M54.8,242.3c0,0.8-0.7,1.5-1.5,1.4l0,0c-0.8,0-1.5-0.7-1.5-1.5s0.7-1.5,1.5-1.5C54.2,240.8,54.9,241.5,54.8,242.3L54.8,242.3z
						 M65.1,242.3c0,0.8-0.7,1.5-1.5,1.4l0,0c-0.8,0-1.5-0.7-1.5-1.5s0.7-1.5,1.5-1.5C64.5,240.8,65.1,241.5,65.1,242.3L65.1,242.3z
						 M54.8,232.1c0,0.8-0.7,1.5-1.5,1.4l0,0c-0.8,0-1.5-0.7-1.5-1.5s0.7-1.5,1.5-1.5C54.2,230.6,54.9,231.3,54.8,232.1L54.8,232.1z
						 M65.1,232.1c0,0.8-0.7,1.5-1.5,1.4l0,0c-0.8,0-1.5-0.7-1.5-1.5s0.7-1.5,1.5-1.5C64.5,230.6,65.1,231.3,65.1,232.1L65.1,232.1z
						 M54.8,221.8c0,0.8-0.7,1.5-1.5,1.4c-0.8,0-1.5-0.7-1.5-1.5s0.7-1.5,1.5-1.5S54.8,221,54.8,221.8L54.8,221.8z M65.1,221.8
						c0,0.8-0.7,1.5-1.5,1.4c-0.8,0-1.5-0.7-1.5-1.5s0.7-1.5,1.5-1.5C64.4,220.2,65.1,221,65.1,221.8L65.1,221.8z M54.8,211.6
						c0,0.8-0.7,1.5-1.5,1.4c-0.8,0-1.5-0.7-1.5-1.5s0.7-1.5,1.5-1.5S54.8,210.7,54.8,211.6L54.8,211.6z M65.1,211.6
						c0,0.8-0.7,1.5-1.5,1.4c-0.8,0-1.5-0.7-1.5-1.5s0.7-1.5,1.5-1.5C64.4,210,65.1,210.7,65.1,211.6L65.1,211.6z M74,264.1
						c-0.8,0.1-1.5-0.5-1.6-1.3c0-0.1,0-0.2,0-0.2c0.1-0.8,0.8-1.4,1.6-1.3s1.4,0.8,1.3,1.6C75.3,263.5,74.8,264.1,74,264.1z
						 M84.3,264.1c-0.8,0.1-1.5-0.5-1.6-1.3c0-0.1,0-0.2,0-0.2c0.1-0.8,0.8-1.4,1.6-1.3s1.4,0.8,1.3,1.6
						C85.6,263.5,85,264.1,84.3,264.1z M75.4,252.6c0,0.8-0.7,1.5-1.5,1.4l0,0c-0.8,0-1.5-0.7-1.5-1.5s0.7-1.5,1.5-1.5
						S75.4,251.7,75.4,252.6L75.4,252.6z M85.6,252.6c0,0.8-0.7,1.5-1.5,1.4l0,0c-0.8,0-1.5-0.7-1.5-1.5s0.7-1.5,1.5-1.5
						S85.6,251.7,85.6,252.6L85.6,252.6z M75.4,242.3c0,0.8-0.7,1.5-1.5,1.4l0,0c-0.8,0-1.5-0.7-1.5-1.5s0.7-1.5,1.5-1.5
						C74.7,240.8,75.4,241.5,75.4,242.3L75.4,242.3z M85.6,242.3c0,0.8-0.7,1.5-1.5,1.4l0,0c-0.8,0-1.5-0.7-1.5-1.5s0.7-1.5,1.5-1.5
						C85,240.8,85.6,241.5,85.6,242.3L85.6,242.3z M75.4,232.1c0,0.8-0.7,1.5-1.5,1.4l0,0c-0.8,0-1.5-0.7-1.5-1.5s0.7-1.5,1.5-1.5
						C74.7,230.6,75.4,231.3,75.4,232.1L75.4,232.1z M85.6,232.1c0,0.8-0.7,1.5-1.5,1.4l0,0c-0.8,0-1.5-0.7-1.5-1.5s0.7-1.5,1.5-1.5
						C85,230.6,85.6,231.3,85.6,232.1L85.6,232.1z M75.4,221.9c0,0.8-0.7,1.5-1.5,1.4c-0.8,0-1.5-0.7-1.5-1.5s0.7-1.5,1.5-1.5
						S75.4,221,75.4,221.9L75.4,221.9z M85.6,221.9c0,0.8-0.7,1.5-1.5,1.4c-0.8,0-1.5-0.7-1.5-1.5s0.7-1.5,1.5-1.5
						S85.6,221,85.6,221.9L85.6,221.9z M75.4,211.6c0,0.8-0.7,1.5-1.5,1.4c-0.8,0-1.5-0.7-1.5-1.5s0.7-1.5,1.5-1.5
						S75.4,210.8,75.4,211.6L75.4,211.6z M85.6,211.6c0,0.8-0.7,1.5-1.5,1.4c-0.8,0-1.5-0.7-1.5-1.5s0.7-1.5,1.5-1.5
						S85.6,210.8,85.6,211.6L85.6,211.6z M94.5,264.1c-0.8,0.1-1.5-0.5-1.6-1.3c0-0.1,0-0.2,0-0.2c0.1-0.8,0.8-1.4,1.6-1.3
						s1.4,0.8,1.3,1.6C95.8,263.5,95.2,264.1,94.5,264.1z M104.8,264.1c-0.8,0.1-1.5-0.5-1.6-1.3c0-0.1,0-0.2,0-0.2
						c0.1-0.8,0.8-1.4,1.6-1.3s1.4,0.8,1.3,1.6C106,263.5,105.5,264.1,104.8,264.1z M95.8,252.6c0,0.8-0.7,1.5-1.5,1.4l0,0
						c-0.8,0-1.5-0.7-1.5-1.5s0.7-1.5,1.5-1.5S95.9,251.7,95.8,252.6L95.8,252.6z M106.1,252.6c0,0.8-0.7,1.5-1.5,1.4l0,0
						c-0.8,0-1.5-0.7-1.5-1.5s0.7-1.5,1.5-1.5S106.1,251.7,106.1,252.6L106.1,252.6z M95.8,242.3c0,0.8-0.7,1.5-1.5,1.4l0,0
						c-0.8,0-1.5-0.7-1.5-1.5s0.7-1.5,1.5-1.5C95.2,240.8,95.9,241.5,95.8,242.3L95.8,242.3z M106.1,242.3c0,0.8-0.7,1.5-1.5,1.4
						l0,0c-0.8,0-1.5-0.7-1.5-1.5s0.7-1.5,1.5-1.5C105.5,240.8,106.1,241.5,106.1,242.3L106.1,242.3z M95.8,232.1
						c0,0.8-0.7,1.5-1.5,1.4l0,0c-0.8,0-1.5-0.7-1.5-1.5s0.7-1.5,1.5-1.5C95.2,230.6,95.9,231.3,95.8,232.1L95.8,232.1z
						 M106.1,232.1c0,0.8-0.7,1.5-1.5,1.4l0,0c-0.8,0-1.5-0.7-1.5-1.5s0.7-1.5,1.5-1.5C105.5,230.6,106.1,231.3,106.1,232.1
						L106.1,232.1z M95.8,221.8c0,0.8-0.7,1.5-1.5,1.4c-0.8,0-1.5-0.7-1.5-1.5s0.7-1.5,1.5-1.5S95.8,221,95.8,221.8L95.8,221.8z
						 M106.1,221.8c0,0.8-0.7,1.5-1.5,1.4c-0.8,0-1.5-0.7-1.5-1.5s0.7-1.5,1.5-1.5S106.1,221,106.1,221.8L106.1,221.8z M95.8,211.6
						c0,0.8-0.7,1.5-1.5,1.4c-0.8,0-1.5-0.7-1.5-1.5s0.7-1.5,1.5-1.5S95.8,210.7,95.8,211.6L95.8,211.6z M106.1,211.6
						c0,0.8-0.7,1.5-1.5,1.4c-0.8,0-1.5-0.7-1.5-1.5s0.7-1.5,1.5-1.5S106.1,210.7,106.1,211.6L106.1,211.6z"/>
				</defs>
				<clipPath id="SVGID_00000180336328457672662910000013452460589755252903_">
					<use xlink:href="#SVGID_00000147907396177005640990000001495290309069131398_"  style="overflow:visible;"/>
				</clipPath>
				<g style="clip-path:url(#SVGID_00000180336328457672662910000013452460589755252903_);">
					<rect x="39.9" y="208.3" width="68.1" height="57.8"/>
				</g>
			</g>
		</g>
	</g>
	<g>
		<g>
			<g>
				<defs>
					<polygon id="SVGID_00000016050668741956879110000017981903932735859880_" points="72.5,200.9 72.5,249.6 121,249.6 127,246.4 
						121,200.9 78.9,198 					"/>
				</defs>
				<clipPath id="SVGID_00000044151238560128579370000007669135673791696562_">
					<use xlink:href="#SVGID_00000016050668741956879110000017981903932735859880_"  style="overflow:visible;"/>
				</clipPath>
				<g style="clip-path:url(#SVGID_00000044151238560128579370000007669135673791696562_);">
					<rect x="70.6" y="196.2" class="st0" width="58.2" height="55.3"/>
				</g>
			</g>
		</g>
	</g>
	<g>
		<g>
			<g>
				<defs>
					<rect id="SVGID_00000094618717859351408850000015517507341707246258_" x="78.7" y="197.6" width="48.3" height="48.3"/>
				</defs>
				<clipPath id="SVGID_00000149352136045429304720000007468196072653908405_">
					<use xlink:href="#SVGID_00000094618717859351408850000015517507341707246258_"  style="overflow:visible;"/>
				</clipPath>
				<g style="clip-path:url(#SVGID_00000149352136045429304720000007468196072653908405_);">
					<rect x="76.8" y="195.8" class="st3" width="52" height="52"/>
				</g>
			</g>
		</g>
	</g>
	<g>
		<g>
			<g>
				<defs>
					<path id="SVGID_00000073718641295595630620000006990369961635444100_" d="M126.8,197.8v48h-48v-48H126.8L126.8,197.8z
						 M78.7,197.5c-0.1,0-0.2,0.1-0.2,0.2V246c0,0.1,0.1,0.2,0.2,0.2H127c0.1,0,0.2-0.1,0.2-0.2v-48.3c0-0.1-0.1-0.2-0.2-0.2H78.7
						L78.7,197.5z"/>
				</defs>
				<clipPath id="SVGID_00000175286638400757225430000013670276543309625011_">
					<use xlink:href="#SVGID_00000073718641295595630620000006990369961635444100_"  style="overflow:visible;"/>
				</clipPath>
				<g style="clip-path:url(#SVGID_00000175286638400757225430000013670276543309625011_);">
					<rect x="76.7" y="195.6" width="52.4" height="52.4"/>
				</g>
			</g>
		</g>
	</g>
	<g>
		<path class="st69" d="M246.7,24.4c0-8.1-6.3-14.8-14.1-14.8s-14.1,6.6-14.1,14.8h8.3c-0.2-3.2,2.2-5.9,5.4-6.1s5.9,2.2,6.1,5.4
			c0,0.2,0,0.5,0,0.7c0,2.1-1.1,4.1-2.9,5.2l0,0c-2.8,1.7-5,4.4-6.1,7.5l0,0c-0.4,1.1-0.7,2.2-0.8,3.4l0,0v2.6h8.5v-2.6l0,0
			c0.4-1.4,1.4-2.6,2.6-3.4l0,0C244.1,34.4,246.8,29.5,246.7,24.4z"/>
		<rect x="228.6" y="46.5" class="st69" width="8.5" height="7.4"/>
		<path class="st70" d="M263,44.1c0-5-4-9-9-9s-9,4-9,9h5.3c-0.1-2,1.5-3.8,3.5-3.9c2-0.1,3.8,1.5,3.9,3.5c0,0.1,0,0.3,0,0.4
			c0,1.4-0.7,2.7-1.9,3.4l0,0c-1.8,1.1-3.2,2.8-3.9,4.8l0,0c-0.3,0.7-0.4,1.4-0.5,2.2l0,0v1.6h5.4v-1.6l0,0c0.3-0.9,0.9-1.7,1.7-2.2
			l0,0C261.3,50.5,263,47.4,263,44.1z"/>
		<rect x="251.4" y="58.3" class="st70" width="5.5" height="4.7"/>
	</g>
</g>
</svg>
