<svg id="Layer_1" data-name="Layer 1" xmlns="http://www.w3.org/2000/svg" xmlns:xlink="http://www.w3.org/1999/xlink" viewBox="0 0 341.8 282.5"><defs><style>.cls-1{fill:none;}.cls-2,.cls-73{fill:#24262f;}.cls-3{fill:#64c4de;}.cls-4{clip-path:url(#clip-path);}.cls-5{clip-path:url(#clip-path-2);}.cls-6{fill:#d8d8d8;}.cls-7{clip-path:url(#clip-path-3);}.cls-15,.cls-8{fill:#808191;}.cls-9{clip-path:url(#clip-path-4);}.cls-10{clip-path:url(#clip-path-5);}.cls-11{clip-path:url(#clip-path-6);}.cls-12{clip-path:url(#clip-path-7);}.cls-13{clip-path:url(#clip-path-8);}.cls-14{clip-path:url(#clip-path-9);}.cls-15,.cls-73{stroke:#808191;stroke-linecap:round;stroke-linejoin:round;}.cls-15{stroke-width:1.34px;}.cls-16{clip-path:url(#clip-path-10);}.cls-17{clip-path:url(#clip-path-11);}.cls-18{clip-path:url(#clip-path-12);}.cls-19{clip-path:url(#clip-path-13);}.cls-20{clip-path:url(#clip-path-14);}.cls-21{clip-path:url(#clip-path-15);}.cls-22{clip-path:url(#clip-path-16);}.cls-23{clip-path:url(#clip-path-17);}.cls-24{clip-path:url(#clip-path-18);}.cls-25{clip-path:url(#clip-path-19);}.cls-26{clip-path:url(#clip-path-20);}.cls-27{clip-path:url(#clip-path-21);}.cls-28{clip-path:url(#clip-path-22);}.cls-29{clip-path:url(#clip-path-23);}.cls-30{clip-path:url(#clip-path-24);}.cls-31{clip-path:url(#clip-path-25);}.cls-32{clip-path:url(#clip-path-26);}.cls-33{clip-path:url(#clip-path-27);}.cls-34{clip-path:url(#clip-path-28);}.cls-35{clip-path:url(#clip-path-29);}.cls-36{clip-path:url(#clip-path-30);}.cls-37{clip-path:url(#clip-path-31);}.cls-38{clip-path:url(#clip-path-32);}.cls-39{clip-path:url(#clip-path-33);}.cls-40{clip-path:url(#clip-path-34);}.cls-41{clip-path:url(#clip-path-35);}.cls-42{clip-path:url(#clip-path-36);}.cls-43{clip-path:url(#clip-path-37);}.cls-44{clip-path:url(#clip-path-38);}.cls-45{clip-path:url(#clip-path-39);}.cls-46{clip-path:url(#clip-path-40);}.cls-47{clip-path:url(#clip-path-41);}.cls-48{clip-path:url(#clip-path-42);}.cls-49{clip-path:url(#clip-path-43);}.cls-50{clip-path:url(#clip-path-44);}.cls-51{clip-path:url(#clip-path-45);}.cls-52{clip-path:url(#clip-path-46);}.cls-53{clip-path:url(#clip-path-47);}.cls-54{clip-path:url(#clip-path-48);}.cls-55{clip-path:url(#clip-path-49);}.cls-56{clip-path:url(#clip-path-50);}.cls-57{clip-path:url(#clip-path-51);}.cls-58{clip-path:url(#clip-path-52);}.cls-59{clip-path:url(#clip-path-53);}.cls-60{clip-path:url(#clip-path-54);}.cls-61{clip-path:url(#clip-path-55);}.cls-62{clip-path:url(#clip-path-56);}.cls-63{clip-path:url(#clip-path-57);}.cls-64{clip-path:url(#clip-path-58);}.cls-65{clip-path:url(#clip-path-59);}.cls-66{clip-path:url(#clip-path-60);}.cls-67{clip-path:url(#clip-path-61);}.cls-68{clip-path:url(#clip-path-62);}.cls-69{clip-path:url(#clip-path-63);}.cls-70{clip-path:url(#clip-path-64);}.cls-71{clip-path:url(#clip-path-65);}.cls-72{clip-path:url(#clip-path-66);}.cls-73{stroke-width:0.86px;}</style><clipPath id="clip-path" transform="translate(-1.4 -0.8)"><path class="cls-1" d="M277.6,174.2a35.6,35.6,0,0,1,.5,4.7,46.7,46.7,0,0,1-43.8,49.4v53.1a100,100,0,0,0,97.4-99.9c0-2.5-.1-4.9-.3-7.3Z"/></clipPath><clipPath id="clip-path-2" transform="translate(-1.4 -0.8)"><path class="cls-1" d="M301.6,181.2l13.2-6.4h16c.2,2.3.2,4.5.2,6.8a105.5,105.5,0,0,1-1.7,18.6,85.7,85.7,0,0,1-10.1,7.9A67.4,67.4,0,0,0,294.8,236a76.1,76.1,0,0,0-6.7,27.4A100.8,100.8,0,0,1,262.9,276c.2-28.4,10.3-50.8,30.5-67,12.5-10.1,15.9-19.2,10.8-25.4a9.8,9.8,0,0,0-2.6-2.4Zm.1,0c-5.3-3.7-14.4-4.8-23.7-2.6a.5.5,0,0,0-.4.6,22.6,22.6,0,0,1,.1,2.6,48.1,48.1,0,0,1-1.2,10.7v.4a.4.4,0,0,0,.7.2Zm-24,10.4a46.8,46.8,0,0,0,1-9.9v-2.1c7.9-1.8,15.6-1.1,20.7,1.5Zm25.6-7.4c4.7,5.6,1.5,14.2-10.6,23.9q-30.9,24.9-30.9,68.7v.2a.6.6,0,0,0,.7.4A102.3,102.3,0,0,0,289,264.3a.5.5,0,0,0,.2-.4,77,77,0,0,1,6.6-27.4c5-10.7,12.8-19.9,24-27.4a74.3,74.3,0,0,0,10.4-8.1l.2-.3a101.1,101.1,0,0,0,1.8-19c0-2.5-.1-4.9-.3-7.4a.6.6,0,0,0-.6-.5H314.5l-15.1,7.4A10,10,0,0,1,303.3,184.2Zm-47.9,38.3c0,2.4.1,4.9.2,7.7s.2,5.1.4,9.3c.7,12.7.8,17.3.6,22.7-.3,7.1-1.3,11.8-3.4,14.4a10.3,10.3,0,0,1-2.6,2.5l-2.8.5c-5.9-2-8.9-25.2-5.6-39.1a121.6,121.6,0,0,0,2.5-13.4A44.3,44.3,0,0,0,255.4,222.5Zm1.1-1a.4.4,0,0,0-.1-.3.6.6,0,0,0-.8-.2,48.1,48.1,0,0,1-11.6,5.1c-.2.1-.4.2-.4.5a106.4,106.4,0,0,1-2.5,13.7c-1.5,6.4-1.8,15.9-.7,24.2s3.7,15.2,7.2,16.2h.2l3.1-.5h.2a10,10,0,0,0,3-2.8c2.3-2.9,3.4-7.8,3.7-15.1.2-5.5.1-10-.6-22.8-.2-4.3-.3-6.7-.4-9.3s-.3-5.9-.3-8.6Z"/></clipPath><clipPath id="clip-path-3" transform="translate(-1.4 -0.8)"><path class="cls-1" d="M94.1,151.5,57.8,187.8H54.9L94,148.7v2.8ZM68.5,187.8H65.7l28.4-28.4v2.9ZM94.1,173,79.3,187.8H76.4l17.7-17.7V173Zm0,10.7L90,187.8H87.1l6.9-6.9v2.8Zm0-43.2L46.7,187.8H43.8L94,137.6v2.9Zm0-11.1L35.7,187.8H32.8L94,126.6v2.8Zm0-11L24.7,187.8H21.8l72.3-72.2v2.8Zm0-11L13.7,187.8H10.8l83.3-83.3v2.9ZM93.4,97,3.3,187.1v-2.8L90.5,97.1Zm-11,.1L3.3,176.2v-2.9L79.5,97.1ZM71.3,97l-68,68v-2.9l65.2-65Zm-11,0-57,57v-2.9l54.2-54h2.8ZM3.4,143v-2.9l43.1-43h2.9Zm35-45.9L3.5,132v-2.9l32-32Zm-11,0L3.5,120.9v-2.8l21-21ZM3.6,109.9V107l10-9.9h2.9Zm0-11V97.1H5.4Z"/></clipPath><clipPath id="clip-path-4" transform="translate(-1.4 -0.8)"><path class="cls-1" d="M30.7,123.3h0a54.2,54.2,0,1,1,54.2,54.2A54.2,54.2,0,0,1,30.7,123.3Z"/></clipPath><clipPath id="clip-path-5" transform="translate(-1.4 -0.8)"><path class="cls-1" d="M44.7,87.7A54.3,54.3,0,0,1,58.1,76.8l8.8-1a135.2,135.2,0,0,0-19.5,45.9h0c-2,14.3-3.8,25.5-5.5,33.6a53.7,53.7,0,0,1-9.4-20.8c1.8-13.2,5.9-28.8,12.2-46.9ZM70.6,70.6,67,75.8l13.1-1.5c.7-1.6,1.5-3.2,2.3-4.8v-.3a.6.6,0,0,0-.6-.5,58.5,58.5,0,0,0-11,1.7l-.3.2Zm9.5,3.7L100.4,72a53.7,53.7,0,0,1,37.4,42.4,66.7,66.7,0,0,0-24.5,29.4c-3.8,8.9-5.5,18.1-6,28.3A52.7,52.7,0,0,1,84.8,177H82.3c1.2-26.2,11.4-46.9,30.4-62.2,7.4-5.9,11.6-11.5,12.8-16.5A10,10,0,0,0,121,87.1c-7.5-5.3-21.8-5-33.5,1.1C81.6,91.3,78,97.6,76.2,107c-1.4,7.5-1.7,16.5-1.2,29.2.1,2.7.2,5.1.5,9.3.5,9.7.7,13.1.7,17.6a74.4,74.4,0,0,1-.9,13.3,52.7,52.7,0,0,1-18.7-7.2c-3.1-10.9-1.5-20.1,4.8-22.2,1.8-.6,2.8-2.3,3.3-5.2s.5-4.5.6-10.2.2-9.9.6-14.2a79.6,79.6,0,0,1,3.2-16c0-.1.1-.2.1-.3A217.8,217.8,0,0,1,80.1,74.3ZM42.7,156.7c1.8-8.2,3.8-19.8,5.8-34.8A136.2,136.2,0,0,1,69.2,74.4L57.9,75.7h-.2A56,56,0,0,0,43.8,87.1c0,.1-.1.1-.1.2-6.4,18.2-10.6,33.9-12.4,47.2v.2A54.4,54.4,0,0,0,41.7,157l.4.2a.5.5,0,0,0,.6-.5ZM69.2,74.4l2.1-3a53.5,53.5,0,0,1,9.6-1.6l-1.6,3.4Zm10.1-1.1a239.1,239.1,0,0,0-11.2,27.2v.3A75.2,75.2,0,0,0,64.7,117c-.4,4.3-.5,7.4-.6,14.3a56,56,0,0,1-.6,10c-.5,2.6-1.3,4-2.6,4.4-7.1,2.3-8.7,12.3-5.4,23.8l.2.3a53.9,53.9,0,0,0,19.7,7.6c.3,0,.6-.1.6-.4a65.6,65.6,0,0,0,1.1-14c0-4.5-.2-7.8-.7-17.6-.2-4.3-.3-6.7-.4-9.3-.5-12.6-.2-21.5,1.2-28.9,1.7-9.1,5.1-15.1,10.7-18,11.4-5.9,25.3-6.2,32.4-1.2s5.4,14.9-8.4,26q-29.1,23.4-30.8,63.6h0a.6.6,0,0,0,.5.6h3.1a55.4,55.4,0,0,0,23.3-5.2.5.5,0,0,0,.3-.5c.4-10.3,2.1-19.4,5.9-28.3,4.8-11.4,12.7-21.2,24.4-29.1a.4.4,0,0,0,.2-.5,54.8,54.8,0,0,0-38.3-43.6h-.2Z"/></clipPath><clipPath id="clip-path-6" transform="translate(-1.4 -0.8)"><path class="cls-1" d="M310.8,52.5c0,1.7,1,2.6,3.1,3.2s3.3.5,7.6.5,6,.1,7.8.6,3.9,2,3.9,4.2-1.4,3.6-3.9,4.3-3.7.6-7.8.7h-.3c-4.1.1-5.8.2-7.4.6s-3,1.4-3,2.9,1,2.4,3,3,3.3.6,7.3.8h.4c4.1.2,6,.4,7.8,1s3.9,2.2,3.9,4.5-1.4,3.7-3.9,4.5a26.2,26.2,0,0,1-7.9.7H320a38.7,38.7,0,0,0-6.8.3c-1.8.3-2.6.9-2.6,2s1,1.9,3.1,2.3a48.7,48.7,0,0,0,7.6.6,41,41,0,0,1,7.8.6c2.5.5,3.9,1.6,3.9,3.3a4.2,4.2,0,0,1-1.7,3.9,7.3,7.3,0,0,1-3.5.9h-.4c-2.1.2-2.9.4-3.4,1s-2.1,16.3-2.3,43.4a.5.5,0,0,1-.5.5.6.6,0,0,1-.6-.5c.3-27.9,1.1-42.2,2.5-44.1s1.7-1.2,4.1-1.4h.4c3.1-.3,4.2-1,4.2-3.7,0-1.1-1-1.8-3-2.3a47.7,47.7,0,0,0-7.6-.6,50.3,50.3,0,0,1-7.8-.6c-2.5-.5-3.9-1.7-3.9-3.4s1.2-2.6,3.5-3.1a32.9,32.9,0,0,1,7-.4h1.3a26.9,26.9,0,0,0,7.5-.7c2.1-.6,3.1-1.7,3.1-3.4s-1-2.8-3.1-3.5a28,28,0,0,0-7.6-.9h-.4c-4.1-.2-5.8-.3-7.6-.8s-3.7-2-3.7-4.1,1.3-3.4,3.8-4a31.9,31.9,0,0,1,7.6-.6h.3c4-.1,5.9-.2,7.6-.7s3.1-1.6,3.1-3.3-1-2.6-3.1-3.2-3.3-.5-7.6-.5-6-.1-7.8-.5-3.9-2-3.9-4.2V35.7a44.4,44.4,0,0,1,1.2-10.2H294.2a.6.6,0,0,1,.1-1.1h16.6c2.3-8.4,7.1-15,13.4-18.9C332.2.6,340.1,2,341,9.1c1.3,9.5-7.8,14.9-27,16.4h-2.2a43.8,43.8,0,0,0-1.2,10.2V52.5Zm3.3-28.1c18.6-1.4,27.1-6.5,26-15.2-.8-6.1-7.7-7.3-15-2.8s-10.5,10-12.8,18Z"/></clipPath><clipPath id="clip-path-7" transform="translate(-1.4 -0.8)"><path class="cls-1" d="M321,157.9a4.2,4.2,0,1,1,4.2-4.2,4.2,4.2,0,0,1-4.2,4.2Zm3.1-4.2h0a3.1,3.1,0,1,0-3.1,3.1A3.1,3.1,0,0,0,324.1,153.7Z"/></clipPath><clipPath id="clip-path-8" transform="translate(-1.4 -0.8)"><path class="cls-1" d="M278.7,23.8h0a4.2,4.2,0,1,1,4.2,4.2A4.2,4.2,0,0,1,278.7,23.8Zm4.2,3.1a3.1,3.1,0,0,0,3.1-3.1h0a3.1,3.1,0,1,0-3.1,3.1Z"/></clipPath><clipPath id="clip-path-9" transform="translate(-1.4 -0.8)"><path class="cls-1" d="M95.4,44.1a67,67,0,0,0-3.7-11.5c-1-2-1.7-2.6-2.3-2.1s-3,5.4-4.3,13.4c-.1.3-.1.6-.2,1a8.7,8.7,0,0,0-.2,1,55.4,55.4,0,0,1-1.9,9c-1,2.7-2.1,4.1-4,4s-3.4-1.9-4.9-5a84.9,84.9,0,0,1-3.6-10l-.3-1a77.1,77.1,0,0,0-3.2-9.2c-1.2-2.9-2.4-4.7-3.7-5.6s-.5,0-.7,1.1a33.1,33.1,0,0,0-.4,5.5,13.1,13.1,0,0,0-.1,1.7,31.8,31.8,0,0,1-.6,6.2c-.5,2-1.3,3.2-2.6,3.2S55.6,44.3,54,41c-.4-.8-1.9-4-2-4.4-2.5-5.1-4.5-7.8-7.5-8.4s-7.2,2.9-11.7,11.2a.6.6,0,0,1-1-.6c4.8-8.7,9-12.6,12.9-11.7s5.6,3.6,8.2,9l2,4.4c1.4,2.9,2.4,4.2,3.7,4.2s1.9-2.7,2.1-8.4a7.2,7.2,0,0,0,.1-1.7,36.4,36.4,0,0,1,.4-5.7c.4-1.8,1.2-2.7,2.4-1.8s2.8,3,4.1,6.1,2.3,6.2,3.2,9.3l.3,1a68.4,68.4,0,0,0,3.5,9.9c1.4,2.8,2.7,4.3,4,4.4s2-1,2.8-3.3a54.2,54.2,0,0,0,1.9-8.9,4.1,4.1,0,0,1,.2-1,3.8,3.8,0,0,0,.1-1c1.4-8.3,2.5-12.1,4.7-14s2.7-.1,4,2.5a69.5,69.5,0,0,1,3.8,11.7.6.6,0,0,1-.4.7c-.1.1-.4,0-.4-.4Z"/></clipPath><clipPath id="clip-path-10" transform="translate(-1.4 -0.8)"><path class="cls-1" d="M211.4,115.1v-.2a4.4,4.4,0,1,1,4.2,4.6A4.3,4.3,0,0,1,211.4,115.1Zm8,0v-.2a4,4,0,1,0-3.8,4.2A3.8,3.8,0,0,0,219.4,115.1Z"/></clipPath><clipPath id="clip-path-11" transform="translate(-1.4 -0.8)"><path class="cls-1" d="M117.9,113.4q1,56.4-6.4,74.5c-5,12.1-9.7,12.1-14.3,0q-1.2-25.8,0-53.7c.8-18.6,5.6-31.2,14.3-37.5Z"/></clipPath><clipPath id="clip-path-12" transform="translate(-1.4 -0.8)"><path class="cls-1" d="M117.7,113.5,111.4,97c-8.5,6.4-13.2,18.8-14,37.3s-.8,36.5,0,53.7c4.5,12,9,11.9,13.9,0s7.1-37,6.4-74.5Zm-6.2-16.9c.1,0,.2,0,.2.1l6.4,16.8c.7,37.6-1.4,62.3-6.4,74.6s-10,12.3-14.6-.1q-1.2-25.6,0-53.7c.8-18.7,5.6-31.3,14.4-37.7Z"/></clipPath><clipPath id="clip-path-13" transform="translate(-1.4 -0.8)"><path class="cls-1" d="M97.3,188q7.8-39.5,6.8-54c-2.1-28.7,12.1,42.6,7.5,54s-9.8,12.1-14.3,0Z"/></clipPath><clipPath id="clip-path-14" transform="translate(-1.4 -0.8)"><path class="cls-1" d="M106.4,103.2a15.6,15.6,0,0,1,6.4-7.9c4.3-2.5,15.6-3.7,28.8-3.7V71.3H165V92.4c18.9,1.5,36.2,4.8,39.4,8.9,6.8,9,0,48.3-10.7,60.3s-1.6,41,0,48.5,10.6,24.2,7,25.4-53.9,4.2-73,1.2c-12.8-2-21.2-2-32.4-15.3,14.1-23.9,11.9-33.8,13.2-38,2.1-6.3.2-28.4-2.1-42.1-.6-3.5-1.3-7.7-1.8-12.2"/></clipPath><clipPath id="clip-path-15" transform="translate(-1.4 -0.8)"><path class="cls-1" d="M106,198.7a100,100,0,0,1-10.4,22.8,40.6,40.6,0,0,0,11.9,10.2c4.2,2.3,7.9,3.2,15.5,4.3l2.3.3,2.4.4c8.5,1.3,24.1,1.6,42.3.9,14.5-.5,28.7-1.6,30.6-2.2s1-1.9.2-4.7-2.2-6.5-3.5-9.7c-2.5-6.2-3.3-8.5-3.8-10.8-.1-.3-1.8-7.2-2.4-10a108.6,108.6,0,0,1-2.5-16c-.7-10,.7-17.8,5-22.6,10.5-11.9,17.4-51.1,10.6-60.1-2.9-3.8-18.6-7.2-39.4-9v-21h-23c-.1,13.5-.1,20.2-.2,20.2-14.1,0-24.7,1.3-28.7,3.7a15.8,15.8,0,0,0-6.4,7.8c0,.1-.1.1-.3-.1a16,16,0,0,1,6.5-8c4.1-2.4,14.6-3.7,28.7-3.7.1-13.5.1-20.2.2-20.2,15.7.1,23.6.1,23.6.2v21c20.7,1.7,36.4,5,39.4,9,6.9,9.1,0,48.5-10.7,60.5-4.2,4.7-5.6,12.4-4.9,22.4a105.3,105.3,0,0,0,2.5,15.9c.6,2.8,2.3,9.6,2.4,10,.5,2.2,1.4,4.6,3.9,10.9,1.3,3.1,2.5,6.3,3.5,9.5s.8,4.8-.4,5.1-16.2,1.7-30.7,2.2c-18.2.6-33.8.4-42.4-.9l-2.4-.4-2.3-.3c-7.6-1.1-11.5-2.1-15.6-4.3s-8-5.5-12.1-10.6c5.2-8.8,8.5-16.3,10.4-22.9a62,62,0,0,0,1.6-7.2c.1-.9.3-1.8.4-2.8s.2-2.1.2-2.2a25,25,0,0,1,.5-2.9c1.9-5.6.6-25.9-2.1-42.1-.9-5.4-1.4-8.5-1.8-12.2h.4c.4,3.7.9,6.9,1.8,12.2,2.7,16.2,4,36.6,2.1,42.2a13.5,13.5,0,0,0-.5,2.9c0,.1-.2,1.7-.2,2.2a27,27,0,0,1-.4,2.8,59.8,59.8,0,0,1-1.8,7.3Z"/></clipPath><clipPath id="clip-path-16" transform="translate(-1.4 -0.8)"><path class="cls-1" d="M106.4,103.1a15.6,15.6,0,0,1,6.4-7.9c4.3-2.5,5.8,56.2,5.8,99.7,0,21.1-5.8,40.3-23.2,26.6,14.1-23.9,11.9-33.8,13.2-38,2.1-6.3.2-28.4-2.1-42.1-.6-3.5-1.3-7.7-1.8-12.2Z"/></clipPath><clipPath id="clip-path-17" transform="translate(-1.4 -0.8)"><path class="cls-1" d="M143.9,93.9c1.9,0,4.6-1.8,7.5-4.5l.4-.4.9-.9c.3-.2,1.7-.1,1.9-.3,3.6-4.1,6.4-10,8-17,3.1-13.8,6.8-37.1-6.8-37.1s-27.2,8.5-27.2,22.2,10.5,38,15.3,38Z"/></clipPath><clipPath id="clip-path-18" transform="translate(-1.4 -0.8)"><path class="cls-2" d="M146.5,177.8c-2.7-14.3-4-29.4-2.6-43.6s8.4-26.9,21.2-41.7c18.9,1.5,36.2,4.8,39.4,8.9,6.8,9,0,48.3-10.7,60.3s-1.6,41,0,48.5,10.6,21.1,7,25.4-10.6,8.5-29.8,5.5C166.8,240.4,152.8,211.4,146.5,177.8Z"/></clipPath><clipPath id="clip-path-19" transform="translate(-1.4 -0.8)"><path class="cls-1" d="M204.3,101.6c-2.9-3.9-18.6-7.2-39.2-8.9-12.8,14.7-19.9,28.5-21.1,41.5s-.3,28,2.6,43.5a224.9,224.9,0,0,0,13.1,44c4.7,11.2,9.3,18.8,11.4,19.2,8.9,1.4,15.6,1.3,20.6,0a16.8,16.8,0,0,0,9-5.4c1-1.1,1.1-3.1.4-5.8a51.2,51.2,0,0,0-3.2-8.5l-.4-.9c-2.6-5.8-3.3-7.7-3.8-10-.1-.3-1.8-7.2-2.4-10a108.6,108.6,0,0,1-2.5-16c-.7-10,.7-17.8,5-22.6,10.4-12,17.3-51.1,10.5-60.1ZM171,241.3c-2.3-.4-6.9-8-11.6-19.4a232.9,232.9,0,0,1-13.1-44.1c-2.9-15.6-3.9-30.4-2.6-43.6s8.4-27,21.4-41.8c20.8,1.7,36.5,5,39.5,9,6.9,9.1,0,48.5-10.7,60.5-4.2,4.7-5.6,12.4-4.9,22.4a105.3,105.3,0,0,0,2.5,15.9c.6,2.8,2.3,9.6,2.4,10,.5,2.2,1.3,4.1,3.8,9.9a7.9,7.9,0,0,0,.4.9,52.2,52.2,0,0,1,3.2,8.6c.7,2.9.6,4.9-.4,6.1a16.9,16.9,0,0,1-9.2,5.5c-5,1.4-11.7,1.5-20.7.1Z"/></clipPath><clipPath id="clip-path-20" transform="translate(-1.4 -0.8)"><path class="cls-1" d="M193.8,210.2c1.7,7.4-25.8-5.9-43.9-41.7-5.8-11.4,22,12.1,27.9,1.7,8.1-14.3,9.8-44.6,11.4-41.5,6.8,9,15.3,21,4.6,33s-1.7,41.1,0,48.5Z"/></clipPath><clipPath id="clip-path-21" transform="translate(-1.4 -0.8)"><path class="cls-1" d="M183.2,94.8c-5.4-.9-11.6-1.6-18.1-2.1-12.8,14.7-19.9,28.5-21.1,41.5s-.4,26.8,2.3,41.7c.3-14,4.6-27.6,11.9-41,.2-.3-.5-1.1-2.4-2.7s-2.8-2.6-2.5-3.2,1.4-1.1,3.9-1.7h.1c2.3-.6,3.2-.9,3.5-1.4s2.1-2.9,3.2-4.4c2.8-3.7,5.6-7.2,9.1-11.1l7.3-8.3a29,29,0,0,0,3.9-5.3c.6-1.2.3-1.8-1.1-2Zm0-.2c1.6.2,2,1.1,1.4,2.5s-1.7,2.8-3.9,5.4-6,6.7-7.3,8.3c-3.4,3.8-6.2,7.3-9,11l-3.1,4.4c-.4.7-1.3,1-3.8,1.6h-.1c-2.4.6-3.4.9-3.7,1.6s.5,1,2.5,2.7,2.8,2.6,2.5,3.2c-7.7,14-11.9,28.1-11.9,42.7l-.2.2-.2-.2c-2.9-15.6-3.9-30.4-2.6-43.7s8.4-27,21.3-41.8h.1c6.5.5,12.7,1.2,18.2,2.1Z"/></clipPath><clipPath id="clip-path-22" transform="translate(-1.4 -0.8)"><path class="cls-1" d="M104.7,128.4c.2-11.1.4-18.3.7-21.7s.6-3.7,1.3-4.1a15.2,15.2,0,0,1,6.2-7.3c4.3-2.5,15.6-3.7,28.8-3.7q-18,14.9-20.4,45.3c-5.1,64.8-10.5,85.9-21.4,87.8s-12.7,0-14.8-2.8c17.9-23.2,22.2-34.3,23.6-38.5,2.1-6.3.2-28.4-2.1-42.1-.7-3.7-1.4-8.2-1.9-12.9Z"/></clipPath><clipPath id="clip-path-23" transform="translate(-1.4 -0.8)"><path class="cls-1" d="M103.2,195.6a213.7,213.7,0,0,1-17.9,26.3,6.6,6.6,0,0,0,4,2.9c2.2.6,5.5.5,10.6-.4,10.7-1.9,16.1-24,21.2-87.7,1.6-20.1,8.3-35.2,20.1-45.1-13.9.1-24.2,1.3-28.2,3.7a14.8,14.8,0,0,0-6.1,7.2c0,.1-.1.1-.3-.2a15.1,15.1,0,0,1,6.3-7.4c4.1-2.4,14.7-3.7,28.9-3.7h.1a.2.2,0,0,1,0,.3q-17.9,14.7-20.3,45.2c-5.1,63.9-10.5,86.1-21.5,88-5.1.9-8.5,1-10.7.4s-2.8-1.3-4.3-3.4a236.3,236.3,0,0,0,18-26.4,72.9,72.9,0,0,0,5.6-12c1.9-5.6.6-25.9-2.1-42.1-1-5.7-1.5-9-1.9-13a.2.2,0,0,1,.2-.2h0a.2.2,0,0,1,.2.2c.4,4,.9,7.3,1.9,13,2.7,16.2,4,36.6,2.1,42.2a79.8,79.8,0,0,1-5.9,12.1Z"/></clipPath><clipPath id="clip-path-24" transform="translate(-1.4 -0.8)"><path class="cls-1" d="M141.6,91.6q-18,14.9-20.4,45.3c-1.1,13.5-2.2,25.1-3.3,35.1-5.1-25.2-3.9-27.9-6.2-41.7-.6-3.4,7-4.2,7-6.2s-7.3-.5-7-4.2c.7-10.4,16.8-28.7,21.1-29.2s3.7-.8,8.8.9Z"/></clipPath><clipPath id="clip-path-25" transform="translate(-1.4 -0.8)"><path class="cls-1" d="M141.3,91.7c-2.9-.9-3.5-1.1-4.4-1.1h-2.6l-1.5.2c-2,.2-7.1,4.8-11.7,10.8s-8.8,13.5-9.2,18.2c-.1,1.5.9,2.1,3.4,2.6h1c2,.3,2.6.6,2.6,1.4s-.5,1.1-1.7,1.7l-.9.4h-.4l-.5.2c-2.6,1.2-3.6,2.2-3.4,3.5.7,3.9,1,6.8,1.5,11.2,0,.3.1.5.1.9a243.2,243.2,0,0,0,4.4,28.4c1.1-9.6,2.2-20.8,3.2-33.9Q123.5,106.5,141.3,91.7Zm-4.4-1.5c.9,0,1.6.2,4.8,1.2h.1a.2.2,0,0,1,0,.3Q124,106.5,121.5,137c-1.1,13.7-2.2,25.3-3.3,35.1h-.3a249.2,249.2,0,0,1-4.6-29.6c0-.3-.1-.6-.1-.9-.5-4.3-.8-7.3-1.5-11.2-.3-1.6.9-2.6,3.6-3.9l.5-.2h.4l.9-.4c1-.5,1.5-.9,1.5-1.4s-.6-.8-2.4-1.1h-1c-2.6-.5-3.8-1.3-3.7-3,.3-4.8,3.9-11.6,9.2-18.4s9.8-10.7,12-10.9l1.5-.2h1.1a4.7,4.7,0,0,1,1.6-.2Z"/></clipPath><clipPath id="clip-path-26" transform="translate(-1.4 -0.8)"><path class="cls-1" d="M153,151.6c7.1,3.8,9.6,32.1-5,16.6-7-7.4-12.3-13.1-13.4-13.1s-5.8-1.2-10.9-3.6l-3.9,1c2.4,5.4,3.1,7.7,1.9,7s-6.4-5.7-15.8-14.8l4.8-4.5-8.7-1.3-3.8-4.7h17.5c3,0,20.4,8,24.8,10.4,1.4,1,5.5,3.3,12.5,7Z"/></clipPath><clipPath id="clip-path-27" transform="translate(-1.4 -0.8)"><path class="cls-1" d="M98.6,134.6l3.5,4.3,8.6,1.3a.1.1,0,0,1,.1.1.2.2,0,0,1,0,.3l-4.6,4.3c9.3,9,14.5,13.9,15.6,14.6h.3a4.1,4.1,0,0,0-.1-1.1,35.7,35.7,0,0,0-2.3-5.7h0c0-.1,0-.2.1-.2l4-1q7.5,3.6,10.8,3.6c1,0,3.1,2.1,13.5,13.1,3.4,3.6,6,4.9,7.8,4.4s2.4-2.4,2.6-5.4c.3-6-2.3-13.6-5.6-15.4l-12.5-6.8c-6-3.4-22.2-10.4-24.7-10.4Zm3.5,4.3Zm32.5,16.5c-2.2,0-5.9-1.2-10.9-3.6l-3.6.9a38.3,38.3,0,0,1,2.2,5.6,1.9,1.9,0,0,1,.1,1.3c-.1.3-.4.4-.8.1s-6.5-5.6-15.8-14.8h0a.2.2,0,0,1,0-.3l4.5-4.2-8.4-1.3-3.8-4.7h0a.2.2,0,0,1,.2-.2h17.4c2.6,0,18.8,7.1,24.9,10.5l12.5,6.8c3.4,1.9,6.1,9.6,5.8,15.7-.2,3.1-1.1,5.2-2.8,5.7s-4.7-.8-8.1-4.5c-10.2-10.5-12.6-12.9-13.4-12.9Z"/></clipPath><clipPath id="clip-path-28" transform="translate(-1.4 -0.8)"><path class="cls-1" d="M196.7,105.1c1.9-3.4,4-5.4,6-4.9,5.5,1.3,14,19.7,14,33s-11.9,65.4-23.9,70.3c-9,3.7-37.1-23.9-51.2-38.6-4.7-4.9,2.3-18.1,6.2-16l35,18.9c3-17.9,5.2-30.9,6.4-39.1"/></clipPath><clipPath id="clip-path-29" transform="translate(-1.4 -0.8)"><path class="cls-1" d="M148,148.7l34.7,18.8c3-17.8,5.1-30.7,6.4-38.8,0-.1.1-.2.4.1-1.3,8.1-3.4,21.1-6.4,39.1h-.3l-35-18.9c-1.7-.9-4.4,1.4-6.1,5.3s-2,8.3.1,10.4A340.4,340.4,0,0,0,169.3,191c11.3,9.4,19.5,14,23.5,12.4s11.2-14.2,16.4-31.9c4.3-14.6,7.5-31.2,7.5-38.2,0-12.7-8.2-31.5-13.9-32.9-1.8-.4-3.8,1.3-5.8,4.8-.1.1-.2.1-.3-.2,2.1-3.7,4.2-5.5,6.2-5,5.9,1.4,14.1,20.4,14.1,33.2,0,7-3.2,23.7-7.5,38.3-5.2,17.8-11.1,29.9-16.6,32.1s-12.5-2.9-23.9-12.4A357.8,357.8,0,0,1,141.5,165c-2.1-2.3-2.1-6.6-.1-10.9s4.6-6.4,6.6-5.4Z"/></clipPath><clipPath id="clip-path-30" transform="translate(-1.4 -0.8)"><path class="cls-1" d="M81.6,179.5l3.3,4.1h15.3l-2-13.7-12.5,5.5c-3.1,1.2-4.5,2.6-4.1,4.1Z"/></clipPath><clipPath id="clip-path-31" transform="translate(-1.4 -0.8)"><path class="cls-1" d="M96.5,116.4l27.3,52.3a.7.7,0,0,1-.2.9l-1.6,1.3-38.5-6L55.8,111.8l.8-2a.7.7,0,0,1,.8-.4l37.5,5.8a2,2,0,0,1,1.6,1.2Zm0,0,27.3,52.3a.7.7,0,0,1-.2.9l-1.6,1.3-38.5-6L55.8,111.8l.8-2a.7.7,0,0,1,.8-.4l37.5,5.8a2,2,0,0,1,1.6,1.2Z"/></clipPath><clipPath id="clip-path-32" transform="translate(-1.4 -0.8)"><path class="cls-1" d="M96.7,116.3,124,168.6a.9.9,0,0,1-.2,1.1c-1.1.9,36.9,7.3-1.8,1.3l-38.6-6.1c-18.5-35.3-27.7-53.1-27.7-53.1l.8-2a1.1,1.1,0,0,1,1-.6L95,115a2.3,2.3,0,0,1,1.7,1.3Zm-39.9-6.4-.8,1.9,27.6,52.9,38.3,5.9,1.5-1.2a.5.5,0,0,0,.1-.7L96.1,116.4a1.9,1.9,0,0,0-1.5-1.1l-37.5-5.8c.1,0-.2.2-.3.4Z"/></clipPath><clipPath id="clip-path-33" transform="translate(-1.4 -0.8)"><path class="cls-1" d="M95.4,118.2l27,51.6a.8.8,0,0,1-.3,1h-.4l-39.2-4.1L56,112.4a.8.8,0,0,1,.3-1h.4l37.1,5.8a1.9,1.9,0,0,1,1.6,1.1Z"/></clipPath><clipPath id="clip-path-34" transform="translate(-1.4 -0.8)"><path class="cls-1" d="M95.6,118.1l27,51.6h0a.9.9,0,0,1-.4,1.2h-.5l-39.4-4.2L55.8,112.4a1.3,1.3,0,0,1-.1-.6.9.9,0,0,1,1.1-.7l37.1,5.8a2.1,2.1,0,0,1,1.7,1.2Zm-13,48.5ZM56.2,112.2l26.5,54.3,39.1,4.1h.3a.4.4,0,0,0,.2-.7l-27-51.6a1.9,1.9,0,0,0-1.5-1.1l-37.1-5.6h-.3a.4.4,0,0,0-.2.7Z"/></clipPath><clipPath id="clip-path-35" transform="translate(-1.4 -0.8)"><path class="cls-1" d="M92.3,121.8a1,1,0,0,0,.4-1.2,2.1,2.1,0,0,0-1.7-1.3c-.7,0-1,.6-.8,1.3a2.1,2.1,0,0,0,1.7,1.3Z"/></clipPath><clipPath id="clip-path-36" transform="translate(-1.4 -0.8)"><path class="cls-1" d="M95.6,167.4a12.1,12.1,0,0,0,2.8-3.9,9.6,9.6,0,0,0,1.4-4q6.9-9.5,6-10.8c-1-1.2-10.2,7.4-10.2,5.8s5.6-18.1,4.2-18.8-3.9,4.1-9.1,13.8c1.6-13.7,1.9-20.7.9-20.9s-3.3,6.1-6.7,18.9c-1.6-14.7-2.9-22.1-4-22.1s-1.9,8.4-2.5,25.1a73.6,73.6,0,0,1-5.4-8.3q-1.9-3.7-4.8-2.1L73,154.6l5.4,12.9c2.6,6.1,7.6,12.9,14.9,20.4,11,11.3,10.8-8.4,9.2-11.3a61.4,61.4,0,0,0-6.9-9.2Z"/></clipPath><clipPath id="clip-path-37" transform="translate(-1.4 -0.8)"><path class="cls-1" d="M98.5,163.7a14.6,14.6,0,0,1-2.7,3.8,66.4,66.4,0,0,1,6.8,9c1,1.7,1.2,7.6.2,11.1s-4.6,5.5-9.6.4c-7.4-7.5-12.4-14.4-14.9-20.5l-5.4-12.9-4.7-14.5c0-.1,0-.2.1-.2,2-1.1,3.7-.4,5,2.1a66.4,66.4,0,0,0,5.1,7.9c.6-16.8,1.5-24.7,2.7-24.7s2.5,6.9,4,21.2c3.4-12.5,5.5-18.3,6.7-18.1s.9,6.7-.6,20.1c5-9.4,7.8-13.6,8.9-13s.1,3.5-1.6,9.7l-.3,1.1c-.2.6-1.3,4.4-1.5,5.3a24.6,24.6,0,0,0-.7,2.9h.2a3,3,0,0,0,1.1-.6l3.4-2.4.3-.2c3.4-2.5,4.8-3.3,5.3-2.7s-1.3,4.5-6,10.9a16.9,16.9,0,0,1-1.8,4.3ZM72.9,142.2c-1.3-2.3-2.7-3-4.4-2.1l4.8,14.4,5.4,12.9c2.6,6.1,7.5,12.9,14.9,20.4,4.8,4.9,7.7,4.3,9-.3s.8-9.2-.1-10.8a60.5,60.5,0,0,0-6.9-9.1.2.2,0,0,1,0-.3,14.9,14.9,0,0,0,2.8-3.8,9.6,9.6,0,0,0,1.4-4c4.5-6.2,6.5-9.8,6-10.5s-1.8.6-4.8,2.8l-.3.2-3.4,2.4a6,6,0,0,1-1.1.6q-.6.1-.6-.3a16.3,16.3,0,0,1,.7-3c.3-.9,1.4-4.8,1.5-5.3l.3-1.1c1.6-5.6,2.3-9,1.8-9.3S96,140.3,91,149.7c0,.1-.1.1-.2.1l-.2-.2c1.6-13.4,1.9-20.5,1-20.7s-3.2,6.3-6.5,18.8a.2.2,0,0,1-.4,0c-1.5-14.4-2.9-21.9-3.8-21.9s-.4.5-.6,1.4-.5,3.1-.7,4.7c-.4,4.2-.8,10.4-1.1,18.8,0,.1,0,.1-.1.2s-.2,0-.2-.1c-1.9-2.9-3.7-5.7-5.3-8.6Z"/></clipPath><clipPath id="clip-path-38" transform="translate(-1.4 -0.8)"><path class="cls-1" d="M98.4,169.8c-.5-.4,1.2,10.8-6.7,12.4s-10.9-3.9-10.2-2.7c8.7,14.2,16.4,17.8,19.7,18.5,1.8-.9,8-13,8-17.4,0-1.8-5.8-6.6-10.8-10.8Z"/></clipPath><clipPath id="clip-path-39" transform="translate(-1.4 -0.8)"><path class="cls-1" d="M98.2,169.8c.1,0,.1-.1,0,0s.2-.2.3-.1l.5.4.5.4.9.8.7.6c5.7,4.8,8.3,7.4,8.3,8.8,0,4-6,16.4-8.1,17.6h-.1a21.5,21.5,0,0,1-7.9-4.2c-4-3.2-8-7.9-11.9-14.3,0-.1-.1-.1-.1-.2v-.2h.3l.4.3,1.9,1.3a10.8,10.8,0,0,0,7.8,1.3c3.1-.6,4.9-2.8,5.8-6a19.9,19.9,0,0,0,.6-5.4v-1Zm.3.1Zm.3.4-.2-.2v.5a25.1,25.1,0,0,1-.6,5.5c-.9,3.4-2.8,5.6-6.1,6.3a10.9,10.9,0,0,1-8.1-1.4,9.1,9.1,0,0,1-1.6-1.1,52.1,52.1,0,0,0,11.5,13.7,20,20,0,0,0,7.7,4.2c2-1.3,7.8-13.3,7.8-17.2,0-1.2-2.6-3.9-8.2-8.6l-.7-.6-.9-.8-.6-.3Zm-17.1,9Z"/></clipPath><clipPath id="clip-path-40" transform="translate(-1.4 -0.8)"><path class="cls-1" d="M140.5,91.9c-4,0-8.8-5.9-13-15.1S121,58.2,121,51.5c0-12.9,12.6-22.3,27.4-22.3a24.9,24.9,0,0,1,24.9,24.9c0,6.3-5.2,15.4-13.2,24.1s-15.4,13.6-19.6,13.7Z"/></clipPath><clipPath id="clip-path-41" transform="translate(-1.4 -0.8)"><path class="cls-1" d="M140.5,91.4c4,0,12-5.7,19.3-13.7s13.1-17.6,13.1-23.8h0a24.5,24.5,0,0,0-24.5-24.5c-14.7,0-27.1,9.3-27.1,22,0,6.6,2.6,16.6,6.5,25.2s8.9,14.9,12.7,14.8Z"/></clipPath><clipPath id="clip-path-42" transform="translate(-1.4 -0.8)"><path class="cls-1" d="M133.8,60.7a1.3,1.3,0,0,1,2.6,0,.2.2,0,0,1-.4,0v-.2a.9.9,0,0,0-1.8.2.2.2,0,0,1-.2.2h0c-.2,0-.2-.1-.2-.2Z"/></clipPath><clipPath id="clip-path-43" transform="translate(-1.4 -0.8)"><path class="cls-1" d="M134,79.9h0v-.2h.2q2.8,1.8,6.6-1.8h.3a.2.2,0,0,1,0,.3C138.4,80.6,136.1,81.2,134,79.9Z"/></clipPath><clipPath id="clip-path-44" transform="translate(-1.4 -0.8)"><path class="cls-1" d="M135.3,63h0l-4.2,11.3,5.1.8h0c.1,0,.2.1.1.2h0c0,.1-.1.2-.2.1l-5.3-.9h-.1c-.1,0-.1-.1-.1-.2l4.3-11.5"/></clipPath><clipPath id="clip-path-45" transform="translate(-1.4 -0.8)"><path class="cls-1" d="M145.3,61.6h0a1.6,1.6,0,0,0-1.7-1.6,1.6,1.6,0,0,0-1.6,1.7,1.6,1.6,0,0,0,1.7,1.6A1.6,1.6,0,0,0,145.3,61.6Z"/></clipPath><clipPath id="clip-path-46" transform="translate(-1.4 -0.8)"><path class="cls-1" d="M127.2,64.4h0a1.6,1.6,0,0,0,1.6-1.7,1.6,1.6,0,0,0-1.6-1.6,1.7,1.7,0,0,0-1.7,1.6,1.8,1.8,0,0,0,1.7,1.7Z"/></clipPath><clipPath id="clip-path-47" transform="translate(-1.4 -0.8)"><path class="cls-1" d="M166.3,52.5c1.7,0,.8,6.9-2.6,20.8a3,3,0,0,0,2.6,0,4.5,4.5,0,0,0,2.3-2q-9,10.7-9,17.4c0,4.5,3,7.3,9,8.5-5.3,6.2-8.3,11.1-9,14.9s2.3,7.5,9,11.4a14.2,14.2,0,0,0-4.9,12.5c.7,7.5,18.3,16.1,20.3,9.1s-7.4-10.3-1.6-16.6q5.8-6.3,0-10.2c4.7-4.7,8.5-11.5,11.3-20.2s.3-14.1-7.7-16c4.1-8.8,5.6-16.2,4.3-22.2s-5.6-6.5-13-1.5c6.4-5.3,5.7-15.3-2.1-30.3-6.2-12-26.2-11.4-37.4-9.9-9.6,1.4-19.7-2.7-24.6,4.5-3.3,4.8-.7,14.7,7.7,29.8,0-6.7,2-9.4,6.3-8s11.9.2,23-3.6c.5,4.5,1.6,7.9,3.5,10.3s3.3,3.4,4.3,3l1.6,5.7C162.4,55,164.6,52.5,166.3,52.5Z"/></clipPath><clipPath id="clip-path-48" transform="translate(-1.4 -0.8)"><path class="cls-1" d="M168.5,53.9c2.2.8,3.6,7.9,1.1,11.1s-3.6,3-5.6,2.6l-.8-11.3C165.3,54.2,167,53.4,168.5,53.9Z"/></clipPath><clipPath id="clip-path-49" transform="translate(-1.4 -0.8)"><path class="cls-1" d="M163.4,56.4c-.1.1-.2.1-.2,0h0a.2.2,0,0,1,0-.3q3.2-3.1,5.4-2.4c2.6.9,3.6,8.3,1.2,11.4s-3.6,3.1-5.7,2.6c-.1,0-.2-.1-.1-.2s.1-.2.2-.1c1.9.4,3.7-.4,5.4-2.5s1.5-3.9,1.2-6.3-1.2-4.2-2.2-4.5-3.2.3-5.2,2.3Z"/></clipPath><clipPath id="clip-path-50" transform="translate(-1.4 -0.8)"><path class="cls-1" d="M164.9,61.2h-.2a.3.3,0,0,1-.1-.2c1.2-2.1,2.2-2.9,3-2.3a.2.2,0,0,1-.3.3q-.6-.7-2.4,2.1Z"/></clipPath><clipPath id="clip-path-51" transform="translate(-1.4 -0.8)"><path class="cls-1" d="M166.6,57.7a.2.2,0,0,1,0-.3h0a.2.2,0,0,1,.3,0c1.4,1.2,1.6,3.2.5,6.2h0c0,.1-.1.1-.2.1s-.1-.1-.1-.2c1-2.8.8-4.8-.5-5.8Z"/></clipPath><clipPath id="clip-path-52" transform="translate(-1.4 -0.8)"><path class="cls-1" d="M155.2,58.5l8.7-3.4h.1c.1,0,.2,0,.2.1s0,.2-.1.2l-8.7,3.4h-.2c0-.1-.1-.1,0-.2Z"/></clipPath><clipPath id="clip-path-53" transform="translate(-1.4 -0.8)"><path class="cls-1" d="M139.8,97.5c1.1-.9,1.9-5.9,1.9-5.9s-6.9,6.5-7.5,7.2-7.9,10.1-9.6,19.4c5.6-13.6,9.9-18.8,11.8-19.5S138.7,98.5,139.8,97.5Z"/></clipPath><clipPath id="clip-path-54" transform="translate(-1.4 -0.8)"><path class="cls-1" d="M159.6,99.5h-.2l-.6.3-2.2,1a17.2,17.2,0,0,1-8.7,1.3,10.6,10.6,0,0,1-4.2-1.5v-.2h.3a9.6,9.6,0,0,0,4,1.4,16.6,16.6,0,0,0,8.5-1.3l2.1-1,.6-.3h.5c.1.1.1.2,0,.2Z"/></clipPath><clipPath id="clip-path-55" transform="translate(-1.4 -0.8)"><path class="cls-1" d="M142,99.9c-1.8-1-2.8-1.9-2.8-2.8h0l.2-.2.2.2c0,.7.9,1.5,2.6,2.4a.3.3,0,0,1,.1.2h0c-.1.2-.2.2-.3.2Z"/></clipPath><clipPath id="clip-path-56" transform="translate(-1.4 -0.8)"><path class="cls-1" d="M161.5,85.5l-.2.2-.7.4-2.3,1.3-2.3,1a7,7,0,0,1-4.4.7h0c-.1,0-.1-.1-.1-.2s.1-.1.2-.1,2.4,0,4.2-.7l2.3-1,2.3-1.2.7-.4.2-.2h.3c-.1-.1-.1.1-.2.2Z"/></clipPath><clipPath id="clip-path-57" transform="translate(-1.4 -0.8)"><path class="cls-1" d="M185.6,100.1h0c-.1,0-.2-.1-.1-.2s.1-.2.2-.1l12.3,2.8c.1,0,.2.1.1.2s-.1.2-.2.1Z"/></clipPath><clipPath id="clip-path-58" transform="translate(-1.4 -0.8)"><path class="cls-1" d="M115.6,152.1h-.2c-.1,0-.1-.2-.1-.2l1.7-3.4h.2c.1,0,.1.2.1.2Z"/></clipPath><clipPath id="clip-path-59" transform="translate(-1.4 -0.8)"><path class="cls-1" d="M115.1,145.8l-1.6,2.2h-.2c-.1-.1-.1-.2,0-.2l1.6-2.2h.3c-.1,0-.1.1-.1.2Z"/></clipPath><clipPath id="clip-path-60" transform="translate(-1.4 -0.8)"><path class="cls-1" d="M111.6,145.2h-.2c-.1-.1-.1-.2,0-.2l1.3-2h.2a.3.3,0,0,1,.1.2Z"/></clipPath><clipPath id="clip-path-61" transform="translate(-1.4 -0.8)"><path class="cls-1" d="M237.3,242.5q40.6-18.3,40.4-80.6l-.9-.4-3.2-1.3c-3.4-1.3-7-2.7-10.7-3.9s-6.3-2-9.3-2.9c-6.6-1.8-12.1-2.8-16.2-2.8-6.1,0-15,2.1-25.5,5.7-3.7,1.2-7.3,2.6-10.7,3.9l-3.2,1.3-1.1.4q-.2,62.3,40.4,80.6Zm40.5-81,.4.3q.2,62.5-41,81-40.9-18.3-40.7-81.2h.3l.9-.4,3.2-1.3c3.4-1.3,7.1-2.7,10.8-3.9,10.6-3.6,19.5-5.7,25.7-5.7,4.2,0,9.7,1,16.3,2.8,3,.8,6.1,1.8,9.3,2.9s7.3,2.6,10.8,3.9l3.2,1.3.8.4Z"/></clipPath><clipPath id="clip-path-62" transform="translate(-1.4 -0.8)"><path class="cls-1" d="M271.1,169.7q0,49.8-32.5,64.4a56.2,56.2,0,0,1-10.5-6.3,57,57,0,0,0,9,5.2c21.5-9.7,32.4-31,32.5-63.9Z"/></clipPath><clipPath id="clip-path-63" transform="translate(-1.4 -0.8)"><path class="cls-1" d="M43.2,264.3h0a1.5,1.5,0,1,1,1.5-1.5A1.6,1.6,0,0,1,43.2,264.3Zm1.4-11.7a1.4,1.4,0,0,1-1.5,1.4h0a1.5,1.5,0,0,1,0-3,1.6,1.6,0,0,1,1.5,1.6Zm0-10.3a1.4,1.4,0,0,1-1.5,1.4h0a1.5,1.5,0,0,1,0-3,1.6,1.6,0,0,1,1.5,1.6Zm0-10.2a1.4,1.4,0,0,1-1.5,1.4h0a1.5,1.5,0,0,1,0-3,1.6,1.6,0,0,1,1.5,1.6Zm0-10.3a1.4,1.4,0,0,1-1.5,1.4,1.5,1.5,0,0,1,0-3,1.6,1.6,0,0,1,1.5,1.6Zm0-10.2a1.4,1.4,0,0,1-1.5,1.4,1.5,1.5,0,1,1,0-3,1.6,1.6,0,0,1,1.5,1.6Zm8.9,52.5a1.5,1.5,0,0,1-1.6-1.3v-.2a1.5,1.5,0,0,1,2.9.3A1.3,1.3,0,0,1,53.5,264.1Zm10.3,0a1.5,1.5,0,0,1-1.6-1.3v-.2a1.5,1.5,0,0,1,2.9.3A1.4,1.4,0,0,1,63.8,264.1Zm-9-11.5a1.4,1.4,0,0,1-1.5,1.4h0a1.5,1.5,0,0,1,0-3,1.5,1.5,0,0,1,1.5,1.6Zm10.3,0a1.4,1.4,0,0,1-1.5,1.4h0a1.5,1.5,0,0,1,0-3,1.6,1.6,0,0,1,1.5,1.6ZM54.8,242.3a1.4,1.4,0,0,1-1.5,1.4h0a1.5,1.5,0,1,1,1.5-1.4Zm10.3,0a1.4,1.4,0,0,1-1.5,1.4h0a1.5,1.5,0,0,1,0-3,1.6,1.6,0,0,1,1.5,1.6ZM54.8,232.1a1.4,1.4,0,0,1-1.5,1.4h0a1.5,1.5,0,1,1,1.5-1.4Zm10.3,0a1.4,1.4,0,0,1-1.5,1.4h0a1.5,1.5,0,0,1,0-3,1.6,1.6,0,0,1,1.5,1.6ZM54.8,221.8a1.4,1.4,0,0,1-1.5,1.4,1.5,1.5,0,0,1,0-3,1.6,1.6,0,0,1,1.5,1.6Zm10.3,0a1.4,1.4,0,0,1-1.5,1.4,1.5,1.5,0,0,1,0-3,1.6,1.6,0,0,1,1.5,1.6ZM54.8,211.6a1.4,1.4,0,0,1-1.5,1.4,1.5,1.5,0,0,1,0-3,1.6,1.6,0,0,1,1.5,1.6Zm10.3,0a1.4,1.4,0,0,1-1.5,1.4,1.5,1.5,0,0,1,0-3,1.6,1.6,0,0,1,1.5,1.6ZM74,264.1a1.5,1.5,0,0,1-1.6-1.3v-.2a1.5,1.5,0,0,1,2.9.3A1.2,1.2,0,0,1,74,264.1Zm10.3,0a1.5,1.5,0,0,1-1.6-1.3v-.2a1.5,1.5,0,0,1,2.9.3A1.3,1.3,0,0,1,84.3,264.1Zm-8.9-11.5a1.4,1.4,0,0,1-1.5,1.4h0a1.5,1.5,0,1,1,0-3,1.6,1.6,0,0,1,1.5,1.6Zm10.2,0a1.4,1.4,0,0,1-1.5,1.4h0a1.5,1.5,0,0,1,0-3,1.6,1.6,0,0,1,1.5,1.6ZM75.4,242.3a1.4,1.4,0,0,1-1.5,1.4h0a1.5,1.5,0,0,1,0-3,1.7,1.7,0,0,1,1.5,1.6Zm10.2,0a1.4,1.4,0,0,1-1.5,1.4h0a1.5,1.5,0,1,1,0-3,1.6,1.6,0,0,1,1.5,1.6ZM75.4,232.1a1.4,1.4,0,0,1-1.5,1.4h0a1.5,1.5,0,1,1,0-3,1.7,1.7,0,0,1,1.5,1.6Zm10.2,0a1.4,1.4,0,0,1-1.5,1.4h0a1.5,1.5,0,0,1,0-3,1.6,1.6,0,0,1,1.5,1.6ZM75.4,221.9a1.4,1.4,0,0,1-1.5,1.4,1.5,1.5,0,0,1,0-3,1.6,1.6,0,0,1,1.5,1.6Zm10.2,0a1.4,1.4,0,0,1-1.5,1.4,1.5,1.5,0,1,1,0-3,1.6,1.6,0,0,1,1.5,1.6ZM75.4,211.6a1.4,1.4,0,0,1-1.5,1.4,1.5,1.5,0,1,1,0-3,1.6,1.6,0,0,1,1.5,1.6Zm10.2,0a1.4,1.4,0,0,1-1.5,1.4,1.5,1.5,0,0,1,0-3,1.6,1.6,0,0,1,1.5,1.6Zm8.9,52.5a1.5,1.5,0,0,1-1.6-1.3v-.2a1.5,1.5,0,0,1,2.9.3A1.3,1.3,0,0,1,94.5,264.1Zm10.3,0a1.5,1.5,0,0,1-1.6-1.3v-.2a1.5,1.5,0,0,1,2.9.3A1.4,1.4,0,0,1,104.8,264.1Zm-9-11.5a1.4,1.4,0,0,1-1.5,1.4h0a1.5,1.5,0,0,1,0-3,1.5,1.5,0,0,1,1.5,1.6Zm10.3,0a1.4,1.4,0,0,1-1.5,1.4h0a1.5,1.5,0,0,1,0-3,1.6,1.6,0,0,1,1.5,1.6ZM95.8,242.3a1.4,1.4,0,0,1-1.5,1.4h0a1.5,1.5,0,1,1,1.5-1.4Zm10.3,0a1.4,1.4,0,0,1-1.5,1.4h0a1.5,1.5,0,1,1,0-3,1.6,1.6,0,0,1,1.5,1.6ZM95.8,232.1a1.4,1.4,0,0,1-1.5,1.4h0a1.5,1.5,0,1,1,1.5-1.4Zm10.3,0a1.4,1.4,0,0,1-1.5,1.4h0a1.5,1.5,0,0,1,0-3,1.6,1.6,0,0,1,1.5,1.6ZM95.8,221.8a1.4,1.4,0,0,1-1.5,1.4,1.5,1.5,0,0,1,0-3,1.6,1.6,0,0,1,1.5,1.6Zm10.3,0a1.4,1.4,0,0,1-1.5,1.4,1.5,1.5,0,1,1,0-3,1.6,1.6,0,0,1,1.5,1.6ZM95.8,211.6a1.4,1.4,0,0,1-1.5,1.4,1.5,1.5,0,0,1,0-3,1.6,1.6,0,0,1,1.5,1.6Zm10.3,0a1.4,1.4,0,0,1-1.5,1.4,1.5,1.5,0,0,1,0-3,1.6,1.6,0,0,1,1.5,1.6Z"/></clipPath><clipPath id="clip-path-64" transform="translate(-1.4 -0.8)"><polygon class="cls-1" points="72.5 200.9 72.5 249.6 121 249.6 127 246.4 121 200.9 78.9 198 72.5 200.9"/></clipPath><clipPath id="clip-path-65" transform="translate(-1.4 -0.8)"><rect class="cls-1" x="78.7" y="197.6" width="48.3" height="48.3"/></clipPath><clipPath id="clip-path-66" transform="translate(-1.4 -0.8)"><path class="cls-1" d="M126.8,197.8v48h-48v-48Zm-48.1-.3-.2.2V246l.2.2H127l.2-.2V197.7l-.2-.2Z"/></clipPath></defs><path class="cls-3" d="M277.6,174.2a35.6,35.6,0,0,1,.5,4.7,46.7,46.7,0,0,1-43.8,49.4v53.1a100,100,0,0,0,97.4-99.9c0-2.5-.1-4.9-.3-7.3Z" transform="translate(-1.4 -0.8)"/><g class="cls-4"><rect class="cls-3" x="231" y="171.6" width="101" height="110.9"/></g><g class="cls-5"><rect class="cls-6" x="236.6" y="171" width="96" height="110.7"/></g><g class="cls-7"><rect class="cls-8" y="94.4" width="94.4" height="94.4"/></g><g class="cls-9"><rect class="cls-6" x="27.5" y="66.5" width="112" height="112"/></g><g class="cls-10"><rect class="cls-8" x="28.1" y="66.1" width="111.2" height="113"/></g><g class="cls-11"><rect class="cls-8" x="290.7" width="51.1" height="144.1"/></g><g class="cls-12"><rect class="cls-8" x="313.6" y="146.9" width="12.1" height="12.1"/></g><g class="cls-13"><rect class="cls-8" x="275.5" y="16.9" width="12.1" height="12.1"/></g><g class="cls-14"><rect class="cls-8" x="28.6" y="24.2" width="68.2" height="35.8"/></g><rect class="cls-15" x="251" y="108.1" width="12.1" height="12.5"/><g class="cls-16"><rect class="cls-8" x="208.1" y="108.1" width="12.1" height="12.5"/></g><g class="cls-17"><rect class="cls-2" x="93.4" y="94.1" width="25.1" height="104"/></g><g class="cls-18"><rect class="cls-8" x="93.2" y="93.9" width="25.4" height="104.3"/></g><g class="cls-19"><rect class="cls-8" x="94" y="124.6" width="18.9" height="73.5"/></g><g class="cls-20"><rect class="cls-2" x="92.2" y="68.7" width="115.4" height="170.4"/></g><g class="cls-21"><rect class="cls-8" x="92" y="68.5" width="115.8" height="170.8"/></g><g class="cls-22"><rect x="92.2" y="92.6" width="26.8" height="134.6"/><rect class="cls-8" x="92.2" y="92.6" width="26.8" height="134.6"/></g><g class="cls-23"><rect class="cls-2" x="125.2" y="31" width="40.7" height="63.9"/></g><path class="cls-2" d="M146.5,177.8c-2.7-14.3-4-29.4-2.6-43.6s8.4-26.9,21.2-41.7c18.9,1.5,36.2,4.8,39.4,8.9,6.8,9,0,48.3-10.7,60.3s-1.6,41,0,48.5,10.6,21.1,7,25.4-10.6,8.5-29.8,5.5C166.8,240.4,152.8,211.4,146.5,177.8Z" transform="translate(-1.4 -0.8)"/><g class="cls-24"><rect class="cls-2" x="140.1" y="89.9" width="67.6" height="153.2"/></g><g class="cls-25"><rect class="cls-8" x="139.9" y="89.7" width="67.9" height="153.6"/></g><g class="cls-26"><rect class="cls-15" x="145.9" y="125.9" width="53.4" height="87.3"/></g><g class="cls-27"><rect class="cls-8" x="139.9" y="89.7" width="45.5" height="89.3"/></g><g class="cls-28"><rect class="cls-2" x="81.9" y="89" width="60.2" height="137.6"/></g><g class="cls-29"><rect class="cls-8" x="81.7" y="88.8" width="60.5" height="137.9"/></g><g class="cls-30"><rect class="cls-2" x="108.5" y="87.7" width="33.6" height="85.2"/></g><g class="cls-31"><rect class="cls-8" x="108.3" y="87.5" width="34" height="85.6"/></g><g class="cls-32"><rect class="cls-2" x="95" y="131.7" width="64.1" height="42.1"/></g><g class="cls-33"><rect class="cls-8" x="94.8" y="131.6" width="64.4" height="42.5"/></g><g class="cls-34"><rect class="cls-2" x="136.9" y="97.5" width="80.3" height="107.4"/></g><g class="cls-35"><rect class="cls-8" x="136.7" y="97.3" width="80.7" height="107.8"/></g><g class="cls-36"><rect class="cls-15" x="78.3" y="167.2" width="22.3" height="17.4"/></g><g class="cls-37"><rect class="cls-2" x="52.6" y="106.8" width="71.8" height="65.1"/></g><g class="cls-38"><rect class="cls-8" x="52.4" y="106.6" width="72.1" height="65.5"/></g><g class="cls-39"><rect class="cls-2" x="52.7" y="108.6" width="70.3" height="63.3"/></g><g class="cls-40"><rect class="cls-8" x="52.5" y="108.4" width="70.6" height="63.7"/></g><g class="cls-41"><rect class="cls-8" x="86.8" y="116.7" width="6.3" height="6.2"/></g><g class="cls-42"><rect class="cls-2" x="65" y="122.8" width="41.4" height="69.6"/></g><g class="cls-43"><rect class="cls-8" x="64.8" y="122.6" width="41.7" height="70"/></g><g class="cls-44"><rect class="cls-2" x="78.3" y="167.2" width="31.4" height="31.9"/></g><g class="cls-45"><rect class="cls-8" x="78.1" y="167" width="31.8" height="32.3"/></g><g class="cls-46"><rect class="cls-15" x="117.8" y="26.4" width="56" height="66.4"/></g><g class="cls-47"><rect class="cls-2" x="119.6" y="26.8" width="55.3" height="65.7"/></g><g class="cls-48"><rect class="cls-8" x="130.5" y="56.8" width="6.2" height="5.1"/></g><g class="cls-49"><rect class="cls-8" x="130.7" y="75.1" width="10.8" height="6.5"/></g><g class="cls-50"><rect class="cls-8" x="127.5" y="60.1" width="9.3" height="16.4"/></g><g class="cls-51"><rect class="cls-15" x="138.8" y="57.4" width="7" height="7"/></g><g class="cls-52"><rect class="cls-15" x="122.3" y="58.5" width="7" height="7"/></g><g class="cls-53"><rect class="cls-15" x="108.7" y="14.8" width="86.7" height="133.9"/></g><g class="cls-54"><rect class="cls-2" x="160" y="51.1" width="11.4" height="17.6"/></g><g class="cls-55"><rect class="cls-8" x="159.8" y="51" width="11.7" height="18"/></g><g class="cls-56"><rect class="cls-8" x="161.4" y="55.9" width="6.8" height="6.4"/></g><g class="cls-57"><rect class="cls-8" x="163.3" y="54.7" width="5.2" height="10"/></g><g class="cls-58"><rect class="cls-8" x="151.9" y="52.4" width="12.7" height="7.5"/></g><g class="cls-59"><rect class="cls-8" x="121.3" y="89" width="20.8" height="30.3"/></g><g class="cls-60"><rect class="cls-8" x="140.4" y="96.5" width="19.7" height="6.9"/></g><g class="cls-61"><rect class="cls-8" x="136" y="94.3" width="6.7" height="6.6"/></g><g class="cls-62"><rect class="cls-8" x="148.1" y="82.5" width="13.9" height="7.7"/></g><g class="cls-63"><rect class="cls-8" x="182.2" y="97.1" width="16.3" height="6.8"/></g><g class="cls-64"><rect class="cls-8" x="112" y="145.8" width="5.7" height="7.4"/></g><g class="cls-65"><rect class="cls-8" x="109.9" y="142.9" width="5.6" height="6.3"/></g><g class="cls-66"><rect class="cls-8" x="108" y="140.3" width="5.3" height="6"/></g><g class="cls-67"><rect class="cls-8" x="193.3" y="147.6" width="85.4" height="96.3"/></g><g class="cls-68"><rect class="cls-8" x="225" y="166.5" width="46.6" height="68.7"/></g><g class="cls-69"><rect class="cls-8" x="38.5" y="207.5" width="68.1" height="57.8"/></g><g class="cls-70"><rect class="cls-3" x="69.2" y="195.4" width="58.2" height="55.3"/></g><g class="cls-71"><rect class="cls-15" x="75.4" y="195" width="52" height="52"/></g><g class="cls-72"><rect class="cls-8" x="75.3" y="194.8" width="52.4" height="52.4"/></g><path class="cls-15" d="M246.7,24.4c0-8.1-6.3-14.8-14.1-14.8s-14.1,6.6-14.1,14.8h8.3a5.8,5.8,0,0,1,11.5-.7v.7a6.1,6.1,0,0,1-2.9,5.2h0a14.6,14.6,0,0,0-6.1,7.5h0a13,13,0,0,0-.8,3.4h0v2.6H237V40.5h0a6.3,6.3,0,0,1,2.6-3.4h0A14.6,14.6,0,0,0,246.7,24.4Z" transform="translate(-1.4 -0.8)"/><rect class="cls-15" x="227.2" y="45.7" width="8.5" height="7.4"/><path class="cls-73" d="M263,44.1a9,9,0,0,0-18,0h5.3a3.7,3.7,0,0,1,7.4-.4v.4a3.9,3.9,0,0,1-1.9,3.4h0a9.2,9.2,0,0,0-3.9,4.8h0a7.9,7.9,0,0,0-.5,2.2h0v1.6h5.4V54.5h0a4.1,4.1,0,0,1,1.7-2.2h0A9.8,9.8,0,0,0,263,44.1Z" transform="translate(-1.4 -0.8)"/><rect class="cls-73" x="250" y="57.5" width="5.5" height="4.7"/></svg>