<svg xmlns="http://www.w3.org/2000/svg" width="25.346" height="25.898" viewBox="0 0 25.346 25.898"><defs><style>.a{fill:#fbbc05;}.a,.b,.c,.d{fill-rule:evenodd;}.b{fill:#ea4335;}.c{fill:#34a853;}.d{fill:#4285f4;}</style></defs><g transform="translate(-0.214 -0.533)"><g transform="translate(0.214 0.533)"><g transform="translate(0 0)"><path class="a" d="M5.519,19.341a7.659,7.659,0,0,1,.389-2.4L1.543,13.6a13.037,13.037,0,0,0,0,11.469L5.9,21.734a7.662,7.662,0,0,1-.385-2.393" transform="translate(-0.214 -6.392)"/><path class="b" d="M14.261,5.831a7.5,7.5,0,0,1,4.774,1.707l3.772-3.767A12.959,12.959,0,0,0,2.623,7.746l4.364,3.333a7.642,7.642,0,0,1,7.274-5.248" transform="translate(-1.294 -0.533)"/><path class="c" d="M14.261,33.6a7.642,7.642,0,0,1-7.274-5.248L2.623,31.688A12.929,12.929,0,0,0,14.261,38.9a12.358,12.358,0,0,0,8.449-3.227l-4.143-3.2A8.021,8.021,0,0,1,14.261,33.6" transform="translate(-1.294 -13.003)"/><path class="d" d="M36.092,22.088a10.728,10.728,0,0,0-.295-2.354H23.714v5h6.955a5.832,5.832,0,0,1-2.649,3.871l4.143,3.2a12.879,12.879,0,0,0,3.929-9.722" transform="translate(-10.746 -9.139)"/></g></g></g></svg>