<?xml version="1.0" encoding="utf-8"?>
<!-- Generator: Adobe Illustrator 26.0.3, SVG Export Plug-In . SVG Version: 6.00 Build 0)  -->
<svg version="1.1" id="Layer_1" xmlns="http://www.w3.org/2000/svg" xmlns:xlink="http://www.w3.org/1999/xlink" x="0px" y="0px"
	 viewBox="0 0 300 128" style="enable-background:new 0 0 300 128;" xml:space="preserve">
<style type="text/css">
	.st0{display:none;fill:#1A1A1A;}
	.st1{display:none;fill:#64C4DE;enable-background:new    ;}
	.st2{font-family:'VerminVibes2Nightclub';}
	.st3{font-size:26.07px;}
	.st4{fill:#64C4DE;}
	.st5{fill:#41A4FE;}
	.st6{fill:#43C9FE;}
	.st7{opacity:0.35;fill:url(#SVGID_1_);enable-background:new    ;}
	.st8{opacity:0.35;fill:url(#SVGID_00000104686289835401796870000005134098856674503346_);enable-background:new    ;}
	.st9{fill:#1A1A1A;}
	.st10{fill:#46DCFF;}
	.st11{fill:#1181FD;}
	.st12{opacity:0.35;fill:url(#SVGID_00000063610591026956764730000001104262041551681666_);enable-background:new    ;}
</style>
<g id="Layer_1_00000054233111623790230310000013760356936915248776_">
</g>
<g id="Layer_1_00000054250047883248705800000008938343842986627480_">
</g>
<g id="Layer_2_00000077286524520149201710000001564048787790860706_">
	<rect x="-0.3" y="0" class="st0" width="304.2" height="126.2"/>
	<text transform="matrix(1 0 0 1 4.9287 123.8179)" class="st1 st2 st3">Beyond Sentiment</text>
	<g>
		<path class="st4" d="M20.4,114.9c0.3,0.2,0.7,0.4,1,0.8c0.9,0.9,1.4,2.1,1.4,3.4s-0.5,2.5-1.4,3.4c-0.9,0.9-2.1,1.4-3.4,1.4H5.6
			c-0.2,0-0.3,0-0.4-0.2c-0.1-0.1-0.2-0.3-0.2-0.4v-16.6c0-0.2,0-0.3,0.2-0.4c0.1-0.1,0.3-0.2,0.4-0.2H18c1.3,0,2.5,0.5,3.4,1.4
			c0.9,0.9,1.4,2.1,1.4,3.4s-0.5,2.5-1.4,3.4C21.1,114.5,20.7,114.7,20.4,114.9z M18,114.3c1,0,1.8-0.3,2.5-1c0.7-0.7,1-1.5,1-2.5
			c0-1-0.3-1.8-1-2.5s-1.5-1-2.5-1H6.2v7L18,114.3L18,114.3z M6.2,122.5H18c1,0,1.8-0.3,2.5-1c0.7-0.7,1-1.5,1-2.5
			c0-1-0.3-1.8-1-2.5c-0.7-0.7-1.5-1-2.5-1H6.2V122.5z"/>
		<path class="st4" d="M25.9,106h16.6c0.2,0,0.3,0,0.4,0.2c0.1,0.1,0.2,0.3,0.2,0.4s0,0.3-0.2,0.4c-0.1,0.1-0.3,0.2-0.4,0.2H26.6v7
			h15.9c0.2,0,0.3,0,0.4,0.2c0.1,0.1,0.2,0.3,0.2,0.4s0,0.3-0.2,0.4c-0.1,0.1-0.3,0.2-0.4,0.2H26.6v7h15.9c0.2,0,0.3,0,0.4,0.2
			c0.1,0.1,0.2,0.3,0.2,0.4s0,0.3-0.2,0.4c-0.1,0.1-0.3,0.2-0.4,0.2H25.9c-0.2,0-0.3,0-0.4-0.2c-0.1-0.1-0.2-0.3-0.2-0.4v-16.6
			c0-0.2,0-0.3,0.2-0.4C25.6,106.1,25.7,106,25.9,106z"/>
		<path class="st4" d="M45.9,107.2C45.9,107.2,45.9,107.1,45.9,107.2c-0.2-0.2-0.3-0.4-0.3-0.5s0-0.3,0.2-0.4
			c0.1-0.1,0.3-0.2,0.4-0.2s0.3,0,0.4,0.2l7.8,7.8l7.7-7.7c0,0,0,0,0.1-0.1c0.1-0.1,0.3-0.2,0.4-0.2s0.3,0,0.4,0.2
			c0.1,0.1,0.2,0.3,0.2,0.4s0,0.3-0.2,0.4c0,0,0,0-0.1,0.1l-8,8v8c0,0.2,0,0.3-0.2,0.4c-0.1,0.1-0.3,0.2-0.4,0.2
			c-0.1,0-0.3,0-0.4-0.2c-0.1-0.1-0.2-0.3-0.2-0.4v-8L45.9,107.2z"/>
		<path class="st4" d="M81.3,108.6c1.7,1.7,2.6,3.9,2.6,6.3c0,2.5-0.9,4.5-2.6,6.3c-1.7,1.7-3.9,2.6-6.3,2.6c-2.5,0-4.5-0.9-6.3-2.6
			c-1.7-1.7-2.6-3.9-2.6-6.3c0-2.5,0.9-4.5,2.6-6.3c1.7-1.7,3.9-2.6,6.3-2.6C77.4,106,79.5,106.9,81.3,108.6z M74.9,107.3
			c-2.1,0-3.9,0.7-5.4,2.2c-1.5,1.5-2.2,3.3-2.2,5.4s0.7,3.9,2.2,5.4c1.5,1.5,3.3,2.2,5.4,2.2s3.9-0.7,5.4-2.2
			c1.5-1.5,2.2-3.3,2.2-5.4s-0.7-3.9-2.2-5.4C78.9,108,77.1,107.3,74.9,107.3z"/>
		<path class="st4" d="M86.4,106.6c0-0.2,0-0.3,0.2-0.4c0.1-0.1,0.3-0.2,0.4-0.2c0.1,0,0.3,0,0.4,0.2l15.4,15.4v-15
			c0-0.2,0-0.3,0.2-0.4c0.1-0.1,0.3-0.2,0.4-0.2c0.1,0,0.3,0,0.4,0.2c0.1,0.1,0.2,0.3,0.2,0.4v16.6c0,0.2,0,0.3-0.2,0.4
			c-0.1,0.1-0.3,0.2-0.4,0.2c-0.1,0-0.3,0-0.4-0.2c0,0,0,0-0.1,0l-15.3-15.4v15c0,0.2,0,0.3-0.2,0.4c-0.1,0.1-0.3,0.2-0.4,0.2
			s-0.3,0-0.4-0.2c-0.1-0.1-0.2-0.3-0.2-0.4L86.4,106.6L86.4,106.6z"/>
		<path class="st4" d="M107.4,123.8c-0.2,0-0.3,0-0.4-0.2c-0.1-0.1-0.2-0.3-0.2-0.4v-16.6c0-0.2,0-0.3,0.2-0.4
			c0.1-0.1,0.3-0.2,0.4-0.2h8.3c2.5,0,4.5,0.9,6.3,2.6c1.8,1.7,2.6,3.9,2.6,6.3c0,2.5-0.9,4.5-2.6,6.3c-1.7,1.8-3.9,2.6-6.3,2.6
			L107.4,123.8L107.4,123.8z M115.7,122.5c2.1,0,3.9-0.7,5.4-2.2c1.5-1.5,2.2-3.3,2.2-5.4s-0.7-3.9-2.2-5.4
			c-1.5-1.5-3.3-2.2-5.4-2.2h-7.6v15.3H115.7z"/>
		<path class="st4" d="M150.8,106c0.2,0,0.3,0,0.4,0.2c0.1,0.1,0.2,0.3,0.2,0.4s0,0.3-0.2,0.4c-0.1,0.1-0.3,0.2-0.4,0.2h-12.4
			c-1,0-1.8,0.3-2.5,1c-0.7,0.7-1,1.5-1,2.5s0.3,1.8,1,2.5c0.7,0.7,1.5,1,2.5,1h8.3c1.3,0,2.5,0.5,3.4,1.4c0.9,0.9,1.4,2.1,1.4,3.4
			s-0.5,2.5-1.4,3.4c-0.9,0.9-2.1,1.4-3.4,1.4h-12.4c-0.2,0-0.3,0-0.4-0.2c-0.1-0.1-0.2-0.3-0.2-0.4s0-0.3,0.2-0.4
			c0.1-0.1,0.3-0.2,0.4-0.2h12.4c1,0,1.8-0.3,2.5-1c0.7-0.7,1-1.5,1-2.5c0-1-0.3-1.8-1-2.5c-0.7-0.7-1.5-1-2.5-1h-8.3
			c-1.3,0-2.5-0.5-3.4-1.4c-0.9-0.9-1.4-2.1-1.4-3.4s0.5-2.5,1.4-3.4c0.9-0.9,2.1-1.4,3.4-1.4H150.8z"/>
		<path class="st4" d="M154.6,106h16.6c0.2,0,0.3,0,0.4,0.2c0.1,0.1,0.2,0.3,0.2,0.4s0,0.3-0.2,0.4c-0.1,0.1-0.3,0.2-0.4,0.2h-15.9
			v7h15.9c0.2,0,0.3,0,0.4,0.2c0.1,0.1,0.2,0.3,0.2,0.4s0,0.3-0.2,0.4c-0.1,0.1-0.3,0.2-0.4,0.2h-15.9v7h15.9c0.2,0,0.3,0,0.4,0.2
			c0.1,0.1,0.2,0.3,0.2,0.4s0,0.3-0.2,0.4c-0.1,0.1-0.3,0.2-0.4,0.2h-16.6c-0.2,0-0.3,0-0.4-0.2c-0.1-0.1-0.2-0.3-0.2-0.4v-16.6
			c0-0.2,0-0.3,0.2-0.4C154.3,106.1,154.4,106,154.6,106z"/>
		<path class="st4" d="M174.3,106.6c0-0.2,0-0.3,0.2-0.4c0.1-0.1,0.3-0.2,0.4-0.2c0.1,0,0.3,0,0.4,0.2l15.4,15.4v-15
			c0-0.2,0-0.3,0.2-0.4c0.1-0.1,0.3-0.2,0.4-0.2c0.1,0,0.3,0,0.4,0.2c0.1,0.1,0.2,0.3,0.2,0.4v16.6c0,0.2,0,0.3-0.2,0.4
			c-0.1,0.1-0.3,0.2-0.4,0.2c-0.1,0-0.3,0-0.4-0.2c0,0,0,0-0.1,0l-15.4-15.4v15c0,0.2,0,0.3-0.2,0.4c-0.1,0.1-0.3,0.2-0.4,0.2
			c-0.1,0-0.3,0-0.4-0.2c-0.1-0.1-0.2-0.3-0.2-0.4L174.3,106.6L174.3,106.6z"/>
		<path class="st4" d="M195.3,107.3c-0.2,0-0.3,0-0.4-0.2c-0.1-0.1-0.2-0.3-0.2-0.4s0-0.3,0.2-0.4c0.1-0.1,0.3-0.2,0.4-0.2h16.6
			c0.2,0,0.3,0,0.4,0.2c0.1,0.1,0.2,0.3,0.2,0.4s0,0.3-0.2,0.4c-0.1,0.1-0.3,0.2-0.4,0.2h-7.6v15.9c0,0.2,0,0.3-0.2,0.4
			c-0.1,0.1-0.3,0.2-0.4,0.2c-0.1,0-0.3,0-0.4-0.2c-0.1-0.1-0.2-0.3-0.2-0.4v-15.9L195.3,107.3L195.3,107.3z"/>
		<path class="st4" d="M215.1,106.6c0-0.2,0-0.3,0.2-0.4c0.1-0.1,0.3-0.2,0.4-0.2c0.1,0,0.3,0,0.4,0.2c0.1,0.1,0.2,0.3,0.2,0.4v16.6
			c0,0.2,0,0.3-0.2,0.4c-0.1,0.1-0.3,0.2-0.4,0.2c-0.1,0-0.3,0-0.4-0.2c-0.1-0.1-0.2-0.3-0.2-0.4V106.6z"/>
		<path class="st4" d="M218.9,106.6c0-0.2,0-0.3,0.2-0.4c0.1-0.1,0.3-0.2,0.4-0.2c0.1,0,0.3,0,0.4,0.2l7.8,7.8l7.7-7.7
			c0,0,0,0,0.1-0.1c0.1-0.1,0.3-0.2,0.4-0.2c0.1,0,0.3,0,0.4,0.2c0.1,0.1,0.2,0.3,0.2,0.4v16.6c0,0.2,0,0.3-0.2,0.4
			c-0.1,0.1-0.3,0.2-0.4,0.2c-0.1,0-0.3,0-0.4-0.2c-0.1-0.1-0.2-0.3-0.2-0.4v-15l-7.2,7.2l-0.1,0.1c-0.1,0.1-0.2,0.1-0.4,0.1
			c-0.2,0-0.3,0-0.4-0.2c0,0,0,0-0.1-0.1l-7-7.1v15c0,0.2,0,0.3-0.2,0.4c-0.1,0.1-0.3,0.2-0.4,0.2c-0.1,0-0.3,0-0.4-0.2
			c-0.1-0.1-0.2-0.3-0.2-0.4V106.6z"/>
		<path class="st4" d="M239.9,106h16.6c0.2,0,0.3,0,0.4,0.2c0.1,0.1,0.2,0.3,0.2,0.4s0,0.3-0.2,0.4c-0.1,0.1-0.3,0.2-0.4,0.2h-15.9
			v7h15.9c0.2,0,0.3,0,0.4,0.2c0.1,0.1,0.2,0.3,0.2,0.4s0,0.3-0.2,0.4c-0.1,0.1-0.3,0.2-0.4,0.2h-15.9v7h15.9c0.2,0,0.3,0,0.4,0.2
			c0.1,0.1,0.2,0.3,0.2,0.4s0,0.3-0.2,0.4c-0.1,0.1-0.3,0.2-0.4,0.2h-16.6c-0.2,0-0.3,0-0.4-0.2c-0.1-0.1-0.2-0.3-0.2-0.4v-16.6
			c0-0.2,0-0.3,0.2-0.4C239.6,106.1,239.7,106,239.9,106z"/>
		<path class="st4" d="M259.6,106.6c0-0.2,0-0.3,0.2-0.4c0.1-0.1,0.3-0.2,0.4-0.2c0.1,0,0.3,0,0.4,0.2l15.4,15.4v-15
			c0-0.2,0-0.3,0.2-0.4c0.1-0.1,0.3-0.2,0.4-0.2c0.1,0,0.3,0,0.4,0.2c0.1,0.1,0.2,0.3,0.2,0.4v16.6c0,0.2,0,0.3-0.2,0.4
			c-0.1,0.1-0.3,0.2-0.4,0.2c-0.1,0-0.3,0-0.4-0.2c0,0,0,0-0.1,0l-15.3-15.4v15c0,0.2,0,0.3-0.2,0.4c-0.1,0.1-0.3,0.2-0.4,0.2
			s-0.3,0-0.4-0.2c-0.1-0.1-0.2-0.3-0.2-0.4L259.6,106.6L259.6,106.6z"/>
		<path class="st4" d="M280.6,107.3c-0.2,0-0.3,0-0.4-0.2c-0.1-0.1-0.2-0.3-0.2-0.4s0-0.3,0.2-0.4c0.1-0.1,0.3-0.2,0.4-0.2h16.6
			c0.2,0,0.3,0,0.4,0.2c0.1,0.1,0.2,0.3,0.2,0.4s0,0.3-0.2,0.4c-0.1,0.1-0.3,0.2-0.4,0.2h-7.6v15.9c0,0.2,0,0.3-0.2,0.4
			c-0.1,0.1-0.3,0.2-0.4,0.2c-0.1,0-0.3,0-0.4-0.2c-0.1-0.1-0.2-0.3-0.2-0.4v-15.9L280.6,107.3L280.6,107.3z"/>
	</g>
	<g>
		<path class="st5" d="M60.3,45.8c2-2.9,3.2-6.5,3.2-10.4c0-5.1-2-9.7-5.4-13c-1.7,2.3-4.3,3.7-7.4,3.7c-5,0-9-4-9.2-8.9
			c-6.5,1.2-11.7,5.8-14,11.9c2.1-0.5,4.3-0.8,6.6-0.8C46,28.3,56.1,35.5,60.3,45.8z"/>
		<path class="st6" d="M58.1,22.4c1.1-1.5,1.8-3.4,1.8-5.5c0-5.1-4.1-9.2-9.2-9.2s-9.2,4.1-9.2,9.2c0,0.1,0,0.2,0,0.3
			c1.1-0.2,2.3-0.3,3.4-0.3C50.2,16.9,54.8,19,58.1,22.4z"/>
		
			<linearGradient id="SVGID_1_" gradientUnits="userSpaceOnUse" x1="23.7357" y1="548.2206" x2="53.0348" y2="522.642" gradientTransform="matrix(1 0 0 -1 0 564)">
			<stop  offset="0" style="stop-color:#FFFFFF"/>
			<stop  offset="0.9944" style="stop-color:#FFFFFF;stop-opacity:0"/>
		</linearGradient>
		<path class="st7" d="M45,44.5c2,1.3,4.1,2.8,5.9,4.6c5.4-2.3,9.1-7.6,9.1-13.7c0-8.2-6.7-14.9-14.9-14.9
			c-8.2,0-14.9,6.7-14.9,14.9c0,2.1,0.4,4.1,1.2,5.8C36,40.6,40.8,41.9,45,44.5z"/>
		
			<linearGradient id="SVGID_00000036968454280211676570000002678949633232483727_" gradientUnits="userSpaceOnUse" x1="41.2402" y1="555.4092" x2="54.0265" y2="544.2466" gradientTransform="matrix(1 0 0 -1 0 564)">
			<stop  offset="0" style="stop-color:#FFFFFF"/>
			<stop  offset="0.9944" style="stop-color:#FFFFFF;stop-opacity:0"/>
		</linearGradient>
		
			<circle style="opacity:0.35;fill:url(#SVGID_00000036968454280211676570000002678949633232483727_);enable-background:new    ;" cx="50.8" cy="16.9" r="6.5"/>
		<g>
			<g>
				<path class="st9" d="M193.2,85h-6.9c-17.1,0-31.1-14-31.1-31.1V28.5h14.1v25.4c0,9.4,7.6,16.9,16.9,16.9h6.9L193.2,85L193.2,85z
					"/>
			</g>
		</g>
		<rect x="117.7" y="46" class="st9" width="14.3" height="36.5"/>
		<polygon class="st9" points="116.6,28.3 100.8,42.4 149.1,42.4 149.1,28.4 		"/>
		<path class="st9" d="M285.7,66.5c6.6-3.3,10.2-9.5,10.2-18.2c0-12.6-8.5-19.7-23.5-19.7h-25.2v11.3h14.3h9.9h1
			c6.2,0,9.8,3,9.8,8.9c0,6-3.6,9.1-9.8,9.1h-10.9V46h-14.3v39.1h14.3V69.2h10.9h0.4l8.4,15.9h16.3L285.7,66.5z"/>
		<g>
			<path class="st9" d="M104.9,30.9V49c0.1-0.1,0.2-0.3,0.2-0.4c2.5-3.7,6.7-6.1,11.4-6.1V28.3C112.4,28.3,108.4,29.3,104.9,30.9z"
				/>
			<polygon class="st9" points="45.8,48.5 48.3,52.4 48.3,47.7 			"/>
		</g>
		<path class="st9" d="M104.8,30.9c-5.9,2.8-10.7,7.5-13.5,13.3l0,0l-0.6,1.2L76.6,71.4L59.6,44.3l0,0c-4.6-9.4-14.2-16-25.4-16
			c-2.3,0-4.5,0.3-6.6,0.8c-0.7,2-1.1,4.1-1.1,6.3c0,3,0.7,5.8,2,8.3c1.7-0.8,3.7-1.2,5.7-1.2c4.9,0,9.2,2.5,11.7,6.3L46,49
			c0.1,0.2,0.3,0.4,0.4,0.7l0,0l4.5,7L65.7,79c2.4,3.6,6.4,5.8,10.7,5.8c4.5,0,8.7-2.4,11.1-6.3l17.2-29.4c0,0,0,0,0-0.1
			c0.1-0.1,0.2-0.3,0.3-0.4c2.5-3.7,6.7-6.1,11.4-6.1V28.3C112.4,28.3,108.4,29.3,104.8,30.9z"/>
		<ellipse class="st10" cx="24.2" cy="9.3" rx="7.6" ry="7.6"/>
		<path class="st11" d="M50.8,26.1c3,0,5.7-1.4,7.4-3.7c-3.3-3.4-8-5.5-13.1-5.5c-1.2,0-2.3,0.1-3.4,0.3
			C41.8,22.2,45.8,26.1,50.8,26.1z"/>
		
			<linearGradient id="SVGID_00000009586912824574660060000002371605163405512113_" gradientUnits="userSpaceOnUse" x1="15.8552" y1="561.9271" x2="27.0062" y2="552.1922" gradientTransform="matrix(1 0 0 -1 0 564)">
			<stop  offset="0" style="stop-color:#FFFFFF"/>
			<stop  offset="0.9944" style="stop-color:#FFFFFF;stop-opacity:0"/>
		</linearGradient>
		
			<circle style="opacity:0.35;fill:url(#SVGID_00000009586912824574660060000002371605163405512113_);enable-background:new    ;" cx="24.2" cy="9.3" r="5.6"/>
		<g>
			<polygon class="st9" points="199.5,28.3 185.1,28.3 206.1,67.2 206.1,85.1 220.5,85.1 220.5,66.8 			"/>
			<polygon class="st5" points="223.6,61 241.1,28.3 226.6,28.3 216.1,47.8 			"/>
		</g>
		<g>
			<path class="st9" d="M47.7,60.7c-1.8,5.7-7.1,10-13.5,10c-7.8,0-14.1-6.3-14.1-14.1c0-5.7,3.4-10.7,8.4-12.9
				c-1.3-2.5-2-5.3-2-8.3c0-2.2,0.4-4.3,1.1-6.3C15.3,32.1,6,43.3,6,56.6c0,15.6,12.7,28.2,28.2,28.2c9.1,0,17.2-4.3,22.4-11
				L47.7,60.7z"/>
		</g>
	</g>
</g>
</svg>
