<?xml version="1.0" encoding="utf-8"?>
<!-- Generator: Adobe Illustrator 26.0.3, SVG Export Plug-In . SVG Version: 6.00 Build 0)  -->
<svg version="1.1" id="Layer_1" xmlns="http://www.w3.org/2000/svg" xmlns:xlink="http://www.w3.org/1999/xlink" x="0px" y="0px"
	 viewBox="0 0 300 128" style="enable-background:new 0 0 300 128;" xml:space="preserve">
<style type="text/css">
	.st0{display:none;fill:#1A1A1A;}
	.st1{fill:#41A4FE;}
	.st2{fill:#43C9FE;}
	.st3{opacity:0.35;fill:url(#SVGID_1_);enable-background:new    ;}
	.st4{opacity:0.35;fill:url(#SVGID_00000026873381676858154020000004137089849385987511_);enable-background:new    ;}
	.st5{fill:#FFFFFF;}
	.st6{fill:#46DCFF;}
	.st7{fill:#1181FD;}
	.st8{opacity:0.35;fill:url(#SVGID_00000077306811840132394430000007777891002570652557_);enable-background:new    ;}
	.st9{display:none;fill:#64C4DE;enable-background:new    ;}
	.st10{font-family:'VerminVibes2Nightclub';}
	.st11{font-size:26.07px;}
	.st12{fill:#64C4DE;}
</style>
<g id="Layer_2_00000175321259495977453840000012759185193700001958_">
	<rect x="-1" y="1" class="st0" width="304.2" height="126.2"/>
	<g>
		<path class="st1" d="M59.5,47.1c2-2.9,3.2-6.5,3.2-10.4c0-5.1-2-9.7-5.4-13c-1.7,2.3-4.3,3.7-7.4,3.7c-5,0-9-4-9.2-8.9
			c-6.5,1.2-11.7,5.8-14,11.9c2.1-0.5,4.3-0.8,6.6-0.8C45.2,29.6,55.3,36.8,59.5,47.1z"/>
		<path class="st2" d="M57.3,23.6c1.1-1.5,1.8-3.4,1.8-5.5c0-5.1-4.1-9.2-9.2-9.2s-9.2,4.1-9.2,9.2c0,0.1,0,0.2,0,0.3
			c1.1-0.2,2.3-0.3,3.4-0.3C49.4,18.2,54,20.3,57.3,23.6z"/>
		
			<linearGradient id="SVGID_1_" gradientUnits="userSpaceOnUse" x1="22.9606" y1="931.0297" x2="52.2457" y2="956.5961" gradientTransform="matrix(1 0 0 1 0 -914)">
			<stop  offset="0" style="stop-color:#FFFFFF"/>
			<stop  offset="0.9944" style="stop-color:#FFFFFF;stop-opacity:0"/>
		</linearGradient>
		<path class="st3" d="M44.2,45.7c2,1.3,4.1,2.8,5.9,4.6c5.3-2.3,9.1-7.5,9.1-13.7c0-8.2-6.7-14.9-14.9-14.9s-14.9,6.7-14.9,14.9
			c0,2.1,0.4,4.1,1.2,5.8C35.2,41.9,40,43.1,44.2,45.7z"/>
		
			<linearGradient id="SVGID_00000110443586107804831300000010333877988544379297_" gradientUnits="userSpaceOnUse" x1="40.4433" y1="923.86" x2="53.2234" y2="935.0172" gradientTransform="matrix(1 0 0 1 0 -914)">
			<stop  offset="0" style="stop-color:#FFFFFF"/>
			<stop  offset="0.9944" style="stop-color:#FFFFFF;stop-opacity:0"/>
		</linearGradient>
		
			<circle style="opacity:0.35;fill:url(#SVGID_00000110443586107804831300000010333877988544379297_);enable-background:new    ;" cx="50" cy="18.2" r="6.5"/>
		<g>
			<path class="st5" d="M192.3,86.3h-6.9c-17.1,0-31.1-14-31.1-31.1V29.8h14.1v25.3c0,9.4,7.6,16.9,16.9,16.9h6.9V86.3z"/>
		</g>
		<rect x="116.8" y="47.3" class="st5" width="14.3" height="36.5"/>
		<polygon class="st5" points="115.7,29.6 100,43.7 148.2,43.7 148.2,29.7 		"/>
		<path class="st5" d="M284.8,67.7c6.6-3.3,10.2-9.5,10.2-18.2c0-12.6-8.5-19.7-23.5-19.7h-25.2v11.3h14.3h9.9h1
			c6.2,0,9.8,3,9.8,8.9c0,6-3.6,9.1-9.8,9.1h-10.9V47.3h-14.3v39.1h14.3V70.5h10.9h0.4l8.4,15.9h16.3L284.8,67.7z"/>
		<g>
			<path class="st5" d="M104.1,32.2v18.1c0.1-0.1,0.2-0.3,0.2-0.4c2.5-3.7,6.7-6,11.4-6.1V29.6C111.5,29.6,107.6,30.5,104.1,32.2z"
				/>
			<polygon class="st5" points="45,49.8 47.5,53.7 47.5,48.9 			"/>
		</g>
		<path class="st5" d="M115.7,29.6v14.2c-4.7,0.1-8.9,2.5-11.4,6.1c-0.1,0.1-0.2,0.3-0.3,0.4c0,0,0,0,0,0.1L86.7,79.8
			c-2.3,3.9-6.5,6.3-11.1,6.3c-4.3,0-8.4-2.2-10.7-5.8L50.3,57.9l-4.5-7c-0.1-0.2-0.3-0.5-0.4-0.7L45.2,50
			c-2.5-3.8-6.8-6.3-11.7-6.3c-2,0-4,0.4-5.7,1.2c-1.3-2.5-2-5.3-2-8.3c0-2.2,0.4-4.3,1.1-6.3c2.1-0.5,4.3-0.8,6.6-0.8
			c5.6,0,10.8,1.6,15.2,4.4s8,6.8,10.2,11.5l16.9,27.1l14.1-25.9l0.6-1.2c2.8-5.8,7.6-10.6,13.5-13.3
			C107.6,30.5,111.5,29.6,115.7,29.6z"/>
		<path class="st5" d="M46.9,62l8.9,13.1c-5.2,6.7-13.3,11-22.4,11c-15.6,0-28.2-12.6-28.2-28.2c0-13.3,10.4-24.8,22.8-27.7
			c-0.7,1.9-1.2,3.7-1.1,5.9c0,2.6,0.9,5.9,2.2,8.4c-5,2.2-9.7,7.7-9.7,13.4c0,7.8,6.3,14.1,14.1,14.1C39.7,72,45.1,67.7,46.9,62z"
			/>
		<ellipse class="st6" cx="23.4" cy="10.6" rx="7.6" ry="7.6"/>
		<path class="st7" d="M50,27.4c3,0,5.7-1.4,7.4-3.7c-3.3-3.4-8-5.5-13.1-5.5c-1.2,0-2.3,0.1-3.4,0.3C41,23.4,45,27.4,50,27.4z"/>
		
			<linearGradient id="SVGID_00000054240958714043618310000008286974424723991941_" gradientUnits="userSpaceOnUse" x1="15.0667" y1="917.3494" x2="26.2123" y2="927.0797" gradientTransform="matrix(1 0 0 1 0 -914)">
			<stop  offset="0" style="stop-color:#FFFFFF"/>
			<stop  offset="0.9944" style="stop-color:#FFFFFF;stop-opacity:0"/>
		</linearGradient>
		
			<circle style="opacity:0.35;fill:url(#SVGID_00000054240958714043618310000008286974424723991941_);enable-background:new    ;" cx="23.4" cy="10.6" r="5.6"/>
		<g>
			<polygon class="st5" points="198.7,29.6 184.2,29.6 205.2,68.4 205.2,86.4 219.6,86.4 219.6,68 			"/>
			<polygon class="st1" points="222.7,62.3 240.2,29.6 225.8,29.6 215.2,49.1 			"/>
		</g>
	</g>
	<text transform="matrix(1 0 0 1 4.2046 124.8174)" class="st9 st10 st11">Beyond Sentiment</text>
	<g>
		<path class="st12" d="M19.7,115.9c0.3,0.2,0.7,0.4,1,0.8c0.9,0.9,1.4,2.1,1.4,3.4c0,1.3-0.5,2.5-1.4,3.4c-0.9,0.9-2.1,1.4-3.4,1.4
			H4.8c-0.2,0-0.3,0-0.4-0.2c-0.1-0.1-0.2-0.3-0.2-0.4v-16.6c0-0.2,0-0.3,0.2-0.4c0.1-0.1,0.3-0.2,0.4-0.2h12.4
			c1.3,0,2.5,0.5,3.4,1.4c0.9,0.9,1.4,2.1,1.4,3.4c0,1.3-0.5,2.5-1.4,3.4C20.3,115.5,20,115.7,19.7,115.9z M17.2,115.3
			c1,0,1.8-0.3,2.5-1c0.7-0.7,1-1.5,1-2.5c0-1-0.3-1.8-1-2.5c-0.7-0.7-1.5-1-2.5-1H5.5v7L17.2,115.3L17.2,115.3z M5.5,123.5h11.8
			c1,0,1.8-0.3,2.5-1c0.7-0.7,1-1.5,1-2.5c0-1-0.3-1.8-1-2.5c-0.7-0.7-1.5-1-2.5-1H5.5V123.5z"/>
		<path class="st12" d="M25.2,107h16.6c0.2,0,0.3,0,0.4,0.2c0.1,0.1,0.2,0.3,0.2,0.4s0,0.3-0.2,0.4c-0.1,0.1-0.3,0.2-0.4,0.2H25.8v7
			h15.9c0.2,0,0.3,0,0.4,0.2c0.1,0.1,0.2,0.3,0.2,0.4s0,0.3-0.2,0.4c-0.1,0.1-0.3,0.2-0.4,0.2H25.8v7h15.9c0.2,0,0.3,0,0.4,0.2
			c0.1,0.1,0.2,0.3,0.2,0.4s0,0.3-0.2,0.4c-0.1,0.1-0.3,0.2-0.4,0.2H25.2c-0.2,0-0.3,0-0.4-0.2c-0.1-0.1-0.2-0.3-0.2-0.4v-16.6
			c0-0.2,0-0.3,0.2-0.4C24.9,107.1,25,107,25.2,107z"/>
		<path class="st12" d="M45.2,108.2C45.2,108.2,45.2,108.1,45.2,108.2c-0.2-0.2-0.3-0.4-0.3-0.5s0-0.3,0.2-0.4
			c0.1-0.1,0.3-0.2,0.4-0.2c0.1,0,0.3,0,0.4,0.2l7.8,7.8l7.7-7.7c0,0,0,0,0.1-0.1c0.1-0.1,0.3-0.2,0.4-0.2s0.3,0,0.4,0.2
			c0.1,0.1,0.2,0.3,0.2,0.4s0,0.3-0.2,0.4c0,0,0,0-0.1,0.1l-8,8v8c0,0.2,0,0.3-0.2,0.4c-0.1,0.1-0.3,0.2-0.4,0.2s-0.3,0-0.4-0.2
			c-0.1-0.1-0.2-0.3-0.2-0.4v-8L45.2,108.2z"/>
		<path class="st12" d="M80.5,109.6c1.7,1.7,2.6,3.9,2.6,6.3s-0.9,4.5-2.6,6.3c-1.7,1.7-3.9,2.6-6.3,2.6s-4.5-0.9-6.3-2.6
			c-1.7-1.7-2.6-3.9-2.6-6.3s0.9-4.5,2.6-6.3c1.7-1.7,3.9-2.6,6.3-2.6S78.8,107.9,80.5,109.6z M74.2,108.3c-2.1,0-3.9,0.7-5.4,2.2
			c-1.5,1.5-2.2,3.3-2.2,5.4s0.7,3.9,2.2,5.4c1.5,1.5,3.3,2.2,5.4,2.2s3.9-0.7,5.4-2.2c1.5-1.5,2.2-3.3,2.2-5.4s-0.7-3.9-2.2-5.4
			S76.3,108.3,74.2,108.3z"/>
		<path class="st12" d="M85.7,107.6c0-0.2,0-0.3,0.2-0.4c0.1-0.1,0.3-0.2,0.4-0.2c0.1,0,0.3,0,0.4,0.2l15.4,15.4v-15
			c0-0.2,0-0.3,0.2-0.4c0.1-0.1,0.3-0.2,0.4-0.2s0.3,0,0.4,0.2c0.1,0.1,0.2,0.3,0.2,0.4v16.6c0,0.2,0,0.3-0.2,0.4
			c-0.1,0.1-0.3,0.2-0.4,0.2s-0.3,0-0.4-0.2c0,0,0,0-0.1,0L87,109.1v15c0,0.2,0,0.3-0.2,0.4c-0.1,0.1-0.3,0.2-0.4,0.2
			s-0.3,0-0.4-0.2c-0.1-0.1-0.2-0.3-0.2-0.4L85.7,107.6L85.7,107.6z"/>
		<path class="st12" d="M106.7,124.8c-0.2,0-0.3,0-0.4-0.2c-0.1-0.1-0.2-0.3-0.2-0.4v-16.6c0-0.2,0-0.3,0.2-0.4
			c0.1-0.1,0.3-0.2,0.4-0.2h8.3c2.5,0,4.5,0.9,6.3,2.6c1.8,1.7,2.6,3.9,2.6,6.3s-0.9,4.5-2.6,6.3s-3.9,2.6-6.3,2.6L106.7,124.8
			L106.7,124.8z M115,123.5c2.1,0,3.9-0.7,5.4-2.2c1.5-1.5,2.2-3.3,2.2-5.4s-0.7-3.9-2.2-5.4c-1.5-1.5-3.3-2.2-5.4-2.2h-7.6v15.3
			H115z"/>
		<path class="st12" d="M150.1,107c0.2,0,0.3,0,0.4,0.2s0.2,0.3,0.2,0.4s0,0.3-0.2,0.4c-0.1,0.1-0.3,0.2-0.4,0.2h-12.4
			c-1,0-1.8,0.3-2.5,1c-0.7,0.7-1,1.5-1,2.5c0,1,0.3,1.8,1,2.5s1.5,1,2.5,1h8.3c1.3,0,2.5,0.5,3.4,1.4c0.9,0.9,1.4,2.1,1.4,3.4
			c0,1.3-0.5,2.5-1.4,3.4c-0.9,0.9-2.1,1.4-3.4,1.4h-12.4c-0.2,0-0.3,0-0.4-0.2c-0.1-0.1-0.2-0.3-0.2-0.4s0-0.3,0.2-0.4
			c0.1-0.1,0.3-0.2,0.4-0.2h12.4c1,0,1.8-0.3,2.5-1c0.7-0.7,1-1.5,1-2.5c0-1-0.3-1.8-1-2.5c-0.7-0.7-1.5-1-2.5-1h-8.3
			c-1.3,0-2.5-0.5-3.4-1.4s-1.4-2.1-1.4-3.4c0-1.3,0.5-2.5,1.4-3.4c0.9-0.9,2.1-1.4,3.4-1.4H150.1z"/>
		<path class="st12" d="M153.9,107h16.6c0.2,0,0.3,0,0.4,0.2c0.1,0.1,0.2,0.3,0.2,0.4s0,0.3-0.2,0.4c-0.1,0.1-0.3,0.2-0.4,0.2h-15.9
			v7h15.9c0.2,0,0.3,0,0.4,0.2c0.1,0.1,0.2,0.3,0.2,0.4s0,0.3-0.2,0.4c-0.1,0.1-0.3,0.2-0.4,0.2h-15.9v7h15.9c0.2,0,0.3,0,0.4,0.2
			c0.1,0.1,0.2,0.3,0.2,0.4s0,0.3-0.2,0.4c-0.1,0.1-0.3,0.2-0.4,0.2h-16.6c-0.2,0-0.3,0-0.4-0.2c-0.1-0.1-0.2-0.3-0.2-0.4v-16.6
			c0-0.2,0-0.3,0.2-0.4C153.5,107.1,153.7,107,153.9,107z"/>
		<path class="st12" d="M173.6,107.6c0-0.2,0-0.3,0.2-0.4c0.1-0.1,0.3-0.2,0.4-0.2c0.1,0,0.3,0,0.4,0.2l15.4,15.4v-15
			c0-0.2,0-0.3,0.2-0.4c0.1-0.1,0.3-0.2,0.4-0.2c0.1,0,0.3,0,0.4,0.2s0.2,0.3,0.2,0.4v16.6c0,0.2,0,0.3-0.2,0.4
			c-0.1,0.1-0.3,0.2-0.4,0.2c-0.1,0-0.3,0-0.4-0.2c0,0,0,0-0.1,0l-15.4-15.4v15c0,0.2,0,0.3-0.2,0.4c-0.1,0.1-0.3,0.2-0.4,0.2
			c-0.1,0-0.3,0-0.4-0.2c-0.1-0.1-0.2-0.3-0.2-0.4L173.6,107.6L173.6,107.6z"/>
		<path class="st12" d="M194.6,108.3c-0.2,0-0.3,0-0.4-0.2c-0.1-0.1-0.2-0.3-0.2-0.4s0-0.3,0.2-0.4c0.1-0.1,0.3-0.2,0.4-0.2h16.6
			c0.2,0,0.3,0,0.4,0.2s0.2,0.3,0.2,0.4s0,0.3-0.2,0.4c-0.1,0.1-0.3,0.2-0.4,0.2h-7.6v15.9c0,0.2,0,0.3-0.2,0.4
			c-0.1,0.1-0.3,0.2-0.4,0.2c-0.1,0-0.3,0-0.4-0.2c-0.1-0.1-0.2-0.3-0.2-0.4v-15.9L194.6,108.3L194.6,108.3z"/>
		<path class="st12" d="M214.4,107.6c0-0.2,0-0.3,0.2-0.4c0.1-0.1,0.3-0.2,0.4-0.2c0.1,0,0.3,0,0.4,0.2c0.1,0.1,0.2,0.3,0.2,0.4
			v16.6c0,0.2,0,0.3-0.2,0.4c-0.1,0.1-0.3,0.2-0.4,0.2c-0.1,0-0.3,0-0.4-0.2c-0.1-0.1-0.2-0.3-0.2-0.4V107.6z"/>
		<path class="st12" d="M218.2,107.6c0-0.2,0-0.3,0.2-0.4c0.1-0.1,0.3-0.2,0.4-0.2c0.1,0,0.3,0,0.4,0.2l7.8,7.8l7.7-7.7
			c0,0,0,0,0.1-0.1c0.1-0.1,0.3-0.2,0.4-0.2c0.1,0,0.3,0,0.4,0.2s0.2,0.3,0.2,0.4v16.6c0,0.2,0,0.3-0.2,0.4
			c-0.1,0.1-0.3,0.2-0.4,0.2c-0.1,0-0.3,0-0.4-0.2c-0.1-0.1-0.2-0.3-0.2-0.4v-15l-7.2,7.2l-0.1,0.1c-0.1,0.1-0.2,0.1-0.4,0.1
			c-0.2,0-0.3,0-0.4-0.2c0,0,0,0-0.1-0.1l-7-7.1v15c0,0.2,0,0.3-0.2,0.4c-0.1,0.1-0.3,0.2-0.4,0.2c-0.1,0-0.3,0-0.4-0.2
			c-0.1-0.1-0.2-0.3-0.2-0.4V107.6z"/>
		<path class="st12" d="M239.2,107h16.6c0.2,0,0.3,0,0.4,0.2c0.1,0.1,0.2,0.3,0.2,0.4s0,0.3-0.2,0.4c-0.1,0.1-0.3,0.2-0.4,0.2h-15.9
			v7h15.9c0.2,0,0.3,0,0.4,0.2c0.1,0.1,0.2,0.3,0.2,0.4s0,0.3-0.2,0.4c-0.1,0.1-0.3,0.2-0.4,0.2h-15.9v7h15.9c0.2,0,0.3,0,0.4,0.2
			c0.1,0.1,0.2,0.3,0.2,0.4s0,0.3-0.2,0.4c-0.1,0.1-0.3,0.2-0.4,0.2h-16.6c-0.2,0-0.3,0-0.4-0.2c-0.1-0.1-0.2-0.3-0.2-0.4v-16.6
			c0-0.2,0-0.3,0.2-0.4C238.8,107.1,239,107,239.2,107z"/>
		<path class="st12" d="M258.9,107.6c0-0.2,0-0.3,0.2-0.4c0.1-0.1,0.3-0.2,0.4-0.2c0.1,0,0.3,0,0.4,0.2l15.4,15.4v-15
			c0-0.2,0-0.3,0.2-0.4c0.1-0.1,0.3-0.2,0.4-0.2s0.3,0,0.4,0.2s0.2,0.3,0.2,0.4v16.6c0,0.2,0,0.3-0.2,0.4c-0.1,0.1-0.3,0.2-0.4,0.2
			s-0.3,0-0.4-0.2c0,0,0,0-0.1,0l-15.3-15.4v15c0,0.2,0,0.3-0.2,0.4c-0.1,0.1-0.3,0.2-0.4,0.2c-0.1,0-0.3,0-0.4-0.2
			c-0.1-0.1-0.2-0.3-0.2-0.4L258.9,107.6L258.9,107.6z"/>
		<path class="st12" d="M279.9,108.3c-0.2,0-0.3,0-0.4-0.2c-0.1-0.1-0.2-0.3-0.2-0.4s0-0.3,0.2-0.4c0.1-0.1,0.3-0.2,0.4-0.2h16.6
			c0.2,0,0.3,0,0.4,0.2c0.1,0.1,0.2,0.3,0.2,0.4s0,0.3-0.2,0.4c-0.1,0.1-0.3,0.2-0.4,0.2h-7.6v15.9c0,0.2,0,0.3-0.2,0.4
			c-0.1,0.1-0.3,0.2-0.4,0.2c-0.1,0-0.3,0-0.4-0.2c-0.1-0.1-0.2-0.3-0.2-0.4v-15.9L279.9,108.3L279.9,108.3z"/>
	</g>
</g>
</svg>
