<svg id="Layer_1" data-name="Layer 1" xmlns="http://www.w3.org/2000/svg" viewBox="0 0 20.093 20.093"><defs><style>.cls-1{fill:#64c4de}.cls-2{fill:#4a9eb4;}</style></defs><circle class="cls-1" cx="10.04615" cy="7.63476" r="4.53012"/><path class="cls-2" d="M13.76122,11.89939a5.6935,5.6935,0,0,1-1.83639,1.07123l.38554,4.24012a.56816.56816,0,0,1-.164.45149l-1.69942,1.69858a.56648.56648,0,0,1-.80068,0L7.94766,17.66223a.56648.56648,0,0,1-.164-.45149l.38554-4.24012a5.6935,5.6935,0,0,1-1.83639-1.07123A8.49544,8.49544,0,0,0,1.5524,19.52653a.56647.56647,0,0,0,.56647.56647H17.97513a.56647.56647,0,0,0,.56647-.56647A8.49544,8.49544,0,0,0,13.76122,11.89939Z"/></svg>