<?xml version="1.0" encoding="utf-8"?>
<!-- Generator: Adobe Illustrator 25.2.2, SVG Export Plug-In . SVG Version: 6.00 Build 0)  -->
<svg version="1.1" id="Layer_1" xmlns="http://www.w3.org/2000/svg" xmlns:xlink="http://www.w3.org/1999/xlink" x="0px" y="0px"
	 viewBox="0 0 362.5 106.6" style="enable-background:new 0 0 362.5 106.6;" xml:space="preserve">
<style type="text/css">
	.st0{fill:#41A4FE;}
	.st1{fill:#43C9FE;}
	.st2{opacity:0.35;fill:url(#SVGID_1_);enable-background:new    ;}
	.st3{opacity:0.35;fill:url(#SVGID_2_);enable-background:new    ;}
	.st4{fill:#1A1A1A;}
	.st5{fill:#46DCFF;}
	.st6{fill:#1181FD;}
	.st7{opacity:0.35;fill:url(#SVGID_3_);enable-background:new    ;}
</style>
<g>
	<path class="st0" d="M69.2,56.1c2.5-3.6,3.9-8,3.9-12.7c0-6.2-2.5-11.9-6.6-16c-2.1,2.8-5.3,4.6-9.1,4.6c-6.1,0-11-4.8-11.3-10.9
		c-7.9,1.5-14.4,7.1-17.1,14.6c2.6-0.6,5.3-1,8.1-1C51.6,34.7,64,43.6,69.2,56.1z"/>
	<path class="st1" d="M66.5,27.4c1.4-1.9,2.2-4.2,2.2-6.7c0-6.2-5-11.3-11.3-11.3c-6.3,0-11.3,5-11.3,11.3c0,0.1,0,0.3,0,0.4
		c1.4-0.3,2.8-0.4,4.2-0.4C56.7,20.7,62.3,23.3,66.5,27.4z"/>
	
		<linearGradient id="SVGID_1_" gradientUnits="userSpaceOnUse" x1="24.2514" y1="961.4048" x2="60.1777" y2="992.769" gradientTransform="matrix(1 0 0 1 0 -942)">
		<stop  offset="0" style="stop-color:#FFFFFF"/>
		<stop  offset="0.9944" style="stop-color:#FFFFFF;stop-opacity:0"/>
	</linearGradient>
	<path class="st2" d="M50.3,54.5c2.5,1.5,5,3.5,7.2,5.7c6.5-2.8,11.1-9.3,11.1-16.8c0-10.1-8.2-18.3-18.3-18.3s-18.3,8.2-18.3,18.3
		c0,2.6,0.5,5,1.5,7.2C39.3,49.8,45.2,51.4,50.3,54.5z"/>
	
		<linearGradient id="SVGID_2_" gradientUnits="userSpaceOnUse" x1="45.782" y1="952.5137" x2="61.4604" y2="966.2012" gradientTransform="matrix(1 0 0 1 0 -942)">
		<stop  offset="0" style="stop-color:#FFFFFF"/>
		<stop  offset="0.9944" style="stop-color:#FFFFFF;stop-opacity:0"/>
	</linearGradient>
	<circle class="st3" cx="57.5" cy="20.7" r="8"/>
	<g>
		<g>
			<path class="st4" d="M232.1,104.4h-8.4c-21,0-38.1-17.1-38.1-38.1V35.1h17.4v31.1c0,11.5,9.3,20.8,20.8,20.8h8.4L232.1,104.4
				L232.1,104.4z"/>
		</g>
	</g>
	<rect x="139.4" y="59.6" class="st4" width="17.6" height="44.8"/>
	<path class="st4" d="M177.9,35.2v17.2h-40c-5.8,0.1-10.9,3-14,7.5c-0.1,0.1-0.2,0.3-0.3,0.5l-0.1,0.1l-21.1,36
		c-2.9,4.8-8,7.8-13.6,7.8c-5.3,0-10.2-2.7-13.1-7.1l-18-27.5l-5.6-8.5c-0.1-0.3-0.3-0.5-0.5-0.8l-0.2-0.3
		c-3.2-4.6-8.4-7.7-14.4-7.7c-2.5,0-4.9,0.5-7,1.5l0,0c-6,2.7-10.2,8.8-10.2,15.7c0,9.5,7.8,17.3,17.3,17.3
		c7.7,0,14.3-5.1,16.5-12.2l10.9,16.2c-6.3,8.2-16.3,13.5-27.4,13.5c-19.2,0-34.7-15.6-34.7-34.7c0-16.3,11.4-30.1,26.7-33.8V36
		c2.6-0.7,5.2-1,8-1c6.9,0,13.2,2,18.6,5.5c5.4,3.4,9.8,8.3,12.6,14.1l20.7,33.2L106.4,56l0.8-1.4c3.5-7.1,9.4-12.9,16.6-16.3
		c4.4-2.1,9.2-3.2,14.2-3.3v0.2l0.2-0.2L177.9,35.2z"/>
	<path class="st4" d="M345.5,81.5c8.1-4.1,12.6-11.7,12.6-22.3c0-15.4-10.5-24.1-28.8-24.1h-31v13.8H316H328h1.2
		c7.6,0,12.1,3.7,12.1,10.9c0,7.3-4.5,11.2-12.1,11.2h-13.4V56.5h-17.6v47.9h17.6V84.9h13.4h0.5l10.3,19.5h20L345.5,81.5z"/>
	<g>
		<path class="st4" d="M123.8,38.3v21.9c0.1-0.2,0.2-0.3,0.3-0.5c3.1-4.5,8.2-7.3,14-7.4V35C132.9,35.1,128.2,36.2,123.8,38.3z"/>
		<polygon class="st4" points="51.2,59.5 54.5,64.3 54.5,58.6 		"/>
	</g>
	<ellipse class="st5" cx="24.8" cy="11.5" rx="9.3" ry="9.3"/>
	<path class="st6" d="M57.5,32c3.7,0,7-1.8,9.1-4.6c-4.1-4.1-9.8-6.7-16.1-6.7c-1.4,0-2.9,0.1-4.2,0.4C46.3,27.2,51.3,32,57.5,32z"
		/>
	
		<linearGradient id="SVGID_3_" gradientUnits="userSpaceOnUse" x1="14.5732" y1="944.6154" x2="28.2463" y2="956.5523" gradientTransform="matrix(1 0 0 1 0 -942)">
		<stop  offset="0" style="stop-color:#FFFFFF"/>
		<stop  offset="0.9944" style="stop-color:#FFFFFF;stop-opacity:0"/>
	</linearGradient>
	<circle class="st7" cx="24.8" cy="11.5" r="7"/>
	<g>
		<polygon class="st4" points="239.9,34.7 222.2,34.7 247.9,82.4 247.9,104.4 265.5,104.4 265.5,81.9 		"/>
		<polygon class="st0" points="269.3,74.8 290.8,34.7 273,34.7 260.1,58.7 		"/>
	</g>
</g>
</svg>
