<svg id="Layer_1" data-name="Layer 1" xmlns="http://www.w3.org/2000/svg" xmlns:xlink="http://www.w3.org/1999/xlink" viewBox="0 0 512 415"><defs><style>.cls-1{fill:#eaeef9;}.cls-2,.cls-4,.cls-5,.cls-6{fill:#fff;}.cls-3{fill:url(#linear-gradient);}.cls-4{opacity:0.8;}.cls-14,.cls-16,.cls-24,.cls-26,.cls-4,.cls-5,.cls-6{isolation:isolate;}.cls-5{opacity:0.5;}.cls-14,.cls-16,.cls-6{opacity:0.2;}.cls-7{fill:url(#linear-gradient-2);}.cls-8{fill:url(#linear-gradient-3);}.cls-9{fill:#e3eaf2;}.cls-10{fill:#41a4fe;}.cls-11,.cls-14{fill:#f64e60;}.cls-12{fill:url(#linear-gradient-4);}.cls-13{fill:#e6ecf5;}.cls-15,.cls-17{fill:none;stroke-linejoin:round;stroke-width:8.4536px;}.cls-15{stroke:#f64e60;}.cls-16{fill:#7089ff;}.cls-17{stroke:#41a4fe;}.cls-18{fill:#ced7e2;}.cls-19{fill:url(#linear-gradient-5);}.cls-20{fill:url(#linear-gradient-6);}.cls-21{fill:url(#linear-gradient-7);}.cls-22{fill:url(#linear-gradient-8);}.cls-23{fill:url(#linear-gradient-9);}.cls-24,.cls-26{opacity:0.3;}.cls-24{fill:url(#linear-gradient-10);}.cls-25{fill:url(#linear-gradient-11);}.cls-26{fill:url(#linear-gradient-12);}</style><linearGradient id="linear-gradient" x1="245.3961" y1="241.8766" x2="498.7934" y2="241.8766" gradientTransform="matrix(1, 0, 0, -1, 0, 397.4308)" gradientUnits="userSpaceOnUse"><stop offset="0" stop-color="#ced7e2"/><stop offset="1" stop-color="#fff"/></linearGradient><linearGradient id="linear-gradient-2" x1="181.4838" y1="388.6231" x2="193.6503" y2="388.6231" gradientTransform="matrix(1, 0, 0, -1, 0, 397.4308)" gradientUnits="userSpaceOnUse"><stop offset="0" stop-color="#41cbfe"/><stop offset="1" stop-color="#41a4fe"/></linearGradient><linearGradient id="linear-gradient-3" x1="333.2252" y1="-8.7615" x2="345.3942" y2="-8.7615" gradientTransform="matrix(1, 0, 0, -1, 0, 397.4308)" gradientUnits="userSpaceOnUse"><stop offset="0" stop-color="#f97387"/><stop offset="1" stop-color="#f64e60"/></linearGradient><linearGradient id="linear-gradient-4" x1="120.5214" y1="330.926" x2="373.9178" y2="330.926" xlink:href="#linear-gradient"/><linearGradient id="linear-gradient-5" x1="65.4023" y1="126.3766" x2="141.5702" y2="11.3027" xlink:href="#linear-gradient-2"/><linearGradient id="linear-gradient-6" x1="97.9075" y1="75.012" x2="141.245" y2="32.0204" gradientTransform="matrix(1, 0, 0, -1, 0, 397.4308)" gradientUnits="userSpaceOnUse"><stop offset="0" stop-color="#41a4fe"/><stop offset="1" stop-color="#657eff" stop-opacity="0"/></linearGradient><linearGradient id="linear-gradient-7" x1="121.5395" y1="52.5668" x2="95.3003" y2="78.5963" gradientTransform="matrix(1, 0, 0, -1, 0, 397.4308)" gradientUnits="userSpaceOnUse"><stop offset="0.0113" stop-color="#c2d1ff"/><stop offset="1" stop-color="#fff"/></linearGradient><linearGradient id="linear-gradient-8" x1="355.9538" y1="341.7464" x2="376.7101" y2="310.3877" xlink:href="#linear-gradient-3"/><linearGradient id="linear-gradient-9" x1="113.5226" y1="176.3877" x2="155.3549" y2="176.3877" xlink:href="#linear-gradient-3"/><linearGradient id="linear-gradient-10" x1="60.688" y1="176.3877" x2="113.4922" y2="176.3877" gradientTransform="matrix(1, 0, 0, -1, 0, 397.4308)" gradientUnits="userSpaceOnUse"><stop offset="0" stop-color="#ff66a9"/><stop offset="1" stop-color="#f53689"/></linearGradient><linearGradient id="linear-gradient-11" x1="62.8505" y1="153.1978" x2="40.5186" y2="153.1978" gradientTransform="matrix(1, 0, 0, -1, 0, 397.4308)" gradientUnits="userSpaceOnUse"><stop offset="0" stop-color="#40aafe"/><stop offset="0.9518" stop-color="#40cafe"/></linearGradient><linearGradient id="linear-gradient-12" x1="126.2408" y1="153.1978" x2="62.851" y2="153.1978" gradientTransform="matrix(1, 0, 0, -1, 0, 397.4308)" gradientUnits="userSpaceOnUse"><stop offset="0" stop-color="#83a6ff"/><stop offset="1" stop-color="#5a78ff"/></linearGradient></defs><path class="cls-1" d="M248.668,396.1744c101.0333,0,182.9362-82.5622,182.9362-184.4074S349.7013,27.36,248.668,27.36,65.7311,109.9217,65.7311,211.767,147.6347,396.1744,248.668,396.1744Z"/><path class="cls-2" d="M475.0387,144.6085a9.15,9.15,0,0,1,9.2018,9.2762V359.8125a9.15,9.15,0,0,1-9.2018,9.2761H161.4323a9.15,9.15,0,0,1-9.2018-9.2761V153.8847a9.15,9.15,0,0,1,9.2018-9.2762Z"/><path class="cls-3" d="M484.6082,153.8847V166.5H152.2305V153.8847a9.15,9.15,0,0,1,9.2018-9.2762H475.0387A9.4647,9.4647,0,0,1,484.6082,153.8847Z"/><path class="cls-4" d="M163.2722,158.7079a2.9684,2.9684,0,1,0-2.9444-2.9681A2.9565,2.9565,0,0,0,163.2722,158.7079Z"/><path class="cls-5" d="M171.7385,158.7079a2.9684,2.9684,0,1,0-2.9448-2.9681A2.9564,2.9564,0,0,0,171.7385,158.7079Z"/><path class="cls-6" d="M180.2048,158.7079A2.9684,2.9684,0,1,0,177.26,155.74,2.9565,2.9565,0,0,0,180.2048,158.7079Z"/><path class="cls-1" d="M129.6767,44.6669a9.2916,9.2916,0,0,0,5.907-11.6887,9.1867,9.1867,0,0,0-11.5954-5.9543,9.2918,9.2918,0,0,0-5.907,11.6887A9.1867,9.1867,0,0,0,129.6767,44.6669Z"/><path class="cls-7" d="M187.5666,15.1154a6.3079,6.3079,0,1,0-6.2573-6.3077A6.2827,6.2827,0,0,0,187.5666,15.1154Z"/><path class="cls-8" d="M339.2146,412.5a6.3079,6.3079,0,1,0-6.2556-6.3077A6.2836,6.2836,0,0,0,339.2146,412.5Z"/><path class="cls-1" d="M451.6265,120.0994a14.18,14.18,0,0,0,.8876-19.92,13.9087,13.9087,0,0,0-19.76-.8965,14.18,14.18,0,0,0-.8876,19.92A13.9084,13.9084,0,0,0,451.6265,120.0994Z"/><path class="cls-1" d="M452.6578,57.4129a5.9708,5.9708,0,0,0,.3762-8.3872,5.859,5.859,0,0,0-8.3225-.3775,5.9707,5.9707,0,0,0-.372,8.3873A5.8539,5.8539,0,0,0,452.6578,57.4129Z"/><path class="cls-9" d="M457.3707,327.16H427.1871a2.3837,2.3837,0,0,0-2.2064,2.2263v1.8551h-261.34v3.34h261.34v1.8552a2.3833,2.3833,0,0,0,2.2064,2.2262h30.1836a2.3833,2.3833,0,0,0,2.2064-2.2262v-7.05A1.9591,1.9591,0,0,0,457.3707,327.16Z"/><path class="cls-9" d="M457.3707,287.0878H427.1871a2.3836,2.3836,0,0,0-2.2064,2.2262V291.17h-261.34v3.3392h261.34v1.8551a2.3834,2.3834,0,0,0,2.2064,2.2263h30.1836a2.3834,2.3834,0,0,0,2.2064-2.2263v-7.05A1.959,1.959,0,0,0,457.3707,287.0878Z"/><path class="cls-9" d="M457.3707,247.016H427.1871a2.3833,2.3833,0,0,0-2.2064,2.2262v1.8552h-261.34v3.3391h261.34v1.8552a2.3833,2.3833,0,0,0,2.2064,2.2262h30.1836a2.3833,2.3833,0,0,0,2.2064-2.2262v-7.0495A1.9589,1.9589,0,0,0,457.3707,247.016Z"/><path class="cls-9" d="M457.3707,206.9433H427.1871a2.3833,2.3833,0,0,0-2.2064,2.2263v1.8551h-261.34v3.3392h261.34V216.22a2.3836,2.3836,0,0,0,2.2064,2.2262h30.1836a2.3836,2.3836,0,0,0,2.2064-2.2262v-7.05A1.9591,1.9591,0,0,0,457.3707,206.9433Z"/><path class="cls-10" d="M195.2962,293.767h-6.6255v49.7194h6.6255Z"/><path class="cls-10" d="M214.8041,305.2689h-6.6255v31.1677h6.6255Z"/><path class="cls-11" d="M237.9933,319.74h-6.6256v33.3939h6.6256Z"/><path class="cls-10" d="M257.502,304.8982h-6.6255V331.984h6.6255Z"/><path class="cls-11" d="M280.6912,313.4321h-6.6256v47.4933h6.6256Z"/><path class="cls-10" d="M300.1991,206.5722h-6.6255V323.45h6.6255Z"/><path class="cls-11" d="M323.39,211.767h-6.6276v49.7194H323.39Z"/><path class="cls-10" d="M342.8962,191.36h-6.6234v55.656h6.6234Z"/><path class="cls-10" d="M366.0844,179.4864H359.461V289.3145h6.6234Z"/><path class="cls-11" d="M385.5953,217.3328h-6.6276V273.36h6.6276Z"/><path class="cls-11" d="M408.7836,248.8711H402.156v39.33h6.6276Z"/><path class="cls-2" d="M350.1991,55.5591a9.1509,9.1509,0,0,1,9.2039,9.2757V270.7626a9.1509,9.1509,0,0,1-9.2039,9.2761H36.5939a9.1494,9.1494,0,0,1-9.2021-9.2761V64.8348a9.1494,9.1494,0,0,1,9.2021-9.2757Z"/><path class="cls-12" d="M359.403,64.8348V77.4505H27.3918V64.8348a9.1494,9.1494,0,0,1,9.2021-9.2757H350.1991A9.1509,9.1509,0,0,1,359.403,64.8348Z"/><path class="cls-4" d="M38.4339,70.0291a2.9683,2.9683,0,1,0-2.9444-2.968A2.9565,2.9565,0,0,0,38.4339,70.0291Z"/><path class="cls-5" d="M46.9,70.0291a2.9683,2.9683,0,1,0-2.9448-2.968A2.9564,2.9564,0,0,0,46.9,70.0291Z"/><path class="cls-6" d="M55.366,70.0291a2.9683,2.9683,0,1,0-2.9448-2.968A2.9567,2.9567,0,0,0,55.366,70.0291Z"/><path class="cls-13" d="M332.8992,106.3915H201.8624v56.0271H332.8992Z"/><path class="cls-13" d="M332.8992,189.8755H201.8624v56.0271H332.8992Z"/><path class="cls-14" d="M301.2443,148.3188l-13.9869-12.9864-26.1339,8.905L246.0321,131.251l-13.2511-4.8236-18.772,8.905L202.2305,121.233v40.8145h99.0138Z"/><path class="cls-15" d="M202.2305,120.4908,214.009,134.22l18.772-8.9051,13.2511,5.1948,15.0914,12.9864,26.1339-8.905,13.6187,13.3571"/><path class="cls-16" d="M301.2443,209.9118l-13.9869,8.1628-26.1339-2.968-15.0914,10.389-13.2511,9.2757L214.009,219.93l-11.7785,5.1947V247.016h99.0138Z"/><path class="cls-17" d="M202.2305,224.3823l11.7785-5.1943L232.781,234.03l13.2511-9.2761,15.0914-10.3891,26.1339,2.9681,13.6187-8.1628"/><path class="cls-11" d="M251.6124,154.2558a5.1947,5.1947,0,1,0-5.1533-5.1943A5.1737,5.1737,0,0,0,251.6124,154.2558Z"/><path class="cls-10" d="M251.6129,214.3643a5.5658,5.5658,0,1,0-5.5211-5.5658A5.5437,5.5437,0,0,0,251.6129,214.3643Z"/><path class="cls-13" d="M176.8329,197.6676H60.1512a5.0524,5.0524,0,0,1-5.1533-5.1947V111.5862a5.0523,5.0523,0,0,1,5.1533-5.1947h117.05a5.0523,5.0523,0,0,1,5.1533,5.1947V192.844A5.59,5.59,0,0,1,176.8329,197.6676Z"/><path class="cls-18" d="M120.8844,178.0024H78.5551l20.9806-24.1177Z"/><path class="cls-2" d="M155.4842,178.002H94.7509l30.5505-34.5068Z"/><path class="cls-18" d="M94.3824,145.3508a8.1631,8.1631,0,1,0-8.0977-8.1628A8.1306,8.1306,0,0,0,94.3824,145.3508Z"/><path class="cls-19" d="M171.0026,327.1608a68.8043,68.8043,0,0,1-1.84,15.2127,73.7226,73.7226,0,0,1-2.9444,9.6473A69.6916,69.6916,0,0,1,123.52,392.8352c-1.4726.3711-3.313,1.1129-4.7852,1.484a77.3625,77.3625,0,0,1-16.1954,1.8552c-37.9127,0-68.4632-30.7961-68.4632-69.0136s30.9186-69.0135,68.4632-69.0135C140.4521,258.1473,171.0026,288.9438,171.0026,327.1608Z"/><path class="cls-20" d="M169.1623,342.3735a73.7715,73.7715,0,0,1-2.9444,9.6468A69.6927,69.6927,0,0,1,123.52,392.8348c-1.4726.3711-3.313,1.1133-4.7852,1.4844L67.94,342.7442l18.404-16.6967,20.9806,14.1,21.7169-20.0364,3.6807-3.34,4.7851-6.3076Z"/><path class="cls-21" d="M138.2436,311.5766a2.385,2.385,0,0,0-2.2085-2.2263H116.1586a2.385,2.385,0,0,0-2.2085,2.2263v4.4525a2.3846,2.3846,0,0,0,2.2085,2.2263h6.9936L106.9564,334.581,91.1291,318.6265a4.2132,4.2132,0,0,0-6.2573,0L66.4674,337.1784a2.7878,2.7878,0,0,0,0,3.34l2.9448,3.3391a2.7289,2.7289,0,0,0,3.3126,0l15.0914-15.2127,15.8277,15.9549a4.2132,4.2132,0,0,0,6.2573,0l19.14-19.6651v7.05A2.3849,2.3849,0,0,0,131.25,334.21h4.417a2.385,2.385,0,0,0,2.2085-2.2263Z"/><path class="cls-9" d="M114.2593,206.9433h-2.9448v51.9458h2.9448Z"/><path class="cls-22" d="M384.7411,70.9521a18.7656,18.7656,0,0,1-.5011,4.1456,19.9254,19.9254,0,0,1-.8028,2.6289,18.99,18.99,0,0,1-11.6348,11.1223,1.8489,1.8489,0,0,1-.7026.2022,1.4152,1.4152,0,0,0-.6013.2023,21.0869,21.0869,0,0,1-4.4138.5055,18.7566,18.7566,0,1,1,18.6564-18.8068Z"/><path class="cls-23" d="M155.4838,214.7354H113.5226v12.6154h41.9612Z"/><path class="cls-24" d="M113.1545,214.7354H60.5189v12.6154h52.6356Z"/><path class="cls-25" d="M40.7012,250.7263H62.7863V237.74H40.7012Z"/><path class="cls-26" d="M62.7867,250.7263h63.31V237.74h-63.31Z"/></svg>