<svg id="Layer_1" data-name="Layer 1" xmlns="http://www.w3.org/2000/svg" xmlns:xlink="http://www.w3.org/1999/xlink" viewBox="0 0 512 415"><defs><style>.cls-1{fill:#eaeef9;}.cls-2{fill:url(#linear-gradient);}.cls-3{fill:#ebf0f6;}.cls-4{fill:#f5f8ff;}.cls-5{fill:#0f333d;}.cls-6{fill:#fff;}.cls-7{fill:#fd724f;}.cls-8{fill:#ffcb00;}.cls-9{fill:#7ed171;}.cls-10{fill:#e6edf5;}.cls-11{fill:#ced7e2;}.cls-12{fill:url(#linear-gradient-2);}.cls-13{fill:url(#linear-gradient-3);}.cls-14{fill:url(#linear-gradient-4);}.cls-15{fill:url(#linear-gradient-5);}.cls-16{fill:url(#linear-gradient-6);}.cls-17{fill:url(#linear-gradient-7);}.cls-18{fill:url(#linear-gradient-8);}.cls-19{fill:url(#linear-gradient-9);}.cls-20{fill:url(#linear-gradient-10);}.cls-21{fill:url(#linear-gradient-11);}.cls-22{fill:none;stroke:#ebf0f6;stroke-linecap:round;stroke-linejoin:round;stroke-width:8.433px;}</style><linearGradient id="linear-gradient" x1="15.1303" y1="378.7524" x2="15.1303" y2="382.5135" gradientTransform="matrix(41.235, 0, 0, -15.7006, -359.3439, 6349.9252)" gradientUnits="userSpaceOnUse"><stop offset="0" stop-color="#f5f8ff"/><stop offset="0.991" stop-color="#d8e0eb"/></linearGradient><linearGradient id="linear-gradient-2" x1="24.0893" y1="398.8937" x2="28.3226" y2="398.8937" gradientTransform="matrix(25.3257, 0, 0, -24.9849, -208.0673, 10041.6459)" gradientUnits="userSpaceOnUse"><stop offset="0" stop-color="#f97387"/><stop offset="1" stop-color="#f64e60"/></linearGradient><linearGradient id="linear-gradient-3" x1="37.1234" y1="397.008" x2="39.6196" y2="394.7606" gradientTransform="matrix(15.96, 0, 0, -17.714, -141.339, 7098.3205)" gradientUnits="userSpaceOnUse"><stop offset="0" stop-color="#e81778"/><stop offset="1" stop-color="#e01f79" stop-opacity="0"/></linearGradient><linearGradient id="linear-gradient-4" x1="11.5673" y1="395.6231" x2="15.7754" y2="395.6231" gradientTransform="matrix(52.6857, 0, 0, -26.3865, -429.215, 10639.1872)" gradientUnits="userSpaceOnUse"><stop offset="0" stop-color="#41cbfe"/><stop offset="1" stop-color="#41a4fe"/></linearGradient><linearGradient id="linear-gradient-5" x1="12.4643" y1="395.7845" x2="14.8129" y2="392.2679" gradientTransform="matrix(28.0004, 0, 0, -28.0001, -319.3681, 11311.348)" xlink:href="#linear-gradient-4"/><linearGradient id="linear-gradient-6" x1="16.6617" y1="388.3943" x2="18.5338" y2="386.4674" gradientTransform="matrix(19.1, 0, 0, -18.476, -256.2469, 7456.5233)" gradientUnits="userSpaceOnUse"><stop offset="0" stop-color="#41a4fe"/><stop offset="1" stop-color="#657eff" stop-opacity="0"/></linearGradient><linearGradient id="linear-gradient-7" x1="99.9567" y1="348.0562" x2="89.9088" y2="352.0577" gradientTransform="matrix(2.2827, 0, 0, -5.7156, -144.5996, 2283.82)" gradientUnits="userSpaceOnUse"><stop offset="0.011" stop-color="#c2d1ff"/><stop offset="1" stop-color="#fff"/></linearGradient><linearGradient id="linear-gradient-8" x1="96.9649" y1="304.3337" x2="86.917" y2="311.1897" gradientTransform="matrix(2.2818, 0, 0, -3.335, -148.584, 1320.3304)" xlink:href="#linear-gradient-7"/><linearGradient id="linear-gradient-9" x1="93.4748" y1="163.3595" x2="83.5112" y2="179.3569" gradientTransform="matrix(2.3005, 0, 0, -1.4306, -152.7078, 549.5897)" xlink:href="#linear-gradient-7"/><linearGradient id="linear-gradient-10" x1="27.5184" y1="363.2898" x2="25.3048" y2="366.1781" gradientTransform="matrix(10.357, 0, 0, -7.905, -202.3777, 3167.3198)" xlink:href="#linear-gradient-7"/><linearGradient id="linear-gradient-11" x1="54.3298" y1="388.5977" x2="51.4583" y2="391.4522" gradientTransform="matrix(10.7041, 0, 0, -10.7216, -110.4192, 4262.1904)" gradientUnits="userSpaceOnUse"><stop offset="0.011" stop-color="#ffc9e3"/><stop offset="1" stop-color="#fff"/></linearGradient></defs><g id="_05" data-name=" 05"><path id="Path-2" class="cls-1" d="M266.558,404.2624c110.2266.2632,199.7963-88.88,200.0594-199.1065S377.7375,5.36,267.5109,5.0965,67.7146,93.9764,67.4515,204.203q-.0006.2379-.0006.4759c-.1351,110.0918,89.0023,199.4484,199.0941,199.5835Z"/><path id="Path-3" class="cls-2" d="M351.4866,405.0636c-28.4444.8053-62.8974,0-86.9314-.4217-24.0341.4217-58.4913,1.2059-86.9357.4217,28.0439-16.0607,38.058-46.1791,39.66-65.8575h94.5465C313.8122,358.8845,323.4427,389.0029,351.4866,405.0636Z"/><path id="Path-4" class="cls-3" d="M180.4234,409.9041h168.66a4.4274,4.4274,0,0,0,0-8.8546h-168.66a4.4274,4.4274,0,0,0,0,8.8546Z"/><path id="Path-5" class="cls-4" d="M443.6381,88.6283V335.9932a10.3515,10.3515,0,0,1-10.2623,10.44q-.0762.0007-.1524,0H97.4976a10.3557,10.3557,0,0,1-10.4191-10.2919q0-.0741,0-.1481V88.6283A10.36,10.36,0,0,1,97.3538,78.1842q.0718-.0006.1438,0H433.2234a10.12,10.12,0,0,1,10.4156,9.8146Q443.6483,88.3134,443.6381,88.6283Z"/><path id="Path-6" class="cls-5" d="M443.6381,88.6283V301.46H87.0787V88.6283A10.36,10.36,0,0,1,97.3538,78.1842q.0718-.0006.1438,0H433.2234a10.12,10.12,0,0,1,10.4156,9.8146Q443.6483,88.3134,443.6381,88.6283Z"/><path id="Path-7" class="cls-6" d="M430.0188,91.4365H99.1V289.8141H430.0188Z"/><path id="Path-8" class="cls-7" d="M118.7277,113.9273a5.2242,5.2242,0,1,0-5.2074-5.2411v.0168a5.2159,5.2159,0,0,0,5.2074,5.2243Z"/><path id="Path-9" class="cls-8" d="M135.5557,113.9273a5.2242,5.2242,0,1,0-5.2073-5.2411l0,.0168a5.216,5.216,0,0,0,5.2074,5.2243Z"/><path id="Path-10" class="cls-9" d="M152.38,113.9273a5.2242,5.2242,0,1,0-5.2073-5.2411v.0168a5.2158,5.2158,0,0,0,5.2073,5.2243Z"/><path id="Path-11" class="cls-10" d="M430.0188,125.9738H99.1v163.84h71.3094V128.3814h259.61Z"/><path id="Path-12" class="cls-6" d="M135.5557,161.3122a8.8546,8.8546,0,1,0-8.8124-8.8966q0,.04,0,.08A8.8251,8.8251,0,0,0,135.5557,161.3122Z"/><path id="Path-13" class="cls-6" d="M159.5939,174.5605h-48.477a2.01,2.01,0,1,1,0-4.0141h48.49a1.8972,1.8972,0,0,1,1.99,2.007C161.9973,173.3588,160.7956,174.5605,159.5939,174.5605Z"/><path id="Path-14" class="cls-6" d="M159.5939,187.0118h-48.477a2.0121,2.0121,0,1,1,0-4.0183h48.49a1.8975,1.8975,0,0,1,1.99,2.0112C161.9973,185.81,160.7956,187.0118,159.5939,187.0118Z"/><path id="Path-15" class="cls-6" d="M159.5939,199.4589h-48.477a2.01,2.01,0,1,1,0-4.0141h48.49a1.8931,1.8931,0,0,1,1.9911,1.79,1.9174,1.9174,0,0,1-.0009.2171C161.9973,198.2572,160.7956,199.4589,159.5939,199.4589Z"/><path id="Path-16" class="cls-6" d="M159.5939,211.906h-48.477a2.0121,2.0121,0,1,1,0-4.0184h48.49a1.8976,1.8976,0,0,1,1.99,2.0113C161.9973,210.7043,160.7956,211.906,159.5939,211.906Z"/><path id="Path-17" class="cls-6" d="M159.5939,224.3573h-48.477a2.01,2.01,0,1,1,0-4.0141h48.49a1.8931,1.8931,0,0,1,1.9911,1.79,1.9175,1.9175,0,0,1-.0009.2171C161.9973,223.1513,160.7956,224.3573,159.5939,224.3573Z"/><path id="Path-18" class="cls-6" d="M136.3568,236.8044h-25.64a1.7245,1.7245,0,0,1-1.6022-1.6065v-1.2017a1.7245,1.7245,0,0,1,1.6022-1.6065h25.64a1.7245,1.7245,0,0,1,1.6023,1.6065v1.2017C137.5585,236.0032,137.158,236.8044,136.3568,236.8044Z"/><path id="Path-19" class="cls-11" d="M264.5551,333.9861a8.8546,8.8546,0,1,0-8.8167-8.8924q0,.04,0,.08A8.8251,8.8251,0,0,0,264.5551,333.9861Z"/><path id="Path-20" class="cls-12" d="M509.3311,74.9711a57.487,57.487,0,0,1-1.2228,11.6459v.8054a53.1277,53.1277,0,0,1-32.0454,36.9449c-.8011.4006-1.1806.4006-1.9817.8012a46.4586,46.4586,0,0,1-16.8238,2.8124c-30.2166,0-54.712-22.3906-54.712-52.6071s24.4954-54.712,54.712-52.6071a52.0357,52.0357,0,0,1,52.0739,51.9975Q509.3315,74.8677,509.3311,74.9711Z"/><path id="Path-21" class="cls-13" d="M508.1083,86.617v.8054a53.1277,53.1277,0,0,1-32.0454,36.9449c-.8011.4006-1.1806.4006-1.9817.8012L440.813,91.8371l4.8069-16.866-.3795-6.4217,8.8124-14.0578,8.3909-4.0141,17.2454,7.227Z"/><path id="Path-22" class="cls-10" d="M210.8707,217.9313H192.44v44.5768h18.43Z"/><path id="Path-23" class="cls-10" d="M256.139,197.4518H237.7129v65.0563H256.139Z"/><path id="Path-24" class="cls-10" d="M301.4115,217.9313h-18.43v44.5768h18.43Z"/><path id="Path-25" class="cls-10" d="M346.68,166.1275H328.2537v96.3806H346.68Z"/><path id="Path-26" class="cls-10" d="M391.9439,196.2459H373.5178v66.2622h18.4261Z"/><path id="Path-27" class="cls-11" d="M210.8707,252.4686H192.44v10.04h18.43Z"/><path id="Path-28" class="cls-11" d="M256.139,248.05H237.7129v14.4583H256.139Z"/><path id="Path-29" class="cls-11" d="M301.4115,252.4686h-18.43v10.04h18.43Z"/><path id="Path-30" class="cls-11" d="M346.68,240.8227H328.2537v21.6854H346.68Z"/><path id="Path-31" class="cls-11" d="M391.9439,247.6492H373.5178v14.8589h18.4261Z"/><path id="Path-32" class="cls-14" d="M203.26,255.6816a62.2254,62.2254,0,0,1-18.8225-3.6178,6.0936,6.0936,0,0,1,3.6051-11.6417c10.82,3.6135,23.6377,6.4217,34.8536-6.0254l3.2087-3.6135c14.412-15.66,22.845-24.8984,49.2655-10.4527,21.2343,12.0465,28.8451,7.6276,37.257-6.0254a166.2764,166.2764,0,0,0,8.0113-17.2876c4.4063-11.2454,8.8167-22.8913,20.8337-21.2849h.8012c11.6164,1.206,25.6363,2.8124,43.2612-21.6854a48.857,48.857,0,0,1,6.8307-8.0113,5.7681,5.7681,0,0,1,8.1556.1715q.1149.12.2226.2459a5.8314,5.8314,0,0,1-.1738,8.245q-.1007.0965-.2057.188a32.8151,32.8151,0,0,0-5.2158,6.4133c-21.209,29.7136-41.659,27.7066-54.0765,26.5007h-.8012c-2.8039-.4006-5.2073,4.8194-8.433,13.653a115.81,115.81,0,0,1-8.7956,19.2989c-12.8181,21.2848-28.44,24.093-53.28,10.44-18.03-10.04-20.4331-7.2271-34.453,8.0113l-3.6051,4.0141A36.9027,36.9027,0,0,1,203.26,255.6816Z"/><path id="Path-33" class="cls-10" d="M217.28,157.2939H192.8452a3.1666,3.1666,0,0,1-3.2088-3.1238q-.0006-.0445,0-.0891a3.1666,3.1666,0,0,1,3.1195-3.213q.0447-.0006.0892,0h24.4557a3.1623,3.1623,0,0,1,3.2046,3.12c0,.0311,0,.0623,0,.0935a3.1623,3.1623,0,0,1-3.1107,3.2131Q217.3373,157.2952,217.28,157.2939Z"/><path id="Path-34" class="cls-10" d="M239.3152,172.9582h-46.47a3.1666,3.1666,0,0,1-3.2088-3.1238q-.0006-.0445,0-.0892a3.1624,3.1624,0,0,1,3.111-3.2129c.0326,0,.0651,0,.0977,0h46.0694a3.1623,3.1623,0,0,1,3.2047,3.12c0,.0311,0,.0623,0,.0934a2.8419,2.8419,0,0,1-2.804,3.213Z"/><path id="Path-35" class="cls-15" d="M120.7305,277.3586a57.1977,57.1977,0,0,1-2.4034,16.866,59.343,59.343,0,0,1-44.0666,40.9632A62.1845,62.1845,0,0,1,61.843,336.39,59.0309,59.0309,0,1,1,120.73,277.2154Z"/><path id="Path-36" class="cls-16" d="M118.34,294.2288A59.343,59.343,0,0,1,74.2605,335.192L38.2053,299.0314l4.8068-4.4147-5.2074-5.2031,8.0114-6.0254,31.2484-21.6854,3.6051-4.4147Z"/><path id="Path-37" class="cls-17" d="M74.075,275.74h5.6079a1.8935,1.8935,0,0,1,2.0029,2.007v20.079a1.8929,1.8929,0,0,1-2.0029,2.007H74.075a1.8974,1.8974,0,0,1-2.007-2.007v-20.079a1.8974,1.8974,0,0,1,2.007-2.007Z"/><path id="Path-38" class="cls-18" d="M57.247,285.779h5.5868a1.8927,1.8927,0,0,1,2.0239,2.007v10.0395a1.8928,1.8928,0,0,1-2.0028,2.007H57.247a1.8935,1.8935,0,0,1-2.0029-2.007V287.786a1.8929,1.8929,0,0,1,2.0029-2.007Z"/><path id="Path-39" class="cls-19" d="M40.4232,293.8072h5.6079a1.8972,1.8972,0,0,1,2.0028,2.0112v2.0071a1.8928,1.8928,0,0,1-2.0028,2.007H40.4232a1.8974,1.8974,0,0,1-2.0071-2.007v-2.0071C38.0155,294.6125,39.2215,293.8072,40.4232,293.8072Z"/><path id="Path-40" class="cls-20" d="M80.0835,256.0611a1.7289,1.7289,0,0,1,1.6023,1.6065v10.44a.8644.8644,0,0,1-.8012.8054H77.68a.8644.8644,0,0,1-.8011-.8054v-4.0141a125.688,125.688,0,0,1-37.6618,24.8984h-.8011l-.4006-.4048v-3.6135a.8433.8433,0,0,1,.8012-.8011A114.1877,114.1877,0,0,0,73.67,260.48H69.264a.8645.8645,0,0,1-.8012-.8054v-3.2129a.8434.8434,0,0,1,.8012-.8012Z"/><path id="Path-41" class="cls-21" d="M477.0749,76.7884H458.6488a1.7289,1.7289,0,0,1-1.6023-1.6065V56.7094A2.9853,2.9853,0,0,0,454.66,53.897h-.38A22.7159,22.7159,0,0,0,460.69,98.8744,22.1871,22.1871,0,0,0,479.9,79.6177a3.0358,3.0358,0,0,0-2.825-2.8124Z"/><path id="Path-42" class="cls-6" d="M461.8533,51.89V69.9619a1.8969,1.8969,0,0,0,2.024,2.007h18.0044a1.8972,1.8972,0,0,0,2.0239-2.007,22.2463,22.2463,0,0,0-20.0283-20.079C462.6545,49.4824,461.8533,50.2835,461.8533,51.89Z"/><path id="Path-43" class="cls-22" d="M65.4481,404.663H474.87"/></g></svg>