<svg id="Layer_1" data-name="Layer 1" xmlns="http://www.w3.org/2000/svg" xmlns:xlink="http://www.w3.org/1999/xlink" viewBox="0 0 512 415"><defs><style>.cls-1{fill:#eaeef9;}.cls-2{fill:#fff;}.cls-3{fill:#e6ecf5;}.cls-4{fill:#7089ff;opacity:0.2;}.cls-14,.cls-15,.cls-16,.cls-4,.cls-5{isolation:isolate;}.cls-5{opacity:0.3;fill:url(#linear-gradient);}.cls-6{fill:url(#linear-gradient-2);}.cls-7{fill:url(#linear-gradient-3);}.cls-8{fill:url(#linear-gradient-4);}.cls-9{fill:#e6edf5;}.cls-10{fill:url(#linear-gradient-5);}.cls-11{fill:url(#linear-gradient-6);}.cls-12{fill:url(#linear-gradient-7);}.cls-13{fill:#ddd;}.cls-14,.cls-15,.cls-16{opacity:0.3;}.cls-14{fill:url(#linear-gradient-8);}.cls-15{fill:url(#linear-gradient-9);}.cls-16{fill:url(#linear-gradient-10);}.cls-17{fill:url(#linear-gradient-11);}.cls-18{fill:url(#linear-gradient-12);}.cls-19{fill:url(#linear-gradient-13);}.cls-20{fill:url(#linear-gradient-14);}.cls-21{fill:url(#linear-gradient-15);}.cls-22{fill:url(#linear-gradient-16);}.cls-23{fill:url(#linear-gradient-17);}.cls-24{fill:url(#linear-gradient-18);}.cls-25{fill:#ced7e2;}.cls-26{fill:url(#linear-gradient-19);}.cls-27{fill:url(#linear-gradient-20);}.cls-28{fill:url(#linear-gradient-21);}</style><linearGradient id="linear-gradient" x1="11.5005" y1="390.2352" x2="15.3409" y2="390.2352" gradientTransform="matrix(41.5912, 0, 0, -20.7666, -356.9148, 8407.7147)" gradientUnits="userSpaceOnUse"><stop offset="0" stop-color="#83a6ff"/><stop offset="1" stop-color="#5a78ff"/></linearGradient><linearGradient id="linear-gradient-2" x1="37.917" y1="360.4987" x2="41.7919" y2="360.4987" gradientTransform="matrix(6.7349, 0, 0, -6.931, -145.2403, 2800.9498)" gradientUnits="userSpaceOnUse"><stop offset="0" stop-color="#41cbfe"/><stop offset="1" stop-color="#41a4fe"/></linearGradient><linearGradient id="linear-gradient-3" x1="21.608" y1="372.9528" x2="25.4292" y2="372.9528" gradientTransform="matrix(14.3945, 0, 0, -10.1114, -189.4548, 4095.4157)" xlink:href="#linear-gradient-2"/><linearGradient id="linear-gradient-4" x1="58.4366" y1="347.0492" x2="62.3038" y2="347.0492" gradientTransform="matrix(4.4137, 0, 0, -6.0649, -125.0675, 2465.0457)" xlink:href="#linear-gradient-2"/><linearGradient id="linear-gradient-5" x1="27.1767" y1="385.3492" x2="31.0247" y2="385.3492" gradientTransform="matrix(9.823, 0, 0, -9.636, -166.9526, 3855.316)" xlink:href="#linear-gradient-2"/><linearGradient id="linear-gradient-6" x1="53.6611" y1="392.0877" x2="57.513" y2="392.0877" gradientTransform="matrix(8.475, 0, 0, -14.551, -89.6027, 5846.8053)" xlink:href="#linear-gradient-2"/><linearGradient id="linear-gradient-7" x1="49.2293" y1="394.7099" x2="53.0696" y2="394.7099" gradientTransform="matrix(10.016, 0, 0, -18.6, -88.8796, 7489.0653)" xlink:href="#linear-gradient-2"/><linearGradient id="linear-gradient-8" x1="13.6426" y1="391.0915" x2="17.4753" y2="391.0915" gradientTransform="matrix(41.9049, 0, 0, -19.8809, -326.6523, 8038.1765)" gradientUnits="userSpaceOnUse"><stop offset="0" stop-color="#ff66a9"/><stop offset="1" stop-color="#f53689"/></linearGradient><linearGradient id="linear-gradient-9" x1="13.4697" y1="389.9508" x2="17.3139" y2="389.9508" gradientTransform="matrix(41.8264, 0, 0, -19.7849, -328.866, 8006.7273)" xlink:href="#linear-gradient-8"/><linearGradient id="linear-gradient-10" x1="13.2823" y1="388.8857" x2="17.1227" y2="388.8857" gradientTransform="matrix(41.8283, 0, 0, -19.7849, -331.575, 8014.1643)" xlink:href="#linear-gradient-8"/><linearGradient id="linear-gradient-11" x1="17.0293" y1="383.2061" x2="20.8735" y2="383.2061" gradientTransform="matrix(27.4151, 0, 0, -14.327, -242.8522, 5799.8128)" gradientUnits="userSpaceOnUse"><stop offset="0" stop-color="#f97387"/><stop offset="1" stop-color="#f64e60"/></linearGradient><linearGradient id="linear-gradient-12" x1="15.7473" y1="388.5103" x2="19.5953" y2="388.5103" gradientTransform="matrix(32.7102, 0, 0, -16.5415, -270.0512, 6683.4035)" xlink:href="#linear-gradient-11"/><linearGradient id="linear-gradient-13" x1="14.1238" y1="389.1174" x2="17.9641" y2="389.1174" gradientTransform="matrix(38.3945, 0, 0, -18.6614, -307.7399, 7550.9227)" xlink:href="#linear-gradient-11"/><linearGradient id="linear-gradient-14" x1="35.2268" y1="378.9303" x2="39.0364" y2="378.9303" gradientTransform="matrix(9.919, 0, 0, -9.6362, -138.7475, 3877.1577)" xlink:href="#linear-gradient-11"/><linearGradient id="linear-gradient-15" x1="69.0171" y1="363.0548" x2="72.8267" y2="363.0548" gradientTransform="matrix(4.8157, 0, 0, -6.553, -102.229, 2635.9095)" xlink:href="#linear-gradient-2"/><linearGradient id="linear-gradient-16" x1="161.0623" y1="279.9294" x2="164.7797" y2="279.9294" gradientTransform="matrix(2.12, 0, 0, -2.12, -76.6784, 835.832)" xlink:href="#linear-gradient-11"/><linearGradient id="linear-gradient-17" x1="161.0623" y1="273.9916" x2="164.7797" y2="273.9916" gradientTransform="matrix(2.12, 0, 0, -2.12, -76.6784, 840.264)" xlink:href="#linear-gradient-2"/><linearGradient id="linear-gradient-18" x1="12.3066" y1="396.5218" x2="16.1469" y2="396.5218" gradientTransform="matrix(42.568, 0, 0, -17.25, -349.0664, 6926.0273)" xlink:href="#linear-gradient-11"/><linearGradient id="linear-gradient-19" x1="13.2276" y1="398.3586" x2="15.1966" y2="395.4105" gradientTransform="matrix(42.5471, 0, 0, -42.6057, -350.0461, 17248.286)" xlink:href="#linear-gradient-2"/><linearGradient id="linear-gradient-20" x1="18.9065" y1="392.1525" x2="20.1155" y2="390.9577" gradientTransform="matrix(26.127, 0, 0, -26.4, -233.1078, 10688.1122)" gradientUnits="userSpaceOnUse"><stop offset="0" stop-color="#41a4fe"/><stop offset="1" stop-color="#657eff" stop-opacity="0"/></linearGradient><linearGradient id="linear-gradient-21" x1="23.2784" y1="381.974" x2="21.7654" y2="383.9501" gradientTransform="matrix(20.5363, 0, 0, -15.7133, -202.8724, 6351.6155)" gradientUnits="userSpaceOnUse"><stop offset="0.011" stop-color="#c2d1ff"/><stop offset="1" stop-color="#fff"/></linearGradient></defs><g id="_23" data-name=" 23"><path id="Path-5" class="cls-1" d="M65.5308,94.7252A14.0633,14.0633,0,1,0,51.4752,80.6543v.0076A14.0633,14.0633,0,0,0,65.5308,94.7252Z"/><path id="Path-6" class="cls-1" d="M450.1772,137.6523a14.0633,14.0633,0,1,0-14.0555-14.0709v.0076A14.0632,14.0632,0,0,0,450.1772,137.6523Z"/><path id="Path-7" class="cls-1" d="M94.0106,46.9862a5.5531,5.5531,0,1,0-5.5492-5.557v.0039a5.5491,5.5491,0,0,0,5.5454,5.5531Z"/><path id="Path-8" class="cls-1" d="M433.9058,78.07a5.9218,5.9218,0,1,0-5.9179-5.9256v.0039A5.9179,5.9179,0,0,0,433.902,78.07Z"/><path id="Path-9" class="cls-1" d="M254.897,409.6506c112.41.0637,203.5885-91.0114,203.6521-203.4217S367.5377,2.64,255.1274,2.5768,51.5389,93.5882,51.4753,205.9985l0,.1152c-.0318,112.3785,91.0432,203.5051,203.4218,203.5369Z"/><path id="Path-10" class="cls-2" d="M311.8528,322.6751,135.0636,394.0973a5.9024,5.9024,0,0,1-7.3964-2.9609L25.9678,138.3781a5.9065,5.9065,0,0,1,2.9494-7.3811l176.7776-71.43a5.8987,5.8987,0,0,1,7.3965,2.9609L314.8022,314.9138a5.5919,5.5919,0,0,1-2.9494,7.7613Z"/><path id="Path-11" class="cls-3" d="M233.8136,173.1791,85.873,232.7578a2.6883,2.6883,0,0,1-3.5948-1.2372q-.0576-.118-.1034-.2413a2.6888,2.6888,0,0,1,1.4785-3.7021l147.572-59.5787a2.6882,2.6882,0,0,1,3.5947,1.2372q.0576.118.1035.2413A2.88,2.88,0,0,1,233.8136,173.1791Z"/><path id="Path-12" class="cls-3" d="M239.3629,187.611,91.7909,247.19a2.6882,2.6882,0,0,1-3.5947-1.2372q-.0576-.118-.1035-.2413a2.6882,2.6882,0,0,1,1.2324-3.5964q.12-.0589.2461-.1057L237.1432,182.43a2.6882,2.6882,0,0,1,3.5947,1.2372q.0576.118.1035.2413a2.6882,2.6882,0,0,1-1.2324,3.5965Q239.4887,187.5644,239.3629,187.611Z"/><path id="Path-13" class="cls-3" d="M245.2808,201.6743,97.7089,261.6255a2.6884,2.6884,0,0,1-3.5942-1.239q-.0581-.1191-.1041-.2434a2.6882,2.6882,0,0,1,1.2324-3.5964q.12-.0589.2461-.1056l147.572-59.5788a2.6882,2.6882,0,0,1,3.5948,1.2373q.0576.118.1035.2413a2.3388,2.3388,0,0,1-1.4786,3.3334Z"/><path id="Path-14" class="cls-3" d="M159.104,253.484l-55.4772,22.5619a2.6884,2.6884,0,0,1-3.5942-1.239q-.0579-.1191-.104-.2434a2.6881,2.6881,0,0,1,1.2372-3.5947q.118-.0576.2413-.1035L156.8843,248.3a2.6883,2.6883,0,0,1,3.5942,1.239q.0581.1191.1041.2434A3.0376,3.0376,0,0,1,159.104,253.484Z"/><path id="Path-15" class="cls-4" d="M264.5131,238.3109l4.8081,12.2122a4.2243,4.2243,0,0,1-2.2163,5.5478l-.0034.0015-146.0934,59.21a4.2242,4.2242,0,0,1-5.5428-2.2288l-.0027-.0062-4.808-12.5656a4.2242,4.2242,0,0,1,2.21-5.55l.0061-.0027,146.0935-58.8413A4.7581,4.7581,0,0,1,264.5131,238.3109Z"/><path id="Path-16" class="cls-5" d="M275.9765,266.4336l4.8081,12.2122a4.2245,4.2245,0,0,1-2.2117,5.55l-.008.0034-146.09,59.21a4.2245,4.2245,0,0,1-5.5439-2.2262l-.0054-.0128-5.1767-12.5655a4.2243,4.2243,0,0,1,2.2163-5.5478l.0034-.0014,146.09-58.8414A5.2535,5.2535,0,0,1,275.9765,266.4336Z"/><path id="Path-17" class="cls-4" d="M287.0712,294.5716l4.8081,12.2122a4.2244,4.2244,0,0,1-2.2144,5.5486l-.0015.0007L143.57,371.5354a4.2244,4.2244,0,0,1-5.5471-2.2183l-.0022-.0052L133.2126,357.1a4.2243,4.2243,0,0,1,2.2163-5.5478l.0034-.0015L281.5258,292.709a4.0823,4.0823,0,0,1,5.4968,1.7649Q287.0475,294.5223,287.0712,294.5716Z"/><path id="Path-18" class="cls-6" d="M128.0435,289.007l8.13,20.3537-15.1654,5.9217a4.2244,4.2244,0,0,1-5.5455-2.22l-4.808-12.5808a4.2243,4.2243,0,0,1,2.21-5.55l.0061-.0027Z"/><path id="Path-19" class="cls-7" d="M124.3415,323.0552l44.3825-18.134,8.1377,20.3537-44.3826,18.134a4.2243,4.2243,0,0,1-5.5478-2.2163l-.0015-.0034-5.1767-12.5847A4.72,4.72,0,0,1,124.3415,323.0552Z"/><path id="Path-20" class="cls-8" d="M135.4323,351.1818l6.2866-2.5923,8.1377,20.3537-6.2866,2.5922a4.2243,4.2243,0,0,1-5.5493-2.2081L133.2126,357.1A4.8079,4.8079,0,0,1,135.4323,351.1818Z"/><path id="Shape" class="cls-9" d="M62.2013,161.3355A37.5813,37.5813,0,0,1,99.556,123.589H99.94a37.7427,37.7427,0,0,1,37.7234,37.0054c0,.384,0,.384.3841.384A36.7057,36.7057,0,0,1,128.8,185.7753a38.0191,38.0191,0,0,1-66.5988-24.44Z"/><path id="Path-21" class="cls-10" d="M137.652,160.5944H125.4475a25.1079,25.1079,0,0,0-25.1349-24.7931h-.384V123.589h.384A37.6659,37.6659,0,0,1,137.652,160.5944Z"/><path id="Path-22" class="cls-2" d="M383.9586,380.0456l-178.64-66.6142a5.7605,5.7605,0,0,1-3.31-7.4L296.672,51.0569a5.76,5.76,0,0,1,7.4-3.318l178.6363,66.2263a5.76,5.76,0,0,1,3.3295,7.4041L391.355,376.716A5.76,5.76,0,0,1,383.9586,380.0456Z"/><path id="Path-23" class="cls-4" d="M360.3022,162.4454l-14.4242-5.5493,11.8359-32.9384,14.4242,5.1806Z"/><path id="Path-24" class="cls-11" d="M379.9071,169.477,365.11,163.9278l18.1225-50.3313L397.657,119.15Z"/><path id="Path-25" class="cls-12" d="M418.74,183.1754l-14.4242-5.1882,23.6717-66.2417,14.7929,5.1806Z"/><path id="Path-26" class="cls-4" d="M437.2354,189.8307,422.8111,184.65l6.2866-18.134,14.7929,5.5531Z"/><path id="Path-27" class="cls-3" d="M426.878,216.8474,277.455,161.3355a2.9249,2.9249,0,0,1,1.8511-5.5492l149.4383,55.508a3.0723,3.0723,0,0,1,1.8511,3.702A3.2452,3.2452,0,0,1,426.878,216.8474Z"/><path id="Path-28" class="cls-3" d="M421.3288,231.2793,271.91,175.7675a2.9243,2.9243,0,0,1,1.8472-5.5493l149.4384,55.508a3.0722,3.0722,0,0,1,1.8472,3.702,2.7649,2.7649,0,0,1-3.7136,1.8511Z"/><path id="Path-29" class="cls-3" d="M416.152,245.7112,266.729,190.1994a2.9249,2.9249,0,0,1,1.851-5.5493l149.4384,55.508a3.0722,3.0722,0,0,1,1.851,3.7021C419.109,245.7112,417.6344,246.4524,416.152,245.7112Z"/><path id="Path-30" class="cls-13" d="M317.7707,225.7262l-56.2184-20.7224a2.9267,2.9267,0,0,1,1.851-5.5531l56.2184,20.7378a3.0722,3.0722,0,0,1,1.8472,3.6982A3.2373,3.2373,0,0,1,317.7707,225.7262Z"/><path id="Path-31" class="cls-14" d="M405.7985,285.6774l-4.4432,12.5847a4.3972,4.3972,0,0,1-5.5493,2.5884L364.0081,289.007,247.873,245.7112a4.4009,4.4009,0,0,1-2.5883-5.5531l4.4355-12.5809a4.3973,4.3973,0,0,1,5.5493-2.5884l115.3939,42.9271,32.1781,11.84A4.9925,4.9925,0,0,1,405.7985,285.6774Z"/><path id="Path-32" class="cls-15" d="M395.0725,314.1726l-4.4356,12.5847a4.3971,4.3971,0,0,1-5.5492,2.5884l-10.726-4.0707-136.846-50.7a4.3972,4.3972,0,0,1-2.5884-5.5493l4.4394-12.5847a4.3934,4.3934,0,0,1,5.5455-2.5884L382.1306,304.929,392.5,309a3.9977,3.9977,0,0,1,2.6293,5.0051Q395.1026,314.0893,395.0725,314.1726Z"/><path id="Path-33" class="cls-16" d="M384.7152,342.6678l-4.4394,12.5847a4.3972,4.3972,0,0,1-5.5493,2.5884L319.99,337.4872l-92.832-34.417a4.4009,4.4009,0,0,1-2.5923-5.5492l4.4395-12.5848a4.3971,4.3971,0,0,1,5.5492-2.5883l95.0518,35.1543,52.52,19.6163A4.4011,4.4011,0,0,1,384.7152,342.6678Z"/><path id="Path-34" class="cls-17" d="M234.5548,282.3479l95.0518,35.1543-9.6008,19.6163-92.8474-34.4169a4.4048,4.4048,0,0,1-2.5923-5.5531l4.4395-12.5809A4.5737,4.5737,0,0,1,234.5548,282.3479Z"/><path id="Path-35" class="cls-18" d="M245.2847,240.5306l4.4355-12.5847a4.3972,4.3972,0,0,1,5.5493-2.5884l115.3939,42.9271-7.3964,20.3537L247.873,245.7112a3.9978,3.9978,0,0,1-2.6507-4.9938Q245.2513,240.6232,245.2847,240.5306Z"/><path id="Path-36" class="cls-19" d="M382.1306,304.9213l-7.7689,20.3537-136.846-50.7a4.3972,4.3972,0,0,1-2.5884-5.5493l4.4394-12.5847a4.3934,4.3934,0,0,1,5.5455-2.5884Z"/><path id="Path-37" class="cls-13" d="M283.0081,235.7187l-7.3964,20.3537L247.873,245.7112a4.4009,4.4009,0,0,1-2.5883-5.5531l4.4355-12.5809a4.3973,4.3973,0,0,1,5.5493-2.5884Z"/><path id="Path-38" class="cls-13" d="M244.9122,253.8527l27.7386,10.3689-7.3965,20.3537-27.7386-10.3689a4.4011,4.4011,0,0,1-2.5884-5.5531l4.4394-12.5809A4.7506,4.7506,0,0,1,244.9122,253.8527Z"/><path id="Path-39" class="cls-13" d="M234.5548,282.3479l27.7386,10.3688L254.897,313.07l-27.7386-10.3688a4.4048,4.4048,0,0,1-2.5923-5.5531l4.4395-12.5809A4.5737,4.5737,0,0,1,234.5548,282.3479Z"/><path id="Path-40" class="cls-2" d="M352.18,318.228H161.7039a5.6913,5.6913,0,0,1-5.5492-5.5493V40.3079a5.6913,5.6913,0,0,1,5.5492-5.5493h190.48a5.6874,5.6874,0,0,1,5.5454,5.5493V312.3062a5.3419,5.3419,0,0,1-5.5492,5.9218Z"/><path id="Path-41" class="cls-3" d="M335.5245,139.5H176.4853a2.9186,2.9186,0,0,1-2.9571-2.88c0-.0271,0-.0541,0-.0812a2.9149,2.9149,0,0,1,2.8719-2.9571q.0426-.0006.0851,0H335.5245a2.9149,2.9149,0,0,1,2.957,2.872c0,.0284,0,.0567,0,.0851A3.1836,3.1836,0,0,1,335.5245,139.5Z"/><path id="Path-42" class="cls-3" d="M335.5245,154.6726H176.4853a2.9186,2.9186,0,0,1-2.9571-2.88c0-.0271,0-.0541,0-.0812a2.9148,2.9148,0,0,1,2.8719-2.957q.0426-.0008.0851,0H335.5245a2.9148,2.9148,0,0,1,2.957,2.8719c0,.0284,0,.0567,0,.0851a2.9185,2.9185,0,0,1-2.8758,2.9608C335.5786,154.6729,335.5516,154.6729,335.5245,154.6726Z"/><path id="Path-43" class="cls-3" d="M335.5245,170.2144H176.4853a2.9187,2.9187,0,0,1-2.9571-2.88q0-.0406,0-.0812a2.9148,2.9148,0,0,1,2.8719-2.9571q.0426-.0006.0851,0H335.5245a2.9148,2.9148,0,0,1,2.957,2.872q.0006.0425,0,.0851a2.9186,2.9186,0,0,1-2.8758,2.9608C335.5786,170.2147,335.5516,170.2147,335.5245,170.2144Z"/><path id="Path-44" class="cls-3" d="M335.152,228.3146H281.5258a2.9187,2.9187,0,0,1-2.9609-2.8758c0-.0284,0-.0567,0-.0851a2.9186,2.9186,0,0,1,2.88-2.9571q.0407-.0006.0813,0H335.152a2.9187,2.9187,0,0,1,2.9608,2.8759q.0006.04,0,.0812C337.7442,226.836,336.6344,228.3146,335.152,228.3146Z"/><path id="Shape-2" class="cls-9" d="M173.16,244.97a37.5776,37.5776,0,0,1,37.3548-37.7465h.384a37.7426,37.7426,0,0,1,37.7273,37.0054v.7411a36.6944,36.6944,0,0,1-9.2474,24.797,38.2883,38.2883,0,0,1-28.48,12.9457A37.8886,37.8886,0,0,1,173.16,244.97Z"/><path id="Path-45" class="cls-20" d="M248.6065,244.2289H236.402a25.4269,25.4269,0,0,0-25.5036-24.7932h-.384V207.2235h.384A37.5008,37.5008,0,0,1,248.6065,244.2289Z"/><path id="Path-46" class="cls-21" d="M248.6065,244.6129a36.69,36.69,0,0,1-9.2436,24.7816l-9.2475-7.769A24.5319,24.5319,0,0,0,236.402,244.97v-.7412h12.2045Z"/><path id="Path-47" class="cls-3" d="M268.58,229.4283a4.0708,4.0708,0,1,0-4.0669-4.0746v.0038A4.0709,4.0709,0,0,0,268.58,229.4283Z"/><path id="Path-48" class="cls-3" d="M335.152,245.3387H281.5258a2.9186,2.9186,0,0,1-2.9609-2.8758q-.0006-.0425,0-.0851a2.9186,2.9186,0,0,1,2.88-2.9571q.0407,0,.0813,0H335.152a2.9187,2.9187,0,0,1,2.9608,2.8758c0,.0271,0,.0541,0,.0812C337.7442,243.8563,336.6344,245.3387,335.152,245.3387Z"/><path id="Path-49" class="cls-22" d="M268.58,246.4524a4.0708,4.0708,0,1,0-4.0669-4.0746v.0039A4.0707,4.0707,0,0,0,268.58,246.4524Z"/><path id="Path-50" class="cls-3" d="M335.152,262.359H281.5258a2.9187,2.9187,0,0,1-2.9609-2.8758q-.0006-.0407,0-.0812a2.9186,2.9186,0,0,1,2.8758-2.9609q.0425-.0006.0851,0H335.152a2.9187,2.9187,0,0,1,2.9609,2.8758q.0006.0424,0,.0851C337.7442,260.88,336.6344,262.359,335.152,262.359Z"/><path id="Path-51" class="cls-23" d="M268.58,263.4727a4.0708,4.0708,0,1,0-4.0669-4.0746v.0039a4.0669,4.0669,0,0,0,4.0631,4.0707Z"/><path id="Path-57" class="cls-24" d="M174.6381,119.15H338.1129V52.9041L312.2214,65.8575l-13.683,9.6239-24.4091-.3841-21.452,11.1139-18.495,2.5922-6.6553,7.4-19.2323,12.2122-18.8637,3.33Z"/><path id="Path-58" class="cls-9" d="M174.6381,119.15H338.1129V68.8184l-25.8915,9.6238-13.683,7.4-24.4091-.384-21.452,8.5255-18.495,2.22-6.6553,5.1806-19.2323,9.6239-18.8637,2.5883Z"/><path id="Path-59" class="cls-25" d="M174.6381,119.15H338.1129V90.6545l-25.8915,5.5492-13.683,4.0708H274.1293l-21.452,4.4394-18.495,1.4823-6.6553,2.9609-19.2323,5.1806-18.8637,1.4785Z"/></g><path id="Path-15-2" data-name="Path-15" class="cls-26" d="M328.8683,337.4619a83.5306,83.5306,0,0,1-1.9584,17.2506,73.2514,73.2514,0,0,1-3.1284,9.7918,74.0789,74.0789,0,0,1-42.6776,42.7377c-1.5624.3888-2.736,1.1665-4.302,1.5553a75.3333,75.3333,0,1,1,52.0664-71.3354Z"/><path id="Path-16-2" data-name="Path-16" class="cls-27" d="M326.8923,356.6567a88.8221,88.8221,0,0,1-3.132,9.403,73.2976,73.2976,0,0,1-41.09,41.1823L240.406,364.8932l-5.8716-5.8681,41.4827-37.2584,13.698-7.8476,36.7848,36.87Z"/><path id="Path-17-2" data-name="Path-17" class="cls-28" d="M245.8852,366.8374a7.8126,7.8126,0,0,1-6.264-2.7219l-17.2188-17.2471a8.7738,8.7738,0,0,1-.1419-12.4072q.07-.0717.1419-.1419a8.7208,8.7208,0,0,1,12.3315-.1929q.098.095.1929.1929l10.9584,10.9584,31.3056-31.3551a8.7843,8.7843,0,0,1,12.4225-.1018q.0513.05.1018.1018a8.7738,8.7738,0,0,1,.1419,12.4072q-.07.0717-.1419.1419l-37.57,37.6473A7.8087,7.8087,0,0,1,245.8852,366.8374Z"/></svg>