<svg xmlns="http://www.w3.org/2000/svg" width="36.429" height="48.309" viewBox="0 0 36.429 48.309">
  <g id="noun_back_3869766" transform="translate(-4.059 50.458) rotate(-90)">
    <path id="Path_1" data-name="Path 1" d="M48.855,21.089H6.778L22.18,6.525a1.141,1.141,0,0,0,0-1.678,1.306,1.306,0,0,0-1.774,0L2.867,21.435a1.14,1.14,0,0,0,0,1.678L20.406,39.7a1.306,1.306,0,0,0,1.774,0,1.141,1.141,0,0,0,0-1.678L6.778,23.459H48.855a1.187,1.187,0,1,0,0-2.37Z" transform="translate(0 0)" fill="#fff" stroke="#fff" stroke-width="0.7"/>
  </g>
</svg>
