<?xml version="1.0" encoding="utf-8"?>
<!-- Generator: Adobe Illustrator 25.2.3, SVG Export Plug-In . SVG Version: 6.00 Build 0)  -->
<svg version="1.1" id="Layer_1" xmlns="http://www.w3.org/2000/svg" xmlns:xlink="http://www.w3.org/1999/xlink" x="0px" y="0px"
	 viewBox="0 0 385 500" style="enable-background:new 0 0 385 500;" xml:space="preserve">
<style type="text/css">
	.st0{fill:#0D0D0D;}
	.st1{fill:url(#SVGID_1_);}
	.st2{fill:#95CEF9;}
	.st3{fill:url(#SVGID_2_);}
	.st4{fill:url(#SVGID_3_);}
	.st5{fill:url(#SVGID_4_);}
	.st6{fill:url(#SVGID_5_);}
	.st7{fill:url(#SVGID_6_);}
	.st8{fill:url(#SVGID_7_);}
	.st9{fill:url(#SVGID_8_);}
	.st10{fill:url(#SVGID_9_);}
	.st11{fill:url(#SVGID_10_);}
	.st12{fill:url(#SVGID_11_);}
	.st13{fill:url(#SVGID_12_);}
	.st14{fill:#41A4FE;}
	.st15{fill:url(#SVGID_13_);}
	.st16{opacity:0.8;}
	.st17{fill:#F64E60;}
	.st18{fill:url(#SVGID_14_);}
	.st19{fill:url(#SVGID_15_);}
	.st20{fill:url(#SVGID_16_);}
	.st21{fill:url(#SVGID_17_);}
	.st22{fill:url(#SVGID_18_);}
	.st23{fill:url(#SVGID_19_);}
	.st24{fill:url(#SVGID_20_);}
</style>
<g>
	<g>
		<g>
			<path class="st0" d="M112.9,327.5c-3.5,9.5-6.9,18.6-10.4,27.6c-1.7,4.7-3.9,9.1-6,13.8c-0.9,2.2-2.2,4.7-3.5,6.9
				s-2.6,4.7-3.9,6.9c-1.7,2.6-5.6,3.5-8.2,1.7c-2.6-1.7-3.5-5.2-1.7-7.8v-0.4c1.7-3.5,3.9-7.8,5.6-12.1c1.7-4.3,3-9.1,4.7-13.4
				c3-9.1,5.6-18.6,8.6-27.6l0,0c1.3-4.3,5.6-6.9,9.9-5.6c4.3,1.3,6.9,5.6,5.6,9.9C112.9,327.5,112.9,327.5,112.9,327.5z"/>
		</g>
	</g>
	<g>
		
			<radialGradient id="SVGID_1_" cx="-31.6393" cy="-172.5612" r="49.6493" gradientTransform="matrix(0.7401 -0.5614 0.5615 0.7402 167.2374 476.9924)" gradientUnits="userSpaceOnUse">
			<stop  offset="0.1534" style="stop-color:#FFFFFF"/>
			<stop  offset="0.4635" style="stop-color:#FDFEFF"/>
			<stop  offset="0.636" style="stop-color:#F5FBFF"/>
			<stop  offset="0.7747" style="stop-color:#E7F5FF"/>
			<stop  offset="0.8947" style="stop-color:#D3ECFF"/>
			<stop  offset="1" style="stop-color:#BBE2FF"/>
		</radialGradient>
		<path class="st1" d="M90,373.6c3.9,6,2.2,28.9-6.9,33.7c-12.5,6.5-27.2,12.9-32.8,15.5c-1.3,0.4-2.6,0-3.5-0.9l-3.9-4.7
			c-0.9-1.3-0.9-2.6,0-3.9c7.3-10.4,16.4-21.1,22.4-28.9C70.6,376.7,84.4,365.4,90,373.6z"/>
		<path class="st2" d="M46.4,420.7l-1.7-2.2c28.9-8.2,42.3-25,45.7-33.7c-0.4,8.2-3,18.1-8.6,21.1c-12.1,6-26.3,12.5-31.9,15.1
			C48.6,422.4,47.3,422,46.4,420.7z"/>
	</g>
	<g>
		<path class="st0" d="M26.1,421.5c2.6-1.7,9.9-3,13.4-3c8.2-0.9,12.9,4.3,8.6,9.9c-1.7,2.6-6,3-11.7,0c-0.4-0.4-4.3-0.4-9.5,0.4
			c-6,0.9-10.8,3.9-12.5,0.9C13.2,427.6,21,425,26.1,421.5z"/>
		<path class="st0" d="M40,433.2c4.3-0.4,8.6,0.4,9.1-1.3c0.4-1.7-3.5-8.6-7.3-6.5c-5.6,3-11.2,3.9-11.2,8.2
			C30.5,436.2,35.6,433.6,40,433.2z"/>
	</g>
	
		<radialGradient id="SVGID_2_" cx="-4772.9121" cy="13772.8906" r="608.9766" gradientTransform="matrix(8.710000e-02 0 0 2.100000e-02 480.2658 143.1848)" gradientUnits="userSpaceOnUse">
		<stop  offset="0" style="stop-color:#ABABAB"/>
		<stop  offset="1" style="stop-color:#FFFFFF"/>
	</radialGradient>
	<path class="st3" d="M117.6,431.9c0,6.9-23.7,12.9-53.1,12.9s-53.1-5.6-53.1-12.9c0-6.9,23.7-12.9,53.1-12.9S117.6,425,117.6,431.9
		z"/>
	
		<radialGradient id="SVGID_3_" cx="-2704.0352" cy="13772.8906" r="608.7504" gradientTransform="matrix(8.710000e-02 0 0 2.100000e-02 480.2658 143.1848)" gradientUnits="userSpaceOnUse">
		<stop  offset="0" style="stop-color:#ABABAB"/>
		<stop  offset="1" style="stop-color:#FFFFFF"/>
	</radialGradient>
	<path class="st4" d="M298,431.9c0,6.9-23.7,12.9-53.1,12.9s-53.1-5.6-53.1-12.9c0-6.9,23.7-12.9,53.1-12.9
		C274.2,419.4,298,425,298,431.9z"/>
	
		<radialGradient id="SVGID_4_" cx="-5004.0332" cy="15892.6504" r="605.947" gradientTransform="matrix(7.880000e-02 0 0 2.000000e-02 478.9798 160.5985)" gradientUnits="userSpaceOnUse">
		<stop  offset="0" style="stop-color:#41A4FE"/>
		<stop  offset="1" style="stop-color:#46DCFF;stop-opacity:0.9"/>
	</radialGradient>
	<ellipse class="st5" cx="84.8" cy="478.1" rx="47.9" ry="12.1"/>
	
		<radialGradient id="SVGID_5_" cx="-3383.2119" cy="15883.8145" r="608.8154" gradientTransform="matrix(7.880000e-02 0 0 2.000000e-02 478.9798 160.5985)" gradientUnits="userSpaceOnUse">
		<stop  offset="0" style="stop-color:#41A4FE"/>
		<stop  offset="1" style="stop-color:#46DCFF"/>
	</radialGradient>
	<ellipse class="st6" cx="212.5" cy="478.1" rx="47.9" ry="12.1"/>
	
		<radialGradient id="SVGID_6_" cx="-1748.5559" cy="27380.7812" r="608.3331" gradientTransform="matrix(6.280000e-02 6.380000e-02 -1.890000e-02 1.870000e-02 820.9503 49.4772)" gradientUnits="userSpaceOnUse">
		<stop  offset="0.2037" style="stop-color:#ABABAB"/>
		<stop  offset="0.3198" style="stop-color:#BCBCBC"/>
		<stop  offset="0.6123" style="stop-color:#E0E0E0"/>
		<stop  offset="0.8495" style="stop-color:#F7F7F7"/>
		<stop  offset="1" style="stop-color:#FFFFFF"/>
	</radialGradient>
	<path class="st7" d="M232,488.4c-3,3-25.5-3-49.6-27.6c-21.1-21.6-33.2-44-26.8-50.1c6.5-6.5,28.5,6,49.6,27.6
		C226.4,459.5,238.4,481.9,232,488.4z"/>
	
		<radialGradient id="SVGID_7_" cx="6027.2578" cy="989.9388" r="608.3762" gradientTransform="matrix(-6.280000e-02 6.380000e-02 1.890000e-02 1.870000e-02 468.8104 49.4772)" gradientUnits="userSpaceOnUse">
		<stop  offset="0.2037" style="stop-color:#ABABAB"/>
		<stop  offset="0.3198" style="stop-color:#BCBCBC"/>
		<stop  offset="0.6123" style="stop-color:#E0E0E0"/>
		<stop  offset="0.8495" style="stop-color:#F7F7F7"/>
		<stop  offset="1" style="stop-color:#FFFFFF"/>
	</radialGradient>
	<path class="st8" d="M71,491c6.5,6.5,28.5-6,49.6-27.6c24.2-24.6,36.2-41,26.8-50.1c-6.5-6.5-28.5,6-49.6,27.6
		C76.6,462.1,64.5,484.5,71,491z"/>
	
		<radialGradient id="SVGID_8_" cx="-2605.3066" cy="13330.7637" r="608.4849" gradientTransform="matrix(0.1104 0 0 2.660000e-02 438.7185 57.4485)" gradientUnits="userSpaceOnUse">
		<stop  offset="0.2037" style="stop-color:#ABABAB"/>
		<stop  offset="0.3198" style="stop-color:#BCBCBC"/>
		<stop  offset="0.6123" style="stop-color:#E0E0E0"/>
		<stop  offset="0.8495" style="stop-color:#F7F7F7"/>
		<stop  offset="1" style="stop-color:#FFFFFF"/>
	</radialGradient>
	<path class="st9" d="M218.6,411.6c0,9.1-27.6,16.4-64.7,16.4s-69.5-7.3-69.5-16.4s30.2-16.4,67.3-16.4S218.6,402.6,218.6,411.6z"/>
	<g>
		<g>
			<path class="st0" d="M212.1,333.1c1.3,8.6,2.6,17.3,4.3,25.9c0.9,4.3,1.7,8.6,2.6,12.9c0.9,4.3,2.2,8.6,3,12.1v0.4
				c1.3,3-0.4,6.5-3.9,7.8c-3,0.9-6-0.4-7.3-3.5c-2.2-4.7-3.5-9.1-4.7-13.4s-2.6-8.6-3.9-12.9c-2.2-8.6-4.3-17.3-6.5-26.3
				c-0.9-4.3,1.7-8.6,6-9.5c4.3-0.9,8.6,1.7,9.5,6C212.1,332.7,212.1,332.7,212.1,333.1L212.1,333.1z"/>
		</g>
	</g>
	<g>
		
			<radialGradient id="SVGID_9_" cx="5105.5464" cy="301.0252" r="171.4641" gradientTransform="matrix(-0.158 6.260000e-02 6.260000e-02 0.158 871.4503 -56.9905)" gradientUnits="userSpaceOnUse">
			<stop  offset="0.1534" style="stop-color:#FFFFFF"/>
			<stop  offset="0.4635" style="stop-color:#FDFEFF"/>
			<stop  offset="0.636" style="stop-color:#F5FBFF"/>
			<stop  offset="0.7747" style="stop-color:#E7F5FF"/>
			<stop  offset="0.8947" style="stop-color:#D3ECFF"/>
			<stop  offset="1" style="stop-color:#BBE2FF"/>
		</radialGradient>
		<path class="st10" d="M86.6,340.4c5.2,3,12.5-2.6,19.8-12.9c6.9-10.4,10.8-20.3,6-24.6c-5.2-4.3-16.4,0.9-23.7,11.2
			C81.4,324.5,80.9,337,86.6,340.4z"/>
		<path class="st2" d="M86.1,339.6c-0.9-0.4-1.7-1.3-2.2-2.2c10.4,7.8,34.1-31.5,22.4-35.4l0,0c1.7,0,3,0.4,4.3,1.3
			c4.7,3.9,1.3,13.8-5.6,23.7C98.2,337,91.3,342.1,86.1,339.6z"/>
	</g>
	<g>
		
			<radialGradient id="SVGID_10_" cx="-409.5772" cy="3098.6174" r="171.3623" gradientTransform="matrix(0.1437 9.090000e-02 -9.090000e-02 0.1437 567.2656 -84.4616)" gradientUnits="userSpaceOnUse">
			<stop  offset="0.1534" style="stop-color:#FFFFFF"/>
			<stop  offset="0.4635" style="stop-color:#FDFEFF"/>
			<stop  offset="0.636" style="stop-color:#F5FBFF"/>
			<stop  offset="0.7747" style="stop-color:#E7F5FF"/>
			<stop  offset="0.8947" style="stop-color:#D3ECFF"/>
			<stop  offset="1" style="stop-color:#BBE2FF"/>
		</radialGradient>
		<path class="st11" d="M218.6,352.9c-5.6,2.2-12.1-4.7-17.3-16.4c-5.2-11.7-6.9-22-1.3-25.5c5.6-3.5,16,3.9,21.1,15.5
			C226.4,338.3,224.6,350.8,218.6,352.9z"/>
		<path class="st2" d="M219,352.1c0.9-0.4,1.7-0.9,2.6-1.7c-11.7,6-27.6-37.1-15.5-38.8l0,0c-1.7-0.4-3,0-4.3,0.4
			c-5.2,3-3.5,13.4,1.3,24.2C207.4,347.3,213.8,353.8,219,352.1z"/>
	</g>
	<polygon class="st0" points="166.8,395.7 135.7,395.7 132.7,372.4 169.8,372.4 	"/>
	
		<radialGradient id="SVGID_11_" cx="150.0715" cy="239.3962" r="23.2275" gradientTransform="matrix(1 0 0 1 0 149.0942)" gradientUnits="userSpaceOnUse">
		<stop  offset="0.1534" style="stop-color:#FFFFFF"/>
		<stop  offset="0.4635" style="stop-color:#FDFEFF"/>
		<stop  offset="0.636" style="stop-color:#F5FBFF"/>
		<stop  offset="0.7747" style="stop-color:#E7F5FF"/>
		<stop  offset="0.8947" style="stop-color:#D3ECFF"/>
		<stop  offset="1" style="stop-color:#BBE2FF"/>
	</radialGradient>
	<path class="st12" d="M151.3,410.8L151.3,410.8c-13.4,0-24.6-10.4-24.6-22.9l0,0c0-2.6,2.2-4.3,4.7-4.3h19.4h20.3
		c2.6,0,4.7,1.7,4.7,4.3l0,0C175.4,400.4,164.7,410.8,151.3,410.8z"/>
	<path class="st2" d="M150.4,393.1c-6,0-10.8,4.7-10.8,10.8v4.3c0.4,0.4,0.9,0.4,1.7,0.9v-4.7c0-5.2,4.3-9.1,9.1-9.1
		c5.2,0,9.1,4.3,9.1,9.1v5.2c0.4,0,1.3-0.4,1.7-0.4v-4.7C161.2,397.8,156.5,393.1,150.4,393.1z"/>
	<path class="st2" d="M170.3,383.6h-0.9c-1.3,6.9-7.3,28.9-28.5,24.6c3,1.3,6.5,2.2,9.9,2.2c12.9,0,23.7-9.9,23.7-22.4
		C174.6,385.3,172.4,383.6,170.3,383.6z"/>
	
		<radialGradient id="SVGID_12_" cx="139.7924" cy="227.3033" r="55.4502" gradientTransform="matrix(0.9956 9.320000e-02 -7.590000e-02 0.8105 31.7607 137.8937)" gradientUnits="userSpaceOnUse">
		<stop  offset="0.1534" style="stop-color:#FFFFFF"/>
		<stop  offset="0.4635" style="stop-color:#FDFEFF"/>
		<stop  offset="0.636" style="stop-color:#F5FBFF"/>
		<stop  offset="0.7747" style="stop-color:#E7F5FF"/>
		<stop  offset="0.8947" style="stop-color:#D3ECFF"/>
		<stop  offset="1" style="stop-color:#BBE2FF"/>
	</radialGradient>
	<path class="st13" d="M204.8,334.4c-2.2,21.6-27.6,48.3-55.7,45.3c-28-2.6-47.9-33.7-46.2-54.8c2.2-21.6,25.5-25.5,53.5-22.9
		C184.5,305,206.9,312.8,204.8,334.4z"/>
	<path class="st2" d="M104.7,333.9c3,17.7,21.1,40.6,44.4,42.7c23.7,2.2,45.7-16.8,51.8-34.1c-17.7,16.4-34.5,18.1-50.1,16.4
		C132.3,356.8,116.3,348.6,104.7,333.9z"/>
	<path class="st2" d="M156.9,300.3c-6.9-0.4-13.4,0.4-18.6,3.5c1.3,6.9,6.9,15.5,17.3,16.4c11.2,0.9,17.3-6.5,19.8-12.5
		C170.7,303.3,164.2,300.7,156.9,300.3z"/>
	<path class="st0" d="M140.9,302.4c0,0.4,0,0.4,0,0.9c-0.4,5.6,6,14.2,15.1,15.1c9.1,0.9,17.3-6.5,17.7-12.1l0,0
		c-4.7-3.5-10.4-5.2-16.8-6C151.3,299.4,145.7,300.3,140.9,302.4z"/>
	<path class="st2" d="M174.6,305.9c-2.2-0.9-4.7-1.3-6.9-1.7v0.4c4.7,0.9,9.1,6,11.7,14.2c5.2,16.4,2.6,46.6-18.6,60.8
		c1.7-0.4,3.5-0.9,5.2-1.3c18.6-16,20.7-44,15.5-60C179.8,312.8,177.6,308.5,174.6,305.9z"/>
	<g>
		<g>
			
				<ellipse transform="matrix(0.4961 -0.8683 0.8683 0.4961 -38.7438 400.579)" class="st0" cx="325.7" cy="233.7" rx="73.8" ry="35.4"/>
			<path class="st14" d="M312.2,296.8c2.6-1.3,4.7-2.6,7.3-4.3l53.5-95.4c0-3,0-5.6-0.4-8.2L312.2,296.8z"/>
			
				<ellipse transform="matrix(0.2316 -0.9728 0.9728 0.2316 -74.6838 187.457)" class="st0" cx="81.3" cy="141" rx="73.8" ry="35.8"/>
			<path class="st14" d="M71,80.7L44.7,187.2c0.9,3,1.7,5.6,2.6,8.2L77.1,75.1C74.9,76.8,73.2,78.5,71,80.7z"/>
			
				<radialGradient id="SVGID_13_" cx="-652.3065" cy="1096.0776" r="809.614" gradientTransform="matrix(0.2352 8.980000e-02 -8.810000e-02 0.2308 471.1735 -46.3033)" gradientUnits="userSpaceOnUse">
				<stop  offset="0.1534" style="stop-color:#FFFFFF"/>
				<stop  offset="0.4635" style="stop-color:#FDFEFF"/>
				<stop  offset="0.636" style="stop-color:#F5FBFF"/>
				<stop  offset="0.7747" style="stop-color:#E7F5FF"/>
				<stop  offset="0.8947" style="stop-color:#D3ECFF"/>
				<stop  offset="1" style="stop-color:#BBE2FF"/>
			</radialGradient>
			<path class="st15" d="M364,179c22.9-59.5-20.3-130.7-95.8-159.7S112.9,15.1,90.4,74.6c-0.4,1.7-1.3,3.5-1.7,5.2l0,0L88.3,82
				c-0.9,2.6-1.3,5.2-1.7,7.8l-14.2,59.1l-12.9,52.6c-4.3,16.8-0.4,35,10.4,49.2c19,25,49.6,47.5,87.2,61.7
				c35.8,13.8,72.1,17.7,101.8,12.9c17.7-3,32.8-13.8,41.4-28.9l56.1-100.5c2.2-3.5,4.3-7.3,6-11.2l0,0l0,0
				C362.7,182.5,363.1,180.8,364,179z"/>
			<path class="st2" d="M367.9,142.4c-5.2,25.5-48.8,90.2-65.2,123.4c-18.1,36.2-45.7,70.3-142.4,33.7c-96.2-36.7-101.8-88-101.8-88
				c-0.4,12.9,3.9,25.9,12.1,36.7c18.6,24.6,48.8,47,86.3,61.3c35.8,13.8,71.2,17.3,101,12.5c17.7-3,32.4-13.4,41-28.5l55.2-99.2
				c2.2-3.5,4.3-7.3,6-11.2l0,0l0,0c0.9-1.7,1.3-3,2.2-4.7C366.2,166.5,368.3,154.4,367.9,142.4z"/>
			<g class="st16">
				<path class="st2" d="M244,82.4c-20.3-7.8-31.1-30.6-23.3-50.5l8.6-22.4l2.2,0.4l-8.6,22.9c-7.3,19,2.6,40.6,22,47.9
					c19.4,7.3,41-2.2,48.3-21.1l8.6-22.9l1.7,1.3L295,60.4C287.2,80.2,264.3,90.6,244,82.4z"/>
			</g>
			<g class="st16">
				<path class="st2" d="M248.8,326.2c22.4-47.9,76.4-161.8,88.5-181.2c13.8-21.6,28.9-22,29.8-22l0.4,2.2l0,0
					c0,0-15.1,0.9-28.5,21.1c-12.1,19-65.6,131.6-88,179.9L248.8,326.2L248.8,326.2z"/>
			</g>
			<g class="st16">
				<path class="st2" d="M75.3,257.6C90.4,207.1,125.8,88.4,129.3,66c3.9-24.2-5.6-33.2-6-33.7l0,0L125,31c1.3,1.3,9.9,11.2,6.5,35
					C128,88.4,92.2,208.8,77.1,258.9L75.3,257.6z"/>
			</g>
			<g>
				<path class="st0" d="M142.6,129.9c-22.4-8.6-47,4.3-52.6,27.6l0,0L76.6,211c-3,11.7-0.4,23.7,6.9,32.8
					c17.3,23.3,44.9,42.7,78.1,55.2c31.5,12.1,63.9,16,91.5,11.2c11.7-2.2,21.6-9.1,27.6-19.8l27.6-49.6
					c11.7-21.1,2.2-47.5-20.7-56.1L142.6,129.9z"/>
				<path class="st2" d="M160.8,301.2c-33.2-12.5-61.3-32.8-79-56.1c-7.3-9.9-9.9-22.4-6.9-34.5L88.3,157
					c3-11.7,10.4-21.6,21.1-26.8c10.8-5.6,22.9-6.5,34.1-2.2l145,55.2c11.2,4.3,20.3,13.4,24.2,24.6c4.3,11.2,3,23.7-2.6,34.5
					l-27.6,49.6c-6,11.2-16.8,18.6-28.9,20.7C225.1,317.1,192.3,313.2,160.8,301.2z M141.8,131.6c-9.9-3.9-21.1-3-31.1,1.7
					c-9.5,5.2-16.4,13.8-19,24.2L78.4,211c-2.6,10.8-0.4,22.4,6.5,31.1c17.3,22.9,44.4,42.3,77.2,54.8c31.1,11.7,63,16,90.6,11.2
					c11.2-1.7,20.7-8.6,25.9-18.6l27.6-49.6c5.2-9.5,6-20.7,2.6-31.1c-3.9-10.4-11.7-18.6-22-22.4L141.8,131.6z"/>
			</g>
			<g>
				
					<rect x="108.5" y="210" transform="matrix(0.3567 -0.9342 0.9342 0.3567 -127.3096 241.5878)" class="st17" width="6.5" height="6.5"/>
				
					<rect x="116.6" y="206.2" transform="matrix(0.3567 -0.9342 0.9342 0.3567 -118.5502 246.7056)" class="st17" width="6.5" height="6.5"/>
				
					<rect x="122.6" y="208.3" transform="matrix(0.3567 -0.9342 0.9342 0.3567 -116.6704 253.6485)" class="st17" width="6.5" height="6.5"/>
				
					<rect x="105.2" y="215.7" transform="matrix(0.3567 -0.9342 0.9342 0.3567 -134.7905 242.1329)" class="st17" width="6.5" height="6.5"/>
				
					<rect x="111.7" y="218.4" transform="matrix(0.3567 -0.9342 0.9342 0.3567 -133.1497 249.9608)" class="st17" width="6.5" height="6.5"/>
				
					<rect x="117.6" y="220.6" transform="matrix(0.3567 -0.9342 0.9342 0.3567 -131.3582 256.925)" class="st17" width="6.5" height="6.5"/>
				
					<rect x="123.9" y="222.6" transform="matrix(0.3567 -0.9342 0.9342 0.3567 -129.2131 264.0433)" class="st17" width="6.5" height="6.5"/>
				
					<rect x="114.7" y="192.1" transform="matrix(0.3567 -0.9342 0.9342 0.3567 -106.6634 235.8678)" class="st17" width="6.5" height="6.5"/>
				
					<rect x="120.6" y="194.4" transform="matrix(0.3567 -0.9342 0.9342 0.3567 -104.9519 242.8527)" class="st17" width="6.5" height="6.5"/>
				
					<rect x="112.6" y="198.1" transform="matrix(0.3567 -0.9342 0.9342 0.3567 -113.6312 237.7147)" class="st17" width="6.5" height="6.5"/>
				
					<rect x="110.7" y="204" transform="matrix(0.3567 -0.9342 0.9342 0.3567 -120.3419 239.7407)" class="st17" width="6.5" height="6.5"/>
				
					<rect x="126.2" y="196.6" transform="matrix(0.3567 -0.9342 0.9342 0.3567 -103.4562 249.4838)" class="st17" width="6.5" height="6.5"/>
				
					<rect x="132.8" y="199.1" transform="matrix(0.3567 -0.9342 0.9342 0.3567 -101.5085 257.239)" class="st17" width="6.5" height="6.5"/>
				<g>
					
						<rect x="137.9" y="221.4" transform="matrix(0.3567 -0.9342 0.9342 0.3567 -119.0824 276.4105)" class="st17" width="6.5" height="6.5"/>
					
						<rect x="145.7" y="217.4" transform="matrix(0.3567 -0.9342 0.9342 0.3567 -110.3298 281.1254)" class="st17" width="6.5" height="6.5"/>
					
						<rect x="152.2" y="220.1" transform="matrix(0.3567 -0.9342 0.9342 0.3567 -108.6718 288.9489)" class="st17" width="6.5" height="6.5"/>
					
						<rect x="160.9" y="216" transform="matrix(0.3567 -0.9342 0.9342 0.3567 -99.2819 294.3876)" class="st17" width="6.5" height="6.5"/>
					
						<rect x="136.1" y="227.3" transform="matrix(0.3567 -0.9342 0.9342 0.3567 -125.7539 278.4253)" class="st17" width="6.5" height="6.5"/>
					
						<rect x="163.2" y="210" transform="matrix(0.3567 -0.9342 0.9342 0.3567 -92.1927 292.6373)" class="st17" width="6.5" height="6.5"/>
					
						<rect x="158.2" y="222.3" transform="matrix(0.3567 -0.9342 0.9342 0.3567 -106.882 295.9144)" class="st17" width="6.5" height="6.5"/>
					
						<rect x="144.7" y="203.3" transform="matrix(0.3567 -0.9342 0.9342 0.3567 -97.7973 271.1371)" class="st17" width="6.5" height="6.5"/>
					
						<rect x="151.2" y="205.7" transform="matrix(0.3567 -0.9342 0.9342 0.3567 -95.8645 278.7285)" class="st17" width="6.5" height="6.5"/>
					
						<rect x="142.9" y="209.2" transform="matrix(0.3567 -0.9342 0.9342 0.3567 -104.4685 273.152)" class="st17" width="6.5" height="6.5"/>
					
						<rect x="140" y="215.6" transform="matrix(0.3567 -0.9342 0.9342 0.3567 -112.3177 274.6145)" class="st17" width="6.5" height="6.5"/>
					
						<rect x="157.2" y="207.9" transform="matrix(0.3567 -0.9342 0.9342 0.3567 -94.0728 285.6941)" class="st17" width="6.5" height="6.5"/>
				</g>
				<g>
					
						<rect x="168.5" y="232.9" transform="matrix(0.3567 -0.9342 0.9342 0.3567 -110.1655 312.3294)" class="st17" width="6.5" height="6.5"/>
					
						<rect x="176.6" y="229" transform="matrix(0.3567 -0.9342 0.9342 0.3567 -101.2772 317.4137)" class="st17" width="6.5" height="6.5"/>
					
						<rect x="182.2" y="231.5" transform="matrix(0.3567 -0.9342 0.9342 0.3567 -99.9944 324.2661)" class="st17" width="6.5" height="6.5"/>
					
						<rect x="190.9" y="227.7" transform="matrix(0.3567 -0.9342 0.9342 0.3567 -90.881 329.9566)" class="st17" width="6.5" height="6.5"/>
					
						<rect x="165" y="238.9" transform="matrix(0.3567 -0.9342 0.9342 0.3567 -118.0085 312.9608)" class="st17" width="6.5" height="6.5"/>
					
						<rect x="179.7" y="237.5" transform="matrix(0.3567 -0.9342 0.9342 0.3567 -107.2236 325.8136)" class="st17" width="6.5" height="6.5"/>
					
						<rect x="183.6" y="245.8" transform="matrix(0.3567 -0.9342 0.9342 0.3567 -112.412 334.7296)" class="st17" width="6.5" height="6.5"/>
					
						<rect x="174.6" y="215.1" transform="matrix(0.3567 -0.9342 0.9342 0.3567 -89.5747 306.6237)" class="st17" width="6.5" height="6.5"/>
					
						<rect x="180.6" y="217.3" transform="matrix(0.3567 -0.9342 0.9342 0.3567 -87.8415 313.6039)" class="st17" width="6.5" height="6.5"/>
					
						<rect x="172.5" y="221.1" transform="matrix(0.3567 -0.9342 0.9342 0.3567 -96.485 308.4568)" class="st17" width="6.5" height="6.5"/>
					
						<rect x="170.4" y="227" transform="matrix(0.3567 -0.9342 0.9342 0.3567 -103.4381 310.3009)" class="st17" width="6.5" height="6.5"/>
					
						<rect x="186.1" y="219.6" transform="matrix(0.3567 -0.9342 0.9342 0.3567 -86.3131 320.2255)" class="st17" width="6.5" height="6.5"/>
				</g>
				
					<rect x="197.9" y="244.3" transform="matrix(0.3567 -0.9342 0.9342 0.3567 -101.899 347.1422)" class="st17" width="6.5" height="6.5"/>
				
					<rect x="218.2" y="245.2" transform="matrix(0.3567 -0.9342 0.9342 0.3567 -89.6202 366.6272)" class="st17" width="6.5" height="6.5"/>
				
					<rect x="201.9" y="252.7" transform="matrix(0.3567 -0.9342 0.9342 0.3567 -107.1228 356.2052)" class="st17" width="6.5" height="6.5"/>
				
					<rect x="207.4" y="254.8" transform="matrix(0.3567 -0.9342 0.9342 0.3567 -105.5614 362.7238)" class="st17" width="6.5" height="6.5"/>
				
					<rect x="210.9" y="228.7" transform="matrix(0.3567 -0.9342 0.9342 0.3567 -78.9593 349.2898)" class="st17" width="6.5" height="6.5"/>
				
					<rect x="202.5" y="232.3" transform="matrix(0.3567 -0.9342 0.9342 0.3567 -87.6792 343.7418)" class="st17" width="6.5" height="6.5"/>
				
					<rect x="200" y="238.3" transform="matrix(0.3567 -0.9342 0.9342 0.3567 -94.8529 345.2751)" class="st17" width="6.5" height="6.5"/>
				
					<rect x="217.2" y="230.7" transform="matrix(0.3567 -0.9342 0.9342 0.3567 -76.816 356.4075)" class="st17" width="6.5" height="6.5"/>
				
					<rect x="220.3" y="239.3" transform="matrix(0.3567 -0.9342 0.9342 0.3567 -82.7485 364.8033)" class="st17" width="6.5" height="6.5"/>
				
					<rect x="216.3" y="251" transform="matrix(0.3567 -0.9342 0.9342 0.3567 -96.2527 368.6319)" class="st17" width="6.5" height="6.5"/>
				
					<rect x="150.4" y="226" transform="matrix(0.3567 -0.9342 0.9342 0.3567 -115.3743 290.972)" class="st17" width="6.5" height="6.5"/>
				
					<rect x="153.5" y="234.5" transform="matrix(0.3567 -0.9342 0.9342 0.3567 -121.308 299.3671)" class="st17" width="6.5" height="6.5"/>
				
					<rect x="192.8" y="221.9" transform="matrix(0.3567 -0.9342 0.9342 0.3567 -84.2104 327.9424)" class="st17" width="6.5" height="6.5"/>
				
					<rect x="187.4" y="233.8" transform="matrix(0.3567 -0.9342 0.9342 0.3567 -98.7769 330.6001)" class="st17" width="6.5" height="6.5"/>
				<g>
					
						<rect x="227.1" y="255.8" transform="matrix(0.3567 -0.9342 0.9342 0.3567 -93.7939 381.829)" class="st17" width="6.5" height="6.5"/>
					
						<rect x="236.3" y="252.1" transform="matrix(0.3567 -0.9342 0.9342 0.3567 -84.4145 387.9848)" class="st17" width="6.5" height="6.5"/>
					
						<rect x="242.4" y="254.4" transform="matrix(0.3567 -0.9342 0.9342 0.3567 -82.6614 395.1987)" class="st17" width="6.5" height="6.5"/>
					
						<rect x="250.6" y="250.8" transform="matrix(0.3567 -0.9342 0.9342 0.3567 -74.0203 400.5274)" class="st17" width="6.5" height="6.5"/>
					
						<rect x="225.5" y="261.7" transform="matrix(0.3567 -0.9342 0.9342 0.3567 -100.386 384.0901)" class="st17" width="6.5" height="6.5"/>
					
						<rect x="239.7" y="260.3" transform="matrix(0.3567 -0.9342 0.9342 0.3567 -89.87 396.5023)" class="st17" width="6.5" height="6.5"/>
					
						<rect x="244.1" y="268.7" transform="matrix(0.3567 -0.9342 0.9342 0.3567 -94.9731 405.9586)" class="st17" width="6.5" height="6.5"/>
					
						<rect x="234.6" y="238" transform="matrix(0.3567 -0.9342 0.9342 0.3567 -72.3566 377.3458)" class="st17" width="6.5" height="6.5"/>
					
						<rect x="240.6" y="240" transform="matrix(0.3567 -0.9342 0.9342 0.3567 -70.3909 384.2675)" class="st17" width="6.5" height="6.5"/>
					
						<rect x="232.5" y="243.9" transform="matrix(0.3567 -0.9342 0.9342 0.3567 -79.227 379.1694)" class="st17" width="6.5" height="6.5"/>
					
						<rect x="230.6" y="249.7" transform="matrix(0.3567 -0.9342 0.9342 0.3567 -85.858 381.1741)" class="st17" width="6.5" height="6.5"/>
					
						<rect x="246.8" y="242.7" transform="matrix(0.3567 -0.9342 0.9342 0.3567 -68.9106 391.7327)" class="st17" width="6.5" height="6.5"/>
				</g>
				
					<rect x="252.7" y="244.8" transform="matrix(0.3567 -0.9342 0.9342 0.3567 -67.0266 398.6737)" class="st17" width="6.5" height="6.5"/>
				
					<rect x="247.9" y="256.5" transform="matrix(0.3567 -0.9342 0.9342 0.3567 -81.0846 401.7129)" class="st17" width="6.5" height="6.5"/>
				
					<rect x="222.8" y="233.2" transform="matrix(0.3567 -0.9342 0.9342 0.3567 -75.5198 363.2566)" class="st17" width="6.5" height="6.5"/>
				
					<rect x="205" y="226.6" transform="matrix(0.3567 -0.9342 0.9342 0.3567 -80.7518 342.3235)" class="st17" width="6.5" height="6.5"/>
				
					<rect x="213.5" y="257.3" transform="matrix(0.3567 -0.9342 0.9342 0.3567 -103.9671 370.06)" class="st17" width="6.5" height="6.5"/>
				
					<rect x="195.7" y="250.3" transform="matrix(0.3567 -0.9342 0.9342 0.3567 -108.8911 348.9961)" class="st17" width="6.5" height="6.5"/>
			</g>
		</g>
	</g>
	<path class="st2" d="M189.7,343.9c-0.4,4.3-4.3,7.8-8.6,7.3s-7.8-4.3-7.3-8.6c0.4-4.3,4.3-7.8,8.6-7.3
		C187.1,335.7,190.1,339.6,189.7,343.9z"/>
	<path class="st14" d="M181,349c-3.5-0.4-5.6-3-5.2-6.5c0.4-3.5,3-5.6,6.5-5.2s5.6,3,5.2,6.5C187.5,347.3,184.5,349.5,181,349z"/>
	<g>
		<g>
			<path class="st0" d="M137,409.9c-2.6,2.2-5.2,3.9-7.8,6c-1.3,0.9-3,1.7-4.3,2.6c-0.9,0.4-1.7,0.9-2.6,1.3c-0.4,0-0.9,0.4-1.3,0.4
				l-0.9,0.4l-1.3,0.4c-3,0.9-6-0.9-6.9-3.5c-0.9-3,0.9-6,3.5-6.9c-0.4,0,0,0,0,0h0.4l0.9-0.4c0.4-0.4,0.9-0.9,1.3-1.3
				c0.9-0.9,1.7-1.7,3-2.6c1.7-1.7,3.9-3.9,5.6-6c2.6-3,6.9-3.5,10.4-1.3c3,2.6,3.5,6.9,1.3,10.4C137.9,409,137.5,409.5,137,409.9
				L137,409.9z"/>
		</g>
	</g>
	<g>
		
			<radialGradient id="SVGID_14_" cx="45.3457" cy="225.826" r="46.8394" gradientTransform="matrix(0.9223 -5.920000e-02 5.920000e-02 0.9223 27.7942 209.037)" gradientUnits="userSpaceOnUse">
			<stop  offset="0.1534" style="stop-color:#FFFFFF"/>
			<stop  offset="0.4635" style="stop-color:#FDFEFF"/>
			<stop  offset="0.636" style="stop-color:#F5FBFF"/>
			<stop  offset="0.7747" style="stop-color:#E7F5FF"/>
			<stop  offset="0.8947" style="stop-color:#D3ECFF"/>
			<stop  offset="1" style="stop-color:#BBE2FF"/>
		</radialGradient>
		<path class="st18" d="M121.9,410.3c7.3,7.8,1.3,32.4-7.3,41c-8.6,8.2-16.4,4.3-23.7-3c-7.3-7.8-10.8-23.7-2.2-31.9
			C96.9,407.7,114.6,402.6,121.9,410.3z"/>
		<path class="st2" d="M112,433.2c-2.6-13.4-10.8-21.6-13.4-23.7c-2.6,1.3-5.6,2.6-7.8,4.3C95.2,419.8,115,447.4,112,433.2z"/>
		<path class="st2" d="M123.2,412c-0.4-0.9-0.9-1.3-1.3-1.7c-3-3-6.9-3.9-11.7-3.5c-2.6,1.7-3.9,4.3-3,6c1.3,3,6,3.9,10.8,2.2
			C120.2,414.2,121.9,413.3,123.2,412z"/>
		<path class="st2" d="M102.5,439.7v13.8c3.9,0.9,7.8-0.4,11.7-4.3c6.5-6.5,11.7-23.7,9.5-33.7C123.2,428.9,110.3,438.4,102.5,439.7
			z"/>
		
			<radialGradient id="SVGID_15_" cx="5.1591" cy="255.8363" r="53.981" gradientTransform="matrix(0.8892 -3.340000e-02 8.420000e-02 0.9418 40.6169 186.9407)" gradientUnits="userSpaceOnUse">
			<stop  offset="0.1534" style="stop-color:#FFFFFF"/>
			<stop  offset="0.4635" style="stop-color:#FDFEFF"/>
			<stop  offset="0.636" style="stop-color:#F5FBFF"/>
			<stop  offset="0.7747" style="stop-color:#E7F5FF"/>
			<stop  offset="0.8947" style="stop-color:#D3ECFF"/>
			<stop  offset="1" style="stop-color:#BBE2FF"/>
		</radialGradient>
		<path class="st19" d="M110.3,428.4c7.8,14.7,6.5,31.5-14.7,47c-14.2,10.8-35-6.5-44-26.3c-9.1-20.3-5.2-38.8,11.2-46.2
			C79.2,395.7,99.9,409,110.3,428.4z"/>
		<path class="st2" d="M96,431c8.6,19.4,7.8,39.7-6,45.7c-13.8,6-29.8-7.8-38.4-27.2s-6-37.1,7.3-43.1C72.7,400.4,87.4,411.6,96,431
			z"/>
		<path class="st0" d="M119.3,445.7c-2.6,5.2-7.8,8.2-11.2,6.5c-3.5-1.7-3.9-7.8-1.3-12.9c2.6-5.2,7.8-8.2,11.2-6.5
			C121.5,434.5,121.9,440.5,119.3,445.7z"/>
		
			<radialGradient id="SVGID_16_" cx="71.2863" cy="244.4429" r="19.2755" gradientTransform="matrix(0.9242 0 0 0.9242 45.957 172.2193)" gradientUnits="userSpaceOnUse">
			<stop  offset="0.1534" style="stop-color:#FFFFFF"/>
			<stop  offset="0.4635" style="stop-color:#FDFEFF"/>
			<stop  offset="0.636" style="stop-color:#F5FBFF"/>
			<stop  offset="0.7747" style="stop-color:#E7F5FF"/>
			<stop  offset="0.8947" style="stop-color:#D3ECFF"/>
			<stop  offset="1" style="stop-color:#BBE2FF"/>
		</radialGradient>
		<path class="st20" d="M121.9,406.4c1.3,3-1.3,6.5-5.2,8.2s-8.2,0.9-9.5-2.2c-1.3-3,1.3-6.5,5.2-8.2S120.6,403.8,121.9,406.4z"/>
	</g>
	<g>
		
			<radialGradient id="SVGID_17_" cx="841.2396" cy="489.4682" r="49.6493" gradientTransform="matrix(-0.7401 -0.5614 -0.5615 0.7402 1152.6847 476.9924)" gradientUnits="userSpaceOnUse">
			<stop  offset="0.1534" style="stop-color:#FFFFFF"/>
			<stop  offset="0.4635" style="stop-color:#FDFEFF"/>
			<stop  offset="0.636" style="stop-color:#F5FBFF"/>
			<stop  offset="0.7747" style="stop-color:#E7F5FF"/>
			<stop  offset="0.8947" style="stop-color:#D3ECFF"/>
			<stop  offset="1" style="stop-color:#BBE2FF"/>
		</radialGradient>
		<path class="st21" d="M212.5,373.6c-3.9,6-2.2,28.9,6.9,33.7c12.5,6.5,27.2,12.9,32.8,15.5c1.3,0.4,2.6,0,3.5-0.9l3.9-4.7
			c0.9-1.3,0.9-2.6,0-3.9c-7.3-10.4-16.4-21.1-22.4-28.9C232,376.7,218.2,365.4,212.5,373.6z"/>
		<path class="st2" d="M256.1,420.7l1.7-2.2c-28.9-8.2-42.3-25-45.7-33.7c0.4,8.2,3,18.1,8.6,21.1c12.1,6,26.3,12.5,31.9,15.1
			C254,422.4,255.3,422,256.1,420.7z"/>
	</g>
	<g>
		<path class="st0" d="M276.4,421.5c-2.6-1.7-9.9-3-13.4-3c-8.2-0.9-12.9,4.3-8.6,9.9c1.7,2.6,6,3,11.7,0c0.4-0.4,4.3-0.4,9.5,0.4
			c6,0.9,10.8,3.9,12.5,0.9C289.4,427.6,281.6,425,276.4,421.5z"/>
		<path class="st0" d="M262.6,433.2c-4.3-0.4-8.6,0.4-9.1-1.3c-0.4-1.7,3.5-8.6,7.3-6.5c5.6,3,11.2,3.9,11.2,8.2
			C272.1,436.2,266.5,433.6,262.6,433.2z"/>
	</g>
	<g>
		<g>
			<path class="st0" d="M175,399.5c1.7,2.2,3.5,4.3,5.6,6c0.9,0.9,1.7,1.7,3,2.6c0.4,0.4,0.9,0.9,1.3,1.3l0.9,0.4h0.4c0,0,0.4,0,0,0
				c3,0.9,4.3,3.9,3.5,6.9c-0.9,3-3.9,4.3-6.9,3.5l-1.3-0.4l-0.9-0.4c-0.4,0-0.9-0.4-1.3-0.4c-0.9-0.4-1.7-0.9-2.6-1.3
				c-1.7-0.9-3-1.7-4.3-2.6c-2.6-1.7-5.2-3.9-7.8-6l0,0c-3-2.6-3.5-7.3-0.9-10.4c2.6-3,7.3-3.5,10.4-0.9
				C174.6,399.1,174.6,399.5,175,399.5z"/>
		</g>
	</g>
	<g>
		
			<radialGradient id="SVGID_18_" cx="1028.7489" cy="288.9473" r="46.8394" gradientTransform="matrix(-0.9223 -5.920000e-02 -5.920000e-02 0.9223 1185.1207 209.037)" gradientUnits="userSpaceOnUse">
			<stop  offset="0.1534" style="stop-color:#FFFFFF"/>
			<stop  offset="0.4635" style="stop-color:#FDFEFF"/>
			<stop  offset="0.636" style="stop-color:#F5FBFF"/>
			<stop  offset="0.7747" style="stop-color:#E7F5FF"/>
			<stop  offset="0.8947" style="stop-color:#D3ECFF"/>
			<stop  offset="1" style="stop-color:#BBE2FF"/>
		</radialGradient>
		<path class="st22" d="M180.6,410.3c-7.3,7.8-1.3,32.4,7.3,41c8.6,8.2,16.4,4.3,23.7-3c7.3-7.8,10.8-23.7,2.2-31.9
			C205.6,407.7,188,402.6,180.6,410.3z"/>
		<path class="st2" d="M190.5,433.2c2.6-13.4,10.8-21.6,13.4-23.7c2.6,1.3,5.6,2.6,7.8,4.3C207.4,419.8,187.5,447.4,190.5,433.2z"/>
		<path class="st2" d="M179.3,412c0.4-0.9,0.9-1.3,1.3-1.7c3-3,6.9-3.9,11.7-3.5c2.6,1.7,3.9,4.3,3,6c-1.3,3-6,3.9-10.8,2.2
			C182.3,414.2,180.6,413.3,179.3,412z"/>
		<path class="st2" d="M200,439.7v13.8c-3.9,0.9-7.8-0.4-11.7-4.3c-6.5-6.5-11.7-23.7-9.5-33.7C179.3,428.9,192.3,438.4,200,439.7z"
			/>
		
			<radialGradient id="SVGID_19_" cx="1025.9443" cy="292.0374" r="53.981" gradientTransform="matrix(-0.8892 -3.340000e-02 -8.420000e-02 0.9418 1172.2979 186.9407)" gradientUnits="userSpaceOnUse">
			<stop  offset="0.1534" style="stop-color:#FFFFFF"/>
			<stop  offset="0.4635" style="stop-color:#FDFEFF"/>
			<stop  offset="0.636" style="stop-color:#F5FBFF"/>
			<stop  offset="0.7747" style="stop-color:#E7F5FF"/>
			<stop  offset="0.8947" style="stop-color:#D3ECFF"/>
			<stop  offset="1" style="stop-color:#BBE2FF"/>
		</radialGradient>
		<path class="st23" d="M192.3,428.4c-7.8,14.7-6.5,31.5,14.7,47c14.2,10.8,35-6.5,44-26.3c9.1-20.3,5.2-38.8-11.2-46.2
			C223.3,395.7,202.6,409,192.3,428.4z"/>
		<path class="st2" d="M206.5,431c-8.6,19.4-7.8,39.7,6,45.7c13.8,6,29.8-7.8,38.4-27.2c8.6-19.4,6-37.1-7.3-43.1
			C229.8,400.4,215.1,411.6,206.5,431z"/>
		<path class="st0" d="M183.2,445.7c2.6,5.2,7.8,8.2,11.2,6.5c3.5-1.7,3.9-7.8,1.3-12.9c-2.6-5.2-7.8-8.2-11.2-6.5
			C181,434.5,180.2,440.5,183.2,445.7z"/>
		
			<radialGradient id="SVGID_20_" cx="1056.7111" cy="244.4429" r="19.2755" gradientTransform="matrix(-0.9242 0 0 0.9242 1166.958 172.2193)" gradientUnits="userSpaceOnUse">
			<stop  offset="0.1534" style="stop-color:#FFFFFF"/>
			<stop  offset="0.4635" style="stop-color:#FDFEFF"/>
			<stop  offset="0.636" style="stop-color:#F5FBFF"/>
			<stop  offset="0.7747" style="stop-color:#E7F5FF"/>
			<stop  offset="0.8947" style="stop-color:#D3ECFF"/>
			<stop  offset="1" style="stop-color:#BBE2FF"/>
		</radialGradient>
		<path class="st24" d="M180.6,406.4c-1.3,3,1.3,6.5,5.2,8.2s8.2,0.9,9.5-2.2c1.3-3-1.3-6.5-5.2-8.2
			C186.2,402.6,181.9,403.8,180.6,406.4z"/>
	</g>
</g>
</svg>
