<svg id="Layer_1" data-name="Layer 1" xmlns="http://www.w3.org/2000/svg" viewBox="0 0 202.88 207"><defs><style>.cls-1{fill:#3f67a9;}</style></defs><path class="cls-1" d="M1.3,108.39c0-3.45-.12-6.92,0-10.37.12-2.84.51-5.67.89-8.5A102.33,102.33,0,0,1,48.15,17,96.24,96.24,0,0,1,76.77,4.53,84.3,84.3,0,0,1,94.55,1.69c3.7-.14,7.4-.31,11.1-.22A89.53,89.53,0,0,1,128.8,5.22a98.7,98.7,0,0,1,38.31,21.16,101.74,101.74,0,0,1,24.78,33.26A98.11,98.11,0,0,1,200,85.41c.6,3.6,1.05,7.25,1.33,10.9a81.07,81.07,0,0,1,.37,10.22,110.64,110.64,0,0,1-3,21.26,102.07,102.07,0,0,1-9,23.84,100.93,100.93,0,0,1-54.38,47.81,112.18,112.18,0,0,1-22.27,5.4,46.86,46.86,0,0,1-5.92.69c-3.35.06-6.72,0-10.06-.22-3.7-.24-7.41-.6-11.09-1.12a91.52,91.52,0,0,1-19.51-5.13,98.46,98.46,0,0,1-23.7-12.87,100.52,100.52,0,0,1-24.63-26.07,102.5,102.5,0,0,1-16-43c-.29-2.19-.38-4.43-.61-6.64a18.49,18.49,0,0,0-.39-2.1Zm77.89,36.29v41.17c0,2,0,2,1.93,2H113.9c2.08,0,2.08,0,2.08-2.1V103.27c0-1.28.32-1.64,1.6-1.62h22c2.09,0,2.09,0,2.09-2V75c0-2,0-2-2-2H117.48c-1,0-1.48-.29-1.44-1.43.08-2.4,0-4.82,0-7.21a17.81,17.81,0,0,1,.64-4.36,11.27,11.27,0,0,1,10.12-8c4.3-.17,8.62-.08,12.93-.11,1.84,0,1.86,0,1.86-1.94V25.23c0-2,0-2-2.08-2-9.13,0-18.25-.07-27.38,0a38,38,0,0,0-7.94.95,32.82,32.82,0,0,0-24.9,30.15c-.31,5.64-.08,11.31-.1,17,0,1.64,0,1.64-1.68,1.64H58.05C56,73,56,73,56,75.05v25.09c0,1.16.42,1.52,1.56,1.51H77.47c1.73,0,1.73,0,1.73,1.7Z"/></svg>