<svg id="Layer_1" data-name="Layer 1" xmlns="http://www.w3.org/2000/svg" xmlns:xlink="http://www.w3.org/1999/xlink" viewBox="0 0 512 415"><defs><style>.cls-1{fill:#eaeef9;}.cls-2{fill:url(#linear-gradient);}.cls-3{fill:url(#linear-gradient-2);}.cls-4{fill:none;stroke:#ebf0f6;stroke-linecap:round;stroke-linejoin:round;stroke-width:8.334px;}.cls-5{fill:#ced7e2;}.cls-6{fill:#bcc4cf;}.cls-7{fill:#a6afba;}.cls-8{fill:#e3eaf2;}.cls-9{fill:#fff;}.cls-10{fill:#1c3754;}.cls-11{fill:#0f333d;}.cls-12{fill:url(#linear-gradient-3);}.cls-13{fill:url(#linear-gradient-4);}.cls-14{fill:url(#linear-gradient-5);}.cls-15{fill:#c4d1ff;}.cls-16{fill:url(#linear-gradient-6);}</style><linearGradient id="linear-gradient" x1="52.4503" y1="326.4003" x2="56.5006" y2="326.4003" gradientTransform="matrix(3.34, 0, 0, -3.34, -166.0073, 1319.3351)" gradientUnits="userSpaceOnUse"><stop offset="0" stop-color="#41cbfe"/><stop offset="1" stop-color="#41a4fe"/></linearGradient><linearGradient id="linear-gradient-2" x1="171.3757" y1="358.6178" x2="175.4177" y2="358.6178" gradientTransform="matrix(3.14, 0, 0, -3.14, -49.8252, 1201.372)" gradientUnits="userSpaceOnUse"><stop offset="0" stop-color="#f97387"/><stop offset="1" stop-color="#f64e60"/></linearGradient><linearGradient id="linear-gradient-3" x1="18.0006" y1="397.6864" x2="20.3216" y2="394.2111" gradientTransform="matrix(34.7915, 0, 0, -35.1436, -288.7726, 14225.8632)" xlink:href="#linear-gradient"/><linearGradient id="linear-gradient-4" x1="25.8114" y1="390.0314" x2="27.4407" y2="388.2937" gradientTransform="matrix(22.7, 0, 0, -21.21, -202.3193, 8585.469)" gradientUnits="userSpaceOnUse"><stop offset="0" stop-color="#41a4fe"/><stop offset="1" stop-color="#657eff" stop-opacity="0"/></linearGradient><linearGradient id="linear-gradient-5" x1="47.2591" y1="381.546" x2="45.3173" y2="384.0671" gradientTransform="matrix(10.858, 0, 0, -14.696, -129.5207, 5942.5382)" gradientUnits="userSpaceOnUse"><stop offset="0.011" stop-color="#c2d1ff"/><stop offset="1" stop-color="#fff"/></linearGradient><linearGradient id="linear-gradient-6" x1="54.618" y1="365.055" x2="54.2305" y2="368.5303" gradientTransform="matrix(9.3279, 0, 0, -8.1815, -115.864, 3295.6996)" xlink:href="#linear-gradient-5"/></defs><g id="_44" data-name=" 44"><path id="Path-3" class="cls-1" d="M455.971,209.0728a205.1247,205.1247,0,0,1-41.1741,123.1766,208.968,208.968,0,0,1-50.9583,47.4622C270.4728,440.96,145.1333,414.9234,83.885,321.5576A202.1833,202.1833,0,0,1,50.7592,209.49c-.35-111.9336,90.1065-202.9573,202.04-203.3073a202.6741,202.6741,0,0,1,111.0393,32.71,208.1607,208.1607,0,0,1,50.9583,47.4622A200.3655,200.3655,0,0,1,455.971,209.0728Z"/><path id="Path-4" class="cls-1" d="M86.9663,49.06a10.2258,10.2258,0,1,0-12.85-6.6335l.0159.05A10.2175,10.2175,0,0,0,86.9663,49.06Z"/><path id="Path-5" class="cls-1" d="M109.2223,15.6822a6.9422,6.9422,0,1,0-8.7507-4.4587A6.9422,6.9422,0,0,0,109.2223,15.6822Z"/><path id="Path-6" class="cls-2" d="M16.1064,236.1166a6.9589,6.9589,0,1,0-6.93-6.988l0,.0291A6.9505,6.9505,0,0,0,16.1064,236.1166Z"/><path id="Path-7" class="cls-1" d="M497.7828,149.86a15.4923,15.4923,0,1,0-21.8893-1,15.46,15.46,0,0,0,21.8381,1.0468Z"/><path id="Path-8" class="cls-3" d="M494.6992,81.8542a6.5422,6.5422,0,1,0-6.5214-6.563v.0208a6.5256,6.5256,0,0,0,6.5088,6.5422Z"/><path id="Path-9" class="cls-4" d="M54.4262,389.504H474.3184"/><path id="Path-10" class="cls-5" d="M392.7826,37.684V376.8363A11.426,11.426,0,0,1,381.39,388.2956H131.4741a11.4218,11.4218,0,0,1-11.4135-11.43V37.684a11.3093,11.3093,0,0,1,11.4135-11.0426H381.7776a10.9592,10.9592,0,0,1,11.0052,10.913Q392.7831,37.6192,392.7826,37.684Z"/><path id="Path-11" class="cls-6" d="M392.7826,62.2276V376.8363A11.4259,11.4259,0,0,1,381.39,388.2955l-.0209,0H153.08l-19.9766-20.0433L360.1717,56.4772l19.5682-7.334Z"/><path id="Path-12" class="cls-7" d="M382.59,54.4353H135.141V369.4607a4.0878,4.0878,0,0,0,4.0795,4.0837h243.353Z"/><path id="Path-13" class="cls-8" d="M376.4563,48.7265H136.7745a3.65,3.65,0,0,0-3.6711,3.6294c0,.0125,0,.0251,0,.0376V363.7519a3.65,3.65,0,0,0,3.6335,3.667H376.4563a3.65,3.65,0,0,0,3.667-3.6336V52.81a3.53,3.53,0,0,0-3.667-4.0837Z"/><path id="Path-14" class="cls-9" d="M380.1358,49.1224s-.4167,18.7932-6.1172,137.8445v2.4585c-6.93,117.0094-110.8839,141.5531-123.5225,142.8032-5.7046.4167-16.7138,1.2084-36.67,1.6251-24.46.8334-61.9633,1.25-120.26,2.0418a2.5876,2.5876,0,0,1-2.446-3.6669C131.87,250.8053,132.2783,49.4974,132.2783,49.4974H380.1358Z"/><path id="Path-15" class="cls-5" d="M335.7114,109.2731H173.8733a2.6544,2.6544,0,0,1-2.446-2.4585,2.6169,2.6169,0,0,1,2.446-2.4586H335.7114a2.6169,2.6169,0,0,1,2.446,2.4586A2.6544,2.6544,0,0,1,335.7114,109.2731Z"/><path id="Path-16" class="cls-5" d="M334.8946,123.9826H270.4853a2.6211,2.6211,0,0,1-2.4461-2.4585,2.6546,2.6546,0,0,1,2.4461-2.4586h64.4093a2.6546,2.6546,0,0,1,2.4461,2.4586A2.6169,2.6169,0,0,1,334.8946,123.9826Z"/><path id="Path-17" class="cls-8" d="M252.5505,123.9826H172.6482a2.621,2.621,0,0,1-2.446-2.4585,2.6545,2.6545,0,0,1,2.446-2.4586h79.9023a2.6545,2.6545,0,0,1,2.446,2.4586,2.3459,2.3459,0,0,1-2.2284,2.4579Q252.6594,123.9874,252.5505,123.9826Z"/><path id="Path-18" class="cls-5" d="M228.09,138.3171H171.8315a2.4586,2.4586,0,0,1,0-4.9171h56.6712a2.6544,2.6544,0,0,1,2.446,2.4586A2.7459,2.7459,0,0,1,228.09,138.3171Z"/><path id="Path-19" class="cls-5" d="M330.4109,174.7367H240.7245a2.6544,2.6544,0,0,1-2.446-2.4585,2.6211,2.6211,0,0,1,2.446-2.4586h89.6864a2.617,2.617,0,0,1,2.4586,2.4586A2.6545,2.6545,0,0,1,330.4109,174.7367Z"/><path id="Path-20" class="cls-8" d="M222.3814,174.7367H169.3855a2.6544,2.6544,0,0,1-2.4461-2.4585,2.6212,2.6212,0,0,1,2.4461-2.4586h52.9959a2.6169,2.6169,0,0,1,2.446,2.4586A2.6544,2.6544,0,0,1,222.3814,174.7367Z"/><path id="Path-21" class="cls-5" d="M329.5984,189.03H291.6828a2.4377,2.4377,0,1,1,0-4.8754h37.92a2.4377,2.4377,0,1,1-.0041,4.8754Z"/><path id="Path-22" class="cls-8" d="M270.8936,189.03H167.3478a2.4377,2.4377,0,1,1,0-4.8754H270.8936a2.4377,2.4377,0,1,1,0,4.8754Z"/><path id="Path-23" class="cls-8" d="M262.743,203.7807H165.31a2.6544,2.6544,0,0,1-2.446-2.4585,2.6211,2.6211,0,0,1,2.446-2.4586H262.743a2.617,2.617,0,0,1,2.4418,2.4586A2.65,2.65,0,0,1,262.743,203.7807Z"/><path id="Path-24" class="cls-8" d="M321.0352,240.992H215.0433a2.6209,2.6209,0,0,1-2.446-2.4585,2.6543,2.6543,0,0,1,2.446-2.4585H321.0352a2.6543,2.6543,0,0,1,2.446,2.4585A2.6209,2.6209,0,0,1,321.0352,240.992Z"/><path id="Path-25" class="cls-5" d="M198.33,240.992H158.7888a2.6169,2.6169,0,0,1-2.4461-2.4585,2.6544,2.6544,0,0,1,2.4461-2.4585H198.33a2.6543,2.6543,0,0,1,2.446,2.4585,2.3419,2.3419,0,0,1-2.22,2.458Q198.4427,240.9972,198.33,240.992Z"/><path id="Path-26" class="cls-5" d="M319.8142,255.7432H242.358a2.6543,2.6543,0,0,1-2.446-2.4585,2.6209,2.6209,0,0,1,2.446-2.4585h77.8646a2.6211,2.6211,0,0,1,2.4461,2.4585A2.7461,2.7461,0,0,1,319.8142,255.7432Z"/><path id="Path-27" class="cls-8" d="M227.6818,255.7432H157.1553a2.6542,2.6542,0,0,1-2.446-2.4585,2.6209,2.6209,0,0,1,2.446-2.4585h70.5265a2.6209,2.6209,0,0,1,2.45,2.4585A2.6543,2.6543,0,0,1,227.6818,255.7432Z"/><path id="Path-28" class="cls-8" d="M203.2215,270.036H153.8967a2.4377,2.4377,0,1,1,0-4.8753h49.3248a2.4377,2.4377,0,1,1,0,4.8753Z"/><path id="Path-29" class="cls-1" d="M373.6227,189.4462c-6.93,117.0095-110.88,141.5531-123.5182,142.8032-5.7088.4167-16.7139,1.2084-36.6905,1.6251,51.775-24.1269,79.9023-67.0887,79.0855-100.6331C317.7766,234.8665,360.9884,232.8247,373.6227,189.4462Z"/><path id="Path-30" class="cls-10" d="M312.0678,25.808H272.9313c0-.8334.4167-1.25.4167-2.0418a14.2678,14.2678,0,0,0-28.5356-.01v.01a3.1082,3.1082,0,0,0,.4167,2.0418H206.0759a4.0837,4.0837,0,0,0-4.0753,4.0837V42.5594a17.2722,17.2722,0,0,0,17.1222,17.21h79.8981a17.2763,17.2763,0,0,0,17.1222-17.21V29.8917A4.0837,4.0837,0,0,0,312.0678,25.808Z"/><path id="Path-31" class="cls-11" d="M309.6218,23.35H270.4853c0-.8334.4167-1.2084.4167-2.0418a14.2679,14.2679,0,1,0-28.5357-.01v.01a3.05,3.05,0,0,0,.4167,2.0418H203.63a4.0836,4.0836,0,0,0-4.0753,4.0836V40.1425a17.268,17.268,0,0,0,17.1222,17.1681h79.8981a17.264,17.264,0,0,0,17.1222-17.1681V27.4331A4.0837,4.0837,0,0,0,309.6218,23.35Z"/><path id="Path-32" class="cls-1" d="M256.6258,27.85a6.5422,6.5422,0,1,0-6.5213-6.563v.0208A6.5213,6.5213,0,0,0,256.605,27.85Z"/><path id="Path-33" class="cls-12" d="M449.0872,315.048l-1.2251,8.6257c0,.375-.4167.7917-.4167,1.2085s-.4167.8334-.4167,1.6251a67.2049,67.2049,0,0,1-5.7088,15.96,74.9393,74.9393,0,0,1-31.7984,31.9192c-1.6293.8334-3.2628,1.6252-4.8921,2.4586a59.516,59.516,0,0,1-12.23,3.6669c-1.2209.4167-2.0377.4167-3.2586.8334a70.6783,70.6783,0,0,1-27.7231-.4167A73.3392,73.3392,0,0,1,391.195,237.3334a71.0061,71.0061,0,0,1,36.67,20.0433A72.6183,72.6183,0,0,1,449.0872,315.048Z"/><path id="Path-34" class="cls-13" d="M449.0538,315.4564a61.1661,61.1661,0,0,1-1.25,8.584,1.5625,1.5625,0,0,1-.4167,1.25,3,3,0,0,1-.4167,1.6251,67.2029,67.2029,0,0,1-5.7088,15.96,74.9185,74.9185,0,0,1-31.7984,31.9192c-1.6293.8334-3.2586,1.6251-4.892,2.4585l-50.1082-30.7108,10.1925-35.1695,13.8594-20.0433,30.9817-2.4585Z"/><path id="Shape" class="cls-14" d="M359.7633,347.7923,374.44,324.04a2.3718,2.3718,0,1,0-4.0587-2.4169l-13.8761,23.71a1.4126,1.4126,0,0,1-2.446-.8334c.8334-42.5451.4167-42.5451,1.6293-43.7536a.8876.8876,0,0,1,.8334-.8334l.8334-.4167a6.0117,6.0117,0,0,1,1.8168-.0291,12.414,12.414,0,0,0,6.7089-1.1793,13.8967,13.8967,0,0,0,4.892-3.2919l.8084-.7918c0-.4167,1.2251-1.6668,1.2251-1.6668.4167,0,.8334-1.2084,1.6293-2.046.4167-.7917.8334-2.0418,1.2251-2.0418l23.6436,13.0844a14.6961,14.6961,0,0,1-1.6335,3.7086,26.5662,26.5662,0,0,1-1.2209,3.2461c-.4167.4167-.4167.4167-.4167.8334a1.3,1.3,0,0,0-.4167.8334v.8a15.98,15.98,0,0,0,.8334,8.584c1.2209,3.292,2.45,4.1254,2.0418,5.75-.4167,2.046-2.0418,2.4585-11.8218,8.584l-12.6385,7.7923-.4167.375-12.2176,7.3756a1.4375,1.4375,0,0,1-.8043.2709,1.1418,1.1418,0,0,1-.8292-1.896Z"/><path id="Path-35" class="cls-15" d="M399.7165,301.1636a13.8365,13.8365,0,0,0-1.6334,3.6669,16.8618,16.8618,0,0,0-1.221,3.25L372.81,292.9546c.4167-.4167.8125-1.2085,1.6293-2.0419a22.008,22.008,0,0,1,1.2251-2.0418Z"/><path id="Path-36" class="cls-16" d="M397.6747,306.0389l-24.052-15.1262a4.0793,4.0793,0,0,1-1.2739-5.6268q.026-.0414.053-.082l6.5214-10.6675a4.0877,4.0877,0,0,1,5.6442-1.25l.0646.042,24.0519,15.1262a4.1253,4.1253,0,0,1,1.2554,5.6974l-.0345.0531-6.5213,10.6258a4.05,4.05,0,0,1-5.58,1.292Q397.738,306.0818,397.6747,306.0389Z"/></g></svg>