<svg id="Layer_1" data-name="Layer 1" xmlns="http://www.w3.org/2000/svg" xmlns:xlink="http://www.w3.org/1999/xlink" viewBox="0 0 512 415"><defs><style>.cls-1{fill:#eaeef9;}.cls-2{fill:#fff;}.cls-3{fill:#e3eaf2;}.cls-4{fill:url(#linear-gradient);}.cls-5{fill:url(#linear-gradient-2);}.cls-6{fill:url(#linear-gradient-3);}.cls-7{fill:url(#linear-gradient-4);}.cls-8{fill:url(#linear-gradient-5);}.cls-9{fill:url(#linear-gradient-6);}.cls-10{fill:url(#linear-gradient-7);}</style><linearGradient id="linear-gradient" x1="226.6029" y1="89.1564" x2="229.9986" y2="89.1564" gradientTransform="matrix(9.765, 0, 0, -2.51, -2050.2126, 504.0311)" gradientUnits="userSpaceOnUse"><stop offset="0" stop-color="#f97387"/><stop offset="1" stop-color="#f64e60"/></linearGradient><linearGradient id="linear-gradient-2" x1="238.5024" y1="111.3555" x2="241.9049" y2="111.3555" gradientTransform="matrix(9.651, 0, 0, -2.52, -1979.1358, 484.0183)" xlink:href="#linear-gradient"/><linearGradient id="linear-gradient-3" x1="166.3433" y1="77.3982" x2="290.46" y2="77.3982" gradientUnits="userSpaceOnUse"><stop offset="0" stop-color="#41cbfe"/><stop offset="1" stop-color="#41a4fe"/></linearGradient><linearGradient id="linear-gradient-4" x1="166.3439" y1="104.7099" x2="220.6642" y2="104.7099" xlink:href="#linear-gradient-3"/><linearGradient id="linear-gradient-5" x1="16.4456" y1="398.7111" x2="18.4681" y2="395.6828" gradientTransform="matrix(39.4856, 0, 0, -39.4858, -320.8907, 16012.822)" xlink:href="#linear-gradient-3"/><linearGradient id="linear-gradient-6" x1="23.5035" y1="392.6727" x2="24.6836" y2="391.4781" gradientTransform="matrix(24.9785, 0, 0, -24.728, -219.4521, 10037.4386)" gradientUnits="userSpaceOnUse"><stop offset="0" stop-color="#41a4fe"/><stop offset="1" stop-color="#657eff" stop-opacity="0"/></linearGradient><linearGradient id="linear-gradient-7" x1="30.603" y1="387.5399" x2="29.3757" y2="389.1993" gradientTransform="matrix(18.0624, 0, 0, -18.2809, -177.1455, 7420.9834)" gradientUnits="userSpaceOnUse"><stop offset="0.011" stop-color="#c2d1ff"/><stop offset="1" stop-color="#fff"/></linearGradient></defs><g id="_46" data-name=" 46"><path id="Path-5" class="cls-1" d="M71.5546,60.1978a9.7162,9.7162,0,1,0-.0128.0041Z"/><path id="Path-6" class="cls-1" d="M92.721,28.3593a6.624,6.624,0,1,0-4.0754-12.6055h0a6.6511,6.6511,0,0,0-4.2326,8.37,6.58,6.58,0,0,0,8.28,4.2451Z"/><path id="Path-7" class="cls-1" d="M410.5931,61.8375a14.8807,14.8807,0,0,0,.9394-20.9409,14.6893,14.6893,0,0,0-20.7479-1.0391q-.0455.0411-.0906.0826a14.9217,14.9217,0,0,0-.936,20.9751,14.69,14.69,0,0,0,20.75,1Z"/><path id="Path-8" class="cls-1" d="M457.6709,34.8158a6.2617,6.2617,0,0,0,.3929-8.8068,6.1491,6.1491,0,0,0-8.6821-.4929c-.0282.0252-.0561.05-.0837.0762a6.2651,6.2651,0,0,0-.3963,8.8136,6.17,6.17,0,0,0,8.7129.4613Z"/><path id="Path-9" class="cls-1" d="M88.5943,381.3493a6.2617,6.2617,0,0,0,.3929-8.8068,6.1662,6.1662,0,0,0-8.7076-.47l-.0582.0529a6.2618,6.2618,0,0,0-.3963,8.8137,6.17,6.17,0,0,0,8.7129.4613Z"/><path id="Path-10" class="cls-1" d="M245.081,401.9828c107.0788.6189,194.385-85.684,195.0038-192.7628S354.4008,14.835,247.322,14.2162,52.937,99.9,52.3181,206.979q-.0031.5518-.0032,1.1036c-.3155,106.7726,85.985,193.5847,192.7576,193.9Z"/><path id="Path-11" class="cls-2" d="M126.3769,183.5205,101.1726,75.8437A14.867,14.867,0,0,1,112.0291,57.909L278.4225,18.1109l94.2582,64.36,58.9456,236.807a14.8672,14.8672,0,0,1-10.86,17.9348L191.1538,391.8369a14.8091,14.8091,0,0,1-17.8426-10.9317L124.4433,175.3218"/><path id="Path-12" class="cls-2" d="M416.8924,176.1075l-88.82,227.0368a14.6894,14.6894,0,0,1-19.023,8.3477q-.1845-.072-.367-.1489L90.3161,321.601a14.8021,14.8021,0,0,1-8.2547-19.2371q.054-.1352.1106-.2691L199.6873,11.8594A14.6894,14.6894,0,0,1,218.708,3.5066q.1908.0744.38.154L377.72,68.8065Z"/><path id="Path-13" class="cls-2" d="M377.34,68.8065l-25.2111,62.4129a17.9415,17.9415,0,0,0,9.695,22.649l55.0682,22.2391"/><path id="Path-14" class="cls-2" d="M393.994,359.4519a14.7715,14.7715,0,0,1-14.7166,14.826h-235.84A14.7714,14.7714,0,0,1,128.7,359.4725V45.8158A14.7715,14.7715,0,0,1,143.4164,30.99H314.4833l76.7949,84.652,1.5509,141.9749Z"/><path id="Path-15" class="cls-3" d="M350.5783,284.5359H209.01a4.2873,4.2873,0,0,1,0-8.5746H350.5783a4.318,4.318,0,0,1,4.2667,4.3044A4.5948,4.5948,0,0,1,350.5783,284.5359Z"/><path id="Path-16" class="cls-4" d="M191.5569,284.5359H166.7318a4.2873,4.2873,0,0,1,0-8.5746h24.8251a4.2873,4.2873,0,0,1,0,8.5746Z"/><path id="Path-17" class="cls-3" d="M350.1889,245.9334H286.97a4.2873,4.2873,0,0,1,0-8.5745h63.2192a4.3113,4.3113,0,0,1,4.2531,4.27C354.0662,244.362,352.5152,245.9334,350.1889,245.9334Z"/><path id="Path-18" class="cls-3" d="M260.2077,245.9334h-92.311a4.2873,4.2873,0,0,1,0-8.5745h92.311a4.3078,4.3078,0,0,1,4.2633,4.27,4.0993,4.0993,0,0,1-3.8856,4.3025Q260.3967,245.9412,260.2077,245.9334Z"/><path id="Path-19" class="cls-5" d="M351.3469,207.7068H326.9181a4.3045,4.3045,0,0,1,0-8.6087h24.4288a4.3045,4.3045,0,0,1,0,8.6087Z"/><path id="Path-20" class="cls-3" d="M304.0333,207.7068H169.0581a4.3045,4.3045,0,0,1,0-8.6087H304.0333a4.3045,4.3045,0,0,1,0,8.6087Z"/><path id="Path-21" class="cls-3" d="M243.53,326.6911h-8.54a4.3045,4.3045,0,0,1,.0068-8.6087h8.54a4.3384,4.3384,0,0,1,4.2565,4.3043A4.93,4.93,0,0,1,243.53,326.6911Z"/><path id="Path-22" class="cls-3" d="M219.48,326.6911H169.0581a4.3045,4.3045,0,0,1,0-8.6087h50.0534a4.3418,4.3418,0,0,1,4.2667,4.3043,3.7885,3.7885,0,0,1-3.8978,4.3044Z"/><path id="Path-23" class="cls-3" d="M352.5152,169.48H265.6359a4.3045,4.3045,0,0,1,0-8.6087h86.8793a4.3045,4.3045,0,0,1,0,8.6087Z"/><path id="Path-24" class="cls-3" d="M237.6953,169.48H170.223a4.3045,4.3045,0,0,1,0-8.6087h67.1a4.3181,4.3181,0,0,1,4.2668,4.3043,4.0208,4.0208,0,0,1-3.7255,4.2959C237.808,169.4757,237.7516,169.4785,237.6953,169.48Z"/><path id="Path-25" class="cls-6" d="M285.0294,82.8468H171.774a5.2985,5.2985,0,0,1-5.4284-5.1653q-.0033-.1332,0-.2664a5.3087,5.3087,0,0,1,5.1478-5.4648q.14-.0042.28-.001H285.0294a5.3087,5.3087,0,0,1,5.4292,5.1854q.0031.14-.001.28A5.8519,5.8519,0,0,1,285.0294,82.8468Z"/><path id="Path-26" class="cls-7" d="M214.8276,110.1759H171.774a5.3291,5.3291,0,0,1-5.4291-5.2273q-.0023-.1192.0008-.2385a5.3292,5.3292,0,0,1,5.19-5.465q.1192-.003.2385-.0008h43.44a5.3292,5.3292,0,0,1,5.4492,5.2064q.003.13,0,.2594A6.2413,6.2413,0,0,1,214.8276,110.1759Z"/><path id="Path-27" class="cls-1" d="M314.5072,30.99v67.093a17.5931,17.5931,0,0,0,17.4531,17.149h59.3418"/></g><path id="Path-26-2" data-name="Path-26" class="cls-8" d="M437.613,342.0948a71.6741,71.6741,0,1,1-55.8114-84.6134l.2194.0454a68.7328,68.7328,0,0,1,36.2709,19.68A71.5652,71.5652,0,0,1,437.613,342.0948Z"/><path id="Path-27-2" data-name="Path-27" class="cls-9" d="M430.467,325.8966a57.9931,57.9931,0,0,1-.3958,8.2788,35.08,35.08,0,0,1-1.18,6.2818,60.2761,60.2761,0,0,1-49.2848,48.3661,56.5338,56.5338,0,0,1-14.1939.7989l-25.6282-25.5629L362.66,331.0164l24.4373-18.4822,17.3493-12.5636Z"/><path id="Path-28" class="cls-10" d="M402.8671,299.1718a52.9482,52.9482,0,0,0-33.1155,1.1619,3.9255,3.9255,0,0,0-1.9717,1.5977,39.2918,39.2918,0,0,0-5.1271,6.2818V304.691a.385.385,0,0,0-.37-.3992c-.0074,0-.0148,0-.0222,0h-.3958a39.818,39.818,0,0,0-10.25,7.8432,3.4675,3.4675,0,0,0-1.1838,2.36,41.9348,41.9348,0,0,0-1.5758,5.5192c-.3958-.7988-.3958-1.5613-.788-2.36a.3884.3884,0,0,0-.3774-.3993c-.0061,0-.0123,0-.0184,0h-.3958a49.18,49.18,0,0,0-7.4909,20.8424v5.12l.3958,2.76c0,.3994,0,.3994.3958.3994s.3921,0,.3921-.3994c9.4626-17.72,20.8969-33.0429,41.3944-40.5229a2.1335,2.1335,0,0,1,1.7256,3.898q-.0737.0328-.15.06c-24.0269,8.642-35.0835,29.4845-44.942,51.1258a1.997,1.997,0,0,0,1.1838,2.7233,2.0407,2.0407,0,0,0,2.7007-1.0173q.0323-.0713.0589-.1447c1.5759-3.5584,3.1554-7.0806,4.72-10.24a6.6161,6.6161,0,0,1,4.3355-3.5222,56.9028,56.9028,0,0,0,35.5121-22.0407,52.726,52.726,0,0,0,3.5476-5.12.7263.7263,0,0,0-.3958-1.162h-.3922l-7.4909-1.5613c7.8831-2.36,9.8547-1.1983,13.01-6.3181,2.3638-3.9216,5.1234-7.8432,7.4909-11.4017C404.8388,299.9706,404.8388,299.5712,402.8671,299.1718Z"/></svg>