<?xml version="1.0" encoding="utf-8"?>
<!-- Generator: Adobe Illustrator 25.2.3, SVG Export Plug-In . SVG Version: 6.00 Build 0)  -->
<svg version="1.1" id="Layer_1" xmlns="http://www.w3.org/2000/svg" xmlns:xlink="http://www.w3.org/1999/xlink" x="0px" y="0px"
	 viewBox="0 0 970.4 344.9" style="enable-background:new 0 0 970.4 344.9;" xml:space="preserve">
<style type="text/css">
<link href="https://fonts.googleapis.com/css2?family=Open+Sans:wght@300" rel="stylesheet" />
	.st0{display:none;fill:url(#SVGID_1_);}
	.st1{fill:url(#SVGID_2_);}
	.st2{fill:none;stroke:#006891;stroke-width:0.25;stroke-miterlimit:10;}
	.st3{fill:#7AC5FC;}
	.st4{fill:none;stroke:#008DD3;stroke-width:0.25;stroke-miterlimit:10;}
	.st5{fill:url(#SVGID_3_);}
	.st6{display:none;fill:none;stroke:#04090A;stroke-width:0.25;stroke-miterlimit:10;}
	.st7{fill:url(#SVGID_4_);}
	.st8{fill:#C3E6FC;}
	.st9{fill:none;stroke:#3498B7;stroke-width:0.25;stroke-miterlimit:10;}
	.st10{font-family: 'Open Sans', sans-serif;}
	.st11{font-size:17px;}
	.st12{display:none;fill:url(#SVGID_5_);}
	.st13{fill:#231F20;}
	.st14{fill:url(#SVGID_6_);}
	.st15{fill:url(#SVGID_7_);}
	.st16{fill:url(#SVGID_8_);}
	.st17{fill:#95CEF9;}
	.st18{fill:url(#SVGID_9_);}
	.st19{opacity:0.8;}
	.st20{fill:url(#SVGID_10_);}
	.st21{fill:#FFFFFF;}
	.st22{fill:url(#SVGID_11_);}
	.st23{fill:url(#SVGID_12_);}
	.st24{fill:url(#SVGID_13_);}
	.st25{fill:url(#SVGID_14_);}
	.st26{fill:url(#SVGID_15_);}
	.st27{fill:#41A4FE;}
	.st28{fill:url(#SVGID_16_);}
	.st29{fill:#0D0D0D;}
	.st30{fill:url(#SVGID_17_);}
	.st31{fill:url(#SVGID_18_);}
	.st32{fill:url(#SVGID_19_);}
	.st33{fill:url(#SVGID_20_);}
	.st34{fill:url(#SVGID_21_);}
	.st35{fill:url(#SVGID_22_);}
	.st36{fill:url(#SVGID_23_);}
	.st37{fill:url(#SVGID_24_);}
	.st38{fill:url(#SVGID_25_);}
	.st39{fill:url(#SVGID_26_);}
	.st40{fill:url(#SVGID_27_);}
	.st41{fill:url(#SVGID_28_);}
	.st42{fill:url(#SVGID_29_);}
	.st43{fill:#F64E60;}
	.st44{fill:url(#SVGID_30_);}
	.st45{fill:url(#SVGID_31_);}
	.st46{fill:url(#SVGID_32_);}
	.st47{fill:url(#SVGID_33_);}
	.st48{fill:url(#SVGID_34_);}
	.st49{fill:url(#SVGID_35_);}
	.st50{fill:url(#SVGID_36_);}
	.st51{fill:url(#SVGID_37_);}
	.st52{fill:url(#SVGID_38_);}
	.st53{fill:url(#SVGID_39_);}
	.st54{fill:url(#SVGID_40_);}
	.st55{fill:url(#SVGID_41_);}
	.st56{fill:url(#SVGID_42_);}
	.st57{fill:url(#SVGID_43_);}
	.st58{fill:url(#SVGID_44_);}
	.st59{fill:url(#SVGID_45_);}
	.st60{fill:url(#SVGID_46_);}
	.st61{fill:url(#SVGID_47_);}
	.st62{fill:#AAE6DE;}
	.st63{fill:url(#SVGID_48_);}
	.st64{fill:url(#SVGID_49_);}
	.st65{fill:url(#SVGID_50_);}
	.st66{fill:url(#SVGID_51_);}
	.st67{fill:url(#SVGID_52_);}
	.st68{fill:url(#SVGID_53_);}
	.st69{fill:url(#SVGID_54_);}
	.st70{font-size:20px;}
</style>
<linearGradient id="SVGID_1_" gradientUnits="userSpaceOnUse" x1="-82.9" y1="387.6442" x2="1027" y2="387.6442" gradientTransform="matrix(1 0 0 -1 0 514.0942)">
	<stop  offset="0" style="stop-color:#41A4FE"/>
	<stop  offset="1" style="stop-color:#46DCFF"/>
</linearGradient>
<rect x="-82.9" y="-101.8" class="st0" width="1109.9" height="456.5"/>
<g>
	<g>
		
			<linearGradient id="SVGID_2_" gradientUnits="userSpaceOnUse" x1="121.6011" y1="216.9015" x2="392.1527" y2="373.1045" gradientTransform="matrix(1 0 0 -1 0 514.0942)">
			<stop  offset="0.3338" style="stop-color:#41A4FE"/>
			<stop  offset="0.4776" style="stop-color:#3DA3FC"/>
			<stop  offset="0.6334" style="stop-color:#309EF6"/>
			<stop  offset="0.7943" style="stop-color:#1A97ED"/>
			<stop  offset="0.9033" style="stop-color:#0791E5"/>
		</linearGradient>
		<path class="st1" d="M358.1,63.6v194.1H98.8C216.4,242.1,314.1,166.4,358.1,63.6z"/>
		<path class="st2" d="M358.1,63.6v194.1H98.8C216.4,242.1,314.1,166.4,358.1,63.6z"/>
	</g>
</g>
<g>
	<g>
		<path class="st3" d="M625.5,61.1C625.3,60.9,625.7,61.3,625.5,61.1L625.5,61.1L625.5,61.1c-0.1-0.1-0.1-0.1-0.2-0.2
			c-0.5-0.5-1-0.9-1.5-1.4C590.1,28.1,545,8.9,495.4,8.9c-50.3,0-96.1,19.8-130,52.1h-0.2v196.7h260.3V61.6V61.1L625.5,61.1z"/>
		<path class="st4" d="M625.5,61.1C625.3,60.9,625.7,61.3,625.5,61.1L625.5,61.1L625.5,61.1c-0.1-0.1-0.1-0.1-0.2-0.2
			c-0.5-0.5-1-0.9-1.5-1.4C590.1,28.1,545,8.9,495.4,8.9c-50.3,0-96.1,19.8-130,52.1h-0.2v196.7h260.3V61.6V61.1L625.5,61.1z"/>
	</g>
</g>
<g>
	<g>
		<g>
			<g>
				
					<linearGradient id="SVGID_3_" gradientUnits="userSpaceOnUse" x1="35.55" y1="241.655" x2="35.55" y2="478.9837" gradientTransform="matrix(1 0 0 -1 0 514.0942)">
					<stop  offset="0.2225" style="stop-color:#F64E60"/>
					<stop  offset="0.3977" style="stop-color:#F75970"/>
					<stop  offset="0.6713" style="stop-color:#FFBBC5"/>
					<stop  offset="0.9649" style="stop-color:#E8F4F9"/>
				</linearGradient>
				<polygon class="st5" points="35.6,4 21.6,18 27.9,18 27.9,258.2 43.2,258.2 43.2,18 49.5,18 				"/>
			</g>
		</g>
		<polygon class="st6" points="35.6,4 21.6,18 27.9,18 27.9,258.2 43.2,258.2 43.2,18 49.5,18 		"/>
	</g>
</g>
<g>
	<g>
		<g>
			<g>
				
					<linearGradient id="SVGID_4_" gradientUnits="userSpaceOnUse" x1="172.3" y1="196.0942" x2="793" y2="196.0942" gradientTransform="matrix(1 0 0 -1 0 514.0942)">
					<stop  offset="5.206994e-02" style="stop-color:#F64E60"/>
					<stop  offset="0.381" style="stop-color:#FFEEF1"/>
					<stop  offset="0.5506" style="stop-color:#FFE9ED"/>
					<stop  offset="0.673" style="stop-color:#FFBBC5"/>
					<stop  offset="0.8826" style="stop-color:#F64E60"/>
				</linearGradient>
				<polygon class="st7" points="793,318 779,304 779,310.3 186.3,310.3 186.3,304 172.3,318 186.3,332 186.3,325.6 779,325.6 
					779,332 				"/>
			</g>
		</g>
		<polygon class="st6" points="793,318 779,304 779,310.3 186.3,310.3 186.3,304 172.3,318 186.3,332 186.3,325.6 779,325.6 
			779,332 		"/>
	</g>
</g>
<g>
	<g>
		<path class="st8" d="M631.6,62.7v194.1h259.3C773.3,241.3,675.5,165.6,631.6,62.7z"/>
		<path class="st9" d="M631.6,62.7v194.1h259.3C773.3,241.3,675.5,165.6,631.6,62.7z"/>
	</g>
</g>
<text transform="matrix(1 0 0 1 414.3901 292.3916)" class="st10 st11">Trading Frequency</text>
<text transform="matrix(1 0 0 1 811.8306 323.0615)" class="st10 st11">Very Passive</text>
<text transform="matrix(1 0 0 1 67.5482 323.0619)" class="st10 st11">Very Active</text>
<text transform="matrix(0 -1 1 0 15.6247 153.1299)" class="st10 st11">Value</text>
<g>
	
		<radialGradient id="SVGID_5_" cx="687.5304" cy="1525.9829" r="40.4622" gradientTransform="matrix(1.1916 0 0 -0.1576 -177.7612 498.7373)" gradientUnits="userSpaceOnUse">
		<stop  offset="0" style="stop-color:#ABABAB"/>
		<stop  offset="1" style="stop-color:#FFFFFF"/>
	</radialGradient>
	<ellipse class="st12" cx="641.5" cy="258.2" rx="48.2" ry="6.4"/>
	<path class="st13" d="M628,195.7c-0.2,1.1-0.3,2.3-0.5,3.5l-0.4,3.5c-0.3,2.3-0.6,4.7-0.8,7s-0.5,4.7-0.6,7c-0.2,2.3-0.3,4.6-0.4,7
		l0,0c-0.1,1.8-1.5,3.1-3.3,3.1c-1.6-0.1-2.9-1.4-3.1-2.9c-0.2-2.4-0.3-4.8-0.4-7.3c-0.1-2.4-0.1-4.8-0.1-7.2s0-4.8,0-7.2l0.1-3.6
		c0-1.2,0.1-2.4,0.1-3.6c0.1-2.6,2.3-4.7,4.9-4.6c2.6,0.1,4.7,2.3,4.6,4.9C628,195.3,628,195.5,628,195.7L628,195.7z"/>
	<path class="st13" d="M647.8,193.4c0.7,2.5,1.3,4.9,1.9,7.4l1.9,7.3c1.2,4.9,2.4,9.8,3.6,14.7c0.4,1.7-0.6,3.4-2.4,3.8
		c-1.6,0.4-3.2-0.5-3.7-2l0,0c-1.7-4.7-3.4-9.5-5.1-14.2l-2.6-7.1c-0.9-2.3-1.8-4.7-2.6-7l0,0c-0.9-2.5,0.3-5.2,2.7-6.2
		c2.5-0.9,5.2,0.3,6.2,2.7C647.7,193.1,647.8,193.2,647.8,193.4z"/>
	<path class="st13" d="M617,143.5c-0.2,0.7-0.5,1.3-0.7,2l-0.7,1.9c-0.5,1.3-1,2.6-1.5,3.8c-1,2.5-2,5.1-3.1,7.6
		c-0.5,1.3-1.1,2.5-1.7,3.8c-0.6,1.3-1.2,2.5-1.8,3.7s-1.3,2.5-2,3.7s-1.5,2.5-2.5,3.7c-1.1,1.4-3.1,1.6-4.5,0.5
		c-1.3-1-1.6-2.8-0.7-4.2l0.1-0.1c0.6-0.9,1.2-2,1.7-3.1s1-2.3,1.5-3.5s0.9-2.4,1.4-3.6c0.4-1.2,0.8-2.5,1.3-3.7
		c0.8-2.5,1.6-5,2.3-7.6c0.4-1.3,0.7-2.5,1.1-3.8l0.5-1.9c0.2-0.6,0.3-1.3,0.5-1.9c0.6-2.6,3.2-4.1,5.8-3.5s4.1,3.2,3.5,5.8
		C617.1,143.2,617,143.3,617,143.5L617,143.5z"/>
	<path class="st13" d="M669.5,166.7l-19-21.6l-0.1-0.1c-1.7-2-1.5-5,0.4-6.8c2-1.7,5-1.5,6.8,0.4c0.1,0.1,0.2,0.3,0.3,0.4l16.5,23.7
		c1,1.4,0.7,3.4-0.8,4.4C672.4,168.2,670.6,167.9,669.5,166.7L669.5,166.7z"/>
	
		<radialGradient id="SVGID_6_" cx="753.273" cy="279.705" r="9.9595" gradientTransform="matrix(1.3108 0 0 -1.3108 -328.445 500.0307)" gradientUnits="userSpaceOnUse">
		<stop  offset="0.1534" style="stop-color:#FFFFFF"/>
		<stop  offset="0.4635" style="stop-color:#FDFEFF"/>
		<stop  offset="0.636" style="stop-color:#F5FBFF"/>
		<stop  offset="0.7747" style="stop-color:#E7F5FF"/>
		<stop  offset="0.8947" style="stop-color:#D3ECFF"/>
		<stop  offset="1" style="stop-color:#BBE2FF"/>
	</radialGradient>
	<path class="st14" d="M665.9,147.6c-1.9,2.4-6.6,1.2-11.9-2.4c-5.3-3.6-9-7.7-7.5-10.6c1.6-3,8.1-2.6,13.4,1
		C665.3,139.1,668,145,665.9,147.6z"/>
	
		<radialGradient id="SVGID_7_" cx="966.6375" cy="280.9193" r="9.9591" gradientTransform="matrix(-1.3063 0.1088 -0.1087 -1.3063 1901.076 396.0013)" gradientUnits="userSpaceOnUse">
		<stop  offset="0.1534" style="stop-color:#FFFFFF"/>
		<stop  offset="0.4635" style="stop-color:#FDFEFF"/>
		<stop  offset="0.636" style="stop-color:#F5FBFF"/>
		<stop  offset="0.7747" style="stop-color:#E7F5FF"/>
		<stop  offset="0.8947" style="stop-color:#D3ECFF"/>
		<stop  offset="1" style="stop-color:#BBE2FF"/>
	</radialGradient>
	<path class="st15" d="M602.1,149c2.1,2.2,6.6,0.6,11.7-3.4s8.3-8.4,6.6-11.2c-1.8-2.8-8.3-2-13.3,2.1
		C602,140.5,599.8,146.5,602.1,149z"/>
	<path class="st13" d="M638.8,186.1h-10.1c-2.6,0-4.7-2.1-4.7-4.7v-5.5h19.6v5.5C643.6,184,641.4,186.1,638.8,186.1z"/>
	<g>
		
			<radialGradient id="SVGID_8_" cx="723.3563" cy="272.9651" r="14.2529" gradientTransform="matrix(1.4918 0 0 -1.4918 -482.9994 564.7184)" gradientUnits="userSpaceOnUse">
			<stop  offset="0.1534" style="stop-color:#FFFFFF"/>
			<stop  offset="0.4635" style="stop-color:#FDFEFF"/>
			<stop  offset="0.636" style="stop-color:#F5FBFF"/>
			<stop  offset="0.7747" style="stop-color:#E7F5FF"/>
			<stop  offset="0.8947" style="stop-color:#D3ECFF"/>
			<stop  offset="1" style="stop-color:#BBE2FF"/>
		</radialGradient>
		<path class="st16" d="M582.5,151.1c0.7-0.5,1.5-0.5,2.2-0.1c2.2,1.2,7.2,3.9,12,6.7c2.4,1.4,4.1,3.7,4.6,6.4c1.1,5.4,2.4,14-1,15
			c-4.4,1.3-18.1-16.7-21.2-20.9c-0.4-0.6-0.5-1.3-0.3-2C579.3,154.7,580.4,152.5,582.5,151.1z"/>
		<path class="st17" d="M602.5,171.8c-7.5,0-19.1-10.7-22.7-17.7c-0.4,0.8-0.7,1.5-0.9,2c-0.2,0.7-0.1,1.4,0.3,2
			c3.1,4.2,16.7,22.2,21.2,20.9C602.3,178.4,602.7,175.3,602.5,171.8z"/>
	</g>
	<g>
		
			<radialGradient id="SVGID_9_" cx="748.3444" cy="257.5856" r="14.1468" gradientTransform="matrix(1.4918 0 0 -1.4918 -482.9994 564.7184)" gradientUnits="userSpaceOnUse">
			<stop  offset="0.1534" style="stop-color:#FFFFFF"/>
			<stop  offset="0.4635" style="stop-color:#FDFEFF"/>
			<stop  offset="0.636" style="stop-color:#F5FBFF"/>
			<stop  offset="0.7747" style="stop-color:#E7F5FF"/>
			<stop  offset="0.8947" style="stop-color:#D3ECFF"/>
			<stop  offset="1" style="stop-color:#BBE2FF"/>
		</radialGradient>
		<path class="st18" d="M633.8,202.9L633.8,202.9c-9.2,0-16.6-7.4-16.6-16.6v-1.8c0-1.3,1.1-2.4,2.4-2.4h13.6H648
			c1.3,0,2.4,1.1,2.4,2.4v1.8C650.4,195.5,642.9,202.9,633.8,202.9z"/>
		<g class="st19">
			<path class="st17" d="M639.8,202.2c-0.2,0-0.4-0.2-0.4-0.4v-7.9c0-3.1-2.5-5.6-5.6-5.6s-5.6,2.5-5.6,5.6v7.9
				c0,0.2-0.2,0.4-0.4,0.4s-0.4-0.2-0.4-0.4v-7.9c0-3.5,2.9-6.4,6.4-6.4s6.4,2.9,6.4,6.4v7.9C640.2,202,640,202.2,639.8,202.2z"/>
		</g>
		<path class="st17" d="M650.4,184.6c0-1.3-1.1-2.4-2.4-2.4h-0.2c-4.9,27.1-24.5,17-24.6,16.9c2.9,2.4,6.6,3.8,10.6,3.8
			c9.2,0,16.6-7.4,16.6-16.6L650.4,184.6L650.4,184.6z"/>
		<path class="st13" d="M650.1,184.3h-32.6c-0.7,0-1.3-0.6-1.3-1.3l0,0c0-0.7,0.6-1.3,1.3-1.3h32.6c0.7,0,1.3,0.6,1.3,1.3l0,0
			C651.4,183.7,650.8,184.3,650.1,184.3z"/>
	</g>
	<g>
		
			<radialGradient id="SVGID_10_" cx="769.1353" cy="223.4071" r="14.0781" gradientTransform="matrix(1.4918 0 0 -1.4918 -482.9994 564.7184)" gradientUnits="userSpaceOnUse">
			<stop  offset="0.1534" style="stop-color:#FFFFFF"/>
			<stop  offset="0.4635" style="stop-color:#FDFEFF"/>
			<stop  offset="0.636" style="stop-color:#F5FBFF"/>
			<stop  offset="0.7747" style="stop-color:#E7F5FF"/>
			<stop  offset="0.8947" style="stop-color:#D3ECFF"/>
			<stop  offset="1" style="stop-color:#BBE2FF"/>
		</radialGradient>
		<path class="st20" d="M654.2,216.6L654.2,216.6c4.1,4,9.9,15.4,12.1,29.2c0.2,1.5-0.8,2.7-2.3,2.7h-12.2c-1.5,0-2.9-1.2-3-2.7
			c-1.1-9.3-3.4-17.5-2.3-23.1C647.2,219,650.3,216.6,654.2,216.6z"/>
		<path class="st17" d="M654.2,216.6c-2.5,0-4.7,1-6.1,2.7c0.9,2.1,3.2,5.6,8.5,6.9c1.8,0.4,2.6-0.3,2.9-1.7
			C657.7,220.9,655.8,218.2,654.2,216.6z"/>
		<path class="st21" d="M652.2,220.9c0.9,3.2,2.9,5.5,4.5,5.3s2.1-3,1.3-6.1s-2.9-5.5-4.5-5.3C651.9,215,651.3,217.8,652.2,220.9z"
			/>
		<path class="st17" d="M649.3,218.1L649.3,218.1c-1.4,1.1-2.4,2.6-2.8,4.5c-1.1,5.6,1.2,13.8,2.3,23.1c0.2,1.5,1.5,2.7,3,2.7h4
			C650.8,238,649.3,218.1,649.3,218.1z"/>
	</g>
	<g>
		
			<radialGradient id="SVGID_11_" cx="737.4022" cy="222.1029" r="12.2532" gradientTransform="matrix(1.4918 0 0 -1.4918 -482.9994 564.7184)" gradientUnits="userSpaceOnUse">
			<stop  offset="0.1534" style="stop-color:#FFFFFF"/>
			<stop  offset="0.4635" style="stop-color:#FDFEFF"/>
			<stop  offset="0.636" style="stop-color:#F5FBFF"/>
			<stop  offset="0.7747" style="stop-color:#E7F5FF"/>
			<stop  offset="0.8947" style="stop-color:#D3ECFF"/>
			<stop  offset="1" style="stop-color:#BBE2FF"/>
		</radialGradient>
		<path class="st22" d="M619,216.2L619,216.2c-3.5,4-5.3,15.6-5.6,29.5c0,1.5,1.2,2.7,2.7,2.7h12.2c1.5,0,2.7-1.2,2.7-2.7
			c-0.2-9.4-1.5-17.7-3.3-23.4C626.4,218.6,622.9,216.2,619,216.2z"/>
		<path class="st17" d="M624.5,218c-1.5-1.2-3.4-1.9-5.5-1.9c-0.3,0.4-0.7,0.9-1,1.4l-0.7,8.2C617.4,225.7,622.9,227.6,624.5,218z"
			/>
		
			<ellipse transform="matrix(0.1361 -0.9907 0.9907 0.1361 316.4762 803.1962)" class="st21" cx="618.8" cy="220.1" rx="5.9" ry="2.9"/>
		<path class="st17" d="M624.6,218.1c0.3,6.1,0.9,20.5,0.3,30.3h3.3c1.5,0,2.7-1.2,2.7-2.7c-0.2-9.4-1.5-17.7-3.3-23.4
			C627,220.6,626,219.2,624.6,218.1z"/>
	</g>
	<path class="st13" d="M650.4,178c-2.5,0.5-4.1,3.8-4.5,6.3c-0.2,1.2-1.5,4.3-2,4.9c-0.7,0.8,0.9,2.3,2.7,0.7s0.9-3.3,2.4-3.1
		c1,0.2,0.7,2.1,0.6,2.8c-0.2,1.6-0.7,3-1.3,4.5c-0.3,0.7-1.7,4.4-0.1,4.5c0.5,0,1-0.7,1.2-1c1.1-1.4,1.4-2.6,2.6-3.9
		c2.3-2.5,3-6.5,2.9-9.7c0-1.2-0.1-2.5-0.4-3.7c-0.1-0.5-0.8-1.8-1.4-2C652.2,178,651,177.9,650.4,178z"/>
	<g>
		
			<radialGradient id="SVGID_12_" cx="857.2996" cy="199.2392" r="14.5089" gradientTransform="matrix(0.7056 1.3144 1.3144 -0.7056 -193.3746 -807.7703)" gradientUnits="userSpaceOnUse">
			<stop  offset="0.1534" style="stop-color:#FFFFFF"/>
			<stop  offset="0.4635" style="stop-color:#FDFEFF"/>
			<stop  offset="0.636" style="stop-color:#F5FBFF"/>
			<stop  offset="0.7747" style="stop-color:#E7F5FF"/>
			<stop  offset="0.8947" style="stop-color:#D3ECFF"/>
			<stop  offset="1" style="stop-color:#BBE2FF"/>
		</radialGradient>
		<path class="st23" d="M661.8,164.4c2.3-2.6,5.8-3.8,9.1-3.1c4.7,1,10.9,2.7,11.7,5.3c1.3,3.9-22.4,14-26.6,15.8
			c-0.5,0.2-1,0.2-1.5,0c-0.9-0.4-2.4-1.3-3.6-3.2c-0.5-0.7-0.4-1.7,0.1-2.4L661.8,164.4z"/>
		<path class="st17" d="M651.9,180.5c7.9-10.6,19-15.6,25.1-17.6c-1.9-0.6-4.1-1.2-6-1.6c-3.4-0.7-6.9,0.5-9.1,3.1l-10.8,12.4
			c-0.6,0.7-0.6,1.6-0.1,2.4C651.2,179.7,651.5,180.1,651.9,180.5z"/>
	</g>
	<g>
		
			<radialGradient id="SVGID_13_" cx="736.3317" cy="208.3631" r="9.3677" gradientTransform="matrix(1.4918 0 0 -1.4918 -482.9994 564.7184)" gradientUnits="userSpaceOnUse">
			<stop  offset="0.1534" style="stop-color:#FFFFFF"/>
			<stop  offset="0.4635" style="stop-color:#FDFEFF"/>
			<stop  offset="0.636" style="stop-color:#F5FBFF"/>
			<stop  offset="0.7747" style="stop-color:#E7F5FF"/>
			<stop  offset="0.8947" style="stop-color:#D3ECFF"/>
			<stop  offset="1" style="stop-color:#BBE2FF"/>
		</radialGradient>
		<path class="st24" d="M609.5,258.2h21.3c1.2,0,2.2-1.1,2-2.3c-0.6-5-2.8-8.2-2.8-8.2s-3.7,0.6-5.7,0c-3.3-0.9-5.3-3-8.5-2.1
			c-2.1,0.6-6.8,4.1-8.3,10C607.2,257,608.1,258.2,609.5,258.2z"/>
		<path class="st17" d="M623.2,258.2h7.5c1.2,0,2.2-1.1,2-2.3c-0.6-5-2.8-8.2-2.8-8.2s-3.7,0.6-5.7,0c-3.3-0.9-5.3-3-8.5-2.1
			c-0.8,0.2-1.9,0.9-3.1,1.9c6.4-1.8,9.9-0.3,11.9,4.3C627.2,258.2,623.2,258.2,623.2,258.2z"/>
		
			<ellipse transform="matrix(0.9747 -0.2236 0.2236 0.9747 -40.2141 147.2486)" class="st13" cx="630.1" cy="251.2" rx="2.7" ry="4.2"/>
	</g>
	<g>
		
			<radialGradient id="SVGID_14_" cx="771.2425" cy="207.5516" r="9.1199" gradientTransform="matrix(1.4918 0 -0.2568 -1.4918 -431.534 564.7185)" gradientUnits="userSpaceOnUse">
			<stop  offset="0.1534" style="stop-color:#FFFFFF"/>
			<stop  offset="0.4635" style="stop-color:#FDFEFF"/>
			<stop  offset="0.636" style="stop-color:#F5FBFF"/>
			<stop  offset="0.7747" style="stop-color:#E7F5FF"/>
			<stop  offset="0.8947" style="stop-color:#D3ECFF"/>
			<stop  offset="1" style="stop-color:#BBE2FF"/>
		</radialGradient>
		<path class="st25" d="M673.1,258.2h-21.3c-1.2,0-2.3-1.1-2.4-2.3c-0.3-5,1.4-8.2,1.4-8.2s3.8,0.6,5.7,0c3.2-0.9,4.8-3,8.1-2.1
			c2.2,0.6,8.2,3.2,10,10C675,257,674.4,258.2,673.1,258.2z"/>
		<path class="st17" d="M656.3,254.8c-2.1-3.4,3.2-8.3,3.2-8.3l0,0c-0.9,0.5-1.9,1-3.1,1.3c-1.9,0.5-5.7,0-5.7,0s-1.7,3.1-1.4,8.2
			c0.1,1.2,1.2,2.3,2.4,2.3H664C664.1,258.2,658.4,258.2,656.3,254.8z"/>
		
			<ellipse transform="matrix(0.9975 -7.076999e-02 7.076999e-02 0.9975 -16.1444 46.7224)" class="st13" cx="651.3" cy="251.2" rx="2.7" ry="4.1"/>
	</g>
	<path class="st13" d="M582.1,148.1c-0.8-2.3-2.6-4-3.9-6.2c-0.4-0.8-0.9-1.6-1.2-2.4c-0.4-1-0.8-2.1-2.1-1.5
		c-2.4,1.1-0.5,3.8-0.5,5.6c0,0.3,0,0.6-0.2,0.8c-0.2,0.3-0.6,0.5-0.9,0.5c-1.3,0.1-3.5-0.3-4.8-0.4c-1.5-0.1-3-0.3-4.5-0.4
		c-0.9-0.1-1.8-0.2-2.7,0.1s-1.6,1-1.6,1.9c0,1,0.8,1.7,1.6,2.3c2,1.5,4.2,2.4,6.3,3.7c2.9,1.7,6.3,4.6,9.7,4.7
		c3.5,0.2,5.5-3.2,5.3-6.4C582.5,149.5,582.4,148.8,582.1,148.1z"/>
	<g>
		
			<radialGradient id="SVGID_15_" cx="745.098" cy="279.1596" r="21.3842" gradientTransform="matrix(1.4918 0 0 -1.4918 -482.9994 564.7184)" gradientUnits="userSpaceOnUse">
			<stop  offset="0.1534" style="stop-color:#FFFFFF"/>
			<stop  offset="0.4635" style="stop-color:#FDFEFF"/>
			<stop  offset="0.636" style="stop-color:#F5FBFF"/>
			<stop  offset="0.7747" style="stop-color:#E7F5FF"/>
			<stop  offset="0.8947" style="stop-color:#D3ECFF"/>
			<stop  offset="1" style="stop-color:#BBE2FF"/>
		</radialGradient>
		<path class="st26" d="M655.6,155c0,12-9.8,25.3-21.8,25.3S612,167,612,155s9.8-21.8,21.8-21.8S655.6,142.9,655.6,155z"/>
		<path class="st17" d="M633.8,173.8c-11.5,0-20.9-10.5-21.7-20.5c0,0.5-0.1,1.1-0.1,1.6c0,12,9.8,25.3,21.8,25.3
			s21.8-13.3,21.8-25.3c0-0.5,0-1.1-0.1-1.6C654.7,163.4,645.3,173.8,633.8,173.8z"/>
		<g class="st19">
			<path class="st17" d="M645.5,175.7c-0.2,0-0.4-0.2-0.4-0.4v-38.2c0-0.2,0.2-0.4,0.4-0.4s0.4,0.2,0.4,0.4v38.2
				C645.9,175.5,645.7,175.7,645.5,175.7z"/>
		</g>
		<path class="st13" d="M633.8,140.2L633.8,140.2c-3.6,0-6.6-3-6.6-6.6v-5.2h13.2v5.2C640.4,137.2,637.4,140.2,633.8,140.2z"/>
		<path class="st17" d="M625.7,134.7c0,0.1,0,0.2,0,0.3c0,4.5,3.6,8.1,8.1,8.1s8.1-3.6,8.1-8.1c0-0.1,0-0.2,0-0.3
			c-2.5-1-5.2-1.6-8.1-1.6C630.9,133.2,628.2,133.7,625.7,134.7z"/>
		<g>
			<ellipse class="st27" cx="645.5" cy="149.6" rx="2.6" ry="3.9"/>
			<path class="st17" d="M645.5,153.8c-1.7,0-3-1.9-3-4.3c0-2.4,1.4-4.3,3-4.3c1.7,0,3,1.9,3,4.3S647.1,153.8,645.5,153.8z
				 M645.5,146.1c-1.2,0-2.2,1.6-2.2,3.5s1,3.5,2.2,3.5s2.2-1.6,2.2-3.5S646.7,146.1,645.5,146.1z"/>
		</g>
	</g>
	<g>
		
			<ellipse transform="matrix(0.1538 -0.9881 0.9881 0.1538 499.5331 745.5429)" class="st13" cx="685" cy="81.1" rx="29.1" ry="14"/>
		<path class="st27" d="M689.1,106.2c0.7-0.8,1.5-1.6,2.1-2.6l6.3-42.7c-0.4-1.1-0.8-2.1-1.3-3L689.1,106.2z"/>
		
			<ellipse transform="matrix(0.9914 -0.1307 0.1307 0.9914 -5.6207 76.75)" class="st13" cx="581.9" cy="81.2" rx="14.1" ry="29.1"/>
		<path class="st27" d="M569.8,60.6l5.3,42.9c0.7,1,1.4,1.8,2.1,2.6l-5.9-48.4C570.7,58.6,570.3,59.6,569.8,60.6z"/>
		
			<radialGradient id="SVGID_16_" cx="749.1561" cy="335.1601" r="53.85" gradientTransform="matrix(1.4918 0 0 -1.4638 -482.9993 554.7529)" gradientUnits="userSpaceOnUse">
			<stop  offset="0.1534" style="stop-color:#FFFFFF"/>
			<stop  offset="0.4635" style="stop-color:#FDFEFF"/>
			<stop  offset="0.636" style="stop-color:#F5FBFF"/>
			<stop  offset="0.7747" style="stop-color:#E7F5FF"/>
			<stop  offset="0.8947" style="stop-color:#D3ECFF"/>
			<stop  offset="1" style="stop-color:#BBE2FF"/>
		</radialGradient>
		<path class="st28" d="M691.5,55.7c0-25-25.8-45.3-57.7-45.3s-57.7,20.3-57.7,45.3c0,0.7,0,1.4,0.1,2.1l0,0l0.1,0.9
			c0.1,1,0.2,2.1,0.4,3.1l3,23.8l2.7,21.1c0.9,6.8,4.8,12.9,10.7,16.6c10.4,6.5,24.9,10.5,40.8,10.5c15.2,0,29-3.7,39.3-9.6
			c6.1-3.5,10.2-9.6,11.2-16.5l6.5-44.9c0.3-1.6,0.5-3.3,0.6-4.9l0,0l0,0C691.5,57.1,691.5,56.4,691.5,55.7z"/>
		<g class="st19">
			<path class="st17" d="M633.8,37c-8.6,0-15.7-6.9-15.7-15.4V12c0-0.2,0.2-0.4,0.4-0.4s0.4,0.2,0.4,0.4v9.6c0,8,6.7,14.6,14.9,14.6
				s14.9-6.5,14.9-14.6V12c0-0.2,0.2-0.4,0.4-0.4s0.4,0.2,0.4,0.4v9.6C649.4,30.1,642.4,37,633.8,37z"/>
		</g>
		<g class="st19">
			<path class="st17" d="M670.2,126.1C670.2,126.1,670.1,126.1,670.2,126.1c-0.2,0-0.4-0.2-0.4-0.4c1.5-20.8,5.3-70.1,7.2-78.9
				c2-9.8,7.7-12.3,7.9-12.4c0.2-0.1,0.4,0,0.5,0.2s0,0.4-0.2,0.5l0,0c-0.1,0-5.5,2.4-7.4,11.8c-1.8,8.8-5.6,58-7.1,78.8
				C670.6,126,670.4,126.1,670.2,126.1z"/>
		</g>
		<g class="st19">
			<path class="st17" d="M596.6,125.7c-0.2,0-0.4-0.2-0.4-0.4c-1.5-20.7-5.3-69.6-7.1-78.4c-2-9.4-6.8-11.5-6.9-11.5
				c-0.2-0.1-0.3-0.3-0.2-0.5s0.3-0.3,0.5-0.2s5.3,2.3,7.3,12.1c1.8,8.8,5.6,57.8,7.1,78.5C597,125.5,596.8,125.7,596.6,125.7
				L596.6,125.7z"/>
		</g>
		<g>
			<path class="st13" d="M603,66c-9.4,0-16.7,8.2-15.5,17.5l0,0l2.7,21.6c0.6,4.6,3.2,8.7,7.1,11.2c9.6,6.1,22.6,9.5,36.5,9.5
				c13.2,0,25.8-3.1,35.3-8.7c4-2.4,6.7-6.4,7.4-11.1l3.1-22.1c1.3-9.4-6-17.8-15.5-17.8L603,66L603,66z"/>
			<path class="st17" d="M633.8,126.6c-14,0-27.2-3.4-36.9-9.6c-4.1-2.6-6.9-6.9-7.5-11.8l-2.7-21.6c-0.6-4.7,0.9-9.4,4-12.9
				s7.6-5.5,12.3-5.5h61.1c4.8,0,9.3,2.1,12.4,5.7c3.1,3.6,4.5,8.4,3.9,13.1l-3.1,22.1c-0.7,4.9-3.5,9.2-7.7,11.7
				C659.8,123.5,647.2,126.6,633.8,126.6z M603,66.8c-4.2,0-8.3,1.8-11.1,5s-4.1,7.4-3.6,11.6L591,105c0.5,4.4,3,8.2,6.7,10.6
				c9.5,6,22.3,9.3,36.1,9.3c13.1,0,25.5-3.1,34.9-8.6c3.8-2.2,6.3-6.1,7-10.5l3.1-22.1c0.6-4.3-0.7-8.6-3.5-11.8s-6.9-5.1-11.2-5.1
				H603z"/>
		</g>
		<path class="st17" d="M688.6,41.6c1.7,10.2-5.3,40.6-6.7,55.3c-1.6,16.1-7.1,32.8-48.1,32.8s-50.4-18.3-50.4-18.3
			c1.7,4.9,5.1,9.1,9.6,11.9c10.4,6.5,24.9,10.5,40.8,10.5c15.2,0,29-3.7,39.3-9.6c6.1-3.5,10.2-9.6,11.2-16.5l6.5-44.9
			c0.3-1.6,0.5-3.3,0.6-4.9l0,0l0,0c0-0.7,0.1-1.4,0.1-2.1C691.5,50.7,690.5,46,688.6,41.6z"/>
		<g>
			<circle class="st27" cx="609.3" cy="90.8" r="7.1"/>
			<circle class="st27" cx="657.8" cy="88.7" r="7.1"/>
		</g>
		<path class="st27" d="M626.7,100c-0.8,0-1.3,0.8-1,1.5c0.7,1.8,2.6,4.6,7.4,4.6c4.5,0,6.3-2.9,7-4.7c0.3-0.7-0.3-1.4-1-1.4H626.7
			L626.7,100z"/>
	</g>
</g>
<g>
	<g>
		<g>
			<path class="st29" d="M904.2,221.2c-0.8,2.2-1.6,4.3-2.4,6.4c-0.4,1.1-0.9,2.1-1.4,3.2c-0.2,0.5-0.5,1.1-0.8,1.6
				s-0.6,1.1-0.9,1.6c-0.4,0.6-1.3,0.8-1.9,0.4c-0.6-0.4-0.8-1.2-0.4-1.8v-0.1c0.4-0.8,0.9-1.8,1.3-2.8c0.4-1,0.7-2.1,1.1-3.1
				c0.7-2.1,1.3-4.3,2-6.4l0,0c0.3-1,1.3-1.6,2.3-1.3s1.6,1.3,1.3,2.3C904.2,221.2,904.2,221.2,904.2,221.2z"/>
		</g>
	</g>
	<g>
		
			<radialGradient id="SVGID_17_" cx="727.5912" cy="290.8553" r="11.5065" gradientTransform="matrix(0.7401 -0.5614 -0.5615 -0.7402 513.7421 854.1266)" gradientUnits="userSpaceOnUse">
			<stop  offset="0.1534" style="stop-color:#FFFFFF"/>
			<stop  offset="0.4635" style="stop-color:#FDFEFF"/>
			<stop  offset="0.636" style="stop-color:#F5FBFF"/>
			<stop  offset="0.7747" style="stop-color:#E7F5FF"/>
			<stop  offset="0.8947" style="stop-color:#D3ECFF"/>
			<stop  offset="1" style="stop-color:#BBE2FF"/>
		</radialGradient>
		<path class="st30" d="M898.9,231.9c0.9,1.4,0.5,6.7-1.6,7.8c-2.9,1.5-6.3,3-7.6,3.6c-0.3,0.1-0.6,0-0.8-0.2L888,242
			c-0.2-0.3-0.2-0.6,0-0.9c1.7-2.4,3.8-4.9,5.2-6.7C894.4,232.6,897.6,230,898.9,231.9z"/>
		<path class="st17" d="M888.8,242.8l-0.4-0.5c6.7-1.9,9.8-5.8,10.6-7.8c-0.1,1.9-0.7,4.2-2,4.9c-2.8,1.4-6.1,2.9-7.4,3.5
			C889.3,243.2,889,243.1,888.8,242.8z"/>
	</g>
	<g>
		<path class="st29" d="M884.1,243c0.6-0.4,2.3-0.7,3.1-0.7c1.9-0.2,3,1,2,2.3c-0.4,0.6-1.4,0.7-2.7,0c-0.1-0.1-1-0.1-2.2,0.1
			c-1.4,0.2-2.5,0.9-2.9,0.2C881.1,244.4,882.9,243.8,884.1,243z"/>
		<path class="st29" d="M887.3,245.7c1-0.1,2,0.1,2.1-0.3s-0.8-2-1.7-1.5c-1.3,0.7-2.6,0.9-2.6,1.9
			C885.1,246.4,886.3,245.8,887.3,245.7z"/>
	</g>
	
		<radialGradient id="SVGID_18_" cx="2086.9177" cy="-10801.6992" r="141.1337" gradientTransform="matrix(8.710000e-02 0 0 -2.100000e-02 711.2295 18.6848)" gradientUnits="userSpaceOnUse">
		<stop  offset="0" style="stop-color:#ABABAB"/>
		<stop  offset="1" style="stop-color:#FFFFFF"/>
	</radialGradient>
	<path class="st31" d="M905.3,245.4c0,1.6-5.5,3-12.3,3s-12.3-1.3-12.3-3c0-1.6,5.5-3,12.3-3S905.3,243.8,905.3,245.4z"/>
	
		<radialGradient id="SVGID_19_" cx="2566.3916" cy="-10801.6992" r="141.0814" gradientTransform="matrix(8.710000e-02 0 0 -2.100000e-02 711.2295 18.6848)" gradientUnits="userSpaceOnUse">
		<stop  offset="0" style="stop-color:#ABABAB"/>
		<stop  offset="1" style="stop-color:#FFFFFF"/>
	</radialGradient>
	<path class="st32" d="M947.1,245.4c0,1.6-5.5,3-12.3,3s-12.3-1.3-12.3-3c0-1.6,5.5-3,12.3-3C941.6,242.5,947.1,243.8,947.1,245.4z"
		/>
	
		<radialGradient id="SVGID_20_" cx="2355.5684" cy="-11029.5547" r="140.4317" gradientTransform="matrix(7.880000e-02 0 0 -2.000000e-02 712.0434 35.5985)" gradientUnits="userSpaceOnUse">
		<stop  offset="0" style="stop-color:#41A4FE"/>
		<stop  offset="1" style="stop-color:#46DCFF;stop-opacity:0.9"/>
	</radialGradient>
	<ellipse class="st33" cx="897.7" cy="256.1" rx="11.1" ry="2.8"/>
	
		<radialGradient id="SVGID_21_" cx="2731.2031" cy="-11027.5068" r="141.0965" gradientTransform="matrix(7.880000e-02 0 0 -2.000000e-02 712.0434 35.5985)" gradientUnits="userSpaceOnUse">
		<stop  offset="0" style="stop-color:#41A4FE"/>
		<stop  offset="1" style="stop-color:#46DCFF"/>
	</radialGradient>
	<ellipse class="st34" cx="927.3" cy="256.1" rx="11.1" ry="2.8"/>
	
		<radialGradient id="SVGID_22_" cx="1727.3427" cy="-12389.9258" r="140.9847" gradientTransform="matrix(6.280000e-02 6.380000e-02 1.890000e-02 -1.870000e-02 1048.6119 -92.3142)" gradientUnits="userSpaceOnUse">
		<stop  offset="0.2037" style="stop-color:#ABABAB"/>
		<stop  offset="0.3198" style="stop-color:#BCBCBC"/>
		<stop  offset="0.6123" style="stop-color:#E0E0E0"/>
		<stop  offset="0.8495" style="stop-color:#F7F7F7"/>
		<stop  offset="1" style="stop-color:#FFFFFF"/>
	</radialGradient>
	<path class="st35" d="M931.8,258.5c-0.7,0.7-5.9-0.7-11.5-6.4c-4.9-5-7.7-10.2-6.2-11.6c1.5-1.5,6.6,1.4,11.5,6.4
		C930.5,251.8,933.3,257,931.8,258.5z"/>
	
		<radialGradient id="SVGID_23_" cx="1492.7688" cy="-13222.3125" r="140.9947" gradientTransform="matrix(-6.280000e-02 6.380000e-02 -1.890000e-02 -1.870000e-02 747.1488 -92.3142)" gradientUnits="userSpaceOnUse">
		<stop  offset="0.2037" style="stop-color:#ABABAB"/>
		<stop  offset="0.3198" style="stop-color:#BCBCBC"/>
		<stop  offset="0.6123" style="stop-color:#E0E0E0"/>
		<stop  offset="0.8495" style="stop-color:#F7F7F7"/>
		<stop  offset="1" style="stop-color:#FFFFFF"/>
	</radialGradient>
	<path class="st36" d="M894.5,259.1c1.5,1.5,6.6-1.4,11.5-6.4c5.6-5.7,8.4-9.5,6.2-11.6c-1.5-1.5-6.6,1.4-11.5,6.4
		C895.8,252.4,893,257.6,894.5,259.1z"/>
	
		<radialGradient id="SVGID_24_" cx="2257.8857" cy="-11468.0986" r="141.0199" gradientTransform="matrix(0.1104 0 0 -2.660000e-02 663.7873 -64.2515)" gradientUnits="userSpaceOnUse">
		<stop  offset="0.2037" style="stop-color:#ABABAB"/>
		<stop  offset="0.3198" style="stop-color:#BCBCBC"/>
		<stop  offset="0.6123" style="stop-color:#E0E0E0"/>
		<stop  offset="0.8495" style="stop-color:#F7F7F7"/>
		<stop  offset="1" style="stop-color:#FFFFFF"/>
	</radialGradient>
	<path class="st37" d="M928.7,240.7c0,2.1-6.4,3.8-15,3.8s-16.1-1.7-16.1-3.8s7-3.8,15.6-3.8S928.7,238.6,928.7,240.7z"/>
	<g>
		<g>
			<path class="st29" d="M927.2,222.5c0.3,2,0.6,4,1,6c0.2,1,0.4,2,0.6,3c0.2,1,0.5,2,0.7,2.8v0.1c0.3,0.7-0.1,1.5-0.9,1.8
				c-0.7,0.2-1.4-0.1-1.7-0.8c-0.5-1.1-0.8-2.1-1.1-3.1s-0.6-2-0.9-3c-0.5-2-1-4-1.5-6.1c-0.2-1,0.4-2,1.4-2.2s2,0.4,2.2,1.4
				C927.2,222.4,927.2,222.4,927.2,222.5L927.2,222.5z"/>
		</g>
	</g>
	<g>
		
			<radialGradient id="SVGID_25_" cx="2381.7966" cy="-1246.3241" r="39.7378" gradientTransform="matrix(-0.158 6.260000e-02 -6.260000e-02 -0.158 1195.7242 -128.8283)" gradientUnits="userSpaceOnUse">
			<stop  offset="0.1534" style="stop-color:#FFFFFF"/>
			<stop  offset="0.4635" style="stop-color:#FDFEFF"/>
			<stop  offset="0.636" style="stop-color:#F5FBFF"/>
			<stop  offset="0.7747" style="stop-color:#E7F5FF"/>
			<stop  offset="0.8947" style="stop-color:#D3ECFF"/>
			<stop  offset="1" style="stop-color:#BBE2FF"/>
		</radialGradient>
		<path class="st38" d="M898.1,224.2c1.2,0.7,2.9-0.6,4.6-3c1.6-2.4,2.5-4.7,1.4-5.7c-1.2-1-3.8,0.2-5.5,2.6
			S896.8,223.4,898.1,224.2z"/>
		<path class="st17" d="M898,224c-0.2-0.1-0.4-0.3-0.5-0.5c2.4,1.8,7.9-7.3,5.2-8.2l0,0c0.4,0,0.7,0.1,1,0.3
			c1.1,0.9,0.3,3.2-1.3,5.5C900.8,223.4,899.2,224.6,898,224z"/>
	</g>
	<g>
		
			<radialGradient id="SVGID_26_" cx="2183.9221" cy="-1338.8157" r="39.7142" gradientTransform="matrix(0.1437 9.090000e-02 9.090000e-02 -0.1437 738.4595 -170.6093)" gradientUnits="userSpaceOnUse">
			<stop  offset="0.1534" style="stop-color:#FFFFFF"/>
			<stop  offset="0.4635" style="stop-color:#FDFEFF"/>
			<stop  offset="0.636" style="stop-color:#F5FBFF"/>
			<stop  offset="0.7747" style="stop-color:#E7F5FF"/>
			<stop  offset="0.8947" style="stop-color:#D3ECFF"/>
			<stop  offset="1" style="stop-color:#BBE2FF"/>
		</radialGradient>
		<path class="st39" d="M928.7,227.1c-1.3,0.5-2.8-1.1-4-3.8s-1.6-5.1-0.3-5.9s3.7,0.9,4.9,3.6C930.5,223.7,930.1,226.6,928.7,227.1
			z"/>
		<path class="st17" d="M928.8,226.9c0.2-0.1,0.4-0.2,0.6-0.4c-2.7,1.4-6.4-8.6-3.6-9l0,0c-0.4-0.1-0.7,0-1,0.1
			c-1.2,0.7-0.8,3.1,0.3,5.6C926.1,225.8,927.6,227.3,928.8,226.9z"/>
	</g>
	<polygon class="st29" points="916.7,237 909.5,237 908.8,231.6 917.4,231.6 	"/>
	
		<radialGradient id="SVGID_27_" cx="912.8212" cy="278.7536" r="5.3831" gradientTransform="matrix(1 0 0 -1 0 514.0942)" gradientUnits="userSpaceOnUse">
		<stop  offset="0.1534" style="stop-color:#FFFFFF"/>
		<stop  offset="0.4635" style="stop-color:#FDFEFF"/>
		<stop  offset="0.636" style="stop-color:#F5FBFF"/>
		<stop  offset="0.7747" style="stop-color:#E7F5FF"/>
		<stop  offset="0.8947" style="stop-color:#D3ECFF"/>
		<stop  offset="1" style="stop-color:#BBE2FF"/>
	</radialGradient>
	<path class="st40" d="M913.1,240.5L913.1,240.5c-3.1,0-5.7-2.4-5.7-5.3l0,0c0-0.6,0.5-1,1.1-1h4.5h4.7c0.6,0,1.1,0.4,1.1,1l0,0
		C918.7,238.1,916.2,240.5,913.1,240.5z"/>
	<path class="st17" d="M912.9,236.4c-1.4,0-2.5,1.1-2.5,2.5v1c0.1,0.1,0.2,0.1,0.4,0.2V239c0-1.2,1-2.1,2.1-2.1c1.2,0,2.1,1,2.1,2.1
		v1.2c0.1,0,0.3-0.1,0.4-0.1V239C915.4,237.5,914.3,236.4,912.9,236.4z"/>
	<path class="st17" d="M917.5,234.2h-0.2c-0.3,1.6-1.7,6.7-6.6,5.7c0.7,0.3,1.5,0.5,2.3,0.5c3,0,5.5-2.3,5.5-5.2
		C918.5,234.6,918,234.2,917.5,234.2z"/>
	
		<radialGradient id="SVGID_28_" cx="899.7094" cy="302.8229" r="12.8509" gradientTransform="matrix(0.9956 9.320000e-02 7.590000e-02 -0.8105 -5.0761 384.5641)" gradientUnits="userSpaceOnUse">
		<stop  offset="0.1534" style="stop-color:#FFFFFF"/>
		<stop  offset="0.4635" style="stop-color:#FDFEFF"/>
		<stop  offset="0.636" style="stop-color:#F5FBFF"/>
		<stop  offset="0.7747" style="stop-color:#E7F5FF"/>
		<stop  offset="0.8947" style="stop-color:#D3ECFF"/>
		<stop  offset="1" style="stop-color:#BBE2FF"/>
	</radialGradient>
	<path class="st41" d="M925.5,222.8c-0.5,5-6.4,11.2-12.9,10.5c-6.5-0.6-11.1-7.8-10.7-12.7c0.5-5,5.9-5.9,12.4-5.3
		C920.8,216,926,217.8,925.5,222.8z"/>
	<path class="st17" d="M902.3,222.7c0.7,4.1,4.9,9.4,10.3,9.9c5.5,0.5,10.6-3.9,12-7.9c-4.1,3.8-8,4.2-11.6,3.8
		C908.7,228,905,226.1,902.3,222.7z"/>
	<path class="st17" d="M914.4,214.9c-1.6-0.1-3.1,0.1-4.3,0.8c0.3,1.6,1.6,3.6,4,3.8c2.6,0.2,4-1.5,4.6-2.9
		C917.6,215.6,916.1,215,914.4,214.9z"/>
	<path class="st29" d="M910.7,215.4c0,0.1,0,0.1,0,0.2c-0.1,1.3,1.4,3.3,3.5,3.5s4-1.5,4.1-2.8l0,0c-1.1-0.8-2.4-1.2-3.9-1.4
		C913.1,214.7,911.8,214.9,910.7,215.4z"/>
	<path class="st17" d="M918.5,216.2c-0.5-0.2-1.1-0.3-1.6-0.4v0.1c1.1,0.2,2.1,1.4,2.7,3.3c1.2,3.8,0.6,10.8-4.3,14.1
		c0.4-0.1,0.8-0.2,1.2-0.3c4.3-3.7,4.8-10.2,3.6-13.9C919.7,217.8,919.2,216.8,918.5,216.2z"/>
	<g>
		<g>
			
				<ellipse transform="matrix(0.4961 -0.8683 0.8683 0.4961 307.2758 928.4118)" class="st29" cx="953.5" cy="199.5" rx="17.1" ry="8.2"/>
			<path class="st27" d="M950.4,214.1c0.6-0.3,1.1-0.6,1.7-1l12.4-22.1c0-0.7,0-1.3-0.1-1.9L950.4,214.1z"/>
			
				<ellipse transform="matrix(0.2316 -0.9728 0.9728 0.2316 516.0074 1009.2638)" class="st29" cx="896.9" cy="178" rx="17.1" ry="8.3"/>
			<path class="st27" d="M894.5,164l-6.1,24.7c0.2,0.7,0.4,1.3,0.6,1.9l6.9-27.9C895.4,163.1,895,163.5,894.5,164z"/>
			
				<radialGradient id="SVGID_29_" cx="1525.467" cy="-568.7312" r="187.6327" gradientTransform="matrix(0.2352 8.980000e-02 8.810000e-02 -0.2308 620.6179 -88.6227)" gradientUnits="userSpaceOnUse">
				<stop  offset="0.1534" style="stop-color:#FFFFFF"/>
				<stop  offset="0.4635" style="stop-color:#FDFEFF"/>
				<stop  offset="0.636" style="stop-color:#F5FBFF"/>
				<stop  offset="0.7747" style="stop-color:#E7F5FF"/>
				<stop  offset="0.8947" style="stop-color:#D3ECFF"/>
				<stop  offset="1" style="stop-color:#BBE2FF"/>
			</radialGradient>
			<path class="st42" d="M962.4,186.8c5.3-13.8-4.7-30.3-22.2-37s-36-1-41.2,12.8c-0.1,0.4-0.3,0.8-0.4,1.2l0,0l-0.1,0.5
				c-0.2,0.6-0.3,1.2-0.4,1.8l-3.3,13.7l-3,12.2c-1,3.9-0.1,8.1,2.4,11.4c4.4,5.8,11.5,11,20.2,14.3c8.3,3.2,16.7,4.1,23.6,3
				c4.1-0.7,7.6-3.2,9.6-6.7l13-23.3c0.5-0.8,1-1.7,1.4-2.6l0,0l0,0C962.1,187.6,962.2,187.2,962.4,186.8z"/>
			<path class="st17" d="M963.3,178.3c-1.2,5.9-11.3,20.9-15.1,28.6c-4.2,8.4-10.6,16.3-33,7.8c-22.3-8.5-23.6-20.4-23.6-20.4
				c-0.1,3,0.9,6,2.8,8.5c4.3,5.7,11.3,10.9,20,14.2c8.3,3.2,16.5,4,23.4,2.9c4.1-0.7,7.5-3.1,9.5-6.6l12.8-23
				c0.5-0.8,1-1.7,1.4-2.6l0,0l0,0c0.2-0.4,0.3-0.7,0.5-1.1C962.9,183.9,963.4,181.1,963.3,178.3z"/>
			<g class="st19">
				<path class="st17" d="M934.6,164.4c-4.7-1.8-7.2-7.1-5.4-11.7l2-5.2l0.5,0.1l-2,5.3c-1.7,4.4,0.6,9.4,5.1,11.1
					c4.5,1.7,9.5-0.5,11.2-4.9l2-5.3l0.4,0.3l-2,5.2C944.6,163.9,939.3,166.3,934.6,164.4z"/>
			</g>
			<g class="st19">
				<path class="st17" d="M935.7,220.9c5.2-11.1,17.7-37.5,20.5-42c3.2-5,6.7-5.1,6.9-5.1l0.1,0.5l0,0c0,0-3.5,0.2-6.6,4.9
					c-2.8,4.4-15.2,30.5-20.4,41.7L935.7,220.9L935.7,220.9z"/>
			</g>
			<g class="st19">
				<path class="st17" d="M895.5,205c3.5-11.7,11.7-39.2,12.5-44.4c0.9-5.6-1.3-7.7-1.4-7.8l0,0l0.4-0.3c0.3,0.3,2.3,2.6,1.5,8.1
					c-0.8,5.2-9.1,33.1-12.6,44.7L895.5,205z"/>
			</g>
			<g>
				<path class="st29" d="M911.1,175.4c-5.2-2-10.9,1-12.2,6.4l0,0l-3.1,12.4c-0.7,2.7-0.1,5.5,1.6,7.6c4,5.4,10.4,9.9,18.1,12.8
					c7.3,2.8,14.8,3.7,21.2,2.6c2.7-0.5,5-2.1,6.4-4.6l6.4-11.5c2.7-4.9,0.5-11-4.8-13L911.1,175.4z"/>
				<path class="st17" d="M915.3,215.1c-7.7-2.9-14.2-7.6-18.3-13c-1.7-2.3-2.3-5.2-1.6-8l3.1-12.4c0.7-2.7,2.4-5,4.9-6.2
					c2.5-1.3,5.3-1.5,7.9-0.5l33.6,12.8c2.6,1,4.7,3.1,5.6,5.7c1,2.6,0.7,5.5-0.6,8l-6.4,11.5c-1.4,2.6-3.9,4.3-6.7,4.8
					C930.2,218.8,922.6,217.9,915.3,215.1z M910.9,175.8c-2.3-0.9-4.9-0.7-7.2,0.4c-2.2,1.2-3.8,3.2-4.4,5.6l-3.1,12.4
					c-0.6,2.5-0.1,5.2,1.5,7.2c4,5.3,10.3,9.8,17.9,12.7c7.2,2.7,14.6,3.7,21,2.6c2.6-0.4,4.8-2,6-4.3l6.4-11.5
					c1.2-2.2,1.4-4.8,0.6-7.2c-0.9-2.4-2.7-4.3-5.1-5.2L910.9,175.8z"/>
			</g>
			<g>
				
					<rect x="903.2" y="194" transform="matrix(0.3567 -0.9342 0.9342 0.3567 399.5695 969.7271)" class="st43" width="1.5" height="1.5"/>
				
					<rect x="905.1" y="193.1" transform="matrix(0.3567 -0.9342 0.9342 0.3567 401.6088 970.9421)" class="st43" width="1.5" height="1.5"/>
				
					<rect x="906.5" y="193.6" transform="matrix(0.3567 -0.9342 0.9342 0.3567 402.0285 972.5598)" class="st43" width="1.5" height="1.5"/>
				
					<rect x="902.5" y="195.3" transform="matrix(0.3567 -0.9342 0.9342 0.3567 397.8296 969.9315)" class="st43" width="1.5" height="1.5"/>
				
					<rect x="903.9" y="195.9" transform="matrix(0.3567 -0.9342 0.9342 0.3567 398.2771 971.6564)" class="st43" width="1.5" height="1.5"/>
				
					<rect x="905.3" y="196.4" transform="matrix(0.3567 -0.9342 0.9342 0.3567 398.6902 973.2914)" class="st43" width="1.5" height="1.5"/>
				
					<rect x="906.8" y="196.9" transform="matrix(0.3567 -0.9342 0.9342 0.3567 399.1345 974.9782)" class="st43" width="1.5" height="1.5"/>
				
					<rect x="904.6" y="189.8" transform="matrix(0.3567 -0.9342 0.9342 0.3567 404.4236 968.3959)" class="st43" width="1.5" height="1.5"/>
				
					<rect x="906" y="190.3" transform="matrix(0.3567 -0.9342 0.9342 0.3567 404.8309 970.0468)" class="st43" width="1.5" height="1.5"/>
				
					<rect x="904.1" y="191.2" transform="matrix(0.3567 -0.9342 0.9342 0.3567 402.7975 968.816)" class="st43" width="1.5" height="1.5"/>
				
					<rect x="903.7" y="192.6" transform="matrix(0.3567 -0.9342 0.9342 0.3567 401.1956 969.307)" class="st43" width="1.5" height="1.5"/>
				
					<rect x="907.3" y="190.8" transform="matrix(0.3567 -0.9342 0.9342 0.3567 405.1893 971.5996)" class="st43" width="1.5" height="1.5"/>
				
					<rect x="908.8" y="191.4" transform="matrix(0.3567 -0.9342 0.9342 0.3567 405.6245 973.3578)" class="st43" width="1.5" height="1.5"/>
				<g>
					
						<rect x="910" y="196.6" transform="matrix(0.3567 -0.9342 0.9342 0.3567 401.5284 977.8029)" class="st43" width="1.5" height="1.5"/>
					
						<rect x="911.9" y="195.7" transform="matrix(0.3567 -0.9342 0.9342 0.3567 403.4991 978.9724)" class="st43" width="1.5" height="1.5"/>
					
						<rect x="913.3" y="196.3" transform="matrix(0.3567 -0.9342 0.9342 0.3567 403.9479 980.6938)" class="st43" width="1.5" height="1.5"/>
					
						<rect x="915.3" y="195.4" transform="matrix(0.3567 -0.9342 0.9342 0.3567 406.0786 981.9333)" class="st43" width="1.5" height="1.5"/>
					
						<rect x="909.6" y="198" transform="matrix(0.3567 -0.9342 0.9342 0.3567 399.9292 978.286)" class="st43" width="1.5" height="1.5"/>
					
						<rect x="915.9" y="194" transform="matrix(0.3567 -0.9342 0.9342 0.3567 407.6994 981.5974)" class="st43" width="1.5" height="1.5"/>
					
						<rect x="914.7" y="196.8" transform="matrix(0.3567 -0.9342 0.9342 0.3567 404.361 982.3293)" class="st43" width="1.5" height="1.5"/>
					
						<rect x="911.6" y="192.4" transform="matrix(0.3567 -0.9342 0.9342 0.3567 406.4604 976.6028)" class="st43" width="1.5" height="1.5"/>
					
						<rect x="913.1" y="193" transform="matrix(0.3567 -0.9342 0.9342 0.3567 406.8663 978.3445)" class="st43" width="1.5" height="1.5"/>
					
						<rect x="911.2" y="193.8" transform="matrix(0.3567 -0.9342 0.9342 0.3567 404.8612 977.0859)" class="st43" width="1.5" height="1.5"/>
					
						<rect x="910.5" y="195.2" transform="matrix(0.3567 -0.9342 0.9342 0.3567 403.1396 977.4229)" class="st43" width="1.5" height="1.5"/>
					
						<rect x="914.5" y="193.5" transform="matrix(0.3567 -0.9342 0.9342 0.3567 407.2796 979.9797)" class="st43" width="1.5" height="1.5"/>
				</g>
				<g>
					
						<rect x="917.1" y="199.3" transform="matrix(0.3567 -0.9342 0.9342 0.3567 403.5513 986.1343)" class="st43" width="1.5" height="1.5"/>
					
						<rect x="919" y="198.4" transform="matrix(0.3567 -0.9342 0.9342 0.3567 405.5999 987.3237)" class="st43" width="1.5" height="1.5"/>
					
						<rect x="920.3" y="198.9" transform="matrix(0.3567 -0.9342 0.9342 0.3567 405.9709 988.938)" class="st43" width="1.5" height="1.5"/>
					
						<rect x="922.3" y="198.1" transform="matrix(0.3567 -0.9342 0.9342 0.3567 408.0185 990.2175)" class="st43" width="1.5" height="1.5"/>
					
						<rect x="916.3" y="200.6" transform="matrix(0.3567 -0.9342 0.9342 0.3567 401.8196 986.3162)" class="st43" width="1.5" height="1.5"/>
					
						<rect x="919.7" y="200.3" transform="matrix(0.3567 -0.9342 0.9342 0.3567 404.2997 989.274)" class="st43" width="1.5" height="1.5"/>
					
						<rect x="920.6" y="202.3" transform="matrix(0.3567 -0.9342 0.9342 0.3567 403.0095 991.3076)" class="st43" width="1.5" height="1.5"/>
					
						<rect x="918.5" y="195.1" transform="matrix(0.3567 -0.9342 0.9342 0.3567 408.4014 984.8141)" class="st43" width="1.5" height="1.5"/>
					
						<rect x="919.9" y="195.6" transform="matrix(0.3567 -0.9342 0.9342 0.3567 408.8104 986.4608)" class="st43" width="1.5" height="1.5"/>
					
						<rect x="918" y="196.5" transform="matrix(0.3567 -0.9342 0.9342 0.3567 406.7796 985.2229)" class="st43" width="1.5" height="1.5"/>
					
						<rect x="917.5" y="197.9" transform="matrix(0.3567 -0.9342 0.9342 0.3567 405.1547 985.6402)" class="st43" width="1.5" height="1.5"/>
					
						<rect x="921.2" y="196.1" transform="matrix(0.3567 -0.9342 0.9342 0.3567 409.171 988.007)" class="st43" width="1.5" height="1.5"/>
				</g>
				
					<rect x="923.9" y="201.9" transform="matrix(0.3567 -0.9342 0.9342 0.3567 405.5131 994.2024)" class="st43" width="1.5" height="1.5"/>
				
					<rect x="928.6" y="202.1" transform="matrix(0.3567 -0.9342 0.9342 0.3567 408.3516 998.7133)" class="st43" width="1.5" height="1.5"/>
				
					<rect x="924.8" y="203.8" transform="matrix(0.3567 -0.9342 0.9342 0.3567 404.3369 996.2947)" class="st43" width="1.5" height="1.5"/>
				
					<rect x="926.1" y="204.4" transform="matrix(0.3567 -0.9342 0.9342 0.3567 404.5906 997.7877)" class="st43" width="1.5" height="1.5"/>
				
					<rect x="926.9" y="198.3" transform="matrix(0.3567 -0.9342 0.9342 0.3567 410.8257 994.6776)" class="st43" width="1.5" height="1.5"/>
				
					<rect x="925" y="199.1" transform="matrix(0.3567 -0.9342 0.9342 0.3567 408.812 993.4418)" class="st43" width="1.5" height="1.5"/>
				
					<rect x="924.4" y="200.5" transform="matrix(0.3567 -0.9342 0.9342 0.3567 407.1449 993.7668)" class="st43" width="1.5" height="1.5"/>
				
					<rect x="928.4" y="198.8" transform="matrix(0.3567 -0.9342 0.9342 0.3567 411.2697 996.3647)" class="st43" width="1.5" height="1.5"/>
				
					<rect x="929.1" y="200.7" transform="matrix(0.3567 -0.9342 0.9342 0.3567 409.9705 998.3121)" class="st43" width="1.5" height="1.5"/>
				
					<rect x="928.2" y="203.5" transform="matrix(0.3567 -0.9342 0.9342 0.3567 406.7552 999.1887)" class="st43" width="1.5" height="1.5"/>
				
					<rect x="912.9" y="197.7" transform="matrix(0.3567 -0.9342 0.9342 0.3567 402.3465 981.1831)" class="st43" width="1.5" height="1.5"/>
				
					<rect x="913.6" y="199.6" transform="matrix(0.3567 -0.9342 0.9342 0.3567 401.047 983.1306)" class="st43" width="1.5" height="1.5"/>
				
					<rect x="922.7" y="196.7" transform="matrix(0.3567 -0.9342 0.9342 0.3567 409.6177 989.7347)" class="st43" width="1.5" height="1.5"/>
				
					<rect x="921.5" y="199.4" transform="matrix(0.3567 -0.9342 0.9342 0.3567 406.2827 990.4098)" class="st43" width="1.5" height="1.5"/>
				<g>
					
						<rect x="930.7" y="204.5" transform="matrix(0.3567 -0.9342 0.9342 0.3567 407.435 1002.283)" class="st43" width="1.5" height="1.5"/>
					
						<rect x="932.8" y="203.7" transform="matrix(0.3567 -0.9342 0.9342 0.3567 409.5561 1003.6651)" class="st43" width="1.5" height="1.5"/>
					
						<rect x="934.2" y="204.2" transform="matrix(0.3567 -0.9342 0.9342 0.3567 410.0067 1005.3356)" class="st43" width="1.5" height="1.5"/>
					
						<rect x="936.1" y="203.4" transform="matrix(0.3567 -0.9342 0.9342 0.3567 411.9744 1006.5592)" class="st43" width="1.5" height="1.5"/>
					
						<rect x="930.3" y="206" transform="matrix(0.3567 -0.9342 0.9342 0.3567 405.793 1002.7456)" class="st43" width="1.5" height="1.5"/>
					
						<rect x="933.6" y="205.6" transform="matrix(0.3567 -0.9342 0.9342 0.3567 408.2969 1005.6398)" class="st43" width="1.5" height="1.5"/>
					
						<rect x="934.6" y="207.6" transform="matrix(0.3567 -0.9342 0.9342 0.3567 407.0718 1007.8151)" class="st43" width="1.5" height="1.5"/>
					
						<rect x="932.4" y="200.4" transform="matrix(0.3567 -0.9342 0.9342 0.3567 412.3885 1001.2066)" class="st43" width="1.5" height="1.5"/>
					
						<rect x="933.8" y="200.9" transform="matrix(0.3567 -0.9342 0.9342 0.3567 412.8146 1002.8074)" class="st43" width="1.5" height="1.5"/>
					
						<rect x="931.9" y="201.8" transform="matrix(0.3567 -0.9342 0.9342 0.3567 410.7697 1001.6076)" class="st43" width="1.5" height="1.5"/>
					
						<rect x="931.5" y="203.2" transform="matrix(0.3567 -0.9342 0.9342 0.3567 409.1735 1002.0827)" class="st43" width="1.5" height="1.5"/>
					
						<rect x="935.2" y="201.5" transform="matrix(0.3567 -0.9342 0.9342 0.3567 413.1825 1004.5172)" class="st43" width="1.5" height="1.5"/>
				</g>
				
					<rect x="936.6" y="202" transform="matrix(0.3567 -0.9342 0.9342 0.3567 413.6024 1006.134)" class="st43" width="1.5" height="1.5"/>
				
					<rect x="935.5" y="204.8" transform="matrix(0.3567 -0.9342 0.9342 0.3567 410.2614 1006.8255)" class="st43" width="1.5" height="1.5"/>
				
					<rect x="929.7" y="199.3" transform="matrix(0.3567 -0.9342 0.9342 0.3567 411.6417 997.9763)" class="st43" width="1.5" height="1.5"/>
				
					<rect x="925.5" y="197.8" transform="matrix(0.3567 -0.9342 0.9342 0.3567 410.4122 993.0425)" class="st43" width="1.5" height="1.5"/>
				
					<rect x="927.5" y="204.9" transform="matrix(0.3567 -0.9342 0.9342 0.3567 405.0434 999.4991)" class="st43" width="1.5" height="1.5"/>
				
					<rect x="923.4" y="203.3" transform="matrix(0.3567 -0.9342 0.9342 0.3567 403.8853 994.6274)" class="st43" width="1.5" height="1.5"/>
			</g>
		</g>
	</g>
	<path class="st17" d="M922,225c-0.1,1-1,1.8-2,1.7s-1.8-1-1.7-2s1-1.8,2-1.7C921.4,223.1,922.1,224,922,225z"/>
	<path class="st27" d="M920,226.2c-0.8-0.1-1.3-0.7-1.2-1.5s0.7-1.3,1.5-1.2s1.3,0.7,1.2,1.5C921.5,225.8,920.8,226.3,920,226.2z"/>
	<g>
		<g>
			<path class="st29" d="M909.8,240.3c-0.6,0.5-1.2,0.9-1.8,1.4c-0.3,0.2-0.7,0.4-1,0.6c-0.2,0.1-0.4,0.2-0.6,0.3
				c-0.1,0-0.2,0.1-0.3,0.1l-0.2,0.1l-0.3,0.1c-0.7,0.2-1.4-0.2-1.6-0.8c-0.2-0.7,0.2-1.4,0.8-1.6c-0.1,0,0,0,0,0h0.1l0.2-0.1
				c0.1-0.1,0.2-0.2,0.3-0.3c0.2-0.2,0.4-0.4,0.7-0.6c0.4-0.4,0.9-0.9,1.3-1.4c0.6-0.7,1.6-0.8,2.4-0.3c0.7,0.6,0.8,1.6,0.3,2.4
				C910,240.1,909.9,240.2,909.8,240.3L909.8,240.3z"/>
		</g>
	</g>
	<g>
		
			<radialGradient id="SVGID_30_" cx="907.073" cy="276.5552" r="10.8553" gradientTransform="matrix(0.9223 -5.920000e-02 -5.920000e-02 -0.9223 77.0523 550.1646)" gradientUnits="userSpaceOnUse">
			<stop  offset="0.1534" style="stop-color:#FFFFFF"/>
			<stop  offset="0.4635" style="stop-color:#FDFEFF"/>
			<stop  offset="0.636" style="stop-color:#F5FBFF"/>
			<stop  offset="0.7747" style="stop-color:#E7F5FF"/>
			<stop  offset="0.8947" style="stop-color:#D3ECFF"/>
			<stop  offset="1" style="stop-color:#BBE2FF"/>
		</radialGradient>
		<path class="st44" d="M906.3,240.4c1.7,1.8,0.3,7.5-1.7,9.5c-2,1.9-3.8,1-5.5-0.7c-1.7-1.8-2.5-5.5-0.5-7.4
			C900.5,239.8,904.6,238.6,906.3,240.4z"/>
		<path class="st17" d="M904,245.7c-0.6-3.1-2.5-5-3.1-5.5c-0.6,0.3-1.3,0.6-1.8,1C900.1,242.6,904.7,249,904,245.7z"/>
		<path class="st17" d="M906.6,240.8c-0.1-0.2-0.2-0.3-0.3-0.4c-0.7-0.7-1.6-0.9-2.7-0.8c-0.6,0.4-0.9,1-0.7,1.4
			c0.3,0.7,1.4,0.9,2.5,0.5C905.9,241.3,906.3,241.1,906.6,240.8z"/>
		<path class="st17" d="M901.8,247.2v3.2c0.9,0.2,1.8-0.1,2.7-1c1.5-1.5,2.7-5.5,2.2-7.8C906.6,244.7,903.6,246.9,901.8,247.2z"/>
		
			<radialGradient id="SVGID_31_" cx="906.0968" cy="272.4529" r="12.5104" gradientTransform="matrix(0.8892 -3.340000e-02 -8.420000e-02 -0.9418 110.7493 531.2909)" gradientUnits="userSpaceOnUse">
			<stop  offset="0.1534" style="stop-color:#FFFFFF"/>
			<stop  offset="0.4635" style="stop-color:#FDFEFF"/>
			<stop  offset="0.636" style="stop-color:#F5FBFF"/>
			<stop  offset="0.7747" style="stop-color:#E7F5FF"/>
			<stop  offset="0.8947" style="stop-color:#D3ECFF"/>
			<stop  offset="1" style="stop-color:#BBE2FF"/>
		</radialGradient>
		<path class="st45" d="M903.6,244.6c1.8,3.4,1.5,7.3-3.4,10.9c-3.3,2.5-8.1-1.5-10.2-6.1c-2.1-4.7-1.2-9,2.6-10.7
			C896.4,237,901.2,240.1,903.6,244.6z"/>
		<path class="st17" d="M900.3,245.2c2,4.5,1.8,9.2-1.4,10.6s-6.9-1.8-8.9-6.3s-1.4-8.6,1.7-10C894.9,238.1,898.3,240.7,900.3,245.2
			z"/>
		<path class="st29" d="M905.7,248.6c-0.6,1.2-1.8,1.9-2.6,1.5s-0.9-1.8-0.3-3c0.6-1.2,1.8-1.9,2.6-1.5S906.3,247.4,905.7,248.6z"/>
		
			<radialGradient id="SVGID_32_" cx="907.6243" cy="283.2113" r="4.4672" gradientTransform="matrix(0.9242 0 0 -0.9242 65.1344 499.3193)" gradientUnits="userSpaceOnUse">
			<stop  offset="0.1534" style="stop-color:#FFFFFF"/>
			<stop  offset="0.4635" style="stop-color:#FDFEFF"/>
			<stop  offset="0.636" style="stop-color:#F5FBFF"/>
			<stop  offset="0.7747" style="stop-color:#E7F5FF"/>
			<stop  offset="0.8947" style="stop-color:#D3ECFF"/>
			<stop  offset="1" style="stop-color:#BBE2FF"/>
		</radialGradient>
		<path class="st46" d="M906.3,239.5c0.3,0.7-0.3,1.5-1.2,1.9s-1.9,0.2-2.2-0.5s0.3-1.5,1.2-1.9S906,238.9,906.3,239.5z"/>
	</g>
	<g>
		
			<radialGradient id="SVGID_33_" cx="727.4271" cy="290.9797" r="11.5065" gradientTransform="matrix(-0.7401 -0.5614 0.5615 -0.7402 1312.1799 854.1266)" gradientUnits="userSpaceOnUse">
			<stop  offset="0.1534" style="stop-color:#FFFFFF"/>
			<stop  offset="0.4635" style="stop-color:#FDFEFF"/>
			<stop  offset="0.636" style="stop-color:#F5FBFF"/>
			<stop  offset="0.7747" style="stop-color:#E7F5FF"/>
			<stop  offset="0.8947" style="stop-color:#D3ECFF"/>
			<stop  offset="1" style="stop-color:#BBE2FF"/>
		</radialGradient>
		<path class="st47" d="M927.3,231.9c-0.9,1.4-0.5,6.7,1.6,7.8c2.9,1.5,6.3,3,7.6,3.6c0.3,0.1,0.6,0,0.8-0.2l0.9-1.1
			c0.2-0.3,0.2-0.6,0-0.9c-1.7-2.4-3.8-4.9-5.2-6.7C931.8,232.6,928.6,230,927.3,231.9z"/>
		<path class="st17" d="M937.4,242.8l0.4-0.5c-6.7-1.9-9.8-5.8-10.6-7.8c0.1,1.9,0.7,4.2,2,4.9c2.8,1.4,6.1,2.9,7.4,3.5
			C936.9,243.2,937.2,243.1,937.4,242.8z"/>
	</g>
	<g>
		<path class="st29" d="M942.1,243c-0.6-0.4-2.3-0.7-3.1-0.7c-1.9-0.2-3,1-2,2.3c0.4,0.6,1.4,0.7,2.7,0c0.1-0.1,1-0.1,2.2,0.1
			c1.4,0.2,2.5,0.9,2.9,0.2C945.1,244.4,943.3,243.8,942.1,243z"/>
		<path class="st29" d="M938.9,245.7c-1-0.1-2,0.1-2.1-0.3s0.8-2,1.7-1.5c1.3,0.7,2.6,0.9,2.6,1.9
			C941.1,246.4,939.8,245.8,938.9,245.7z"/>
	</g>
	<g>
		<g>
			<path class="st29" d="M918.6,237.9c0.4,0.5,0.8,1,1.3,1.4c0.2,0.2,0.4,0.4,0.7,0.6c0.1,0.1,0.2,0.2,0.3,0.3l0.2,0.1h0.1
				c0,0,0.1,0,0,0c0.7,0.2,1,0.9,0.8,1.6s-0.9,1-1.6,0.8l-0.3-0.1l-0.2-0.1c-0.1,0-0.2-0.1-0.3-0.1c-0.2-0.1-0.4-0.2-0.6-0.3
				c-0.4-0.2-0.7-0.4-1-0.6c-0.6-0.4-1.2-0.9-1.8-1.4l0,0c-0.7-0.6-0.8-1.7-0.2-2.4s1.7-0.8,2.4-0.2
				C918.5,237.8,918.5,237.9,918.6,237.9z"/>
		</g>
	</g>
	<g>
		
			<radialGradient id="SVGID_34_" cx="791.3179" cy="283.9854" r="10.8553" gradientTransform="matrix(-0.9223 -5.920000e-02 5.920000e-02 -0.9223 1641.8627 550.1646)" gradientUnits="userSpaceOnUse">
			<stop  offset="0.1534" style="stop-color:#FFFFFF"/>
			<stop  offset="0.4635" style="stop-color:#FDFEFF"/>
			<stop  offset="0.636" style="stop-color:#F5FBFF"/>
			<stop  offset="0.7747" style="stop-color:#E7F5FF"/>
			<stop  offset="0.8947" style="stop-color:#D3ECFF"/>
			<stop  offset="1" style="stop-color:#BBE2FF"/>
		</radialGradient>
		<path class="st48" d="M919.9,240.4c-1.7,1.8-0.3,7.5,1.7,9.5c2,1.9,3.8,1,5.5-0.7c1.7-1.8,2.5-5.5,0.5-7.4
			C925.7,239.8,921.6,238.6,919.9,240.4z"/>
		<path class="st17" d="M922.2,245.7c0.6-3.1,2.5-5,3.1-5.5c0.6,0.3,1.3,0.6,1.8,1C926.1,242.6,921.5,249,922.2,245.7z"/>
		<path class="st17" d="M919.6,240.8c0.1-0.2,0.2-0.3,0.3-0.4c0.7-0.7,1.6-0.9,2.7-0.8c0.6,0.4,0.9,1,0.7,1.4
			c-0.3,0.7-1.4,0.9-2.5,0.5C920.3,241.3,919.9,241.1,919.6,240.8z"/>
		<path class="st17" d="M924.4,247.2v3.2c-0.9,0.2-1.8-0.1-2.7-1c-1.5-1.5-2.7-5.5-2.2-7.8C919.6,244.7,922.6,246.9,924.4,247.2z"/>
		
			<radialGradient id="SVGID_35_" cx="785.9415" cy="276.7141" r="12.5104" gradientTransform="matrix(-0.8892 -3.340000e-02 8.420000e-02 -0.9418 1608.1654 531.2909)" gradientUnits="userSpaceOnUse">
			<stop  offset="0.1534" style="stop-color:#FFFFFF"/>
			<stop  offset="0.4635" style="stop-color:#FDFEFF"/>
			<stop  offset="0.636" style="stop-color:#F5FBFF"/>
			<stop  offset="0.7747" style="stop-color:#E7F5FF"/>
			<stop  offset="0.8947" style="stop-color:#D3ECFF"/>
			<stop  offset="1" style="stop-color:#BBE2FF"/>
		</radialGradient>
		<path class="st49" d="M922.6,244.6c-1.8,3.4-1.5,7.3,3.4,10.9c3.3,2.5,8.1-1.5,10.2-6.1c2.1-4.7,1.2-9-2.6-10.7
			C929.8,237,925,240.1,922.6,244.6z"/>
		<path class="st17" d="M925.9,245.2c-2,4.5-1.8,9.2,1.4,10.6s6.9-1.8,8.9-6.3s1.4-8.6-1.7-10C931.3,238.1,927.9,240.7,925.9,245.2z
			"/>
		<path class="st29" d="M920.5,248.6c0.6,1.2,1.8,1.9,2.6,1.5s0.9-1.8,0.3-3c-0.6-1.2-1.8-1.9-2.6-1.5S919.8,247.4,920.5,248.6z"/>
		
			<radialGradient id="SVGID_36_" cx="791.6313" cy="283.2113" r="4.4672" gradientTransform="matrix(-0.9242 0 0 -0.9242 1653.7806 499.3193)" gradientUnits="userSpaceOnUse">
			<stop  offset="0.1534" style="stop-color:#FFFFFF"/>
			<stop  offset="0.4635" style="stop-color:#FDFEFF"/>
			<stop  offset="0.636" style="stop-color:#F5FBFF"/>
			<stop  offset="0.7747" style="stop-color:#E7F5FF"/>
			<stop  offset="0.8947" style="stop-color:#D3ECFF"/>
			<stop  offset="1" style="stop-color:#BBE2FF"/>
		</radialGradient>
		<path class="st50" d="M919.9,239.5c-0.3,0.7,0.3,1.5,1.2,1.9s1.9,0.2,2.2-0.5s-0.3-1.5-1.2-1.9S920.2,238.9,919.9,239.5z"/>
	</g>
</g>
<g>
	<g>
		<g>
			<path class="st29" d="M94.2,226.2c0.6,1.6,1.1,3.2,1.6,4.8c0.2,0.8,0.5,1.6,0.7,2.5s0.4,1.7,0.6,2.7c0.1,0.7-0.4,1.3-1.1,1.4
				c-0.7,0.1-1.2-0.3-1.4-1v-0.1c-0.1-0.6-0.4-1.4-0.7-2.2c-0.3-0.8-0.6-1.5-0.9-2.3c-0.6-1.5-1.3-3.1-1.9-4.6l0,0
				c-0.4-0.8,0-1.8,0.9-2.2c0.8-0.4,1.8,0,2.2,0.9C94.1,226.1,94.1,226.2,94.2,226.2z"/>
		</g>
	</g>
	
		<radialGradient id="SVGID_37_" cx="9180.7373" cy="-11159.5557" r="125.9559" gradientTransform="matrix(-7.880000e-02 0 0 -2.000000e-02 821.2043 35.5985)" gradientUnits="userSpaceOnUse">
		<stop  offset="0" style="stop-color:#46DCFF"/>
		<stop  offset="1" style="stop-color:#41A4FE"/>
	</radialGradient>
	<path class="st51" d="M87.8,258.7c0,1.4,4.5,2.5,10,2.5s10-1.1,10-2.5s-4.5-2.5-10-2.5S87.8,257.3,87.8,258.7z"/>
	
		<radialGradient id="SVGID_38_" cx="9530.9912" cy="-11159.5557" r="125.9561" gradientTransform="matrix(-7.880000e-02 0 0 -2.000000e-02 821.2043 35.5985)" gradientUnits="userSpaceOnUse">
		<stop  offset="0" style="stop-color:#46DCFF"/>
		<stop  offset="1" style="stop-color:#41A4FE"/>
	</radialGradient>
	<path class="st52" d="M60.2,258.7c0,1.4,4.5,2.5,10,2.5c6.8,0,10-1.1,10-2.5s-4.5-2.5-10-2.5S60.2,257.3,60.2,258.7z"/>
	
		<radialGradient id="SVGID_39_" cx="5962.8789" cy="1883.5276" r="127.2913" gradientTransform="matrix(-6.280000e-02 6.380000e-02 -1.890000e-02 -1.870000e-02 484.6358 -92.3142)" gradientUnits="userSpaceOnUse">
		<stop  offset="0.2037" style="stop-color:#ABABAB"/>
		<stop  offset="0.3198" style="stop-color:#BCBCBC"/>
		<stop  offset="0.6123" style="stop-color:#E0E0E0"/>
		<stop  offset="0.8495" style="stop-color:#F7F7F7"/>
		<stop  offset="1" style="stop-color:#FFFFFF"/>
	</radialGradient>
	<path class="st53" d="M66.6,260.9c1.3,1.3,6-1.3,10.4-5.7c4.4-4.5,6.9-9.2,5.6-10.5s-6,1.3-10.4,5.7
		C67.8,254.9,65.3,259.6,66.6,260.9z"/>
	
		<radialGradient id="SVGID_40_" cx="-2709.6235" cy="-27734.9648" r="127.1493" gradientTransform="matrix(6.280000e-02 6.380000e-02 1.890000e-02 -1.870000e-02 786.0989 -92.3142)" gradientUnits="userSpaceOnUse">
		<stop  offset="0.2037" style="stop-color:#ABABAB"/>
		<stop  offset="0.3198" style="stop-color:#BCBCBC"/>
		<stop  offset="0.6123" style="stop-color:#E0E0E0"/>
		<stop  offset="0.8495" style="stop-color:#F7F7F7"/>
		<stop  offset="1" style="stop-color:#FFFFFF"/>
	</radialGradient>
	<path class="st54" d="M99.8,261.5c-0.7,0.7-5.3-0.6-10.4-5.7c-4.4-4.5-6.9-9.2-5.6-10.5s6,1.3,10.4,5.7
		C98.6,255.5,101.1,260.2,99.8,261.5z"/>
	
		<radialGradient id="SVGID_41_" cx="7124.1899" cy="-11625.9424" r="127.1648" gradientTransform="matrix(-0.1104 0 0 -2.660000e-02 869.4606 -64.2515)" gradientUnits="userSpaceOnUse">
		<stop  offset="0.2037" style="stop-color:#ABABAB"/>
		<stop  offset="0.3198" style="stop-color:#BCBCBC"/>
		<stop  offset="0.6123" style="stop-color:#E0E0E0"/>
		<stop  offset="0.8495" style="stop-color:#F7F7F7"/>
		<stop  offset="1" style="stop-color:#FFFFFF"/>
	</radialGradient>
	<path class="st55" d="M68.9,244.9c0,1.9,6.8,3.4,14.5,3.4c7.8,0,13.6-1.5,13.6-3.4s-6.3-3.4-14-3.4C75.2,241.5,68.9,243,68.9,244.9
		z"/>
	<g>
		<g>
			<path class="st29" d="M73.5,229.1c-0.4,1.8-0.9,3.7-1.3,5.5c-0.2,0.9-0.5,1.8-0.8,2.7s-0.6,1.8-1,2.8c-0.3,0.6-1,0.9-1.7,0.6
				c-0.6-0.3-0.9-0.9-0.7-1.6V239c0.3-0.7,0.5-1.6,0.7-2.5s0.4-1.8,0.5-2.7c0.3-1.8,0.6-3.6,0.9-5.4l0,0c0.1-0.9,1-1.5,1.9-1.4
				s1.5,1,1.4,1.9C73.6,229,73.5,229.1,73.5,229.1z"/>
		</g>
	</g>
	<g>
		
			<radialGradient id="SVGID_42_" cx="-601.226" cy="-2017.6975" r="35.8249" gradientTransform="matrix(0.1636 4.610000e-02 4.610000e-02 -0.1636 287.0056 -80.0331)" gradientUnits="userSpaceOnUse">
			<stop  offset="0.1534" style="stop-color:#FFFFFF"/>
			<stop  offset="0.4635" style="stop-color:#FDFEFF"/>
			<stop  offset="0.636" style="stop-color:#F5FBFF"/>
			<stop  offset="0.7747" style="stop-color:#E7F5FF"/>
			<stop  offset="0.8947" style="stop-color:#D3ECFF"/>
			<stop  offset="1" style="stop-color:#BBE2FF"/>
		</radialGradient>
		<path class="st56" d="M95.7,228.7c-1,0.7-2.7-0.3-4.4-2.3s-2.7-4-1.8-5s3.5-0.1,5.2,1.9S96.8,227.9,95.7,228.7z"/>
		<path class="st17" d="M95.8,228.5c0.2-0.1,0.3-0.3,0.4-0.5c-2,1.9-7.8-5.8-5.5-6.8l0,0c-0.3,0-0.6,0.2-0.9,0.4
			c-0.9,0.9,0.1,2.9,1.7,4.8C93.2,228.2,94.8,229.2,95.8,228.5z"/>
	</g>
	<g>
		
			<radialGradient id="SVGID_43_" cx="4549.5703" cy="603.8324" r="35.822" gradientTransform="matrix(-0.1336 0.1051 -0.1051 -0.1336 737.4495 -169.2933)" gradientUnits="userSpaceOnUse">
			<stop  offset="0.1534" style="stop-color:#FFFFFF"/>
			<stop  offset="0.4635" style="stop-color:#FDFEFF"/>
			<stop  offset="0.636" style="stop-color:#F5FBFF"/>
			<stop  offset="0.7747" style="stop-color:#E7F5FF"/>
			<stop  offset="0.8947" style="stop-color:#D3ECFF"/>
			<stop  offset="1" style="stop-color:#BBE2FF"/>
		</radialGradient>
		<path class="st57" d="M68.6,234.1c1.2,0.3,2.4-1.3,3.2-3.8s0.9-4.7-0.3-5.3c-1.3-0.6-3.3,1.2-4.1,3.7S67.3,233.8,68.6,234.1z"/>
		<path class="st17" d="M68.4,233.9c-0.2-0.1-0.4-0.2-0.6-0.3c2.5,1,5-8.3,2.4-8.4l0,0c0.3-0.1,0.7-0.1,0.9,0c1.2,0.5,1,2.7,0.3,5.1
			C70.7,232.7,69.6,234.2,68.4,233.9z"/>
	</g>
	<polygon class="st29" points="79.7,241.6 86.3,241.6 86.9,236.7 79.1,236.7 	"/>
	
		<radialGradient id="SVGID_44_" cx="1450.0828" cy="274.0182" r="4.8539" gradientTransform="matrix(-1 0 0 -1 1533.2479 514.0942)" gradientUnits="userSpaceOnUse">
		<stop  offset="0.1534" style="stop-color:#FFFFFF"/>
		<stop  offset="0.4635" style="stop-color:#FDFEFF"/>
		<stop  offset="0.636" style="stop-color:#F5FBFF"/>
		<stop  offset="0.7747" style="stop-color:#E7F5FF"/>
		<stop  offset="0.8947" style="stop-color:#D3ECFF"/>
		<stop  offset="1" style="stop-color:#BBE2FF"/>
	</radialGradient>
	<path class="st58" d="M83,244.7L83,244.7c2.8,0,5.1-2.1,5.1-4.8l0,0c0-0.5-0.4-0.9-1-0.9h-4h-4.3c-0.5,0-1,0.4-1,0.9l0,0
		C77.9,242.6,80.2,244.7,83,244.7z"/>
	<path class="st17" d="M83.1,241c1.3,0,2.3,1,2.3,2.3v0.9c-0.1,0.1-0.2,0.1-0.3,0.2v-1c0-1.1-0.9-1.9-1.9-1.9
		c-1.1,0-1.9,0.9-1.9,1.9v1.1c-0.1,0-0.2-0.1-0.3-0.1v-1C80.9,242,81.9,241,83.1,241z"/>
	<path class="st17" d="M79.1,239L79.1,239c0.4,1.5,1.6,6.1,6.1,5.1c-0.6,0.3-1.3,0.4-2.1,0.4c-2.7,0-5-2.1-5-4.7
		C78.1,239.4,78.5,239,79.1,239z"/>
	
		<radialGradient id="SVGID_45_" cx="1408.5592" cy="440.9776" r="11.5994" gradientTransform="matrix(-0.9809 0.1947 -0.1585 -0.7984 1533.1694 306.8625)" gradientUnits="userSpaceOnUse">
		<stop  offset="0.1534" style="stop-color:#FFFFFF"/>
		<stop  offset="0.4635" style="stop-color:#FDFEFF"/>
		<stop  offset="0.636" style="stop-color:#F5FBFF"/>
		<stop  offset="0.7747" style="stop-color:#E7F5FF"/>
		<stop  offset="0.8947" style="stop-color:#D3ECFF"/>
		<stop  offset="1" style="stop-color:#BBE2FF"/>
	</radialGradient>
	<path class="st59" d="M71,230c0.9,4.4,6.7,9.4,12.5,8.3s9.3-8,8.4-12.4s-5.8-4.7-11.6-3.6C74.6,223.4,70.2,225.6,71,230z"/>
	<path class="st17" d="M91.8,227.7c-0.3,3.8-3.5,8.8-8.4,9.8s-9.8-2.5-11.5-6c4,3.1,7.6,3,10.8,2.4C86.6,233.1,89.8,231,91.8,227.7z
		"/>
	<path class="st17" d="M80.2,221.8c1.4-0.3,2.8-0.2,4,0.3c-0.1,1.4-1.1,3.4-3.3,3.8c-2.3,0.5-3.7-0.9-4.4-2.1
		C77.5,222.8,78.8,222.1,80.2,221.8z"/>
	<path class="st29" d="M83.7,221.9v0.1c0.2,1.2-1,3.1-2.8,3.5c-1.9,0.4-3.7-0.9-3.9-2.1l0,0c0.9-0.8,2-1.3,3.3-1.6
		C81.4,221.6,82.6,221.6,83.7,221.9z"/>
	<path class="st17" d="M84.1,221.8c-0.5,0-1,0-1.5,0.1v0.1c1-0.1,2.2,0.6,3.2,2c2.1,2.9,3.5,9.1,0.3,13.3c0.3-0.2,0.6-0.4,1-0.6
		c2.7-4.4,1.3-10.1-0.8-13C85.5,222.8,84.8,222.2,84.1,221.8z"/>
	<g>
		<g>
			<ellipse transform="matrix(0.908 -0.419 0.419 0.908 -81.4695 39.007)" class="st29" cx="48.1" cy="205" rx="7.4" ry="15.4"/>
			<path class="st27" d="M49.7,218.2c-0.5-0.3-1-0.6-1.5-1l-9.4-20.9c0-0.6,0.1-1.2,0.2-1.7L49.7,218.2z"/>
			
				<ellipse transform="matrix(0.9892 -0.1464 0.1464 0.9892 -26.7157 16.7877)" class="st29" cx="100.7" cy="189.9" rx="7.5" ry="15.4"/>
			<path class="st27" d="M103.9,177.6l3.6,22.6c-0.2,0.6-0.4,1.1-0.7,1.6l-4-25.6C103.1,176.7,103.5,177.1,103.9,177.6z"/>
			
				<radialGradient id="SVGID_46_" cx="3659.3594" cy="-49.7497" r="169.2047" gradientTransform="matrix(-0.2421 6.910000e-02 -6.780000e-02 -0.2375 953.9044 -75.779)" gradientUnits="userSpaceOnUse">
				<stop  offset="0.1534" style="stop-color:#FFFFFF"/>
				<stop  offset="0.4635" style="stop-color:#FDFEFF"/>
				<stop  offset="0.636" style="stop-color:#F5FBFF"/>
				<stop  offset="0.7747" style="stop-color:#E7F5FF"/>
				<stop  offset="0.8947" style="stop-color:#D3ECFF"/>
				<stop  offset="1" style="stop-color:#BBE2FF"/>
			</radialGradient>
			<path class="st60" d="M41.1,192.8c-3.6-12.8,6.6-26.9,22.8-31.5c16.3-4.6,32.4,1.9,36,14.7c0.1,0.4,0.2,0.7,0.3,1.1l0,0l0.1,0.5
				c0.1,0.5,0.2,1.1,0.2,1.6l1.9,12.6l1.7,11.2c0.6,3.6-0.6,7.3-3,10c-4.4,4.8-11.1,9-19.3,11.3c-7.7,2.2-15.3,2.4-21.5,0.8
				c-3.6-0.9-6.6-3.4-8.1-6.8l-9.8-21.9c-0.4-0.8-0.7-1.6-1-2.4l0,0l0,0C41.4,193.5,41.2,193.1,41.1,192.8z"/>
			<path class="st17" d="M41,185c0.6,5.4,8.5,19.7,11.4,26.9c3.1,7.9,8.3,15.5,29,9.6s22.8-16.5,22.8-16.5c-0.2,2.7-1.3,5.3-3.1,7.4
				c-4.3,4.8-11,8.9-19.1,11.2c-7.7,2.2-15.2,2.3-21.2,0.8c-3.6-0.9-6.5-3.4-8-6.7L43.1,196c-0.4-0.8-0.7-1.6-1-2.4l0,0l0,0
				c-0.1-0.3-0.2-0.7-0.3-1C40.9,190.1,40.7,187.5,41,185z"/>
			<g class="st19">
				<path class="st17" d="M67.8,174.8c4.4-1.3,7-5.8,5.7-10.1l-1.4-4.9h-0.4l1.4,5c1.2,4.1-1.3,8.4-5.5,9.6s-8.5-1.2-9.7-5.3l-1.4-5
					l-0.4,0.2l1.4,4.9C58.9,173.6,63.4,176.1,67.8,174.8z"/>
			</g>
			<g class="st19">
				<path class="st17" d="M62.4,225.4c-3.8-10.4-12.9-35.1-15.2-39.3c-2.5-4.7-5.7-5.1-5.8-5.2l-0.1,0.4l0,0c0,0,3.2,0.5,5.5,4.9
					c2.2,4.2,11.2,28.6,15.1,39L62.4,225.4z"/>
			</g>
			<g class="st19">
				<path class="st17" d="M99.8,214.3c-2.2-10.8-7.4-36.2-7.7-40.9c-0.4-5.1,1.8-6.9,1.8-6.9l0,0l-0.3-0.3c-0.3,0.2-2.3,2.2-2,7.2
					c0.3,4.7,5.6,30.4,7.8,41.2L99.8,214.3z"/>
			</g>
			<g>
				<path class="st29" d="M88.1,186.5c4.8-1.4,9.7,1.8,10.5,6.7l0,0l1.8,11.4c0.4,2.4-0.4,4.9-2,6.7c-4,4.5-10.1,8.1-17.2,10.1
					c-6.8,1.9-13.6,2.2-19.3,0.7c-2.4-0.6-4.3-2.3-5.4-4.6l-4.8-10.8c-2-4.6,0.4-10,5.3-11.3L88.1,186.5z"/>
				<path class="st17" d="M61.8,222.5c-2.5-0.7-4.6-2.4-5.6-4.8l-4.8-10.8c-1-2.3-1-4.9,0.1-7.2s3.1-4,5.5-4.7l31.1-8.9
					c2.4-0.7,5-0.3,7.1,1s3.5,3.5,3.9,6l1.8,11.4c0.4,2.6-0.4,5.1-2.1,7.1c-4.1,4.6-10.3,8.2-17.4,10.3
					C74.4,223.8,67.5,224,61.8,222.5z M57.1,195.8c-2.2,0.6-4,2.2-5,4.2c-1,2.1-1,4.4-0.1,6.5l4.8,10.8c1,2.2,2.8,3.8,5.1,4.4
					c5.6,1.5,12.4,1.2,19-0.7c7-2,13.1-5.6,17-10c1.6-1.8,2.3-4.1,1.9-6.4L98,193.2c-0.3-2.2-1.6-4.2-3.5-5.4s-4.2-1.6-6.4-0.9
					L57.1,195.8z"/>
			</g>
			<g>
				<g>
					
						<rect x="66.1" y="208" transform="matrix(0.9608 -0.2772 0.2772 0.9608 -55.22 26.6757)" class="st43" width="1.3" height="1.3"/>
					
						<rect x="67" y="206.5" transform="matrix(0.9608 -0.2772 0.2772 0.9608 -54.7677 26.8733)" class="st43" width="1.3" height="1.3"/>
					
						<rect x="65.2" y="209.7" transform="matrix(0.9608 -0.2772 0.2772 0.9608 -55.7259 26.493)" class="st43" width="1.3" height="1.3"/>
					
						<rect x="63.5" y="208.8" transform="matrix(0.9608 -0.2772 0.2772 0.9608 -55.5434 25.987)" class="st43" width="1.3" height="1.3"/>
					
						<rect x="61.8" y="207.9" transform="matrix(0.9608 -0.2772 0.2772 0.9608 -55.3621 25.4794)" class="st43" width="1.3" height="1.3"/>
					
						<rect x="68.5" y="211.5" transform="matrix(0.9608 -0.2772 0.2772 0.9608 -56.0965 27.4782)" class="st43" width="1.3" height="1.3"/>
					
						<rect x="66.8" y="210.7" transform="matrix(0.9608 -0.2772 0.2772 0.9608 -55.9418 26.9756)" class="st43" width="1.3" height="1.3"/>
					
						<rect x="63.3" y="213.1" transform="matrix(0.9608 -0.2772 0.2772 0.9608 -56.7442 26.0992)" class="st43" width="1.3" height="1.3"/>
					
						<rect x="64.1" y="211.4" transform="matrix(0.9608 -0.2772 0.2772 0.9608 -56.2456 26.263)" class="st43" width="1.3" height="1.3"/>
					<g>
						
							<rect x="86.4" y="202.2" transform="matrix(0.9608 -0.2772 0.2772 0.9608 -52.8179 32.0752)" class="st43" width="1.3" height="1.3"/>
						
							<rect x="87.4" y="200.5" transform="matrix(0.9608 -0.2772 0.2772 0.9608 -52.3057 32.2862)" class="st43" width="1.3" height="1.3"/>
						
							<rect x="85.5" y="203.9" transform="matrix(0.9608 -0.2772 0.2772 0.9608 -53.3238 31.8925)" class="st43" width="1.3" height="1.3"/>
						
							<rect x="83.9" y="202.9" transform="matrix(0.9608 -0.2772 0.2772 0.9608 -53.1082 31.4097)" class="st43" width="1.3" height="1.3"/>
						
							<rect x="82.2" y="202" transform="matrix(0.9608 -0.2772 0.2772 0.9608 -52.9254 30.9038)" class="st43" width="1.3" height="1.3"/>
						
							<rect x="88.8" y="205.7" transform="matrix(0.9608 -0.2772 0.2772 0.9608 -53.6902 32.8843)" class="st43" width="1.3" height="1.3"/>
						
							<rect x="87.2" y="204.7" transform="matrix(0.9608 -0.2772 0.2772 0.9608 -53.4785 32.395)" class="st43" width="1.3" height="1.3"/>
						
							<rect x="83.7" y="207.1" transform="matrix(0.9608 -0.2772 0.2772 0.9608 -54.281 31.5185)" class="st43" width="1.3" height="1.3"/>
						
							<rect x="84.6" y="205.5" transform="matrix(0.9608 -0.2772 0.2772 0.9608 -53.8017 31.7063)" class="st43" width="1.3" height="1.3"/>
					</g>
				</g>
				<g>
					
						<rect x="77.6" y="209" transform="matrix(0.9608 -0.2772 0.2772 0.9608 -55.0471 29.9037)" class="st43" width="1.3" height="1.3"/>
					
						<rect x="76.3" y="209.3" transform="matrix(0.9608 -0.2772 0.2772 0.9608 -55.1806 29.5544)" class="st43" width="1.3" height="1.3"/>
					
						<rect x="74.9" y="209.6" transform="matrix(0.9608 -0.2772 0.2772 0.9608 -55.3254 29.1796)" class="st43" width="1.3" height="1.3"/>
				</g>
			</g>
		</g>
	</g>
	<path class="st17" d="M89.5,228.5c0.2,0.9-0.4,1.8-1.3,2s-1.8-0.4-2-1.3s0.4-1.8,1.3-2S89.3,227.6,89.5,228.5z"/>
	<path class="st27" d="M88.1,230c-0.7,0.1-1.3-0.3-1.5-0.9c-0.1-0.7,0.3-1.3,0.9-1.5c0.7-0.1,1.3,0.3,1.5,0.9
		C89.2,229.2,88.8,229.9,88.1,230z"/>
	<g>
		<g>
			<path class="st29" d="M88.1,242.4c0.4,0.5,0.7,0.9,1.1,1.3c0.2,0.2,0.4,0.4,0.6,0.6c0.1,0.1,0.2,0.2,0.3,0.2l0.1,0.1h0.1
				c0,0,0.1,0,0,0c0.6,0.2,0.9,0.8,0.7,1.4s-0.8,0.9-1.4,0.7l-0.2-0.1l-0.2-0.1c-0.1,0-0.2-0.1-0.3-0.1c-0.2-0.1-0.3-0.2-0.5-0.3
				c-0.3-0.2-0.6-0.4-0.9-0.6c-0.6-0.4-1.1-0.8-1.6-1.2l0,0c-0.6-0.5-0.7-1.5-0.2-2.1s1.5-0.7,2.1-0.2C88,242.3,88,242.3,88.1,242.4
				z"/>
		</g>
	</g>
	<g>
		
			<radialGradient id="SVGID_47_" cx="1488.5701" cy="234.7421" r="9.788" gradientTransform="matrix(-0.9223 -5.920000e-02 5.920000e-02 -0.9223 1456.1957 550.1646)" gradientUnits="userSpaceOnUse">
			<stop  offset="0.1534" style="stop-color:#FFFFFF"/>
			<stop  offset="0.4635" style="stop-color:#FDFEFF"/>
			<stop  offset="0.636" style="stop-color:#F5FBFF"/>
			<stop  offset="0.7747" style="stop-color:#E7F5FF"/>
			<stop  offset="0.8947" style="stop-color:#D3ECFF"/>
			<stop  offset="1" style="stop-color:#BBE2FF"/>
		</radialGradient>
		<path class="st61" d="M89.1,244.6c-1.5,1.6-0.3,6.8,1.5,8.6c1.8,1.7,3.4,0.9,5-0.6s2.3-4.9,0.5-6.7
			C94.3,244.1,90.7,243,89.1,244.6z"/>
		<path class="st17" d="M91.2,249.4c0.6-2.8,2.3-4.5,2.8-5c0.6,0.3,1.1,0.6,1.6,0.9C94.7,246.6,90.6,252.4,91.2,249.4z"/>
		<path class="st62" d="M88.9,245c0.1-0.1,0.2-0.3,0.3-0.4c0.6-0.6,1.5-0.8,2.5-0.8c0.5,0.4,0.8,0.9,0.6,1.3
			c-0.3,0.6-1.3,0.8-2.3,0.5C89.5,245.5,89.1,245.2,88.9,245z"/>
		<path class="st17" d="M93.2,250.8v2.9c-0.8,0.2-1.6,0-2.4-0.9c-1.4-1.4-2.5-5-2-7C88.9,248.5,91.5,250.5,93.2,250.8z"/>
		
			<radialGradient id="SVGID_48_" cx="97.7199" cy="263.2131" r="7.6276" gradientTransform="matrix(1 0 0 -1 0 514.0942)" gradientUnits="userSpaceOnUse">
			<stop  offset="0.1534" style="stop-color:#FFFFFF"/>
			<stop  offset="0.4635" style="stop-color:#FDFEFF"/>
			<stop  offset="0.636" style="stop-color:#F5FBFF"/>
			<stop  offset="0.7747" style="stop-color:#E7F5FF"/>
			<stop  offset="0.8947" style="stop-color:#D3ECFF"/>
			<stop  offset="1" style="stop-color:#BBE2FF"/>
		</radialGradient>
		<path class="st63" d="M91.6,248.4c-1.6,3.1-1.3,6.6,3,9.8c3,2.2,7.3-1.3,9.2-5.5c1.9-4.2,1.1-8.2-2.3-9.7
			C98.1,241.6,93.7,244.3,91.6,248.4z"/>
		<path class="st17" d="M94.5,248.9c-1.8,4.1-1.6,8.3,1.2,9.5c2.8,1.3,6.3-1.6,8.1-5.7c1.8-4.1,1.3-7.7-1.6-9
			C99.4,242.5,96.3,244.9,94.5,248.9z"/>
		<path class="st29" d="M89.7,252c0.6,1.1,1.7,1.7,2.4,1.3c0.7-0.4,0.9-1.6,0.3-2.7c-0.6-1.1-1.7-1.7-2.4-1.3
			C89.2,249.7,89.1,250.9,89.7,252z"/>
		
			<radialGradient id="SVGID_49_" cx="1489.8931" cy="278.3252" r="4.028" gradientTransform="matrix(-0.9242 0 0 -0.9242 1468.1135 499.3193)" gradientUnits="userSpaceOnUse">
			<stop  offset="0.1534" style="stop-color:#FFFFFF"/>
			<stop  offset="0.4635" style="stop-color:#FDFEFF"/>
			<stop  offset="0.636" style="stop-color:#F5FBFF"/>
			<stop  offset="0.7747" style="stop-color:#E7F5FF"/>
			<stop  offset="0.8947" style="stop-color:#D3ECFF"/>
			<stop  offset="1" style="stop-color:#BBE2FF"/>
		</radialGradient>
		<path class="st64" d="M89.1,243.8c-0.3,0.6,0.2,1.4,1.1,1.7c0.8,0.4,1.7,0.2,2-0.4s-0.2-1.4-1.1-1.7
			C90.3,243,89.4,243.2,89.1,243.8z"/>
	</g>
	<g>
		<g>
			<path class="st17" d="M80.2,244.5c-0.5,0.4-1.1,0.8-1.6,1.2c-0.3,0.2-0.6,0.4-0.9,0.6c-0.2,0.1-0.3,0.2-0.5,0.3
				c-0.1,0-0.2,0.1-0.3,0.1l-0.2,0.1l-0.2,0.1c-0.6,0.2-1.2-0.1-1.4-0.7s0.1-1.2,0.7-1.4c-0.1,0,0,0,0,0h0.1l0.1-0.1
				c0.1-0.1,0.2-0.2,0.3-0.2c0.2-0.2,0.4-0.4,0.6-0.6c0.4-0.4,0.8-0.8,1.1-1.3c0.5-0.7,1.5-0.8,2.1-0.2
				C80.8,242.9,80.9,243.9,80.2,244.5C80.3,244.4,80.3,244.5,80.2,244.5L80.2,244.5z"/>
		</g>
	</g>
	<g>
		
			<radialGradient id="SVGID_50_" cx="212.5985" cy="316.6432" r="9.788" gradientTransform="matrix(0.9223 -5.920000e-02 -5.920000e-02 -0.9223 -108.6147 550.1646)" gradientUnits="userSpaceOnUse">
			<stop  offset="0.1534" style="stop-color:#FFFFFF"/>
			<stop  offset="0.4635" style="stop-color:#FDFEFF"/>
			<stop  offset="0.636" style="stop-color:#F5FBFF"/>
			<stop  offset="0.7747" style="stop-color:#E7F5FF"/>
			<stop  offset="0.8947" style="stop-color:#D3ECFF"/>
			<stop  offset="1" style="stop-color:#BBE2FF"/>
		</radialGradient>
		<path class="st65" d="M76.8,244.6c1.5,1.6,0.3,6.8-1.5,8.6c-1.8,1.7-3.4,0.9-5-0.6c-1.5-1.6-2.3-4.9-0.5-6.7
			C71.7,244.1,75.3,243,76.8,244.6z"/>
		<path class="st17" d="M74.8,249.4c-0.6-2.8-2.3-4.5-2.8-5c-0.6,0.3-1.1,0.6-1.6,0.9C71.3,246.6,75.4,252.4,74.8,249.4z"/>
		<path class="st62" d="M77.1,245c-0.1-0.1-0.2-0.3-0.3-0.4c-0.6-0.6-1.5-0.8-2.5-0.8c-0.5,0.4-0.8,0.9-0.6,1.3
			c0.3,0.6,1.3,0.8,2.3,0.5C76.5,245.5,76.9,245.2,77.1,245z"/>
		<path class="st17" d="M72.8,250.8v2.9c0.8,0.2,1.6,0,2.4-0.9c1.4-1.4,2.5-5,2-7C77.1,248.5,74.4,250.5,72.8,250.8z"/>
		
			<radialGradient id="SVGID_51_" cx="185.5515" cy="293.9273" r="11.2803" gradientTransform="matrix(0.8892 -3.340000e-02 -8.420000e-02 -0.9418 -74.9176 531.2909)" gradientUnits="userSpaceOnUse">
			<stop  offset="0.1534" style="stop-color:#FFFFFF"/>
			<stop  offset="0.4635" style="stop-color:#FDFEFF"/>
			<stop  offset="0.636" style="stop-color:#F5FBFF"/>
			<stop  offset="0.7747" style="stop-color:#E7F5FF"/>
			<stop  offset="0.8947" style="stop-color:#D3ECFF"/>
			<stop  offset="1" style="stop-color:#BBE2FF"/>
		</radialGradient>
		<path class="st66" d="M74.4,248.4c1.6,3.1,1.3,6.6-3,9.8c-3,2.2-7.3-1.3-9.2-5.5c-1.9-4.2-1.1-8.2,2.3-9.7
			C67.9,241.6,72.3,244.3,74.4,248.4z"/>
		<path class="st17" d="M71.5,248.9c1.8,4.1,1.6,8.3-1.2,9.5c-2.8,1.3-6.3-1.6-8.1-5.7c-1.8-4.1-1.3-7.7,1.6-9
			C66.6,242.5,69.7,244.9,71.5,248.9z"/>
		<path class="st29" d="M76.3,252c-0.6,1.1-1.7,1.7-2.4,1.3c-0.7-0.4-0.9-1.6-0.3-2.7c0.6-1.1,1.7-1.7,2.4-1.3
			C76.8,249.7,76.9,250.9,76.3,252z"/>
		
			<radialGradient id="SVGID_52_" cx="211.2982" cy="278.3266" r="4.029" gradientTransform="matrix(0.9242 0 0 -0.9242 -120.5326 499.3193)" gradientUnits="userSpaceOnUse">
			<stop  offset="0.1534" style="stop-color:#FFFFFF"/>
			<stop  offset="0.4635" style="stop-color:#FDFEFF"/>
			<stop  offset="0.636" style="stop-color:#F5FBFF"/>
			<stop  offset="0.7747" style="stop-color:#E7F5FF"/>
			<stop  offset="0.8947" style="stop-color:#D3ECFF"/>
			<stop  offset="1" style="stop-color:#BBE2FF"/>
		</radialGradient>
		<path class="st67" d="M76.9,243.8c0.3,0.6-0.2,1.4-1.1,1.7c-0.8,0.4-1.7,0.2-2-0.4s0.2-1.4,1.1-1.7S76.6,243.2,76.9,243.8z"/>
	</g>
	<g>
		
			<radialGradient id="SVGID_53_" cx="12.5029" cy="904.197" r="10.3752" gradientTransform="matrix(0.6908 -0.6212 -0.6212 -0.6908 641.522 868.1612)" gradientUnits="userSpaceOnUse">
			<stop  offset="0.1534" style="stop-color:#FFFFFF"/>
			<stop  offset="0.4635" style="stop-color:#FDFEFF"/>
			<stop  offset="0.636" style="stop-color:#F5FBFF"/>
			<stop  offset="0.7747" style="stop-color:#E7F5FF"/>
			<stop  offset="0.8947" style="stop-color:#D3ECFF"/>
			<stop  offset="1" style="stop-color:#BBE2FF"/>
		</radialGradient>
		<path class="st68" d="M96.6,234.8c0.9,1.2,1,6-0.9,7.2c-2.5,1.6-5.4,3.2-6.6,3.8c-0.3,0.1-0.6,0.1-0.8-0.1l-0.9-0.9
			c-0.2-0.2-0.2-0.5-0.1-0.8c1.4-2.3,3.1-4.7,4.2-6.4C92.7,235.8,95.3,233.2,96.6,234.8z"/>
		<path class="st17" d="M88.4,245.4L88,245c5.9-2.2,8.5-5.6,8.9-7.8c0.1,1.8-0.3,3.9-1.5,4.6c-2.4,1.5-5.3,3.1-6.4,3.7
			C88.9,245.6,88.6,245.6,88.4,245.4z"/>
	</g>
	<g>
		<path class="st29" d="M86.4,246.9c1,1,1.9,0.1,2.5-0.6s0.6-1.8,0-2.4s-1.5-0.5-2,0.2C86.3,244.8,85.5,246,86.4,246.9z"/>
		<path class="st29" d="M85.9,246.2c-0.1,1.2,0.2,3.2,0.9,2.7c0.5-0.3,0.5-1.4,1.4-2.3c0.8-0.8-0.3-2.2-0.9-2.3
			C86.7,244.3,86,245,85.9,246.2z"/>
		<path class="st29" d="M85.9,245.7c-0.3,0.8-0.3,2,0.1,2s0.4-0.8,0.7-1.6c0.3-0.8,1-1.3,0.6-1.5c-0.2-0.1-0.4-0.5-0.5-0.3
			C86.5,244.6,86.1,245.3,85.9,245.7z"/>
		<path class="st29" d="M87.7,246.7c-0.2,0.6-0.2,1.5,0.2,1.6c0.3,0,0.3-0.6,0.5-1.2s0.8-0.9,0.5-1.1c-0.1-0.1-0.3-0.4-0.5-0.3
			C88.2,245.9,87.8,246.4,87.7,246.7z"/>
	</g>
	<g>
		
			<radialGradient id="SVGID_54_" cx="1212.8739" cy="5.3552" r="10.3868" gradientTransform="matrix(-0.791 -0.4871 0.4872 -0.7911 1032.7136 831.3834)" gradientUnits="userSpaceOnUse">
			<stop  offset="0.1534" style="stop-color:#FFFFFF"/>
			<stop  offset="0.4635" style="stop-color:#FDFEFF"/>
			<stop  offset="0.636" style="stop-color:#F5FBFF"/>
			<stop  offset="0.7747" style="stop-color:#E7F5FF"/>
			<stop  offset="0.8947" style="stop-color:#D3ECFF"/>
			<stop  offset="1" style="stop-color:#BBE2FF"/>
		</radialGradient>
		<path class="st69" d="M67.8,236.8c-0.7,1.3,0.1,6.1,2.2,6.9c2.7,1.1,5.9,2.2,7.1,2.6c0.3,0.1,0.6,0,0.7-0.3l0.7-1.1
			c0.2-0.2,0.1-0.6-0.1-0.8c-1.8-2-3.9-4.1-5.3-5.6C71.9,237.1,68.8,235,67.8,236.8z"/>
		<path class="st17" d="M77.8,245.8l0.3-0.4c-6.2-1.1-9.4-4-10.2-6c0.2,1.7,1,3.7,2.3,4.2c2.6,1.1,5.7,2.1,6.9,2.5
			C77.3,246.1,77.6,246,77.8,245.8z"/>
	</g>
	<g>
		<path class="st29" d="M79.5,247.4c-1.1,1-1.5,0.2-2.1-0.5s-0.6-1.8,0-2.4s1.6-0.5,2.2,0.2C80.1,245.4,80.5,246.5,79.5,247.4z"/>
		<path class="st29" d="M80.2,246.8c0.1,1.2-0.2,3.2-0.8,2.7c-0.4-0.3-0.5-1.4-1.3-2.3c-0.7-0.8,0.3-2.2,0.9-2.3
			C79.5,244.8,80.1,245.5,80.2,246.8z"/>
		<path class="st29" d="M80.3,246c0.4,0.7,0.5,1.9,0.2,2s-0.4-0.8-0.8-1.5s-1-1.1-0.7-1.4c0.1-0.1,0.5-0.6,0.7-0.4
			C79.8,245,80,245.6,80.3,246z"/>
		<path class="st29" d="M78.5,247.3c0.2,0.6,0.2,1.5-0.1,1.6c-0.3,0-0.2-0.6-0.5-1.3c-0.2-0.6-0.7-1-0.4-1.1
			c0.1-0.1,0.3-0.4,0.4-0.3C78,246.5,78.4,247,78.5,247.3z"/>
	</g>
</g>
<g>
	<text transform="matrix(1 0 0 1 784.663 175.867)" class="st43 st10 st11">Unwilling to</text>
	<text transform="matrix(1 0 0 1 745.063 196.2669)" class="st43 st10 st11">change with new</text>
	<text transform="matrix(1 0 0 1 784.363 216.667)" class="st43 st10 st11">information</text>
</g>
<g>
	<text transform="matrix(1 0 0 1 115.2332 175.867)" class="st43 st10 st11">Too fast for</text>
	<text transform="matrix(1 0 0 1 115.2332 196.267)" class="st43 st10 st11">positions to</text>
	<text transform="matrix(1 0 0 1 115.2332 216.667)" class="st43 st10 st11">materialize</text>
</g>
<text transform="matrix(1 0 0 1 476.415 44.7427)" class="st21 st10 st70">Ideal</text>
<text transform="matrix(1 0 0 1 462.815 68.7427)" class="st21 st10 st70">OVTLYR</text>
<text transform="matrix(1 0 0 1 444.715 92.7427)" class="st21 st10 st70">Community</text>
</svg>
