<?xml version="1.0" encoding="utf-8"?>
<!-- Generator: Adobe Illustrator 25.2.3, SVG Export Plug-In . SVG Version: 6.00 Build 0)  -->
<svg version="1.1" xmlns="http://www.w3.org/2000/svg" xmlns:xlink="http://www.w3.org/1999/xlink" x="0px" y="0px"
	 viewBox="0 0 427 400" style="enable-background:new 0 0 427 400;" xml:space="preserve">
<style type="text/css">
	.st0{display:none;}
	.st1{display:inline;}
	.st2{opacity:0.3;}
	.st3{fill:none;stroke:#41A4FE;stroke-width:2.0761;stroke-miterlimit:10;}
	.st4{fill:#41A4FE;}
	.st5{fill:#00FFDC;}
	.st6{fill:#0D0D0D;}
	.st7{fill:url(#SVGID_1_);}
	.st8{fill:#95CEF9;}
	.st9{fill:url(#SVGID_2_);}
	.st10{fill:url(#SVGID_3_);}
	.st11{fill:url(#SVGID_4_);}
	.st12{fill:url(#SVGID_5_);}
	.st13{fill:url(#SVGID_6_);}
	.st14{fill:url(#SVGID_7_);}
	.st15{fill:url(#SVGID_8_);}
	.st16{fill:url(#SVGID_9_);}
	.st17{opacity:0.8;}
	.st18{fill:url(#SVGID_10_);}
	.st19{fill:url(#SVGID_11_);}
	.st20{fill:url(#SVGID_12_);}
	.st21{fill:url(#SVGID_13_);}
	.st22{fill:url(#SVGID_14_);}
	.st23{fill:url(#SVGID_15_);}
	.st24{fill:url(#SVGID_16_);}
	.st25{opacity:0.2;}
	.st26{opacity:0.4;fill:#41A4FE;}
	.st27{opacity:0.1;}
	.st28{fill:url(#SVGID_17_);}
	.st29{fill:url(#SVGID_18_);}
	.st30{fill:url(#SVGID_19_);}
	.st31{fill:url(#SVGID_20_);}
	.st32{fill:url(#SVGID_21_);}
	.st33{fill:url(#SVGID_22_);}
	.st34{fill:url(#SVGID_23_);}
	.st35{fill:url(#SVGID_24_);}
	.st36{fill:url(#SVGID_25_);}
	.st37{fill:url(#SVGID_26_);}
	.st38{fill:url(#SVGID_27_);}
	.st39{fill:url(#SVGID_28_);}
	.st40{fill:url(#SVGID_29_);}
	.st41{fill:url(#SVGID_30_);}
	.st42{fill:url(#SVGID_31_);}
	.st43{fill:url(#SVGID_32_);}
	.st44{opacity:0.3;fill:none;stroke:#41A4FE;stroke-width:2.0538;stroke-miterlimit:10;}
	.st45{opacity:0.2;fill:#41A4FE;}
	.st46{opacity:0.7;fill:#41A4FE;}
	.st47{opacity:0.9;fill:#FFFFFF;}
	.st48{opacity:0.5;fill:#FFFFFF;}
	.st49{opacity:0.7;fill:#FFFFFF;}
	.st50{opacity:0.5;fill:none;stroke:#FFFFFF;stroke-width:0.4928;stroke-miterlimit:10;}
	.st51{opacity:0.2;fill:#FFFFFF;}
	.st52{opacity:0.5;fill:#41A4FE;}
	.st53{opacity:0.7;fill:none;stroke:#FFFFFF;stroke-width:0.4489;stroke-miterlimit:10;}
	.st54{opacity:0.5;fill:none;stroke:#FFFFFF;stroke-width:0.4489;stroke-miterlimit:10;}
</style>
<g id="Layer_1" class="st0">
	<g class="st1">
		<g>
			<g class="st2">
				
					<ellipse transform="matrix(1.015529e-03 -1 1 1.015529e-03 136.7141 426.7956)" class="st3" cx="282" cy="145" rx="143" ry="143"/>
				<path class="st4" d="M412.2,213.7c0,2.8-2.3,5-5,5c-2.8,0-5-2.3-5-5c0-2.8,2.3-5,5-5C409.9,208.6,412.2,210.9,412.2,213.7z"/>
				<path class="st4" d="M171.5,66.8c0,5-4.1,9.1-9.1,9.1c-5,0-9.1-4.1-9.1-9.1c0-5,4.1-9.1,9.1-9.1
					C167.5,57.7,171.5,61.8,171.5,66.8z"/>
			</g>
			<g>
				
					<ellipse transform="matrix(0.7071 -0.7071 0.7071 0.7071 -19.9227 241.845)" class="st3" cx="282" cy="145" rx="127.5" ry="127.5"/>
				<circle class="st4" cx="346.6" cy="35" r="7.2"/>
				<path class="st4" d="M191,229c0,2.8-2.3,5-5,5c-2.8,0-5-2.3-5-5c0-2.8,2.3-5,5-5C188.7,223.9,191,226.2,191,229z"/>
			</g>
		</g>
		<ellipse transform="matrix(0.9239 -0.3827 0.3827 0.9239 -13.8194 99.1253)" class="st5" cx="242.3" cy="84.3" rx="5" ry="5"/>
		<g>
			<g>
				<g>
					<path class="st6" d="M255.3,260.4c0,3,0,6,0,9c0,3-0.1,6-0.3,9c-0.1,3-0.3,6-0.6,9c-0.2,1.5-0.3,3.1-0.6,4.6
						c-0.1,0.8-0.3,1.6-0.4,2.4c-0.2,0.8-0.4,1.7-0.6,2.5c-0.6,2.2-2.8,3.5-5,3c-2.1-0.6-3.4-2.7-3-4.8l0.1-0.4
						c0.4-2.2,0.6-5.1,0.7-7.9c0-2.8,0-5.7-0.1-8.6c-0.1-2.9-0.2-5.8-0.4-8.6c-0.2-2.9-0.4-5.8-0.7-8.6l0,0c-0.3-3,2-5.7,5-6
						c3-0.3,5.7,2,6,5C255.3,260.1,255.3,260.3,255.3,260.4z"/>
				</g>
			</g>
			<g>
				<g>
					<path class="st6" d="M272.7,319.8l-41.3,8.9c-2,0.4-4-0.8-4.4-2.9c-0.4-1.9,0.8-3.8,2.6-4.4l0.1,0l40.5-11.3l0.2,0
						c2.6-0.7,5.4,0.8,6.1,3.5c0.7,2.6-0.8,5.4-3.5,6.1C272.9,319.8,272.8,319.8,272.7,319.8z"/>
				</g>
			</g>
			<g>
				<g>
					<path class="st6" d="M319,261c-0.3,2.8-0.5,5.7-0.7,8.6c-0.2,2.9-0.3,5.8-0.4,8.6c-0.1,2.9-0.1,5.7-0.1,8.6
						c0,2.8,0.2,5.7,0.7,7.9l0.1,0.4c0.5,2.2-1,4.4-3.2,4.9c-2.2,0.4-4.3-0.9-4.8-3c-0.2-0.8-0.5-1.7-0.6-2.5
						c-0.1-0.8-0.3-1.6-0.4-2.4c-0.2-1.6-0.4-3.1-0.6-4.6c-0.3-3-0.5-6-0.6-9c-0.1-3-0.2-6-0.3-9c0-3-0.1-5.9,0-9
						c0-3.1,2.5-5.5,5.6-5.5c3.1,0,5.5,2.5,5.5,5.6C319,260.7,319,260.8,319,261L319,261z"/>
				</g>
			</g>
			<g>
				
					<radialGradient id="SVGID_1_" cx="2478.8179" cy="2045.9087" r="117.8809" gradientTransform="matrix(-0.1681 2.560000e-02 2.560000e-02 0.1681 602.7173 -158.1256)" gradientUnits="userSpaceOnUse">
					<stop  offset="0.1534" style="stop-color:#FFFFFF"/>
					<stop  offset="0.4635" style="stop-color:#FDFEFF"/>
					<stop  offset="0.636" style="stop-color:#F5FBFF"/>
					<stop  offset="0.7747" style="stop-color:#E7F5FF"/>
					<stop  offset="0.8947" style="stop-color:#D3ECFF"/>
					<stop  offset="1" style="stop-color:#BBE2FF"/>
				</radialGradient>
				<path class="st7" d="M235.6,270.2c3,2.8,8.9,0.2,15.3-5.6c6.4-5.9,10.3-12.1,7.8-15.6c-2.7-3.6-11.3-1.9-17.6,4
					C234.6,258.9,232.3,267.1,235.6,270.2z"/>
				<path class="st8" d="M235.4,269.5c-0.5-0.5-0.9-1.1-1.1-1.9c5.7,6.9,27.8-15.8,20.6-20.1h0c1.1,0.3,2,0.8,2.6,1.6
					c2.5,3.4-1.3,9.3-7.5,15C244,269.7,238.3,272.2,235.4,269.5z"/>
			</g>
			<g>
				
					<radialGradient id="SVGID_2_" cx="1135.7772" cy="2270.1177" r="117.9027" gradientTransform="matrix(0.1605 5.610000e-02 -5.620000e-02 0.1605 271.691 -175.6634)" gradientUnits="userSpaceOnUse">
					<stop  offset="0.1534" style="stop-color:#FFFFFF"/>
					<stop  offset="0.4635" style="stop-color:#FDFEFF"/>
					<stop  offset="0.636" style="stop-color:#F5FBFF"/>
					<stop  offset="0.7747" style="stop-color:#E7F5FF"/>
					<stop  offset="0.8947" style="stop-color:#D3ECFF"/>
					<stop  offset="1" style="stop-color:#BBE2FF"/>
				</radialGradient>
				<path class="st9" d="M325.3,273.6c-3.4,2.2-8.8-1.4-14-8.4c-5.2-6.9-7.9-13.8-4.7-16.7c3.3-3.1,11.4,0.2,16.6,7.2
					C328.3,262.6,329.1,271.1,325.3,273.6z"/>
				<path class="st8" d="M325.6,272.9c0.6-0.4,1.1-0.9,1.4-1.6c-6.8,5.7-24.4-20.6-16.6-23.6h0c-1.2,0.1-2.2,0.4-2.9,1.1
					c-3,2.9-0.4,9.4,4.6,16.1C317.1,271.5,322.3,275,325.6,272.9z"/>
			</g>
			<g>
				
					<radialGradient id="SVGID_3_" cx="600.7123" cy="17577.4062" r="418.6647" gradientTransform="matrix(0.1485 0 0 2.660000e-02 193.0791 -78.6953)" gradientUnits="userSpaceOnUse">
					<stop  offset="0.2037" style="stop-color:#ABABAB"/>
					<stop  offset="0.3198" style="stop-color:#BCBCBC"/>
					<stop  offset="0.6123" style="stop-color:#E0E0E0"/>
					<stop  offset="0.8495" style="stop-color:#F7F7F7"/>
					<stop  offset="1" style="stop-color:#FFFFFF"/>
				</radialGradient>
				<ellipse class="st10" cx="282.3" cy="388.9" rx="62.2" ry="11.1"/>
			</g>
			<g>
				<g>
					<path class="st6" d="M293.1,310.2l40.6,11.3l0,0c2,0.6,3.1,2.6,2.6,4.6c-0.5,1.9-2.5,3.1-4.4,2.6l-41.3-8.9
						c-2.7-0.6-4.4-3.2-3.8-5.9c0.6-2.7,3.2-4.4,5.9-3.8c0.1,0,0.2,0,0.3,0.1L293.1,310.2z"/>
				</g>
			</g>
			<polygon class="st6" points="293.4,310.5 271.9,310.5 269.8,294.3 295.5,294.3 			"/>
			<radialGradient id="SVGID_4_" cx="281.9878" cy="307.3874" r="15.9791" gradientUnits="userSpaceOnUse">
				<stop  offset="0.1534" style="stop-color:#FFFFFF"/>
				<stop  offset="0.4635" style="stop-color:#FDFEFF"/>
				<stop  offset="0.636" style="stop-color:#F5FBFF"/>
				<stop  offset="0.7747" style="stop-color:#E7F5FF"/>
				<stop  offset="0.8947" style="stop-color:#D3ECFF"/>
				<stop  offset="1" style="stop-color:#BBE2FF"/>
			</radialGradient>
			<path class="st11" d="M282.6,322.9L282.6,322.9c-9.3,0-16.8-7.1-16.8-15.8l0,0c0-1.6,1.4-3,3.2-3h13.3h14.1c1.7,0,3.2,1.3,3.2,3
				l0,0C299.4,315.8,291.9,322.9,282.6,322.9z"/>
			<path class="st8" d="M282.2,310.7c-4.1,0-7.5,3.4-7.5,7.5v2.9c0.4,0.2,0.7,0.3,1.1,0.5v-3.4c0-3.5,2.9-6.4,6.4-6.4
				c3.5,0,6.4,2.9,6.4,6.4v3.7c0.4-0.1,0.7-0.3,1.1-0.4v-3.3C289.7,314,286.3,310.7,282.2,310.7z"/>
			<path class="st8" d="M295.7,304.2h-0.5c-0.9,4.8-5,19.9-19.6,16.8c2.1,0.9,4.4,1.4,6.8,1.4c9,0,16.3-6.9,16.3-15.3
				C298.7,305.5,297.3,304.2,295.7,304.2z"/>
			
				<radialGradient id="SVGID_5_" cx="282.3401" cy="305.3213" r="38.1452" gradientTransform="matrix(1 0 0 0.8124 0 20.2998)" gradientUnits="userSpaceOnUse">
				<stop  offset="0.1534" style="stop-color:#FFFFFF"/>
				<stop  offset="0.4635" style="stop-color:#FDFEFF"/>
				<stop  offset="0.636" style="stop-color:#F5FBFF"/>
				<stop  offset="0.7747" style="stop-color:#E7F5FF"/>
				<stop  offset="0.8947" style="stop-color:#D3ECFF"/>
				<stop  offset="1" style="stop-color:#BBE2FF"/>
			</radialGradient>
			<path class="st12" d="M317.3,264.9c0,14.8-15.7,34.7-35.1,34.7c-19.4,0-35.1-19.9-35.1-34.7c0-14.8,15.7-18.9,35.1-18.9
				C301.5,246,317.3,250.1,317.3,264.9z"/>
			<path class="st8" d="M248.6,270.9c3.3,12,17,26.3,33.3,26.3c16.5,0,30.2-14.5,33.3-26.6c-11.1,12.5-22.6,14.7-33.3,14.5
				C269.1,284.9,257.4,280.3,248.6,270.9z"/>
			<path class="st8" d="M282.3,244.5c-4.7,0-9,1.2-12.6,3.5c1.3,4.6,5.6,10.2,13,10.2c7.8,0,11.4-5.4,12.9-9.8
				C291.8,245.8,287.2,244.5,282.3,244.5z"/>
			<path class="st6" d="M271.3,247c0,0.2,0,0.3,0,0.5c0,3.9,5.1,9.3,11.4,9.3c6.3,0,11.4-5.4,11.4-9.3c0,0,0,0,0,0
				c-3.4-2-7.5-3-11.8-3C278.3,244.5,274.6,245.4,271.3,247z"/>
			<path class="st8" d="M294.8,247.3c-1.6-0.4-3.2-0.6-4.9-0.8l0,0.2c3.4,0.3,6.6,3.5,8.9,8.9c4.6,10.8,4.8,31.6-8.7,42.9
				c1.2-0.3,2.4-0.7,3.5-1.2c11.8-12.1,11.3-31.4,6.7-42.1C298.8,251.5,296.9,248.9,294.8,247.3z"/>
			<g>
				
					<radialGradient id="SVGID_6_" cx="267.3754" cy="386.64" r="51.1901" gradientTransform="matrix(5.350000e-02 0.943 -0.9923 0.1639 711.4334 23.2266)" gradientUnits="userSpaceOnUse">
					<stop  offset="0.1534" style="stop-color:#FFFFFF"/>
					<stop  offset="0.4635" style="stop-color:#FDFEFF"/>
					<stop  offset="0.636" style="stop-color:#F5FBFF"/>
					<stop  offset="0.7747" style="stop-color:#E7F5FF"/>
					<stop  offset="0.8947" style="stop-color:#D3ECFF"/>
					<stop  offset="1" style="stop-color:#BBE2FF"/>
				</radialGradient>
				<path class="st13" d="M294.4,320.2c-4.1,4.4-3.2,20.8,1.4,24.3c5,3.8,40.9-9.5,44.7-15.5c2-3.2-6.7-13.2-10.3-13.2
					C311.9,316,296.2,318.2,294.4,320.2z"/>
				<path class="st8" d="M300.3,345.1c-2.1,0.2-3.7,0-4.5-0.6c-3.6-2.7-4.9-13.5-3.3-20.1c10.2-7.1,33.4-7.9,39.6-8
					c0.9,0.5,1.8,1.2,2.8,2.1c-16.7-0.5-35.9,5.9-33.8,13C303.7,340.1,300.4,345,300.3,345.1z"/>
				<path class="st8" d="M335,320.3c0.4-0.2,0.8-0.3,1.2-0.5c3,3.2,5.4,7.3,4.3,9.2c-0.7,1.1-2.4,2.4-4.8,3.8
					c-3.4,0.5-6.3-0.2-7.3-2.3C326.9,327.5,329.8,322.9,335,320.3z"/>
				<radialGradient id="SVGID_7_" cx="337.2607" cy="327.1002" r="6.9864" gradientUnits="userSpaceOnUse">
					<stop  offset="0.1534" style="stop-color:#FFFFFF"/>
					<stop  offset="0.4635" style="stop-color:#FDFEFF"/>
					<stop  offset="0.636" style="stop-color:#F5FBFF"/>
					<stop  offset="0.7747" style="stop-color:#E7F5FF"/>
					<stop  offset="0.8947" style="stop-color:#D3ECFF"/>
					<stop  offset="1" style="stop-color:#BBE2FF"/>
				</radialGradient>
				<path class="st14" d="M335,322.7c-4.2,2.1-6.6,5.8-5.4,8.2c1.3,2.4,5.7,2.7,9.9,0.5c4.2-2.1,6.6-5.8,5.4-8.2
					C343.6,320.8,339.2,320.6,335,322.7z"/>
				
					<radialGradient id="SVGID_8_" cx="265.5106" cy="409.7718" r="37.4659" gradientTransform="matrix(5.350000e-02 0.943 -0.9923 0.1639 711.4334 23.2266)" gradientUnits="userSpaceOnUse">
					<stop  offset="0.1534" style="stop-color:#FFFFFF"/>
					<stop  offset="0.4635" style="stop-color:#FDFEFF"/>
					<stop  offset="0.636" style="stop-color:#F5FBFF"/>
					<stop  offset="0.7747" style="stop-color:#E7F5FF"/>
					<stop  offset="0.8947" style="stop-color:#D3ECFF"/>
					<stop  offset="1" style="stop-color:#BBE2FF"/>
				</radialGradient>
				<path class="st15" d="M287.2,321.1c-6.4,0.7-5.1,0.5-4.1,18.3c0.6,9.8,0.5,17.8,4.1,17.5c3.2-0.3,13.2-9.3,12.6-19.2
					C299.3,327.9,293.7,320.4,287.2,321.1z"/>
				<path class="st8" d="M287.7,356.2c0.7-0.1,1.6-0.5,2.7-1.3c-1.7,0.7-4,0.5-4.9-10.7c-0.9-11.2,5.7-17.7,10.4-18c0,0,0,0,0,0
					l-1.9-2c-1.8-1.6-4-2.4-6.2-2.1c-6.1,0.6-4.9,0.5-3.9,17.5C284.4,348.8,284.4,356.5,287.7,356.2z"/>
				
					<ellipse transform="matrix(0.9801 -0.1987 0.1987 0.9801 -58.147 65.1123)" class="st6" cx="295.3" cy="322.3" rx="8.2" ry="4.3"/>
			</g>
			<g>
				<g>
					
						<ellipse transform="matrix(0.1539 -0.9881 0.9881 0.1539 159.759 500.2768)" class="st6" cx="372" cy="156.9" rx="50.8" ry="24.4"/>
					<path class="st4" d="M379,200.6c1.3-1.3,2.5-2.8,3.7-4.5l11-74.6c-0.7-1.9-1.5-3.6-2.3-5.2L379,200.6z"/>
					
						<ellipse transform="matrix(0.9914 -0.1305 0.1305 0.9914 -18.8258 26.3902)" class="st6" cx="191.9" cy="156.8" rx="24.6" ry="50.8"/>
					<path class="st4" d="M170.9,120.9l9.2,74.8c1.2,1.7,2.4,3.2,3.7,4.6l-10.4-84.6C172.5,117.4,171.6,119.1,170.9,120.9z"/>
					
						<radialGradient id="SVGID_9_" cx="728.4669" cy="1276.459" r="556.9873" gradientTransform="matrix(0.2518 0 0 0.247 100.4665 -188.2245)" gradientUnits="userSpaceOnUse">
						<stop  offset="0.1534" style="stop-color:#FFFFFF"/>
						<stop  offset="0.4635" style="stop-color:#FDFEFF"/>
						<stop  offset="0.636" style="stop-color:#F5FBFF"/>
						<stop  offset="0.7747" style="stop-color:#E7F5FF"/>
						<stop  offset="0.8947" style="stop-color:#D3ECFF"/>
						<stop  offset="1" style="stop-color:#BBE2FF"/>
					</radialGradient>
					<path class="st16" d="M383.2,112.3c0-43.7-45.1-79.1-100.7-79.1c-55.6,0-100.7,35.4-100.8,79.1c0,1.2,0,2.4,0.1,3.6h-0.1
						l0.2,1.5c0.1,1.8,0.4,3.6,0.7,5.3l5.2,41.6l4.7,36.9c1.5,11.9,8.4,22.5,18.7,29c18.2,11.3,43.4,18.3,71.2,18.3
						c26.5,0,50.7-6.4,68.7-16.8c10.7-6.2,17.8-16.8,19.5-28.8l11.3-78.3c0.6-2.8,0.9-5.7,1.1-8.6l0-0.1h0
						C383.2,114.7,383.2,113.5,383.2,112.3z"/>
					<path class="st8" d="M376.7,87.7c3,17.6-9.1,70-11.6,95.4c-2.7,27.7-12.1,56.6-82.5,56.6c-70.4,0-86.4-31.6-86.4-31.6
						c3,8.4,8.7,15.7,16.5,20.5c17.9,11.2,42.6,18.1,70,18.1c26.1,0,49.8-6.3,67.5-16.6c10.5-6.1,17.5-16.6,19.2-28.5l11.1-77.4
						c0.6-2.8,0.9-5.6,1.1-8.5l0-0.1h0c0.1-1.2,0.1-2.4,0.1-3.6C381.6,103.5,379.9,95.3,376.7,87.7z"/>
					<g class="st17">
						<path class="st8" d="M282.5,79.6c-15.1,0-27.3-12-27.3-26.8l0-16.7l1.4-0.3l0,17c0,14,11.6,25.5,25.9,25.5
							c14.3,0,26-11.4,26-25.4l0-17l1.4,0.3l0,16.7C309.8,67.6,297.6,79.6,282.5,79.6z"/>
					</g>
					<g class="st17">
						<path class="st8" d="M345.3,234.9c2.7-36.3,9.3-122.7,12.5-138.1c3.6-17.1,13.3-21.4,13.7-21.6l0.8,1.2l-0.1,0
							c-0.1,0-9.6,4.3-13,20.6c-3.2,15.3-9.7,100.6-12.5,137.1L345.3,234.9z"/>
					</g>
					<g class="st17">
						<path class="st8" d="M216.8,233.4c-2.7-36.1-9.2-121.1-12.4-136.4c-3.4-16.3-11.9-20.1-12-20.1c0,0-0.1-0.1-0.1-0.1l0.8-1.2
							c1.1,0.5,9.3,4.8,12.7,21c3.2,15.3,9.8,101.3,12.4,137.4L216.8,233.4z"/>
					</g>
					<g>
						<path class="st6" d="M228.6,127.8c-16.4,0-29.1,14.4-27.1,30.6v0l4.7,37.6c1,8,5.6,15.2,12.4,19.5
							c16.8,10.6,39.4,16.5,63.7,16.5c23.1,0,45-5.4,61.6-15.2c7-4.1,11.7-11.2,12.9-19.4l5.5-38.6c2.3-16.4-10.4-31.1-27-31.1
							L228.6,127.8z"/>
						<path class="st8" d="M282.4,233.5c-24.5,0-47.4-5.9-64.5-16.7c-7.2-4.6-12-12.1-13-20.5l-4.7-37.6c-1-8.2,1.5-16.4,7-22.5
							c5.4-6.2,13.3-9.7,21.5-9.7l106.6,0c8.3,0,16.2,3.6,21.6,9.9c5.4,6.3,7.9,14.6,6.7,22.8l-5.5,38.6c-1.2,8.6-6.1,16-13.5,20.4
							C327.8,228.1,305.7,233.5,282.4,233.5z M228.6,129.2c-7.4,0-14.5,3.2-19.4,8.7c-4.9,5.6-7.2,13-6.3,20.3l4.7,37.6
							c0.9,7.6,5.2,14.4,11.8,18.5c16.6,10.5,39,16.3,63,16.3c22.9,0,44.5-5.3,60.9-15c6.6-3.9,11.1-10.6,12.2-18.4l5.5-38.6
							c1.1-7.4-1.2-14.9-6.1-20.6c-4.9-5.7-12-8.9-19.5-8.9L228.6,129.2z"/>
					</g>
					<g>
						<g>
							
								<rect x="322.2" y="181.1" transform="matrix(-1 -1.333341e-04 1.333341e-04 -1 648.7626 366.7517)" class="st4" width="4.4" height="4.4"/>
							
								<rect x="317.8" y="181.1" transform="matrix(-1 -1.696970e-04 1.696970e-04 -1 639.9265 366.7614)" class="st4" width="4.4" height="4.4"/>
							
								<rect x="313.4" y="181.1" transform="matrix(-1 -1.636364e-04 1.636364e-04 -1 631.098 366.7573)" class="st4" width="4.4" height="4.4"/>
							
								<rect x="326.6" y="176.7" transform="matrix(-1 -1.636364e-04 1.636364e-04 -1 657.5887 357.934)" class="st4" width="4.4" height="4.4"/>
							
								<rect x="308.9" y="176.7" transform="matrix(-1 -1.696970e-04 1.696970e-04 -1 622.1961 357.9274)" class="st4" width="4.4" height="4.4"/>
						</g>
						<g>
							
								<rect x="245.2" y="181.1" transform="matrix(-1 -1.333333e-04 1.333333e-04 -1 494.7233 366.7415)" class="st4" width="4.4" height="4.4"/>
							
								<rect x="240.8" y="181.1" transform="matrix(-1 -1.696970e-04 1.696970e-04 -1 485.887 366.7483)" class="st4" width="4.4" height="4.4"/>
							
								<rect x="236.3" y="181.1" transform="matrix(-1 -1.636364e-04 1.636364e-04 -1 477.0586 366.7447)" class="st4" width="4.4" height="4.4"/>
							
								<rect x="249.6" y="176.7" transform="matrix(-1 -1.636374e-04 1.636374e-04 -1 503.5493 357.9214)" class="st4" width="4.4" height="4.4"/>
							
								<rect x="231.9" y="176.7" transform="matrix(-1 -1.696970e-04 1.696970e-04 -1 468.1567 357.9143)" class="st4" width="4.4" height="4.4"/>
						</g>
						<g>
							
								<rect x="284.1" y="198.7" transform="matrix(-1 -1.696978e-04 1.696978e-04 -1 572.6536 401.8626)" class="st4" width="4.4" height="4.4"/>
							
								<rect x="279.7" y="198.7" transform="matrix(-1 -1.636364e-04 1.636364e-04 -1 563.8253 401.8586)" class="st4" width="4.4" height="4.4"/>
							
								<rect x="275.3" y="198.7" transform="matrix(-1 -1.696970e-04 1.696970e-04 -1 554.9944 401.8581)" class="st4" width="4.4" height="4.4"/>
							
								<rect x="288.6" y="194.3" transform="matrix(-1 -1.636364e-04 1.636364e-04 -1 581.4864 393.0333)" class="st4" width="4.4" height="4.4"/>
							
								<rect x="270.9" y="194.3" transform="matrix(-1 -1.697021e-04 1.697021e-04 -1 546.0938 393.0264)" class="st4" width="4.4" height="4.4"/>
						</g>
					</g>
				</g>
			</g>
			<path class="st8" d="M307.6,272.5c0,3.1-2.5,5.6-5.6,5.6c-3.1,0-5.6-2.5-5.6-5.6c0-3.1,2.5-5.6,5.6-5.6
				C305.1,266.9,307.6,269.4,307.6,272.5z"/>
			<path class="st4" d="M302,276.5c-2.2,0-4.1-1.8-4.1-4.1c0-2.2,1.8-4.1,4.1-4.1c2.2,0,4.1,1.8,4.1,4.1
				C306.1,274.7,304.2,276.5,302,276.5z"/>
			<g>
				
					<radialGradient id="SVGID_10_" cx="290.7073" cy="265.513" r="51.1899" gradientTransform="matrix(-5.230000e-02 0.943 0.9925 0.1627 -25.536 21.3853)" gradientUnits="userSpaceOnUse">
					<stop  offset="0.1534" style="stop-color:#FFFFFF"/>
					<stop  offset="0.4635" style="stop-color:#FDFEFF"/>
					<stop  offset="0.636" style="stop-color:#F5FBFF"/>
					<stop  offset="0.7747" style="stop-color:#E7F5FF"/>
					<stop  offset="0.8947" style="stop-color:#D3ECFF"/>
					<stop  offset="1" style="stop-color:#BBE2FF"/>
				</radialGradient>
				<path class="st18" d="M270.4,320.1c4.1,4.4,3.2,20.8-1.3,24.3c-5,3.8-40.9-9.4-44.7-15.5c-2-3.2,6.7-13.3,10.3-13.2
					C252.9,316,268.6,318.2,270.4,320.1z"/>
				<path class="st8" d="M264.6,345c2.1,0.2,3.7,0,4.5-0.6c3.6-2.7,4.9-13.5,3.3-20.1c-10.2-7.1-33.4-7.9-39.7-8
					c-0.9,0.5-1.8,1.2-2.8,2.1c16.7-0.6,35.9,5.9,33.8,12.9C261.1,340.1,264.5,344.9,264.6,345z"/>
				<path class="st8" d="M229.8,320.3c-0.4-0.2-0.8-0.3-1.2-0.5c-3,3.2-5.4,7.3-4.2,9.2c0.7,1.1,2.4,2.4,4.8,3.8
					c3.4,0.5,6.3-0.2,7.3-2.3C238,327.4,235,322.9,229.8,320.3z"/>
				<radialGradient id="SVGID_11_" cx="227.5812" cy="327.0836" r="6.9864" gradientUnits="userSpaceOnUse">
					<stop  offset="0.1534" style="stop-color:#FFFFFF"/>
					<stop  offset="0.4635" style="stop-color:#FDFEFF"/>
					<stop  offset="0.636" style="stop-color:#F5FBFF"/>
					<stop  offset="0.7747" style="stop-color:#E7F5FF"/>
					<stop  offset="0.8947" style="stop-color:#D3ECFF"/>
					<stop  offset="1" style="stop-color:#BBE2FF"/>
				</radialGradient>
				<path class="st19" d="M229.8,322.7c4.2,2.1,6.6,5.8,5.4,8.2c-1.2,2.4-5.7,2.7-9.9,0.5c-4.2-2.1-6.6-5.8-5.4-8.2
					C221.2,320.8,225.6,320.6,229.8,322.7z"/>
				
					<radialGradient id="SVGID_12_" cx="288.8425" cy="288.6437" r="37.4673" gradientTransform="matrix(-5.230000e-02 0.943 0.9925 0.1627 -25.536 21.3853)" gradientUnits="userSpaceOnUse">
					<stop  offset="0.1534" style="stop-color:#FFFFFF"/>
					<stop  offset="0.4635" style="stop-color:#FDFEFF"/>
					<stop  offset="0.636" style="stop-color:#F5FBFF"/>
					<stop  offset="0.7747" style="stop-color:#E7F5FF"/>
					<stop  offset="0.8947" style="stop-color:#D3ECFF"/>
					<stop  offset="1" style="stop-color:#BBE2FF"/>
				</radialGradient>
				<path class="st20" d="M277.6,321c6.4,0.6,5.1,0.5,4.1,18.3c-0.5,9.8-0.5,17.8-4.1,17.5c-3.2-0.3-13.2-9.3-12.7-19.1
					C265.5,327.8,271.2,320.4,277.6,321z"/>
				<path class="st8" d="M277.1,356.1c-0.7-0.1-1.6-0.5-2.7-1.3c1.7,0.7,4,0.5,4.9-10.7c0.9-11.2-5.8-17.7-10.4-18c0,0,0,0,0,0
					l1.9-2c1.8-1.6,4-2.4,6.2-2.2c6.1,0.6,4.9,0.5,3.9,17.5C280.5,348.8,280.5,356.4,277.1,356.1z"/>
				<path class="st6" d="M270.1,317.9c4.5,0.8,7.8,3.4,7.4,5.8s-4.3,3.6-8.8,2.8c-4.5-0.8-7.8-3.4-7.4-5.8
					C261.7,318.3,265.7,317.1,270.1,317.9z"/>
			</g>
			<g>
				<g>
					
						<radialGradient id="SVGID_13_" cx="353.6223" cy="59.7007" r="32.5529" gradientTransform="matrix(-0.7339 -0.6703 0.6703 -0.7339 560.4262 573.2458)" gradientUnits="userSpaceOnUse">
						<stop  offset="0.1534" style="stop-color:#FFFFFF"/>
						<stop  offset="0.4635" style="stop-color:#FDFEFF"/>
						<stop  offset="0.636" style="stop-color:#F5FBFF"/>
						<stop  offset="0.7747" style="stop-color:#E7F5FF"/>
						<stop  offset="0.8947" style="stop-color:#D3ECFF"/>
						<stop  offset="1" style="stop-color:#BBE2FF"/>
					</radialGradient>
					<path class="st21" d="M311.9,292.3c3.9-3.7,14.2-1.5,19,4.7c6.3,8.1,11.8,14.9,17.3,20.4c0.7,0.7,0.5,2-0.2,2.8l-3,3.4
						c-0.7,0.8-1.8,1-2.7,0.6c-8.4-4.1-17.6-9.1-24-12.4C312,308.5,306.6,297.3,311.9,292.3z"/>
					<path class="st8" d="M342.6,323.1c-8.3-4.1-17.3-9.3-23.7-12.6c-4.8-2.5-8.6-8.7-8.1-14.4c1.2,1.1,3.4,12,35.1,25.7l-0.7,0.8
						C344.6,323.4,343.5,323.5,342.6,323.1z"/>
				</g>
				<g>
					<path class="st6" d="M352.4,320.2c0.2,3.1-2.8,6-5.9,5.8c-3.1-0.2-6.4-2.8-6.2-5.9c0.2-3.1,2.8-5.4,5.9-5.2
						C349.4,315.2,352.3,317.6,352.4,320.2z"/>
					<path class="st6" d="M352.9,311.6c1.9-0.8,2,2,0.2,3.5c-1.3,1-4.9,0.4-5.1,1.3c-0.3,2,2.3,4.1,0.7,4.8
						c-2.8,1.2-4.1,1.3-5.3-1.5c-1.2-2.8,0.1-6.1,2.9-7.3C349.1,311.2,351.2,312.3,352.9,311.6z"/>
					<path class="st6" d="M355.3,312.4c1,0.2,1.5,2,1.6,5.4c0.1,4.5-4.6,4.2-6.4,4.6c-1.6,0.3-0.8-3.4-0.4-3.9
						c0.7-0.8,3.5,0.7,3.3-1.4C353.3,314.2,354.3,312.2,355.3,312.4z"/>
					<path class="st6" d="M360.1,324.9c-0.4,1.1-3.1,0-6.6-1.3c-3.5-1.2-6.3-2.1-5.9-3.2c0.4-1.1,4.4-0.7,7.8,0.5
						S360.5,323.8,360.1,324.9z"/>
					<path class="st6" d="M358.3,327.9c-0.5,1-3-0.3-6.2-1.8c-3.2-1.5-5.9-2.5-5.4-3.6c0.5-1,4.2-0.3,7.4,1.2
						C357.3,325.2,358.8,326.9,358.3,327.9z"/>
					<path class="st6" d="M354.6,328.7c-0.4,1.1-3-0.2-6.3-1.5c-3.3-1.3-6-2.3-5.5-3.3c0.4-1.1,4.2-0.5,7.5,0.8
						C353.5,326,355,327.6,354.6,328.7z"/>
				</g>
				<g>
					
						<radialGradient id="SVGID_14_" cx="264.2029" cy="141.3711" r="32.5529" gradientTransform="matrix(0.7339 -0.6703 -0.6703 -0.7339 125.4262 573.2458)" gradientUnits="userSpaceOnUse">
						<stop  offset="0.1534" style="stop-color:#FFFFFF"/>
						<stop  offset="0.4635" style="stop-color:#FDFEFF"/>
						<stop  offset="0.636" style="stop-color:#F5FBFF"/>
						<stop  offset="0.7747" style="stop-color:#E7F5FF"/>
						<stop  offset="0.8947" style="stop-color:#D3ECFF"/>
						<stop  offset="1" style="stop-color:#BBE2FF"/>
					</radialGradient>
					<path class="st22" d="M253.6,292.3c-3.9-3.7-14.2-1.5-19,4.7c-6.3,8.1-11.8,14.9-17.3,20.4c-0.7,0.7-0.5,2,0.2,2.8l3,3.4
						c0.7,0.8,1.8,1,2.7,0.6c8.4-4.1,17.6-9.1,24-12.4C253.5,308.5,258.9,297.3,253.6,292.3z"/>
					<path class="st8" d="M222.9,323.1c8.3-4.1,17.3-9.3,23.7-12.6c4.8-2.5,8.6-8.7,8.1-14.4c-1.2,1.1-3.4,12-35.1,25.7l0.7,0.8
						C220.9,323.4,222,323.5,222.9,323.1z"/>
				</g>
				<g>
					<path class="st6" d="M213,320.2c-0.2,3.1,2.8,6,5.9,5.8c3.1-0.2,6.4-2.8,6.2-5.9c-0.2-3.1-2.8-5.4-5.9-5.2
						C216.1,315.2,213.2,317.6,213,320.2z"/>
					<path class="st6" d="M212.6,311.6c-1.9-0.8-2,2-0.2,3.5c1.3,1,4.9,0.4,5.1,1.3c0.3,2-2.3,4.1-0.7,4.8c2.8,1.2,4.1,1.3,5.3-1.5
						c1.2-2.8-0.1-6.1-2.9-7.3C216.4,311.2,214.3,312.3,212.6,311.6z"/>
					<path class="st6" d="M210.2,312.4c-1,0.2-1.5,2-1.6,5.4c-0.1,4.5,4.6,4.2,6.4,4.6c1.6,0.3,0.8-3.4,0.4-3.9
						c-0.7-0.8-3.5,0.7-3.3-1.4C212.2,314.2,211.2,312.2,210.2,312.4z"/>
					<path class="st6" d="M205.3,324.9c0.4,1.1,3.1,0,6.6-1.3c3.5-1.2,6.3-2.1,5.9-3.2c-0.4-1.1-4.4-0.7-7.8,0.5
						C206.6,322.2,204.9,323.8,205.3,324.9z"/>
					<path class="st6" d="M207.2,327.9c0.5,1,3-0.3,6.2-1.8c3.2-1.5,5.9-2.5,5.4-3.6c-0.5-1-4.2-0.3-7.4,1.2
						C208.2,325.2,206.7,326.9,207.2,327.9z"/>
					<path class="st6" d="M210.9,328.7c0.4,1.1,3-0.2,6.3-1.5c3.3-1.3,6-2.3,5.5-3.3c-0.4-1.1-4.2-0.5-7.5,0.8
						C212,326,210.5,327.6,210.9,328.7z"/>
				</g>
			</g>
		</g>
	</g>
</g>
<g id="Layer_2">
	<g>
		<g>
			<g>
				<path class="st6" d="M186.3,246.3c-3,2.2-6,4.3-9.1,6.4c-3,2.1-6.1,4.1-9.3,6.1c-3.1,2-6.3,3.9-9.6,5.7
					c-3.3,1.8-6.7,3.5-10.6,4.9c-2.3,0.8-4.7-0.4-5.5-2.7c-0.7-2.2,0.3-4.5,2.4-5.4l0.1,0c2.9-1.2,5.9-3,8.8-4.9
					c2.9-1.9,5.9-3.9,8.7-6c2.9-2.1,5.7-4.2,8.6-6.5c2.8-2.2,5.6-4.5,8.3-6.7l0,0c2.5-2.1,6.1-1.7,8.2,0.7c2.1,2.5,1.7,6.1-0.7,8.2
					C186.5,246.1,186.4,246.2,186.3,246.3z"/>
			</g>
		</g>
		<g>
			<g>
				
					<radialGradient id="SVGID_15_" cx="199.4499" cy="-23.489" r="35.9542" gradientTransform="matrix(0.7076 0.7249 0.7248 -0.7075 29.8112 73.8192)" gradientUnits="userSpaceOnUse">
					<stop  offset="0.1534" style="stop-color:#FFFFFF"/>
					<stop  offset="0.4635" style="stop-color:#FDFEFF"/>
					<stop  offset="0.636" style="stop-color:#F5FBFF"/>
					<stop  offset="0.7747" style="stop-color:#E7F5FF"/>
					<stop  offset="0.8947" style="stop-color:#D3ECFF"/>
					<stop  offset="1" style="stop-color:#BBE2FF"/>
				</radialGradient>
				<path class="st23" d="M153.2,268.8c3.8-4.2,4.3-14.3-2.4-19.2c-8.9-6.4-23.2-16.6-27.3-19.1c-0.9-0.6-2.1-0.5-3,0.3l-3.5,3.4
					c-0.8,0.7-1,1.9-0.5,2.9c4.6,8.9,12.3,21.9,16,28.7C136.1,272.3,148,274.6,153.2,268.8z"/>
			</g>
			<path class="st8" d="M133.4,265.1c-3.6-6.6-11.1-19.4-15.7-28.1c-0.5-0.9-0.3-2.1,0.5-2.8l1.4-1.3c1.3,10.1,19.3,31.7,34.1,35.3
				C148.6,273.8,137,271.6,133.4,265.1z"/>
		</g>
		<g>
			<path class="st6" d="M107.1,234.8c2.9,2.2,6.8,3.6,11.6,1.9c3.4-1.2,6-7.9,5.9-12.8c-0.1-5.2-6.7-2.9-11.4-4.3
				C108.3,218.1,102.9,231.7,107.1,234.8z"/>
			<path class="st6" d="M126.2,220.4c-3.2,3.4-0.8,14.6-10.6,8c-4.6-3.1-3.3-7.9,1-8.1c2.7-0.1,5.7-2.6,6.9-5.9
				c1.2-3.4,3-4.6,4.6-3.1C129.7,212.8,129.3,216.9,126.2,220.4z"/>
			<path class="st6" d="M97.8,213.4c-1.3,2.1,2.9,5.1,7.5,8c4.6,2.9,9.4,3.6,10.7,1.5c1.3-2.1-3.5-3.2-8.2-6.1
				C103.2,213.9,99.1,211.4,97.8,213.4z"/>
			<path class="st6" d="M94.1,222.9c0,2.4,4.3,4,9.8,4.1c5.5,0.1,9.9-1.3,10-3.7c0-2.4-4.5-1.2-9.9-1.3
				C98.5,221.8,94.1,220.4,94.1,222.9z"/>
			<path class="st6" d="M101.6,229.4c0,1.9,1.1,2.5,4.1,2.5c3,0,4.9-1,4.9-2.9c0-1.9-2.3-2.1-5.2-2.2
				C102.3,226.9,101.6,227.6,101.6,229.4z"/>
			<path class="st6" d="M102.9,233.6c-0.1,1.6,0.9,2.2,3.4,2.4c2.6,0.1,4.3-0.7,4.4-2.3c0.1-1.6-1.9-2-4.5-2.1
				C103.6,231.3,103,231.9,102.9,233.6z"/>
		</g>
		<g>
			<g>
				<path class="st6" d="M259.7,237.9c2.3,2.7,4.7,5.4,7.1,8c2.4,2.6,4.9,5.2,7.4,7.8c2.5,2.6,5,5,7.6,7.4c2.6,2.3,5.3,4.6,7.9,6.3
					l0.1,0.1c2,1.3,2.6,4,1.4,6c-1.2,1.9-3.8,2.6-5.7,1.5c-3.7-2-6.7-4.3-9.6-6.6c-3-2.3-5.8-4.8-8.6-7.2c-2.8-2.5-5.5-5-8.1-7.5
					c-2.7-2.6-5.3-5.1-7.9-7.8c-2.2-2.3-2.2-6,0.1-8.2c2.3-2.2,6-2.2,8.2,0.1C259.5,237.7,259.6,237.8,259.7,237.9L259.7,237.9z"/>
			</g>
		</g>
		<g>
			<g>
				
					<radialGradient id="SVGID_16_" cx="444.3944" cy="185.1604" r="35.9552" gradientTransform="matrix(-0.819 0.5961 -0.5961 -0.8189 759.2384 126.6751)" gradientUnits="userSpaceOnUse">
					<stop  offset="0.1534" style="stop-color:#FFFFFF"/>
					<stop  offset="0.4635" style="stop-color:#FDFEFF"/>
					<stop  offset="0.636" style="stop-color:#F5FBFF"/>
					<stop  offset="0.7747" style="stop-color:#E7F5FF"/>
					<stop  offset="0.8947" style="stop-color:#D3ECFF"/>
					<stop  offset="1" style="stop-color:#BBE2FF"/>
				</radialGradient>
				<path class="st24" d="M279.9,273.4c-3.1-4.8-1.9-14.8,5.6-18.5c9.8-4.9,25.7-12.5,30.1-14.3c1-0.4,2.2-0.1,2.9,0.8l2.9,3.9
					c0.7,0.9,0.7,2.1,0,2.9c-6,8-15.8,19.5-20.6,25.6C296.2,279.7,284.1,280,279.9,273.4z"/>
			</g>
			<path class="st8" d="M300.1,272.7c4.7-5.9,14.2-17.2,20.1-25c0.6-0.8,0.6-2,0-2.9l-1.2-1.6c-3,9.7-28.3,29.2-39.5,29.1
				C283.7,278.7,295.5,278.5,300.1,272.7z"/>
		</g>
		<g>
			<path class="st6" d="M330.6,244.6c-2.6,2.5-6.3,5-10.3,3.9c-3.5-0.9-5.9-3.9-6.5-8.9c-0.6-5.2,5-6.9,10-6.5
				C328.8,233.5,334.3,241,330.6,244.6z"/>
			<path class="st6" d="M318.8,229c-0.1,0.8,0.1,3.6,2.9,3.1c4.3-0.8-4.6,14.3-6.1,13c-6-5.4-1.3-11-1.7-18.4c-0.1-2.1-1-6,1.4-5.8
				C317.7,221.1,319.2,224,318.8,229z"/>
			<path class="st6" d="M337.3,223.1c1.5,1.9-2.2,5.4-6.4,8.9c-4.2,3.5-8.9,4.7-10.5,2.8c-1.1-1.3-1.1-2.1,1.3-2.8
				c1.3-0.4,4.8-3.3,6.1-4.3C332,224.3,335.8,221.2,337.3,223.1z"/>
			<path class="st6" d="M342.2,232.2c0.4,2.4-3.8,4.5-9.2,5.3c-5.4,0.8-10-0.1-10.4-2.5c-0.4-2.4,4.3-1.8,9.7-2.6
				C337.8,231.7,341.9,229.8,342.2,232.2z"/>
			<path class="st6" d="M335.7,239.4c0.3,1.9-0.7,2.7-3.6,3.2c-2.9,0.5-5-0.2-5.3-2.1c-0.3-1.9,1.9-2.5,4.8-3
				C334.6,236.9,335.4,237.5,335.7,239.4z"/>
			<path class="st6" d="M335.1,243.6c0.3,1.6-0.5,2.3-3.1,2.9c-2.5,0.5-4.3-0.1-4.7-1.7c-0.3-1.6,1.6-2.2,4.1-2.7
				C334.1,241.6,334.8,242,335.1,243.6z"/>
		</g>
		<g>
			<g class="st25">
				<path class="st4" d="M334.7,234c-4.8,0-8.2-4.7-7.6-10.4c0.6-5.7,5-10.3,9.7-10.2c4.8,0,8.2,4.7,7.6,10.4
					C343.9,229.5,339.5,234.1,334.7,234z M336.6,215.8c-3.7,0-7.1,3.5-7.5,7.9c-0.5,4.4,2.2,8,5.9,8c3.7,0,7.1-3.5,7.5-7.9
					C343,219.4,340.3,215.8,336.6,215.8z"/>
			</g>
			<path class="st26" d="M339.6,223.8c-0.3,2.5-2.1,4.4-4.2,4.4c-2.1,0-3.5-2-3.3-4.5c0.3-2.5,2.1-4.4,4.2-4.4
				C338.3,219.3,339.8,221.3,339.6,223.8z"/>
			<g class="st27">
				<path class="st4" d="M334.3,238.7c-7-0.1-11.9-6.8-11.1-15.1c0.9-8.3,7.2-14.9,14.2-14.9c7,0.1,11.9,6.8,11.1,15.1
					C347.6,232.1,341.2,238.8,334.3,238.7z M337.1,211.1c-5.9-0.1-11.2,5.6-11.9,12.5c-0.7,7,3.5,12.7,9.3,12.7
					c5.9,0.1,11.2-5.6,11.9-12.5C347.2,216.9,343,211.2,337.1,211.1z"/>
			</g>
			
				<radialGradient id="SVGID_17_" cx="271.5495" cy="225.307" r="42.3118" gradientTransform="matrix(0.5521 4.900000e-03 -6.770000e-02 0.6552 201.0904 74.7897)" gradientUnits="userSpaceOnUse">
				<stop  offset="0" style="stop-color:#FFFFFF"/>
				<stop  offset="6.655455e-02" style="stop-color:#D7D7D7"/>
				<stop  offset="0.1619" style="stop-color:#A5A5A5"/>
				<stop  offset="0.262" style="stop-color:#797979"/>
				<stop  offset="0.3652" style="stop-color:#545454"/>
				<stop  offset="0.4721" style="stop-color:#353535"/>
				<stop  offset="0.584" style="stop-color:#1E1E1E"/>
				<stop  offset="0.703" style="stop-color:#0D0D0D"/>
				<stop  offset="0.8339" style="stop-color:#030303"/>
				<stop  offset="1" style="stop-color:#000000"/>
			</radialGradient>
			<path class="st28" d="M359.1,223.9c-1.6,15.3-13.3,27.6-26.2,27.5c-12.9-0.1-22.1-12.6-20.5-27.9c1.6-15.3,13.3-27.6,26.2-27.5
				C351.5,196.1,360.7,208.6,359.1,223.9z"/>
		</g>
		<g>
			<g class="st27">
				<path class="st4" d="M95.9,221.1c-3.7,0-7-3.4-7.3-7.7c-0.3-4.2,2.4-7.7,6.1-7.7c3.7,0,7,3.4,7.3,7.7
					C102.3,217.7,99.6,221.1,95.9,221.1z M94.8,207.5c-2.9,0-5,2.7-4.7,5.9c0.3,3.3,2.8,5.9,5.6,5.9c2.9,0,5-2.7,4.7-5.9
					C100.2,210.2,97.7,207.5,94.8,207.5z"/>
			</g>
			<path class="st26" d="M98.2,213.5c0.1,1.8-1,3.3-2.6,3.3c-1.6,0-3-1.5-3.1-3.3c-0.1-1.8,1-3.3,2.6-3.3S98,211.6,98.2,213.5z"/>
			<g class="st27">
				<path class="st4" d="M96.1,224.6c-5.4,0-10.1-5-10.6-11.2c-0.5-6.2,3.5-11.2,8.9-11.2c5.4,0,10.1,5,10.6,11.2
					C105.5,219.6,101.5,224.6,96.1,224.6z M94.5,204c-4.5,0-7.9,4.2-7.5,9.4c0.4,5.2,4.4,9.4,8.9,9.4c4.5,0,7.9-4.2,7.5-9.4
					C103.1,208.3,99.1,204,94.5,204z"/>
			</g>
			
				<radialGradient id="SVGID_18_" cx="-211.4581" cy="207.5402" r="42.3116" gradientTransform="matrix(0.4404 0 3.960000e-02 0.5052 180.1994 108.9029)" gradientUnits="userSpaceOnUse">
				<stop  offset="0" style="stop-color:#FFFFFF"/>
				<stop  offset="6.655455e-02" style="stop-color:#D7D7D7"/>
				<stop  offset="0.1619" style="stop-color:#A5A5A5"/>
				<stop  offset="0.262" style="stop-color:#797979"/>
				<stop  offset="0.3652" style="stop-color:#545454"/>
				<stop  offset="0.4721" style="stop-color:#353535"/>
				<stop  offset="0.584" style="stop-color:#1E1E1E"/>
				<stop  offset="0.703" style="stop-color:#0D0D0D"/>
				<stop  offset="0.8339" style="stop-color:#030303"/>
				<stop  offset="1" style="stop-color:#000000"/>
			</radialGradient>
			<path class="st29" d="M113.9,213.8c0.9,11.8-6.7,21.4-17,21.4c-10.3,0-19.4-9.6-20.3-21.4c-0.9-11.8,6.7-21.4,17-21.4
				C103.9,192.4,113,201.9,113.9,213.8z"/>
		</g>
		<g>
			<g class="st25">
				<path class="st4" d="M126.3,220.2c-3.7,0-7-3.4-7.4-7.7c-0.4-4.2,2.3-7.7,6-7.7c3.7,0,7,3.4,7.4,7.7
					C132.7,216.8,130,220.2,126.3,220.2z M125.1,206.6c-2.9,0-4.9,2.7-4.6,5.9c0.3,3.3,2.9,5.9,5.7,5.9c2.9,0,4.9-2.7,4.6-5.9
					C130.5,209.3,127.9,206.6,125.1,206.6z"/>
			</g>
			<path class="st26" d="M128.5,212.6c0.2,1.8-1,3.3-2.6,3.3c-1.6,0-3-1.5-3.2-3.3c-0.2-1.8,1-3.3,2.6-3.3
				C126.9,209.2,128.3,210.7,128.5,212.6z"/>
			<g class="st27">
				<path class="st4" d="M126.6,223.7c-5.4,0-10.2-5-10.7-11.2c-0.6-6.2,3.4-11.2,8.7-11.2c5.4,0,10.2,5,10.7,11.2
					C135.9,218.7,132,223.7,126.6,223.7z M124.8,203.1c-4.5,0-7.8,4.2-7.4,9.4c0.5,5.2,4.5,9.4,9.1,9.4c4.5,0,7.8-4.2,7.4-9.4
					C133.4,207.4,129.3,203.1,124.8,203.1z"/>
			</g>
			
				<radialGradient id="SVGID_19_" cx="-63.6332" cy="206.0758" r="42.3114" gradientTransform="matrix(0.5617 0 5.840000e-02 0.6454 149.3377 79.5924)" gradientUnits="userSpaceOnUse">
				<stop  offset="0" style="stop-color:#FFFFFF"/>
				<stop  offset="6.655455e-02" style="stop-color:#D7D7D7"/>
				<stop  offset="0.1619" style="stop-color:#A5A5A5"/>
				<stop  offset="0.262" style="stop-color:#797979"/>
				<stop  offset="0.3652" style="stop-color:#545454"/>
				<stop  offset="0.4721" style="stop-color:#353535"/>
				<stop  offset="0.584" style="stop-color:#1E1E1E"/>
				<stop  offset="0.703" style="stop-color:#0D0D0D"/>
				<stop  offset="0.8339" style="stop-color:#030303"/>
				<stop  offset="1" style="stop-color:#000000"/>
			</radialGradient>
			<path class="st30" d="M149.4,212.6c1.4,15.1-8.2,27.3-21.3,27.3s-24.9-12.2-26.2-27.3c-1.4-15.1,8.2-27.3,21.3-27.3
				C136.3,185.3,148,197.5,149.4,212.6z"/>
		</g>
		<g>
			
				<radialGradient id="SVGID_20_" cx="2653.592" cy="2049.2185" r="123.6367" gradientTransform="matrix(-0.1699 -4.600000e-03 -4.600000e-03 0.1699 632.5055 -111.063)" gradientUnits="userSpaceOnUse">
				<stop  offset="0.1534" style="stop-color:#FFFFFF"/>
				<stop  offset="0.4635" style="stop-color:#FDFEFF"/>
				<stop  offset="0.636" style="stop-color:#F5FBFF"/>
				<stop  offset="0.7747" style="stop-color:#E7F5FF"/>
				<stop  offset="0.8947" style="stop-color:#D3ECFF"/>
				<stop  offset="1" style="stop-color:#BBE2FF"/>
			</radialGradient>
			<path class="st31" d="M165.4,246c2.5,3.4,9.2,1.9,16.8-3c7.7-4.9,12.9-10.5,10.9-14.6c-2.1-4.3-11.3-4-18.9,0.8
				C166.6,234.1,162.6,242.2,165.4,246z"/>
			<path class="st8" d="M165.4,245.2c-0.4-0.6-0.7-1.3-0.8-2.1c4.6,8.2,31.6-11.1,25-16.9l0,0c1.1,0.5,2,1.2,2.4,2.2
				c1.9,3.9-3.1,9.4-10.5,14C174.2,247,167.8,248.5,165.4,245.2z"/>
		</g>
		<g>
			
				<radialGradient id="SVGID_21_" cx="929.7986" cy="2156.5198" r="123.58" gradientTransform="matrix(0.1681 2.560000e-02 -2.560000e-02 0.1681 168.0091 -158.1256)" gradientUnits="userSpaceOnUse">
				<stop  offset="0.1534" style="stop-color:#FFFFFF"/>
				<stop  offset="0.4635" style="stop-color:#FDFEFF"/>
				<stop  offset="0.636" style="stop-color:#F5FBFF"/>
				<stop  offset="0.7747" style="stop-color:#E7F5FF"/>
				<stop  offset="0.8947" style="stop-color:#D3ECFF"/>
				<stop  offset="1" style="stop-color:#BBE2FF"/>
			</radialGradient>
			<path class="st32" d="M272.1,250.2c-3.1,2.9-9.4,0.2-16-5.9c-6.7-6.1-10.8-12.6-8.1-16.3c2.8-3.8,11.8-2,18.5,4.2
				C273,238.3,275.5,247,272.1,250.2z"/>
			<path class="st8" d="M272.2,249.4c0.5-0.5,0.9-1.2,1.2-1.9c-5.9,7.2-29.1-16.5-21.6-21.1h0c-1.2,0.3-2.1,0.8-2.8,1.7
				c-2.6,3.5,1.4,9.8,7.8,15.7C263.2,249.6,269.2,252.2,272.2,249.4z"/>
		</g>
		<g>
			
				<radialGradient id="SVGID_22_" cx="-391.351" cy="17432.1719" r="438.8956" gradientTransform="matrix(0.1047 0 0 2.660000e-02 233.029 -78.7014)" gradientUnits="userSpaceOnUse">
				<stop  offset="0.2037" style="stop-color:#ABABAB"/>
				<stop  offset="0.3198" style="stop-color:#BCBCBC"/>
				<stop  offset="0.6123" style="stop-color:#E0E0E0"/>
				<stop  offset="0.8495" style="stop-color:#F7F7F7"/>
				<stop  offset="1" style="stop-color:#FFFFFF"/>
			</radialGradient>
			<path class="st33" d="M238,385c0,6.4-20.6,11.7-46,11.7c-25.4,0-46-5.2-46-11.7c0-6.4,20.6-11.7,46-11.7
				C217.4,373.3,238,378.5,238,385z"/>
			
				<radialGradient id="SVGID_23_" cx="109.7095" cy="17431.918" r="438.9003" gradientTransform="matrix(0.1104 0 0 2.660000e-02 234.9447 -78.695)" gradientUnits="userSpaceOnUse">
				<stop  offset="0.2037" style="stop-color:#ABABAB"/>
				<stop  offset="0.3198" style="stop-color:#BCBCBC"/>
				<stop  offset="0.6123" style="stop-color:#E0E0E0"/>
				<stop  offset="0.8495" style="stop-color:#F7F7F7"/>
				<stop  offset="1" style="stop-color:#FFFFFF"/>
			</radialGradient>
			<ellipse class="st34" cx="247.1" cy="385" rx="48.5" ry="11.7"/>
		</g>
		<g>
			<g>
				<path class="st6" d="M235.7,290.8c1.5,3.9,2.1,7.3,2.8,10.8c0.6,3.5,1,6.9,1.4,10.3c0.4,3.4,0.7,6.8,0.9,10.2
					c0.2,3.4,0.4,6.8,0.6,10.2c0.1,2.2-1.6,4-3.7,4.1c-2.1,0.1-3.8-1.5-4-3.5l0-0.1c-0.3-3.3-0.7-6.6-1.2-9.9
					c-0.4-3.3-0.9-6.6-1.5-9.8c-0.5-3.3-1.2-6.5-1.9-9.6c-0.7-3.1-1.6-6.3-2.7-8.6l0-0.1c-1.2-2.6-0.1-5.7,2.5-6.9
					c2.6-1.2,5.7-0.1,6.9,2.5C235.6,290.5,235.6,290.6,235.7,290.8z"/>
			</g>
		</g>
		<g>
			<g>
				<path class="st6" d="M213.5,293.6c-2.4,6.2-4.2,13-5.6,19.8c-0.7,3.4-1.4,6.9-2,10.3c-0.6,3.4-1.1,7-1.5,10.4l0,0.1
					c-0.3,2.1-2.2,3.7-4.3,3.4c-2.1-0.3-3.5-2.1-3.4-4.1c0.2-3.7,0.5-7.3,0.9-10.9c0.4-3.6,0.8-7.2,1.4-10.8
					c1.1-7.2,2.5-14.4,4.8-21.7c0.9-2.7,3.8-4.3,6.5-3.4c2.7,0.9,4.3,3.8,3.4,6.5C213.6,293.3,213.6,293.4,213.5,293.6L213.5,293.6z
					"/>
			</g>
		</g>
		<polygon class="st6" points="231.1,290.5 208.6,290.5 206.4,273.4 233.3,273.4 		"/>
		<radialGradient id="SVGID_24_" cx="219.1259" cy="287.1999" r="16.7518" gradientUnits="userSpaceOnUse">
			<stop  offset="0.1534" style="stop-color:#FFFFFF"/>
			<stop  offset="0.4635" style="stop-color:#FDFEFF"/>
			<stop  offset="0.636" style="stop-color:#F5FBFF"/>
			<stop  offset="0.7747" style="stop-color:#E7F5FF"/>
			<stop  offset="0.8947" style="stop-color:#D3ECFF"/>
			<stop  offset="1" style="stop-color:#BBE2FF"/>
		</radialGradient>
		<path class="st35" d="M219.7,303.5L219.7,303.5c-9.7,0-17.6-7.4-17.6-16.5l0,0c0-1.7,1.5-3.1,3.3-3.1h13.9h14.7
			c1.8,0,3.3,1.4,3.3,3.1l0,0C237.4,296.1,229.5,303.5,219.7,303.5z"/>
		<path class="st8" d="M219.3,290.7c-4.3,0-7.8,3.5-7.8,7.8v3.1c0.4,0.2,0.8,0.4,1.2,0.5v-3.6c0-3.7,3-6.7,6.7-6.7
			c3.7,0,6.7,3,6.7,6.7v3.9c0.4-0.1,0.8-0.3,1.2-0.5v-3.4C227.2,294.2,223.7,290.7,219.3,290.7z"/>
		<path class="st8" d="M233.5,283.8h-0.5c-1,5.1-5.3,20.9-20.6,17.6c2.2,0.9,4.6,1.5,7.2,1.5c9.5,0,17.1-7.2,17.1-16.1
			C236.7,285.2,235.2,283.8,233.5,283.8z"/>
		
			<radialGradient id="SVGID_25_" cx="219.4951" cy="278.1486" r="39.9896" gradientTransform="matrix(1 0 0 0.8124 0 20.2998)" gradientUnits="userSpaceOnUse">
			<stop  offset="0.1534" style="stop-color:#FFFFFF"/>
			<stop  offset="0.4635" style="stop-color:#FDFEFF"/>
			<stop  offset="0.636" style="stop-color:#F5FBFF"/>
			<stop  offset="0.7747" style="stop-color:#E7F5FF"/>
			<stop  offset="0.8947" style="stop-color:#D3ECFF"/>
			<stop  offset="1" style="stop-color:#BBE2FF"/>
		</radialGradient>
		<path class="st36" d="M256.1,242.6c0,15.5-16.5,36.3-36.8,36.3c-20.3,0-36.8-20.8-36.8-36.3s16.5-19.8,36.8-19.8
			C239.6,222.8,256.1,227.1,256.1,242.6z"/>
		<path class="st8" d="M184.1,248.9c3.5,12.6,17.8,27.5,34.9,27.5c17.3,0,31.6-15.2,34.9-27.8c-11.6,13.1-23.7,15.4-34.9,15.2
			C205.6,263.6,193.3,258.8,184.1,248.9z"/>
		<path class="st8" d="M219.4,221.3c-4.9,0-9.5,1.3-13.2,3.7c1.4,4.8,5.9,10.7,13.6,10.7c8.2,0,11.9-5.7,13.5-10.2
			C229.4,222.7,224.6,221.3,219.4,221.3z"/>
		<path class="st6" d="M207.9,223.9c0,0.2,0,0.3,0,0.5c0,4.1,5.3,9.8,11.9,9.8c6.6,0,11.9-5.7,11.9-9.8c0,0,0,0,0,0
			c-3.6-2.1-7.8-3.2-12.3-3.2C215.3,221.3,211.4,222.2,207.9,223.9z"/>
		<path class="st8" d="M232.5,224.2c-1.7-0.4-3.4-0.7-5.2-0.9l0,0.2c3.5,0.3,6.9,3.7,9.3,9.3c4.8,11.3,5.1,33.1-9.1,45
			c1.2-0.3,2.5-0.8,3.7-1.3c12.3-12.7,11.8-32.9,7-44.2C236.7,228.7,234.8,225.9,232.5,224.2z"/>
		<g>
			
				<radialGradient id="SVGID_26_" cx="151.9995" cy="331.2251" r="55.646" gradientTransform="matrix(0.9445 0 0 1 23.0696 0)" gradientUnits="userSpaceOnUse">
				<stop  offset="0.1534" style="stop-color:#FFFFFF"/>
				<stop  offset="0.4635" style="stop-color:#FDFEFF"/>
				<stop  offset="0.636" style="stop-color:#F5FBFF"/>
				<stop  offset="0.7747" style="stop-color:#E7F5FF"/>
				<stop  offset="0.8947" style="stop-color:#D3ECFF"/>
				<stop  offset="1" style="stop-color:#BBE2FF"/>
			</radialGradient>
			<path class="st37" d="M209.2,373.4c-3.8,4.5-21.1,4.5-25.5,0c-4.8-5,2.8-43.4,8.5-47.7c3-2.3,14.9,6.3,15.5,10
				C210.5,354.8,210.9,371.3,209.2,373.4z"/>
			<path class="st8" d="M182.3,368.7c0.2,2.2,0.6,3.9,1.4,4.7c3.5,3.6,14.9,4.3,21.4,2.3c5.7-11.1,2.5-35.4,1.5-42
				c-0.6-0.9-1.6-1.8-2.6-2.8c3.4,17.4-0.2,38.8-7.7,36.1C187.9,363.9,182.4,368.6,182.3,368.7z"/>
			<path class="st8" d="M202.1,330.8c0.1-0.4,0.2-0.8,0.3-1.3c-3.8-2.9-8.5-5.2-10.3-3.9c-1,0.8-2.1,2.6-3.1,5.2
				c0,3.6,1.3,6.5,3.6,7.5C196,339.8,200.3,336.4,202.1,330.8z"/>
			
				<radialGradient id="SVGID_27_" cx="229.0442" cy="386.4811" r="15.8242" gradientTransform="matrix(0.8966 0.3825 -0.3035 0.924 101.1016 -122.6841)" gradientUnits="userSpaceOnUse">
				<stop  offset="0.1534" style="stop-color:#FFFFFF"/>
				<stop  offset="0.4635" style="stop-color:#FDFEFF"/>
				<stop  offset="0.636" style="stop-color:#F5FBFF"/>
				<stop  offset="0.7747" style="stop-color:#E7F5FF"/>
				<stop  offset="0.8947" style="stop-color:#D3ECFF"/>
				<stop  offset="1" style="stop-color:#BBE2FF"/>
			</radialGradient>
			<path class="st38" d="M199.6,331c-1.5,4.5-4.9,7.3-7.7,6.1c-2.7-1.2-3.7-5.8-2.3-10.3c1.5-4.5,4.9-7.3,7.7-6.1
				C200.1,321.9,201.1,326.5,199.6,331z"/>
			
				<radialGradient id="SVGID_28_" cx="164.5153" cy="353.9099" r="40.7552" gradientTransform="matrix(0.9445 0 0 1 23.0696 0)" gradientUnits="userSpaceOnUse">
				<stop  offset="0.1534" style="stop-color:#FFFFFF"/>
				<stop  offset="0.4635" style="stop-color:#FDFEFF"/>
				<stop  offset="0.636" style="stop-color:#F5FBFF"/>
				<stop  offset="0.7747" style="stop-color:#E7F5FF"/>
				<stop  offset="0.8947" style="stop-color:#D3ECFF"/>
				<stop  offset="1" style="stop-color:#BBE2FF"/>
			</radialGradient>
			<path class="st39" d="M209.5,380.9c0.4,6.8,0.3,5.4-18.3,5.4c-10.3,0-18.6,0.5-18.9-3.2c-0.2-3.4,7.5-14.4,17.8-14.4
				C200.4,368.7,209.1,374.2,209.5,380.9z"/>
			<path class="st8" d="M173.1,382.5c0-0.7,0.3-1.7,0.9-2.9c-0.4,1.9,0.2,4.3,12,4.5c11.8,0.3,17.4-7.1,17-12c0,0,0,0,0,0l2.5,1.9
				c1.9,1.8,3.2,4,3.3,6.4c0.4,6.5,0.3,5.1-17.5,5.1C181.3,385.6,173.3,386,173.1,382.5z"/>
			<path class="st6" d="M210.8,372.6c-0.1,4.7-2.3,8.4-4.8,8.1c-2.5-0.2-4.5-4.3-4.4-9c0.1-4.7,2.3-8.4,4.8-8.1
				C209,363.8,211,367.9,210.8,372.6z"/>
		</g>
		<g>
			
				<radialGradient id="SVGID_29_" cx="246.1568" cy="324.5761" r="53.6643" gradientTransform="matrix(0.9445 0 0 1 23.0696 0)" gradientUnits="userSpaceOnUse">
				<stop  offset="0.1534" style="stop-color:#FFFFFF"/>
				<stop  offset="0.4635" style="stop-color:#FDFEFF"/>
				<stop  offset="0.636" style="stop-color:#F5FBFF"/>
				<stop  offset="0.7747" style="stop-color:#E7F5FF"/>
				<stop  offset="0.8947" style="stop-color:#D3ECFF"/>
				<stop  offset="1" style="stop-color:#BBE2FF"/>
			</radialGradient>
			<path class="st40" d="M228.1,373.4c3.8,4.5,21.1,4.5,25.5,0c4.8-5-2.8-43.4-8.5-47.7c-3-2.3-14.9,6.3-15.5,10
				C226.8,354.8,226.4,371.3,228.1,373.4z"/>
			<path class="st8" d="M255,368.7c-0.2,2.2-0.6,3.9-1.4,4.7c-3.5,3.6-14.9,4.3-21.4,2.3c-5.7-11.1-2.5-35.4-1.5-42
				c0.6-0.9,1.6-1.8,2.6-2.8c-3.4,17.4,0,37.9,7.7,36.1C250.4,364.8,254.9,368.6,255,368.7z"/>
			<path class="st8" d="M235.2,330.8c-0.1-0.4-0.2-0.8-0.3-1.3c3.8-2.9,8.5-5.2,10.3-3.9c1,0.8,2.1,2.6,3.1,5.2
				c0,3.6-1.3,6.5-3.6,7.5C241.2,339.8,237,336.4,235.2,330.8z"/>
			
				<radialGradient id="SVGID_30_" cx="513.0496" cy="268.914" r="15.8241" gradientTransform="matrix(-0.8966 0.3825 0.3035 0.924 626.4976 -122.6841)" gradientUnits="userSpaceOnUse">
				<stop  offset="0.1534" style="stop-color:#FFFFFF"/>
				<stop  offset="0.4635" style="stop-color:#FDFEFF"/>
				<stop  offset="0.636" style="stop-color:#F5FBFF"/>
				<stop  offset="0.7747" style="stop-color:#E7F5FF"/>
				<stop  offset="0.8947" style="stop-color:#D3ECFF"/>
				<stop  offset="1" style="stop-color:#BBE2FF"/>
			</radialGradient>
			<path class="st41" d="M237.7,331c1.5,4.5,4.9,7.3,7.7,6.1c2.7-1.2,3.7-5.8,2.3-10.3c-1.5-4.5-4.9-7.3-7.7-6.1
				S236.2,326.5,237.7,331z"/>
			
				<radialGradient id="SVGID_31_" cx="244.2012" cy="348.8255" r="39.2774" gradientTransform="matrix(0.9445 0 0 1 23.0696 0)" gradientUnits="userSpaceOnUse">
				<stop  offset="0.1534" style="stop-color:#FFFFFF"/>
				<stop  offset="0.4635" style="stop-color:#FDFEFF"/>
				<stop  offset="0.636" style="stop-color:#F5FBFF"/>
				<stop  offset="0.7747" style="stop-color:#E7F5FF"/>
				<stop  offset="0.8947" style="stop-color:#D3ECFF"/>
				<stop  offset="1" style="stop-color:#BBE2FF"/>
			</radialGradient>
			<path class="st42" d="M227.8,380.9c-0.4,6.8-0.3,5.4,18.3,5.4c10.3,0,18.6,0.5,18.9-3.2c0.2-3.4-7.5-14.4-17.8-14.4
				C236.9,368.7,228.2,374.2,227.8,380.9z"/>
			<path class="st8" d="M264.4,382.5c0-0.7-0.3-1.7-0.9-2.9c0.4,1.9-0.2,4.3-12,4.5c-11.8,0.3-17.4-7.1-17-12c0,0,0,0,0,0l-2.5,1.9
				c-1.9,1.8-3.2,4-3.3,6.4c-0.4,6.5-0.3,5.1,17.5,5.1C256.2,385.6,264.1,386,264.4,382.5z"/>
			<path class="st6" d="M225.8,372.9c0.1,4.7,2.3,8.4,4.8,8.1c2.5-0.2,4.5-4.3,4.4-9c-0.1-4.7-2.3-8.4-4.8-8.1
				C227.7,364.2,225.7,368.2,225.8,372.9z"/>
		</g>
		<g>
			<g>
				
					<ellipse transform="matrix(0.1795 -0.9838 0.9838 0.1795 127.7626 420.8116)" class="st6" cx="316.2" cy="133.8" rx="53.3" ry="25.6"/>
				<path class="st4" d="M322.3,179.8c1.4-1.3,2.7-2.9,4.1-4.6l13.6-77.8c-0.7-2-1.4-3.8-2.3-5.5L322.3,179.8z"/>
				
					<ellipse transform="matrix(0.9945 -0.1047 0.1047 0.9945 -12.794 14.0535)" class="st6" cx="127.4" cy="128.9" rx="25.8" ry="53.3"/>
				<path class="st4" d="M106.4,90.7l7.6,78.7c1.2,1.8,2.4,3.4,3.7,4.9l-8.6-88.9C108.1,87,107.2,88.8,106.4,90.7z"/>
				
					<radialGradient id="SVGID_32_" cx="473.579" cy="1175.5175" r="583.95" gradientTransform="matrix(0.2517 6.600000e-03 -6.500000e-03 0.2469 113.0758 -193.1709)" gradientUnits="userSpaceOnUse">
					<stop  offset="0.1534" style="stop-color:#FFFFFF"/>
					<stop  offset="0.4635" style="stop-color:#FDFEFF"/>
					<stop  offset="0.636" style="stop-color:#F5FBFF"/>
					<stop  offset="0.7747" style="stop-color:#E7F5FF"/>
					<stop  offset="0.8947" style="stop-color:#D3ECFF"/>
					<stop  offset="1" style="stop-color:#BBE2FF"/>
				</radialGradient>
				<path class="st43" d="M329.1,87.4C330.3,41.7,284,3.3,225.7,1.8C167.4,0.3,119.2,36.1,118,81.9c0,1.3,0,2.5,0,3.8l-0.1,0
					l0.2,1.6c0.1,1.9,0.3,3.8,0.6,5.6l4.4,43.7l3.9,38.8c1.3,12.5,8.2,23.9,18.8,30.9c18.8,12.4,45,20.4,74.1,21.2
					c27.8,0.7,53.3-5.3,72.4-15.7c11.3-6.2,19.1-17.1,21.3-29.7l14-81.8c0.7-3,1.1-6,1.4-9l0-0.1l0,0C329,90,329.1,88.7,329.1,87.4z
					"/>
				<path class="st8" d="M322.9,61.4c2.6,18.6-11.4,73.1-14.8,99.7c-3.6,29-14.3,59-88.4,57c-74-1.9-90.1-35.5-90.1-35.5
					c2.9,8.9,8.7,16.7,16.8,22c18.5,12.2,44.4,20.2,73.1,20.9c27.4,0.7,52.6-5.2,71.5-15.5c11.2-6.1,18.9-16.9,21-29.3l13.8-80.8
					c0.7-2.9,1.1-5.9,1.4-8.9l0-0.1l0,0c0.1-1.2,0.2-2.5,0.2-3.7C327.7,78.2,326.1,69.5,322.9,61.4z"/>
				<g class="st17">
					<path class="st8" d="M224.5,50.5c-15.8-0.4-28.3-13.4-27.9-28.9L197,4.1l1.5-0.3L198,21.6c-0.4,14.7,11.5,27,26.5,27.4
						c15,0.4,27.5-11.3,27.9-26l0.5-17.8l1.4,0.3l-0.5,17.5C253.4,38.6,240.3,50.9,224.5,50.5z"/>
				</g>
				<g class="st17">
					<path class="st8" d="M286,214.9c3.8-37.9,13.1-128.3,16.9-144.4c4.2-17.8,14.5-22.1,14.9-22.2l0.8,1.3l-0.2,0
						c-0.1,0-10.1,4.2-14.2,21.3c-3.8,15.9-13,105.2-16.8,143.4L286,214.9z"/>
				</g>
				<g class="st17">
					<path class="st8" d="M151.5,209.9c-1.8-37.9-6.3-127.2-9.3-143.3c-3.1-17.2-11.9-21.3-12-21.4c0,0-0.1-0.1-0.1-0.1l0.8-1.2
						c1.2,0.6,9.6,5.3,12.7,22.4c2.9,16.2,7.5,106.4,9.3,144.3L151.5,209.9z"/>
				</g>
				<g>
					<path class="st6" d="M166.8,102.2c-17.2-0.4-30.9,14.3-29.2,31.4l0,0l3.9,39.6c0.8,8.5,5.4,16.1,12.5,20.8
						c17.3,11.6,40.9,18.4,66.3,19c24.2,0.6,47.3-4.4,65-14.2c7.5-4.1,12.6-11.4,14-19.9l6.8-40.3c2.9-17.1-10.1-32.9-27.5-33.3
						L166.8,102.2z"/>
					<path class="st8" d="M220.2,214.4c-25.7-0.7-49.5-7.5-67.1-19.3c-7.5-5-12.2-13-13.1-21.9l-3.9-39.6
						c-0.8-8.6,2.1-17.1,7.9-23.4c5.9-6.3,14.2-9.8,22.8-9.6l111.7,2.9c8.7,0.2,16.9,4.2,22.4,10.9c5.5,6.7,7.9,15.5,6.4,24.1
						l-6.8,40.3c-1.5,9-6.9,16.6-14.7,21C268,209.9,244.7,215,220.2,214.4z M166.7,103.6c-7.8-0.2-15.3,2.9-20.6,8.6
						c-5.3,5.7-7.9,13.4-7.2,21.1l3.9,39.6c0.8,8,5.1,15.2,11.8,19.7c17.1,11.5,40.4,18.1,65.5,18.8c24,0.6,46.8-4.4,64.2-14
						c7.1-3.9,11.9-10.8,13.3-18.9l6.8-40.3c1.3-7.8-0.8-15.7-5.8-21.8c-5-6.1-12.4-9.7-20.2-9.9L166.7,103.6z"/>
				</g>
				<g>
					
						<rect x="170.6" y="141.6" transform="matrix(0.9997 2.613312e-02 -2.613312e-02 0.9997 3.8206 -4.4697)" class="st4" width="4.6" height="4.6"/>
					
						<rect x="175.2" y="141.7" transform="matrix(0.9997 2.616324e-02 -2.616324e-02 0.9997 3.8298 -4.5958)" class="st4" width="4.6" height="4.6"/>
					
						<rect x="179.9" y="141.9" transform="matrix(0.9997 2.613312e-02 -2.613312e-02 0.9997 3.8301 -4.7115)" class="st4" width="4.6" height="4.6"/>
					
						<rect x="184.5" y="142" transform="matrix(0.9997 2.613312e-02 -2.613312e-02 0.9997 3.8348 -4.8323)" class="st4" width="4.6" height="4.6"/>
					
						<rect x="170.5" y="146.3" transform="matrix(0.9997 2.613312e-02 -2.613312e-02 0.9997 3.9415 -4.465)" class="st4" width="4.6" height="4.6"/>
					
						<rect x="175.1" y="146.4" transform="matrix(0.9997 2.613312e-02 -2.613312e-02 0.9997 3.9462 -4.5858)" class="st4" width="4.6" height="4.6"/>
					
						<rect x="179.7" y="146.5" transform="matrix(0.9997 2.613296e-02 -2.613296e-02 0.9997 3.9509 -4.7067)" class="st4" width="4.6" height="4.6"/>
					
						<rect x="184.4" y="146.6" transform="matrix(0.9997 2.617041e-02 -2.617041e-02 0.9997 3.9614 -4.8344)" class="st4" width="4.6" height="4.6"/>
					
						<rect x="170.4" y="150.9" transform="matrix(0.9997 2.613312e-02 -2.613312e-02 0.9997 4.0624 -4.4602)" class="st4" width="4.6" height="4.6"/>
					
						<rect x="175" y="151" transform="matrix(0.9997 2.613312e-02 -2.613312e-02 0.9997 4.0671 -4.5811)" class="st4" width="4.6" height="4.6"/>
					
						<rect x="179.6" y="151.1" transform="matrix(0.9997 2.613391e-02 -2.613391e-02 0.9997 4.072 -4.7021)" class="st4" width="4.6" height="4.6"/>
					
						<rect x="184.2" y="151.2" transform="matrix(0.9997 2.613312e-02 -2.613312e-02 0.9997 4.0766 -4.8228)" class="st4" width="4.6" height="4.6"/>
					
						<rect x="170.2" y="155.5" transform="matrix(0.9997 2.616946e-02 -2.616946e-02 0.9997 4.1891 -4.4616)" class="st4" width="4.6" height="4.6"/>
					
						<rect x="174.9" y="155.6" transform="matrix(0.9997 2.613391e-02 -2.613391e-02 0.9997 4.1881 -4.5765)" class="st4" width="4.6" height="4.6"/>
					
						<rect x="179.5" y="155.7" transform="matrix(0.9997 2.613312e-02 -2.613312e-02 0.9997 4.1927 -4.6972)" class="st4" width="4.6" height="4.6"/>
					
						<rect x="184.1" y="155.9" transform="matrix(0.9997 2.613312e-02 -2.613312e-02 0.9997 4.1974 -4.8181)" class="st4" width="4.6" height="4.6"/>
					
						<rect x="174.7" y="160.3" transform="matrix(0.9997 2.616946e-02 -2.616946e-02 0.9997 4.3149 -4.5779)" class="st4" width="4.6" height="4.6"/>
					
						<rect x="179.4" y="160.4" transform="matrix(0.9997 2.613312e-02 -2.613312e-02 0.9997 4.3136 -4.6925)" class="st4" width="4.6" height="4.6"/>
					
						<rect x="175.4" y="137.1" transform="matrix(0.9997 2.613296e-02 -2.613296e-02 0.9997 3.7045 -4.5953)" class="st4" width="4.6" height="4.6"/>
					
						<rect x="180" y="137.2" transform="matrix(0.9997 2.613312e-02 -2.613312e-02 0.9997 3.7092 -4.7162)" class="st4" width="4.6" height="4.6"/>
					
						<rect x="255.4" y="144.2" transform="matrix(0.9997 2.613312e-02 -2.613312e-02 0.9997 3.9179 -6.6838)" class="st4" width="4.6" height="4.6"/>
					
						<rect x="260" y="144.4" transform="matrix(0.9997 2.613296e-02 -2.613296e-02 0.9997 3.9226 -6.8046)" class="st4" width="4.6" height="4.6"/>
					
						<rect x="264.6" y="144.5" transform="matrix(0.9997 2.613407e-02 -2.613407e-02 0.9997 3.9276 -6.9257)" class="st4" width="4.6" height="4.6"/>
					
						<rect x="269.2" y="144.6" transform="matrix(0.9997 2.613296e-02 -2.613296e-02 0.9997 3.9321 -7.0463)" class="st4" width="4.6" height="4.6"/>
					
						<rect x="255.2" y="148.9" transform="matrix(0.9997 2.613312e-02 -2.613312e-02 0.9997 4.0388 -6.679)" class="st4" width="4.6" height="4.6"/>
					
						<rect x="259.9" y="149" transform="matrix(0.9997 2.613391e-02 -2.613391e-02 0.9997 4.0437 -6.8001)" class="st4" width="4.6" height="4.6"/>
					
						<rect x="264.5" y="149.1" transform="matrix(0.9997 2.613312e-02 -2.613312e-02 0.9997 4.0483 -6.9207)" class="st4" width="4.6" height="4.6"/>
					
						<rect x="269.1" y="149.2" transform="matrix(0.9997 2.613296e-02 -2.613296e-02 0.9997 4.053 -7.0416)" class="st4" width="4.6" height="4.6"/>
					
						<rect x="255.1" y="153.5" transform="matrix(0.9997 2.616946e-02 -2.616946e-02 0.9997 4.1656 -6.6835)" class="st4" width="4.6" height="4.6"/>
					
						<rect x="259.7" y="153.6" transform="matrix(0.9997 2.613391e-02 -2.613391e-02 0.9997 4.1645 -6.7953)" class="st4" width="4.6" height="4.6"/>
					
						<rect x="264.4" y="153.7" transform="matrix(0.9997 2.613312e-02 -2.613312e-02 0.9997 4.1691 -6.916)" class="st4" width="4.6" height="4.6"/>
					
						<rect x="269" y="153.9" transform="matrix(0.9997 2.613296e-02 -2.613296e-02 0.9997 4.1739 -7.0368)" class="st4" width="4.6" height="4.6"/>
					
						<rect x="255" y="158.1" transform="matrix(0.9997 2.613391e-02 -2.613391e-02 0.9997 4.2807 -6.6697)" class="st4" width="4.6" height="4.6"/>
					
						<rect x="259.6" y="158.2" transform="matrix(0.9997 2.613312e-02 -2.613312e-02 0.9997 4.2853 -6.7904)" class="st4" width="4.6" height="4.6"/>
					
						<rect x="264.2" y="158.4" transform="matrix(0.9997 2.616340e-02 -2.616340e-02 0.9997 4.2951 -6.9192)" class="st4" width="4.6" height="4.6"/>
					
						<rect x="268.9" y="158.5" transform="matrix(0.9997 2.613296e-02 -2.613296e-02 0.9997 4.2947 -7.0321)" class="st4" width="4.6" height="4.6"/>
					
						<rect x="259.5" y="162.9" transform="matrix(0.9997 2.613312e-02 -2.613312e-02 0.9997 4.4061 -6.7857)" class="st4" width="4.6" height="4.6"/>
					
						<rect x="264.1" y="163" transform="matrix(0.9997 2.613312e-02 -2.613312e-02 0.9997 4.4109 -6.9065)" class="st4" width="4.6" height="4.6"/>
					
						<rect x="260.1" y="139.7" transform="matrix(0.9997 2.613312e-02 -2.613312e-02 0.9997 3.8018 -6.8094)" class="st4" width="4.6" height="4.6"/>
					
						<rect x="264.7" y="139.9" transform="matrix(0.9997 2.616946e-02 -2.616946e-02 0.9997 3.812 -6.9398)" class="st4" width="4.6" height="4.6"/>
					<g>
						
							<rect x="213.4" y="169.6" transform="matrix(0.9998 1.896939e-02 -1.896939e-02 0.9998 3.2998 -4.0608)" class="st4" width="4.6" height="4.6"/>
						
							<rect x="208.8" y="169.5" transform="matrix(0.9998 1.900037e-02 -1.900037e-02 0.9998 3.3027 -3.9795)" class="st4" width="4.6" height="4.6"/>
						
							<rect x="218" y="169.7" transform="matrix(0.9998 1.900037e-02 -1.900037e-02 0.9998 3.3077 -4.1553)" class="st4" width="4.6" height="4.6"/>
						
							<rect x="222.6" y="169.8" transform="matrix(0.9998 1.899968e-02 -1.899968e-02 0.9998 3.3101 -4.2431)" class="st4" width="4.6" height="4.6"/>
						
							<rect x="213.3" y="174.2" transform="matrix(0.9998 1.899968e-02 -1.899968e-02 0.9998 3.393 -4.0648)" class="st4" width="4.6" height="4.6"/>
						
							<rect x="217.9" y="174.3" transform="matrix(0.9998 1.899968e-02 -1.899968e-02 0.9998 3.3955 -4.1527)" class="st4" width="4.6" height="4.6"/>
						
							<rect x="222.6" y="174.4" transform="matrix(0.9998 1.900037e-02 -1.900037e-02 0.9998 3.3981 -4.2407)" class="st4" width="4.6" height="4.6"/>
						
							<rect x="208.7" y="174.1" transform="matrix(0.9998 1.900037e-02 -1.900037e-02 0.9998 3.3906 -3.977)" class="st4" width="4.6" height="4.6"/>
						
							<rect x="213.2" y="178.8" transform="matrix(0.9998 1.900037e-02 -1.900037e-02 0.9998 3.481 -4.0624)" class="st4" width="4.6" height="4.6"/>
						
							<rect x="217.8" y="178.9" transform="matrix(0.9998 1.896939e-02 -1.896939e-02 0.9998 3.4778 -4.1436)" class="st4" width="4.6" height="4.6"/>
					</g>
				</g>
			</g>
		</g>
		<circle class="st8" cx="240.1" cy="250.6" r="5.8"/>
		<path class="st4" d="M240.1,254.9c-2.4,0-4.3-1.9-4.3-4.3c0-2.4,1.9-4.3,4.3-4.3s4.3,1.9,4.3,4.3
			C244.4,252.9,242.4,254.9,240.1,254.9z"/>
	</g>
	<path class="st44" d="M425,155l-14,88.4c-0.4,2.5-2.2,4.7-4.1,5.1l-129.6,22.4c-4,0.7-6.9-1.7-6.3-5.4L292,133
		c0.6-3.7,4.2-6.1,8-5.4l122.5,22.4"/>
	<path class="st45" d="M422.3,151.5l-122.6-21.7c-2.5-0.4-4.8,1.2-5.2,3.6L273.6,265c-0.4,2.4,1.5,4,4.1,3.6l129.5-21.7
		c1.2-0.2,2.4-1.7,2.7-3.3l14-88.8"/>
	<path class="st46" d="M414.1,208.5l-10.3-0.9c-0.8-0.1-1.3-1-1.2-2.1l2.2-14c0.2-1.1,1-1.8,1.8-1.7l10.2,1.5c0.7,0.1,1.2,1,1.1,2
		l-2.1,13.4C415.6,207.8,414.9,208.6,414.1,208.5z"/>
	<path class="st47" d="M400.7,207.7l-94.7-13.1c-1.1-0.2-1.8-1.1-1.7-2.2l0,0c0.2-1.1,1.2-1.8,2.3-1.6l94.5,14.1
		c0.6,0.1,1,0.8,0.9,1.6l0,0C402,207.2,401.4,207.8,400.7,207.7z"/>
	<path class="st46" d="M399.8,204.5l-60.2-7.2c-0.9-0.1-1.5-1-1.4-1.9l0,0c0.2-1,1-1.7,1.9-1.5l60.1,7.8c0.6,0.1,1,0.8,0.9,1.6l0,0
		C401.1,204,400.5,204.6,399.8,204.5z"/>
	<path class="st46" d="M398.9,202.8l-39.5-3.9c-0.8-0.1-1.3-0.9-1.2-1.8l0,0c0.1-0.9,0.9-1.6,1.7-1.5l39.5,4.3
		c0.6,0.1,1,0.8,0.9,1.6l0,0C400.1,202.3,399.5,202.9,398.9,202.8z"/>
	<path class="st47" d="M372.3,201.7l-14.4-0.5c-1.1,0-1.9-1.1-1.7-2.3l0,0c0.2-1.3,1.3-2.2,2.4-2.2l14.3,0.7c1,0,1.7,1,1.5,2.2l0,0
		C374.2,200.8,373.3,201.7,372.3,201.7z"/>
	<path class="st48" d="M348.2,201.9l-16.7-0.6c-1.3,0-2.2-1.2-2-2.5l0,0c0.2-1.4,1.4-2.4,2.7-2.3l16.6,0.8c1.2,0.1,1.9,1.1,1.7,2.4
		l0,0C350.5,201,349.4,202,348.2,201.9z"/>
	<path class="st48" d="M364.3,195.7l-75.3,10c-1.1,0.1-1.8-0.6-1.7-1.6l0,0c0.2-1,1.2-1.9,2.2-2.1l75.2-9.3c0.7-0.1,1.2,0.5,1,1.3
		l0,0C365.7,194.9,365,195.6,364.3,195.7z"/>
	<polygon class="st4" points="362,219.3 368.4,179.1 373.2,179.2 366.9,218.8 	"/>
	<polygon class="st49" points="351.8,214.4 356.6,184 361.7,184 357,213.9 	"/>
	<polygon class="st46" points="340.7,210 344.1,188.6 349.6,188.4 346.3,209.4 	"/>
	<polygon class="st49" points="329.1,221.3 336,177.1 341.8,177.2 335,220.7 	"/>
	<polygon class="st46" points="316.3,216 321.6,182.5 327.9,182.4 322.7,215.4 	"/>
	<polygon class="st4" points="288.7,223.7 296.5,174.7 303.6,174.8 296,223 	"/>
	<polygon class="st49" points="303.1,211.2 306.8,187.5 313.5,187.2 309.9,210.5 	"/>
	<g>
		<path class="st47" d="M409.8,197.6c1.5-9.7-3.2-17.8-10.9-18L396,198L409.8,197.6z"/>
		<path class="st4" d="M394,200.2l2.9-18.5c-8.2-0.2-16.6,8.4-18.3,19.1c-1.7,10.8,4.1,18.8,12.5,17.9c7.9-0.8,15.3-9.3,16.9-19.1
			L394,200.2z"/>
	</g>
	<path class="st48" d="M396.1,200.3l-13.4,1.8c-0.9,0.1-1.5-0.7-1.4-1.8l0,0c0.2-1.1,1.1-2.1,2-2.2l13.4-1.6
		c0.8-0.1,1.4,0.7,1.2,1.8l0,0C397.8,199.2,397,200.2,396.1,200.3z"/>
	<polygon class="st49" points="366.9,195.6 288.7,203.9 288.9,202.5 367.1,194.5 	"/>
	<path class="st48" d="M414.3,201.3l-9.1-0.4c-0.7,0-1.2-0.8-1-1.8l0.1-0.5c0.2-1,0.9-1.7,1.6-1.7l9,0.5c0.7,0,1.1,0.8,1,1.7
		l-0.1,0.4C415.7,200.6,415,201.4,414.3,201.3z"/>
	<path class="st48" d="M328,197.8l-40.1,6c-1.1,0.2-1.8-0.5-1.7-1.5l0,0c0.2-1,1.2-1.9,2.2-2.1l40-5.6c0.9-0.1,1.4,0.5,1.3,1.4l0,0
		C329.7,196.9,328.9,197.7,328,197.8z"/>
	<path class="st47" d="M320.1,202.2l-19.6-0.7c-1.5-0.1-2.6-1.3-2.3-2.8l0,0c0.2-1.5,1.7-2.6,3.2-2.5l19.5,0.9
		c1.4,0.1,2.3,1.2,2.1,2.6l0,0C322.8,201.2,321.5,202.2,320.1,202.2z"/>
	<line class="st50" x1="288.8" y1="194.3" x2="420.1" y2="204.1"/>
	<line class="st50" x1="391.1" y1="196.5" x2="390.2" y2="201.9"/>
	<g>
		<path class="st44" d="M26.9,250.5c-2.1-0.3-4.2-2.6-4.7-5.2L4.9,153.1c-0.5-2.6,0.7-4.9,2.7-5.2l133.2-20.5c4-0.6,7.8,1.9,8.5,5.6
			l25,132.4c0.7,3.7-2.2,6.2-6.4,5.6L26.9,250.5z"/>
		<path class="st45" d="M6.1,152.9l17.4,92.5c0.3,1.7,1.7,3.2,3.1,3.4l140.8,19.8c2.7,0.4,4.6-1.3,4.2-3.7l-24.8-131.7
			c-0.5-2.4-3-4-5.6-3.7L7.9,149.5C6.6,149.7,5.8,151.2,6.1,152.9z"/>
		<path class="st47" d="M25.7,158.2l-12.2,1.4c-0.5,0.1-1-0.4-1.1-1l-0.2-0.9c-0.1-0.6,0.2-1.2,0.7-1.2l12.1-1.5
			c0.5-0.1,1,0.4,1.2,1l0.2,1C26.6,157.6,26.3,158.2,25.7,158.2z"/>
		<path class="st49" d="M149.9,229.7l-38.7-2.5c-1.4-0.1-2.7-1.2-2.9-2.6l0,0c-0.3-1.3,0.6-2.4,2-2.3l38.7,2.1
			c1.6,0.1,3.2,1.4,3.5,2.8l0,0C152.6,228.7,151.5,229.8,149.9,229.7z"/>
		<path class="st46" d="M43.7,156.1l-13.4,1.6c-0.5,0.1-1.1-0.4-1.2-1l-0.2-1c-0.1-0.6,0.2-1.2,0.7-1.3l13.4-1.7
			c0.6-0.1,1.1,0.4,1.3,1.1l0.2,1C44.6,155.5,44.3,156.1,43.7,156.1z"/>
		<path class="st46" d="M63.9,153.8l-14.9,1.7c-0.6,0.1-1.2-0.4-1.3-1.1l-0.2-1c-0.1-0.7,0.2-1.3,0.8-1.4l14.9-1.9
			c0.6-0.1,1.3,0.4,1.4,1.1l0.2,1.1C65,153.1,64.6,153.7,63.9,153.8z"/>
		<path class="st48" d="M71.1,201.9c0.8,4.5-1.8,8-5.8,7.9c-4-0.1-7.8-3.7-8.6-8c-0.8-4.3,1.7-7.9,5.6-7.9
			C66.3,193.8,70.3,197.4,71.1,201.9z"/>
		<g>
			<path class="st4" d="M76.6,209.2c-1.5,4.2-5.2,6.9-10,6.7c-6.9-0.3-13.6-6.6-15-14.1c-1.2-6.3,1.6-11.6,6.4-13.4l-7.5-17.1
				c-10.7,4.4-16.4,16.6-13.8,30.4c3.1,16.6,17.6,31.1,33.3,32.5c11.2,1,20.2-4.9,24.1-14.7L76.6,209.2z"/>
			<path class="st48" d="M80.6,201.2c0.5,2.7,0.3,5.2-0.5,7.4L98,218.9c2-5.1,2.7-11.1,1.5-17.6c-3-15.8-15.4-28.6-29.2-32
				l-1.7,18.1C74.3,189.1,79.4,194.6,80.6,201.2z"/>
			<path class="st51" d="M75.4,201.2c0.3,1.6,0.2,3.2-0.3,4.5l10.5,6.1c1.2-3,1.5-6.6,0.8-10.5c-1.8-9.4-9-17.1-17.2-19.3l-1,10.9
				C71.6,193.9,74.6,197.2,75.4,201.2z"/>
			<path class="st47" d="M61.9,182.4c1.3-0.1,2.6,0.1,3.9,0.5l1.7-18.1c-3-0.7-6.1-1-9.1-0.7c-2.7,0.2-5.1,0.9-7.3,1.9l7.5,17.1
				C59.6,182.7,60.7,182.4,61.9,182.4z"/>
			<path class="st48" d="M63,188.1c0.8,0,1.5,0.1,2.3,0.3l1-10.4c-1.7-0.5-3.5-0.7-5.3-0.6c-1.6,0.1-3,0.4-4.3,0.9l4.4,10.1
				C61.7,188.2,62.3,188.1,63,188.1z"/>
		</g>
		<path class="st52" d="M151.9,240.4l-20-1.7c-1.5-0.1-2.9-1.4-3.2-2.8l0,0c-0.3-1.4,0.7-2.4,2.2-2.3l19.9,1.5
			c1.6,0.1,3.2,1.4,3.5,2.9l0,0C154.7,239.4,153.5,240.5,151.9,240.4z"/>
		<path class="st46" d="M138,162.8l-19.5,1.5c-1.4,0.1-2.8-0.9-3-2.3l-3.4-18c-0.3-1.4,0.7-2.6,2.1-2.8l19.3-2.5
			c1.5-0.2,3,0.8,3.3,2.3l3.6,19C140.6,161.4,139.5,162.7,138,162.8z"/>
		<path class="st48" d="M28.3,178.3L17.7,179c-0.8,0-1.5-0.7-1.7-1.6l0,0c-0.2-0.9,0.3-1.8,1-1.8l10.6-0.7c0.8-0.1,1.6,0.7,1.8,1.7
			l0,0C29.6,177.4,29.1,178.3,28.3,178.3z"/>
		<path class="st49" d="M140.5,172.9l-20.7,1.2c-1.5,0.1-2.8-1-3.1-2.4l0,0c-0.3-1.4,0.7-2.6,2.1-2.7l20.7-1.4
			c1.6-0.1,3.1,1,3.4,2.5l0,0C143.2,171.5,142.1,172.8,140.5,172.9z"/>
		<path class="st48" d="M157.1,261.6L30.4,245.2c-0.9-0.1-1.8-1.1-2-2.1l0-0.1c-0.2-1.1,0.3-1.8,1.2-1.7l126.4,15
			c1.6,0.2,3.2,1.5,3.5,3l0,0.1C159.8,260.8,158.7,261.8,157.1,261.6z"/>
		<polyline class="st53" points="22.9,178.6 25.7,193.4 36.2,193.2 		"/>
		<path class="st4" d="M84.5,252.2l-54.1-7c-0.9-0.1-1.8-1.1-2-2.2l0,0c-0.2-1.1,0.4-1.9,1.2-1.8l54,6.4c1.2,0.1,2.4,1.3,2.6,2.5
			l0,0C86.5,251.5,85.7,252.4,84.5,252.2z"/>
		<path class="st46" d="M148.7,219.6l-19.9-0.9c-1.5-0.1-2.8-1.2-3.1-2.6l-3.4-18c-0.3-1.4,0.7-2.5,2.1-2.5l19.8-0.2
			c1.6,0,3.1,1.2,3.4,2.6l3.6,19C151.3,218.5,150.3,219.6,148.7,219.6z"/>
		<path class="st47" d="M91.1,156.3l-14.8,1.5c-1,0.1-2.1-0.7-2.3-1.8l0,0c-0.2-1.1,0.5-2.1,1.5-2.2l14.7-1.7
			c1.1-0.1,2.2,0.7,2.4,1.9l0,0C93,155.1,92.2,156.2,91.1,156.3z"/>
		<path class="st48" d="M118.1,185.1l-16.5,0.5c-1.2,0-2.3-0.9-2.5-2.1l0,0c-0.2-1.2,0.5-2.2,1.7-2.2l16.4-0.7
			c1.3-0.1,2.5,0.9,2.7,2.1l0,0C120.2,184.1,119.3,185.1,118.1,185.1z"/>
		<polyline class="st54" points="109.7,185.4 111.1,193.2 97.1,193.3 		"/>
		<line class="st53" x1="21.5" y1="234.7" x2="168.7" y2="249.7"/>
		<polyline class="st53" points="67.3,165.3 84.9,163.7 83.6,157.1 		"/>
	</g>
</g>
</svg>
