<?xml version="1.0" encoding="utf-8"?>
<!-- Generator: Adobe Illustrator 25.2.3, SVG Export Plug-In . SVG Version: 6.00 Build 0)  -->
<svg version="1.1" id="Layer_1" xmlns="http://www.w3.org/2000/svg" xmlns:xlink="http://www.w3.org/1999/xlink" x="0px" y="0px"
	 viewBox="0 0 246 400" style="enable-background:new 0 0 246 400;" xml:space="preserve">
<style type="text/css">
	.st0{display:none;}
	.st1{display:inline;}
	.st2{opacity:0.3;}
	.st3{fill:none;stroke:#41A4FE;stroke-width:2.0761;stroke-miterlimit:10;}
	.st4{fill:#41A4FE;}
	.st5{fill:none;stroke:#41A4FE;stroke-width:2.0761;stroke-miterlimit:9.9999;}
	.st6{fill:#00FFDC;}
	.st7{fill:#0D0D0D;}
	.st8{fill:url(#SVGID_1_);}
	.st9{fill:#95CEF9;}
	.st10{fill:url(#SVGID_2_);}
	.st11{fill:url(#SVGID_3_);}
	.st12{fill:url(#SVGID_4_);}
	.st13{fill:url(#SVGID_5_);}
	.st14{fill:url(#SVGID_6_);}
	.st15{fill:url(#SVGID_7_);}
	.st16{fill:url(#SVGID_8_);}
	.st17{fill:url(#SVGID_9_);}
	.st18{opacity:0.8;}
	.st19{fill:url(#SVGID_10_);}
	.st20{fill:url(#SVGID_11_);}
	.st21{fill:url(#SVGID_12_);}
	.st22{fill:url(#SVGID_13_);}
	.st23{fill:url(#SVGID_14_);}
	.st24{fill:url(#SVGID_15_);}
	.st25{opacity:0.2;}
	.st26{opacity:0.4;fill:#41A4FE;enable-background:new    ;}
	.st27{opacity:0.1;}
	.st28{fill:url(#SVGID_16_);}
	.st29{fill:url(#SVGID_17_);}
	.st30{fill:url(#SVGID_18_);}
	.st31{fill:url(#SVGID_19_);}
	.st32{fill:url(#SVGID_20_);}
	.st33{fill:url(#SVGID_21_);}
	.st34{fill:url(#SVGID_22_);}
	.st35{fill:url(#SVGID_23_);}
	.st36{fill:url(#SVGID_24_);}
	.st37{fill:url(#SVGID_25_);}
	.st38{fill:url(#SVGID_26_);}
	.st39{fill:url(#SVGID_27_);}
	.st40{fill:url(#SVGID_28_);}
	.st41{fill:url(#SVGID_29_);}
	.st42{display:inline;opacity:0.3;fill:none;stroke:#41A4FE;stroke-width:2.0538;stroke-miterlimit:10;enable-background:new    ;}
	.st43{display:inline;opacity:0.2;fill:#41A4FE;enable-background:new    ;}
	.st44{display:inline;opacity:0.7;fill:#41A4FE;enable-background:new    ;}
	.st45{display:inline;opacity:0.9;fill:#FFFFFF;enable-background:new    ;}
	.st46{display:inline;opacity:0.5;fill:#FFFFFF;enable-background:new    ;}
	.st47{display:inline;fill:#41A4FE;}
	.st48{display:inline;opacity:0.7;fill:#FFFFFF;enable-background:new    ;}
	.st49{opacity:0.9;fill:#FFFFFF;enable-background:new    ;}
	.st50{display:inline;opacity:0.5;fill:none;stroke:#FFFFFF;stroke-width:0.4928;stroke-miterlimit:10;enable-background:new    ;}
	.st51{fill:url(#SVGID_30_);}
	.st52{fill:url(#SVGID_31_);}
	.st53{fill:url(#SVGID_32_);}
	.st54{fill:url(#SVGID_33_);}
	.st55{fill:url(#SVGID_34_);}
	.st56{fill:url(#SVGID_35_);}
	.st57{fill:url(#SVGID_36_);}
	.st58{fill:url(#SVGID_37_);}
	.st59{fill:url(#SVGID_38_);}
	.st60{fill:url(#SVGID_39_);}
	.st61{fill:url(#SVGID_40_);}
	.st62{fill:url(#SVGID_41_);}
	.st63{fill:url(#SVGID_42_);}
	.st64{fill:url(#SVGID_43_);}
	.st65{fill:url(#SVGID_44_);}
	.st66{fill:url(#SVGID_45_);}
	.st67{fill:url(#SVGID_46_);}
	.st68{display:none;fill:url(#SVGID_47_);}
	.st69{display:none;fill:url(#SVGID_48_);}
	.st70{fill:url(#SVGID_49_);}
	.st71{opacity:0.2;fill:#231F20;}
	.st72{fill:#454545;}
	.st73{fill:#FFFFFF;}
	.st74{fill:#231F20;}
</style>
<g id="Layer_1_1_" class="st0">
	<g class="st1">
		<g>
			<g class="st2">
				<ellipse class="st3" cx="101" cy="144.9" rx="143" ry="143"/>
				<path class="st4" d="M231.2,213.7c0,2.8-2.3,5-5,5c-2.8,0-5-2.3-5-5c0-2.8,2.3-5,5-5C228.9,208.6,231.2,210.9,231.2,213.7z"/>
			</g>
			<g>
				<ellipse class="st5" cx="101" cy="145" rx="127.5" ry="127.5"/>
				<circle class="st4" cx="165.6" cy="35" r="7.2"/>
				<path class="st4" d="M10,229c0,2.8-2.3,5-5,5s-5-2.3-5-5c0-2.8,2.3-5,5-5S10,226.2,10,229z"/>
			</g>
		</g>
		<ellipse class="st6" cx="61.3" cy="84.3" rx="5" ry="5"/>
		<g>
			<g>
				<g>
					<path class="st7" d="M74.3,260.4c0,3,0,6,0,9s-0.1,6-0.3,9c-0.1,3-0.3,6-0.6,9c-0.2,1.5-0.3,3.1-0.6,4.6
						c-0.1,0.8-0.3,1.6-0.4,2.4c-0.2,0.8-0.4,1.7-0.6,2.5c-0.6,2.2-2.8,3.5-5,3c-2.1-0.6-3.4-2.7-3-4.8l0.1-0.4
						c0.4-2.2,0.6-5.1,0.7-7.9c0-2.8,0-5.7-0.1-8.6s-0.2-5.8-0.4-8.6c-0.2-2.9-0.4-5.8-0.7-8.6l0,0c-0.3-3,2-5.7,5-6s5.7,2,6,5
						C74.3,260.1,74.3,260.3,74.3,260.4z"/>
				</g>
			</g>
			<g>
				<g>
					<path class="st7" d="M91.7,319.8l-41.3,8.9c-2,0.4-4-0.8-4.4-2.9c-0.4-1.9,0.8-3.8,2.6-4.4h0.1l40.5-11.3h0.2
						c2.6-0.7,5.4,0.8,6.1,3.5c0.7,2.6-0.8,5.4-3.5,6.1C91.9,319.8,91.8,319.8,91.7,319.8z"/>
				</g>
			</g>
			<g>
				<g>
					<path class="st7" d="M138,261c-0.3,2.8-0.5,5.7-0.7,8.6s-0.3,5.8-0.4,8.6c-0.1,2.9-0.1,5.7-0.1,8.6c0,2.8,0.2,5.7,0.7,7.9
						l0.1,0.4c0.5,2.2-1,4.4-3.2,4.9c-2.2,0.4-4.3-0.9-4.8-3c-0.2-0.8-0.5-1.7-0.6-2.5s-0.3-1.6-0.4-2.4c-0.2-1.6-0.4-3.1-0.6-4.6
						c-0.3-3-0.5-6-0.6-9s-0.2-6-0.3-9c0-3-0.1-5.9,0-9c0-3.1,2.5-5.5,5.6-5.5c3.1,0,5.5,2.5,5.5,5.6C138,260.7,138,260.8,138,261
						L138,261z"/>
				</g>
			</g>
			<g>
				
					<radialGradient id="SVGID_1_" cx="313.5199" cy="-1820.9558" r="117.8809" gradientTransform="matrix(-0.1681 2.560000e-02 -2.560000e-02 -0.1681 63.4895 -64.8794)" gradientUnits="userSpaceOnUse">
					<stop  offset="0.1534" style="stop-color:#FFFFFF"/>
					<stop  offset="0.4635" style="stop-color:#FDFEFF"/>
					<stop  offset="0.636" style="stop-color:#F5FBFF"/>
					<stop  offset="0.7747" style="stop-color:#E7F5FF"/>
					<stop  offset="0.8947" style="stop-color:#D3ECFF"/>
					<stop  offset="1" style="stop-color:#BBE2FF"/>
				</radialGradient>
				<path class="st8" d="M54.6,270.2c3,2.8,8.9,0.2,15.3-5.6c6.4-5.9,10.3-12.1,7.8-15.6c-2.7-3.6-11.3-1.9-17.6,4
					C53.6,258.9,51.3,267.1,54.6,270.2z"/>
				<path class="st9" d="M54.4,269.5c-0.5-0.5-0.9-1.1-1.1-1.9c5.7,6.9,27.8-15.8,20.6-20.1l0,0c1.1,0.3,2,0.8,2.6,1.6
					c2.5,3.4-1.3,9.3-7.5,15C63,269.7,57.3,272.2,54.4,269.5z"/>
			</g>
			<g>
				
					<radialGradient id="SVGID_2_" cx="2237.0078" cy="-1233.0022" r="117.9027" gradientTransform="matrix(0.1605 5.610000e-02 5.620000e-02 -0.1605 -144.3424 -70.9854)" gradientUnits="userSpaceOnUse">
					<stop  offset="0.1534" style="stop-color:#FFFFFF"/>
					<stop  offset="0.4635" style="stop-color:#FDFEFF"/>
					<stop  offset="0.636" style="stop-color:#F5FBFF"/>
					<stop  offset="0.7747" style="stop-color:#E7F5FF"/>
					<stop  offset="0.8947" style="stop-color:#D3ECFF"/>
					<stop  offset="1" style="stop-color:#BBE2FF"/>
				</radialGradient>
				<path class="st10" d="M144.3,273.6c-3.4,2.2-8.8-1.4-14-8.4c-5.2-6.9-7.9-13.8-4.7-16.7c3.3-3.1,11.4,0.2,16.6,7.2
					C147.3,262.6,148.1,271.1,144.3,273.6z"/>
				<path class="st9" d="M144.6,272.9c0.6-0.4,1.1-0.9,1.4-1.6c-6.8,5.7-24.4-20.6-16.6-23.6l0,0c-1.2,0.1-2.2,0.4-2.9,1.1
					c-3,2.9-0.4,9.4,4.6,16.1C136.1,271.5,141.3,275,144.6,272.9z"/>
			</g>
			<g>
				
					<radialGradient id="SVGID_3_" cx="2076.9421" cy="-16556.3086" r="418.6134" gradientTransform="matrix(0.1485 0 0 -2.660000e-02 -207.1259 -51.5341)" gradientUnits="userSpaceOnUse">
					<stop  offset="0.2037" style="stop-color:#ABABAB"/>
					<stop  offset="0.3198" style="stop-color:#BCBCBC"/>
					<stop  offset="0.6123" style="stop-color:#E0E0E0"/>
					<stop  offset="0.8495" style="stop-color:#F7F7F7"/>
					<stop  offset="1" style="stop-color:#FFFFFF"/>
				</radialGradient>
				<ellipse class="st11" cx="101.3" cy="388.9" rx="62.2" ry="11.1"/>
			</g>
			<g>
				<g>
					<path class="st7" d="M112.1,310.2l40.6,11.3l0,0c2,0.6,3.1,2.6,2.6,4.6c-0.5,1.9-2.5,3.1-4.4,2.6l-41.3-8.9
						c-2.7-0.6-4.4-3.2-3.8-5.9c0.6-2.7,3.2-4.4,5.9-3.8C111.8,310.1,111.9,310.1,112.1,310.2L112.1,310.2z"/>
				</g>
			</g>
			<polygon class="st7" points="112.4,310.5 90.9,310.5 88.8,294.3 114.5,294.3 			"/>
			
				<radialGradient id="SVGID_4_" cx="100.9878" cy="91.6126" r="15.9791" gradientTransform="matrix(1 0 0 -1 0 399)" gradientUnits="userSpaceOnUse">
				<stop  offset="0.1534" style="stop-color:#FFFFFF"/>
				<stop  offset="0.4635" style="stop-color:#FDFEFF"/>
				<stop  offset="0.636" style="stop-color:#F5FBFF"/>
				<stop  offset="0.7747" style="stop-color:#E7F5FF"/>
				<stop  offset="0.8947" style="stop-color:#D3ECFF"/>
				<stop  offset="1" style="stop-color:#BBE2FF"/>
			</radialGradient>
			<path class="st12" d="M101.6,322.9L101.6,322.9c-9.3,0-16.8-7.1-16.8-15.8l0,0c0-1.6,1.4-3,3.2-3h13.3h14.1c1.7,0,3.2,1.3,3.2,3
				l0,0C118.4,315.8,110.9,322.9,101.6,322.9z"/>
			<path class="st9" d="M101.2,310.7c-4.1,0-7.5,3.4-7.5,7.5v2.9c0.4,0.2,0.7,0.3,1.1,0.5v-3.4c0-3.5,2.9-6.4,6.4-6.4
				s6.4,2.9,6.4,6.4v3.7c0.4-0.1,0.7-0.3,1.1-0.4v-3.3C108.7,314,105.3,310.7,101.2,310.7z"/>
			<path class="st9" d="M114.7,304.2h-0.5c-0.9,4.8-5,19.9-19.6,16.8c2.1,0.9,4.4,1.4,6.8,1.4c9,0,16.3-6.9,16.3-15.3
				C117.7,305.5,116.3,304.2,114.7,304.2z"/>
			
				<radialGradient id="SVGID_5_" cx="101.3401" cy="97.6044" r="38.1452" gradientTransform="matrix(1 0 0 -0.8124 0 347.6366)" gradientUnits="userSpaceOnUse">
				<stop  offset="0.1534" style="stop-color:#FFFFFF"/>
				<stop  offset="0.4635" style="stop-color:#FDFEFF"/>
				<stop  offset="0.636" style="stop-color:#F5FBFF"/>
				<stop  offset="0.7747" style="stop-color:#E7F5FF"/>
				<stop  offset="0.8947" style="stop-color:#D3ECFF"/>
				<stop  offset="1" style="stop-color:#BBE2FF"/>
			</radialGradient>
			<path class="st13" d="M136.3,264.9c0,14.8-15.7,34.7-35.1,34.7s-35.1-19.9-35.1-34.7c0-14.8,15.7-18.9,35.1-18.9
				C120.5,246,136.3,250.1,136.3,264.9z"/>
			<path class="st9" d="M67.6,270.9c3.3,12,17,26.3,33.3,26.3c16.5,0,30.2-14.5,33.3-26.6c-11.1,12.5-22.6,14.7-33.3,14.5
				C88.1,284.9,76.4,280.3,67.6,270.9z"/>
			<path class="st9" d="M101.3,244.5c-4.7,0-9,1.2-12.6,3.5c1.3,4.6,5.6,10.2,13,10.2c7.8,0,11.4-5.4,12.9-9.8
				C110.8,245.8,106.2,244.5,101.3,244.5z"/>
			<path class="st7" d="M90.3,247c0,0.2,0,0.3,0,0.5c0,3.9,5.1,9.3,11.4,9.3s11.4-5.4,11.4-9.3l0,0c-3.4-2-7.5-3-11.8-3
				C97.3,244.5,93.6,245.4,90.3,247z"/>
			<path class="st9" d="M113.8,247.3c-1.6-0.4-3.2-0.6-4.9-0.8v0.2c3.4,0.3,6.6,3.5,8.9,8.9c4.6,10.8,4.8,31.6-8.7,42.9
				c1.2-0.3,2.4-0.7,3.5-1.2c11.8-12.1,11.3-31.4,6.7-42.1C117.8,251.5,115.9,248.9,113.8,247.3z"/>
			<g>
				
					<radialGradient id="SVGID_6_" cx="-170.3348" cy="284.8617" r="51.1901" gradientTransform="matrix(5.350000e-02 0.943 0.9923 -0.1639 -112.4802 546.0464)" gradientUnits="userSpaceOnUse">
					<stop  offset="0.1534" style="stop-color:#FFFFFF"/>
					<stop  offset="0.4635" style="stop-color:#FDFEFF"/>
					<stop  offset="0.636" style="stop-color:#F5FBFF"/>
					<stop  offset="0.7747" style="stop-color:#E7F5FF"/>
					<stop  offset="0.8947" style="stop-color:#D3ECFF"/>
					<stop  offset="1" style="stop-color:#BBE2FF"/>
				</radialGradient>
				<path class="st14" d="M113.4,320.2c-4.1,4.4-3.2,20.8,1.4,24.3c5,3.8,40.9-9.5,44.7-15.5c2-3.2-6.7-13.2-10.3-13.2
					C130.9,316,115.2,318.2,113.4,320.2z"/>
				<path class="st9" d="M119.3,345.1c-2.1,0.2-3.7,0-4.5-0.6c-3.6-2.7-4.9-13.5-3.3-20.1c10.2-7.1,33.4-7.9,39.6-8
					c0.9,0.5,1.8,1.2,2.8,2.1c-16.7-0.5-35.9,5.9-33.8,13C122.7,340.1,119.4,345,119.3,345.1z"/>
				<path class="st9" d="M154,320.3c0.4-0.2,0.8-0.3,1.2-0.5c3,3.2,5.4,7.3,4.3,9.2c-0.7,1.1-2.4,2.4-4.8,3.8
					c-3.4,0.5-6.3-0.2-7.3-2.3C145.9,327.5,148.8,322.9,154,320.3z"/>
				
					<radialGradient id="SVGID_7_" cx="156.25" cy="71.8998" r="6.9925" gradientTransform="matrix(1 0 0 -1 0 399)" gradientUnits="userSpaceOnUse">
					<stop  offset="0.1534" style="stop-color:#FFFFFF"/>
					<stop  offset="0.4635" style="stop-color:#FDFEFF"/>
					<stop  offset="0.636" style="stop-color:#F5FBFF"/>
					<stop  offset="0.7747" style="stop-color:#E7F5FF"/>
					<stop  offset="0.8947" style="stop-color:#D3ECFF"/>
					<stop  offset="1" style="stop-color:#BBE2FF"/>
				</radialGradient>
				<path class="st15" d="M154,322.7c-4.2,2.1-6.6,5.8-5.4,8.2c1.3,2.4,5.7,2.7,9.9,0.5c4.2-2.1,6.6-5.8,5.4-8.2
					C162.6,320.8,158.2,320.6,154,322.7z"/>
				
					<radialGradient id="SVGID_8_" cx="-172.1996" cy="261.7299" r="37.4659" gradientTransform="matrix(5.350000e-02 0.943 0.9923 -0.1639 -112.4802 546.0464)" gradientUnits="userSpaceOnUse">
					<stop  offset="0.1534" style="stop-color:#FFFFFF"/>
					<stop  offset="0.4635" style="stop-color:#FDFEFF"/>
					<stop  offset="0.636" style="stop-color:#F5FBFF"/>
					<stop  offset="0.7747" style="stop-color:#E7F5FF"/>
					<stop  offset="0.8947" style="stop-color:#D3ECFF"/>
					<stop  offset="1" style="stop-color:#BBE2FF"/>
				</radialGradient>
				<path class="st16" d="M106.2,321.1c-6.4,0.7-5.1,0.5-4.1,18.3c0.6,9.8,0.5,17.8,4.1,17.5c3.2-0.3,13.2-9.3,12.6-19.2
					C118.3,327.9,112.7,320.4,106.2,321.1z"/>
				<path class="st9" d="M106.7,356.2c0.7-0.1,1.6-0.5,2.7-1.3c-1.7,0.7-4,0.5-4.9-10.7s5.7-17.7,10.4-18l0,0l-1.9-2
					c-1.8-1.6-4-2.4-6.2-2.1c-6.1,0.6-4.9,0.5-3.9,17.5C103.4,348.8,103.4,356.5,106.7,356.2z"/>
				
					<ellipse transform="matrix(0.9801 -0.1987 0.1987 0.9801 -61.7638 29.1391)" class="st7" cx="114.3" cy="322.3" rx="8.2" ry="4.3"/>
			</g>
			<g>
				<g>
					
						<ellipse transform="matrix(0.1539 -0.9881 0.9881 0.1539 6.6584 321.4821)" class="st7" cx="191" cy="156.9" rx="50.8" ry="24.4"/>
					<path class="st4" d="M198,200.6c1.3-1.3,2.5-2.8,3.7-4.5l11-74.6c-0.7-1.9-1.5-3.6-2.3-5.2L198,200.6z"/>
					
						<ellipse transform="matrix(0.9914 -0.1305 0.1305 0.9914 -20.3698 2.7628)" class="st7" cx="10.9" cy="156.8" rx="24.6" ry="50.8"/>
					<path class="st4" d="M-10.1,120.9l9.2,74.8c1.2,1.7,2.4,3.2,3.7,4.6l-10.4-84.6C-8.5,117.4-9.4,119.1-10.1,120.9z"/>
					
						<radialGradient id="SVGID_9_" cx="1406.2032" cy="-825.6331" r="556.9873" gradientTransform="matrix(0.2518 0 0 -0.247 -251.1875 -76.8705)" gradientUnits="userSpaceOnUse">
						<stop  offset="0.1534" style="stop-color:#FFFFFF"/>
						<stop  offset="0.4635" style="stop-color:#FDFEFF"/>
						<stop  offset="0.636" style="stop-color:#F5FBFF"/>
						<stop  offset="0.7747" style="stop-color:#E7F5FF"/>
						<stop  offset="0.8947" style="stop-color:#D3ECFF"/>
						<stop  offset="1" style="stop-color:#BBE2FF"/>
					</radialGradient>
					<path class="st17" d="M202.2,112.3c0-43.7-45.1-79.1-100.7-79.1C45.9,33.2,0.8,68.6,0.7,112.3c0,1.2,0,2.4,0.1,3.6l0,0l0.2,1.5
						c0.1,1.8,0.4,3.6,0.7,5.3l5.2,41.6l4.7,36.9c1.5,11.9,8.4,22.5,18.7,29c18.2,11.3,43.4,18.3,71.2,18.3
						c26.5,0,50.7-6.4,68.7-16.8c10.7-6.2,17.8-16.8,19.5-28.8l11.3-78.3c0.6-2.8,0.9-5.7,1.1-8.6v-0.1l0,0
						C202.2,114.7,202.2,113.5,202.2,112.3z"/>
					<path class="st9" d="M195.7,87.7c3,17.6-9.1,70-11.6,95.4c-2.7,27.7-12.1,56.6-82.5,56.6s-86.4-31.6-86.4-31.6
						c3,8.4,8.7,15.7,16.5,20.5c17.9,11.2,42.6,18.1,70,18.1c26.1,0,49.8-6.3,67.5-16.6c10.5-6.1,17.5-16.6,19.2-28.5l11.1-77.4
						c0.6-2.8,0.9-5.6,1.1-8.5v-0.1l0,0c0.1-1.2,0.1-2.4,0.1-3.6C200.6,103.5,198.9,95.3,195.7,87.7z"/>
					<g class="st18">
						<path class="st9" d="M101.5,79.6c-15.1,0-27.3-12-27.3-26.8V36.1l1.4-0.3v17c0,14,11.6,25.5,25.9,25.5s26-11.4,26-25.4v-17
							l1.4,0.3v16.7C128.8,67.6,116.6,79.6,101.5,79.6z"/>
					</g>
					<g class="st18">
						<path class="st9" d="M164.3,234.9c2.7-36.3,9.3-122.7,12.5-138.1c3.6-17.1,13.3-21.4,13.7-21.6l0.8,1.2h-0.1
							c-0.1,0-9.6,4.3-13,20.6c-3.2,15.3-9.7,100.6-12.5,137.1L164.3,234.9z"/>
					</g>
					<g class="st18">
						<path class="st9" d="M35.8,233.4c-2.6-36-9.2-121.1-12.3-136.4c-3.4-16.3-11.9-20.1-12-20.1l-0.1-0.1l0.8-1.2
							c1.1,0.5,9.3,4.8,12.7,21c3.2,15.3,9.8,101.3,12.4,137.4L35.8,233.4z"/>
					</g>
					<g>
						<path class="st7" d="M47.6,127.8c-16.4,0-29.1,14.4-27.1,30.6l0,0l4.7,37.6c1,8,5.6,15.2,12.4,19.5
							C54.4,226.1,77,232,101.3,232c23.1,0,45-5.4,61.6-15.2c7-4.1,11.7-11.2,12.9-19.4l5.5-38.6c2.3-16.4-10.4-31.1-27-31.1
							L47.6,127.8z"/>
						<path class="st9" d="M101.4,233.5c-24.5,0-47.4-5.9-64.5-16.7c-7.2-4.6-12-12.1-13-20.5l-4.7-37.6c-1-8.2,1.5-16.4,7-22.5
							c5.4-6.2,13.3-9.7,21.5-9.7h106.6c8.3,0,16.2,3.6,21.6,9.9c5.4,6.3,7.9,14.6,6.7,22.8l-5.5,38.6c-1.2,8.6-6.1,16-13.5,20.4
							C146.8,228.1,124.7,233.5,101.4,233.5z M47.6,129.2c-7.4,0-14.5,3.2-19.4,8.7c-4.9,5.6-7.2,13-6.3,20.3l4.7,37.6
							c0.9,7.6,5.2,14.4,11.8,18.5c16.6,10.5,39,16.3,63,16.3c22.9,0,44.5-5.3,60.9-15c6.6-3.9,11.1-10.6,12.2-18.4l5.5-38.6
							c1.1-7.4-1.2-14.9-6.1-20.6c-4.9-5.7-12-8.9-19.5-8.9L47.6,129.2z"/>
					</g>
					<g>
						<g>
							<rect x="141.2" y="181.2" class="st4" width="4.4" height="4.4"/>
							<rect x="136.8" y="181.2" class="st4" width="4.4" height="4.4"/>
							<rect x="132.3" y="181.2" class="st4" width="4.4" height="4.4"/>
							<rect x="145.6" y="176.8" class="st4" width="4.4" height="4.4"/>
							<rect x="127.9" y="176.8" class="st4" width="4.4" height="4.4"/>
						</g>
						<g>
							<rect x="64.1" y="181.2" class="st4" width="4.4" height="4.4"/>
							<rect x="59.7" y="181.2" class="st4" width="4.4" height="4.4"/>
							<rect x="55.4" y="181.2" class="st4" width="4.4" height="4.4"/>
							<rect x="68.6" y="176.8" class="st4" width="4.4" height="4.4"/>
							<rect x="50.9" y="176.8" class="st4" width="4.4" height="4.4"/>
						</g>
						<g>
							<rect x="103.2" y="198.7" class="st4" width="4.4" height="4.4"/>
							<rect x="98.8" y="198.7" class="st4" width="4.4" height="4.4"/>
							<rect x="94.3" y="198.7" class="st4" width="4.4" height="4.4"/>
							<rect x="107.5" y="194.3" class="st4" width="4.4" height="4.4"/>
							<rect x="89.8" y="194.3" class="st4" width="4.4" height="4.4"/>
						</g>
					</g>
				</g>
			</g>
			<path class="st9" d="M126.6,272.5c0,3.1-2.5,5.6-5.6,5.6s-5.6-2.5-5.6-5.6s2.5-5.6,5.6-5.6S126.6,269.4,126.6,272.5z"/>
			<path class="st4" d="M121,276.5c-2.2,0-4.1-1.8-4.1-4.1c0-2.2,1.8-4.1,4.1-4.1c2.2,0,4.1,1.8,4.1,4.1S123.2,276.5,121,276.5z"/>
			<g>
				
					<radialGradient id="SVGID_10_" cx="-246.9445" cy="-171.132" r="51.1899" gradientTransform="matrix(-5.230000e-02 0.943 -0.9925 -0.1627 -140.982 543.7467)" gradientUnits="userSpaceOnUse">
					<stop  offset="0.1534" style="stop-color:#FFFFFF"/>
					<stop  offset="0.4635" style="stop-color:#FDFEFF"/>
					<stop  offset="0.636" style="stop-color:#F5FBFF"/>
					<stop  offset="0.7747" style="stop-color:#E7F5FF"/>
					<stop  offset="0.8947" style="stop-color:#D3ECFF"/>
					<stop  offset="1" style="stop-color:#BBE2FF"/>
				</radialGradient>
				<path class="st19" d="M89.4,320.1c4.1,4.4,3.2,20.8-1.3,24.3c-5,3.8-40.9-9.4-44.7-15.5c-2-3.2,6.7-13.3,10.3-13.2
					C71.9,316,87.6,318.2,89.4,320.1z"/>
				<path class="st9" d="M83.6,345c2.1,0.2,3.7,0,4.5-0.6c3.6-2.7,4.9-13.5,3.3-20.1c-10.2-7.1-33.4-7.9-39.7-8
					c-0.9,0.5-1.8,1.2-2.8,2.1c16.7-0.6,35.9,5.9,33.8,12.9C80.1,340.1,83.5,344.9,83.6,345z"/>
				<path class="st9" d="M48.8,320.3c-0.4-0.2-0.8-0.3-1.2-0.5c-3,3.2-5.4,7.3-4.2,9.2c0.7,1.1,2.4,2.4,4.8,3.8
					c3.4,0.5,6.3-0.2,7.3-2.3C57,327.4,54,322.9,48.8,320.3z"/>
				
					<radialGradient id="SVGID_11_" cx="46.5812" cy="71.9164" r="6.9864" gradientTransform="matrix(1 0 0 -1 0 399)" gradientUnits="userSpaceOnUse">
					<stop  offset="0.1534" style="stop-color:#FFFFFF"/>
					<stop  offset="0.4635" style="stop-color:#FDFEFF"/>
					<stop  offset="0.636" style="stop-color:#F5FBFF"/>
					<stop  offset="0.7747" style="stop-color:#E7F5FF"/>
					<stop  offset="0.8947" style="stop-color:#D3ECFF"/>
					<stop  offset="1" style="stop-color:#BBE2FF"/>
				</radialGradient>
				<path class="st20" d="M48.8,322.7c4.2,2.1,6.6,5.8,5.4,8.2c-1.2,2.4-5.7,2.7-9.9,0.5c-4.2-2.1-6.6-5.8-5.4-8.2
					C40.2,320.8,44.6,320.6,48.8,322.7z"/>
				
					<radialGradient id="SVGID_12_" cx="-248.8092" cy="-194.2627" r="37.4673" gradientTransform="matrix(-5.230000e-02 0.943 -0.9925 -0.1627 -140.982 543.7467)" gradientUnits="userSpaceOnUse">
					<stop  offset="0.1534" style="stop-color:#FFFFFF"/>
					<stop  offset="0.4635" style="stop-color:#FDFEFF"/>
					<stop  offset="0.636" style="stop-color:#F5FBFF"/>
					<stop  offset="0.7747" style="stop-color:#E7F5FF"/>
					<stop  offset="0.8947" style="stop-color:#D3ECFF"/>
					<stop  offset="1" style="stop-color:#BBE2FF"/>
				</radialGradient>
				<path class="st21" d="M96.6,321c6.4,0.6,5.1,0.5,4.1,18.3c-0.5,9.8-0.5,17.8-4.1,17.5c-3.2-0.3-13.2-9.3-12.7-19.1
					C84.5,327.8,90.2,320.4,96.6,321z"/>
				<path class="st9" d="M96.1,356.1c-0.7-0.1-1.6-0.5-2.7-1.3c1.7,0.7,4,0.5,4.9-10.7s-5.8-17.7-10.4-18l0,0l1.9-2
					c1.8-1.6,4-2.4,6.2-2.2c6.1,0.6,4.9,0.5,3.9,17.5C99.5,348.8,99.5,356.4,96.1,356.1z"/>
				<path class="st7" d="M89.1,317.9c4.5,0.8,7.8,3.4,7.4,5.8s-4.3,3.6-8.8,2.8c-4.5-0.8-7.8-3.4-7.4-5.8S84.7,317.1,89.1,317.9z"/>
			</g>
			<g>
				<g>
					
						<radialGradient id="SVGID_13_" cx="-319.5356" cy="113.5832" r="32.5529" gradientTransform="matrix(-0.7339 -0.6703 -0.6703 0.7339 1.5478 -5.145)" gradientUnits="userSpaceOnUse">
						<stop  offset="0.1534" style="stop-color:#FFFFFF"/>
						<stop  offset="0.4635" style="stop-color:#FDFEFF"/>
						<stop  offset="0.636" style="stop-color:#F5FBFF"/>
						<stop  offset="0.7747" style="stop-color:#E7F5FF"/>
						<stop  offset="0.8947" style="stop-color:#D3ECFF"/>
						<stop  offset="1" style="stop-color:#BBE2FF"/>
					</radialGradient>
					<path class="st22" d="M130.9,292.3c3.9-3.7,14.2-1.5,19,4.7c6.3,8.1,11.8,14.9,17.3,20.4c0.7,0.7,0.5,2-0.2,2.8l-3,3.4
						c-0.7,0.8-1.8,1-2.7,0.6c-8.4-4.1-17.6-9.1-24-12.4C131,308.5,125.6,297.3,130.9,292.3z"/>
					<path class="st9" d="M161.6,323.1c-8.3-4.1-17.3-9.3-23.7-12.6c-4.8-2.5-8.6-8.7-8.1-14.4c1.2,1.1,3.4,12,35.1,25.7l-0.7,0.8
						C163.6,323.4,162.5,323.5,161.6,323.1z"/>
				</g>
				<g>
					<path class="st7" d="M171.4,320.2c0.2,3.1-2.8,6-5.9,5.8c-3.1-0.2-6.4-2.8-6.2-5.9s2.8-5.4,5.9-5.2
						C168.4,315.2,171.3,317.6,171.4,320.2z"/>
					<path class="st7" d="M171.9,311.6c1.9-0.8,2,2,0.2,3.5c-1.3,1-4.9,0.4-5.1,1.3c-0.3,2,2.3,4.1,0.7,4.8
						c-2.8,1.2-4.1,1.3-5.3-1.5s0.1-6.1,2.9-7.3C168.1,311.2,170.2,312.3,171.9,311.6z"/>
					<path class="st7" d="M174.3,312.4c1,0.2,1.5,2,1.6,5.4c0.1,4.5-4.6,4.2-6.4,4.6c-1.6,0.3-0.8-3.4-0.4-3.9
						c0.7-0.8,3.5,0.7,3.3-1.4C172.3,314.2,173.3,312.2,174.3,312.4z"/>
					<path class="st7" d="M179.1,324.9c-0.4,1.1-3.1,0-6.6-1.3c-3.5-1.2-6.3-2.1-5.9-3.2c0.4-1.1,4.4-0.7,7.8,0.5
						C177.9,322.2,179.5,323.8,179.1,324.9z"/>
					<path class="st7" d="M177.3,327.9c-0.5,1-3-0.3-6.2-1.8s-5.9-2.5-5.4-3.6c0.5-1,4.2-0.3,7.4,1.2S177.8,326.9,177.3,327.9z"/>
					<path class="st7" d="M173.6,328.7c-0.4,1.1-3-0.2-6.3-1.5s-6-2.3-5.5-3.3c0.4-1.1,4.2-0.5,7.5,0.8
						C172.5,326,174,327.6,173.6,328.7z"/>
				</g>
				<g>
					
						<radialGradient id="SVGID_14_" cx="20.4298" cy="424.0871" r="32.5529" gradientTransform="matrix(0.7339 -0.6703 0.6703 0.7339 -255.6954 -5.145)" gradientUnits="userSpaceOnUse">
						<stop  offset="0.1534" style="stop-color:#FFFFFF"/>
						<stop  offset="0.4635" style="stop-color:#FDFEFF"/>
						<stop  offset="0.636" style="stop-color:#F5FBFF"/>
						<stop  offset="0.7747" style="stop-color:#E7F5FF"/>
						<stop  offset="0.8947" style="stop-color:#D3ECFF"/>
						<stop  offset="1" style="stop-color:#BBE2FF"/>
					</radialGradient>
					<path class="st23" d="M72.6,292.3c-3.9-3.7-14.2-1.5-19,4.7c-6.3,8.1-11.8,14.9-17.3,20.4c-0.7,0.7-0.5,2,0.2,2.8l3,3.4
						c0.7,0.8,1.8,1,2.7,0.6c8.4-4.1,17.6-9.1,24-12.4C72.5,308.5,77.9,297.3,72.6,292.3z"/>
					<path class="st9" d="M41.9,323.1c8.3-4.1,17.3-9.3,23.7-12.6c4.8-2.5,8.6-8.7,8.1-14.4c-1.2,1.1-3.4,12-35.1,25.7l0.7,0.8
						C39.9,323.4,41,323.5,41.9,323.1z"/>
				</g>
				<g>
					<path class="st7" d="M32,320.2c-0.2,3.1,2.8,6,5.9,5.8c3.1-0.2,6.4-2.8,6.2-5.9s-2.8-5.4-5.9-5.2
						C35.1,315.2,32.2,317.6,32,320.2z"/>
					<path class="st7" d="M31.6,311.6c-1.9-0.8-2,2-0.2,3.5c1.3,1,4.9,0.4,5.1,1.3c0.3,2-2.3,4.1-0.7,4.8c2.8,1.2,4.1,1.3,5.3-1.5
						s-0.1-6.1-2.9-7.3C35.4,311.2,33.3,312.3,31.6,311.6z"/>
					<path class="st7" d="M29.2,312.4c-1,0.2-1.5,2-1.6,5.4c-0.1,4.5,4.6,4.2,6.4,4.6c1.6,0.3,0.8-3.4,0.4-3.9
						c-0.7-0.8-3.5,0.7-3.3-1.4C31.2,314.2,30.2,312.2,29.2,312.4z"/>
					<path class="st7" d="M24.3,324.9c0.4,1.1,3.1,0,6.6-1.3c3.5-1.2,6.3-2.1,5.9-3.2s-4.4-0.7-7.8,0.5
						C25.6,322.2,23.9,323.8,24.3,324.9z"/>
					<path class="st7" d="M26.2,327.9c0.5,1,3-0.3,6.2-1.8s5.9-2.5,5.4-3.6c-0.5-1-4.2-0.3-7.4,1.2
						C27.2,325.2,25.7,326.9,26.2,327.9z"/>
					<path class="st7" d="M29.9,328.7c0.4,1.1,3-0.2,6.3-1.5s6-2.3,5.5-3.3c-0.4-1.1-4.2-0.5-7.5,0.8C31,326,29.5,327.6,29.9,328.7z
						"/>
				</g>
			</g>
		</g>
	</g>
</g>
<g id="Layer_2_1_" class="st0">
	<g class="st1">
		<g>
			<g>
				<path class="st7" d="M5.3,246.3c-3,2.2-6,4.3-9.1,6.4c-3,2.1-6.1,4.1-9.3,6.1c-3.1,2-6.3,3.9-9.6,5.7c-3.3,1.8-6.7,3.5-10.6,4.9
					c-2.3,0.8-4.7-0.4-5.5-2.7c-0.7-2.2,0.3-4.5,2.4-5.4h0.1c2.9-1.2,5.9-3,8.8-4.9s5.9-3.9,8.7-6c2.9-2.1,5.7-4.2,8.6-6.5
					c2.8-2.2,5.6-4.5,8.3-6.7l0,0c2.5-2.1,6.1-1.7,8.2,0.7c2.1,2.5,1.7,6.1-0.7,8.2C5.5,246.1,5.4,246.2,5.3,246.3z"/>
			</g>
		</g>
		<g>
			<g>
				<path class="st7" d="M78.7,237.9c2.3,2.7,4.7,5.4,7.1,8s4.9,5.2,7.4,7.8c2.5,2.6,5,5,7.6,7.4c2.6,2.3,5.3,4.6,7.9,6.3l0.1,0.1
					c2,1.3,2.6,4,1.4,6c-1.2,1.9-3.8,2.6-5.7,1.5c-3.7-2-6.7-4.3-9.6-6.6c-3-2.3-5.8-4.8-8.6-7.2c-2.8-2.5-5.5-5-8.1-7.5
					c-2.7-2.6-5.3-5.1-7.9-7.8c-2.2-2.3-2.2-6,0.1-8.2c2.3-2.2,6-2.2,8.2,0.1C78.5,237.7,78.6,237.8,78.7,237.9L78.7,237.9z"/>
			</g>
		</g>
		<g>
			<g>
				
					<radialGradient id="SVGID_15_" cx="-266.144" cy="351.1746" r="35.9552" gradientTransform="matrix(-0.819 0.5961 0.5961 0.8189 -323.4018 111.0223)" gradientUnits="userSpaceOnUse">
					<stop  offset="0.1534" style="stop-color:#FFFFFF"/>
					<stop  offset="0.4635" style="stop-color:#FDFEFF"/>
					<stop  offset="0.636" style="stop-color:#F5FBFF"/>
					<stop  offset="0.7747" style="stop-color:#E7F5FF"/>
					<stop  offset="0.8947" style="stop-color:#D3ECFF"/>
					<stop  offset="1" style="stop-color:#BBE2FF"/>
				</radialGradient>
				<path class="st24" d="M98.9,273.4c-3.1-4.8-1.9-14.8,5.6-18.5c9.8-4.9,25.7-12.5,30.1-14.3c1-0.4,2.2-0.1,2.9,0.8l2.9,3.9
					c0.7,0.9,0.7,2.1,0,2.9c-6,8-15.8,19.5-20.6,25.6C115.2,279.7,103.1,280,98.9,273.4z"/>
			</g>
			<path class="st9" d="M119.1,272.7c4.7-5.9,14.2-17.2,20.1-25c0.6-0.8,0.6-2,0-2.9l-1.2-1.6c-3,9.7-28.3,29.2-39.5,29.1
				C102.7,278.7,114.5,278.5,119.1,272.7z"/>
		</g>
		<g>
			<path class="st7" d="M149.6,244.6c-2.6,2.5-6.3,5-10.3,3.9c-3.5-0.9-5.9-3.9-6.5-8.9c-0.6-5.2,5-6.9,10-6.5
				S153.3,241,149.6,244.6z"/>
			<path class="st7" d="M137.8,229c-0.1,0.8,0.1,3.6,2.9,3.1c4.3-0.8-4.6,14.3-6.1,13c-6-5.4-1.3-11-1.7-18.4c-0.1-2.1-1-6,1.4-5.8
				C136.7,221.1,138.2,224,137.8,229z"/>
			<path class="st7" d="M156.3,223.1c1.5,1.9-2.2,5.4-6.4,8.9s-8.9,4.7-10.5,2.8c-1.1-1.3-1.1-2.1,1.3-2.8c1.3-0.4,4.8-3.3,6.1-4.3
				C151,224.3,154.8,221.2,156.3,223.1z"/>
			<path class="st7" d="M161.2,232.2c0.4,2.4-3.8,4.5-9.2,5.3s-10-0.1-10.4-2.5s4.3-1.8,9.7-2.6
				C156.8,231.7,160.9,229.8,161.2,232.2z"/>
			<path class="st7" d="M154.7,239.4c0.3,1.9-0.7,2.7-3.6,3.2c-2.9,0.5-5-0.2-5.3-2.1c-0.3-1.9,1.9-2.5,4.8-3
				C153.6,236.9,154.4,237.5,154.7,239.4z"/>
			<path class="st7" d="M154.1,243.6c0.3,1.6-0.5,2.3-3.1,2.9c-2.5,0.5-4.3-0.1-4.7-1.7c-0.3-1.6,1.6-2.2,4.1-2.7
				C153.1,241.6,153.8,242,154.1,243.6z"/>
		</g>
		<g>
			<g class="st25">
				<path class="st4" d="M153.7,234c-4.8,0-8.2-4.7-7.6-10.4c0.6-5.7,5-10.3,9.7-10.2c4.8,0,8.2,4.7,7.6,10.4
					C162.9,229.5,158.5,234.1,153.7,234z M155.6,215.8c-3.7,0-7.1,3.5-7.5,7.9c-0.5,4.4,2.2,8,5.9,8s7.1-3.5,7.5-7.9
					C162,219.4,159.3,215.8,155.6,215.8z"/>
			</g>
			<path class="st26" d="M158.6,223.8c-0.3,2.5-2.1,4.4-4.2,4.4c-2.1,0-3.5-2-3.3-4.5c0.3-2.5,2.1-4.4,4.2-4.4
				C157.3,219.3,158.8,221.3,158.6,223.8z"/>
			<g class="st27">
				<path class="st4" d="M153.3,238.7c-7-0.1-11.9-6.8-11.1-15.1c0.9-8.3,7.2-14.9,14.2-14.9c7,0.1,11.9,6.8,11.1,15.1
					C166.6,232.1,160.2,238.8,153.3,238.7z M156.1,211.1c-5.9-0.1-11.2,5.6-11.9,12.5c-0.7,7,3.5,12.7,9.3,12.7
					c5.9,0.1,11.2-5.6,11.9-12.5C166.2,216.9,162,211.2,156.1,211.1z"/>
			</g>
			
				<radialGradient id="SVGID_16_" cx="321.322" cy="186.5897" r="42.2844" gradientTransform="matrix(0.5521 4.900000e-03 6.770000e-02 -0.6552 -35.284 344.3791)" gradientUnits="userSpaceOnUse">
				<stop  offset="0" style="stop-color:#FFFFFF"/>
				<stop  offset="6.655455e-02" style="stop-color:#D7D7D7"/>
				<stop  offset="0.1619" style="stop-color:#A5A5A5"/>
				<stop  offset="0.262" style="stop-color:#797979"/>
				<stop  offset="0.3652" style="stop-color:#545454"/>
				<stop  offset="0.4721" style="stop-color:#353535"/>
				<stop  offset="0.584" style="stop-color:#1E1E1E"/>
				<stop  offset="0.703" style="stop-color:#0D0D0D"/>
				<stop  offset="0.8339" style="stop-color:#030303"/>
				<stop  offset="1" style="stop-color:#000000"/>
			</radialGradient>
			<path class="st28" d="M178.1,223.9c-1.6,15.3-13.3,27.6-26.2,27.5s-22.1-12.6-20.5-27.9s13.3-27.6,26.2-27.5
				S179.7,208.6,178.1,223.9z"/>
		</g>
		<g>
			
				<radialGradient id="SVGID_17_" cx="486.5445" cy="-1521.2125" r="123.6367" gradientTransform="matrix(-0.1699 -4.600000e-03 4.600000e-03 -0.1699 80.8953 -31.3232)" gradientUnits="userSpaceOnUse">
				<stop  offset="0.1534" style="stop-color:#FFFFFF"/>
				<stop  offset="0.4635" style="stop-color:#FDFEFF"/>
				<stop  offset="0.636" style="stop-color:#F5FBFF"/>
				<stop  offset="0.7747" style="stop-color:#E7F5FF"/>
				<stop  offset="0.8947" style="stop-color:#D3ECFF"/>
				<stop  offset="1" style="stop-color:#BBE2FF"/>
			</radialGradient>
			<path class="st29" d="M-15.6,246c2.5,3.4,9.2,1.9,16.8-3c7.7-4.9,12.9-10.5,10.9-14.6c-2.1-4.3-11.3-4-18.9,0.8
				C-14.4,234.1-18.4,242.2-15.6,246z"/>
			<path class="st9" d="M-15.6,245.2c-0.4-0.6-0.7-1.3-0.8-2.1c4.6,8.2,31.6-11.1,25-16.9l0,0c1.1,0.5,2,1.2,2.4,2.2
				c1.9,3.9-3.1,9.4-10.5,14C-6.8,247-13.2,248.5-15.6,245.2z"/>
		</g>
		<g>
			
				<radialGradient id="SVGID_18_" cx="2124.9924" cy="-1419.7966" r="123.58" gradientTransform="matrix(0.1681 2.560000e-02 2.560000e-02 -0.1681 -232.7631 -64.8794)" gradientUnits="userSpaceOnUse">
				<stop  offset="0.1534" style="stop-color:#FFFFFF"/>
				<stop  offset="0.4635" style="stop-color:#FDFEFF"/>
				<stop  offset="0.636" style="stop-color:#F5FBFF"/>
				<stop  offset="0.7747" style="stop-color:#E7F5FF"/>
				<stop  offset="0.8947" style="stop-color:#D3ECFF"/>
				<stop  offset="1" style="stop-color:#BBE2FF"/>
			</radialGradient>
			<path class="st30" d="M91.1,250.2c-3.1,2.9-9.4,0.2-16-5.9c-6.7-6.1-10.8-12.6-8.1-16.3c2.8-3.8,11.8-2,18.5,4.2
				C92,238.3,94.5,247,91.1,250.2z"/>
			<path class="st9" d="M91.2,249.4c0.5-0.5,0.9-1.2,1.2-1.9c-5.9,7.2-29.1-16.5-21.6-21.1l0,0c-1.2,0.3-2.1,0.8-2.8,1.7
				c-2.6,3.5,1.4,9.8,7.8,15.7C82.2,249.6,88.2,252.2,91.2,249.4z"/>
		</g>
		<g>
			
				<radialGradient id="SVGID_19_" cx="1898.3955" cy="-16411.2852" r="439.6004" gradientTransform="matrix(0.1047 0 0 -2.660000e-02 -187.762 -51.5402)" gradientUnits="userSpaceOnUse">
				<stop  offset="0.2037" style="stop-color:#ABABAB"/>
				<stop  offset="0.3198" style="stop-color:#BCBCBC"/>
				<stop  offset="0.6123" style="stop-color:#E0E0E0"/>
				<stop  offset="0.8495" style="stop-color:#F7F7F7"/>
				<stop  offset="1" style="stop-color:#FFFFFF"/>
			</radialGradient>
			<path class="st31" d="M57,385c0,6.4-20.6,11.7-46,11.7s-46-5.2-46-11.7c0-6.4,20.6-11.7,46-11.7S57,378.5,57,385z"/>
			
				<radialGradient id="SVGID_20_" cx="2257.856" cy="-16411.0449" r="438.8167" gradientTransform="matrix(0.1104 0 0 -2.660000e-02 -183.1673 -51.5338)" gradientUnits="userSpaceOnUse">
				<stop  offset="0.2037" style="stop-color:#ABABAB"/>
				<stop  offset="0.3198" style="stop-color:#BCBCBC"/>
				<stop  offset="0.6123" style="stop-color:#E0E0E0"/>
				<stop  offset="0.8495" style="stop-color:#F7F7F7"/>
				<stop  offset="1" style="stop-color:#FFFFFF"/>
			</radialGradient>
			<ellipse class="st32" cx="66.1" cy="385" rx="48.5" ry="11.7"/>
		</g>
		<g>
			<g>
				<path class="st7" d="M54.7,290.8c1.5,3.9,2.1,7.3,2.8,10.8c0.6,3.5,1,6.9,1.4,10.3s0.7,6.8,0.9,10.2c0.2,3.4,0.4,6.8,0.6,10.2
					c0.1,2.2-1.6,4-3.7,4.1c-2.1,0.1-3.8-1.5-4-3.5v-0.1c-0.3-3.3-0.7-6.6-1.2-9.9c-0.4-3.3-0.9-6.6-1.5-9.8
					c-0.5-3.3-1.2-6.5-1.9-9.6s-1.6-6.3-2.7-8.6v-0.1c-1.2-2.6-0.1-5.7,2.5-6.9c2.6-1.2,5.7-0.1,6.9,2.5
					C54.6,290.5,54.6,290.6,54.7,290.8z"/>
			</g>
		</g>
		<g>
			<g>
				<path class="st7" d="M32.5,293.6c-2.4,6.2-4.2,13-5.6,19.8c-0.7,3.4-1.4,6.9-2,10.3s-1.1,7-1.5,10.4v0.1
					c-0.3,2.1-2.2,3.7-4.3,3.4c-2.1-0.3-3.5-2.1-3.4-4.1c0.2-3.7,0.5-7.3,0.9-10.9s0.8-7.2,1.4-10.8c1.1-7.2,2.5-14.4,4.8-21.7
					c0.9-2.7,3.8-4.3,6.5-3.4s4.3,3.8,3.4,6.5C32.6,293.3,32.6,293.4,32.5,293.6L32.5,293.6z"/>
			</g>
		</g>
		<polygon class="st7" points="50.1,290.5 27.6,290.5 25.4,273.4 52.3,273.4 		"/>
		
			<radialGradient id="SVGID_21_" cx="38.1259" cy="111.8001" r="16.7518" gradientTransform="matrix(1 0 0 -1 0 399)" gradientUnits="userSpaceOnUse">
			<stop  offset="0.1534" style="stop-color:#FFFFFF"/>
			<stop  offset="0.4635" style="stop-color:#FDFEFF"/>
			<stop  offset="0.636" style="stop-color:#F5FBFF"/>
			<stop  offset="0.7747" style="stop-color:#E7F5FF"/>
			<stop  offset="0.8947" style="stop-color:#D3ECFF"/>
			<stop  offset="1" style="stop-color:#BBE2FF"/>
		</radialGradient>
		<path class="st33" d="M38.7,303.5L38.7,303.5c-9.7,0-17.6-7.4-17.6-16.5l0,0c0-1.7,1.5-3.1,3.3-3.1h13.9H53c1.8,0,3.3,1.4,3.3,3.1
			l0,0C56.4,296.1,48.5,303.5,38.7,303.5z"/>
		<path class="st9" d="M38.3,290.7c-4.3,0-7.8,3.5-7.8,7.8v3.1c0.4,0.2,0.8,0.4,1.2,0.5v-3.6c0-3.7,3-6.7,6.7-6.7s6.7,3,6.7,6.7v3.9
			c0.4-0.1,0.8-0.3,1.2-0.5v-3.4C46.2,294.2,42.7,290.7,38.3,290.7z"/>
		<path class="st9" d="M52.5,283.8H52c-1,5.1-5.3,20.9-20.6,17.6c2.2,0.9,4.6,1.5,7.2,1.5c9.5,0,17.1-7.2,17.1-16.1
			C55.7,285.2,54.2,283.8,52.5,283.8z"/>
		
			<radialGradient id="SVGID_22_" cx="38.4951" cy="124.7771" r="39.9896" gradientTransform="matrix(1 0 0 -0.8124 0 347.6366)" gradientUnits="userSpaceOnUse">
			<stop  offset="0.1534" style="stop-color:#FFFFFF"/>
			<stop  offset="0.4635" style="stop-color:#FDFEFF"/>
			<stop  offset="0.636" style="stop-color:#F5FBFF"/>
			<stop  offset="0.7747" style="stop-color:#E7F5FF"/>
			<stop  offset="0.8947" style="stop-color:#D3ECFF"/>
			<stop  offset="1" style="stop-color:#BBE2FF"/>
		</radialGradient>
		<path class="st34" d="M75.1,242.6c0,15.5-16.5,36.3-36.8,36.3S1.5,258.1,1.5,242.6s16.5-19.8,36.8-19.8
			C58.6,222.8,75.1,227.1,75.1,242.6z"/>
		<path class="st9" d="M3.1,248.9c3.5,12.6,17.8,27.5,34.9,27.5c17.3,0,31.6-15.2,34.9-27.8C61.3,261.7,49.3,264,38,263.8
			C24.6,263.6,12.3,258.8,3.1,248.9z"/>
		<path class="st9" d="M38.4,221.3c-4.9,0-9.5,1.3-13.2,3.7c1.4,4.8,5.9,10.7,13.6,10.7c8.2,0,11.9-5.7,13.5-10.2
			C48.4,222.7,43.6,221.3,38.4,221.3z"/>
		<path class="st7" d="M26.9,223.9c0,0.2,0,0.3,0,0.5c0,4.1,5.3,9.8,11.9,9.8s11.9-5.7,11.9-9.8l0,0c-3.6-2.1-7.8-3.2-12.3-3.2
			C34.3,221.3,30.4,222.2,26.9,223.9z"/>
		<path class="st9" d="M51.5,224.2c-1.7-0.4-3.4-0.7-5.2-0.9v0.2c3.5,0.3,6.9,3.7,9.3,9.3c4.8,11.3,5.1,33.1-9.1,45
			c1.2-0.3,2.5-0.8,3.7-1.3c12.3-12.7,11.8-32.9,7-44.2C55.7,228.7,53.8,225.9,51.5,224.2z"/>
		<g>
			
				<radialGradient id="SVGID_23_" cx="-12.0185" cy="67.7749" r="55.646" gradientTransform="matrix(0.9445 0 0 -1 -3.0154 399)" gradientUnits="userSpaceOnUse">
				<stop  offset="0.1534" style="stop-color:#FFFFFF"/>
				<stop  offset="0.4635" style="stop-color:#FDFEFF"/>
				<stop  offset="0.636" style="stop-color:#F5FBFF"/>
				<stop  offset="0.7747" style="stop-color:#E7F5FF"/>
				<stop  offset="0.8947" style="stop-color:#D3ECFF"/>
				<stop  offset="1" style="stop-color:#BBE2FF"/>
			</radialGradient>
			<path class="st35" d="M28.2,373.4c-3.8,4.5-21.1,4.5-25.5,0c-4.8-5,2.8-43.4,8.5-47.7c3-2.3,14.9,6.3,15.5,10
				C29.5,354.8,29.9,371.3,28.2,373.4z"/>
			<path class="st9" d="M1.3,368.7c0.2,2.2,0.6,3.9,1.4,4.7c3.5,3.6,14.9,4.3,21.4,2.3c5.7-11.1,2.5-35.4,1.5-42
				c-0.6-0.9-1.6-1.8-2.6-2.8c3.4,17.4-0.2,38.8-7.7,36.1C6.9,363.9,1.4,368.6,1.3,368.7z"/>
			<path class="st9" d="M21.1,330.8c0.1-0.4,0.2-0.8,0.3-1.3c-3.8-2.9-8.5-5.2-10.3-3.9c-1,0.8-2.1,2.6-3.1,5.2
				c0,3.6,1.3,6.5,3.6,7.5C15,339.8,19.3,336.4,21.1,330.8z"/>
			
				<radialGradient id="SVGID_24_" cx="36.2951" cy="128.6882" r="15.8242" gradientTransform="matrix(0.8966 0.3825 0.3035 -0.924 -63.4334 427.0589)" gradientUnits="userSpaceOnUse">
				<stop  offset="0.1534" style="stop-color:#FFFFFF"/>
				<stop  offset="0.4635" style="stop-color:#FDFEFF"/>
				<stop  offset="0.636" style="stop-color:#F5FBFF"/>
				<stop  offset="0.7747" style="stop-color:#E7F5FF"/>
				<stop  offset="0.8947" style="stop-color:#D3ECFF"/>
				<stop  offset="1" style="stop-color:#BBE2FF"/>
			</radialGradient>
			<path class="st36" d="M18.6,331c-1.5,4.5-4.9,7.3-7.7,6.1c-2.7-1.2-3.7-5.8-2.3-10.3c1.5-4.5,4.9-7.3,7.7-6.1
				S20.1,326.5,18.6,331z"/>
			
				<radialGradient id="SVGID_25_" cx="0.4973" cy="45.0901" r="40.7552" gradientTransform="matrix(0.9445 0 0 -1 -3.0154 399)" gradientUnits="userSpaceOnUse">
				<stop  offset="0.1534" style="stop-color:#FFFFFF"/>
				<stop  offset="0.4635" style="stop-color:#FDFEFF"/>
				<stop  offset="0.636" style="stop-color:#F5FBFF"/>
				<stop  offset="0.7747" style="stop-color:#E7F5FF"/>
				<stop  offset="0.8947" style="stop-color:#D3ECFF"/>
				<stop  offset="1" style="stop-color:#BBE2FF"/>
			</radialGradient>
			<path class="st37" d="M28.5,380.9c0.4,6.8,0.3,5.4-18.3,5.4c-10.3,0-18.6,0.5-18.9-3.2c-0.2-3.4,7.5-14.4,17.8-14.4
				C19.4,368.7,28.1,374.2,28.5,380.9z"/>
			<path class="st9" d="M-7.9,382.5c0-0.7,0.3-1.7,0.9-2.9c-0.4,1.9,0.2,4.3,12,4.5c11.8,0.3,17.4-7.1,17-12l0,0l2.5,1.9
				c1.9,1.8,3.2,4,3.3,6.4c0.4,6.5,0.3,5.1-17.5,5.1C0.3,385.6-7.7,386-7.9,382.5z"/>
			<path class="st7" d="M29.8,372.6c-0.1,4.7-2.3,8.4-4.8,8.1c-2.5-0.2-4.5-4.3-4.4-9s2.3-8.4,4.8-8.1C28,363.8,30,367.9,29.8,372.6
				z"/>
		</g>
		<g>
			
				<radialGradient id="SVGID_26_" cx="82.1388" cy="74.4239" r="53.6643" gradientTransform="matrix(0.9445 0 0 -1 -3.0154 399)" gradientUnits="userSpaceOnUse">
				<stop  offset="0.1534" style="stop-color:#FFFFFF"/>
				<stop  offset="0.4635" style="stop-color:#FDFEFF"/>
				<stop  offset="0.636" style="stop-color:#F5FBFF"/>
				<stop  offset="0.7747" style="stop-color:#E7F5FF"/>
				<stop  offset="0.8947" style="stop-color:#D3ECFF"/>
				<stop  offset="1" style="stop-color:#BBE2FF"/>
			</radialGradient>
			<path class="st38" d="M47.1,373.4c3.8,4.5,21.1,4.5,25.5,0c4.8-5-2.8-43.4-8.5-47.7c-3-2.3-14.9,6.3-15.5,10
				C45.8,354.8,45.4,371.3,47.1,373.4z"/>
			<path class="st9" d="M74,368.7c-0.2,2.2-0.6,3.9-1.4,4.7c-3.5,3.6-14.9,4.3-21.4,2.3c-5.7-11.1-2.5-35.4-1.5-42
				c0.6-0.9,1.6-1.8,2.6-2.8c-3.4,17.4,0,37.9,7.7,36.1C69.4,364.8,73.9,368.6,74,368.7z"/>
			<path class="st9" d="M54.2,330.8c-0.1-0.4-0.2-0.8-0.3-1.3c3.8-2.9,8.5-5.2,10.3-3.9c1,0.8,2.1,2.6,3.1,5.2
				c0,3.6-1.3,6.5-3.6,7.5C60.2,339.8,56,336.4,54.2,330.8z"/>
			
				<radialGradient id="SVGID_27_" cx="-245.1261" cy="12.1908" r="15.8241" gradientTransform="matrix(-0.8966 0.3825 -0.3035 -0.924 -148.9674 427.0589)" gradientUnits="userSpaceOnUse">
				<stop  offset="0.1534" style="stop-color:#FFFFFF"/>
				<stop  offset="0.4635" style="stop-color:#FDFEFF"/>
				<stop  offset="0.636" style="stop-color:#F5FBFF"/>
				<stop  offset="0.7747" style="stop-color:#E7F5FF"/>
				<stop  offset="0.8947" style="stop-color:#D3ECFF"/>
				<stop  offset="1" style="stop-color:#BBE2FF"/>
			</radialGradient>
			<path class="st39" d="M56.7,331c1.5,4.5,4.9,7.3,7.7,6.1c2.7-1.2,3.7-5.8,2.3-10.3c-1.5-4.5-4.9-7.3-7.7-6.1S55.2,326.5,56.7,331
				z"/>
			
				<radialGradient id="SVGID_28_" cx="80.1832" cy="50.1745" r="39.2774" gradientTransform="matrix(0.9445 0 0 -1 -3.0154 399)" gradientUnits="userSpaceOnUse">
				<stop  offset="0.1534" style="stop-color:#FFFFFF"/>
				<stop  offset="0.4635" style="stop-color:#FDFEFF"/>
				<stop  offset="0.636" style="stop-color:#F5FBFF"/>
				<stop  offset="0.7747" style="stop-color:#E7F5FF"/>
				<stop  offset="0.8947" style="stop-color:#D3ECFF"/>
				<stop  offset="1" style="stop-color:#BBE2FF"/>
			</radialGradient>
			<path class="st40" d="M46.8,380.9c-0.4,6.8-0.3,5.4,18.3,5.4c10.3,0,18.6,0.5,18.9-3.2c0.2-3.4-7.5-14.4-17.8-14.4
				C55.9,368.7,47.2,374.2,46.8,380.9z"/>
			<path class="st9" d="M83.4,382.5c0-0.7-0.3-1.7-0.9-2.9c0.4,1.9-0.2,4.3-12,4.5c-11.8,0.3-17.4-7.1-17-12l0,0L51,374
				c-1.9,1.8-3.2,4-3.3,6.4c-0.4,6.5-0.3,5.1,17.5,5.1C75.2,385.6,83.1,386,83.4,382.5z"/>
			<path class="st7" d="M44.8,372.9c0.1,4.7,2.3,8.4,4.8,8.1c2.5-0.2,4.5-4.3,4.4-9s-2.3-8.4-4.8-8.1
				C46.7,364.2,44.7,368.2,44.8,372.9z"/>
		</g>
		<g>
			<g>
				
					<ellipse transform="matrix(0.1795 -0.9838 0.9838 0.1795 -20.6892 242.7137)" class="st7" cx="135.2" cy="133.8" rx="53.3" ry="25.6"/>
				<path class="st4" d="M141.3,179.8c1.4-1.3,2.7-2.9,4.1-4.6L159,97.4c-0.7-2-1.4-3.8-2.3-5.5L141.3,179.8z"/>
				
					<radialGradient id="SVGID_29_" cx="1149.2023" cy="-694.0395" r="583.95" gradientTransform="matrix(0.2517 6.600000e-03 6.500000e-03 -0.2469 -241.1082 -78.7531)" gradientUnits="userSpaceOnUse">
					<stop  offset="0.1534" style="stop-color:#FFFFFF"/>
					<stop  offset="0.4635" style="stop-color:#FDFEFF"/>
					<stop  offset="0.636" style="stop-color:#F5FBFF"/>
					<stop  offset="0.7747" style="stop-color:#E7F5FF"/>
					<stop  offset="0.8947" style="stop-color:#D3ECFF"/>
					<stop  offset="1" style="stop-color:#BBE2FF"/>
				</radialGradient>
				<path class="st41" d="M148.1,87.4C149.3,41.7,103,3.3,44.7,1.8S-61.8,36.1-63,81.9c0,1.3,0,2.5,0,3.8h-0.1l0.2,1.6
					c0.1,1.9,0.3,3.8,0.6,5.6l4.4,43.7l3.9,38.8c1.3,12.5,8.2,23.9,18.8,30.9c18.8,12.4,45,20.4,74.1,21.2
					c27.8,0.7,53.3-5.3,72.4-15.7c11.3-6.2,19.1-17.1,21.3-29.7l14-81.8c0.7-3,1.1-6,1.4-9v-0.1l0,0C148,90,148.1,88.7,148.1,87.4z"
					/>
				<path class="st9" d="M141.9,61.4c2.6,18.6-11.4,73.1-14.8,99.7c-3.6,29-14.3,59-88.4,57c-74-1.9-90.1-35.5-90.1-35.5
					c2.9,8.9,8.7,16.7,16.8,22c18.5,12.2,44.4,20.2,73.1,20.9c27.4,0.7,52.6-5.2,71.5-15.5c11.2-6.1,18.9-16.9,21-29.3l13.8-80.8
					c0.7-2.9,1.1-5.9,1.4-8.9v-0.1l0,0c0.1-1.2,0.2-2.5,0.2-3.7C146.7,78.2,145.1,69.5,141.9,61.4z"/>
				<g class="st18">
					<path class="st9" d="M43.5,50.5c-15.8-0.5-28.4-13.4-28-28.9L16,4.1l1.5-0.3L17,21.6c-0.4,14.7,11.5,27,26.5,27.4
						S71,37.7,71.4,23l0.5-17.8l1.4,0.3L72.8,23C72.4,38.6,59.3,50.9,43.5,50.5z"/>
				</g>
				<g class="st18">
					<path class="st9" d="M105,214.9c3.8-37.9,13.1-128.3,16.9-144.4c4.2-17.8,14.5-22.1,14.9-22.2l0.8,1.3h-0.2
						c-0.1,0-10.1,4.2-14.2,21.3c-3.8,15.9-13,105.2-16.8,143.4L105,214.9z"/>
				</g>
				<g>
					<path class="st7" d="M-14.2,102.2c-17.2-0.4-30.9,14.3-29.2,31.4l0,0l3.9,39.6c0.8,8.5,5.4,16.1,12.5,20.8
						c17.3,11.6,40.9,18.4,66.3,19c24.2,0.6,47.3-4.4,65-14.2c7.5-4.1,12.6-11.4,14-19.9l6.8-40.3c2.9-17.1-10.1-32.9-27.5-33.3
						L-14.2,102.2z"/>
					<path class="st9" d="M39.2,214.4c-25.7-0.7-49.5-7.5-67.1-19.3c-7.5-5-12.2-13-13.1-21.9l-3.9-39.6c-0.8-8.6,2.1-17.1,7.9-23.4
						c5.9-6.3,14.2-9.8,22.8-9.6l111.7,2.9c8.7,0.2,16.9,4.2,22.4,10.9c5.5,6.7,7.9,15.5,6.4,24.1l-6.8,40.3
						c-1.5,9-6.9,16.6-14.7,21C87,209.9,63.7,215,39.2,214.4z M-14.3,103.6c-7.8-0.2-15.3,2.9-20.6,8.6s-7.9,13.4-7.2,21.1l3.9,39.6
						c0.8,8,5.1,15.2,11.8,19.7c17.1,11.5,40.4,18.1,65.5,18.8c24,0.6,46.8-4.4,64.2-14c7.1-3.9,11.9-10.8,13.3-18.9l6.8-40.3
						c1.3-7.8-0.8-15.7-5.8-21.8c-5-6.1-12.4-9.7-20.2-9.9L-14.3,103.6z"/>
				</g>
				<g>
					
						<rect x="-1.1" y="141.9" transform="matrix(2.613203e-02 -0.9997 0.9997 2.613203e-02 -142.9893 141.6375)" class="st4" width="4.6" height="4.6"/>
					
						<rect x="3.5" y="142" transform="matrix(2.613203e-02 -0.9997 0.9997 2.613203e-02 -138.6081 146.3333)" class="st4" width="4.6" height="4.6"/>
					
						<rect x="-1.3" y="146.5" transform="matrix(2.613188e-02 -0.9997 0.9997 2.613188e-02 -147.78 145.9162)" class="st4" width="4.6" height="4.6"/>
					
						<rect x="3.4" y="146.6" transform="matrix(2.616930e-02 -0.9997 0.9997 2.616930e-02 -143.3041 150.7092)" class="st4" width="4.6" height="4.6"/>
					
						<rect x="-1.4" y="151.1" transform="matrix(2.613282e-02 -0.9997 0.9997 2.613282e-02 -152.4759 150.2973)" class="st4" width="4.6" height="4.6"/>
					
						<rect x="3.2" y="151.2" transform="matrix(2.613203e-02 -0.9997 0.9997 2.613203e-02 -148.0946 154.9934)" class="st4" width="4.6" height="4.6"/>
					
						<rect x="-1.5" y="155.7" transform="matrix(2.613203e-02 -0.9997 0.9997 2.613203e-02 -157.1717 154.6787)" class="st4" width="4.6" height="4.6"/>
					
						<rect x="3.1" y="155.9" transform="matrix(2.613203e-02 -0.9997 0.9997 2.613203e-02 -152.893 159.4693)" class="st4" width="4.6" height="4.6"/>
					
						<rect x="-1.6" y="160.4" transform="matrix(2.613203e-02 -0.9997 0.9997 2.613203e-02 -161.9701 159.1547)" class="st4" width="4.6" height="4.6"/>
					
						<rect x="-1" y="137.2" transform="matrix(2.613203e-02 -0.9997 0.9997 2.613203e-02 -138.1909 137.1614)" class="st4" width="4.6" height="4.6"/>
					
						<rect x="74.4" y="144.2" transform="matrix(2.613203e-02 -0.9997 0.9997 2.613203e-02 -71.7566 219.3566)" class="st4" width="4.6" height="4.6"/>
					
						<rect x="79" y="144.4" transform="matrix(2.613188e-02 -0.9997 0.9997 2.613188e-02 -67.4779 224.1473)" class="st4" width="4.6" height="4.6"/>
					
						<rect x="83.6" y="144.5" transform="matrix(2.613298e-02 -0.9997 0.9997 2.613298e-02 -63.0967 228.843)" class="st4" width="4.6" height="4.6"/>
					
						<rect x="88.2" y="144.6" transform="matrix(2.613188e-02 -0.9997 0.9997 2.613188e-02 -58.7154 233.5392)" class="st4" width="4.6" height="4.6"/>
					
						<rect x="74.2" y="148.9" transform="matrix(2.613203e-02 -0.9997 0.9997 2.613203e-02 -76.6497 223.7302)" class="st4" width="4.6" height="4.6"/>
					
						<rect x="78.9" y="149" transform="matrix(2.613282e-02 -0.9997 0.9997 2.613282e-02 -72.1739 228.5285)" class="st4" width="4.6" height="4.6"/>
					
						<rect x="83.5" y="149.1" transform="matrix(2.613203e-02 -0.9997 0.9997 2.613203e-02 -67.7925 233.2246)" class="st4" width="4.6" height="4.6"/>
					
						<rect x="88.1" y="149.2" transform="matrix(2.613188e-02 -0.9997 0.9997 2.613188e-02 -63.4112 237.9204)" class="st4" width="4.6" height="4.6"/>
					
						<rect x="74.1" y="153.5" transform="matrix(2.616835e-02 -0.9997 0.9997 2.616835e-02 -81.3483 228.1059)" class="st4" width="4.6" height="4.6"/>
					
						<rect x="78.7" y="153.6" transform="matrix(2.613282e-02 -0.9997 0.9997 2.613282e-02 -76.9645 232.8072)" class="st4" width="4.6" height="4.6"/>
					
						<rect x="83.4" y="153.7" transform="matrix(2.613203e-02 -0.9997 0.9997 2.613203e-02 -72.4884 237.6057)" class="st4" width="4.6" height="4.6"/>
					
						<rect x="88" y="153.9" transform="matrix(2.613188e-02 -0.9997 0.9997 2.613188e-02 -68.2096 242.3963)" class="st4" width="4.6" height="4.6"/>
					
						<rect x="74" y="158.1" transform="matrix(2.613282e-02 -0.9997 0.9997 2.613282e-02 -86.0416 232.4925)" class="st4" width="4.6" height="4.6"/>
					
						<rect x="78.6" y="158.2" transform="matrix(2.613203e-02 -0.9997 0.9997 2.613203e-02 -81.6604 237.1885)" class="st4" width="4.6" height="4.6"/>
					
						<rect x="83.2" y="158.4" transform="matrix(2.616229e-02 -0.9997 0.9997 2.616229e-02 -77.3841 241.9745)" class="st4" width="4.6" height="4.6"/>
					
						<rect x="87.9" y="158.5" transform="matrix(2.613188e-02 -0.9997 0.9997 2.613188e-02 -72.9056 246.7776)" class="st4" width="4.6" height="4.6"/>
					
						<rect x="78.5" y="162.9" transform="matrix(2.613203e-02 -0.9997 0.9997 2.613203e-02 -86.4586 241.6645)" class="st4" width="4.6" height="4.6"/>
					
						<rect x="83.1" y="163" transform="matrix(2.613203e-02 -0.9997 0.9997 2.613203e-02 -82.0774 246.3605)" class="st4" width="4.6" height="4.6"/>
					
						<rect x="79.1" y="139.7" transform="matrix(2.613203e-02 -0.9997 0.9997 2.613203e-02 -62.6794 219.6713)" class="st4" width="4.6" height="4.6"/>
					
						<rect x="83.7" y="139.9" transform="matrix(2.616835e-02 -0.9997 0.9997 2.616835e-02 -58.4038 224.457)" class="st4" width="4.6" height="4.6"/>
					<g>
						
							<rect x="32.4" y="169.6" transform="matrix(1.896977e-02 -0.9998 0.9998 1.896977e-02 -137.8244 203.3288)" class="st4" width="4.6" height="4.6"/>
						
							<rect x="27.8" y="169.5" transform="matrix(1.900074e-02 -0.9998 0.9998 1.900074e-02 -142.2383 198.6272)" class="st4" width="4.6" height="4.6"/>
						
							<rect x="37" y="169.7" transform="matrix(1.900074e-02 -0.9998 0.9998 1.900074e-02 -133.4125 208.0201)" class="st4" width="4.6" height="4.6"/>
						
							<rect x="41.6" y="169.8" transform="matrix(1.900005e-02 -0.9998 0.9998 1.900005e-02 -128.9998 212.7166)" class="st4" width="4.6" height="4.6"/>
						
							<rect x="32.3" y="174.2" transform="matrix(1.900005e-02 -0.9998 0.9998 1.900005e-02 -142.5219 207.7365)" class="st4" width="4.6" height="4.6"/>
						
							<rect x="36.9" y="174.3" transform="matrix(1.900005e-02 -0.9998 0.9998 1.900005e-02 -138.1091 212.433)" class="st4" width="4.6" height="4.6"/>
						
							<rect x="41.6" y="174.4" transform="matrix(1.900074e-02 -0.9998 0.9998 1.900074e-02 -133.5999 217.2311)" class="st4" width="4.6" height="4.6"/>
						
							<rect x="27.7" y="174.1" transform="matrix(1.900074e-02 -0.9998 0.9998 1.900074e-02 -146.9347 203.0401)" class="st4" width="4.6" height="4.6"/>
						
							<rect x="32.2" y="178.8" transform="matrix(1.900074e-02 -0.9998 0.9998 1.900074e-02 -147.2183 212.1494)" class="st4" width="4.6" height="4.6"/>
						
							<rect x="36.8" y="178.9" transform="matrix(1.896977e-02 -0.9998 0.9998 1.896977e-02 -142.8044 216.8512)" class="st4" width="4.6" height="4.6"/>
					</g>
				</g>
			</g>
		</g>
		
			<ellipse transform="matrix(4.531432e-02 -0.999 0.999 4.531432e-02 -193.9207 298.2835)" class="st9" cx="59.1" cy="250.6" rx="5.8" ry="5.8"/>
		<path class="st4" d="M59.1,254.9c-2.4,0-4.3-1.9-4.3-4.3c0-2.4,1.9-4.3,4.3-4.3c2.4,0,4.3,1.9,4.3,4.3
			C63.4,252.9,61.4,254.9,59.1,254.9z"/>
	</g>
	<path class="st42" d="M244,155l-14,88.4c-0.4,2.5-2.2,4.7-4.1,5.1L96.4,270.8c-4,0.7-6.9-1.7-6.3-5.4L111,133
		c0.6-3.7,4.2-6.1,8-5.4L241.5,150"/>
	<path class="st43" d="M241.3,151.5l-122.6-21.7c-2.5-0.4-4.8,1.2-5.2,3.6L92.6,265c-0.4,2.4,1.5,4,4.1,3.6l129.5-21.7
		c1.2-0.2,2.4-1.7,2.7-3.3l14-88.8"/>
	<path class="st44" d="M233.1,208.5l-10.3-0.9c-0.8-0.1-1.3-1-1.2-2.1l2.2-14c0.2-1.1,1-1.8,1.8-1.7l10.2,1.5c0.7,0.1,1.2,1,1.1,2
		l-2.1,13.4C234.6,207.8,233.9,208.6,233.1,208.5z"/>
	<path class="st45" d="M219.7,207.7L125,194.6c-1.1-0.2-1.8-1.1-1.7-2.2l0,0c0.2-1.1,1.2-1.8,2.3-1.6l94.5,14.1
		c0.6,0.1,1,0.8,0.9,1.6l0,0C221,207.2,220.4,207.8,219.7,207.7z"/>
	<path class="st44" d="M218.8,204.5l-60.2-7.2c-0.9-0.1-1.5-1-1.4-1.9l0,0c0.2-1,1-1.7,1.9-1.5l60.1,7.8c0.6,0.1,1,0.8,0.9,1.6l0,0
		C220.1,204,219.5,204.6,218.8,204.5z"/>
	<path class="st44" d="M217.9,202.8l-39.5-3.9c-0.8-0.1-1.3-0.9-1.2-1.8l0,0c0.1-0.9,0.9-1.6,1.7-1.5l39.5,4.3
		c0.6,0.1,1,0.8,0.9,1.6l0,0C219.1,202.3,218.5,202.9,217.9,202.8z"/>
	<path class="st45" d="M191.3,201.7l-14.4-0.5c-1.1,0-1.9-1.1-1.7-2.3l0,0c0.2-1.3,1.3-2.2,2.4-2.2l14.3,0.7c1,0,1.7,1,1.5,2.2l0,0
		C193.2,200.8,192.3,201.7,191.3,201.7z"/>
	<path class="st46" d="M167.2,201.9l-16.7-0.6c-1.3,0-2.2-1.2-2-2.5l0,0c0.2-1.4,1.4-2.4,2.7-2.3l16.6,0.8c1.2,0.1,1.9,1.1,1.7,2.4
		l0,0C169.5,201,168.4,202,167.2,201.9z"/>
	<path class="st46" d="M183.3,195.7l-75.3,10c-1.1,0.1-1.8-0.6-1.7-1.6l0,0c0.2-1,1.2-1.9,2.2-2.1l75.2-9.3c0.7-0.1,1.2,0.5,1,1.3
		l0,0C184.7,194.9,184,195.6,183.3,195.7z"/>
	<polygon class="st47" points="181,219.3 187.4,179.1 192.2,179.2 185.9,218.8 	"/>
	<polygon class="st48" points="170.8,214.4 175.6,184 180.7,184 176,213.9 	"/>
	<polygon class="st44" points="159.7,210 163.1,188.6 168.6,188.4 165.3,209.4 	"/>
	<polygon class="st48" points="148.1,221.3 155,177.1 160.8,177.2 154,220.7 	"/>
	<polygon class="st44" points="135.3,216 140.6,182.5 146.9,182.4 141.7,215.4 	"/>
	<polygon class="st47" points="107.7,223.7 115.5,174.7 122.6,174.8 115,223 	"/>
	<polygon class="st48" points="122.1,211.2 125.8,187.5 132.5,187.2 128.9,210.5 	"/>
	<g class="st1">
		<path class="st49" d="M228.8,197.6c1.5-9.7-3.2-17.8-10.9-18L215,198L228.8,197.6z"/>
		<path class="st4" d="M213,200.2l2.9-18.5c-8.2-0.2-16.6,8.4-18.3,19.1c-1.7,10.8,4.1,18.8,12.5,17.9c7.9-0.8,15.3-9.3,16.9-19.1
			L213,200.2z"/>
	</g>
	<path class="st46" d="M215.1,200.3l-13.4,1.8c-0.9,0.1-1.5-0.7-1.4-1.8l0,0c0.2-1.1,1.1-2.1,2-2.2l13.4-1.6
		c0.8-0.1,1.4,0.7,1.2,1.8l0,0C216.8,199.2,216,200.2,215.1,200.3z"/>
	<polygon class="st48" points="185.9,195.6 107.7,203.9 107.9,202.5 186.1,194.5 	"/>
	<path class="st46" d="M233.3,201.3l-9.1-0.4c-0.7,0-1.2-0.8-1-1.8l0.1-0.5c0.2-1,0.9-1.7,1.6-1.7l9,0.5c0.7,0,1.1,0.8,1,1.7
		l-0.1,0.4C234.7,200.6,234,201.4,233.3,201.3z"/>
	<path class="st46" d="M147,197.8l-40.1,6c-1.1,0.2-1.8-0.5-1.7-1.5l0,0c0.2-1,1.2-1.9,2.2-2.1l40-5.6c0.9-0.1,1.4,0.5,1.3,1.4l0,0
		C148.7,196.9,147.9,197.7,147,197.8z"/>
	<path class="st45" d="M139.1,202.2l-19.6-0.7c-1.5-0.1-2.6-1.3-2.3-2.8l0,0c0.2-1.5,1.7-2.6,3.2-2.5l19.5,0.9
		c1.4,0.1,2.3,1.2,2.1,2.6l0,0C141.8,201.2,140.5,202.2,139.1,202.2z"/>
	<line class="st50" x1="107.8" y1="194.3" x2="239.1" y2="204.1"/>
	<line class="st50" x1="210.1" y1="196.5" x2="209.2" y2="201.9"/>
</g>
<g>
	<g>
		<g>
			<path class="st7" d="M163.3,240.9c0.3,5.9,0.5,11.8,0.6,17.7c0.1,3,0.1,5.9,0,8.9c-0.1,3-0.1,6-0.5,9.3c-0.3,2.4-2.5,4.1-4.9,3.8
				c-2.3-0.3-3.9-2.3-3.8-4.5l0-0.2c0.1-2.4,0-5.3-0.2-8.1c-0.2-2.8-0.5-5.7-0.7-8.6c-0.6-5.7-1.3-11.5-2-17.2l0,0
				c-0.4-3.2,1.8-6.1,5-6.5c3.2-0.4,6.1,1.8,6.5,5C163.3,240.6,163.3,240.7,163.3,240.9z"/>
		</g>
	</g>
	<g>
		
			<radialGradient id="SVGID_30_" cx="223.8176" cy="110.6547" r="26.5038" gradientTransform="matrix(0.684 0.4926 -0.4549 0.8463 58.0005 55.6629)" gradientUnits="userSpaceOnUse">
			<stop  offset="0.1534" style="stop-color:#FFFFFF"/>
			<stop  offset="0.4635" style="stop-color:#FDFEFF"/>
			<stop  offset="0.636" style="stop-color:#F5FBFF"/>
			<stop  offset="0.7747" style="stop-color:#E7F5FF"/>
			<stop  offset="0.8947" style="stop-color:#D3ECFF"/>
			<stop  offset="1" style="stop-color:#BBE2FF"/>
		</radialGradient>
		<path class="st51" d="M170.2,278c-1.7,6.9-8.7,10.9-15.6,9c-7-1.9-11.3-9.1-9.6-16c1.7-6.9,8.7-10.9,15.6-9
			C167.5,263.9,171.8,271.1,170.2,278z"/>
		<path class="st9" d="M164.4,276l-16-4.8c-2.2,4-1.6,7.9,0.2,11.2c1.5,1.5,3.4,2.7,5.7,3.4c4.5,1.3,9.1-0.2,12-3.3
			C163,281.9,164.4,276,164.4,276z"/>
	</g>
	<g>
		<g>
			<path class="st7" d="M85.7,240.5c-1.8,6.8-3.6,13.7-5.2,20.5c-0.8,3.4-1.6,6.9-2.3,10.3c-0.3,1.7-0.7,3.4-1,5.1
				c-0.3,1.7-0.5,3.3-0.6,4.7l0,0.3c-0.2,2.4-2.3,4.2-4.7,4c-2.3-0.2-4-2.1-4-4.3c0-2.2,0.1-4.1,0.3-5.9c0.2-1.9,0.4-3.7,0.7-5.5
				c0.5-3.6,1.1-7.1,1.6-10.7c1.2-7.1,2.5-14.1,3.8-21.2c0.6-3.2,3.7-5.2,6.8-4.6c3.2,0.6,5.2,3.7,4.6,6.8
				C85.8,240.2,85.8,240.3,85.7,240.5L85.7,240.5z"/>
		</g>
	</g>
	<g>
		
			<radialGradient id="SVGID_31_" cx="1440.4161" cy="1984.5758" r="124.2398" gradientTransform="matrix(-0.1621 5.130000e-02 5.130000e-02 0.1621 201.515 -168.4715)" gradientUnits="userSpaceOnUse">
			<stop  offset="0.1534" style="stop-color:#FFFFFF"/>
			<stop  offset="0.4635" style="stop-color:#FDFEFF"/>
			<stop  offset="0.636" style="stop-color:#F5FBFF"/>
			<stop  offset="0.7747" style="stop-color:#E7F5FF"/>
			<stop  offset="0.8947" style="stop-color:#D3ECFF"/>
			<stop  offset="1" style="stop-color:#BBE2FF"/>
		</radialGradient>
		<path class="st52" d="M70.3,249.4c3.5,2.4,9.3-1.2,15-8.4c5.7-7.1,8.8-14.2,5.5-17.5c-3.4-3.4-12-0.1-17.7,7
			C67.5,237.8,66.4,246.8,70.3,249.4z"/>
		<path class="st9" d="M70,248.7c-0.6-0.4-1.1-1-1.5-1.8c7,6.3,26.4-21,18.2-24.3h0c1.2,0.1,2.3,0.5,3,1.2c3.1,3.1,0.1,9.9-5.3,16.8
			C79,247.5,73.4,251,70,248.7z"/>
	</g>
	<g>
		
			<radialGradient id="SVGID_32_" cx="1291.6797" cy="1967.3485" r="124.2374" gradientTransform="matrix(0.1644 4.340000e-02 -4.340000e-02 0.1644 41.9359 -152.5763)" gradientUnits="userSpaceOnUse">
			<stop  offset="0.1534" style="stop-color:#FFFFFF"/>
			<stop  offset="0.4635" style="stop-color:#FDFEFF"/>
			<stop  offset="0.636" style="stop-color:#F5FBFF"/>
			<stop  offset="0.7747" style="stop-color:#E7F5FF"/>
			<stop  offset="0.8947" style="stop-color:#D3ECFF"/>
			<stop  offset="1" style="stop-color:#BBE2FF"/>
		</radialGradient>
		<path class="st53" d="M169.5,249.2c-3.4,2.6-9.4-0.8-15.4-7.6c-6-6.9-9.5-13.8-6.4-17.2c3.2-3.5,12-0.7,18,6.2
			C171.8,237.4,173.3,246.4,169.5,249.2z"/>
		<path class="st9" d="M169.7,248.5c0.6-0.5,1-1.1,1.4-1.8c-6.7,6.6-27.4-19.7-19.3-23.4h0c-1.2,0.2-2.2,0.6-3,1.4
			c-3,3.3,0.3,9.9,6.1,16.5C160.7,247.7,166.5,251,169.7,248.5z"/>
	</g>
	<g>
		
			<radialGradient id="SVGID_33_" cx="370.5122" cy="17536.9492" r="441.1817" gradientTransform="matrix(0.1047 0 0 2.660000e-02 52.1784 -79.6748)" gradientUnits="userSpaceOnUse">
			<stop  offset="0.2037" style="stop-color:#ABABAB"/>
			<stop  offset="0.3198" style="stop-color:#BCBCBC"/>
			<stop  offset="0.6123" style="stop-color:#E0E0E0"/>
			<stop  offset="0.8495" style="stop-color:#F7F7F7"/>
			<stop  offset="1" style="stop-color:#FFFFFF"/>
		</radialGradient>
		<ellipse class="st54" cx="91" cy="386.8" rx="46.2" ry="11.7"/>
		
			<radialGradient id="SVGID_34_" cx="824.403" cy="17536.6953" r="441.1862" gradientTransform="matrix(0.1104 0 0 2.660000e-02 55.2455 -79.6684)" gradientUnits="userSpaceOnUse">
			<stop  offset="0.2037" style="stop-color:#ABABAB"/>
			<stop  offset="0.3198" style="stop-color:#BCBCBC"/>
			<stop  offset="0.6123" style="stop-color:#E0E0E0"/>
			<stop  offset="0.8495" style="stop-color:#F7F7F7"/>
			<stop  offset="1" style="stop-color:#FFFFFF"/>
		</radialGradient>
		<ellipse class="st55" cx="146.3" cy="386.8" rx="48.7" ry="11.7"/>
	</g>
	<g>
		<g>
			<path class="st7" d="M134.8,292.1c1.5,3.9,2.2,7.4,2.8,10.9c0.6,3.5,1,6.9,1.4,10.4c0.4,3.4,0.7,6.9,0.9,10.3
				c0.2,3.4,0.4,6.8,0.6,10.3c0.1,2.2-1.6,4-3.8,4.1c-2.1,0.1-3.8-1.5-4.1-3.5l0-0.1c-0.3-3.3-0.8-6.6-1.2-9.9
				c-0.4-3.3-1-6.6-1.5-9.9c-0.6-3.3-1.2-6.5-1.9-9.7c-0.7-3.1-1.6-6.3-2.7-8.6l0-0.1c-1.2-2.6-0.1-5.7,2.5-7c2.6-1.2,5.7-0.1,7,2.5
				C134.7,291.8,134.8,292,134.8,292.1z"/>
		</g>
	</g>
	<g>
		<g>
			<path class="st7" d="M112.5,294.9c-2.4,6.3-4.2,13.1-5.7,19.9c-0.7,3.4-1.4,6.9-2,10.4c-0.6,3.5-1.1,7-1.5,10.4l0,0.1
				c-0.3,2.2-2.2,3.7-4.4,3.4c-2.1-0.3-3.6-2.1-3.4-4.1c0.2-3.7,0.5-7.3,0.9-10.9c0.4-3.6,0.8-7.2,1.4-10.9
				c1.1-7.2,2.5-14.5,4.8-21.8c0.9-2.8,3.8-4.3,6.6-3.4c2.8,0.9,4.3,3.8,3.4,6.6C112.6,294.7,112.6,294.8,112.5,294.9L112.5,294.9z"
				/>
		</g>
	</g>
	<polygon class="st7" points="130.3,291.8 107.6,291.8 105.4,274.7 132.5,274.7 	"/>
	<radialGradient id="SVGID_35_" cx="118.1832" cy="288.5042" r="16.839" gradientUnits="userSpaceOnUse">
		<stop  offset="0.1534" style="stop-color:#FFFFFF"/>
		<stop  offset="0.4635" style="stop-color:#FDFEFF"/>
		<stop  offset="0.636" style="stop-color:#F5FBFF"/>
		<stop  offset="0.7747" style="stop-color:#E7F5FF"/>
		<stop  offset="0.8947" style="stop-color:#D3ECFF"/>
		<stop  offset="1" style="stop-color:#BBE2FF"/>
	</radialGradient>
	<path class="st56" d="M118.8,304.9L118.8,304.9c-9.8,0-17.7-7.4-17.7-16.6l0,0c0-1.7,1.5-3.1,3.3-3.1h14h14.8
		c1.8,0,3.3,1.4,3.3,3.1l0,0C136.5,297.4,128.6,304.9,118.8,304.9z"/>
	<path class="st9" d="M118.4,292c-4.3,0-7.9,3.5-7.9,7.9v3.1c0.4,0.2,0.8,0.4,1.2,0.5v-3.6c0-3.7,3-6.7,6.7-6.7c3.7,0,6.7,3,6.7,6.7
		v3.9c0.4-0.1,0.8-0.3,1.2-0.5v-3.4C126.3,295.5,122.7,292,118.4,292z"/>
	<path class="st9" d="M132.6,285.1h-0.5c-1,5.1-5.3,21-20.7,17.7c2.2,0.9,4.6,1.5,7.2,1.5c9.5,0,17.2-7.2,17.2-16.1
		C135.8,286.5,134.4,285.1,132.6,285.1z"/>
	
		<radialGradient id="SVGID_36_" cx="118.5544" cy="279.7225" r="40.1978" gradientTransform="matrix(1 0 0 0.8124 0 20.1122)" gradientUnits="userSpaceOnUse">
		<stop  offset="0.1534" style="stop-color:#FFFFFF"/>
		<stop  offset="0.4635" style="stop-color:#FDFEFF"/>
		<stop  offset="0.636" style="stop-color:#F5FBFF"/>
		<stop  offset="0.7747" style="stop-color:#E7F5FF"/>
		<stop  offset="0.8947" style="stop-color:#D3ECFF"/>
		<stop  offset="1" style="stop-color:#BBE2FF"/>
	</radialGradient>
	<path class="st57" d="M155.3,243.7c0,15.6-16.6,36.5-37,36.5c-20.4,0-37-20.9-37-36.5s16.6-19.9,37-19.9
		C138.8,223.8,155.3,228.1,155.3,243.7z"/>
	<path class="st9" d="M83,250c3.5,12.6,17.9,27.7,35.1,27.7c17.4,0,31.8-15.3,35.1-28c-11.7,13.1-23.8,15.5-35.1,15.3
		C104.6,264.8,92.3,260,83,250z"/>
	<path class="st9" d="M118.5,222.2c-4.9,0-9.5,1.3-13.3,3.7c1.4,4.8,5.9,10.7,13.7,10.7c8.2,0,12-5.7,13.6-10.3
		C128.5,223.7,123.7,222.2,118.5,222.2z"/>
	<path class="st7" d="M106.9,224.9c0,0.2,0,0.3,0,0.5c0,4.2,5.4,9.8,12,9.8c6.6,0,12-5.7,12-9.8c0,0,0,0,0,0
		c-3.6-2.1-7.9-3.2-12.4-3.2C114.3,222.2,110.4,223.1,106.9,224.9z"/>
	<path class="st9" d="M131.6,225.2c-1.7-0.4-3.4-0.7-5.2-0.9l0,0.2c3.6,0.3,7,3.7,9.4,9.3c4.8,11.3,5.1,33.3-9.1,45.2
		c1.3-0.4,2.5-0.8,3.7-1.3c12.4-12.8,11.9-33.1,7.1-44.4C135.9,229.7,133.9,226.9,131.6,225.2z"/>
	<g>
		<radialGradient id="SVGID_37_" cx="95.1342" cy="352.6656" r="20.849" gradientUnits="userSpaceOnUse">
			<stop  offset="0.1534" style="stop-color:#FFFFFF"/>
			<stop  offset="0.4635" style="stop-color:#FDFEFF"/>
			<stop  offset="0.636" style="stop-color:#F5FBFF"/>
			<stop  offset="0.7747" style="stop-color:#E7F5FF"/>
			<stop  offset="0.8947" style="stop-color:#D3ECFF"/>
			<stop  offset="1" style="stop-color:#BBE2FF"/>
		</radialGradient>
		<path class="st58" d="M108.2,375.1c-3.9,4.6-21.2,4.6-25.6,0c-4.9-5,2.8-43.6,8.5-48c3-2.3,15,6.3,15.6,10
			C109.5,356.5,109.9,373.1,108.2,375.1z"/>
		<path class="st9" d="M81.1,370.4c0.2,2.3,0.6,3.9,1.4,4.7c3.5,3.6,14.9,4.3,21.6,2.3c5.7-11.2,2.5-35.6,1.5-42.2
			c-0.6-0.9-1.6-1.8-2.6-2.8c3.4,17.5-0.2,39-7.7,36.3C86.8,365.6,81.3,370.3,81.1,370.4z"/>
		<path class="st9" d="M101.1,332.4c0.1-0.4,0.2-0.8,0.3-1.3c-3.8-2.9-8.6-5.3-10.3-3.9c-1,0.8-2.1,2.7-3.1,5.2
			c0,3.6,1.3,6.6,3.6,7.6C95,341.4,99.2,338,101.1,332.4z"/>
		<radialGradient id="SVGID_38_" cx="93.5702" cy="330.446" r="7.2467" gradientUnits="userSpaceOnUse">
			<stop  offset="0.1534" style="stop-color:#FFFFFF"/>
			<stop  offset="0.4635" style="stop-color:#FDFEFF"/>
			<stop  offset="0.636" style="stop-color:#F5FBFF"/>
			<stop  offset="0.7747" style="stop-color:#E7F5FF"/>
			<stop  offset="0.8947" style="stop-color:#D3ECFF"/>
			<stop  offset="1" style="stop-color:#BBE2FF"/>
		</radialGradient>
		<path class="st59" d="M98.6,332.6c-1.5,4.6-4.9,7.3-7.7,6.1c-2.8-1.2-3.8-5.8-2.3-10.4c1.5-4.6,4.9-7.3,7.7-6.1
			C99,323.4,100,328,98.6,332.6z"/>
		<radialGradient id="SVGID_39_" cx="89.8482" cy="379.3105" r="14.6729" gradientUnits="userSpaceOnUse">
			<stop  offset="0.1534" style="stop-color:#FFFFFF"/>
			<stop  offset="0.4635" style="stop-color:#FDFEFF"/>
			<stop  offset="0.636" style="stop-color:#F5FBFF"/>
			<stop  offset="0.7747" style="stop-color:#E7F5FF"/>
			<stop  offset="0.8947" style="stop-color:#D3ECFF"/>
			<stop  offset="1" style="stop-color:#BBE2FF"/>
		</radialGradient>
		<path class="st60" d="M108.5,382.7c0.4,6.8,0.3,5.4-18.4,5.4c-10.4,0-18.7,0.5-19-3.2c-0.2-3.4,7.5-14.4,17.9-14.4
			C99.3,370.4,108.1,375.9,108.5,382.7z"/>
		<path class="st9" d="M71.9,384.3c0-0.7,0.3-1.7,0.9-2.9c-0.4,1.9,0.2,4.3,12.1,4.6c11.9,0.3,17.5-7.1,17-12c0,0,0,0,0,0l2.5,1.9
			c2,1.8,3.2,4.1,3.3,6.4c0.4,6.5,0.3,5.1-17.6,5.1C80.2,387.4,72.1,387.9,71.9,384.3z"/>
		<path class="st7" d="M109.9,374.3c-0.1,4.8-2.3,8.4-4.8,8.2c-2.5-0.2-4.5-4.3-4.4-9.1c0.1-4.8,2.3-8.4,4.8-8.2
			C108,365.5,110,369.6,109.9,374.3z"/>
	</g>
	<g>
		<radialGradient id="SVGID_40_" cx="140.2541" cy="352.6656" r="20.849" gradientUnits="userSpaceOnUse">
			<stop  offset="0.1534" style="stop-color:#FFFFFF"/>
			<stop  offset="0.4635" style="stop-color:#FDFEFF"/>
			<stop  offset="0.636" style="stop-color:#F5FBFF"/>
			<stop  offset="0.7747" style="stop-color:#E7F5FF"/>
			<stop  offset="0.8947" style="stop-color:#D3ECFF"/>
			<stop  offset="1" style="stop-color:#BBE2FF"/>
		</radialGradient>
		<path class="st61" d="M127.2,375.1c3.9,4.6,21.2,4.6,25.6,0c4.9-5-2.8-43.6-8.5-48c-3-2.3-15,6.3-15.6,10
			C125.9,356.5,125.5,373.1,127.2,375.1z"/>
		<path class="st9" d="M154.2,370.4c-0.2,2.3-0.6,3.9-1.4,4.7c-3.5,3.6-14.9,4.3-21.6,2.3c-5.7-11.2-2.5-35.6-1.5-42.2
			c0.6-0.9,1.6-1.8,2.6-2.8c-3.4,17.5,0,38.1,7.7,36.3C149.7,366.5,154.1,370.3,154.2,370.4z"/>
		<path class="st9" d="M134.3,332.4c-0.1-0.4-0.2-0.8-0.3-1.3c3.8-2.9,8.6-5.3,10.3-3.9c1,0.8,2.1,2.7,3.1,5.2
			c0,3.6-1.3,6.6-3.6,7.6C140.4,341.4,136.2,338,134.3,332.4z"/>
		<radialGradient id="SVGID_41_" cx="141.818" cy="330.446" r="7.2467" gradientUnits="userSpaceOnUse">
			<stop  offset="0.1534" style="stop-color:#FFFFFF"/>
			<stop  offset="0.4635" style="stop-color:#FDFEFF"/>
			<stop  offset="0.636" style="stop-color:#F5FBFF"/>
			<stop  offset="0.7747" style="stop-color:#E7F5FF"/>
			<stop  offset="0.8947" style="stop-color:#D3ECFF"/>
			<stop  offset="1" style="stop-color:#BBE2FF"/>
		</radialGradient>
		<path class="st62" d="M136.8,332.6c1.5,4.6,4.9,7.3,7.7,6.1c2.8-1.2,3.8-5.8,2.3-10.4c-1.5-4.6-4.9-7.3-7.7-6.1
			C136.4,323.4,135.3,328,136.8,332.6z"/>
		<radialGradient id="SVGID_42_" cx="145.5401" cy="379.3105" r="14.673" gradientUnits="userSpaceOnUse">
			<stop  offset="0.1534" style="stop-color:#FFFFFF"/>
			<stop  offset="0.4635" style="stop-color:#FDFEFF"/>
			<stop  offset="0.636" style="stop-color:#F5FBFF"/>
			<stop  offset="0.7747" style="stop-color:#E7F5FF"/>
			<stop  offset="0.8947" style="stop-color:#D3ECFF"/>
			<stop  offset="1" style="stop-color:#BBE2FF"/>
		</radialGradient>
		<path class="st63" d="M126.9,382.7c-0.4,6.8-0.3,5.4,18.4,5.4c10.4,0,18.7,0.5,19-3.2c0.2-3.4-7.5-14.4-17.9-14.4
			C136.1,370.4,127.3,375.9,126.9,382.7z"/>
		<path class="st9" d="M163.6,384.3c0-0.7-0.3-1.7-0.9-2.9c0.4,1.9-0.2,4.3-12.1,4.6c-11.9,0.3-17.5-7.1-17-12c0,0,0,0,0,0l-2.5,1.9
			c-2,1.8-3.2,4.1-3.3,6.4c-0.4,6.5-0.3,5.1,17.6,5.1C155.4,387.4,163.4,387.9,163.6,384.3z"/>
		<path class="st7" d="M124.9,374.7c0.1,4.8,2.3,8.4,4.8,8.2c2.5-0.2,4.5-4.3,4.4-9.1c-0.1-4.8-2.3-8.4-4.8-8.2
			C126.8,365.9,124.8,369.9,124.9,374.7z"/>
	</g>
	
		<ellipse transform="matrix(0.196 -0.9806 0.9806 0.196 41.5322 322.2697)" class="st7" cx="217.3" cy="135.8" rx="53.6" ry="25.7"/>
	<path class="st4" d="M222.7,182.2c1.4-1.3,2.8-2.8,4.1-4.5l15-78c-0.6-2-1.4-3.9-2.2-5.6L222.7,182.2z"/>
	<path class="st7" d="M1.8,129c2.3,29.5,15.9,52.8,30.2,52.1c14.3-0.7,24-25.2,21.7-54.7c-2.3-29.5-15.9-52.8-30.2-52.1
		C9.1,75-0.6,99.5,1.8,129"/>
	<path class="st4" d="M7.2,88.9l6.3,79.2c1.2,1.8,2.4,3.5,3.7,5L10,83.6C9,85.2,8,87,7.2,88.9z"/>
	
		<radialGradient id="SVGID_43_" cx="673.5602" cy="1169.5251" r="586.9807" gradientTransform="matrix(0.2515 1.080000e-02 -1.060000e-02 0.2468 -31.1366 -195.4365)" gradientUnits="userSpaceOnUse">
		<stop  offset="0.1534" style="stop-color:#FFFFFF"/>
		<stop  offset="0.4635" style="stop-color:#FDFEFF"/>
		<stop  offset="0.636" style="stop-color:#F5FBFF"/>
		<stop  offset="0.7747" style="stop-color:#E7F5FF"/>
		<stop  offset="0.8947" style="stop-color:#D3ECFF"/>
		<stop  offset="1" style="stop-color:#BBE2FF"/>
	</radialGradient>
	<path class="st64" d="M231.1,89.4c2-46-43.9-85.3-102.5-87.8C70-0.9,21,34.3,19,80.3c-0.1,1.3-0.1,2.5,0,3.8l-0.1,0l0.1,1.6
		c0.1,1.9,0.2,3.8,0.5,5.7l3.6,44l3.3,39.1c1,12.6,7.8,24.1,18.4,31.3c18.7,12.8,44.9,21.3,74.1,22.5c27.9,1.2,53.6-4.4,73-14.6
		c11.5-6,19.5-16.9,21.9-29.5l15.5-81.9c0.7-3,1.2-6,1.6-9l0-0.1l0,0C231,92,231.1,90.7,231.1,89.4z"/>
	<path class="st9" d="M225.3,63.2c2.3,18.7-12.7,73.3-16.5,99.9c-4.1,29.1-15.4,59-89.8,55.8c-74.4-3.2-90-37.2-90-37.2
		c2.7,9,8.5,16.9,16.5,22.4c18.4,12.6,44.3,21,73.2,22.3c27.6,1.2,52.9-4.4,72.1-14.4c11.3-5.9,19.2-16.7,21.6-29.1l15.3-81
		c0.7-2.9,1.2-5.9,1.5-8.9l0-0.1l0,0c0.1-1.2,0.2-2.5,0.3-3.8C229.8,80.1,228.3,71.4,225.3,63.2z"/>
	<g class="st18">
		<path class="st9" d="M126.5,50.5C110.7,49.8,98.3,36.6,99,21l0.8-17.5l1.5-0.3l-0.8,17.9c-0.6,14.8,11.1,27.3,26.2,28
			c15.1,0.6,27.8-10.8,28.5-25.6l0.8-17.9l1.4,0.4l-0.8,17.5C155.9,39,142.4,51.2,126.5,50.5z"/>
	</g>
	<g class="st18">
		<path class="st9" d="M185.6,216.8C190.1,178.7,201,88,205,71.9c4.5-17.9,14.9-21.9,15.4-22.1l0.8,1.3l-0.2,0
			c-0.1,0-10.3,4.1-14.6,21.1c-4,15.9-14.8,105.5-19.3,143.8L185.6,216.8z"/>
	</g>
	<g class="st18">
		<path class="st9" d="M50.5,209.5c-1.2-38.1-4.2-128-6.9-144.2C40.7,47.9,32,43.6,31.9,43.6c0,0-0.1-0.1-0.1-0.1l0.9-1.2
			c1.2,0.6,9.6,5.5,12.4,22.7c2.7,16.3,5.7,107.1,6.9,145.2L50.5,209.5z"/>
	</g>
	<g>
		<path class="st7" d="M67.7,101.5c-17.3-0.7-31.3,13.8-29.9,31v0l3.2,39.8c0.7,8.5,5.2,16.3,12.2,21.1c17.2,12,40.8,19.2,66.3,20.2
			c24.3,1,47.6-3.6,65.5-13.2c7.6-4,12.8-11.3,14.4-19.8l7.5-40.4c3.2-17.2-9.6-33.2-27-34L67.7,101.5z"/>
		<path class="st9" d="M119.5,215.2c-25.8-1.1-49.7-8.4-67.1-20.5c-7.4-5.1-12.1-13.2-12.8-22.2l-3.2-39.8
			c-0.7-8.6,2.4-17.1,8.4-23.4c6-6.2,14.4-9.6,23.1-9.2l112.3,4.8c8.7,0.4,16.9,4.5,22.3,11.4c5.5,6.9,7.7,15.7,6.1,24.3l-7.5,40.4
			c-1.7,9-7.2,16.6-15.2,20.8C167.6,211.5,144.1,216.2,119.5,215.2z M67.6,103c-7.8-0.3-15.4,2.7-20.8,8.3
			c-5.4,5.6-8.2,13.3-7.5,21.1l3.2,39.8c0.7,8.1,4.9,15.4,11.6,20c17,11.8,40.3,18.9,65.6,20c24.1,1,47.1-3.6,64.8-13
			c7.2-3.8,12.1-10.7,13.7-18.8l7.5-40.4c1.4-7.8-0.5-15.8-5.5-22c-4.9-6.2-12.3-9.9-20.2-10.3L67.6,103z"/>
	</g>
	
		<rect x="72.1" y="148.4" transform="matrix(0.9991 4.283547e-02 -4.283547e-02 0.9991 6.5245 -3.0482)" class="st4" width="4.7" height="4.7"/>
	
		<rect x="76.7" y="148.6" transform="matrix(0.9991 4.286727e-02 -4.286727e-02 0.9991 6.5422 -3.2494)" class="st4" width="4.7" height="4.7"/>
	
		<rect x="81.4" y="148.8" transform="matrix(0.9991 4.286546e-02 -4.286546e-02 0.9991 6.5547 -3.4484)" class="st4" width="4.7" height="4.7"/>
	
		<rect x="86" y="149" transform="matrix(0.9991 4.286747e-02 -4.286747e-02 0.9991 6.5678 -3.6476)" class="st4" width="4.7" height="4.7"/>
	
		<rect x="71.9" y="153" transform="matrix(0.9991 4.286572e-02 -4.286572e-02 0.9991 6.7282 -3.0375)" class="st4" width="4.7" height="4.7"/>
	
		<rect x="76.5" y="153.2" transform="matrix(0.9991 4.286727e-02 -4.286727e-02 0.9991 6.7412 -3.2366)" class="st4" width="4.7" height="4.7"/>
	<polyline class="st4" points="83.9,158.1 81.1,158 81.3,153.3 85.9,153.5 85.7,158.2 83.9,158.1 	"/>
	
		<rect x="85.8" y="153.6" transform="matrix(0.9991 4.286721e-02 -4.286721e-02 0.9991 6.7669 -3.6348)" class="st4" width="4.7" height="4.7"/>
	
		<rect x="71.7" y="157.7" transform="matrix(0.9991 4.286598e-02 -4.286598e-02 0.9991 6.9273 -3.0247)" class="st4" width="4.7" height="4.7"/>
	
		<rect x="76.3" y="157.9" transform="matrix(0.9991 4.286727e-02 -4.286727e-02 0.9991 6.9403 -3.2238)" class="st4" width="4.7" height="4.7"/>
	
		<rect x="81" y="158.1" transform="matrix(0.9991 4.286701e-02 -4.286701e-02 0.9991 6.9531 -3.4229)" class="st4" width="4.7" height="4.7"/>
	
		<rect x="85.6" y="158.3" transform="matrix(0.9991 4.286572e-02 -4.286572e-02 0.9991 6.9657 -3.6218)" class="st4" width="4.7" height="4.7"/>
	
		<rect x="71.5" y="162.3" transform="matrix(0.9991 4.286565e-02 -4.286565e-02 0.9991 7.1263 -3.0118)" class="st4" width="4.7" height="4.7"/>
	
		<rect x="76.1" y="162.5" transform="matrix(0.9991 4.283709e-02 -4.283709e-02 0.9991 7.1343 -3.2088)" class="st4" width="4.7" height="4.7"/>
	
		<rect x="80.8" y="162.7" transform="matrix(0.9991 4.286701e-02 -4.286701e-02 0.9991 7.1521 -3.41)" class="st4" width="4.7" height="4.7"/>
	
		<rect x="85.4" y="162.9" transform="matrix(0.9991 4.286598e-02 -4.286598e-02 0.9991 7.1648 -3.609)" class="st4" width="4.7" height="4.7"/>
	
		<rect x="75.9" y="167.2" transform="matrix(0.9991 4.286727e-02 -4.286727e-02 0.9991 7.3384 -3.1982)" class="st4" width="4.7" height="4.7"/>
	
		<rect x="80.6" y="167.4" transform="matrix(0.9991 4.286695e-02 -4.286695e-02 0.9991 7.3512 -3.3972)" class="st4" width="4.7" height="4.7"/>
	
		<rect x="76.9" y="143.9" transform="matrix(0.9991 4.286727e-02 -4.286727e-02 0.9991 6.3431 -3.2623)" class="st4" width="4.7" height="4.7"/>
	
		<rect x="81.6" y="144.1" transform="matrix(0.9991 4.286565e-02 -4.286565e-02 0.9991 6.3557 -3.4612)" class="st4" width="4.7" height="4.7"/>
	
		<rect x="110.7" y="173.3" transform="matrix(0.9991 4.286753e-02 -4.286753e-02 0.9991 7.6339 -4.6853)" class="st4" width="4.7" height="4.7"/>
	
		<rect x="124.5" y="178.6" transform="matrix(0.9991 4.286572e-02 -4.286572e-02 0.9991 7.8711 -5.2695)" class="st4" width="4.7" height="4.7"/>
	
		<rect x="115.2" y="178.2" transform="matrix(0.9991 4.286572e-02 -4.286572e-02 0.9991 7.8455 -4.8713)" class="st4" width="4.7" height="4.7"/>
	
		<rect x="119.8" y="178.4" transform="matrix(0.9991 4.286727e-02 -4.286727e-02 0.9991 7.8586 -5.0706)" class="st4" width="4.7" height="4.7"/>
	
		<rect x="153.9" y="149.6" transform="matrix(0.9991 4.286572e-02 -4.286572e-02 0.9991 6.6549 -6.5556)" class="st4" width="4.7" height="4.7"/>
	
		<rect x="158.5" y="149.8" transform="matrix(0.9991 4.286727e-02 -4.286727e-02 0.9991 6.668 -6.7549)" class="st4" width="4.7" height="4.7"/>
	
		<rect x="163.2" y="150" transform="matrix(0.9991 4.286572e-02 -4.286572e-02 0.9991 6.6806 -6.9537)" class="st4" width="4.7" height="4.7"/>
	
		<rect x="167.8" y="150.2" transform="matrix(0.9991 4.286727e-02 -4.286727e-02 0.9991 6.6936 -7.153)" class="st4" width="4.7" height="4.7"/>
	
		<rect x="153.7" y="154.2" transform="matrix(0.9991 4.282968e-02 -4.282968e-02 0.9991 6.8481 -6.5374)" class="st4" width="4.7" height="4.7"/>
	
		<rect x="158.3" y="154.4" transform="matrix(0.9991 4.287332e-02 -4.287332e-02 0.9991 6.8681 -6.743)" class="st4" width="4.7" height="4.7"/>
	<polyline class="st4" points="165.7,159.3 162.9,159.2 163.1,154.5 167.7,154.7 167.5,159.4 165.7,159.3 	"/>
	
		<rect x="167.6" y="154.8" transform="matrix(0.9991 4.286572e-02 -4.286572e-02 0.9991 6.8925 -7.1399)" class="st4" width="4.7" height="4.7"/>
	
		<rect x="153.5" y="158.9" transform="matrix(0.9991 4.286572e-02 -4.286572e-02 0.9991 7.053 -6.5299)" class="st4" width="4.7" height="4.7"/>
	
		<rect x="158.1" y="159.1" transform="matrix(0.9991 4.286727e-02 -4.286727e-02 0.9991 7.0661 -6.7292)" class="st4" width="4.7" height="4.7"/>
	
		<rect x="162.8" y="159.3" transform="matrix(0.9991 4.286701e-02 -4.286701e-02 0.9991 7.0789 -6.9283)" class="st4" width="4.7" height="4.7"/>
	
		<rect x="167.4" y="159.5" transform="matrix(0.9991 4.286597e-02 -4.286597e-02 0.9991 7.0916 -7.1272)" class="st4" width="4.7" height="4.7"/>
	
		<rect x="153.3" y="163.5" transform="matrix(0.9991 4.286572e-02 -4.286572e-02 0.9991 7.2521 -6.5171)" class="st4" width="4.7" height="4.7"/>
	
		<rect x="157.9" y="163.7" transform="matrix(0.9991 4.286727e-02 -4.286727e-02 0.9991 7.2652 -6.7164)" class="st4" width="4.7" height="4.7"/>
	
		<rect x="162.6" y="163.9" transform="matrix(0.9991 4.286701e-02 -4.286701e-02 0.9991 7.278 -6.9154)" class="st4" width="4.7" height="4.7"/>
	
		<rect x="167.2" y="164.1" transform="matrix(0.9991 4.286597e-02 -4.286597e-02 0.9991 7.2906 -7.1143)" class="st4" width="4.7" height="4.7"/>
	
		<rect x="157.7" y="168.4" transform="matrix(0.9991 4.283702e-02 -4.283702e-02 0.9991 7.4589 -6.699)" class="st4" width="4.7" height="4.7"/>
	
		<rect x="162.4" y="168.6" transform="matrix(0.9991 4.286701e-02 -4.286701e-02 0.9991 7.477 -6.9026)" class="st4" width="4.7" height="4.7"/>
	
		<rect x="158.7" y="145.1" transform="matrix(0.9991 4.286727e-02 -4.286727e-02 0.9991 6.4689 -6.7677)" class="st4" width="4.7" height="4.7"/>
	
		<rect x="163.4" y="145.3" transform="matrix(0.9991 4.286546e-02 -4.286546e-02 0.9991 6.4815 -6.9665)" class="st4" width="4.7" height="4.7"/>
	
		<rect x="129.3" y="174.1" transform="matrix(0.9991 4.286597e-02 -4.286597e-02 0.9991 7.6847 -5.4812)" class="st4" width="4.7" height="4.7"/>
	<circle class="st9" cx="139.2" cy="251.7" r="5.9"/>
	<path class="st4" d="M139.2,256c-2.4,0-4.3-1.9-4.3-4.3c0-2.4,1.9-4.3,4.3-4.3c2.4,0,4.3,1.9,4.3,4.3
		C143.5,254.1,141.6,256,139.2,256z"/>
	<g>
		
			<radialGradient id="SVGID_44_" cx="243.0776" cy="196.3048" r="35.7559" gradientTransform="matrix(-0.9138 0.3912 -0.3912 -0.9137 378.3503 337.8058)" gradientUnits="userSpaceOnUse">
			<stop  offset="0.1534" style="stop-color:#FFFFFF"/>
			<stop  offset="0.4635" style="stop-color:#FDFEFF"/>
			<stop  offset="0.636" style="stop-color:#F5FBFF"/>
			<stop  offset="0.7747" style="stop-color:#E7F5FF"/>
			<stop  offset="0.8947" style="stop-color:#D3ECFF"/>
			<stop  offset="1" style="stop-color:#BBE2FF"/>
		</radialGradient>
		<path class="st65" d="M66.9,283.8c-1.9-5.3,6-16.3,14-18.2c10.5-2.5,22.9-4.7,27.6-5.5c1.1-0.2,2.1,0.4,2.6,1.4l2,4.4
			c0.4,1,0.2,2.1-0.6,2.8c-7.6,6.3-16.4,12.9-22.3,17.7C84.3,291,69.5,291,66.9,283.8z"/>
		<path class="st9" d="M111.6,268c-7.6,6.2-16.4,12.6-22.4,17.3c-4.5,3.5-14.2,4.4-19.4,1.4c1.6-0.7,15.1,2.1,42-22.4l0.4,1
			C112.7,266.2,112.4,267.3,111.6,268z"/>
	</g>
	<path class="st7" d="M120.4,263.6c-2.1-0.6-3.6-2-3.2-3.2c0.3-1.2,2.3-1.7,4.4-1.2c2.1,0.6,3.6,2,3.2,3.2
		C124.5,263.6,122.5,264.2,120.4,263.6z"/>
	<g>
		
			<linearGradient id="SVGID_45_" gradientUnits="userSpaceOnUse" x1="117.7838" y1="232.4325" x2="117.7838" y2="237.05" gradientTransform="matrix(0.6797 0.5216 -0.4205 0.5467 134.1562 63.3676)">
			<stop  offset="0" style="stop-color:#0D0D0D"/>
			<stop  offset="0.5106" style="stop-color:#404040"/>
			<stop  offset="1" style="stop-color:#0D0D0D"/>
		</linearGradient>
		<path class="st66" d="M104.4,242.9c-0.5-0.4-1.3-0.3-1.7,0.2c-0.4,0.5-0.3,1.3,0.2,1.7l24.6,19.3l1.9-2.4L104.4,242.9z"/>
		
			<linearGradient id="SVGID_46_" gradientUnits="userSpaceOnUse" x1="140.1428" y1="232.4324" x2="140.1428" y2="237.0501" gradientTransform="matrix(0.6797 0.5216 -0.4205 0.5467 134.1562 63.3676)">
			<stop  offset="0" style="stop-color:#0D0D0D"/>
			<stop  offset="0.5106" style="stop-color:#262626"/>
			<stop  offset="1" style="stop-color:#0D0D0D"/>
		</linearGradient>
		<path class="st67" d="M129.4,261.7l-1.9,2.4c0.8,0.6,5.6,2.3,5.6,2.3S130.2,262.3,129.4,261.7z"/>
	</g>
	<path class="st7" d="M121.3,258.5c0.8,3.4,0,5.3-2.4,7.1c-3.3,2.5-8.6-4-9.5-7.4c-0.8-3.4,1.4-6.1,4.3-6.8
		C116.7,250.7,120.5,255.1,121.3,258.5z"/>
	<path class="st7" d="M117.7,259.1c1,4-0.6,7.9-3.5,8.6c-2.9,0.7-6-1.5-7-5.6c-1-4,3-9.8,5.9-10.5
		C116,250.9,116.7,255.1,117.7,259.1z"/>
	<path class="st7" d="M125.5,259.1c-2.2,1.5-4.5-1.7-7.6-3.1c-3.1-1.3-6.3-1.9-5.6-3.4c0.7-1.5,4.9-2,7.8-0.4
		C123.5,254.2,127.4,257.8,125.5,259.1z"/>
	<g>
		<linearGradient id="SVGID_47_" gradientUnits="userSpaceOnUse" x1="142.1241" y1="265.8174" x2="128.3762" y2="260.4998">
			<stop  offset="0" style="stop-color:#95CEF9"/>
			<stop  offset="7.890722e-02" style="stop-color:#8FC6EF"/>
			<stop  offset="0.2128" style="stop-color:#7FB0D4"/>
			<stop  offset="0.3855" style="stop-color:#658CA9"/>
			<stop  offset="0.5902" style="stop-color:#415A6C"/>
			<stop  offset="0.8194" style="stop-color:#131B20"/>
			<stop  offset="0.9101" style="stop-color:#000000"/>
		</linearGradient>
		<polygon class="st68" points="144,255.1 132.4,226.3 132.4,226.3 109.2,288.8 127,291.8 149.3,290.3 		"/>
		<linearGradient id="SVGID_48_" gradientUnits="userSpaceOnUse" x1="151.7659" y1="252.8642" x2="150.7552" y2="227.2597">
			<stop  offset="0" style="stop-color:#41A4FE"/>
			<stop  offset="7.773137e-02" style="stop-color:#3E9EF4"/>
			<stop  offset="0.2097" style="stop-color:#388CD9"/>
			<stop  offset="0.3797" style="stop-color:#2C70AE"/>
			<stop  offset="0.5813" style="stop-color:#1D4971"/>
			<stop  offset="0.807" style="stop-color:#0A1825"/>
			<stop  offset="0.9101" style="stop-color:#000000"/>
		</linearGradient>
		<polygon class="st69" points="169.1,250.6 144,255.1 131.6,225.2 169.5,220.5 		"/>
		<path class="st7" d="M147.6,293h-19.7c-3-0.2-4.3-3.4-3.6-5.4l13.5-37.7c0.8-2.2,2.9-3.5,5.3-3.6l23.3-0.1
			c2.9-0.1,5.6,2.6,3.9,5.5l-18,38.5C151.5,291.9,149.6,293,147.6,293z"/>
		<linearGradient id="SVGID_49_" gradientUnits="userSpaceOnUse" x1="153.9974" y1="290.9754" x2="144.2758" y2="258.0935">
			<stop  offset="0" style="stop-color:#A4CFC9"/>
			<stop  offset="6.769141e-02" style="stop-color:#BADBD6"/>
			<stop  offset="0.1667" style="stop-color:#D3E8E5"/>
			<stop  offset="0.2773" style="stop-color:#E7F2F1"/>
			<stop  offset="0.4044" style="stop-color:#F5F9F9"/>
			<stop  offset="0.5625" style="stop-color:#FDFEFE"/>
			<stop  offset="0.8466" style="stop-color:#FFFFFF"/>
		</linearGradient>
		<path class="st70" d="M147.9,293h-20c-2.3,0-3.5-1.6-2.8-3.5l13.6-37.7c0.8-2.2,2.8-3.6,5.1-3.7l24.7-0.1c2.3,0.2,2.8,1.5,1.4,4.8
			l-17.6,37.5C151.7,292,149.9,293,147.9,293z"/>
		<path class="st7" d="M143.8,250c0.1,0,0.3-0.1,0.4-0.1c1.6-0.1,2.5,1.6,1.9,2.9l-1.8,4.3c-0.4,1-1.4,1.8-2.4,2.1
			c-1.7,0.4-2.9-0.9-2.3-2.5c0,0,1.7-4.4,1.7-4.5C141.7,251.2,142.7,250.3,143.8,250z"/>
		<g>
			<path class="st71" d="M143.2,254.4c-0.5,0-0.8-0.2-1.1-0.5c-0.2-0.3-0.2-0.7-0.1-1.1c0.3-0.8,1.2-1.5,2.1-1.5c0,0,0,0,0,0
				c0.5,0,0.9,0.2,1.1,0.5c0.2,0.3,0.2,0.7,0.1,1.1C145,253.7,144.1,254.3,143.2,254.4L143.2,254.4z"/>
			<path class="st7" d="M145.1,252.8c-0.3,0.7-1.1,1.3-1.8,1.3c-0.8,0-1.2-0.5-0.9-1.2c0.2-0.7,1.1-1.3,1.8-1.3
				C144.9,251.5,145.3,252.1,145.1,252.8z"/>
			<path class="st72" d="M143.2,253.8c-0.3,0-0.5-0.1-0.6-0.2c-0.1-0.1-0.1-0.4,0-0.6c0.2-0.6,0.9-1.1,1.6-1.1c0,0,0,0,0,0
				c0.3,0,0.5,0.1,0.6,0.2c0.1,0.1,0.1,0.4,0,0.6C144.6,253.3,143.9,253.8,143.2,253.8L143.2,253.8z"/>
			<path class="st7" d="M143.2,253.4c-0.2,0-0.2,0-0.3-0.1c0,0,0-0.1,0-0.2c0.1-0.4,0.7-0.8,1.2-0.8c0.2,0,0.3,0,0.3,0.1
				c0,0,0,0.1,0,0.2C144.2,253,143.7,253.4,143.2,253.4L143.2,253.4z"/>
			<path class="st73" d="M143.1,252.8c0.2-0.3,0.6-0.5,0.9-0.5C143.8,252.5,143.4,252.8,143.1,252.8z"/>
			<path class="st71" d="M142,257.6c-0.5,0-0.8-0.2-1-0.4c-0.2-0.3-0.2-0.7-0.1-1.1c0.3-0.8,1.2-1.4,2.1-1.5c0,0,0,0,0,0
				c0.5,0,0.9,0.2,1.1,0.5c0.2,0.3,0.2,0.7,0.1,1.1C143.8,257,142.9,257.6,142,257.6L142,257.6z"/>
			<path class="st7" d="M143.8,256.1c-0.2,0.7-1.1,1.2-1.8,1.3c-0.8,0-1.2-0.5-0.9-1.2c0.2-0.7,1-1.2,1.8-1.3
				C143.7,254.9,144.1,255.4,143.8,256.1z"/>
			<path class="st72" d="M142,257.1c-0.3,0-0.5-0.1-0.6-0.2c-0.1-0.1-0.1-0.3,0-0.6c0.2-0.6,0.9-1.1,1.5-1.1c0,0,0,0,0,0
				c0.3,0,0.5,0.1,0.6,0.2c0.1,0.1,0.1,0.3,0,0.6C143.4,256.6,142.7,257.1,142,257.1L142,257.1z"/>
			<path class="st7" d="M142,256.7c-0.2,0-0.2,0-0.3-0.1c0,0,0-0.1,0-0.2c0.1-0.4,0.7-0.8,1.2-0.8c0.2,0,0.3,0,0.3,0.1
				c0,0,0,0.1,0,0.2C143,256.3,142.5,256.7,142,256.7L142,256.7z"/>
			<path class="st73" d="M141.9,256.1c0.2-0.3,0.5-0.5,0.8-0.5C142.6,255.8,142.2,256.1,141.9,256.1z"/>
		</g>
		<path class="st74" d="M143.6,290.3l-7,0c-0.4,0-0.8-0.3-0.7-0.7h0c0-0.4,0.4-0.7,0.9-0.7l7,0c0.4,0,0.8,0.3,0.7,0.7l0,0
			C144.4,290,144,290.3,143.6,290.3z"/>
		<path class="st9" d="M125.8,292.4c0.6,0.5,1.9,0.6,2.7,0.6h19.3c2,0,3.8-1.1,4.5-2.7l16.2-34.5L125.8,292.4z"/>
	</g>
	<path class="st7" d="M164.2,278.4c-1.9,4.1-5.9,6.2-8.9,4.8c-3-1.4-4-5.9-2.1-9.9c1.9-4.1,5.9-6.2,8.9-4.8
		C165.2,269.9,166.1,274.3,164.2,278.4z"/>
	<path class="st7" d="M160.4,275.9c-1.9,4.1-1.6,8.9-4.7,7.5c-3-1.4-5.1-6-3.6-10.3c2-5.5,8.4-6.5,10.8-4
		C165.2,271.5,162.3,271.8,160.4,275.9z"/>
</g>
</svg>
