<?xml version="1.0" encoding="utf-8"?>
<!-- Generator: Adobe Illustrator 25.2.3, SVG Export Plug-In . SVG Version: 6.00 Build 0)  -->
<svg version="1.1" id="Layer_1" xmlns="http://www.w3.org/2000/svg" xmlns:xlink="http://www.w3.org/1999/xlink" x="0px" y="0px"
	 viewBox="0 0 291 400" style="enable-background:new 0 0 291 400;" xml:space="preserve">
<style type="text/css">
	.st0{opacity:0.3;}
	.st1{fill:none;stroke:#41A4FE;stroke-width:2.0761;stroke-miterlimit:10;}
	.st2{fill:#41A4FE;}
	.st3{fill:#00FFDC;}
	.st4{fill:#0D0D0D;}
	.st5{fill:url(#SVGID_1_);}
	.st6{fill:#95CEF9;}
	.st7{fill:url(#SVGID_2_);}
	.st8{fill:url(#SVGID_3_);}
	.st9{fill:url(#SVGID_4_);}
	.st10{fill:url(#SVGID_5_);}
	.st11{fill:url(#SVGID_6_);}
	.st12{fill:url(#SVGID_7_);}
	.st13{fill:url(#SVGID_8_);}
	.st14{fill:url(#SVGID_9_);}
	.st15{opacity:0.8;}
	.st16{fill:url(#SVGID_10_);}
	.st17{fill:url(#SVGID_11_);}
	.st18{fill:url(#SVGID_12_);}
	.st19{fill:url(#SVGID_13_);}
	.st20{fill:url(#SVGID_14_);}
</style>
<g>
	<g>
		<g class="st0">
			<ellipse transform="matrix(1.015529e-03 -1 1 1.015529e-03 0.8522 290.7956)" class="st1" cx="146" cy="145" rx="143" ry="143"/>
			<path class="st2" d="M276.2,213.7c0,2.8-2.3,5-5,5c-2.8,0-5-2.3-5-5c0-2.8,2.3-5,5-5C273.9,208.6,276.2,210.9,276.2,213.7z"/>
			<path class="st2" d="M35.5,66.8c0,5-4.1,9.1-9.1,9.1c-5,0-9.1-4.1-9.1-9.1c0-5,4.1-9.1,9.1-9.1C31.5,57.7,35.5,61.8,35.5,66.8z"
				/>
		</g>
		<g>
			
				<ellipse transform="matrix(0.7071 -0.7071 0.7071 0.7071 -59.7561 145.6785)" class="st1" cx="146" cy="145" rx="127.5" ry="127.5"/>
			<circle class="st2" cx="210.6" cy="35" r="7.2"/>
			<path class="st2" d="M55,229c0,2.8-2.3,5-5,5c-2.8,0-5-2.3-5-5c0-2.8,2.3-5,5-5C52.7,223.9,55,226.2,55,229z"/>
		</g>
	</g>
	<ellipse transform="matrix(0.9239 -0.3827 0.3827 0.9239 -24.1718 47.0803)" class="st3" cx="106.3" cy="84.3" rx="5" ry="5"/>
	<g>
		<g>
			<g>
				<path class="st4" d="M119.3,260.4c0,3,0,6,0,9c0,3-0.1,6-0.3,9c-0.1,3-0.3,6-0.6,9c-0.2,1.5-0.3,3.1-0.6,4.6
					c-0.1,0.8-0.3,1.6-0.4,2.4c-0.2,0.8-0.4,1.7-0.6,2.5c-0.6,2.2-2.8,3.5-5,3c-2.1-0.6-3.4-2.7-3-4.8l0.1-0.4
					c0.4-2.2,0.6-5.1,0.7-7.9c0-2.8,0-5.7-0.1-8.6c-0.1-2.9-0.2-5.8-0.4-8.6c-0.2-2.9-0.4-5.8-0.7-8.6l0,0c-0.3-3,2-5.7,5-6
					c3-0.3,5.7,2,6,5C119.3,260.1,119.3,260.3,119.3,260.4z"/>
			</g>
		</g>
		<g>
			<g>
				<path class="st4" d="M136.7,319.8l-41.3,8.9c-2,0.4-4-0.8-4.4-2.9c-0.4-1.9,0.8-3.8,2.6-4.4l0.1,0l40.5-11.3l0.2,0
					c2.6-0.7,5.4,0.8,6.1,3.5c0.7,2.6-0.8,5.4-3.5,6.1C136.9,319.8,136.8,319.8,136.7,319.8z"/>
			</g>
		</g>
		<g>
			<g>
				<path class="st4" d="M183,261c-0.3,2.8-0.5,5.7-0.7,8.6c-0.2,2.9-0.3,5.8-0.4,8.6c-0.1,2.9-0.1,5.7-0.1,8.6
					c0,2.8,0.2,5.7,0.7,7.9l0.1,0.4c0.5,2.2-1,4.4-3.2,4.9c-2.2,0.4-4.3-0.9-4.8-3c-0.2-0.8-0.5-1.7-0.6-2.5
					c-0.1-0.8-0.3-1.6-0.4-2.4c-0.2-1.6-0.4-3.1-0.6-4.6c-0.3-3-0.5-6-0.6-9c-0.1-3-0.2-6-0.3-9c0-3-0.1-5.9,0-9
					c0-3.1,2.5-5.5,5.6-5.5c3.1,0,5.5,2.5,5.5,5.6C183,260.7,183,260.8,183,261L183,261z"/>
			</g>
		</g>
		<g>
			
				<radialGradient id="SVGID_1_" cx="2342.8179" cy="2045.9087" r="117.8809" gradientTransform="matrix(-0.1681 2.560000e-02 2.560000e-02 0.1681 443.8557 -154.644)" gradientUnits="userSpaceOnUse">
				<stop  offset="0.1534" style="stop-color:#FFFFFF"/>
				<stop  offset="0.4635" style="stop-color:#FDFEFF"/>
				<stop  offset="0.636" style="stop-color:#F5FBFF"/>
				<stop  offset="0.7747" style="stop-color:#E7F5FF"/>
				<stop  offset="0.8947" style="stop-color:#D3ECFF"/>
				<stop  offset="1" style="stop-color:#BBE2FF"/>
			</radialGradient>
			<path class="st5" d="M99.6,270.2c3,2.8,8.9,0.2,15.3-5.6c6.4-5.9,10.3-12.1,7.8-15.6c-2.7-3.6-11.3-1.9-17.6,4
				C98.6,258.9,96.3,267.1,99.6,270.2z"/>
			<path class="st6" d="M99.4,269.5c-0.5-0.5-0.9-1.1-1.1-1.9c5.7,6.9,27.8-15.8,20.6-20.1h0c1.1,0.3,2,0.8,2.6,1.6
				c2.5,3.4-1.3,9.3-7.5,15C108,269.7,102.3,272.2,99.4,269.5z"/>
		</g>
		<g>
			
				<radialGradient id="SVGID_2_" cx="999.7772" cy="2270.1177" r="117.9027" gradientTransform="matrix(0.1605 5.610000e-02 -5.620000e-02 0.1605 157.519 -168.0338)" gradientUnits="userSpaceOnUse">
				<stop  offset="0.1534" style="stop-color:#FFFFFF"/>
				<stop  offset="0.4635" style="stop-color:#FDFEFF"/>
				<stop  offset="0.636" style="stop-color:#F5FBFF"/>
				<stop  offset="0.7747" style="stop-color:#E7F5FF"/>
				<stop  offset="0.8947" style="stop-color:#D3ECFF"/>
				<stop  offset="1" style="stop-color:#BBE2FF"/>
			</radialGradient>
			<path class="st7" d="M189.3,273.6c-3.4,2.2-8.8-1.4-14-8.4c-5.2-6.9-7.9-13.8-4.7-16.7c3.3-3.1,11.4,0.2,16.6,7.2
				C192.3,262.6,193.1,271.1,189.3,273.6z"/>
			<path class="st6" d="M189.6,272.9c0.6-0.4,1.1-0.9,1.4-1.6c-6.8,5.7-24.4-20.6-16.6-23.6h0c-1.2,0.1-2.2,0.4-2.9,1.1
				c-3,2.9-0.4,9.4,4.6,16.1C181.1,271.5,186.3,275,189.6,272.9z"/>
		</g>
		<g>
			
				<radialGradient id="SVGID_3_" cx="464.7123" cy="17577.4062" r="418.6647" gradientTransform="matrix(0.1485 0 0 2.660000e-02 77.2751 -78.6953)" gradientUnits="userSpaceOnUse">
				<stop  offset="0.2037" style="stop-color:#ABABAB"/>
				<stop  offset="0.3198" style="stop-color:#BCBCBC"/>
				<stop  offset="0.6123" style="stop-color:#E0E0E0"/>
				<stop  offset="0.8495" style="stop-color:#F7F7F7"/>
				<stop  offset="1" style="stop-color:#FFFFFF"/>
			</radialGradient>
			<ellipse class="st8" cx="146.3" cy="388.9" rx="62.2" ry="11.1"/>
		</g>
		<g>
			<g>
				<path class="st4" d="M157.1,310.2l40.6,11.3l0,0c2,0.6,3.1,2.6,2.6,4.6c-0.5,1.9-2.5,3.1-4.4,2.6l-41.3-8.9
					c-2.7-0.6-4.4-3.2-3.8-5.9c0.6-2.7,3.2-4.4,5.9-3.8c0.1,0,0.2,0,0.3,0.1L157.1,310.2z"/>
			</g>
		</g>
		<polygon class="st4" points="157.4,310.5 135.9,310.5 133.8,294.3 159.5,294.3 		"/>
		<radialGradient id="SVGID_4_" cx="145.9878" cy="307.3874" r="15.9791" gradientUnits="userSpaceOnUse">
			<stop  offset="0.1534" style="stop-color:#FFFFFF"/>
			<stop  offset="0.4635" style="stop-color:#FDFEFF"/>
			<stop  offset="0.636" style="stop-color:#F5FBFF"/>
			<stop  offset="0.7747" style="stop-color:#E7F5FF"/>
			<stop  offset="0.8947" style="stop-color:#D3ECFF"/>
			<stop  offset="1" style="stop-color:#BBE2FF"/>
		</radialGradient>
		<path class="st9" d="M146.6,322.9L146.6,322.9c-9.3,0-16.8-7.1-16.8-15.8l0,0c0-1.6,1.4-3,3.2-3h13.3h14.1c1.7,0,3.2,1.3,3.2,3
			l0,0C163.4,315.8,155.9,322.9,146.6,322.9z"/>
		<path class="st6" d="M146.2,310.7c-4.1,0-7.5,3.4-7.5,7.5v2.9c0.4,0.2,0.7,0.3,1.1,0.5v-3.4c0-3.5,2.9-6.4,6.4-6.4
			c3.5,0,6.4,2.9,6.4,6.4v3.7c0.4-0.1,0.7-0.3,1.1-0.4v-3.3C153.7,314,150.3,310.7,146.2,310.7z"/>
		<path class="st6" d="M159.7,304.2h-0.5c-0.9,4.8-5,19.9-19.6,16.8c2.1,0.9,4.4,1.4,6.8,1.4c9,0,16.3-6.9,16.3-15.3
			C162.7,305.5,161.3,304.2,159.7,304.2z"/>
		
			<radialGradient id="SVGID_5_" cx="146.3401" cy="305.3213" r="38.1452" gradientTransform="matrix(1 0 0 0.8124 0 20.2998)" gradientUnits="userSpaceOnUse">
			<stop  offset="0.1534" style="stop-color:#FFFFFF"/>
			<stop  offset="0.4635" style="stop-color:#FDFEFF"/>
			<stop  offset="0.636" style="stop-color:#F5FBFF"/>
			<stop  offset="0.7747" style="stop-color:#E7F5FF"/>
			<stop  offset="0.8947" style="stop-color:#D3ECFF"/>
			<stop  offset="1" style="stop-color:#BBE2FF"/>
		</radialGradient>
		<path class="st10" d="M181.3,264.9c0,14.8-15.7,34.7-35.1,34.7c-19.4,0-35.1-19.9-35.1-34.7c0-14.8,15.7-18.9,35.1-18.9
			C165.5,246,181.3,250.1,181.3,264.9z"/>
		<path class="st6" d="M112.6,270.9c3.3,12,17,26.3,33.3,26.3c16.5,0,30.2-14.5,33.3-26.6c-11.1,12.5-22.6,14.7-33.3,14.5
			C133.1,284.9,121.4,280.3,112.6,270.9z"/>
		<path class="st6" d="M146.3,244.5c-4.7,0-9,1.2-12.6,3.5c1.3,4.6,5.6,10.2,13,10.2c7.8,0,11.4-5.4,12.9-9.8
			C155.8,245.8,151.2,244.5,146.3,244.5z"/>
		<path class="st4" d="M135.3,247c0,0.2,0,0.3,0,0.5c0,3.9,5.1,9.3,11.4,9.3c6.3,0,11.4-5.4,11.4-9.3c0,0,0,0,0,0
			c-3.4-2-7.5-3-11.8-3C142.3,244.5,138.6,245.4,135.3,247z"/>
		<path class="st6" d="M158.8,247.3c-1.6-0.4-3.2-0.6-4.9-0.8l0,0.2c3.4,0.3,6.6,3.5,8.9,8.9c4.6,10.8,4.8,31.6-8.7,42.9
			c1.2-0.3,2.4-0.7,3.5-1.2c11.8-12.1,11.3-31.4,6.7-42.1C162.8,251.5,160.9,248.9,158.8,247.3z"/>
		<g>
			
				<radialGradient id="SVGID_6_" cx="131.3754" cy="386.64" r="51.1901" gradientTransform="matrix(5.350000e-02 0.943 -0.9923 0.1639 582.7094 151.4746)" gradientUnits="userSpaceOnUse">
				<stop  offset="0.1534" style="stop-color:#FFFFFF"/>
				<stop  offset="0.4635" style="stop-color:#FDFEFF"/>
				<stop  offset="0.636" style="stop-color:#F5FBFF"/>
				<stop  offset="0.7747" style="stop-color:#E7F5FF"/>
				<stop  offset="0.8947" style="stop-color:#D3ECFF"/>
				<stop  offset="1" style="stop-color:#BBE2FF"/>
			</radialGradient>
			<path class="st11" d="M158.4,320.2c-4.1,4.4-3.2,20.8,1.4,24.3c5,3.8,40.9-9.5,44.7-15.5c2-3.2-6.7-13.2-10.3-13.2
				C175.9,316,160.2,318.2,158.4,320.2z"/>
			<path class="st6" d="M164.3,345.1c-2.1,0.2-3.7,0-4.5-0.6c-3.6-2.7-4.9-13.5-3.3-20.1c10.2-7.1,33.4-7.9,39.6-8
				c0.9,0.5,1.8,1.2,2.8,2.1c-16.7-0.5-35.9,5.9-33.8,13C167.7,340.1,164.4,345,164.3,345.1z"/>
			<path class="st6" d="M199,320.3c0.4-0.2,0.8-0.3,1.2-0.5c3,3.2,5.4,7.3,4.3,9.2c-0.7,1.1-2.4,2.4-4.8,3.8
				c-3.4,0.5-6.3-0.2-7.3-2.3C190.9,327.5,193.8,322.9,199,320.3z"/>
			<radialGradient id="SVGID_7_" cx="201.2607" cy="327.1002" r="6.9864" gradientUnits="userSpaceOnUse">
				<stop  offset="0.1534" style="stop-color:#FFFFFF"/>
				<stop  offset="0.4635" style="stop-color:#FDFEFF"/>
				<stop  offset="0.636" style="stop-color:#F5FBFF"/>
				<stop  offset="0.7747" style="stop-color:#E7F5FF"/>
				<stop  offset="0.8947" style="stop-color:#D3ECFF"/>
				<stop  offset="1" style="stop-color:#BBE2FF"/>
			</radialGradient>
			<path class="st12" d="M199,322.7c-4.2,2.1-6.6,5.8-5.4,8.2c1.3,2.4,5.7,2.7,9.9,0.5c4.2-2.1,6.6-5.8,5.4-8.2
				C207.6,320.8,203.2,320.6,199,322.7z"/>
			
				<radialGradient id="SVGID_8_" cx="129.5106" cy="409.7718" r="37.4659" gradientTransform="matrix(5.350000e-02 0.943 -0.9923 0.1639 582.7094 151.4746)" gradientUnits="userSpaceOnUse">
				<stop  offset="0.1534" style="stop-color:#FFFFFF"/>
				<stop  offset="0.4635" style="stop-color:#FDFEFF"/>
				<stop  offset="0.636" style="stop-color:#F5FBFF"/>
				<stop  offset="0.7747" style="stop-color:#E7F5FF"/>
				<stop  offset="0.8947" style="stop-color:#D3ECFF"/>
				<stop  offset="1" style="stop-color:#BBE2FF"/>
			</radialGradient>
			<path class="st13" d="M151.2,321.1c-6.4,0.7-5.1,0.5-4.1,18.3c0.6,9.8,0.5,17.8,4.1,17.5c3.2-0.3,13.2-9.3,12.6-19.2
				C163.3,327.9,157.7,320.4,151.2,321.1z"/>
			<path class="st6" d="M151.7,356.2c0.7-0.1,1.6-0.5,2.7-1.3c-1.7,0.7-4,0.5-4.9-10.7c-0.9-11.2,5.7-17.7,10.4-18c0,0,0,0,0,0
				l-1.9-2c-1.8-1.6-4-2.4-6.2-2.1c-6.1,0.6-4.9,0.5-3.9,17.5C148.4,348.8,148.4,356.5,151.7,356.2z"/>
			
				<ellipse transform="matrix(0.9801 -0.1987 0.1987 0.9801 -60.8588 38.0889)" class="st4" cx="159.3" cy="322.3" rx="8.2" ry="4.3"/>
		</g>
		<g>
			<g>
				
					<ellipse transform="matrix(0.1539 -0.9881 0.9881 0.1539 44.6906 365.8972)" class="st4" cx="236" cy="156.9" rx="50.8" ry="24.4"/>
				<path class="st2" d="M243,200.6c1.3-1.3,2.5-2.8,3.7-4.5l11-74.6c-0.7-1.9-1.5-3.6-2.3-5.2L243,200.6z"/>
				
					<ellipse transform="matrix(0.9914 -0.1305 0.1305 0.9914 -19.9891 8.6406)" class="st4" cx="55.9" cy="156.8" rx="24.6" ry="50.8"/>
				<path class="st2" d="M34.9,120.9l9.2,74.8c1.2,1.7,2.4,3.2,3.7,4.6l-10.4-84.6C36.5,117.4,35.6,119.1,34.9,120.9z"/>
				
					<radialGradient id="SVGID_9_" cx="592.4669" cy="1276.459" r="556.9873" gradientTransform="matrix(0.2518 0 0 0.247 -1.2887 -188.2245)" gradientUnits="userSpaceOnUse">
					<stop  offset="0.1534" style="stop-color:#FFFFFF"/>
					<stop  offset="0.4635" style="stop-color:#FDFEFF"/>
					<stop  offset="0.636" style="stop-color:#F5FBFF"/>
					<stop  offset="0.7747" style="stop-color:#E7F5FF"/>
					<stop  offset="0.8947" style="stop-color:#D3ECFF"/>
					<stop  offset="1" style="stop-color:#BBE2FF"/>
				</radialGradient>
				<path class="st14" d="M247.2,112.3c0-43.7-45.1-79.1-100.7-79.1c-55.6,0-100.7,35.4-100.8,79.1c0,1.2,0,2.4,0.1,3.6h-0.1
					l0.2,1.5c0.1,1.8,0.4,3.6,0.7,5.3l5.2,41.6l4.7,36.9c1.5,11.9,8.4,22.5,18.7,29c18.2,11.3,43.4,18.3,71.2,18.3
					c26.5,0,50.7-6.4,68.7-16.8c10.7-6.2,17.8-16.8,19.5-28.8l11.3-78.3c0.6-2.8,0.9-5.7,1.1-8.6l0-0.1h0
					C247.2,114.7,247.2,113.5,247.2,112.3z"/>
				<path class="st6" d="M240.7,87.7c3,17.6-9.1,70-11.6,95.4c-2.7,27.7-12.1,56.6-82.5,56.6c-70.4,0-86.4-31.6-86.4-31.6
					c3,8.4,8.7,15.7,16.5,20.5c17.9,11.2,42.6,18.1,70,18.1c26.1,0,49.8-6.3,67.5-16.6c10.5-6.1,17.5-16.6,19.2-28.5l11.1-77.4
					c0.6-2.8,0.9-5.6,1.1-8.5l0-0.1h0c0.1-1.2,0.1-2.4,0.1-3.6C245.6,103.5,243.9,95.3,240.7,87.7z"/>
				<g class="st15">
					<path class="st6" d="M146.5,79.6c-15.1,0-27.3-12-27.3-26.8l0-16.7l1.4-0.3l0,17c0,14,11.6,25.5,25.9,25.5
						c14.3,0,26-11.4,26-25.4l0-17l1.4,0.3l0,16.7C173.8,67.6,161.6,79.6,146.5,79.6z"/>
				</g>
				<g class="st15">
					<path class="st6" d="M209.3,234.9c2.7-36.3,9.3-122.7,12.5-138.1c3.6-17.1,13.3-21.4,13.7-21.6l0.8,1.2l-0.1,0
						c-0.1,0-9.6,4.3-13,20.6c-3.2,15.3-9.7,100.6-12.5,137.1L209.3,234.9z"/>
				</g>
				<g class="st15">
					<path class="st6" d="M80.8,233.4C78.2,197.4,71.6,112.3,68.5,97c-3.4-16.3-11.9-20.1-12-20.1c0,0-0.1-0.1-0.1-0.1l0.8-1.2
						c1.1,0.5,9.3,4.8,12.7,21c3.2,15.3,9.8,101.3,12.4,137.4L80.8,233.4z"/>
				</g>
				<g>
					<path class="st4" d="M92.6,127.8c-16.4,0-29.1,14.4-27.1,30.6v0l4.7,37.6c1,8,5.6,15.2,12.4,19.5
						c16.8,10.6,39.4,16.5,63.7,16.5c23.1,0,45-5.4,61.6-15.2c7-4.1,11.7-11.2,12.9-19.4l5.5-38.6c2.3-16.4-10.4-31.1-27-31.1
						L92.6,127.8z"/>
					<path class="st6" d="M146.4,233.5c-24.5,0-47.4-5.9-64.5-16.7c-7.2-4.6-12-12.1-13-20.5l-4.7-37.6c-1-8.2,1.5-16.4,7-22.5
						c5.4-6.2,13.3-9.7,21.5-9.7l106.6,0c8.3,0,16.2,3.6,21.6,9.9c5.4,6.3,7.9,14.6,6.7,22.8l-5.5,38.6c-1.2,8.6-6.1,16-13.5,20.4
						C191.8,228.1,169.7,233.5,146.4,233.5z M92.6,129.2c-7.4,0-14.5,3.2-19.4,8.7c-4.9,5.6-7.2,13-6.3,20.3l4.7,37.6
						c0.9,7.6,5.2,14.4,11.8,18.5c16.6,10.5,39,16.3,63,16.3c22.9,0,44.5-5.3,60.9-15c6.6-3.9,11.1-10.6,12.2-18.4l5.5-38.6
						c1.1-7.4-1.2-14.9-6.1-20.6c-4.9-5.7-12-8.9-19.5-8.9L92.6,129.2z"/>
				</g>
				<g>
					<g>
						
							<rect x="186.2" y="181.1" transform="matrix(-1 -1.333341e-04 1.333341e-04 -1 376.7626 366.7336)" class="st2" width="4.4" height="4.4"/>
						
							<rect x="181.8" y="181.1" transform="matrix(-1 -1.696970e-04 1.696970e-04 -1 367.9264 366.7383)" class="st2" width="4.4" height="4.4"/>
						
							<rect x="177.4" y="181.1" transform="matrix(-1 -1.636364e-04 1.636364e-04 -1 359.098 366.735)" class="st2" width="4.4" height="4.4"/>
						
							<rect x="190.6" y="176.7" transform="matrix(-1 -1.636364e-04 1.636364e-04 -1 385.5887 357.9117)" class="st2" width="4.4" height="4.4"/>
						
							<rect x="172.9" y="176.7" transform="matrix(-1 -1.696970e-04 1.696970e-04 -1 350.1961 357.9043)" class="st2" width="4.4" height="4.4"/>
					</g>
					<g>
						
							<rect x="109.2" y="181.1" transform="matrix(-1 -1.333333e-04 1.333333e-04 -1 222.7233 366.7234)" class="st2" width="4.4" height="4.4"/>
						
							<rect x="104.8" y="181.1" transform="matrix(-1 -1.696970e-04 1.696970e-04 -1 213.887 366.7253)" class="st2" width="4.4" height="4.4"/>
						
							<rect x="100.3" y="181.1" transform="matrix(-1 -1.636364e-04 1.636364e-04 -1 205.0586 366.7224)" class="st2" width="4.4" height="4.4"/>
						
							<rect x="113.6" y="176.7" transform="matrix(-1 -1.636374e-04 1.636374e-04 -1 231.5493 357.8991)" class="st2" width="4.4" height="4.4"/>
						
							<rect x="95.9" y="176.7" transform="matrix(-1 -1.696970e-04 1.696970e-04 -1 196.1567 357.8912)" class="st2" width="4.4" height="4.4"/>
					</g>
					<g>
						
							<rect x="148.1" y="198.7" transform="matrix(-1 -1.696978e-04 1.696978e-04 -1 300.6536 401.8395)" class="st2" width="4.4" height="4.4"/>
						
							<rect x="143.7" y="198.7" transform="matrix(-1 -1.636364e-04 1.636364e-04 -1 291.8252 401.8364)" class="st2" width="4.4" height="4.4"/>
						
							<rect x="139.3" y="198.7" transform="matrix(-1 -1.696970e-04 1.696970e-04 -1 282.9944 401.8351)" class="st2" width="4.4" height="4.4"/>
						
							<rect x="152.6" y="194.3" transform="matrix(-1 -1.636364e-04 1.636364e-04 -1 309.4864 393.011)" class="st2" width="4.4" height="4.4"/>
						
							<rect x="134.9" y="194.3" transform="matrix(-1 -1.697021e-04 1.697021e-04 -1 274.0938 393.0033)" class="st2" width="4.4" height="4.4"/>
					</g>
				</g>
			</g>
		</g>
		<path class="st6" d="M171.6,272.5c0,3.1-2.5,5.6-5.6,5.6c-3.1,0-5.6-2.5-5.6-5.6c0-3.1,2.5-5.6,5.6-5.6
			C169.1,266.9,171.6,269.4,171.6,272.5z"/>
		<path class="st2" d="M166,276.5c-2.2,0-4.1-1.8-4.1-4.1c0-2.2,1.8-4.1,4.1-4.1c2.2,0,4.1,1.8,4.1,4.1
			C170.1,274.7,168.2,276.5,166,276.5z"/>
		<g>
			
				<radialGradient id="SVGID_10_" cx="154.7073" cy="265.513" r="51.1899" gradientTransform="matrix(-5.230000e-02 0.943 0.9925 0.1627 -168.6488 149.6333)" gradientUnits="userSpaceOnUse">
				<stop  offset="0.1534" style="stop-color:#FFFFFF"/>
				<stop  offset="0.4635" style="stop-color:#FDFEFF"/>
				<stop  offset="0.636" style="stop-color:#F5FBFF"/>
				<stop  offset="0.7747" style="stop-color:#E7F5FF"/>
				<stop  offset="0.8947" style="stop-color:#D3ECFF"/>
				<stop  offset="1" style="stop-color:#BBE2FF"/>
			</radialGradient>
			<path class="st16" d="M134.4,320.1c4.1,4.4,3.2,20.8-1.3,24.3c-5,3.8-40.9-9.4-44.7-15.5c-2-3.2,6.7-13.3,10.3-13.2
				C116.9,316,132.6,318.2,134.4,320.1z"/>
			<path class="st6" d="M128.6,345c2.1,0.2,3.7,0,4.5-0.6c3.6-2.7,4.9-13.5,3.3-20.1c-10.2-7.1-33.4-7.9-39.7-8
				c-0.9,0.5-1.8,1.2-2.8,2.1c16.7-0.6,35.9,5.9,33.8,12.9C125.1,340.1,128.5,344.9,128.6,345z"/>
			<path class="st6" d="M93.8,320.3c-0.4-0.2-0.8-0.3-1.2-0.5c-3,3.2-5.4,7.3-4.2,9.2c0.7,1.1,2.4,2.4,4.8,3.8
				c3.4,0.5,6.3-0.2,7.3-2.3C102,327.4,99,322.9,93.8,320.3z"/>
			<radialGradient id="SVGID_11_" cx="91.5812" cy="327.0836" r="6.9864" gradientUnits="userSpaceOnUse">
				<stop  offset="0.1534" style="stop-color:#FFFFFF"/>
				<stop  offset="0.4635" style="stop-color:#FDFEFF"/>
				<stop  offset="0.636" style="stop-color:#F5FBFF"/>
				<stop  offset="0.7747" style="stop-color:#E7F5FF"/>
				<stop  offset="0.8947" style="stop-color:#D3ECFF"/>
				<stop  offset="1" style="stop-color:#BBE2FF"/>
			</radialGradient>
			<path class="st17" d="M93.8,322.7c4.2,2.1,6.6,5.8,5.4,8.2c-1.2,2.4-5.7,2.7-9.9,0.5c-4.2-2.1-6.6-5.8-5.4-8.2
				C85.2,320.8,89.6,320.6,93.8,322.7z"/>
			
				<radialGradient id="SVGID_12_" cx="152.8425" cy="288.6437" r="37.4673" gradientTransform="matrix(-5.230000e-02 0.943 0.9925 0.1627 -168.6488 149.6333)" gradientUnits="userSpaceOnUse">
				<stop  offset="0.1534" style="stop-color:#FFFFFF"/>
				<stop  offset="0.4635" style="stop-color:#FDFEFF"/>
				<stop  offset="0.636" style="stop-color:#F5FBFF"/>
				<stop  offset="0.7747" style="stop-color:#E7F5FF"/>
				<stop  offset="0.8947" style="stop-color:#D3ECFF"/>
				<stop  offset="1" style="stop-color:#BBE2FF"/>
			</radialGradient>
			<path class="st18" d="M141.6,321c6.4,0.6,5.1,0.5,4.1,18.3c-0.5,9.8-0.5,17.8-4.1,17.5c-3.2-0.3-13.2-9.3-12.7-19.1
				C129.5,327.8,135.2,320.4,141.6,321z"/>
			<path class="st6" d="M141.1,356.1c-0.7-0.1-1.6-0.5-2.7-1.3c1.7,0.7,4,0.5,4.9-10.7c0.9-11.2-5.8-17.7-10.4-18c0,0,0,0,0,0l1.9-2
				c1.8-1.6,4-2.4,6.2-2.2c6.1,0.6,4.9,0.5,3.9,17.5C144.5,348.8,144.5,356.4,141.1,356.1z"/>
			<path class="st4" d="M134.1,317.9c4.5,0.8,7.8,3.4,7.4,5.8c-0.4,2.4-4.3,3.6-8.8,2.8c-4.5-0.8-7.8-3.4-7.4-5.8
				C125.7,318.3,129.7,317.1,134.1,317.9z"/>
		</g>
		<g>
			<g>
				
					<radialGradient id="SVGID_13_" cx="217.6223" cy="59.7007" r="32.5529" gradientTransform="matrix(-0.7339 -0.6703 0.6703 -0.7339 324.6158 482.085)" gradientUnits="userSpaceOnUse">
					<stop  offset="0.1534" style="stop-color:#FFFFFF"/>
					<stop  offset="0.4635" style="stop-color:#FDFEFF"/>
					<stop  offset="0.636" style="stop-color:#F5FBFF"/>
					<stop  offset="0.7747" style="stop-color:#E7F5FF"/>
					<stop  offset="0.8947" style="stop-color:#D3ECFF"/>
					<stop  offset="1" style="stop-color:#BBE2FF"/>
				</radialGradient>
				<path class="st19" d="M175.9,292.3c3.9-3.7,14.2-1.5,19,4.7c6.3,8.1,11.8,14.9,17.3,20.4c0.7,0.7,0.5,2-0.2,2.8l-3,3.4
					c-0.7,0.8-1.8,1-2.7,0.6c-8.4-4.1-17.6-9.1-24-12.4C176,308.5,170.6,297.3,175.9,292.3z"/>
				<path class="st6" d="M206.6,323.1c-8.3-4.1-17.3-9.3-23.7-12.6c-4.8-2.5-8.6-8.7-8.1-14.4c1.2,1.1,3.4,12,35.1,25.7l-0.7,0.8
					C208.6,323.4,207.5,323.5,206.6,323.1z"/>
			</g>
			<g>
				<path class="st4" d="M216.4,320.2c0.2,3.1-2.8,6-5.9,5.8c-3.1-0.2-6.4-2.8-6.2-5.9c0.2-3.1,2.8-5.4,5.9-5.2
					C213.4,315.2,216.3,317.6,216.4,320.2z"/>
				<path class="st4" d="M216.9,311.6c1.9-0.8,2,2,0.2,3.5c-1.3,1-4.9,0.4-5.1,1.3c-0.3,2,2.3,4.1,0.7,4.8c-2.8,1.2-4.1,1.3-5.3-1.5
					c-1.2-2.8,0.1-6.1,2.9-7.3C213.1,311.2,215.2,312.3,216.9,311.6z"/>
				<path class="st4" d="M219.3,312.4c1,0.2,1.5,2,1.6,5.4c0.1,4.5-4.6,4.2-6.4,4.6c-1.6,0.3-0.8-3.4-0.4-3.9
					c0.7-0.8,3.5,0.7,3.3-1.4C217.3,314.2,218.3,312.2,219.3,312.4z"/>
				<path class="st4" d="M224.1,324.9c-0.4,1.1-3.1,0-6.6-1.3c-3.5-1.2-6.3-2.1-5.9-3.2c0.4-1.1,4.4-0.7,7.8,0.5
					C222.9,322.2,224.5,323.8,224.1,324.9z"/>
				<path class="st4" d="M222.3,327.9c-0.5,1-3-0.3-6.2-1.8c-3.2-1.5-5.9-2.5-5.4-3.6c0.5-1,4.2-0.3,7.4,1.2
					C221.3,325.2,222.8,326.9,222.3,327.9z"/>
				<path class="st4" d="M218.6,328.7c-0.4,1.1-3-0.2-6.3-1.5c-3.3-1.3-6-2.3-5.5-3.3c0.4-1.1,4.2-0.5,7.5,0.8
					C217.5,326,219,327.6,218.6,328.7z"/>
			</g>
			<g>
				
					<radialGradient id="SVGID_14_" cx="128.2028" cy="141.3711" r="32.5529" gradientTransform="matrix(0.7339 -0.6703 -0.6703 -0.7339 89.2366 482.085)" gradientUnits="userSpaceOnUse">
					<stop  offset="0.1534" style="stop-color:#FFFFFF"/>
					<stop  offset="0.4635" style="stop-color:#FDFEFF"/>
					<stop  offset="0.636" style="stop-color:#F5FBFF"/>
					<stop  offset="0.7747" style="stop-color:#E7F5FF"/>
					<stop  offset="0.8947" style="stop-color:#D3ECFF"/>
					<stop  offset="1" style="stop-color:#BBE2FF"/>
				</radialGradient>
				<path class="st20" d="M117.6,292.3c-3.9-3.7-14.2-1.5-19,4.7c-6.3,8.1-11.8,14.9-17.3,20.4c-0.7,0.7-0.5,2,0.2,2.8l3,3.4
					c0.7,0.8,1.8,1,2.7,0.6c8.4-4.1,17.6-9.1,24-12.4C117.5,308.5,122.9,297.3,117.6,292.3z"/>
				<path class="st6" d="M86.9,323.1c8.3-4.1,17.3-9.3,23.7-12.6c4.8-2.5,8.6-8.7,8.1-14.4c-1.2,1.1-3.4,12-35.1,25.7l0.7,0.8
					C84.9,323.4,86,323.5,86.9,323.1z"/>
			</g>
			<g>
				<path class="st4" d="M77,320.2c-0.2,3.1,2.8,6,5.9,5.8c3.1-0.2,6.4-2.8,6.2-5.9c-0.2-3.1-2.8-5.4-5.9-5.2
					C80.1,315.2,77.2,317.6,77,320.2z"/>
				<path class="st4" d="M76.6,311.6c-1.9-0.8-2,2-0.2,3.5c1.3,1,4.9,0.4,5.1,1.3c0.3,2-2.3,4.1-0.7,4.8c2.8,1.2,4.1,1.3,5.3-1.5
					c1.2-2.8-0.1-6.1-2.9-7.3C80.4,311.2,78.3,312.3,76.6,311.6z"/>
				<path class="st4" d="M74.2,312.4c-1,0.2-1.5,2-1.6,5.4c-0.1,4.5,4.6,4.2,6.4,4.6c1.6,0.3,0.8-3.4,0.4-3.9
					c-0.7-0.8-3.5,0.7-3.3-1.4C76.2,314.2,75.2,312.2,74.2,312.4z"/>
				<path class="st4" d="M69.3,324.9c0.4,1.1,3.1,0,6.6-1.3c3.5-1.2,6.3-2.1,5.9-3.2c-0.4-1.1-4.4-0.7-7.8,0.5
					C70.6,322.2,68.9,323.8,69.3,324.9z"/>
				<path class="st4" d="M71.2,327.9c0.5,1,3-0.3,6.2-1.8c3.2-1.5,5.9-2.5,5.4-3.6c-0.5-1-4.2-0.3-7.4,1.2
					C72.2,325.2,70.7,326.9,71.2,327.9z"/>
				<path class="st4" d="M74.9,328.7c0.4,1.1,3-0.2,6.3-1.5c3.3-1.3,6-2.3,5.5-3.3c-0.4-1.1-4.2-0.5-7.5,0.8
					C76,326,74.5,327.6,74.9,328.7z"/>
			</g>
		</g>
	</g>
</g>
</svg>
