<svg id="Layer_1" data-name="Layer 1" xmlns="http://www.w3.org/2000/svg" xmlns:xlink="http://www.w3.org/1999/xlink" viewBox="0 0 512 415"><defs><style>.cls-1{fill:#eaeef9;}.cls-2{fill:#ced7e2;}.cls-3{fill:#fff;}.cls-4{fill:#e6edf5;}.cls-5{fill:#e3eaf2;}.cls-6{fill:url(#linear-gradient);}.cls-7{fill:url(#linear-gradient-2);}.cls-8{fill:url(#linear-gradient-3);}.cls-9{fill:url(#linear-gradient-4);}.cls-10{fill:url(#linear-gradient-5);}.cls-11{fill:url(#linear-gradient-6);}.cls-12{fill:url(#linear-gradient-7);}.cls-13{fill:url(#linear-gradient-8);}</style><linearGradient id="linear-gradient" x1="69.6023" y1="370.7658" x2="72.9341" y2="370.3789" gradientTransform="matrix(4.974, 0, 0, -4.974, -104.1427, 1961.8363)" gradientUnits="userSpaceOnUse"><stop offset="0" stop-color="#f97387"/><stop offset="1" stop-color="#f64e60"/></linearGradient><linearGradient id="linear-gradient-2" x1="57.4185" y1="281.3813" x2="60.812" y2="279.8746" gradientTransform="matrix(6.8913, 0, 0, -1.7911, -100.265, 693.0531)" gradientUnits="userSpaceOnUse"><stop offset="0" stop-color="#83a6ff"/><stop offset="1" stop-color="#5a78ff"/></linearGradient><linearGradient id="linear-gradient-3" x1="87.9194" y1="389.416" x2="89.3747" y2="389.7584" gradientTransform="matrix(3.5416, 0, 0, -6.2107, -107.3223, 2431.9473)" xlink:href="#linear-gradient"/><linearGradient id="linear-gradient-4" x1="50.6333" y1="359.8216" x2="50.7976" y2="361.9618" gradientTransform="matrix(6.3119, 0, 0, -2.5417, -130.8122, 951.5191)" xlink:href="#linear-gradient"/><linearGradient id="linear-gradient-5" x1="74.9274" y1="386.9226" x2="73.9754" y2="387.5561" gradientTransform="matrix(4.6015, 0, 0, -5.3732, -105.4032, 2092.3802)" xlink:href="#linear-gradient"/><linearGradient id="linear-gradient-6" x1="13.4098" y1="398.3281" x2="15.3727" y2="395.389" gradientTransform="matrix(42.5471, 0, 0, -42.6057, -350.0461, 17248.286)" gradientUnits="userSpaceOnUse"><stop offset="0" stop-color="#41cbfe"/><stop offset="1" stop-color="#41a4fe"/></linearGradient><linearGradient id="linear-gradient-7" x1="19.1975" y1="392.1102" x2="20.4028" y2="390.9191" gradientTransform="matrix(26.127, 0, 0, -26.4, -233.1078, 10688.1122)" gradientUnits="userSpaceOnUse"><stop offset="0" stop-color="#41a4fe"/><stop offset="1" stop-color="#657eff" stop-opacity="0"/></linearGradient><linearGradient id="linear-gradient-8" x1="23.6465" y1="381.9057" x2="22.1382" y2="383.8757" gradientTransform="matrix(20.5363, 0, 0, -15.7133, -202.8724, 6351.6155)" gradientUnits="userSpaceOnUse"><stop offset="0.011" stop-color="#c2d1ff"/><stop offset="1" stop-color="#fff"/></linearGradient></defs><path id="Path-7" class="cls-1" d="M393.0534,73.0528a14.0995,14.0995,0,1,0-.0035,0Z"/><path id="Path-8" class="cls-1" d="M132.9515,83.0483a9.2713,9.2713,0,1,0-.01,0Z"/><path id="Path-9" class="cls-1" d="M107.3481,100.0807a6.2939,6.2939,0,1,0-6.3075-6.2939,6.2938,6.2938,0,0,0,6.3075,6.2939Z"/><path id="Path-10" class="cls-1" d="M427.93,81.1958a5.9326,5.9326,0,1,0-.0034,0Z"/><path id="Path-11" class="cls-1" d="M256.88,412.5844A184.0211,184.0211,0,1,0,72.4718,228.5633,184.0211,184.0211,0,0,0,256.88,412.5844Z"/><path id="Path-12" class="cls-2" d="M224.5991,140.4393l-4.8248-13.3307a8.3657,8.3657,0,0,0-7.79-5.5508H127.387a12.4986,12.4986,0,0,0-12.6182,12.3779q-.001.1048,0,.21V291.8783H402.33V158.5812a12.4986,12.4986,0,0,0-12.4087-12.5879q-.1032-.0008-.2063,0H232.3893A8.3689,8.3689,0,0,1,224.5991,140.4393Z"/><path id="Path-13" class="cls-3" d="M188.6064,110.8158l57.528,99.972a7.15,7.15,0,0,1-2.599,9.6257L145.58,275.2021a7.1912,7.1912,0,0,1-9.6463-2.5922L63.5652,143.0281a6.8487,6.8487,0,0,1,2.2442-9.4218q.1743-.1073.3548-.2039l71.2389-39.619Z"/><path id="Path-14" class="cls-2" d="M136.66,121.5544,89.5384,147.8426a2.1742,2.1742,0,1,1-2.2258-3.705l47.1216-26.2883a2.1741,2.1741,0,1,1,2.2258,3.7051Z"/><path id="Path-15" class="cls-4" d="M114.0289,149.3219l-18.183,9.9989a2.1688,2.1688,0,1,1-2.2258-3.6914L111.43,145.62a1.9449,1.9449,0,0,1,2.9791.74C115.5116,147.1,115.1418,148.5823,114.0289,149.3219Z"/><path id="Path-16" class="cls-4" d="M137.4031,93.7868l15.5839,27.7676a8.39,8.39,0,0,0,11.1255,2.9654l24.86-13.6971"/><path id="Shape" class="cls-2" d="M136.29,217.8247a67.0406,67.0406,0,0,1-12.2453-18.5116c-4.0783-8.1464-7.42-16.2928-1.4793-24.0693a56.6443,56.6443,0,0,1,17.0667-12.5911,127.5952,127.5952,0,0,1,20.0355-10.3654,28.7849,28.7849,0,0,1,11.872-3.3318,14.8921,14.8921,0,0,1,10.3892,4.4516,66.96,66.96,0,0,1,12.2487,18.4911c4.8214,8.8861,7.7868,17.0324,0,25.1788a62.5706,62.5706,0,0,1-15.9572,11.4782,148.0857,148.0857,0,0,1-26.7094,12.9609,15.0679,15.0679,0,0,1-4.76.7876A14.7243,14.7243,0,0,1,136.29,217.8247Z"/><path id="Path-17" class="cls-3" d="M449.0815,174.487,383.777,258.9059a6.5371,6.5371,0,0,1-9.1666,1.1992q-.0553-.0426-.11-.0863l-81.6281-64.0581a6.5061,6.5061,0,0,1-1.2144-9.1206q.0483-.0632.098-.125L376.7264,78.96a6.54,6.54,0,0,1,9.172-1.1949q.0525.04.1044.082L445.37,124.5027Z"/><path id="Path-18" class="cls-5" d="M340.7371,206.3465l-2.9688-2.2223a1.37,1.37,0,0,1,0-2.219,1.7463,1.7463,0,0,1,2.2258-.3732l2.9688,2.2223c.74.37.74,1.4828.37,2.2224A2.2908,2.2908,0,0,1,340.7371,206.3465Z"/><path id="Path-19" class="cls-5" d="M332.5736,199.6829l-17.44-13.7006c-.7431-.37-.7431-1.4827-.37-2.2223s1.4656-.74,2.2258-.37l17.4365,13.6972c.7431.37.7431,1.4793.3732,2.2223a1.4007,1.4007,0,0,1-2.2258.3733Z"/><path id="Path-20" class="cls-2" d="M421.2524,133.7757l-39.3314-30.733a2.1128,2.1128,0,1,1,2.5991-3.3318l39.3279,30.7329a2.24,2.24,0,0,1,.3732,2.962,1.9382,1.9382,0,0,1-2.9688.37Z"/><path id="Path-21" class="cls-2" d="M389.7147,124.1466,374.87,112.2985a2.24,2.24,0,0,1-.37-2.962,1.9386,1.9386,0,0,1,2.9689-.37l14.8408,11.848a2.236,2.236,0,0,1,.37,2.962,1.9588,1.9588,0,0,1-2.9654.37Z"/><path id="Path-22" class="cls-4" d="M445.37,124.52l-18.18,22.9427a7.6636,7.6636,0,0,0,1.4683,10.738l.0144.0109,20.7785,16.303"/><path id="Shape-2" class="cls-5" d="M389.7147,223.7488,328.1186,175.254a4.794,4.794,0,0,1-1.0058-6.7047q.1257-.17.2662-.3288l28.199-35.5577a4.6127,4.6127,0,0,1,7.054-1.1095l19.6657,15.55,21.1449,16.6625,20.4054,15.923a5.65,5.65,0,0,1,1.1163,7.4033l-28.2024,35.5475a4.4244,4.4244,0,0,1-3.9,2.2669A4.9346,4.9346,0,0,1,389.7147,223.7488Z"/><path id="Path-23" class="cls-3" d="M341.8363,91.5508,331.0738,210.4146a7.4821,7.4821,0,0,1-8.1635,6.6671L207.1455,205.2234a7.4719,7.4719,0,0,1-6.6774-8.1464L216.052,44.5285a7.4822,7.4822,0,0,1,8.1635-6.6671l83.8539,8.53Z"/><path id="Path-24" class="cls-4" d="M308.4564,46.7611l-3.3421,32.5855a8.636,8.636,0,0,0,7.7937,9.2456l29.3119,2.962"/><path id="Path-25" class="cls-4" d="M315.5036,178.5756,220.5276,167.84a4.109,4.109,0,0,1-3.7085-4.4515l7.0369-60.716a4.1092,4.1092,0,0,1,4.455-3.7017l94.9862,10.3653a4.1093,4.1093,0,0,1,3.7086,4.4516l-7.0472,60.716A4.4243,4.4243,0,0,1,315.5036,178.5756Z"/><path id="Path-26" class="cls-2" d="M272.8336,164.1319l-43.783-5.1775,24.49-22.2167Z"/><path id="Path-27" class="cls-3" d="M309.196,168.21l-63.4485-7.4033L281.74,128.9611Z"/><path id="Path-28" class="cls-6" d="M250.2024,127.1086a8.5333,8.5333,0,1,0-.0068,0Z"/><path id="Path-29" class="cls-2" d="M286.9348,67.1288l-57.5109-6.6739c-.7431,0-1.4862-.7328-1.1129-1.4725v-.7431c0-.74.74-1.4793,1.4827-1.1094l57.528,6.6636c.7431,0,1.4861.7431,1.1129,1.4827v.74C288.4175,66.7555,287.6778,67.4986,286.9348,67.1288Z"/><path id="Path-30" class="cls-4" d="M286.5649,77.8639,228.311,71.1934c-.7431,0-1.4861-.7328-1.1129-1.4759v-.74c0-.74.74-1.4793,1.4827-1.11l58.254,6.6637c.743,0,1.4827.74,1.1129,1.4827v.74C288.0511,77.4941,287.3046,77.8639,286.5649,77.8639Z"/><path id="Path-31" class="cls-4" d="M288.4141,190.0538l-72.3518-8.143a1.91,1.91,0,1,1,.7431-3.705l71.9853,8.1463a1.63,1.63,0,0,1,1.4827,2.2224C290.27,189.684,289.53,190.4373,288.4141,190.0538Z"/><path id="Path-32" class="cls-4" d="M278.0282,88.2292l-50.83-5.924a1.9086,1.9086,0,1,1,.74-3.7016l50.8336,5.924a1.6333,1.6333,0,0,1,1.4861,2.2189A2.5065,2.5065,0,0,1,278.0282,88.2292Z"/><path id="Path-33" class="cls-4" d="M315.1338,204.1242,214.58,192.2762a1.9087,1.9087,0,1,1,.7431-3.7017l100.5541,11.4782a1.63,1.63,0,0,1,1.4827,2.2224A2.075,2.075,0,0,1,315.1338,204.1242Z"/><path id="Path-34" class="cls-7" d="M316.6028,193.389l-19.6486-2.2223a1.91,1.91,0,1,1,.74-3.7051L317.36,189.684a1.6334,1.6334,0,0,1,1.4862,2.2223C318.4724,193.0158,317.7328,193.7589,316.6028,193.389Z"/><path id="Path-35" class="cls-3" d="M408.1819,211.8733l-21.3094,94.9281c-1.332,5.5542-7.9888,9.903-15.9811,9.903H140.4952c-7.9923,0-14.6388-4.1091-15.9812-9.903l-17.3131-77.7792c-1.3321-5.8008,4.9926-11.3515,13.317-11.3515H250.3668a9.52,9.52,0,0,0,8.6566-4.5886l3.6606-8.2183a9.5228,9.5228,0,0,1,8.6566-4.5851H395.197C403.1892,200.5218,409.5139,205.8329,408.1819,211.8733Z"/><path id="Path-36" class="cls-3" d="M424.9746,198.9467l-23.744,145.5116a18.2857,18.2857,0,0,1-17.8063,15.1832H126.6577a17.94,17.94,0,0,1-17.8063-15.1832L89.5521,225.2349a15.1114,15.1114,0,0,1,14.8408-17.4022H249.1a10.3756,10.3756,0,0,0,9.65-7.0369l4.0817-12.5877a10.372,10.372,0,0,1,9.6462-7.0369H410.5035a15.3722,15.3722,0,0,1,14.4711,17.7755Z"/><path id="Path-43" class="cls-8" d="M210.8711,22.6953a2.7154,2.7154,0,0,1-3.6231-1.2729q-.0487-.1014-.0888-.2064L200.8517,5.6629a2.7017,2.7017,0,0,1,1.2626-3.6062q.1095-.0528.2235-.0955A2.7121,2.7121,0,0,1,205.9536,3.24q.047.0982.0858.2l6.3144,15.5531a2.5032,2.5032,0,0,1-1.4827,3.7017Z"/><path id="Path-44" class="cls-9" d="M199.3689,37.5053a2.2976,2.2976,0,0,1-2.599.74l-15.9537-2.962a2.832,2.832,0,1,1,1.1265-5.5507l15.94,2.962a2.8764,2.8764,0,0,1,2.2258,3.3318C199.749,36.7656,199.749,37.1355,199.3689,37.5053Z"/><path id="Path-45" class="cls-10" d="M232.02,20.8427c-.37,0-.7431-.37-1.5-.37a2.8969,2.8969,0,0,1-.3425-4.0715L240.183,3.4268a2.897,2.897,0,0,1,4.4516,3.7051L234.6288,20.1031A6.9045,6.9045,0,0,1,232.02,20.8427Z"/><path id="Path-46" class="cls-4" d="M203.8205,264.1074H123.6751a2.921,2.921,0,0,1-2.9688-2.8723c0-.03-.0005-.06,0-.09a2.7392,2.7392,0,0,1,2.9689-2.962H204.19a2.9243,2.9243,0,0,1,2.9688,2.8792q.0006.0414,0,.0828a3.0269,3.0269,0,0,1-3.0756,2.9777Q203.9518,264.121,203.8205,264.1074Z"/><path id="Path-47" class="cls-4" d="M177.1042,281.51H128.87a2.9209,2.9209,0,0,1-2.9687-2.8723q-.0007-.0448,0-.09a2.7391,2.7391,0,0,1,2.9688-2.962h48.2345a2.9243,2.9243,0,0,1,2.9688,2.8792q.0006.0414,0,.0828a2.9209,2.9209,0,0,1-2.8791,2.9621Q177.149,281.51,177.1042,281.51Z"/><path id="Path-15-2" data-name="Path-15" class="cls-11" d="M336.2628,338.5724A83.276,83.276,0,0,1,334.31,355.77a73.0239,73.0239,0,0,1-3.1188,9.7618,73.8519,73.8519,0,0,1-42.5468,42.6067c-1.5576.3876-2.7277,1.1629-4.2888,1.5506a75.1025,75.1025,0,1,1,51.9068-71.1168Z"/><path id="Path-16-2" data-name="Path-16" class="cls-12" d="M334.2928,357.7084a88.5275,88.5275,0,0,1-3.1224,9.3741,73.0726,73.0726,0,0,1-40.9644,41.0561L248.0716,365.92l-5.8536-5.85,41.3556-37.1442,13.656-7.8236,36.672,36.7566Z"/><path id="Path-17-2" data-name="Path-17" class="cls-13" d="M253.534,367.8578a7.7884,7.7884,0,0,1-6.2448-2.7135L230.1232,347.95a8.747,8.747,0,0,1-.1415-12.3692q.07-.0715.1415-.1415a8.694,8.694,0,0,1,12.2937-.1923q.0976.0947.1923.1923l10.9248,10.9248,31.21-31.259a8.7575,8.7575,0,0,1,12.3845-.1015q.0511.05.1015.1015a8.7469,8.7469,0,0,1,.1415,12.3692q-.07.0716-.1415.1415l-37.4544,37.5319A7.7848,7.7848,0,0,1,253.534,367.8578Z"/></svg>