<svg id="Layer_1" data-name="Layer 1" xmlns="http://www.w3.org/2000/svg" xmlns:xlink="http://www.w3.org/1999/xlink" viewBox="0 0 512 415"><defs><style>.cls-1{fill:#eaeef9;}.cls-14,.cls-15,.cls-16,.cls-17,.cls-2{fill:none;}.cls-2{stroke:#ebf0f6;stroke-width:7.611px;}.cls-14,.cls-15,.cls-17,.cls-2{stroke-linecap:round;stroke-linejoin:round;}.cls-3{fill:url(#linear-gradient);}.cls-4{fill:#ebf0f6;}.cls-5{fill:#f5f8ff;}.cls-6{fill:#172d45;}.cls-7{fill:#fff;}.cls-8{fill:#dbdfe6;}.cls-9{fill:url(#linear-gradient-2);}.cls-10{fill:#e3eaf2;}.cls-11{fill:#ced7e2;}.cls-12{fill:url(#linear-gradient-3);}.cls-13{fill:url(#linear-gradient-4);}.cls-14,.cls-15,.cls-16,.cls-17{stroke:#41a4fe;stroke-width:3.8055px;}.cls-15{stroke-dasharray:14.0803;}.cls-16{stroke-miterlimit:10;}.cls-17{stroke-dasharray:15.1839;}.cls-18{fill:url(#linear-gradient-5);}.cls-19{fill:url(#linear-gradient-6);}.cls-20{fill:url(#linear-gradient-7);}</style><linearGradient id="linear-gradient" x1="14.9279" y1="380.1821" x2="14.9279" y2="383.5728" gradientTransform="matrix(41.91, 0, 0, -15.9825, -365.458, 6482.9897)" gradientUnits="userSpaceOnUse"><stop offset="0" stop-color="#f5f8ff"/><stop offset="0.991" stop-color="#d8e0eb"/></linearGradient><linearGradient id="linear-gradient-2" x1="163.2975" y1="354.9383" x2="166.985" y2="354.9383" gradientTransform="matrix(2.92, 0, 0, -2.92, -64.5789, 1109.665)" gradientUnits="userSpaceOnUse"><stop offset="0" stop-color="#f97387"/><stop offset="1" stop-color="#f64e60"/></linearGradient><linearGradient id="linear-gradient-3" x1="125.8808" y1="214.2758" x2="162.1283" y2="214.2758" gradientUnits="userSpaceOnUse"><stop offset="0" stop-color="#41cbfe"/><stop offset="1" stop-color="#41a4fe"/></linearGradient><linearGradient id="linear-gradient-4" x1="15.0765" y1="401.0529" x2="17.1962" y2="397.8791" gradientTransform="matrix(21.9799, 0, 0, -21.9134, -282.2616, 8798.3358)" xlink:href="#linear-gradient-3"/><linearGradient id="linear-gradient-5" x1="16.4685" y1="392.3706" x2="18.377" y2="389.5131" gradientTransform="matrix(40.065, 0, 0, -26.52, -316.4218, 10671.2553)" xlink:href="#linear-gradient-3"/><linearGradient id="linear-gradient-6" x1="11.8746" y1="403.1208" x2="12.5508" y2="402.4526" gradientTransform="matrix(26.127, 0, 0, -26.4, -233.1078, 10688.1122)" gradientUnits="userSpaceOnUse"><stop offset="0" stop-color="#41a4fe"/><stop offset="1" stop-color="#657eff" stop-opacity="0"/></linearGradient><linearGradient id="linear-gradient-7" x1="14.0249" y1="400.8017" x2="13.1787" y2="401.9069" gradientTransform="matrix(20.5363, 0, 0, -15.7133, -202.8724, 6351.6155)" gradientUnits="userSpaceOnUse"><stop offset="0.011" stop-color="#c2d1ff"/><stop offset="1" stop-color="#fff"/></linearGradient></defs><path id="Path-3" class="cls-1" d="M255.6823,410.9049A172.6584,172.6584,0,1,0,84.1156,237.1615q-.0035.5444-.0034,1.0888A172.1028,172.1028,0,0,0,255.6615,410.9049Z"/><path id="Path-4" class="cls-2" d="M86.875,411.2474H439.3462"/><path id="Path-5" class="cls-3" d="M339.9128,408.4694c-26.2579.7231-57.6531,0-79.7439-.3425-22.0946.685-53.5088,1.0656-79.7438.3425,25.8772-14.9174,34.8658-42.355,36.2472-60.431h86.647C305.39,365.7339,314.378,393.552,339.9128,408.4694Z"/><path id="Path-6" class="cls-4" d="M183.1879,412.9979H337.15a4.1671,4.1671,0,0,0,0-8.334H183.1879a4.2165,4.2165,0,0,0-4.1442,4.148A4.4713,4.4713,0,0,0,183.1879,412.9979Z"/><path id="Path-7" class="cls-5" d="M424.1243,117.6927V344.9179a9.6394,9.6394,0,0,1-9.5744,9.7038q-.0457,0-.0916,0H107.5844a9.8942,9.8942,0,0,1-9.6659-9.704V117.6927a9.8942,9.8942,0,0,1,9.6659-9.704H414.4583a9.6393,9.6393,0,0,1,9.6661,9.6124Q424.1246,117.6469,424.1243,117.6927Z"/><path id="Path-8" class="cls-6" d="M424.1243,117.6927V313.2944H97.9185V117.6927a9.8942,9.8942,0,0,1,9.6659-9.704H414.4583a9.6393,9.6393,0,0,1,9.6661,9.6124Q424.1246,117.6469,424.1243,117.6927Z"/><path id="Path-9" class="cls-7" d="M411.7184,120.4707H108.9658V302.5249H411.7184Z"/><path id="Path-10" class="cls-8" d="M260.5114,343.1674a7.9915,7.9915,0,1,0-7.938-8.0446l0,.0531a7.965,7.965,0,0,0,7.9381,7.9915Z"/><path id="Path-11" class="cls-1" d="M142.3475,100.6441a8.6661,8.6661,0,1,0-10.8761-5.594,8.6271,8.6271,0,0,0,10.8357,5.607Z"/><path id="Path-12" class="cls-1" d="M161.1808,72.2933a5.8946,5.8946,0,1,0-7.3941-3.8055,5.8376,5.8376,0,0,0,7.3126,3.8316Z"/><path id="Path-13" class="cls-1" d="M477.5912,189.3879a13.2544,13.2544,0,0,0,.7992-18.6468,13.049,13.049,0,0,0-18.4286-.97q-.0522.0471-.1041.0947a13.3191,13.3191,0,0,0-.7991,18.6849,13.08,13.08,0,0,0,18.4757.8893Z"/><path id="Path-15" class="cls-9" d="M417.5788,78.8007a5.556,5.556,0,1,0-5.5178-5.594l0,.038A5.556,5.556,0,0,0,417.5788,78.8007Z"/><path id="Path-16" class="cls-10" d="M394.099,153.8447v23.2515a6.1953,6.1953,0,0,1-6.111,6.2785q-.0461.0006-.0919.0006H132.4418a6.2144,6.2144,0,0,1-6.2147-6.214q0-.0326,0-.0651V153.8447a6.2144,6.2144,0,0,1,6.1494-6.2787q.0324,0,.065,0H387.8961a6.1954,6.1954,0,0,1,6.2035,6.1871Q394.1,153.7989,394.099,153.8447Z"/><path id="Path-17" class="cls-11" d="M162.1283,147.5657v36.1521H132.0955a6.2145,6.2145,0,0,1-6.2147-6.2141q0-.0324,0-.065V154.1872a6.2145,6.2145,0,0,1,6.1494-6.2787q.0324,0,.065,0h30.0328Z"/><path id="Path-18" class="cls-10" d="M394.099,202.4788V225.73a6.1953,6.1953,0,0,1-6.111,6.2784c-.0307,0-.0613.0006-.0919.0006H132.4418a6.2143,6.2143,0,0,1-6.2147-6.214q0-.0326,0-.065V202.4788a6.2144,6.2144,0,0,1,6.1494-6.2787q.0324,0,.065,0H387.8961a6.1954,6.1954,0,0,1,6.2035,6.1872Q394.1,202.4328,394.099,202.4788Z"/><path id="Path-19" class="cls-12" d="M162.1283,196.2v36.1521H132.0955a6.2143,6.2143,0,0,1-6.2147-6.214q0-.0326,0-.065V202.8213a6.2373,6.2373,0,0,1,6.1952-6.279l.0192,0h30.0328Z"/><path id="Path-20" class="cls-7" d="M142.7965,221.9286a2.6409,2.6409,0,0,1-1.7239-.685l-5.5408-5.556a2.7666,2.7666,0,0,1,0-3.8435,2.7247,2.7247,0,0,1,3.8055,0l3.4516,3.463,8.2921-8.3455a2.7249,2.7249,0,0,1,3.8055,0,2.7667,2.7667,0,0,1,0,3.8436l-10.3623,10.0921A1.9028,1.9028,0,0,1,142.7965,221.9286Z"/><path id="Path-21" class="cls-10" d="M394.099,251.1128v23.2515a6.1953,6.1953,0,0,1-6.111,6.2785q-.0461.0006-.0919,0H132.4418a6.2143,6.2143,0,0,1-6.2147-6.214q0-.0324,0-.065V251.1128a6.2144,6.2144,0,0,1,6.1494-6.2787q.0324,0,.065,0H387.8961a6.1954,6.1954,0,0,1,6.2035,6.1871Q394.1,251.067,394.099,251.1128Z"/><path id="Path-22" class="cls-11" d="M162.1283,244.8338v36.152H132.0955a6.2067,6.2067,0,0,1-6.2145-6.199c0-.014,0-.028,0-.0419v-23.29a6.2068,6.2068,0,0,1,6.1724-6.2409l.042,0h30.0328Z"/><path id="Path-23" class="cls-10" d="M394.099,299.7469v2.778H125.8811v-2.778a6.2067,6.2067,0,0,1,6.1724-6.2409c.014,0,.028,0,.042,0H387.5536a6.2714,6.2714,0,0,1,6.5395,5.9914Q394.0985,299.6219,394.099,299.7469Z"/><path id="Path-24" class="cls-11" d="M162.1283,293.5059v9.019H125.8811v-2.778a6.2067,6.2067,0,0,1,6.1724-6.2409c.014,0,.028,0,.042,0Z"/><path id="Path-35" class="cls-10" d="M121.7408,134.3607a3.463,3.463,0,1,0-3.4554-3.4706v.0076A3.463,3.463,0,0,0,121.7408,134.3607Z"/><path id="Path-36" class="cls-10" d="M132.7881,134.3607a3.463,3.463,0,1,0-3.4554-3.4706v.0076A3.463,3.463,0,0,0,132.7881,134.3607Z"/><path id="Path-37" class="cls-10" d="M143.8316,134.3607a3.463,3.463,0,1,0-3.4516-3.4744v.0114A3.463,3.463,0,0,0,143.8316,134.3607Z"/><path id="Path-42" class="cls-13" d="M113.7987,63.5026A21.1509,21.1509,0,0,1,93.4318,85.0417H87.91l-15.1915.3424a41.698,41.698,0,1,1,40.7376-42.7279l.3425,8.6879Z"/><path id="Path-45" class="cls-14" d="M65.4691,199.7008v-6.9641"/><path id="Path-46" class="cls-15" d="M65.4691,180.2167v-45.133"/><path id="Path-47" class="cls-14" d="M65.4691,128.8047v-6.926"/><path id="Path-48" class="cls-16" d="M65.1266,217.3963a4.857,4.857,0,1,0-.0153,0Z"/><path id="Path-49" class="cls-16" d="M65.1266,113.1642a4.852,4.852,0,1,0-4.8329-4.871c0,.0127,0,.0253,0,.038A4.8368,4.8368,0,0,0,65.1266,113.1642Z"/><path id="Path-50" class="cls-14" d="M138.31,43.3526h6.9032"/><path id="Path-51" class="cls-17" d="M159.0231,43.3526h83.1954a21.7293,21.7293,0,0,1,21.749,21.71q0,.0954-.0007.191v125.048"/><path id="Path-52" class="cls-14" d="M263.6205,196.9228v6.926"/><path id="Path-53" class="cls-16" d="M127.6088,47.5234a4.186,4.186,0,1,0-4.1441-4.2275c0,.0252,0,.05,0,.0757A4.1555,4.1555,0,0,0,127.6088,47.5234Z"/><path id="Path-54" class="cls-16" d="M263.9668,218.8043a4.1861,4.1861,0,1,0-4.144-4.2277l0,.0417a4.1556,4.1556,0,0,0,4.125,4.1859Z"/><path id="Path-65" class="cls-18" d="M442.8879,347.9576H318.4616a6.3969,6.3969,0,0,1-6.4243-6.3694V263.5335a6.4243,6.4243,0,0,1,6.4072-6.4415H442.8879a6.4277,6.4277,0,0,1,6.4243,6.4312V341.55a6.3936,6.3936,0,0,1-6.38,6.4073Z"/><path id="Path-66" class="cls-7" d="M380.6867,298.6531a13.8594,13.8594,0,1,0-13.8662-13.8525v.01A13.8559,13.8559,0,0,0,380.6867,298.6531Z"/><path id="Path-67" class="cls-7" d="M424.3036,314.86h-86.898a2.299,2.299,0,0,1-2.3674-2.2285q-.0021-.0678,0-.1356a2.32,2.32,0,0,1,2.2741-2.3643c.0311-.0006.0623,0,.0934,0h86.5588a2.32,2.32,0,0,1,2.3675,2.2707c.0006.0312.0007.0623,0,.0935a1.8948,1.8948,0,0,1-2.0284,2.3641Z"/><path id="Path-68" class="cls-7" d="M424.3036,333.1217h-86.898a2.32,2.32,0,0,1-2.3675-2.2707c-.0006-.0311-.0006-.0623,0-.0934a2.2991,2.2991,0,0,1,2.2319-2.3643q.0678-.002.1356,0h86.5588a2.2991,2.2991,0,0,1,2.3675,2.2285q.0019.0678,0,.1357a1.9049,1.9049,0,0,1-2.0284,2.3641Z"/><path id="Path-16-2" data-name="Path-16" class="cls-19" d="M114.0717,57.6759a49.68,49.68,0,0,1-1.7518,5.2593A40.9969,40.9969,0,0,1,89.3371,85.9694L65.6979,62.2827l-3.2841-3.2821L85.6161,38.1611l7.6616-4.3894,20.5745,20.622Z"/><path id="Path-17-2" data-name="Path-17" class="cls-20" d="M68.7625,63.37a4.3694,4.3694,0,0,1-3.5035-1.5224L55.6281,52.201a4.9074,4.9074,0,0,1-.0794-6.94q.0393-.04.0794-.0794a4.8777,4.8777,0,0,1,6.8973-.1078q.0548.053.1079.1078l6.1292,6.1293,17.51-17.5376a4.9134,4.9134,0,0,1,6.9482-.057l.057.057a4.9074,4.9074,0,0,1,.0793,6.94q-.0392.04-.0793.0794L72.2641,61.85A4.3674,4.3674,0,0,1,68.7625,63.37Z"/></svg>