<svg xmlns="http://www.w3.org/2000/svg" width="200.395" height="89.928" viewBox="0 0 200.395 89.928">
  <g id="Group_1" data-name="Group 1" transform="translate(-965 -534.998)">
    <path id="ACTIONABLE_INSIGHTS" data-name="ACTIONABLE INSIGHTS" d="M9.849,13.331h2.2L7.487.586H5.069L.51,13.331H2.689l.916-2.6H8.933Zm-1.5-4.3H4.191L6.278,3.113ZM13.516,6.94a6.355,6.355,0,0,0,6.5,6.5A6.051,6.051,0,0,0,25.93,9.631H23.422a3.556,3.556,0,0,1-3.406,2c-2.527,0-4.358-1.813-4.358-4.688s1.831-4.669,4.358-4.669a3.556,3.556,0,0,1,3.406,2h2.509A6.067,6.067,0,0,0,20.016.44a6.366,6.366,0,0,0-6.5,6.5ZM27.9,2.308h3.4V13.331h2.087V2.308h3.388V.6H27.9ZM39.076,13.331h2.087V.6H39.076ZM56.392,6.94a6.5,6.5,0,1,0-6.5,6.5,6.5,6.5,0,0,0,6.5-6.5Zm-10.858,0c0-2.875,1.831-4.669,4.358-4.669s4.358,1.8,4.358,4.669-1.831,4.706-4.358,4.706S45.534,9.815,45.534,6.94ZM67,.586v9.485L60.717.586H58.63V13.331h2.087v-9.5L67,13.331h2.087V.586ZM80.6,13.331h2.2L78.235.586H75.818L71.259,13.331h2.179l.916-2.6h5.329Zm-1.5-4.3H74.939l2.087-5.914Zm13.042.659c0,1.227-.861,1.941-2.271,1.941h-2.82V7.655H89.8a2.066,2.066,0,0,1,2.34,2.032Zm-.33-5.548c0,1.172-.824,1.813-2.179,1.813H87.048V2.308H89.63c1.355,0,2.179.677,2.179,1.831ZM94.229,9.91A3.165,3.165,0,0,0,91.775,6.8a2.977,2.977,0,0,0,2.161-2.911C93.933,2.088,92.5.6,89.813.6H84.96V13.331h5.09c2.6,0,4.176-1.483,4.176-3.424ZM96.677.6V13.331h6.391V11.646h-4.3V.6ZM112.028.586H105V13.331h7.031v-1.7h-4.944v-3.9h4.395v-1.7h-4.395V2.289h4.944Zm7.694,12.745h2.087V.6h-2.087ZM133.1.586v9.485L126.821.586h-2.087V13.331h2.087v-9.5l6.281,9.5h2.087V.586Zm13.6,9.137c0-4.651-6.738-2.857-6.738-5.731,0-1.227.934-1.813,2.142-1.776A1.991,1.991,0,0,1,144.247,3.9h2.307c-.183-2.179-1.9-3.461-4.34-3.461-2.6,0-4.376,1.392-4.376,3.626,0,4.688,6.757,2.692,6.757,5.768,0,1.08-.824,1.868-2.289,1.868a2.042,2.042,0,0,1-2.271-1.886H137.8c0,2.252,1.959,3.644,4.5,3.644,2.844,0,4.4-1.831,4.4-3.735Zm2.647,3.607h2.087V.6h-2.087ZM160.163.44a6.366,6.366,0,0,0-6.5,6.5,6.355,6.355,0,0,0,6.5,6.5,6.274,6.274,0,0,0,6.3-5.457V6.354H159.45V8.021h4.779a3.853,3.853,0,0,1-4.065,3.534,4.273,4.273,0,0,1-4.358-4.614,4.258,4.258,0,0,1,4.358-4.6,3.618,3.618,0,0,1,3.406,1.923h2.509A6.067,6.067,0,0,0,160.163.44ZM176.78,13.331h2.087V.6H176.78V6.062h-5.988V.6H168.7V13.331h2.087V7.764h5.988Zm4.359-11.023h3.406V13.331h2.087V2.308h3.388V.6h-8.881ZM200.9,9.724c0-4.651-6.738-2.857-6.738-5.731,0-1.227.934-1.813,2.142-1.776A1.991,1.991,0,0,1,198.452,3.9h2.307c-.183-2.179-1.9-3.461-4.34-3.461-2.6,0-4.376,1.392-4.376,3.626,0,4.688,6.757,2.692,6.757,5.768,0,1.08-.824,1.868-2.289,1.868a2.042,2.042,0,0,1-2.271-1.886h-2.234c0,2.252,1.959,3.644,4.5,3.644,2.843,0,4.4-1.831,4.4-3.735Z" transform="translate(964.49 611.467)" fill="#e63381"/>
    <g id="LOGO" transform="translate(966.221 535)">
      <path id="Path_1" data-name="Path 1" d="M34.452,29.527a12.623,12.623,0,0,0-1.49-15.985,6.267,6.267,0,0,1-11.309-3.506,12.644,12.644,0,0,0-9.524,8.1A19.283,19.283,0,0,1,34.452,29.527Z" transform="translate(2.678 0.525)" fill="#e92c79"/>
      <path id="Path_2" data-name="Path 2" d="M31.243,14.717a6.274,6.274,0,1,0-11.318-3.728c0,.076.01.149.013.222a12.743,12.743,0,0,1,2.349-.222A12.561,12.561,0,0,1,31.243,14.717Z" transform="translate(4.398 -0.65)" fill="#e92c79"/>
      <path id="Path_3" data-name="Path 3" d="M23.677,28.23A20.733,20.733,0,0,1,27.69,31.4a10.173,10.173,0,1,0-13.331-5.367,14.279,14.279,0,0,1,9.318,2.2Z" transform="translate(2.989 0.928)" fill="#fff" opacity="0.35"/>
      <path id="Path_4" data-name="Path 4" d="M25.87,15.1a4.442,4.442,0,1,0-4.442-4.442A4.442,4.442,0,0,0,25.87,15.1Z" transform="translate(4.73 -0.319)" fill="#fff" opacity="0.35"/>
      <path id="Path_5" data-name="Path 5" d="M109.423,54.938h-4.7A21.268,21.268,0,0,1,83.482,33.694V16.368h9.666V33.694A11.6,11.6,0,0,0,104.73,45.275h4.695v9.663Z" transform="translate(18.428 1.923)" fill="#703372"/>
      <path id="Path_6" data-name="Path 6" d="M72.31,26.153H62.5V51.094h9.81Z" transform="translate(13.797 4.083)" fill="#703372"/>
      <path id="Path_7" data-name="Path 7" d="M63.822,16.237,53.074,25.9h32.94V16.323Z" transform="translate(11.716 1.894)" fill="#703372"/>
      <path id="Path_8" data-name="Path 8" d="M161.262,42.25c4.518-2.257,7-6.5,7-12.4,0-8.595-5.84-13.442-16.03-13.442H134.986v7.713H152.23c4.242,0,6.721,2.039,6.721,6.059,0,4.077-2.479,6.223-6.721,6.223h-7.438V28.3h-9.806V54.973h9.806V44.121h7.714l5.729,10.852h11.128Z" transform="translate(29.797 1.932)" fill="#703372"/>
      <path id="Path_10" data-name="Path 10" d="M22.27,27.61l1.762,2.69V27.078Z" transform="translate(4.916 4.287)" fill="#1a1a1a"/>
      <path id="Path_11" data-name="Path 11" d="M64.988,18.036a19.4,19.4,0,0,0-9.238,9.1h0l-.425.78L45.689,45.631,34.13,27.131h-.006A19.27,19.27,0,0,0,12.267,16.768a12.653,12.653,0,0,0,.59,9.964,9.612,9.612,0,0,1,11.9,3.443l.1.152c.1.146.209.3.3.45h0l3.11,4.756L38.3,50.871a8.75,8.75,0,0,0,14.869-.361L64.946,30.444c.013-.022.029-.044.041-.067.063-.1.127-.2.193-.3A9.8,9.8,0,0,1,71.756,26,8.486,8.486,0,0,1,73,25.9V16.235a19.18,19.18,0,0,0-8.012,1.8Z" transform="translate(2.542 1.893)" fill="#703372"/>
      <path id="Path_12" data-name="Path 12" d="M13.092,11.328a5.168,5.168,0,1,0-6.752-2.8,5.168,5.168,0,0,0,6.752,2.8Z" transform="translate(1.312 -1.385)" fill="#703372"/>
      <path id="Path_13" data-name="Path 13" d="M26.2,16.128a6.263,6.263,0,0,0,5.041-2.549,12.589,12.589,0,0,0-8.959-3.728,12.744,12.744,0,0,0-2.349.222A6.273,6.273,0,0,0,26.2,16.128Z" transform="translate(4.4 0.484)" fill="#e92c79"/>
      <path id="Path_14" data-name="Path 14" d="M10.877,10.189A3.871,3.871,0,1,0,7.006,6.318a3.871,3.871,0,0,0,3.871,3.871Z" transform="translate(1.547 -1.15)" fill="#fff" opacity="0.35"/>
      <path id="Path_15" data-name="Path 15" d="M110.082,16.235H100.22l14.349,26.536V55.012h9.806V42.492Z" transform="translate(22.123 1.893)" fill="#703372"/>
      <path id="Path_16" data-name="Path 16" d="M122.664,38.548l11.955-22.313h-9.86l-7.206,13.319Z" transform="translate(25.949 1.893)" fill="#e92c79"/>
      <path id="Path_17" data-name="Path 17" d="M28.511,38.255A9.631,9.631,0,1,1,15.4,26.635a12.653,12.653,0,0,1-.59-9.965A19.3,19.3,0,1,0,34.568,47.22Z" transform="translate(0 1.99)" fill="#703372"/>
    </g>
  </g>
</svg>
