<svg xmlns="http://www.w3.org/2000/svg" width="199.185" height="56.907" viewBox="0 0 199.185 56.907">
  <g id="Group_1" data-name="Group 1" transform="translate(-966.196 -534.998)">
    <g id="LOGO" transform="translate(966.221 535)">
      <path id="Path_1" data-name="Path 1" d="M34.452,29.527a12.623,12.623,0,0,0-1.49-15.985,6.267,6.267,0,0,1-11.309-3.506,12.644,12.644,0,0,0-9.524,8.1A19.283,19.283,0,0,1,34.452,29.527Z" transform="translate(2.678 0.525)" fill="#e92c79"/>
      <path id="Path_2" data-name="Path 2" d="M31.243,14.717a6.274,6.274,0,1,0-11.318-3.728c0,.076.01.149.013.222a12.743,12.743,0,0,1,2.349-.222A12.561,12.561,0,0,1,31.243,14.717Z" transform="translate(4.398 -0.65)" fill="#e92c79"/>
      <path id="Path_3" data-name="Path 3" d="M23.677,28.23A20.733,20.733,0,0,1,27.69,31.4a10.173,10.173,0,1,0-13.331-5.367,14.279,14.279,0,0,1,9.318,2.2Z" transform="translate(2.989 0.928)" fill="#fff" opacity="0.35"/>
      <path id="Path_4" data-name="Path 4" d="M25.87,15.1a4.442,4.442,0,1,0-4.442-4.442A4.442,4.442,0,0,0,25.87,15.1Z" transform="translate(4.73 -0.319)" fill="#fff" opacity="0.35"/>
      <path id="Path_5" data-name="Path 5" d="M109.423,54.938h-4.7A21.268,21.268,0,0,1,83.482,33.694V16.368h9.666V33.694A11.6,11.6,0,0,0,104.73,45.275h4.695v9.663Z" transform="translate(18.428 1.923)" fill="#703372"/>
      <path id="Path_6" data-name="Path 6" d="M72.31,26.153H62.5V51.094h9.81Z" transform="translate(13.797 4.083)" fill="#703372"/>
      <path id="Path_7" data-name="Path 7" d="M63.822,16.237,53.074,25.9h32.94V16.323Z" transform="translate(11.716 1.894)" fill="#703372"/>
      <path id="Path_8" data-name="Path 8" d="M161.262,42.25c4.518-2.257,7-6.5,7-12.4,0-8.595-5.84-13.442-16.03-13.442H134.986v7.713H152.23c4.242,0,6.721,2.039,6.721,6.059,0,4.077-2.479,6.223-6.721,6.223h-7.438V28.3h-9.806V54.973h9.806V44.121h7.714l5.729,10.852h11.128Z" transform="translate(29.797 1.932)" fill="#703372"/>
      <path id="Path_9" data-name="Path 9" d="M55.328,18.029V30.358c.06-.092.117-.184.181-.276A9.623,9.623,0,0,1,63.323,25.9V16.237a19.175,19.175,0,0,0-7.995,1.792Z" transform="translate(12.213 1.894)" fill="#1a1a1a"/>
      <path id="Path_10" data-name="Path 10" d="M22.27,27.61l1.762,2.69V27.078Z" transform="translate(4.916 4.287)" fill="#1a1a1a"/>
      <path id="Path_11" data-name="Path 11" d="M64.988,18.036a19.4,19.4,0,0,0-9.238,9.1h0l-.425.78L45.689,45.631,34.13,27.131h-.006A19.27,19.27,0,0,0,12.267,16.768a12.653,12.653,0,0,0,.59,9.964,9.612,9.612,0,0,1,11.9,3.443l.1.152c.1.146.209.3.3.45h0l3.11,4.756L38.3,50.871a8.75,8.75,0,0,0,14.869-.361L64.946,30.444c.013-.022.029-.044.041-.067.063-.1.127-.2.193-.3A9.623,9.623,0,0,1,73,25.9V16.235a19.18,19.18,0,0,0-8.012,1.8Z" transform="translate(2.542 1.893)" fill="#703372"/>
      <path id="Path_12" data-name="Path 12" d="M13.092,11.328a5.168,5.168,0,1,0-6.752-2.8,5.168,5.168,0,0,0,6.752,2.8Z" transform="translate(1.312 -1.385)" fill="#703372"/>
      <path id="Path_13" data-name="Path 13" d="M26.2,16.128a6.263,6.263,0,0,0,5.041-2.549,12.589,12.589,0,0,0-8.959-3.728,12.744,12.744,0,0,0-2.349.222A6.273,6.273,0,0,0,26.2,16.128Z" transform="translate(4.4 0.484)" fill="#e92c79"/>
      <path id="Path_14" data-name="Path 14" d="M10.877,10.189A3.871,3.871,0,1,0,7.006,6.318a3.871,3.871,0,0,0,3.871,3.871Z" transform="translate(1.547 -1.15)" fill="#fff" opacity="0.35"/>
      <path id="Path_15" data-name="Path 15" d="M110.082,16.235H100.22l14.349,26.536V55.012h9.806V42.492Z" transform="translate(22.123 1.893)" fill="#703372"/>
      <path id="Path_16" data-name="Path 16" d="M122.664,38.548l11.955-22.313h-9.86l-7.206,13.319Z" transform="translate(25.949 1.893)" fill="#e92c79"/>
      <path id="Path_17" data-name="Path 17" d="M28.511,38.255A9.631,9.631,0,1,1,15.4,26.635a12.653,12.653,0,0,1-.59-9.965A19.3,19.3,0,1,0,34.568,47.22Z" transform="translate(0 1.99)" fill="#703372"/>
    </g>
  </g>
</svg>
