<svg xmlns="http://www.w3.org/2000/svg" xmlns:xlink="http://www.w3.org/1999/xlink" width="100" height="100" viewBox="0 0 100 100">
  <defs>
    <clipPath id="clip-path">
      <rect id="Rectangle_73" data-name="Rectangle 73" width="100" height="100" fill="#fff"/>
    </clipPath>
  </defs>
  <g id="Mask_Group_40" data-name="Mask Group 40" clip-path="url(#clip-path)">
    <path id="Vector" d="M20.25,20.5a20,20,0,1,1,20,20A19.994,19.994,0,0,1,20.25,20.5Zm30,51a16.6,16.6,0,0,1,6-12.3V58a19.019,19.019,0,0,1,.9-5.6,74.719,74.719,0,0,0-16.9-1.9c-22.1,0-40,8.95-40,20v10h50Zm50,.5V89.5c0,3-3,6-6.5,6H66.25c-3,0-6-3-6-6.5V71.5a6.452,6.452,0,0,1,6-6V58c0-7,7-12.5,14-12.5s14,5.5,14,12.5v7.5C97.25,65.5,100.25,68.5,100.25,72ZM87.75,58c0-4-3.5-6.5-7.5-6.5s-7.5,2.5-7.5,6.5v7.5h15Z" transform="translate(-0.25 2.5)" fill="#703372"/>
  </g>
</svg>
