<svg xmlns="http://www.w3.org/2000/svg" xmlns:xlink="http://www.w3.org/1999/xlink" width="80" height="80" viewBox="0 0 80 80">
  <defs>
    <clipPath id="clip-path">
      <rect id="Rectangle_6" data-name="Rectangle 6" width="80" height="80" fill="#fff"/>
    </clipPath>
  </defs>
  <g id="Mask_Group_3" data-name="Mask Group 3" clip-path="url(#clip-path)">
    <g id="Group-2" transform="translate(10.937 11.232)">
      <g id="Combined-Shape-Copy-6">
        <g id="Combined-Shape">
          <ellipse id="Mask" cx="29" cy="28.5" rx="29" ry="28.5" transform="translate(0.063 -0.232)" fill="#fcd700"/>
          <path id="Path_55" data-name="Path 55" d="M24.5,6.056a4.761,4.761,0,0,1,2.471,1.459,5.347,5.347,0,0,1,.358.628,10.475,10.475,0,0,1,.876,3.642,10.025,10.025,0,0,1,4.731,7.738c0,2.8.911,35.851.911,35.851H17.9l-.008-30.42c-7.12.6-6.9-6.1-6.9-6.1A19.5,19.5,0,0,0,15.4,14.02c1.691-2.623,6.266-3.5,6.266-3.5l-1.09-3.35c2.326-.522,3.918,3.35,3.918,3.35Z" transform="translate(4.822 2.706)" fill="#fff"/>
        </g>
        <ellipse id="Oval" cx="1.423" cy="2.306" rx="1.423" ry="2.306" transform="translate(27.917 8.762)" fill="#d8d8d8"/>
        <path id="Oval-2" data-name="Oval" d="M11.07,15.392c.111,0,.318.061.318-.238s.018-.279-.09-.283c-.238.174-.311.151-.311.283S10.959,15.392,11.07,15.392Z" transform="translate(4.821 6.439)" fill="#d8d8d8" fill-rule="evenodd"/>
        <path id="Oval-3" data-name="Oval" d="M0,.5C0,.778.808,1,1.8,1S3.6.776,3.6.5,2.8,0,1.8,0,0,.224,0,.5Z" transform="translate(25.852 9.694) rotate(71)" fill="#d8d8d8" fill-rule="evenodd"/>
        <path id="Path" d="M15.915,14.451h1.726c.832,0,1.071-1.071,1.071-1.071H16.868C16.034,13.38,15.915,14.451,15.915,14.451Z" transform="translate(6.91 5.807)" fill="#d8d8d8"/>
      </g>
    </g>
  </g>
</svg>
