<svg xmlns="http://www.w3.org/2000/svg" xmlns:xlink="http://www.w3.org/1999/xlink" width="307" height="140" viewBox="0 0 307 140">
  <defs>
    <clipPath id="clip-path">
      <rect id="Rectangle_1" data-name="Rectangle 1" width="307" height="140" transform="translate(0 2)" fill="#fff"/>
    </clipPath>
  </defs>
  <g id="Mask_Group_1" data-name="Mask Group 1" transform="translate(0 -2)" clip-path="url(#clip-path)">
    <g id="Logos" transform="translate(35.195 39.715)">
      <g id="Horizontal-Lock-up" transform="translate(11.765 3.16)">
        <g id="Logo" transform="translate(-0.023 -0.088)">
          <g id="AlpacaLogoText" transform="translate(73.007 9.491)">
            <path id="Path_54" data-name="Path 54" d="M5.622,44.913c.871,0,1.113-.436,1.452-1.5l2.759-8.131H22.222l2.807,8.131c.339,1.065.678,1.5,1.549,1.5h.481A17.928,17.928,0,0,0,30.4,44.72a1,1,0,0,0,.581-.92,4.451,4.451,0,0,0-.339-1.5L20.916,13.892c-.823-2.42-1.307-3.485-3.92-3.485h-1.21c-2.855,0-3.533,1.162-4.356,3.581L1.509,42.4a4.2,4.2,0,0,0-.339,1.452.809.809,0,0,0,.581.871A31.34,31.34,0,0,0,5.622,44.913ZM20.916,30.491H11.236c3-9.1,4.017-12.1,4.888-15.148C17.044,18.392,17.915,21.3,20.916,30.491ZM42.645,45.01c.871,0,1.258-.242,1.4-.92a12.951,12.951,0,0,0,.194-2.178,1,1,0,0,0-.92-1.113c-1.4-.242-2.371-.678-2.759-1.355a6.02,6.02,0,0,1-.484-2.9V9.826c0-.823-.194-1.258-1.065-1.258H35.87c-.871,0-1.162.484-1.162,1.258V37.218c0,2.42.29,4.017.92,5.033C36.693,43.945,38.532,45.01,42.645,45.01Zm9.873,11.083c.871,0,1.355-.29,1.355-1.258V44.623a12.468,12.468,0,0,0,4.646.774c7.937,0,11.76-2.517,11.76-13.212,0-9.486-3.1-12.244-10.163-12.244a29.016,29.016,0,0,0-9.776,1.645,2.894,2.894,0,0,0-1.6,1.4,5.887,5.887,0,0,0-.242,1.936V54.835c0,1.016.339,1.258,1.113,1.258Zm5.566-15.342a9.951,9.951,0,0,1-3.485-.532c-.532-.194-.726-.532-.726-1.549V27.3a3.089,3.089,0,0,1,.145-1.258,1.432,1.432,0,0,1,.774-.726,13.16,13.16,0,0,1,4.743-.823c4.307,0,5.324,2.275,5.324,7.743C64.859,38.864,63.552,40.751,58.084,40.751Zm25.5,4.646a30.492,30.492,0,0,0,9.389-1.4,3.293,3.293,0,0,0,1.549-1.113,3.4,3.4,0,0,0,.532-2.178V28.168c0-3.291-.387-5.178-1.645-6.388-1.355-1.355-3.533-1.887-7.695-1.887a31.064,31.064,0,0,0-8.131,1.113,1.217,1.217,0,0,0-.968,1.258,13.236,13.236,0,0,0,.387,2.371.928.928,0,0,0,.92.774c.339,0,1.307-.194,1.936-.29a27.083,27.083,0,0,1,5.082-.532c3.194,0,4.114.629,4.5,1.645a8.46,8.46,0,0,1,.29,2.613v1.6c-1.258-.145-3.194-.194-4.694-.194-3.194,0-6.1.484-7.647,1.452-1.887,1.21-2.71,3-2.71,5.9C74.684,41.768,76.184,45.4,83.588,45.4Zm.678-4.21c-3.63,0-4.452-1.5-4.452-3.726,0-1.355.339-2.081,1.065-2.517.871-.581,2.371-.823,4.791-.823,1.355,0,3.049.1,4.065.194V38.09a5.482,5.482,0,0,1-.194,1.645,1.374,1.374,0,0,1-.823.823A12.964,12.964,0,0,1,84.266,41.187Zm27.247,4.21a21.252,21.252,0,0,0,7.017-1.016,1.067,1.067,0,0,0,.823-1.162,13.745,13.745,0,0,0-.484-2.371.862.862,0,0,0-.823-.678,7.106,7.106,0,0,0-1.4.242,21.029,21.029,0,0,1-4.549.436c-4.694,0-5.856-2.759-5.856-8.227,0-4.936.871-8.082,6.243-8.082a18.667,18.667,0,0,1,3.678.339c.436.048,1.065.194,1.452.194a.871.871,0,0,0,.871-.726,17.5,17.5,0,0,0,.484-2.759,1.063,1.063,0,0,0-.823-1.065,21.9,21.9,0,0,0-5.711-.629c-8.566,0-11.615,4.162-11.615,13.164C100.817,42.494,104.689,45.4,111.513,45.4Zm19.7,0a30.492,30.492,0,0,0,9.389-1.4,3.293,3.293,0,0,0,1.549-1.113,3.4,3.4,0,0,0,.532-2.178V28.168c0-3.291-.387-5.178-1.645-6.388-1.355-1.355-3.533-1.887-7.695-1.887a31.065,31.065,0,0,0-8.131,1.113,1.217,1.217,0,0,0-.968,1.258,13.236,13.236,0,0,0,.387,2.371.928.928,0,0,0,.92.774c.339,0,1.307-.194,1.936-.29a27.083,27.083,0,0,1,5.082-.532c3.194,0,4.114.629,4.5,1.645a8.46,8.46,0,0,1,.29,2.613v1.6c-1.258-.145-3.194-.194-4.694-.194-3.194,0-6.1.484-7.647,1.452-1.887,1.21-2.71,3-2.71,5.9C122.305,41.768,123.806,45.4,131.21,45.4Zm.678-4.21c-3.63,0-4.452-1.5-4.452-3.726,0-1.355.339-2.081,1.065-2.517.871-.581,2.371-.823,4.791-.823,1.355,0,3.049.1,4.065.194V38.09a5.483,5.483,0,0,1-.194,1.645,1.374,1.374,0,0,1-.823.823A12.964,12.964,0,0,1,131.888,41.187Z" transform="translate(-1.17 -8.568)" fill="#373737"/>
          </g>
          <g id="Group-2" transform="translate(0 0)">
            <g id="Combined-Shape-Copy-6">
              <g id="Combined-Shape">
                <ellipse id="Mask" cx="29" cy="28.5" rx="29" ry="28.5" transform="translate(0.063 -0.232)" fill="#fcd700"/>
                <path id="Path_55" data-name="Path 55" d="M24.5,6.056a4.761,4.761,0,0,1,2.471,1.459,5.347,5.347,0,0,1,.358.628,10.475,10.475,0,0,1,.876,3.642,10.025,10.025,0,0,1,4.731,7.738c0,2.8.911,35.851.911,35.851H17.9l-.008-30.42c-7.12.6-6.9-6.1-6.9-6.1A19.5,19.5,0,0,0,15.4,14.02c1.691-2.623,6.266-3.5,6.266-3.5l-1.09-3.35c2.326-.522,3.918,3.35,3.918,3.35Z" transform="translate(4.822 2.706)" fill="#fff"/>
              </g>
              <ellipse id="Oval" cx="1.423" cy="2.306" rx="1.423" ry="2.306" transform="translate(27.917 8.762)" fill="#d8d8d8"/>
              <path id="Oval-2" data-name="Oval" d="M11.07,15.392c.111,0,.318.061.318-.238s.018-.279-.09-.283c-.238.174-.311.151-.311.283S10.959,15.392,11.07,15.392Z" transform="translate(4.821 6.439)" fill="#d8d8d8" fill-rule="evenodd"/>
              <path id="Oval-3" data-name="Oval" d="M0,.5C0,.778.808,1,1.8,1s1.8-.224,1.8-.5S2.8,0,1.8,0,0,.224,0,.5Z" transform="translate(25.852 9.694) rotate(71)" fill="#d8d8d8" fill-rule="evenodd"/>
              <path id="Path" d="M15.915,14.451h1.726c.832,0,1.071-1.071,1.071-1.071H16.868C16.034,13.38,15.915,14.451,15.915,14.451Z" transform="translate(6.91 5.807)" fill="#d8d8d8"/>
            </g>
          </g>
        </g>
      </g>
    </g>
  </g>
</svg>
