<svg xmlns="http://www.w3.org/2000/svg" xmlns:xlink="http://www.w3.org/1999/xlink" width="307" height="140" viewBox="0 0 307 140">
  <defs>
    <clipPath id="clip-path">
      <rect id="Rectangle_1" data-name="Rectangle 1" width="307" height="140" fill="#fff"/>
    </clipPath>
  </defs>
  <g id="Mask_Group_1" data-name="Mask Group 1" clip-path="url(#clip-path)">
    <g id="Group_1" data-name="Group 1">
      <g id="td_ameritradelogo" transform="translate(-10.074 12.569)">
        <rect id="Rectangle_2" data-name="Rectangle 2" width="328.969" height="115.583" fill="none"/>
        <path id="Path_29" data-name="Path 29" d="M23.7,23.69H82.291V76.11H23.7V23.69Z" transform="translate(7.888 7.885)" fill="#43b049"/>
        <path id="Path_30" data-name="Path 30" d="M37.681,39.625h0c7.837,0,13.648-1.706,13.648-15.7,0-10.663-3.892-14.834-12.062-14.834H5.36v4.358h9.956V39.625H22.1v-26.2H37.148c4.612,0,6.8,2.372,6.8,10.556s-1.906,11.276-6.464,11.276h-6.6V15.008H24.033V39.625Z" transform="translate(32.372 33.054)" fill="#fff"/>
        <path id="Path_31" data-name="Path 31" d="M182.7,30.921V28.056h0a4.985,4.985,0,0,1-5.158,3.305c-5.131,0-7.024-4-7.024-8.663,0-4.345,2-8.144,6.811-8.144a5.4,5.4,0,0,1,4.825,2.439h0V7.81h7.73V30.921ZM180.4,19.3c-1.626,0-1.906,1.666-1.906,3.332s.28,3.479,1.959,3.479,1.906-1.786,1.906-3.292C182.369,20.965,182.116,19.3,180.4,19.3Z" transform="translate(87.343 32.628)" fill="#183129"/>
        <path id="Path_32" data-name="Path 32" d="M62.087,9.06H73.416l7.637,21.432H72.47l-1.413-4.638H64.073L62.74,30.492H54.57ZM65.219,20.7h4.758l-2.332-7.024h0Z" transform="translate(48.751 33.044)" fill="#183129"/>
        <path id="Path_33" data-name="Path 33" d="M75.37,13.229h7.3v2.759h0a5.411,5.411,0,0,1,5.531-3.119c2.146,0,4.385.826,5.011,2.732h0c.52-1.839,3.225-2.732,5.131-2.732,5.651,0,5.651,3.652,5.651,6.784v9.583h-7.73v-9.21c0-.92,0-2.173-1.333-2.173S93.6,19.106,93.6,20.026v9.21h-7.73v-9.21c0-.92,0-2.173-1.333-2.173s-1.333,1.253-1.333,2.173v9.21h-7.73V13.242Z" transform="translate(55.674 34.3)" fill="#183129"/>
        <path id="Path_34" data-name="Path 34" d="M105.9,23.083c.12,2,2,2.452,4.265,2.452a11.9,11.9,0,0,0,5.251-1.013v4.145a24.671,24.671,0,0,1-7.211.92c-6.478,0-9.916-3.132-9.916-8.65s3.439-8.077,9.916-8.077c6.2,0,8.384,3.865,8.384,9.33v.946H105.927Zm4-3.372c0-1.226-.187-3.159-1.933-3.159s-2.173,1.906-2.079,3.159h4Z" transform="translate(63.302 34.309)" fill="#183129"/>
        <path id="Path_35" data-name="Path 35" d="M120.834,13.223v3.625h0c.92-2.266,2.452-4,4.878-4a4.985,4.985,0,0,1,1.253.147v6.411a5.331,5.331,0,0,0-1.746-.24,4.105,4.105,0,0,0-4,4.238v5.8h-7.73V13.21h7.344Z" transform="translate(68.361 34.305)" fill="#183129"/>
        <path id="Path_36" data-name="Path 36" d="M133.08,13.2h-7.73V7.87h7.73Zm-7.73,1.679h7.73V30.875h-7.73V14.881Z" transform="translate(72.309 32.648)" fill="#183129"/>
        <path id="Path_37" data-name="Path 37" d="M135.4,14.638V10.959l7.73-2.359v6.051h3.505v4.612h-3.505v4.532a1.759,1.759,0,0,0,1.693,2.093,5.531,5.531,0,0,0,1.813-.28v4.612a18.66,18.66,0,0,1-5.331.826c-4,0-5.931-2-5.931-6.224V19.249H132.64V14.638h2.732Z" transform="translate(74.735 32.891)" fill="#183129"/>
        <path id="Path_38" data-name="Path 38" d="M152.074,13.223v3.625h0c.92-2.266,2.466-4,4.878-4A4.972,4.972,0,0,1,158.2,13v6.411a5.331,5.331,0,0,0-1.746-.24,4.118,4.118,0,0,0-4,4.238v5.8h-7.73V13.21h7.251Z" transform="translate(78.759 34.305)" fill="#183129"/>
        <path id="Path_39" data-name="Path 39" d="M157.2,13.781a20.712,20.712,0,0,1,6.664-.92c4.425,0,9.8.8,9.8,6.664v9.73h-7.184V26.923h0a5.811,5.811,0,0,1-5.225,2.666c-2.972,0-5.864-1.333-5.864-4.692,0-4.918,4.412-5.891,8.264-5.891,1.066,0,2.306.16,3.012.213,0-2.053-2.146-2.306-4.078-2.306a12.475,12.475,0,0,0-5.331,1.333V13.781Zm9.423,8.41h-.773c-1.6,0-3.439.147-3.439,1.813a1.466,1.466,0,0,0,1.786,1.533,2.586,2.586,0,0,0,2.386-2.852v-.493Z" transform="translate(82.307 34.307)" fill="#183129"/>
        <path id="Path_40" data-name="Path 40" d="M194.05,23.033c.12,2,2,2.452,4.265,2.452a12,12,0,0,0,5.251-1.013v4.145a24.7,24.7,0,0,1-7.211.92c-6.478,0-9.916-3.132-9.916-8.65s3.439-8.077,9.916-8.077c6.2,0,8.383,3.865,8.383,9.33v.946H194.077Zm4-3.372c0-1.226-.187-3.159-1.933-3.159s-2.173,1.906-2.079,3.159h4Z" transform="translate(92.641 34.292)" fill="#183129"/>
      </g>
    </g>
  </g>
</svg>
