<svg width="43" height="43" viewBox="0 0 43 43" fill="none" xmlns="http://www.w3.org/2000/svg">
<path d="M0 21.5C0 9.62588 9.62588 0 21.5 0C33.3741 0 43 9.62588 43 21.5C43 33.3741 33.3741 43 21.5 43C9.62588 43 0 33.3741 0 21.5Z" fill="#0A0A0A"/>
<path d="M21.6705 15.0005C20.6089 15.0005 18.9657 13.7935 17.2352 13.8371C14.9521 13.8662 12.858 15.1604 11.6801 17.2108C9.30978 21.3262 11.0694 27.4048 13.3815 30.7495C14.5158 32.3782 15.8537 34.2105 17.6278 34.1523C19.3292 34.0796 19.9691 33.0471 22.034 33.0471C24.0845 33.0471 24.6661 34.1523 26.4694 34.1087C28.3017 34.0796 29.465 32.4509 30.5847 30.8076C31.879 28.9172 32.417 27.0849 32.4461 26.9831C32.4025 26.9685 28.8833 25.6161 28.8397 21.5444C28.8106 18.1415 31.6172 16.5128 31.7481 16.4401C30.1485 14.0989 27.6909 13.8371 26.8329 13.7789C24.5934 13.6044 22.7175 15.0005 21.6705 15.0005ZM25.4514 11.5685C26.3966 10.4343 27.022 8.84918 26.8475 7.27865C25.495 7.33681 23.8663 8.18025 22.892 9.31453C22.0195 10.3179 21.2633 11.9321 21.4669 13.4735C22.9647 13.5899 24.5062 12.7028 25.4514 11.5685Z" fill="white"/>
</svg>
