<svg width="660" height="691" viewBox="0 0 660 691" fill="none" xmlns="http://www.w3.org/2000/svg">
<path d="M620.78 416.687C610.15 433.024 600.527 448.456 591.536 462.947C590.415 464.755 589.303 466.548 588.201 468.326C580.459 480.813 573.171 492.568 566.073 503.588C549.854 528.77 534.688 550.017 517.544 567.173C483.365 601.375 441.157 619.494 366.534 619.494C291.593 619.494 207.141 617.484 141.447 600.671C108.603 592.265 80.5901 580.193 60.81 562.94C41.0844 545.734 29.5 523.343 29.5 494.078C29.5 465.053 51.6202 433.011 87.8004 401.123C123.893 369.311 173.63 337.957 228.105 310.285C282.571 282.619 341.714 258.662 396.584 241.626C451.479 224.581 501.995 214.494 539.235 214.494C576.522 214.494 603.428 221.688 622.037 233.706C640.607 245.698 651.035 262.569 655.261 282.22C663.743 321.661 647.231 372.355 620.78 416.687Z" stroke="black" stroke-width="3"/>
<path d="M15 472.995C15 438.753 42.7583 410.995 77 410.995H659V682.995H15V472.995Z" fill="url(#paint0_linear_80_969)"/>
<path d="M15 472.995C15 438.753 42.7583 410.995 77 410.995H659V682.995H15V472.995Z" fill="url(#paint1_linear_80_969)" fill-opacity="0.2"/>
<path opacity="0.3" d="M340.5 582.998C466.697 582.998 569 483.829 569 361.498C569 239.167 466.697 139.998 340.5 139.998C214.303 139.998 112 239.167 112 361.498C112 483.829 214.303 582.998 340.5 582.998Z" stroke="#703372" stroke-opacity="0.5" stroke-width="1.16092"/>
<path opacity="0.2" d="M340 626.998C490.774 626.998 613 508.13 613 361.498C613 214.866 490.774 95.998 340 95.998C189.226 95.998 67 214.866 67 361.498C67 508.13 189.226 626.998 340 626.998Z" stroke="#703372" stroke-opacity="0.5" stroke-width="1.16092"/>
<path opacity="0.2" d="M340.5 670.998C516.403 670.998 659 532.43 659 361.498C659 190.566 516.403 51.998 340.5 51.998C164.597 51.998 22 190.566 22 361.498C22 532.43 164.597 670.998 340.5 670.998Z" stroke="#703372" stroke-opacity="0.5" stroke-width="1.16092"/>
<g filter="url(#filter0_d_80_969)">
<circle cx="118.5" cy="205.494" r="14.5" fill="white"/>
</g>
<g clip-path="url(#clip0_80_969)">
<path d="M118.5 192.578C125.634 192.578 131.416 198.36 131.416 205.494C131.416 212.628 125.634 218.411 118.5 218.411C111.366 218.411 105.583 212.628 105.583 205.494C105.583 198.36 111.366 192.578 118.5 192.578ZM118.5 197.744C118.183 197.744 117.878 197.86 117.642 198.071C117.405 198.281 117.254 198.571 117.217 198.885L117.208 199.036V200.328H115.916C115.077 200.326 114.27 200.651 113.666 201.234C113.062 201.817 112.709 202.612 112.681 203.451C112.654 204.29 112.954 205.107 113.518 205.728C114.083 206.349 114.867 206.726 115.705 206.78L115.916 206.786H117.208V208.078H114.625C114.295 208.078 113.979 208.204 113.739 208.43C113.5 208.656 113.356 208.965 113.337 209.294C113.317 209.622 113.424 209.946 113.636 210.198C113.847 210.451 114.147 210.613 114.474 210.652L114.625 210.661H117.208V211.953C117.208 212.282 117.334 212.599 117.56 212.838C117.786 213.077 118.095 213.221 118.424 213.241C118.753 213.26 119.076 213.153 119.329 212.942C119.581 212.73 119.743 212.431 119.782 212.104L119.791 211.953V210.661H121.083C121.922 210.663 122.73 210.338 123.334 209.755C123.938 209.172 124.291 208.377 124.318 207.538C124.346 206.699 124.046 205.882 123.481 205.261C122.917 204.639 122.133 204.262 121.295 204.209L121.083 204.203H119.791V202.911H122.375C122.704 202.911 123.021 202.785 123.26 202.559C123.499 202.333 123.643 202.024 123.663 201.695C123.682 201.366 123.575 201.043 123.364 200.79C123.152 200.538 122.853 200.376 122.526 200.337L122.375 200.328H119.791V199.036C119.791 198.693 119.655 198.365 119.413 198.123C119.171 197.88 118.842 197.744 118.5 197.744ZM121.083 206.786C121.254 206.786 121.419 206.854 121.54 206.975C121.661 207.096 121.729 207.261 121.729 207.432C121.729 207.603 121.661 207.767 121.54 207.888C121.419 208.01 121.254 208.078 121.083 208.078H119.791V206.786H121.083ZM117.208 202.911V204.203H115.916C115.745 204.203 115.581 204.135 115.46 204.013C115.339 203.892 115.271 203.728 115.271 203.557C115.271 203.386 115.339 203.221 115.46 203.1C115.581 202.979 115.745 202.911 115.916 202.911H117.208Z" fill="#7DD30F"/>
</g>
<g filter="url(#filter1_d_80_969)">
<circle cx="511.5" cy="97.4985" r="14.5" fill="#E2A122"/>
<circle cx="511.5" cy="97.4985" r="14" stroke="white"/>
</g>
<path d="M507 99.7485L504.5 102.199V95.1652H507M511.167 98.2152L509.858 97.0985L508.667 98.1985V91.8319H511.167M515.333 96.8319L512.833 99.3319V88.4985H515.333M517.675 96.6735L516.167 95.1652H520.333V99.3319L518.842 97.8402L512.833 103.799L509.942 101.282L506.792 104.332H504.5L509.892 99.0485L512.833 101.532" fill="white"/>
<g filter="url(#filter2_d_80_969)">
<circle cx="601.5" cy="292.495" r="14.5" fill="#703372"/>
<circle cx="601.5" cy="292.495" r="14" stroke="white"/>
</g>
<path d="M594.656 287.182H605.281C605.563 287.182 605.833 287.294 606.033 287.493C606.232 287.693 606.344 287.963 606.344 288.245V296.213C606.344 296.354 606.4 296.489 606.499 296.589C606.599 296.689 606.734 296.745 606.875 296.745C607.016 296.745 607.151 296.689 607.251 296.589C607.35 296.489 607.406 296.354 607.406 296.213V289.838C607.406 289.697 607.462 289.562 607.562 289.463C607.661 289.363 607.797 289.307 607.938 289.307C608.078 289.307 608.214 289.363 608.313 289.463C608.413 289.562 608.469 289.697 608.469 289.838V296.213C608.469 296.636 608.301 297.041 608.002 297.34C607.703 297.639 607.298 297.807 606.875 297.807H595.188C594.765 297.805 594.361 297.637 594.062 297.338C593.764 297.04 593.595 296.636 593.594 296.213V288.245C593.594 287.963 593.706 287.693 593.905 287.493C594.104 287.294 594.374 287.182 594.656 287.182V287.182ZM597.312 294.088H602.625C602.766 294.088 602.901 294.032 603.001 293.933C603.1 293.833 603.156 293.698 603.156 293.557C603.156 293.416 603.1 293.281 603.001 293.181C602.901 293.082 602.766 293.026 602.625 293.026H597.312C597.172 293.026 597.036 293.082 596.937 293.181C596.837 293.281 596.781 293.416 596.781 293.557C596.781 293.698 596.837 293.833 596.937 293.933C597.036 294.032 597.172 294.088 597.312 294.088ZM597.312 291.963H602.625C602.766 291.963 602.901 291.907 603.001 291.808C603.1 291.708 603.156 291.573 603.156 291.432C603.156 291.291 603.1 291.156 603.001 291.056C602.901 290.957 602.766 290.901 602.625 290.901H597.312C597.172 290.901 597.036 290.957 596.937 291.056C596.837 291.156 596.781 291.291 596.781 291.432C596.781 291.573 596.837 291.708 596.937 291.808C597.036 291.907 597.172 291.963 597.312 291.963Z" fill="white"/>
<circle cx="526.5" cy="169.494" r="6.5" fill="#E25822"/>
<circle cx="117.5" cy="321.495" r="4.5" fill="#E92C79"/>
<circle cx="568.5" cy="373.495" r="4.5" fill="#5CD822"/>
<g filter="url(#filter3_d_80_969)">
<circle cx="22.5" cy="369.495" r="14.5" fill="white"/>
</g>
<path d="M23.75 360.745C23.75 360.413 23.6183 360.095 23.3839 359.861C23.1495 359.626 22.8315 359.495 22.5 359.495C22.1685 359.495 21.8505 359.626 21.6161 359.861C21.3817 360.095 21.25 360.413 21.25 360.745V361.995C21.25 362.326 21.3817 362.644 21.6161 362.879C21.8505 363.113 22.1685 363.245 22.5 363.245C22.8315 363.245 23.1495 363.113 23.3839 362.879C23.6183 362.644 23.75 362.326 23.75 361.995V360.745ZM29.5712 364.191C29.7989 363.955 29.9249 363.639 29.9221 363.312C29.9192 362.984 29.7878 362.67 29.556 362.439C29.3243 362.207 29.0107 362.075 28.683 362.073C28.3553 362.07 28.0395 362.196 27.8037 362.423L26.92 363.307C26.6923 363.543 26.5663 363.859 26.5692 364.186C26.572 364.514 26.7035 364.828 26.9352 365.059C27.167 365.291 27.4805 365.423 27.8082 365.425C28.136 365.428 28.4517 365.302 28.6875 365.075L29.5712 364.191ZM32.5 369.495C32.5 369.826 32.3683 370.144 32.1339 370.379C31.8995 370.613 31.5815 370.745 31.25 370.745H30C29.6685 370.745 29.3505 370.613 29.1161 370.379C28.8817 370.144 28.75 369.826 28.75 369.495C28.75 369.163 28.8817 368.845 29.1161 368.611C29.3505 368.376 29.6685 368.245 30 368.245H31.25C31.5815 368.245 31.8995 368.376 32.1339 368.611C32.3683 368.845 32.5 369.163 32.5 369.495ZM16.3125 365.075C16.4278 365.194 16.5657 365.289 16.7182 365.355C16.8707 365.42 17.0348 365.455 17.2007 365.456C17.3667 365.458 17.5313 365.426 17.6849 365.363C17.8386 365.3 17.9781 365.207 18.0955 365.09C18.2129 364.973 18.3057 364.833 18.3685 364.68C18.4314 364.526 18.463 364.361 18.4616 364.195C18.4601 364.029 18.4256 363.865 18.3601 363.713C18.2946 363.56 18.1994 363.422 18.08 363.307L17.1962 362.423C16.9605 362.196 16.6447 362.07 16.317 362.073C15.9893 362.075 15.6757 362.207 15.444 362.439C15.2122 362.67 15.0808 362.984 15.0779 363.312C15.0751 363.639 15.2011 363.955 15.4287 364.191L16.3125 365.075V365.075ZM16.25 369.495C16.25 369.826 16.1183 370.144 15.8839 370.379C15.6495 370.613 15.3315 370.745 15 370.745H13.75C13.4185 370.745 13.1005 370.613 12.8661 370.379C12.6317 370.144 12.5 369.826 12.5 369.495C12.5 369.163 12.6317 368.845 12.8661 368.611C13.1005 368.376 13.4185 368.245 13.75 368.245H15C15.3315 368.245 15.6495 368.376 15.8839 368.611C16.1183 368.845 16.25 369.163 16.25 369.495ZM20 376.995V375.745H25V376.995C25 377.658 24.7366 378.294 24.2678 378.762C23.7989 379.231 23.163 379.495 22.5 379.495C21.837 379.495 21.2011 379.231 20.7322 378.762C20.2634 378.294 20 377.658 20 376.995V376.995ZM25 374.495C25.0187 374.07 25.26 373.687 25.5962 373.421C26.4121 372.777 27.0072 371.896 27.2989 370.899C27.5906 369.901 27.5644 368.838 27.2239 367.856C26.8833 366.875 26.2455 366.023 25.3989 365.421C24.5523 364.819 23.539 364.495 22.5 364.495C21.461 364.495 20.4477 364.819 19.6011 365.421C18.7545 366.023 18.1167 366.875 17.7761 367.856C17.4356 368.838 17.4094 369.901 17.7011 370.899C17.9928 371.896 18.5879 372.777 19.4037 373.421C19.7412 373.687 19.9812 374.07 19.9987 374.495H25.0012H25Z" fill="#FBD62E"/>
<g filter="url(#filter4_f_80_969)">
<ellipse cx="345.277" cy="420.818" rx="230.501" ry="102.698" transform="rotate(-70.1951 345.277 420.818)" fill="url(#paint2_radial_80_969)"/>
</g>
<g filter="url(#filter5_f_80_969)">
<ellipse cx="299.946" cy="191.131" rx="145.442" ry="95.3048" transform="rotate(-70.1951 299.946 191.131)" fill="url(#paint3_radial_80_969)" fill-opacity="0.3"/>
</g>
<path d="M270.789 92.8949C269.786 85.9353 268.969 78.9046 267.598 72.0035C267.368 70.8416 267.279 70.0343 267.527 68.896" stroke="#703372" stroke-width="3.5" stroke-linecap="round"/>
<path d="M258.926 94.2584C252.468 85.6667 246.36 76.8829 237.984 70.0659" stroke="#703372" stroke-width="3.5" stroke-linecap="round"/>
<path d="M253.68 103.515C243.21 100.718 234.03 100.331 223.325 100.997" stroke="#703372" stroke-width="3.5" stroke-linecap="round"/>
<defs>
<filter id="filter0_d_80_969" x="96" y="182.994" width="49" height="49" filterUnits="userSpaceOnUse" color-interpolation-filters="sRGB">
<feFlood flood-opacity="0" result="BackgroundImageFix"/>
<feColorMatrix in="SourceAlpha" type="matrix" values="0 0 0 0 0 0 0 0 0 0 0 0 0 0 0 0 0 0 127 0" result="hardAlpha"/>
<feOffset dx="2" dy="2"/>
<feGaussianBlur stdDeviation="5"/>
<feComposite in2="hardAlpha" operator="out"/>
<feColorMatrix type="matrix" values="0 0 0 0 0 0 0 0 0 0 0 0 0 0 0 0 0 0 0.2 0"/>
<feBlend mode="normal" in2="BackgroundImageFix" result="effect1_dropShadow_80_969"/>
<feBlend mode="normal" in="SourceGraphic" in2="effect1_dropShadow_80_969" result="shape"/>
</filter>
<filter id="filter1_d_80_969" x="489" y="74.9985" width="49" height="49" filterUnits="userSpaceOnUse" color-interpolation-filters="sRGB">
<feFlood flood-opacity="0" result="BackgroundImageFix"/>
<feColorMatrix in="SourceAlpha" type="matrix" values="0 0 0 0 0 0 0 0 0 0 0 0 0 0 0 0 0 0 127 0" result="hardAlpha"/>
<feOffset dx="2" dy="2"/>
<feGaussianBlur stdDeviation="5"/>
<feComposite in2="hardAlpha" operator="out"/>
<feColorMatrix type="matrix" values="0 0 0 0 0 0 0 0 0 0 0 0 0 0 0 0 0 0 0.2 0"/>
<feBlend mode="normal" in2="BackgroundImageFix" result="effect1_dropShadow_80_969"/>
<feBlend mode="normal" in="SourceGraphic" in2="effect1_dropShadow_80_969" result="shape"/>
</filter>
<filter id="filter2_d_80_969" x="579" y="269.995" width="49" height="49" filterUnits="userSpaceOnUse" color-interpolation-filters="sRGB">
<feFlood flood-opacity="0" result="BackgroundImageFix"/>
<feColorMatrix in="SourceAlpha" type="matrix" values="0 0 0 0 0 0 0 0 0 0 0 0 0 0 0 0 0 0 127 0" result="hardAlpha"/>
<feOffset dx="2" dy="2"/>
<feGaussianBlur stdDeviation="5"/>
<feComposite in2="hardAlpha" operator="out"/>
<feColorMatrix type="matrix" values="0 0 0 0 0 0 0 0 0 0 0 0 0 0 0 0 0 0 0.2 0"/>
<feBlend mode="normal" in2="BackgroundImageFix" result="effect1_dropShadow_80_969"/>
<feBlend mode="normal" in="SourceGraphic" in2="effect1_dropShadow_80_969" result="shape"/>
</filter>
<filter id="filter3_d_80_969" x="0" y="346.995" width="49" height="49" filterUnits="userSpaceOnUse" color-interpolation-filters="sRGB">
<feFlood flood-opacity="0" result="BackgroundImageFix"/>
<feColorMatrix in="SourceAlpha" type="matrix" values="0 0 0 0 0 0 0 0 0 0 0 0 0 0 0 0 0 0 127 0" result="hardAlpha"/>
<feOffset dx="2" dy="2"/>
<feGaussianBlur stdDeviation="5"/>
<feComposite in2="hardAlpha" operator="out"/>
<feColorMatrix type="matrix" values="0 0 0 0 0 0 0 0 0 0 0 0 0 0 0 0 0 0 0.2 0"/>
<feBlend mode="normal" in2="BackgroundImageFix" result="effect1_dropShadow_80_969"/>
<feBlend mode="normal" in="SourceGraphic" in2="effect1_dropShadow_80_969" result="shape"/>
</filter>
<filter id="filter4_f_80_969" x="171.033" y="151.144" width="348.488" height="539.347" filterUnits="userSpaceOnUse" color-interpolation-filters="sRGB">
<feFlood flood-opacity="0" result="BackgroundImageFix"/>
<feBlend mode="normal" in="SourceGraphic" in2="BackgroundImageFix" result="shape"/>
<feGaussianBlur stdDeviation="25" result="effect1_foregroundBlur_80_969"/>
</filter>
<filter id="filter5_f_80_969" x="147.611" y="0.500488" width="304.67" height="381.26" filterUnits="userSpaceOnUse" color-interpolation-filters="sRGB">
<feFlood flood-opacity="0" result="BackgroundImageFix"/>
<feBlend mode="normal" in="SourceGraphic" in2="BackgroundImageFix" result="shape"/>
<feGaussianBlur stdDeviation="25" result="effect1_foregroundBlur_80_969"/>
</filter>
<linearGradient id="paint0_linear_80_969" x1="148" y1="431.495" x2="337" y2="682.995" gradientUnits="userSpaceOnUse">
<stop stop-color="#703372"/>
<stop offset="1" stop-color="#703372"/>
</linearGradient>
<linearGradient id="paint1_linear_80_969" x1="48.5" y1="410.995" x2="659" y2="682.995" gradientUnits="userSpaceOnUse">
<stop stop-color="#703372"/>
<stop offset="0.429817" stop-color="#FDDB96"/>
<stop offset="0.947917" stop-color="#F6257E"/>
</linearGradient>
<radialGradient id="paint2_radial_80_969" cx="0" cy="0" r="1" gradientUnits="userSpaceOnUse" gradientTransform="translate(345.277 420.818) rotate(99.4087) scale(130.443 290.766)">
<stop stop-color="#111111" stop-opacity="0.86"/>
<stop offset="1" stop-color="#703372" stop-opacity="0"/>
</radialGradient>
<radialGradient id="paint3_radial_80_969" cx="0" cy="0" r="1" gradientUnits="userSpaceOnUse" gradientTransform="translate(330.649 172.039) rotate(107.136) scale(231.337 355.729)">
<stop stop-color="#F7700F"/>
<stop offset="1" stop-color="#703372" stop-opacity="0"/>
</radialGradient>
<clipPath id="clip0_80_969">
<rect width="31" height="31" fill="white" transform="translate(103 189.994)"/>
</clipPath>
</defs>
</svg>
