<svg width="35" height="35" viewBox="0 0 35 35" fill="none" xmlns="http://www.w3.org/2000/svg">
<mask id="mask0_53_3451" style="mask-type:alpha" maskUnits="userSpaceOnUse" x="0" y="0" width="35" height="35">
<path d="M30.5 23.375V11.1875L20.3438 5.47485M14.6562 5.47485L4.5 11.1875V23.375M6.9375 27.184L17.5 33.125L24 29.4688L28.0625 27.1832" stroke="white" stroke-width="3.25" stroke-linecap="round" stroke-linejoin="round"/>
<path d="M15.0625 14.2344L12.625 15.6562V21.3438L15.0625 22.7656L17.5 24.1875L19.9375 22.7656L22.375 21.3438V15.6562L19.9375 14.2344L17.5 12.8125L15.0625 14.2344Z" fill="white" stroke="white" stroke-width="3.25" stroke-linecap="round" stroke-linejoin="round"/>
<path d="M17.5 12.8125V7.125M22.375 20.9375L28.0625 24.1875M12.625 20.9375L6.9375 24.1875" stroke="white" stroke-width="3.25" stroke-linecap="round" stroke-linejoin="round"/>
<path d="M17.5 7.125C18.8462 7.125 19.9375 6.03369 19.9375 4.6875C19.9375 3.34131 18.8462 2.25 17.5 2.25C16.1538 2.25 15.0625 3.34131 15.0625 4.6875C15.0625 6.03369 16.1538 7.125 17.5 7.125Z" fill="white" stroke="white" stroke-width="3.25" stroke-linecap="round" stroke-linejoin="round"/>
<path d="M4.5 28.25C5.84619 28.25 6.9375 27.1587 6.9375 25.8125C6.9375 24.4663 5.84619 23.375 4.5 23.375C3.15381 23.375 2.0625 24.4663 2.0625 25.8125C2.0625 27.1587 3.15381 28.25 4.5 28.25Z" fill="white" stroke="white" stroke-width="3.25" stroke-linecap="round" stroke-linejoin="round"/>
<path d="M30.5 28.25C31.8462 28.25 32.9375 27.1587 32.9375 25.8125C32.9375 24.4663 31.8462 23.375 30.5 23.375C29.1538 23.375 28.0625 24.4663 28.0625 25.8125C28.0625 27.1587 29.1538 28.25 30.5 28.25Z" fill="white" stroke="white" stroke-width="3.25" stroke-linecap="round" stroke-linejoin="round"/>
</mask>
<g mask="url(#mask0_53_3451)">
<path d="M-3 -2H36V37H-3V-2Z" fill="#703372"/>
</g>
</svg>
