<svg xmlns="http://www.w3.org/2000/svg" xmlns:xlink="http://www.w3.org/1999/xlink" width="80" height="80" viewBox="0 0 80 80">
  <defs>
    <clipPath id="clip-path">
      <rect id="Rectangle_3" data-name="Rectangle 3" width="80" height="80" fill="#fff"/>
    </clipPath>
  </defs>
  <g id="Mask_Group_6" data-name="Mask Group 6" clip-path="url(#clip-path)">
    <g id="Group_6" data-name="Group 6" transform="translate(-35.314 -40.555)">
      <path id="XMLID_22_" d="M0,0H59.547V59.547H0Z" transform="translate(45.314 50.555)" fill="#00a0df"/>
      <g id="XMLID_51_" transform="translate(51.281 67.066)">
        <g id="XMLID_101_" transform="translate(40.908 4.685)">
          <path id="XMLID_21_" d="M48.9,25.65a3.913,3.913,0,0,0-.959-2.131,2.012,2.012,0,0,1-.746-1.385.983.983,0,0,1,.959-1.067,1.54,1.54,0,0,1,.746.213,1.975,1.975,0,0,0,.746.213.8.8,0,0,0,.746-.746c0-.426-.426-.852-1.17-.852a3.64,3.64,0,0,0-3.2,3.409,3.3,3.3,0,0,0,.959,2.024,2.423,2.423,0,0,1,.639,1.278,1.161,1.161,0,0,1-1.17,1.065,2.113,2.113,0,0,1-1.385-.639c-.213-.213-.426-.426-.639-.426-.32,0-.426.639-.426.959,0,.426.746,1.065,1.7,1.065,1.491-.213,3.2-1.491,3.2-2.983" transform="translate(-44.009 -19.895)" fill="#fff"/>
        </g>
        <g id="XMLID_98_" transform="translate(6.285)">
          <path id="XMLID_99_" d="M14.7,15.5h0l-.107.426v.107h.532c.426.107.532.107.532.32a20.5,20.5,0,0,1-.959,2.876l-.426,1.385c-.426,1.17-1.065,2.876-1.6,4.261a34.773,34.773,0,0,0-1.17,3.3c0,.213.107.32.639.32s.746-.107.852-.32c.959-3.088,3.515-6.6,4.793-6.6.426,0,.532.107.532.532a9.928,9.928,0,0,1-1.17,3.2,8.125,8.125,0,0,0-.959,2.663.565.565,0,0,0,.636.637c1.278,0,2.344-1.17,3.088-2.131l.107-.107-.32-.32H19.6c-.426.426-1.17,1.17-1.385,1.17H18.1V27a2.883,2.883,0,0,1,.32-.852,13.855,13.855,0,0,0,1.385-4.368c0-.959-.426-1.491-1.278-1.491-1.6,0-2.876,1.811-3.515,2.77a1.987,1.987,0,0,1-.32.426,3.434,3.434,0,0,0,.213-.639c.213-.426.426-1.065.746-1.918a50.758,50.758,0,0,0,1.7-5.006c0-.213-.213-.213-.32-.213H14.7Z" transform="translate(-11.503 -15.5)" fill="#fff"/>
        </g>
        <g id="XMLID_95_" transform="translate(0.21 4.476)">
          <path id="XMLID_96_" d="M11.458,26.519h0c0-.107-.32-.32-.32-.32a4.6,4.6,0,0,1-2.344,1.278,1.209,1.209,0,0,1-.852-.32,1.327,1.327,0,0,1-.426-1.17c-.107-1.278,1.065-3.3,2.131-4.474a2.749,2.749,0,0,1,1.491-.959A1.623,1.623,0,0,1,12.2,21.2c.213.32.426.532.746.532.107,0,.32-.107.32-.213a.808.808,0,0,0,.213-.426c0-.532-.532-1.278-1.7-1.385a6.6,6.6,0,0,0-4.261,2.024,5.324,5.324,0,0,0-1.7,4.048,2.254,2.254,0,0,0,2.344,2.45,3.774,3.774,0,0,0,3.3-1.7Z" transform="translate(-5.81 -19.704)" fill="#fff"/>
        </g>
        <g id="XMLID_92_" transform="translate(24.606 4.58)">
          <path id="XMLID_93_" d="M31.47,23.528a.374.374,0,0,1-.107.213v-.1c0-.107.107-.426.213-.852A15.248,15.248,0,0,0,32,20.547a.565.565,0,0,0-.639-.639c-.852,0-2.237,1.491-2.663,2.237l.213.32.107-.107.107-.107c.32-.426.959-1.17,1.278-1.17.213,0,.32.213.32.532A28.971,28.971,0,0,1,29.339,26.3a12.233,12.233,0,0,0-.532,1.593c0,.213.107.213.213.213h.746q.16,0,.32-.32s.32-.852.532-1.278c1.491-2.983,2.237-4.474,2.876-5.113a1.441,1.441,0,0,1,.959-.532c.213,0,.213.107.32.213s.213.32.426.32a.641.641,0,0,0,.426-.107.967.967,0,0,0,.32-.746A.723.723,0,0,0,35.2,19.8c-1.491.107-2.45,1.065-3.728,3.728Z" transform="translate(-28.7 -19.799)" fill="#fff"/>
        </g>
        <path id="XMLID_87_" d="M27.45,19.7a.229.229,0,0,0-.213.213c-.107.107-.107.213-.32.213a.805.805,0,0,1-.426-.107c-.213,0-.426-.107-.746-.107-3.728,0-5.646,5.007-5.646,6.712,0,1.17.639,1.7,1.278,1.7.746,0,1.811-.213,3.2-2.344l.32-.532v.107l-.107.213a3.579,3.579,0,0,0-.532,1.7.9.9,0,0,0,.213.639.814.814,0,0,0,.532.213c1.278,0,2.344-1.7,2.77-2.344l-.32-.32h-.107l-.32.32c-.426.426-.852,1.065-1.17,1.065h-.107v-.213c0-.426.852-2.45,1.385-4.048a23.314,23.314,0,0,0,.852-2.45s0-.213-.107-.213l-.532-.32c.213-.107.107-.107.107-.107Zm-5.859,6.6c0-2.45,1.918-5.752,3.837-5.752a.847.847,0,0,1,.959.959c0,.959-2.556,5.539-4.261,5.539C21.8,27.156,21.591,27.05,21.591,26.3Z" transform="translate(-4.656 -15.226)" fill="#fff"/>
        <path id="XMLID_82_" d="M38.2,26.091a2.131,2.131,0,0,0,2.131,2.344c1.491,0,3.088-1.491,3.515-1.918v-.107l-.213-.32h-.107l-.213.107a4.058,4.058,0,0,1-2.131,1.065A1.287,1.287,0,0,1,39.8,25.877a5.124,5.124,0,0,1,.852-2.45V23.32H41.5c1.385,0,3.941-.639,3.941-2.237a1.575,1.575,0,0,0-1.7-1.385C41.609,19.912,38.2,23.108,38.2,26.091Zm5.433-5.646a.728.728,0,0,1,.746.746c0,1.065-1.17,1.6-3.2,1.6C41.5,22.043,42.674,20.445,43.633,20.445Z" transform="translate(-3.475 -15.225)" fill="#fff"/>
        <g id="XMLID_78_" transform="translate(30.353 0.106)">
          <path id="XMLID_79_" d="M37.823,26.465h0c0-.107-.32-.426-.32-.426l-.107.107c-.746.746-1.065,1.278-1.491,1.278H35.8a.374.374,0,0,1-.107-.213,45.207,45.207,0,0,1,2.237-6.392L39,18.049c.532-1.385.852-2.131.852-2.237v-.107c0-.107-.107-.107-.32-.107h-2.45a.1.1,0,0,0-.107.107v.532H37.5c.32.107.532.213.532.426,0,.32-1.6,4.261-1.6,4.261-.852,2.131-2.343,5.859-2.343,6.712a1.377,1.377,0,0,0,.213.852.967.967,0,0,0,.746.32c.959,0,2.024-1.278,2.663-2.131l.107-.213ZM36.971,16.026Z" transform="translate(-34.091 -15.599)" fill="#fff"/>
        </g>
        <g id="XMLID_75_" transform="translate(0 15.979)">
          <path id="XMLID_76_" d="M5.921,32.951a2.654,2.654,0,0,0,1.811,2.237l.426.213q1.28.639,1.28,1.6A1.321,1.321,0,0,1,8.16,38.383c-1.17,0-1.811-1.17-2.131-1.918l-.426.107c.107.746.32,1.6.32,1.918h.213l.532.213a3.829,3.829,0,0,0,1.17.213,2.5,2.5,0,0,0,2.77-2.45A2.57,2.57,0,0,0,8.8,34.122l-.32-.107c-.957-.532-1.384-.958-1.384-1.6a1.205,1.205,0,0,1,1.17-1.278c.959,0,1.385.746,1.6,1.491l.426-.107a11.078,11.078,0,0,1-.213-1.6l-.32-.107-.213-.107A3.785,3.785,0,0,0,8.476,30.5a2.5,2.5,0,0,0-2.556,2.45Z" transform="translate(-5.603 -30.501)" fill="#fff"/>
        </g>
        <g id="XMLID_72_" transform="translate(5.964 16.28)">
          <path id="XMLID_73_" d="M11.2,34.849c0,2.024,1.385,3.941,4.474,3.941a11.214,11.214,0,0,0,2.237-.32,14.8,14.8,0,0,0,.639-2.024l-.425-.106c-.639,1.278-1.17,1.918-2.556,1.918-1.7,0-2.876-1.491-2.876-3.728,0-1.6.746-3.409,2.876-3.409A2.028,2.028,0,0,1,17.8,32.933h.426l-.107-.533-.213-1.385H17.7A7.935,7.935,0,0,0,15.78,30.8,3.964,3.964,0,0,0,11.2,34.85Z" transform="translate(-11.2 -30.784)" fill="#fff"/>
        </g>
        <g id="XMLID_69_" transform="translate(13.634 16.298)">
          <path id="XMLID_70_" d="M27.028,30.8H23.62v.426c.852.107.959.107.959,1.491v1.6H20.956v-1.6c0-1.278.107-1.385.959-1.491V30.8H18.4v.426c1.065.107,1.065.213,1.065,1.491v4.261c0,1.278-.107,1.385-1.065,1.491v.425h3.515v-.426c-.852-.107-1.065-.107-1.065-1.491V34.954h3.622v2.024c0,1.278-.107,1.385-1.065,1.491v.425h3.515v-.426c-.959-.107-1.065-.107-1.065-1.491V32.718c0-1.278.107-1.385,1.065-1.491l.107-.426Z" transform="translate(-18.4 -30.8)" fill="#fff"/>
        </g>
        <g id="XMLID_64_" transform="translate(22.795 16.298)">
          <path id="XMLID_65_" d="M38.5,30.8H35.735v.426h.426c.213,0,.32.107.426.107,0,.107.107.107.107.213a1.158,1.158,0,0,1-.107.532c0,.107-.639,2.77-1.17,4.474-.107-.213-2.131-5.646-2.131-5.646h-.535s-1.811,5.646-1.811,5.752c-.107-.213-1.385-4.687-1.385-4.687,0-.213-.107-.32-.107-.426v-.213c.107-.107.213-.107.426-.107H30.3v-.32H27v.426c.639.107.852.107,1.17,1.17L30.2,38.894h.532s1.811-5.539,1.918-5.646c.107.213,2.024,5.646,2.024,5.646H35.2c1.065-3.728,2.024-6.285,2.024-6.392.426-1.065.532-1.17,1.278-1.17V30.8ZM32.646,33.144ZM35.416,36.659Z" transform="translate(-27 -30.8)" fill="#fff"/>
        </g>
        <path id="XMLID_59_" d="M40.022,32.724a24.894,24.894,0,0,0,.959,2.556H39.17A23.934,23.934,0,0,1,40.022,32.724Zm1.491.213L40.661,30.7l-.532.107-2.45,6.285c-.426,1.065-.532,1.17-1.278,1.17v.426h2.77v-.426h-.32c-.213,0-.426-.107-.426-.213v-.213a.805.805,0,0,1,.107-.426l.107-.213a8.882,8.882,0,0,1,.426-1.278H41.3c.213.639.532,1.385.639,1.7,0,.107.107.213.107.32v.107c0,.107-.107.107-.32.107l-.32.107v.32h3.2v-.426c-.639-.107-.852-.107-1.278-1.17l-1.811-4.048Z" transform="translate(-3.592 -14.508)" fill="#fff"/>
        <path id="XMLID_52_" d="M46.644,31.865c0-.32,0-.532.107-.532h.532a1.4,1.4,0,0,1,1.491,1.491c0,.959-.639,1.491-1.7,1.491h-.426v-2.45ZM44.407,30.8v.426c.852.107.959.107.959,1.491v4.261c0,1.278-.107,1.385-1.065,1.491v.425h2.983a4.764,4.764,0,0,0,2.344-.532,1.977,1.977,0,0,0,1.065-1.811c0-1.065-.746-1.811-2.131-2.024.639-.107,1.7-.639,1.7-1.7a1.583,1.583,0,0,0-.639-1.385,3.006,3.006,0,0,0-1.918-.426h-3.3Zm2.663,3.837c1.385,0,2.131.639,2.131,1.811a1.593,1.593,0,0,1-1.6,1.7c-.32,0-.532,0-.639-.107-.213-.213-.213-.532-.213-1.17V34.741c0-.107.32-.107.32-.107Z" transform="translate(-3.077 -14.502)" fill="#fff"/>
      </g>
    </g>
  </g>
</svg>
