<svg xmlns="http://www.w3.org/2000/svg" xmlns:xlink="http://www.w3.org/1999/xlink" width="307" height="140" viewBox="0 0 307 140">
  <defs>
    <clipPath id="clip-path">
      <rect id="Rectangle_1" data-name="Rectangle 1" width="307" height="140" transform="translate(0 2)" fill="#fff"/>
    </clipPath>
  </defs>
  <g id="Mask_Group_1" data-name="Mask Group 1" transform="translate(0 -2)" clip-path="url(#clip-path)">
    <g id="XMLID_50_" transform="translate(90.314 7.555)">
      <path id="XMLID_22_" d="M0,0H127.272V127.272H0Z" fill="#00a0df"/>
      <g id="XMLID_51_" transform="translate(12.75 35.29)">
        <g id="XMLID_101_" transform="translate(87.428 10.018)">
          <path id="XMLID_21_" d="M54.473,32.195c0-1.821-1.138-3.187-2.049-4.554a4.3,4.3,0,0,1-1.594-2.96A2.1,2.1,0,0,1,52.879,22.4a3.291,3.291,0,0,1,1.594.455,4.221,4.221,0,0,0,1.594.455,1.711,1.711,0,0,0,1.594-1.594c0-.911-.911-1.821-2.5-1.821-3.643,0-6.83,4.1-6.83,7.286,0,1.821,1.138,3.187,2.049,4.326a5.178,5.178,0,0,1,1.366,2.732,2.482,2.482,0,0,1-2.5,2.277,4.516,4.516,0,0,1-2.96-1.366c-.455-.455-.911-.911-1.366-.911-.683,0-.911,1.366-.911,2.049,0,.911,1.594,2.277,3.643,2.277,3.187-.455,6.83-3.187,6.83-6.375" transform="translate(-44 -19.9)" fill="#fff"/>
        </g>
        <g id="XMLID_98_" transform="translate(13.433)">
          <path id="XMLID_99_" d="M18.33,15.5h0l-.228.911v.228h1.138c.911.228,1.138.228,1.138.683,0,.683-.911,2.96-2.049,6.147l-.911,2.96c-.911,2.5-2.277,6.147-3.415,9.107a74.322,74.322,0,0,0-2.5,7.058c0,.455.228.683,1.366.683s1.594-.228,1.821-.683c2.049-6.6,7.513-14.116,10.245-14.116.911,0,1.138.228,1.138,1.138,0,1.366-1.138,4.1-2.5,6.83-1.138,2.277-2.049,4.554-2.049,5.692A1.207,1.207,0,0,0,22.884,43.5c2.732,0,5.009-2.5,6.6-4.554l.228-.228-.683-.683H28.8c-.911.911-2.5,2.5-2.96,2.5h-.228v-.455a6.162,6.162,0,0,1,.683-1.821c1.138-2.5,2.96-6.83,2.96-9.335,0-2.049-.911-3.187-2.732-3.187-3.415,0-6.147,3.871-7.513,5.92a4.248,4.248,0,0,1-.683.911,7.34,7.34,0,0,0,.455-1.366c.455-.911.911-2.277,1.594-4.1,2.5-6.83,3.643-10.245,3.643-10.7s-.455-.455-.683-.455H18.33Z" transform="translate(-11.5 -15.5)" fill="#fff"/>
        </g>
        <g id="XMLID_95_" transform="translate(0.431 9.562)">
          <path id="XMLID_96_" d="M17.881,34.271h0c0-.228-.683-.683-.683-.683-1.138.911-3.187,2.732-5.009,2.732a2.585,2.585,0,0,1-1.821-.683,2.837,2.837,0,0,1-.911-2.5c-.228-2.732,2.277-7.058,4.554-9.562,1.366-1.366,2.5-2.049,3.187-2.049a3.469,3.469,0,0,1,2.277,1.366c.455.683.911,1.138,1.594,1.138.228,0,.683-.228.683-.455a1.726,1.726,0,0,0,.455-.911c0-1.138-1.138-2.732-3.643-2.96-2.732,0-6.375,1.594-9.107,4.326a11.38,11.38,0,0,0-3.643,8.652c0,2.5,1.366,5.237,5.009,5.237,3.643.455,6.6-2.732,7.058-3.643Z" transform="translate(-5.789 -19.7)" fill="#fff"/>
        </g>
        <g id="XMLID_92_" transform="translate(52.594 9.79)">
          <path id="XMLID_93_" d="M34.62,27.769a.8.8,0,0,1-.228.455V28c0-.228.228-.911.455-1.821a32.59,32.59,0,0,0,.911-4.781,1.207,1.207,0,0,0-1.366-1.366c-1.821,0-4.781,3.187-5.692,4.781l.455.683.228-.228.228-.228c.683-.911,2.049-2.5,2.732-2.5.455,0,.683.455.683,1.138,0,1.594-1.821,6.6-2.96,10.018A26.146,26.146,0,0,0,28.928,37.1c0,.455.228.455.455.455h1.594q.342,0,.683-.683s.683-1.821,1.138-2.732c3.187-6.375,4.781-9.562,6.147-10.929a3.079,3.079,0,0,1,2.049-1.138c.455,0,.455.228.683.455s.455.683.911.683a1.369,1.369,0,0,0,.911-.228,2.067,2.067,0,0,0,.683-1.594A1.546,1.546,0,0,0,42.588,19.8c-3.187.228-5.237,2.277-7.969,7.969Z" transform="translate(-28.7 -19.8)" fill="#fff"/>
        </g>
        <path id="XMLID_87_" d="M35.81,19.7a.49.49,0,0,0-.455.455c-.228.228-.228.455-.683.455a1.721,1.721,0,0,1-.911-.228c-.455,0-.911-.228-1.594-.228C24.2,20.155,20.1,30.856,20.1,34.5c0,2.5,1.366,3.643,2.732,3.643,1.594,0,3.871-.455,6.83-5.009l.683-1.138v.228l-.228.455a7.65,7.65,0,0,0-1.138,3.643,1.925,1.925,0,0,0,.455,1.366,1.739,1.739,0,0,0,1.138.455c2.732,0,5.009-3.643,5.92-5.009l-.683-.683h-.228l-.683.683c-.911.911-1.821,2.277-2.5,2.277h-.228v-.455c0-.911,1.821-5.237,2.96-8.652a49.831,49.831,0,0,0,1.821-5.237s0-.455-.228-.455l-1.138-.683c.455-.228.228-.228.228-.228ZM23.287,33.816c0-5.237,4.1-12.295,8.2-12.295a1.811,1.811,0,0,1,2.049,2.049c0,2.049-5.464,11.839-9.107,11.839C23.743,35.637,23.287,35.41,23.287,33.816Z" transform="translate(12.913 -10.138)" fill="#fff"/>
        <path id="XMLID_82_" d="M38.2,33.361c0,2.96,1.821,5.009,4.554,5.009,3.187,0,6.6-3.187,7.513-4.1v-.228l-.455-.683h-.228l-.455.228c-1.138.911-2.96,2.277-4.554,2.277a2.75,2.75,0,0,1-2.96-2.96c0-2.277,1.138-3.871,1.821-5.237v-.228h1.821c2.96,0,8.424-1.366,8.424-4.781,0-1.366-1.366-2.96-3.643-2.96C45.486,20.155,38.2,26.986,38.2,33.361ZM49.812,21.294a1.556,1.556,0,0,1,1.594,1.594c0,2.277-2.5,3.415-6.83,3.415C45.258,24.709,47.762,21.294,49.812,21.294Z" transform="translate(36.023 -10.138)" fill="#fff"/>
        <g id="XMLID_78_" transform="translate(64.888 0.228)">
          <path id="XMLID_79_" d="M42.069,38.823h0c0-.228-.683-.911-.683-.911l-.228.228c-1.594,1.594-2.277,2.732-3.187,2.732h-.228a.8.8,0,0,1-.228-.455q0-1.366,4.781-13.661l2.277-5.92c1.138-2.96,1.821-4.554,1.821-4.781v-.228c0-.228-.228-.228-.683-.228H40.475a.223.223,0,0,0-.228.228v1.138h1.138c.683.228,1.138.455,1.138.911,0,.683-3.415,9.107-3.415,9.107C37.287,31.537,34.1,39.506,34.1,41.328a2.942,2.942,0,0,0,.455,1.821,2.067,2.067,0,0,0,1.594.683c2.049,0,4.326-2.732,5.692-4.554l.228-.455ZM40.247,16.511Z" transform="translate(-34.1 -15.6)" fill="#fff"/>
        </g>
        <g id="XMLID_75_" transform="translate(0 34.152)">
          <path id="XMLID_76_" d="M6.283,35.737c0,2.5,2.049,3.871,3.871,4.781l.911.455Q13.8,42.339,13.8,44.388a2.823,2.823,0,0,1-2.732,2.96c-2.5,0-3.871-2.5-4.554-4.1l-.911.228c.228,1.594.683,3.415.683,4.1h.455l1.138.455a8.185,8.185,0,0,0,2.5.455c3.415,0,5.92-2.049,5.92-5.237,0-2.96-2.277-4.326-3.871-5.009l-.683-.228C9.7,36.875,8.787,35.964,8.787,34.6a2.576,2.576,0,0,1,2.5-2.732c2.049,0,2.96,1.594,3.415,3.187l.911-.228a23.678,23.678,0,0,1-.455-3.415l-.683-.228-.455-.228a8.089,8.089,0,0,0-2.277-.455c-3.187.228-5.464,2.277-5.464,5.237Z" transform="translate(-5.6 -30.5)" fill="#fff"/>
        </g>
        <g id="XMLID_72_" transform="translate(12.75 34.796)">
          <path id="XMLID_73_" d="M11.2,39.473c0,4.326,2.96,8.424,9.562,8.424a23.969,23.969,0,0,0,4.781-.683,31.632,31.632,0,0,0,1.366-4.326L26,42.661c-1.366,2.732-2.5,4.1-5.464,4.1-3.643,0-6.147-3.187-6.147-7.969,0-3.415,1.594-7.286,6.147-7.286,2.732,0,4.1,1.138,4.781,3.871h.911L26,34.237l-.455-2.96h-.455a16.959,16.959,0,0,0-4.1-.455c-5.692-.455-9.79,3.187-9.79,8.652Z" transform="translate(-11.2 -30.783)" fill="#fff"/>
        </g>
        <g id="XMLID_69_" transform="translate(29.143 34.835)">
          <path id="XMLID_70_" d="M36.842,30.8H29.556v.911c1.821.228,2.049.228,2.049,3.187v3.415H23.864V34.9c0-2.732.228-2.96,2.049-3.187V30.8H18.4v.911c2.277.228,2.277.455,2.277,3.187v9.107c0,2.732-.228,2.96-2.277,3.187V48.1h7.513v-.911c-1.821-.228-2.277-.228-2.277-3.187V39.679h7.741v4.326c0,2.732-.228,2.96-2.277,3.187V48.1h7.513v-.911c-2.049-.228-2.277-.228-2.277-3.187V34.9c0-2.732.228-2.96,2.277-3.187l.228-.911Z" transform="translate(-18.4 -30.8)" fill="#fff"/>
        </g>
        <g id="XMLID_64_" transform="translate(48.723 34.835)">
          <path id="XMLID_65_" d="M51.589,30.8H45.67v.911h.911c.455,0,.683.228.911.228,0,.228.228.228.228.455a2.476,2.476,0,0,1-.228,1.138c0,.228-1.366,5.92-2.5,9.562-.228-.455-4.554-12.067-4.554-12.067H39.295s-3.871,12.067-3.871,12.295c-.228-.455-2.96-10.018-2.96-10.018,0-.455-.228-.683-.228-.911v-.455c.228-.228.455-.228.911-.228h.911v-.683H27v.911c1.366.228,1.821.228,2.5,2.5L33.83,48.1h1.138s3.871-11.839,4.1-12.067c.228.455,4.326,12.067,4.326,12.067h1.138c2.277-7.969,4.326-13.433,4.326-13.661.911-2.277,1.138-2.5,2.732-2.5V30.8ZM39.067,35.809ZM44.987,43.322Z" transform="translate(-27 -30.8)" fill="#fff"/>
        </g>
        <path id="XMLID_59_" d="M44.141,35.026s1.821,5.464,2.049,5.464H42.32C42.092,40.49,44.141,35.026,44.141,35.026Zm3.187.455L45.507,30.7l-1.138.228L39.132,44.361c-.911,2.277-1.138,2.5-2.732,2.5v.911h5.92v-.911h-.683c-.455,0-.911-.228-.911-.455v-.455a1.721,1.721,0,0,1,.228-.911l.228-.455a18.984,18.984,0,0,1,.911-2.732h4.781c.455,1.366,1.138,2.96,1.366,3.643,0,.228.228.455.228.683v.228c0,.228-.228.228-.683.228l-.683.228v.683h6.83v-.911c-1.366-.228-1.821-.228-2.732-2.5l-3.871-8.652Z" transform="translate(33.725 3.907)" fill="#fff"/>
        <path id="XMLID_52_" d="M49.309,33.077c0-.683,0-1.138.228-1.138h1.138a2.986,2.986,0,0,1,3.187,3.187c0,2.049-1.366,3.187-3.643,3.187h-.911V33.077ZM44.528,30.8v.911c1.821.228,2.049.228,2.049,3.187v9.107c0,2.732-.228,2.96-2.277,3.187V48.1h6.375a10.183,10.183,0,0,0,5.009-1.138,4.226,4.226,0,0,0,2.277-3.871c0-2.277-1.594-3.871-4.554-4.326,1.366-.228,3.643-1.366,3.643-3.643a3.383,3.383,0,0,0-1.366-2.96c-.911-.683-2.049-.911-4.1-.911H44.528ZM50.22,39c2.96,0,4.554,1.366,4.554,3.871a3.405,3.405,0,0,1-3.415,3.643c-.683,0-1.138,0-1.366-.228-.455-.455-.455-1.138-.455-2.5V39.224c0-.228.683-.228.683-.228Z" transform="translate(43.811 4.035)" fill="#fff"/>
      </g>
    </g>
  </g>
</svg>
