<svg width="25" height="30" viewBox="0 0 25 30" fill="none" xmlns="http://www.w3.org/2000/svg">
<path d="M10.1045 0.833336C10.3863 0.833336 10.6565 0.945277 10.8558 1.14453C11.055 1.34379 11.167 1.61404 11.167 1.89584V5.4375C11.167 5.71929 11.055 5.98955 10.8558 6.1888C10.6565 6.38806 10.3863 6.5 10.1045 6.5C9.8227 6.5 9.55245 6.38806 9.35319 6.1888C9.15393 5.98955 9.04199 5.71929 9.04199 5.4375V1.89584C9.04199 1.61404 9.15393 1.34379 9.35319 1.14453C9.55245 0.945277 9.8227 0.833336 10.1045 0.833336ZM3.33283 3.62417C3.53204 3.4252 3.8021 3.31344 4.08366 3.31344C4.36522 3.31344 4.63527 3.4252 4.83449 3.62417L7.31366 6.10334C7.41805 6.20061 7.50178 6.31791 7.55985 6.44824C7.61792 6.57857 7.64915 6.71927 7.65166 6.86193C7.65418 7.00459 7.62794 7.1463 7.5745 7.2786C7.52106 7.4109 7.44152 7.53108 7.34063 7.63197C7.23974 7.73287 7.11956 7.8124 6.98726 7.86584C6.85496 7.91928 6.71325 7.94552 6.57059 7.94301C6.42792 7.94049 6.28723 7.90926 6.1569 7.85119C6.02656 7.79312 5.90926 7.70939 5.81199 7.605L3.33283 5.12584C3.13385 4.92662 3.02209 4.65657 3.02209 4.375C3.02209 4.09344 3.13385 3.82339 3.33283 3.62417ZM16.8762 3.62417C17.0751 3.82339 17.1869 4.09344 17.1869 4.375C17.1869 4.65657 17.0751 4.92662 16.8762 5.12584L14.397 7.605C14.2997 7.70939 14.1824 7.79312 14.0521 7.85119C13.9218 7.90926 13.7811 7.94049 13.6384 7.94301C13.4957 7.94552 13.354 7.91928 13.2217 7.86584C13.0894 7.8124 12.9692 7.73287 12.8684 7.63197C12.7675 7.53108 12.6879 7.4109 12.6345 7.2786C12.581 7.1463 12.5548 7.00459 12.5573 6.86193C12.5598 6.71927 12.5911 6.57857 12.6491 6.44824C12.7072 6.31791 12.7909 6.20061 12.8953 6.10334L15.3745 3.62417C15.5737 3.4252 15.8438 3.31344 16.1253 3.31344C16.4069 3.31344 16.6769 3.4252 16.8762 3.62417ZM0.541992 10.3958C0.541992 10.114 0.653934 9.84379 0.853191 9.64454C1.05245 9.44528 1.3227 9.33334 1.60449 9.33334H5.14616C5.42795 9.33334 5.6982 9.44528 5.89746 9.64454C6.09672 9.84379 6.20866 10.114 6.20866 10.3958C6.20866 10.6776 6.09672 10.9479 5.89746 11.1471C5.6982 11.3464 5.42795 11.4583 5.14616 11.4583H1.60449C1.3227 11.4583 1.05245 11.3464 0.853191 11.1471C0.653934 10.9479 0.541992 10.6776 0.541992 10.3958ZM9.04199 11.4399C9.04199 9.84334 10.9148 8.982 12.1261 10.0218L24.1125 20.2955C25.4017 21.4005 24.6678 23.5128 22.9721 23.5822L17.5321 23.7989C16.947 23.8216 16.3973 24.0823 16.0063 24.5172L12.3032 28.6567C11.1599 29.9359 9.04199 29.1256 9.04199 27.41V11.4413V11.4399Z" fill="#703372"/>
</svg>
