<svg width="20" height="22" viewBox="0 0 20 22" fill="none" xmlns="http://www.w3.org/2000/svg">
<path d="M8.02148 0.166992C8.23697 0.166992 8.44363 0.252595 8.59601 0.404968C8.74838 0.557341 8.83398 0.764004 8.83398 0.979492V3.68783C8.83398 3.90331 8.74838 4.10998 8.59601 4.26235C8.44363 4.41472 8.23697 4.50033 8.02148 4.50033C7.806 4.50033 7.59933 4.41472 7.44696 4.26235C7.29459 4.10998 7.20898 3.90331 7.20898 3.68783V0.979492C7.20898 0.764004 7.29459 0.557341 7.44696 0.404968C7.59933 0.252595 7.806 0.166992 8.02148 0.166992ZM2.84315 2.30116C2.99549 2.149 3.202 2.06354 3.41732 2.06354C3.63263 2.06354 3.83914 2.149 3.99148 2.30116L5.88732 4.19699C5.96714 4.27138 6.03117 4.36108 6.07558 4.46074C6.11999 4.56041 6.14387 4.668 6.14579 4.77709C6.14772 4.88619 6.12765 4.99455 6.08678 5.09572C6.04592 5.19689 5.9851 5.2888 5.90794 5.36595C5.83079 5.4431 5.73889 5.50393 5.63771 5.54479C5.53654 5.58566 5.42818 5.60572 5.31908 5.6038C5.20999 5.60187 5.1024 5.578 5.00273 5.53359C4.90307 5.48918 4.81337 5.42515 4.73898 5.34533L2.84315 3.44949C2.691 3.29715 2.60553 3.09064 2.60553 2.87533C2.60553 2.66001 2.691 2.4535 2.84315 2.30116ZM13.1998 2.30116C13.352 2.4535 13.4374 2.66001 13.4374 2.87533C13.4374 3.09064 13.352 3.29715 13.1998 3.44949L11.304 5.34533C11.2296 5.42515 11.1399 5.48918 11.0402 5.53359C10.9406 5.578 10.833 5.60187 10.7239 5.6038C10.6148 5.60572 10.5064 5.58566 10.4053 5.54479C10.3041 5.50393 10.2122 5.4431 10.135 5.36595C10.0579 5.2888 9.99705 5.19689 9.95618 5.09572C9.91532 4.99455 9.89525 4.88619 9.89718 4.77709C9.8991 4.668 9.92298 4.56041 9.96739 4.46074C10.0118 4.36108 10.0758 4.27138 10.1557 4.19699L12.0515 2.30116C12.2038 2.149 12.4103 2.06354 12.6257 2.06354C12.841 2.06354 13.0475 2.149 13.1998 2.30116ZM0.708984 7.47949C0.708984 7.264 0.794587 7.05734 0.94696 6.90497C1.09933 6.75259 1.306 6.66699 1.52148 6.66699H4.22982C4.44531 6.66699 4.65197 6.75259 4.80434 6.90497C4.95672 7.05734 5.04232 7.264 5.04232 7.47949C5.04232 7.69498 4.95672 7.90164 4.80434 8.05402C4.65197 8.20639 4.44531 8.29199 4.22982 8.29199H1.52148C1.306 8.29199 1.09933 8.20639 0.94696 8.05402C0.794587 7.90164 0.708984 7.69498 0.708984 7.47949ZM7.20898 8.27791C7.20898 7.05699 8.64115 6.39832 9.5674 7.19349L18.7335 15.0498C19.7193 15.8948 19.1581 17.5101 17.8614 17.5632L13.7014 17.7289C13.254 17.7462 12.8337 17.9456 12.5347 18.2782L9.70282 21.4437C8.82857 22.4219 7.20898 21.8022 7.20898 20.4903V8.27899V8.27791Z" fill="black"/>
</svg>
