<svg xmlns="http://www.w3.org/2000/svg" xmlns:xlink="http://www.w3.org/1999/xlink" width="307" height="140" viewBox="0 0 307 140">
  <defs>
    <clipPath id="clip-path">
      <rect id="Rectangle_6" data-name="Rectangle 6" width="307" height="140" fill="#fff"/>
    </clipPath>
    <clipPath id="clip-path-3">
      <rect id="Rectangle_5" data-name="Rectangle 5" width="176.202" height="31.5"/>
    </clipPath>
  </defs>
  <g id="Mask_Group_4" data-name="Mask Group 4" clip-path="url(#clip-path)">
    <g id="Mask_Group_2" data-name="Mask Group 2" transform="translate(-16.719 4)" clip-path="url(#clip-path)">
      <g id="Coinbase-logo-square-1" transform="translate(-11 -16)">
        <g id="Group_3" data-name="Group 3" transform="translate(135.198 -121.09)">
          <g id="Group_2" data-name="Group 2" transform="translate(0 183.5)" clip-path="url(#clip-path-3)">
            <path id="Path_56" data-name="Path 56" d="M35.562,192.314a11.343,11.343,0,1,0,0,22.686,11.344,11.344,0,1,0,0-22.686Zm.077,18.011c-3.679,0-6.285-2.836-6.285-6.668s2.606-6.668,6.285-6.668a6.675,6.675,0,0,1,0,13.336Zm12.8-13.029h3.142v17.321h5.135V192.774H48.438Zm-37.1-.307a5.706,5.706,0,0,1,5.595,4.062H22.3a10.739,10.739,0,0,0-10.96-8.814A11.239,11.239,0,0,0,0,203.657,11.1,11.1,0,0,0,11.42,215,10.7,10.7,0,0,0,22.3,206.186H16.938a5.748,5.748,0,0,1-5.518,4.139c-3.679,0-6.285-2.836-6.285-6.668S7.664,196.989,11.343,196.989Zm133.742,4.6-3.755-.536c-1.763-.23-3.066-.843-3.066-2.223,0-1.533,1.686-2.3,3.909-2.3,2.453,0,4.062,1.073,4.369,2.759h4.905c-.536-4.369-3.909-6.975-9.12-6.975-5.365,0-8.967,2.759-8.967,6.668,0,3.679,2.3,5.9,7.051,6.515l3.755.536c1.839.23,2.836,1,2.836,2.3,0,1.763-1.763,2.453-4.215,2.453-2.989,0-4.675-1.226-4.982-3.066h-4.982c.46,4.292,3.832,7.281,9.887,7.281,5.518,0,9.274-2.529,9.274-6.9C151.983,204.194,149.3,202.2,145.085,201.588Zm-90.9-17.858a3.207,3.207,0,0,0-3.3,3.219,3.162,3.162,0,0,0,3.3,3.219,3.22,3.22,0,1,0,0-6.438Zm74.65,16.478c0-4.752-2.912-7.894-8.967-7.894-5.748,0-8.967,2.912-9.657,7.358h5.058c.23-1.763,1.609-3.142,4.522-3.142,2.606,0,3.832,1.15,3.832,2.529,0,1.839-2.3,2.3-5.212,2.606-3.909.46-8.737,1.763-8.737,6.821,0,3.909,2.912,6.438,7.588,6.438,3.679,0,5.9-1.533,7.051-3.909a3.751,3.751,0,0,0,4.062,3.526h2.989v-4.522h-2.529v-9.81Zm-5.058,5.518c0,2.912-2.529,5.058-5.672,5.058-1.916,0-3.526-.766-3.526-2.529,0-2.146,2.606-2.759,4.982-2.989,2.3-.23,3.526-.69,4.215-1.686ZM96.8,192.314a8.789,8.789,0,0,0-6.9,3.142V183.5H84.844v31.04h4.982V211.7A8.838,8.838,0,0,0,96.8,215c6.131,0,10.73-4.829,10.73-11.343S102.855,192.314,96.8,192.314Zm-.766,18.011c-3.679,0-6.285-2.836-6.285-6.668a6.328,6.328,0,0,1,6.361-6.668c3.679,0,6.285,2.836,6.285,6.668A6.328,6.328,0,0,1,96.033,210.325ZM72.657,192.314a7.8,7.8,0,0,0-6.745,3.219V192.7H60.854V214.54h5.058v-11.88c0-3.372,2.146-5.672,5.288-5.672,2.912,0,4.752,2.069,4.752,5.058V214.54h5.058V201.664C81.011,196.223,78.176,192.314,72.657,192.314ZM176.2,202.967a10.326,10.326,0,0,0-10.73-10.653A11.343,11.343,0,1,0,165.548,215c5.288,0,9.427-3.142,10.5-7.588H170.76c-.766,1.916-2.606,3.066-5.135,3.066a6.06,6.06,0,0,1-6.285-5.595H176.2v-1.916Zm-16.555-1.686a5.684,5.684,0,0,1,5.748-4.522,5.294,5.294,0,0,1,5.595,4.522Z" transform="translate(0 -183.5)" fill="#0052ff"/>
          </g>
        </g>
        <g id="Group_5" data-name="Group 5" transform="translate(23.519 48)">
          <g id="Group_4" data-name="Group 4" transform="translate(28.2)">
            <path id="Path_57" data-name="Path 57" d="M62.381,0h0A34.172,34.172,0,0,1,96.562,34.181h0A34.172,34.172,0,0,1,62.381,68.362h0A34.172,34.172,0,0,1,28.2,34.181h0A34.172,34.172,0,0,1,62.381,0Z" transform="translate(-28.2)" fill="#0052ff"/>
          </g>
          <path id="Path_58" data-name="Path 58" d="M77.988,61.773A12.024,12.024,0,1,1,89.816,47.738h12.1a24.049,24.049,0,1,0,0,4.021h-12.1A12,12,0,0,1,77.988,61.773Z" transform="translate(-15.568 -15.568)" fill="#fff"/>
        </g>
      </g>
    </g>
  </g>
</svg>
