<svg xmlns="http://www.w3.org/2000/svg" xmlns:xlink="http://www.w3.org/1999/xlink" width="105" height="105" viewBox="0 0 105 105">
  <defs>
    <clipPath id="clip-path">
      <rect id="Rectangle_28" data-name="Rectangle 28" width="105" height="105" transform="translate(525 71)" fill="#fff"/>
    </clipPath>
    <filter id="Path_115" x="-21" y="-24" width="152.349" height="152.349" filterUnits="userSpaceOnUse">
      <feOffset dx="-1" dy="3" input="SourceAlpha"/>
      <feGaussianBlur stdDeviation="3" result="blur"/>
      <feFlood flood-opacity="0.282"/>
      <feComposite operator="in" in2="blur"/>
      <feComposite in="SourceGraphic"/>
    </filter>
  </defs>
  <g id="Group_158" data-name="Group 158" transform="translate(-502 -52)">
    <g id="Mask_Group_19" data-name="Mask Group 19" transform="translate(-23 -19)" clip-path="url(#clip-path)">
      <g id="Group_155" data-name="Group 155" transform="translate(329.556 48.093)">
        <g id="Group_132" data-name="Group 132">
          <g transform="matrix(1, 0, 0, 1, 195.44, 22.91)" filter="url(#Path_115)">
            <path id="Path_115-2" data-name="Path 115" d="M47.5,0A47.54,47.54,0,1,1,0,47.5,47.5,47.5,0,0,1,47.5,0Z" transform="translate(-11 49.17) rotate(-45)" fill="#f02276"/>
          </g>
        </g>
        <g id="Group_133" data-name="Group 133">
          <path id="Path_100" data-name="Path 100" d="M246.7,125.2a48.458,48.458,0,0,1-47.2-38.1.765.765,0,0,1,1.5-.3,46.745,46.745,0,0,0,60.2,34.7.728.728,0,0,1,.4,1.4A49.375,49.375,0,0,1,246.7,125.2ZM278.5,113a1.421,1.421,0,0,1-.6-.2.713.713,0,0,1,.1-1.1A47,47,0,0,0,293.5,77v-.2a.789.789,0,0,1,.8-.8.736.736,0,0,1,.8.8V77a48.441,48.441,0,0,1-16,35.9C278.9,112.9,278.7,113,278.5,113ZM199.2,77.7a.773.773,0,0,1-.8-.7v-.1a48.494,48.494,0,0,1,15.9-35.8.781.781,0,1,1,1,1.2A46.9,46.9,0,0,0,199.9,77,.684.684,0,0,1,199.2,77.7Zm94-10.1a.661.661,0,0,1-.7-.6,46.951,46.951,0,0,0-45.7-36.9,47.928,47.928,0,0,0-14.6,2.3.728.728,0,0,1-.4-1.4,47.735,47.735,0,0,1,15.1-2.4,48.557,48.557,0,0,1,47.2,38,1.1,1.1,0,0,1-.9,1Z"/>
        </g>
        <g id="Group_134" data-name="Group 134">
          <path id="Path_101" data-name="Path 101" d="M274.4,58.4l-7.3-7.3L251.2,67,235.4,51.1l-7.3,7.3L244,74.3,228.1,90.1l7.3,7.3,15.8-15.9,15.9,15.9,7.3-7.3L258.5,74.3Z" fill="#fff"/>
          <path id="Path_102" data-name="Path 102" d="M267.1,99.1,251.3,83.3,235.5,99.1l-9-9,15.8-15.8L226.5,58.5l9-9,15.8,15.8,15.8-15.8,9,9L260.3,74.3l15.8,15.8ZM251.2,79.8,267,95.6l5.6-5.6L256.8,74.2l15.8-15.8L267,52.8,251.2,68.6,235.4,52.8l-5.6,5.6,15.8,15.8L229.8,90l5.6,5.6Z" fill="#fff"/>
        </g>
      </g>
    </g>
  </g>
</svg>
