<svg xmlns="http://www.w3.org/2000/svg" xmlns:xlink="http://www.w3.org/1999/xlink" width="307" height="140" viewBox="0 0 307 140">
  <defs>
    <clipPath id="clip-path">
      <rect id="Rectangle_4" data-name="Rectangle 4" width="307" height="140" fill="#fff"/>
    </clipPath>
  </defs>
  <g id="Mask_Group_3" data-name="Mask Group 3" clip-path="url(#clip-path)">
    <g id="E-Trade-Logo.wine" transform="translate(28.765 52.787)">
      <path id="Path_51" data-name="Path 51" d="M250.1,14.97a2.633,2.633,0,1,1-2.634-2.633A2.634,2.634,0,0,1,250.1,14.97Zm-2.633-2.194a2.194,2.194,0,1,0,2.2,2.194A2.193,2.193,0,0,0,247.467,12.776Zm1.14,1.638a.834.834,0,0,1-.818.752c.23.078.409.285,1.006,1.267h-.559c-.44-.746-.6-1.2-1.067-1.2h-.3v1.2h-.452V13.6h1.141c.86,0,1.049.426,1.049.818m-1.738.425h.616c.393,0,.642-.108.642-.432s-.251-.429-.642-.429h-.616v.861m-4.316,24.618H213.606V12.56h28.449v4.819H220.1v5.9h15.085V28.11H220.1v6.257h22.45ZM28.946,34.367H6.5V28.109H21.579V23.275H6.5v-5.9H28.449V12.56H0v26.9H28.946ZM83.637,17.631H96.578V12.56H64.251V17.63H77.117V39.456h6.522V17.63Zm92-5.071H192.8c10.5,0,16.158,4.587,16.158,13.414a12.375,12.375,0,0,1-6.3,11.264c-2.715,1.714-6.522,2.217-11.525,2.217H175.634Zm14.582,21.553c8.269,0,12.275-1.211,12.275-8.265,0-5.772-3.409-8.218-9.558-8.218h-10.7V34.112Zm-48.451,5.344h-6.522l15.781-26.9h6.424l16.052,26.9h-7.345L162.8,34.113H145.024ZM147.812,29h12.276l-6.022-10.888ZM107.273,39.456h-6.445V12.56h21.709c6.045,0,10,3.581,10,8.795,0,4.237-2.045,6.988-6.049,8.091l6.766,10.009h-7.274l-6.513-9.529h-12.2v9.53Zm0-14.7h14.561c2.742,0,4.335-1.357,4.335-3.579,0-2.04-1.618-3.454-4.357-3.454H107.275v7.033Z" transform="translate(0 -8.94)"/>
      <path id="Path_52" data-name="Path 52" d="M177.478,20.69H166.131l5.674,9.826-6.271,3.623-5.674-9.83-4.181-7.241,4.181-7.242L165.534,0l6.272,3.619-5.674,9.83h11.347Z" transform="translate(-112.818)" fill="#9c0"/>
      <path id="Path_53" data-name="Path 53" d="M106.864,20.69h11.349l-5.673,9.826,6.271,3.623,5.673-9.83,4.181-7.241-4.181-7.242L118.811,0,112.54,3.619l5.673,9.83H106.864Z" transform="translate(-77.443)" fill="#63c"/>
    </g>
  </g>
</svg>
