<svg xmlns="http://www.w3.org/2000/svg" xmlns:xlink="http://www.w3.org/1999/xlink" width="1121" height="554" viewBox="0 0 1121 554">
  <defs>
    <clipPath id="clip-path">
      <rect id="Rectangle_1" data-name="Rectangle 1" width="1121" height="554" transform="translate(1057 1500)" fill="#fff" stroke="#707070" stroke-width="1"/>
    </clipPath>
    <linearGradient id="linear-gradient" x1="0.5" y1="0.968" x2="0.5" y2="0.076" gradientUnits="objectBoundingBox">
      <stop offset="0" stop-color="#f5f8ff"/>
      <stop offset="0.991" stop-color="#e0e0e0"/>
      <stop offset="1" stop-color="#d8e0eb"/>
    </linearGradient>
    <linearGradient id="linear-gradient-2" x1="0.498" y1="0.984" x2="0.498" y2="0.445" gradientUnits="objectBoundingBox">
      <stop offset="0" stop-color="#fff"/>
      <stop offset="0.991" stop-color="#e6edf7"/>
    </linearGradient>
    <linearGradient id="linear-gradient-4" x1="0.502" y1="0.984" x2="0.502" y2="0.445" xlink:href="#linear-gradient-2"/>
  </defs>
  <g id="Mask_Group_1" data-name="Mask Group 1" transform="translate(-1057 -1500)" clip-path="url(#clip-path)">
    <g id="Group_17" data-name="Group 17" transform="translate(-1468.004 239.169)">
      <g id="Group_15" data-name="Group 15">
        <path id="Path" d="M197.81,74.926c-32.361.916-71.559,0-98.9-.456-27.348.456-66.546,1.372-98.907.456C31.906,56.654,43.3,22.388,45.122,0H152.688C154.967,22.388,165.9,56.654,197.81,74.926Z" transform="translate(2984.008 1693.59)" fill="url(#linear-gradient)"/>
        <path id="Path-2" data-name="Path" d="M5.013,10.05H196.9a5.064,5.064,0,0,0,5.013-5.027A5.063,5.063,0,0,0,196.9,0H5.013A5.063,5.063,0,0,0,0,5.023,5.064,5.064,0,0,0,5.013,10.05Z" transform="translate(2982.185 1763.95)" fill="#e0e0e0"/>
        <path id="Path-3" data-name="Path" d="M405.66,11.909V293.338a11.779,11.779,0,0,1-11.849,11.878H11.854A11.783,11.783,0,0,1,0,293.338V11.909A11.787,11.787,0,0,1,11.854.026H393.811C400.191-.429,405.66,5.054,405.66,11.909Z" transform="translate(2880.999 1396.597)" fill="#f5f5f5"/>
        <path id="Path-4" data-name="Path" d="M405.66,11.909v242.14H0V11.909A11.787,11.787,0,0,1,11.854.026H393.811C400.191-.429,405.66,5.054,405.66,11.909Z" transform="translate(2880.999 1396.597)" fill="#676f73"/>
        <path id="Path-5" data-name="Path" d="M376.489,0H0V225.7H376.489Z" transform="translate(2894.675 1411.701)" fill="#fff"/>
        <path id="Path-6" data-name="Path" d="M5.924,11.883A5.941,5.941,0,1,0,0,5.939a5.941,5.941,0,0,0,5.924,5.944Z" transform="translate(2911.082 1425.407)" fill="#fd724f"/>
        <path id="Path-7" data-name="Path" d="M5.924,11.883A5.941,5.941,0,1,0,0,5.939a5.941,5.941,0,0,0,5.924,5.944Z" transform="translate(2930.227 1425.407)" fill="#ffcb00"/>
        <path id="Path-8" data-name="Path" d="M5.924,11.883A5.941,5.941,0,1,0,0,5.939a5.941,5.941,0,0,0,5.924,5.944Z" transform="translate(2949.367 1425.407)" fill="#7ed171"/>
        <path id="Path-9" data-name="Path" d="M376.489,0H0V186.4H81.129V2.739h295.36Z" transform="translate(2894.675 1450.994)" fill="#f5f5f5"/>
        <path id="Path-10" data-name="Path" d="M10.026,20.1A10.052,10.052,0,1,0,0,10.05,10.052,10.052,0,0,0,10.026,20.1Z" transform="translate(2926.125 1471.094)" fill="#fff"/>
        <path id="Path-11" data-name="Path" d="M57.431,4.591H2.279A2.154,2.154,0,0,1,0,2.307,2.157,2.157,0,0,1,2.279.024H57.431A2.157,2.157,0,0,1,59.71,2.307C60.166,3.224,58.8,4.591,57.431,4.591Z" transform="translate(2906.069 1501.681)" fill="#fff"/>
        <path id="Path-12" data-name="Path" d="M57.431,4.6H2.279A2.157,2.157,0,0,1,0,2.312,2.158,2.158,0,0,1,2.279.023H57.431A2.158,2.158,0,0,1,59.71,2.312C60.166,3.223,58.8,4.6,57.431,4.6Z" transform="translate(2906.069 1515.843)" fill="#fff"/>
        <path id="Path-13" data-name="Path" d="M57.431,4.591H2.279A2.154,2.154,0,0,1,0,2.307,2.154,2.154,0,0,1,2.279.024H57.431A2.154,2.154,0,0,1,59.71,2.307C60.166,3.224,58.8,4.591,57.431,4.591Z" transform="translate(2906.069 1530.008)" fill="#fff"/>
        <path id="Path-14" data-name="Path" d="M57.431,4.6H2.279A2.158,2.158,0,0,1,0,2.307,2.157,2.157,0,0,1,2.279.023H57.431A2.157,2.157,0,0,1,59.71,2.307C60.166,3.223,58.8,4.6,57.431,4.6Z" transform="translate(2906.069 1544.17)" fill="#fff"/>
        <path id="Path-15" data-name="Path" d="M57.431,4.591H2.279A2.154,2.154,0,0,1,0,2.307,2.154,2.154,0,0,1,2.279.024H57.431A2.154,2.154,0,0,1,59.71,2.307C60.166,3.219,58.8,4.591,57.431,4.591Z" transform="translate(2906.069 1558.335)" fill="#fff"/>
        <path id="Path-16" data-name="Path" d="M30.994,5.023H1.823A1.961,1.961,0,0,1,0,3.2V1.828A1.961,1.961,0,0,1,1.823,0H30.994a1.961,1.961,0,0,1,1.823,1.828V3.195C32.361,4.111,31.906,5.023,30.994,5.023Z" transform="translate(2906.069 1572.065)" fill="#fff"/>
        <path id="Path-17" data-name="Path" d="M10.031,20.1A10.05,10.05,0,1,0,0,10.05,10.05,10.05,0,0,0,10.031,20.1Z" transform="translate(3072.884 1667.552)" fill="#e0e0e0"/>
        <path id="Path-18" data-name="Path" d="M118.969,59.393a65.4,65.4,0,0,1-1.391,13.25v.916A60.455,60.455,0,0,1,81.12,115.592c-.911.456-1.343.456-2.255.911a52.856,52.856,0,0,1-19.141,3.2,59.851,59.851,0,1,1,0-119.7,59.2,59.2,0,0,1,59.245,59.392Z" transform="translate(3207.01 1331.281)" fill="#703372" stroke="#fff" stroke-width="6"/>
        <path id="Path-19" data-name="Path" d="M20.968,0H0V50.715H20.968Z" transform="translate(3000.87 1555.615)" fill="#f5f5f5"/>
        <path id="Path-20" data-name="Path" d="M20.963,0H0V74.015H20.963Z" transform="translate(3052.376 1532.315)" fill="#f5f5f5"/>
        <path id="Path-21" data-name="Path" d="M20.968,0H0V50.715H20.968Z" transform="translate(3103.878 1555.615)" fill="#f5f5f5"/>
        <path id="Path-22" data-name="Path" d="M20.963,0H0V109.653H20.963Z" transform="translate(3155.385 1496.678)" fill="#f5f5f5"/>
        <path id="Path-23" data-name="Path" d="M20.963,0H0V75.387H20.963Z" transform="translate(3206.882 1530.944)" fill="#f5f5f5"/>
        <path id="Path-24" data-name="Path" d="M20.968,0H0V11.422H20.968Z" transform="translate(3000.87 1594.908)" fill="#e0e0e0"/>
        <path id="Path-25" data-name="Path" d="M20.963,0H0V16.449H20.963Z" transform="translate(3052.376 1589.881)" fill="#e0e0e0"/>
        <path id="Path-26" data-name="Path" d="M20.968,0H0V11.422H20.968Z" transform="translate(3103.878 1594.908)" fill="#e0e0e0"/>
        <path id="Path-27" data-name="Path" d="M20.963,0H0V24.672H20.963Z" transform="translate(3155.385 1581.659)" fill="#e0e0e0"/>
        <path id="Path-28" data-name="Path" d="M20.963,0H0V16.905H20.963Z" transform="translate(3206.882 1589.425)" fill="#e0e0e0"/>
        <path id="Path-29" data-name="Path" d="M26.214,126.57c-9.115,0-16.867-2.744-21.424-4.116a7.237,7.237,0,0,1-4.557-8.678,7.212,7.212,0,0,1,8.659-4.567c12.309,4.111,26.893,7.306,39.653-6.855L52.2,98.243c16.4-17.817,25.975-28.327,56.058-11.878,24.158,13.705,32.817,8.678,42.387-6.855,3.646-6.395,6.38-13.25,9.115-19.644,5.013-12.794,10.031-26.044,23.7-24.216h.911c13.216,1.372,29.167,3.2,49.219-24.672a55.584,55.584,0,0,1,7.771-9.134A6.562,6.562,0,0,1,250.9,2.3a6.634,6.634,0,0,1-.432,9.594c-1.823,1.372-3.646,4.111-5.948,7.311C220.4,53.01,197.131,50.727,183,49.355h-.911c-3.19-.456-5.924,5.483-9.57,15.533-2.734,6.855-5.469,14.622-10.031,21.932C147.9,111.036,130.131,114.231,101.871,98.7c-20.513-11.422-23.247-8.222-39.2,9.139l-4.1,4.567C48.088,123.826,36.24,126.57,26.214,126.57Z" transform="translate(2986.965 1471.994)" fill="#ff66a9" stroke="#fff" stroke-width="4"/>
        <path id="Path-30" data-name="Path" d="M31.45,7.311H3.651A3.6,3.6,0,0,1,0,3.655,3.6,3.6,0,0,1,3.651,0h27.8A3.6,3.6,0,0,1,35.1,3.655a3.6,3.6,0,0,1-3.65,3.656Z" transform="translate(2997.679 1479.317)" fill="#e0e0e0"/>
        <path id="Path-31" data-name="Path" d="M56.52,7.311H3.651A3.6,3.6,0,0,1,0,3.655,3.6,3.6,0,0,1,3.651,0H56.064A3.6,3.6,0,0,1,59.71,3.655C60.166,5.483,58.343,7.311,56.52,7.311Z" transform="translate(2997.679 1497.138)" fill="#e0e0e0"/>
        <g id="Group_12" data-name="Group 12" transform="translate(528 1090.084)">
          <path id="Path-32" data-name="Path" d="M4.652,9.277A4.276,4.276,0,0,1,0,4.636,4.272,4.272,0,0,1,4.652,0,4.273,4.273,0,0,1,9.309,4.636,4.585,4.585,0,0,1,4.652,9.277Z" transform="translate(2331.416 389.309)" fill="#e0e0e0"/>
          <path id="Path-33" data-name="Path" d="M4.652,9.277A4.276,4.276,0,0,1,0,4.636,4.272,4.272,0,0,1,4.652,0,4.273,4.273,0,0,1,9.309,4.636,4.585,4.585,0,0,1,4.652,9.277Z" transform="translate(2331.416 487.905)" fill="#e0e0e0"/>
          <path id="Path-34" data-name="Path" d="M5.822,0H4.657A4.58,4.58,0,0,0,0,4.636,4.278,4.278,0,0,0,4.657,9.277H5.822a4.583,4.583,0,0,0,4.652-4.641A4.579,4.579,0,0,0,5.822,0Z" transform="translate(2165.035 246.636)" fill="#e0e0e0"/>
          <path id="Path-35" data-name="Path" d="M5.816,0H4.652A4.579,4.579,0,0,0,0,4.636,4.276,4.276,0,0,0,4.652,9.277H5.816a4.58,4.58,0,0,0,4.652-4.641A4.576,4.576,0,0,0,5.816,0Z" transform="translate(2146.422 246.636)" fill="#e0e0e0"/>
          <path id="Path-36" data-name="Path" d="M5.816,0H4.652C2.323,0,0,1.736,0,4.059S1.741,8.695,4.07,8.695H5.816a3.968,3.968,0,0,0,4.07-4.059A4.922,4.922,0,0,0,5.816,0Z" transform="translate(2183.654 246.636)" fill="#e0e0e0"/>
          <path id="Path-37" data-name="Path" d="M9.309,4.641A4.581,4.581,0,0,0,4.657,0,4.278,4.278,0,0,0,0,4.641V5.8a4.585,4.585,0,0,0,4.657,4.641A4.276,4.276,0,0,0,9.309,5.8Z" transform="translate(2220.881 298.832)" fill="#e0e0e0"/>
          <path id="Path-38" data-name="Path" d="M8.169,2.921,7.587,1.763A4.518,4.518,0,0,0,1.77.6,4.486,4.486,0,0,0,.606,6.4l.582,1.159C1.77,8.722,3.517,9.3,4.681,9.3A3.486,3.486,0,0,0,7,8.722C9.333,7.563,9.915,5.245,8.169,2.921Z" transform="translate(2214.459 264.01)" fill="#e0e0e0"/>
          <path id="Path-39" data-name="Path" d="M4.657,0A4.585,4.585,0,0,0,0,4.641V5.8a4.585,4.585,0,0,0,4.657,4.641A4.584,4.584,0,0,0,9.309,5.8V4.641A4.583,4.583,0,0,0,4.657,0Z" transform="translate(2220.881 317.391)" fill="#e0e0e0"/>
          <path id="Path-40" data-name="Path" d="M5.822,0H4.657A4.58,4.58,0,0,0,0,4.636,4.278,4.278,0,0,0,4.657,9.277H5.822a4.583,4.583,0,0,0,4.652-4.641A4.579,4.579,0,0,0,5.822,0Z" transform="translate(2128.385 246.636)" fill="#e0e0e0"/>
          <path id="Path-41" data-name="Path" d="M7.563,1.161,6.4.579C4.075-.58,1.747,0,.582,2.32S0,6.961,2.329,8.12l.582.582a3.511,3.511,0,0,0,2.323.577c1.747,0,2.911-.577,3.493-2.318a4.486,4.486,0,0,0-1.164-5.8Z" transform="translate(2201.104 251.852)" fill="#e0e0e0"/>
          <path id="Path-42" data-name="Path" d="M7.584,1.763A4.517,4.517,0,0,0,1.768.6,4.492,4.492,0,0,0,.6,6.4l.582,1.159C1.768,8.722,3.514,9.3,4.679,9.3A3.479,3.479,0,0,0,7,8.722a4.486,4.486,0,0,0,1.164-5.8Z" transform="translate(2227.841 371.306)" fill="#e0e0e0"/>
          <path id="Path-43" data-name="Path" d="M7.006,1.184,6.424.6C4.1-.557,1.766.026.6,1.761-.557,4.085.025,6.4,1.766,7.561l1.164.582c.582.582,1.164.582,2.329.582A4.392,4.392,0,0,0,9.329,6.4C9.912,5.243,8.747,2.343,7.006,1.184Z" transform="translate(2241.222 383.484)" fill="#e0e0e0"/>
          <path id="Path-44" data-name="Path" d="M5.822,0H4.657C2.329,0,0,1.736,0,4.059S1.747,8.7,4.075,8.7H5.822a3.972,3.972,0,0,0,4.07-4.064C10.474,2.318,8.727.577,5.822,0Z" transform="translate(2257.532 389.309)" fill="#e0e0e0"/>
          <path id="Path-45" data-name="Path" d="M4.77,9.394C7.676,8.812,9.422,7.07,8.84,4.753V3.594C8.258,1.27,6.511-.465,3.606.111,1.277.694-.469,2.429.113,5.329V6.494a5.554,5.554,0,0,0,4.657,2.9Z" transform="translate(2220.77 281.32)" fill="#e0e0e0"/>
          <path id="Path-46" data-name="Path" d="M8.727,5.218V4.059C8.727,1.741,6.4,0,4.075,0S0,2.318,0,4.636V5.8A4.247,4.247,0,0,0,4.075,9.277h.582a3.282,3.282,0,0,0,4.07-4.059Z" transform="translate(2221.463 353.35)" fill="#e0e0e0"/>
          <path id="Path-47" data-name="Path" d="M4.657,10.441A4.583,4.583,0,0,0,9.309,5.8V4.641A4.584,4.584,0,0,0,4.657,0,4.278,4.278,0,0,0,0,4.641V5.8C.582,8.123,2.329,10.441,4.657,10.441Z" transform="translate(2220.881 335.368)" fill="#e0e0e0"/>
          <path id="Path-48" data-name="Path" d="M4.652,0A4.576,4.576,0,0,0,0,4.636,4.276,4.276,0,0,0,4.652,9.277h.582c2.329,0,4.075-1.741,4.075-4.641A4.58,4.58,0,0,0,4.652,0Z" transform="translate(2110.354 246.636)" fill="#e0e0e0"/>
          <path id="Path-49" data-name="Path" d="M60.5,0H4.652A4.58,4.58,0,0,0,0,4.641,4.273,4.273,0,0,0,4.652,9.282H61.08a4.58,4.58,0,0,0,4.652-4.641C65.732,1.741,62.827,0,60.5,0Z" transform="translate(2275.568 389.886)" fill="#e0e0e0"/>
          <path id="Path-50" data-name="Path" d="M4.652,9.282A4.276,4.276,0,0,1,0,4.641,4.276,4.276,0,0,1,4.652,0,4.278,4.278,0,0,1,9.309,4.641,4.585,4.585,0,0,1,4.652,9.282Z" transform="translate(2331.416 436.863)" fill="#e0e0e0"/>
          <path id="Path-51" data-name="Path" d="M5.816,0H4.657A4.585,4.585,0,0,0,0,4.641,4.273,4.273,0,0,0,4.657,9.277H5.816a4.58,4.58,0,0,0,4.657-4.636A4.585,4.585,0,0,0,5.816,0Z" transform="translate(2177.833 437.446)" fill="#e0e0e0"/>
          <path id="Path-52" data-name="Path" d="M5.816,0H4.652A4.58,4.58,0,0,0,0,4.641,4.269,4.269,0,0,0,4.652,9.277H5.816a4.579,4.579,0,0,0,4.652-4.636A4.583,4.583,0,0,0,5.816,0Z" transform="translate(2197.033 437.446)" fill="#e0e0e0"/>
          <path id="Path-53" data-name="Path" d="M5.816,0H4.652A4.583,4.583,0,0,0,0,4.641,4.272,4.272,0,0,0,4.652,9.277H5.816a4.58,4.58,0,0,0,4.657-4.636A4.585,4.585,0,0,0,5.816,0Z" transform="translate(2158.637 437.446)" fill="#e0e0e0"/>
          <path id="Path-54" data-name="Path" d="M5.816,0H4.652A4.58,4.58,0,0,0,0,4.641,4.272,4.272,0,0,0,4.652,9.277H5.816a4.576,4.576,0,0,0,4.652-4.636A4.58,4.58,0,0,0,5.816,0Z" transform="translate(2139.441 437.446)" fill="#e0e0e0"/>
          <path id="Path-55" data-name="Path" d="M5.822,0H4.657A4.585,4.585,0,0,0,0,4.641,4.273,4.273,0,0,0,4.657,9.277H5.822a4.579,4.579,0,0,0,4.652-4.636A4.276,4.276,0,0,0,5.822,0Z" transform="translate(2120.24 437.446)" fill="#e0e0e0"/>
          <path id="Path-56" data-name="Path" d="M5.816,0H4.652A4.58,4.58,0,0,0,0,4.641,4.269,4.269,0,0,0,4.652,9.277H5.816a4.579,4.579,0,0,0,4.652-4.636A4.583,4.583,0,0,0,5.816,0Z" transform="translate(2254.626 437.446)" fill="#e0e0e0"/>
          <path id="Path-57" data-name="Path" d="M5.816,0H4.652A4.583,4.583,0,0,0,0,4.641,4.272,4.272,0,0,0,4.652,9.277H5.816a4.576,4.576,0,0,0,4.652-4.636A4.58,4.58,0,0,0,5.816,0Z" transform="translate(2216.229 437.446)" fill="#e0e0e0"/>
          <path id="Path-58" data-name="Path" d="M5.822,0H4.657A4.585,4.585,0,0,0,0,4.641,4.273,4.273,0,0,0,4.657,9.277H5.822a4.579,4.579,0,0,0,4.652-4.636A4.583,4.583,0,0,0,5.822,0Z" transform="translate(2235.425 437.446)" fill="#e0e0e0"/>
          <path id="Path-59" data-name="Path" d="M5.234,0H4.652A4.583,4.583,0,0,0,0,4.641,4.272,4.272,0,0,0,4.652,9.277h.582A4.58,4.58,0,0,0,9.892,4.641,4.585,4.585,0,0,0,5.234,0Z" transform="translate(2102.208 437.446)" fill="#e0e0e0"/>
          <path id="Path-60" data-name="Path" d="M62.245,0H4.652A4.583,4.583,0,0,0,0,4.641,4.272,4.272,0,0,0,4.652,9.277H62.245A4.576,4.576,0,0,0,66.9,4.641,4.58,4.58,0,0,0,62.245,0Z" transform="translate(2273.822 437.446)" fill="#e0e0e0"/>
          <path id="Path-61" data-name="Path" d="M2.911.835l-.582.582a4.133,4.133,0,0,0-1.747,5.8,4.9,4.9,0,0,0,4.07,2.318,4.435,4.435,0,0,0,2.329-.577l1.164-.582a3.607,3.607,0,0,0,1.164-5.8C7.563.258,4.652-.9,2.911.835Z" transform="translate(2201.104 625.679)" fill="#e0e0e0"/>
          <path id="Path-62" data-name="Path" d="M5.234,0H4.07C1.741,0,0,2.323,0,4.641A4.362,4.362,0,0,0,4.07,8.7H5.234C7.563,8.7,9.3,6.382,9.3,4.059,9.886,1.741,7.563,0,5.234,0Z" transform="translate(2183.072 631.155)" fill="#e0e0e0"/>
          <path id="Path-63" data-name="Path" d="M4.77.112C2.442-.47.113,1.271.113,4.171V5.33a4.519,4.519,0,0,0,3.493,5.223h.582a3.887,3.887,0,0,0,4.07-3.482V5.912A4.826,4.826,0,0,0,4.77.112Z" transform="translate(2221.352 595.666)" fill="#e0e0e0"/>
          <path id="Path-64" data-name="Path" d="M5.822,0H4.657A4.585,4.585,0,0,0,0,4.641,4.273,4.273,0,0,0,4.657,9.277H5.822a4.579,4.579,0,0,0,4.652-4.636A4.583,4.583,0,0,0,5.822,0Z" transform="translate(2165.035 631.737)" fill="#e0e0e0"/>
          <path id="Path-65" data-name="Path" d="M4.657,0A4.58,4.58,0,0,0,0,4.636V5.8a4.581,4.581,0,0,0,4.657,4.636A4.272,4.272,0,0,0,9.309,5.8V4.636A4.579,4.579,0,0,0,4.657,0Z" transform="translate(2220.881 577.801)" fill="#e0e0e0"/>
          <path id="Path-66" data-name="Path" d="M5.822,0H4.657A4.585,4.585,0,0,0,0,4.641,4.273,4.273,0,0,0,4.657,9.277H5.822a4.579,4.579,0,0,0,4.652-4.636A4.583,4.583,0,0,0,5.822,0Z" transform="translate(2128.385 631.737)" fill="#e0e0e0"/>
          <path id="Path-67" data-name="Path" d="M5.816,0H4.652A4.583,4.583,0,0,0,0,4.641,4.272,4.272,0,0,0,4.652,9.277H5.816a4.576,4.576,0,0,0,4.652-4.636A4.58,4.58,0,0,0,5.816,0Z" transform="translate(2146.422 631.737)" fill="#e0e0e0"/>
          <path id="Path-68" data-name="Path" d="M7,.6A4.521,4.521,0,0,0,1.188,1.766L.606,2.925a4.486,4.486,0,0,0,1.164,5.8A3.526,3.526,0,0,0,4.1,9.3c1.163,0,2.9-.575,3.487-1.734L8.169,6.4A3.608,3.608,0,0,0,7,.6Z" transform="translate(2214.459 613.153)" fill="#e0e0e0"/>
          <path id="Path-69" data-name="Path" d="M3.339.466l-1.164.582a3.609,3.609,0,0,0-1.159,5.8A4.769,4.769,0,0,0,4.5,9.167a3.5,3.5,0,0,0,2.329-.582l.582-.577a4.135,4.135,0,0,0,1.741-5.8A4.526,4.526,0,0,0,3.339.466Z" transform="translate(2240.231 493.816)" fill="#e0e0e0"/>
          <path id="Path-70" data-name="Path" d="M5.24,0H4.075C1.747,0,0,2.323,0,4.641A4.367,4.367,0,0,0,4.075,8.7H5.822c2.323,0,4.07-2.318,4.07-4.641S7.563,0,5.24,0Z" transform="translate(2257.532 488.482)" fill="#e0e0e0"/>
          <path id="Path-71" data-name="Path" d="M1.186,2.056.6,3.22a4.486,4.486,0,0,0,1.168,5.8A3.5,3.5,0,0,0,4.1,9.6c1.161,0,2.9-.585,3.484-1.744l.582-.577A4.486,4.486,0,0,0,7,1.479a3.312,3.312,0,0,0-5.814.577Z" transform="translate(2227.841 506.144)" fill="#e0e0e0"/>
          <path id="Path-72" data-name="Path" d="M4.657,0A4.58,4.58,0,0,0,0,4.636V5.8a4.581,4.581,0,0,0,4.657,4.636A4.275,4.275,0,0,0,9.309,5.8V4.636A5,5,0,0,0,4.657,0Z" transform="translate(2220.881 559.242)" fill="#e0e0e0"/>
          <path id="Path-73" data-name="Path" d="M4.657,0A4.585,4.585,0,0,0,0,4.641V5.8a4.582,4.582,0,0,0,4.657,4.641A4.276,4.276,0,0,0,9.309,5.8V4.641A4.583,4.583,0,0,0,4.657,0Z" transform="translate(2220.881 541.259)" fill="#e0e0e0"/>
          <path id="Path-74" data-name="Path" d="M5.234.113A4.528,4.528,0,0,0,0,3.59V4.749C0,7.072,1.747,9.39,4.075,9.39h.582a3.971,3.971,0,0,0,4.07-4.059V4.172C9.309,2.431,7.563.113,5.234.113Z" transform="translate(2221.463 523.169)" fill="#e0e0e0"/>
          <path id="Path-75" data-name="Path" d="M4.652,0A4.583,4.583,0,0,0,0,4.641,4.272,4.272,0,0,0,4.652,9.277h.582c2.329,0,4.075-1.736,4.075-4.636A4.585,4.585,0,0,0,4.652,0Z" transform="translate(2110.354 631.737)" fill="#e0e0e0"/>
          <path id="Path-76" data-name="Path" d="M61.08,0H4.652A4.58,4.58,0,0,0,0,4.641,4.276,4.276,0,0,0,4.652,9.282h57.01a4.58,4.58,0,0,0,4.652-4.641C66.314,1.741,63.409,0,61.08,0Z" transform="translate(2274.986 488.482)" fill="#e0e0e0"/>
          <g id="Group_6" data-name="Group 6" transform="translate(502.472 -35.798)">
            <path id="Path-77" data-name="Path" d="M44.172,88.169A44.085,44.085,0,1,0,0,44.085,44.12,44.12,0,0,0,44.172,88.169Z" transform="translate(1579.914 631.544)" fill="#e0e0e0"/>
            <g id="Group_2" data-name="Group 2" transform="translate(1598.981 647.723)">
              <path id="Path-78" data-name="Path" d="M50.208,46.629A12.65,12.65,0,0,1,48.534,48.3a34.807,34.807,0,0,1-23.849,9.409A35.694,35.694,0,0,1,4.6,51.438,39.99,39.99,0,0,1,0,47.674C.835,46.629,2.092,46,4.811,44.957l1.046-.42c2.092-.835,5.022-1.881,8.786-3.554a3.724,3.724,0,0,0,1.464-1.046,1.081,1.081,0,0,0,.42-.835,3.881,3.881,0,0,0,.418-1.464v-7.11l-.418-.418a5.13,5.13,0,0,1-1.046-3.136l-.628-.209c-1.881.418-1.673-1.464-2.092-5.229-.209-1.673,0-1.881.837-2.09l.628-.837a21.591,21.591,0,0,1-1.883-7.736c0-3.554,1.464-5.853,3.556-6.9A14.619,14.619,0,0,1,14.643,0s7.323,1.255,10.041.837c3.138-.628,8.16.209,10.043,4.391,3.138,1.253,4.184,3.136,4.6,5.227.418,3.345-1.464,7.11-1.883,8.365v.209c.42.209.628.627.42,2.09-.42,3.554-.42,5.646-2.092,5.227L34.1,29.064c0,.42,0,.42-.209.628V37.22a2.921,2.921,0,0,0,.627,1.881c.211.209.211.418.42.418a5.556,5.556,0,0,0,1.255,1.046l9.415,3.763A15.413,15.413,0,0,1,50.208,46.629Z" transform="translate(0 0)" fill="#fff"/>
              <path id="Path-79" data-name="Path" d="M50.208,6.692a12.65,12.65,0,0,1-1.674,1.673,34.807,34.807,0,0,1-23.849,9.409A35.694,35.694,0,0,1,4.6,11.5,39.99,39.99,0,0,1,0,7.736C.835,6.692,2.092,6.064,4.811,5.02L5.857,4.6c2.092-.835,5.022-1.881,8.786-3.554A3.724,3.724,0,0,0,16.107,0a11.4,11.4,0,0,0,9.415,4.809,11.692,11.692,0,0,0,9.206-4.6,5.466,5.466,0,0,0,1.255,1.046Q42.259,3.764,45.4,5.02A8.023,8.023,0,0,1,50.208,6.692Z" transform="translate(0 39.937)" fill="#e2a122"/>
              <path id="Path-80" data-name="Path" d="M25.347,18.82a4.057,4.057,0,0,0-.628-2.719c0-.209-.209-.209-.209-.42-1.464-2.926-4.6-3.972-7.531-4.181-7.74-.42-8.367,1.044-10.878-1.046.837,1.046.837,2.928-.418,5.018a6.142,6.142,0,0,1-3.767,2.719C-1.64,10.246.243,5.229,3.59,3.556A15.385,15.385,0,0,1,2.753,0s7.323,1.255,10.041.837c3.138-.628,8.16.209,10.043,4.391,3.138,1.253,4.184,3.136,4.6,5.227C27.648,13.8,25.765,17.356,25.347,18.82Z" transform="translate(11.89 0)" fill="#263238"/>
              <path id="Path-81" data-name="Path" d="M.418,7.947V.837L0,.42V0A5.62,5.62,0,0,0,1.464,1.673l5.65,3.974a3.763,3.763,0,0,0,4.6,0l5.23-4.6c.209-.209.418-.418.627-.418V8.156A1.883,1.883,0,0,0,17.781,9.2H.628A2.627,2.627,0,0,1,.418,7.947Z" transform="translate(16.526 29.273)" fill="url(#linear-gradient-2)"/>
            </g>
          </g>
          <g id="Group_7" data-name="Group 7" transform="translate(502.472 -420.798)">
            <path id="Path-82" data-name="Path" d="M44.172,88.169A44.085,44.085,0,1,0,0,44.085,44.12,44.12,0,0,0,44.172,88.169Z" transform="translate(1579.914 631.544)" fill="#e0e0e0"/>
            <g id="Group_2-2" data-name="Group 2" transform="translate(1598.981 647.723)">
              <path id="Path-83" data-name="Path" d="M50.208,46.629A12.65,12.65,0,0,1,48.534,48.3a34.807,34.807,0,0,1-23.849,9.409A35.694,35.694,0,0,1,4.6,51.438,39.99,39.99,0,0,1,0,47.674C.835,46.629,2.092,46,4.811,44.957l1.046-.42c2.092-.835,5.022-1.881,8.786-3.554a3.724,3.724,0,0,0,1.464-1.046,1.081,1.081,0,0,0,.42-.835,3.881,3.881,0,0,0,.418-1.464v-7.11l-.418-.418a5.13,5.13,0,0,1-1.046-3.136l-.628-.209c-1.881.418-1.673-1.464-2.092-5.229-.209-1.673,0-1.881.837-2.09l.628-.837a21.591,21.591,0,0,1-1.883-7.736c0-3.554,1.464-5.853,3.556-6.9A14.619,14.619,0,0,1,14.643,0s7.323,1.255,10.041.837c3.138-.628,8.16.209,10.043,4.391,3.138,1.253,4.184,3.136,4.6,5.227.418,3.345-1.464,7.11-1.883,8.365v.209c.42.209.628.627.42,2.09-.42,3.554-.42,5.646-2.092,5.227L34.1,29.064c0,.42,0,.42-.209.628V37.22a2.921,2.921,0,0,0,.627,1.881c.211.209.211.418.42.418a5.556,5.556,0,0,0,1.255,1.046l9.415,3.763A15.413,15.413,0,0,1,50.208,46.629Z" transform="translate(0 0)" fill="#fff"/>
              <path id="Path-84" data-name="Path" d="M50.208,6.692a12.65,12.65,0,0,1-1.674,1.673,34.807,34.807,0,0,1-23.849,9.409A35.694,35.694,0,0,1,4.6,11.5,39.99,39.99,0,0,1,0,7.736C.835,6.692,2.092,6.064,4.811,5.02L5.857,4.6c2.092-.835,5.022-1.881,8.786-3.554A3.724,3.724,0,0,0,16.107,0a11.4,11.4,0,0,0,9.415,4.809,11.692,11.692,0,0,0,9.206-4.6,5.466,5.466,0,0,0,1.255,1.046Q42.259,3.764,45.4,5.02A8.023,8.023,0,0,1,50.208,6.692Z" transform="translate(0 39.937)" fill="#703372"/>
              <path id="Path-85" data-name="Path" d="M25.347,18.82a4.057,4.057,0,0,0-.628-2.719c0-.209-.209-.209-.209-.42-1.464-2.926-4.6-3.972-7.531-4.181-7.74-.42-8.367,1.044-10.878-1.046.837,1.046.837,2.928-.418,5.018a6.142,6.142,0,0,1-3.767,2.719C-1.64,10.246.243,5.229,3.59,3.556A15.385,15.385,0,0,1,2.753,0s7.323,1.255,10.041.837c3.138-.628,8.16.209,10.043,4.391,3.138,1.253,4.184,3.136,4.6,5.227C27.648,13.8,25.765,17.356,25.347,18.82Z" transform="translate(11.89 0)" fill="#263238"/>
              <path id="Path-86" data-name="Path" d="M.418,7.947V.837L0,.42V0A5.62,5.62,0,0,0,1.464,1.673l5.65,3.974a3.763,3.763,0,0,0,4.6,0l5.23-4.6c.209-.209.418-.418.627-.418V8.156A1.883,1.883,0,0,0,17.781,9.2H.628A2.627,2.627,0,0,1,.418,7.947Z" transform="translate(16.526 29.273)" fill="url(#linear-gradient-2)"/>
            </g>
          </g>
          <g id="Group_8" data-name="Group 8" transform="translate(563.733 54.512)">
            <path id="Path-87" data-name="Path" d="M50.234,100.27A50.135,50.135,0,1,0,0,50.135,50.175,50.175,0,0,0,50.234,100.27Z" transform="translate(1450.271 335.611)" fill="#e0e0e0"/>
            <g id="Group_3" data-name="Group 3" transform="translate(1475.862 348.114)">
              <path id="Shape" d="M2.178,63.437a2.186,2.186,0,0,1-2.16-2.491A18.535,18.535,0,0,1,6.661,49.321a3.3,3.3,0,0,1,2.16-1,11.114,11.114,0,0,1-6.643-3.653,8.827,8.827,0,0,1-1-1.66c-1.826-4.483,1.328-10.3,8.635-12.621l2.158-.83c.167,0,.167-.167.334-.167C10.481,27.9,8.653,28.23,7.823,25.74a3.734,3.734,0,0,1,.332-3.321c.166-.167.166-.332.331-.5.334-.334.167-.334.167-.831v-.331a18.991,18.991,0,0,1,.83-8.637,16.253,16.253,0,0,1,4.65-7.306.583.583,0,0,0,.332-.166c.332-.332.83-.665,1.163-1A17.507,17.507,0,0,1,22.27.5,16.385,16.385,0,0,1,26.257,0,17.846,17.846,0,0,1,42.033,9.466c.166.5.5,1,.665,1.494a18,18,0,0,1,1.163,4.485,3.254,3.254,0,0,1,.166,1.163V19.43c0,1.163.663,1.991.83,3.154A4.625,4.625,0,0,1,41.2,27.734a19.154,19.154,0,0,1-2.988,6.476,31.084,31.084,0,0,1-5.147,5.313v6.145s.166.331.994.5a10.421,10.421,0,0,0,2.99.331h1.66a14.425,14.425,0,0,1,5.978,1.495,18.249,18.249,0,0,1,7.972,8.634,8.189,8.189,0,0,1,.5,1.163c.167.5.332,1,.5,1.662a3.066,3.066,0,0,1,.332,1.163,2.473,2.473,0,0,1-2.324,2.823Z" transform="translate(0 0)" fill="#fff"/>
              <path id="Path-88" data-name="Path" d="M54.3,16.441c-1.494,1.494-3.819,1.161-5.48,2.324h-46A26.887,26.887,0,0,1,0,16.938v-.664A18.963,18.963,0,0,1,6.642,4.65a4.342,4.342,0,0,1,2.159-1A11.121,11.121,0,0,1,2.159,0h9.963A15.421,15.421,0,0,0,24.744,6.477,15.684,15.684,0,0,0,36.037,1.661h2.491a14.459,14.459,0,0,1,5.978,1.494,17.472,17.472,0,0,1,7.971,8.636c.167.331.333.83.5,1.163C53.307,13.783,54.137,15.942,54.3,16.441Z" transform="translate(0.018 44.506)" fill="#ff66a9"/>
              <path id="Path-89" data-name="Path" d="M35.362,16.441a27.068,27.068,0,0,1-10.3,1.328,26.261,26.261,0,0,1-14.946-6.31c-1.163,3.985-4.65,6.974-8.469,8.635-.5.167-1,.5-1.5.664v-.166a19.216,19.216,0,0,1,.831-8.635A17.8,17.8,0,0,1,5.635,4.65c.167-.166.167-.166.333-.166.333-.333.83-.664,1.163-1A16.108,16.108,0,0,1,13.772.5,16.42,16.42,0,0,1,17.758,0,17.85,17.85,0,0,1,33.534,9.466a15.481,15.481,0,0,1,1.828,5.813Z" transform="translate(8.332 0.331)" fill="#263238"/>
              <path id="Path-90" data-name="Path" d="M22.233,25.74c-1.494,1.827-4.152,1.827-6.477,1.827,2.492-2.325,1-9.963-7.472-9.133H8.117c-11.624-2.159-10.3-14.282,1-17.769L10.941,0l.333.331a20.962,20.962,0,0,0,3.488,5.98c-4.65,3.819,1.827,5.147,4.981,7.971C22.566,15.942,24.891,22.585,22.233,25.74Z" transform="translate(0.536 29.726)" fill="#263238"/>
            </g>
          </g>
        </g>
        <g id="Group_14" data-name="Group 14" transform="translate(3302.03 1300.831)">
          <path id="Path-91" data-name="Path" d="M4.657,9.277A4.276,4.276,0,0,0,9.309,4.636,4.272,4.272,0,0,0,4.657,0,4.273,4.273,0,0,0,0,4.636,4.585,4.585,0,0,0,4.657,9.277Z" transform="translate(0.576 178.562)" fill="#e0e0e0"/>
          <path id="Path-92" data-name="Path" d="M4.657,9.277A4.276,4.276,0,0,0,9.309,4.636,4.272,4.272,0,0,0,4.657,0,4.273,4.273,0,0,0,0,4.636,4.585,4.585,0,0,0,4.657,9.277Z" transform="translate(0.576 277.158)" fill="#e0e0e0"/>
          <path id="Path-93" data-name="Path" d="M4.635,0H5.8a4.58,4.58,0,0,1,4.657,4.636A4.278,4.278,0,0,1,5.8,9.277H4.635A4.583,4.583,0,0,1-.017,4.636,4.579,4.579,0,0,1,4.635,0Z" transform="translate(165.808 35.889)" fill="#e0e0e0"/>
          <path id="Path-94" data-name="Path" d="M4.635,0H5.8a4.579,4.579,0,0,1,4.652,4.636A4.276,4.276,0,0,1,5.8,9.277H4.635A4.58,4.58,0,0,1-.017,4.636,4.576,4.576,0,0,1,4.635,0Z" transform="translate(184.427 35.889)" fill="#e0e0e0"/>
          <path id="Path-95" data-name="Path" d="M4.071,0H5.235C7.564,0,9.887,1.736,9.887,4.059S8.146,8.7,5.817,8.7H4.071A3.968,3.968,0,0,1,0,4.636,4.922,4.922,0,0,1,4.071,0Z" transform="translate(147.759 35.889)" fill="#e0e0e0"/>
          <path id="Path-96" data-name="Path" d="M0,4.641A4.581,4.581,0,0,1,4.652,0,4.278,4.278,0,0,1,9.309,4.641V5.8a4.585,4.585,0,0,1-4.657,4.641A4.276,4.276,0,0,1,0,5.8Z" transform="translate(111.11 88.085)" fill="#e0e0e0"/>
          <path id="Path-97" data-name="Path" d="M1.023,2.921l.582-1.158A4.518,4.518,0,0,1,7.422.6,4.486,4.486,0,0,1,8.586,6.4L8,7.559C7.422,8.722,5.675,9.3,4.511,9.3a3.486,3.486,0,0,1-2.319-.578C-.141,7.563-.723,5.245,1.023,2.921Z" transform="translate(117.649 53.263)" fill="#e0e0e0"/>
          <path id="Path-98" data-name="Path" d="M4.652,0A4.585,4.585,0,0,1,9.309,4.641V5.8a4.585,4.585,0,0,1-4.657,4.641A4.584,4.584,0,0,1,0,5.8V4.641A4.583,4.583,0,0,1,4.652,0Z" transform="translate(111.11 106.644)" fill="#e0e0e0"/>
          <path id="Path-99" data-name="Path" d="M4.635,0H5.8a4.58,4.58,0,0,1,4.657,4.636A4.278,4.278,0,0,1,5.8,9.277H4.635A4.583,4.583,0,0,1-.017,4.636,4.579,4.579,0,0,1,4.635,0Z" transform="translate(202.458 35.889)" fill="#e0e0e0"/>
          <path id="Path-100" data-name="Path" d="M1.761,1.161,2.924.579C5.249-.58,7.577,0,8.742,2.32S9.324,6.961,7,8.12L6.413,8.7a3.511,3.511,0,0,1-2.323.577C2.343,9.279,1.179,8.7.6,6.961a4.486,4.486,0,0,1,1.164-5.8Z" transform="translate(130.873 41.105)" fill="#e0e0e0"/>
          <path id="Path-101" data-name="Path" d="M1.183,1.763A4.517,4.517,0,0,1,7,.6,4.492,4.492,0,0,1,8.167,6.4L7.585,7.559C7,8.722,5.253,9.3,4.088,9.3a3.479,3.479,0,0,1-2.321-.578A4.486,4.486,0,0,1,.6,2.922Z" transform="translate(104.692 160.559)" fill="#e0e0e0"/>
          <path id="Path-102" data-name="Path" d="M2.474,1.184,3.056.6C5.38-.557,7.714.026,8.88,1.761c1.157,2.324.575,4.639-1.166,5.8L6.55,8.143c-.582.582-1.164.582-2.329.582A4.392,4.392,0,0,1,.151,6.4C-.432,5.243.733,2.343,2.474,1.184Z" transform="translate(90.598 172.737)" fill="#e0e0e0"/>
          <path id="Path-103" data-name="Path" d="M4.181,0H5.346C7.674,0,10,1.736,10,4.059S8.256,8.7,5.928,8.7H4.181A3.972,3.972,0,0,1,.111,4.636C-.471,2.318,1.276.577,4.181,0Z" transform="translate(73.765 178.562)" fill="#e0e0e0"/>
          <path id="Path-104" data-name="Path" d="M4.182,9.394C1.276,8.812-.47,7.07.112,4.753V3.594C.694,1.27,2.441-.465,5.346.111,7.675.694,9.421,2.429,8.839,5.329V6.494a5.554,5.554,0,0,1-4.657,2.9Z" transform="translate(111.579 70.573)" fill="#e0e0e0"/>
          <path id="Path-105" data-name="Path" d="M.128,5.218V4.059C.128,1.741,2.455,0,4.78,0S8.855,2.318,8.855,4.636V5.8A4.247,4.247,0,0,1,4.78,9.277H4.2A3.282,3.282,0,0,1,.128,5.218Z" transform="translate(110.982 142.603)" fill="#e0e0e0"/>
          <path id="Path-106" data-name="Path" d="M4.635,10.441A4.583,4.583,0,0,1-.017,5.8V4.641A4.584,4.584,0,0,1,4.635,0,4.278,4.278,0,0,1,9.292,4.641V5.8C8.71,8.123,6.963,10.441,4.635,10.441Z" transform="translate(111.127 124.621)" fill="#e0e0e0"/>
          <path id="Path-107" data-name="Path" d="M4.64,0A4.576,4.576,0,0,1,9.292,4.636,4.276,4.276,0,0,1,4.64,9.277H4.058c-2.329,0-4.075-1.741-4.075-4.641A4.58,4.58,0,0,1,4.64,0Z" transform="translate(221.655 35.889)" fill="#e0e0e0"/>
          <path id="Path-108" data-name="Path" d="M5.215,0H61.063a4.58,4.58,0,0,1,4.652,4.641,4.273,4.273,0,0,1-4.652,4.641H4.635A4.58,4.58,0,0,1-.017,4.641C-.017,1.741,2.888,0,5.215,0Z" transform="translate(0.018 179.139)" fill="#e0e0e0"/>
          <path id="Path-109" data-name="Path" d="M4.657,9.282A4.276,4.276,0,0,0,9.309,4.641,4.276,4.276,0,0,0,4.657,0,4.278,4.278,0,0,0,0,4.641,4.585,4.585,0,0,0,4.657,9.282Z" transform="translate(0.576 226.116)" fill="#e0e0e0"/>
          <path id="Path-110" data-name="Path" d="M4.64,0H5.8a4.585,4.585,0,0,1,4.657,4.641A4.273,4.273,0,0,1,5.8,9.277H4.64A4.58,4.58,0,0,1-.017,4.641,4.585,4.585,0,0,1,4.64,0Z" transform="translate(153.012 226.699)" fill="#e0e0e0"/>
          <path id="Path-111" data-name="Path" d="M4.635,0H5.8a4.58,4.58,0,0,1,4.652,4.641A4.269,4.269,0,0,1,5.8,9.277H4.635A4.579,4.579,0,0,1-.017,4.641,4.583,4.583,0,0,1,4.635,0Z" transform="translate(133.816 226.699)" fill="#e0e0e0"/>
          <path id="Path-112" data-name="Path" d="M4.64,0H5.8a4.583,4.583,0,0,1,4.652,4.641A4.272,4.272,0,0,1,5.8,9.277H4.64A4.58,4.58,0,0,1-.017,4.641,4.585,4.585,0,0,1,4.64,0Z" transform="translate(172.207 226.699)" fill="#e0e0e0"/>
          <path id="Path-113" data-name="Path" d="M4.635,0H5.8a4.58,4.58,0,0,1,4.652,4.641A4.272,4.272,0,0,1,5.8,9.277H4.635A4.576,4.576,0,0,1-.017,4.641,4.58,4.58,0,0,1,4.635,0Z" transform="translate(191.408 226.699)" fill="#e0e0e0"/>
          <path id="Path-114" data-name="Path" d="M4.652,0H5.817a4.585,4.585,0,0,1,4.657,4.641A4.273,4.273,0,0,1,5.817,9.277H4.652A4.579,4.579,0,0,1,0,4.641,4.276,4.276,0,0,1,4.652,0Z" transform="translate(210.586 226.699)" fill="#e0e0e0"/>
          <path id="Path-115" data-name="Path" d="M4.635,0H5.8a4.58,4.58,0,0,1,4.652,4.641A4.269,4.269,0,0,1,5.8,9.277H4.635A4.579,4.579,0,0,1-.017,4.641,4.583,4.583,0,0,1,4.635,0Z" transform="translate(76.223 226.699)" fill="#e0e0e0"/>
          <path id="Path-116" data-name="Path" d="M4.635,0H5.8a4.583,4.583,0,0,1,4.652,4.641A4.272,4.272,0,0,1,5.8,9.277H4.635A4.576,4.576,0,0,1-.017,4.641,4.58,4.58,0,0,1,4.635,0Z" transform="translate(114.62 226.699)" fill="#e0e0e0"/>
          <path id="Path-117" data-name="Path" d="M4.635,0H5.8a4.585,4.585,0,0,1,4.657,4.641A4.273,4.273,0,0,1,5.8,9.277H4.635A4.579,4.579,0,0,1-.017,4.641,4.583,4.583,0,0,1,4.635,0Z" transform="translate(95.418 226.699)" fill="#e0e0e0"/>
          <path id="Path-118" data-name="Path" d="M4.641,0h.582A4.583,4.583,0,0,1,9.875,4.641,4.272,4.272,0,0,1,5.223,9.277H4.641A4.58,4.58,0,0,1-.017,4.641,4.585,4.585,0,0,1,4.641,0Z" transform="translate(229.217 226.699)" fill="#e0e0e0"/>
          <path id="Path-119" data-name="Path" d="M4.638,0H62.231a4.583,4.583,0,0,1,4.652,4.641,4.272,4.272,0,0,1-4.652,4.636H4.638A4.576,4.576,0,0,1-.017,4.641,4.58,4.58,0,0,1,4.638,0Z" transform="translate(0.595 226.699)" fill="#e0e0e0"/>
          <path id="Path-120" data-name="Path" d="M7.414.835,8,1.417a4.133,4.133,0,0,1,1.747,5.8,4.9,4.9,0,0,1-4.07,2.318,4.435,4.435,0,0,1-2.329-.577L2.18,8.376a3.607,3.607,0,0,1-1.164-5.8C2.762.258,5.673-.9,7.414.835Z" transform="translate(129.872 414.932)" fill="#e0e0e0"/>
          <path id="Path-121" data-name="Path" d="M4.158,0H5.322c2.329,0,4.07,2.323,4.07,4.641A4.362,4.362,0,0,1,5.322,8.7H4.158C1.829,8.7.092,6.382.092,4.059-.494,1.741,1.829,0,4.158,0Z" transform="translate(148.837 420.408)" fill="#e0e0e0"/>
          <path id="Path-122" data-name="Path" d="M3.662.112C5.99-.47,8.319,1.271,8.319,4.171V5.33a4.519,4.519,0,0,1-3.493,5.223H4.244A3.887,3.887,0,0,1,.174,7.071V5.912A4.826,4.826,0,0,1,3.662.112Z" transform="translate(111.517 384.919)" fill="#e0e0e0"/>
          <path id="Path-123" data-name="Path" d="M4.635,0H5.8a4.585,4.585,0,0,1,4.657,4.641A4.273,4.273,0,0,1,5.8,9.277H4.635A4.579,4.579,0,0,1-.017,4.641,4.583,4.583,0,0,1,4.635,0Z" transform="translate(165.808 420.99)" fill="#e0e0e0"/>
          <path id="Path-124" data-name="Path" d="M4.669,0A4.58,4.58,0,0,1,9.326,4.636V5.8a4.581,4.581,0,0,1-4.657,4.636A4.272,4.272,0,0,1,.017,5.8V4.636A4.579,4.579,0,0,1,4.669,0Z" transform="translate(111.094 367.054)" fill="#e0e0e0"/>
          <path id="Path-125" data-name="Path" d="M4.635,0H5.8a4.585,4.585,0,0,1,4.657,4.641A4.273,4.273,0,0,1,5.8,9.277H4.635A4.579,4.579,0,0,1-.017,4.641,4.583,4.583,0,0,1,4.635,0Z" transform="translate(202.458 420.99)" fill="#e0e0e0"/>
          <path id="Path-126" data-name="Path" d="M4.635,0H5.8a4.583,4.583,0,0,1,4.652,4.641A4.272,4.272,0,0,1,5.8,9.277H4.635A4.576,4.576,0,0,1-.017,4.641,4.58,4.58,0,0,1,4.635,0Z" transform="translate(184.427 420.99)" fill="#e0e0e0"/>
          <path id="Path-127" data-name="Path" d="M2.176.6A4.521,4.521,0,0,1,7.988,1.766L8.57,2.925a4.486,4.486,0,0,1-1.164,5.8,3.526,3.526,0,0,1-2.33.575c-1.163,0-2.9-.575-3.487-1.734L1.007,6.4A3.608,3.608,0,0,1,2.176.6Z" transform="translate(117.665 402.406)" fill="#e0e0e0"/>
          <path id="Path-128" data-name="Path" d="M6.4.466l1.164.582a3.609,3.609,0,0,1,1.159,5.8A4.769,4.769,0,0,1,5.234,9.167a3.5,3.5,0,0,1-2.329-.582l-.582-.577a4.135,4.135,0,0,1-1.741-5.8A4.526,4.526,0,0,1,6.4.466Z" transform="translate(91.335 283.069)" fill="#e0e0e0"/>
          <path id="Path-129" data-name="Path" d="M4.652,0H5.817C8.145,0,9.892,2.323,9.892,4.641A4.367,4.367,0,0,1,5.817,8.7H4.07C1.747,8.7,0,6.382,0,4.059S2.329,0,4.652,0Z" transform="translate(73.876 277.735)" fill="#e0e0e0"/>
          <path id="Path-130" data-name="Path" d="M7.583,2.056,8.169,3.22A4.486,4.486,0,0,1,7,9.015,3.5,3.5,0,0,1,4.669,9.6c-1.161,0-2.9-.585-3.484-1.744L.6,7.279a4.486,4.486,0,0,1,1.166-5.8,3.312,3.312,0,0,1,5.814.577Z" transform="translate(104.691 295.397)" fill="#e0e0e0"/>
          <path id="Path-131" data-name="Path" d="M4.669,0A4.58,4.58,0,0,1,9.326,4.636V5.8a4.581,4.581,0,0,1-4.657,4.636A4.275,4.275,0,0,1,.017,5.8V4.636A5,5,0,0,1,4.669,0Z" transform="translate(111.094 348.495)" fill="#e0e0e0"/>
          <path id="Path-132" data-name="Path" d="M4.669,0A4.585,4.585,0,0,1,9.326,4.641V5.8a4.582,4.582,0,0,1-4.657,4.641A4.276,4.276,0,0,1,.017,5.8V4.641A4.583,4.583,0,0,1,4.669,0Z" transform="translate(111.094 330.512)" fill="#e0e0e0"/>
          <path id="Path-133" data-name="Path" d="M3.606.113A4.528,4.528,0,0,1,8.84,3.59V4.749c0,2.323-1.747,4.641-4.075,4.641H4.183A3.971,3.971,0,0,1,.113,5.331V4.172C-.469,2.431,1.277.113,3.606.113Z" transform="translate(110.998 312.422)" fill="#e0e0e0"/>
          <path id="Path-134" data-name="Path" d="M4.64,0A4.583,4.583,0,0,1,9.292,4.641,4.272,4.272,0,0,1,4.64,9.277H4.058c-2.329,0-4.075-1.736-4.075-4.636A4.585,4.585,0,0,1,4.64,0Z" transform="translate(221.655 420.99)" fill="#e0e0e0"/>
          <path id="Path-135" data-name="Path" d="M5.217,0H61.645A4.58,4.58,0,0,1,66.3,4.641a4.276,4.276,0,0,1-4.652,4.641H4.635A4.58,4.58,0,0,1-.017,4.641C-.017,1.741,2.888,0,5.217,0Z" transform="translate(0.017 277.735)" fill="#e0e0e0"/>
          <g id="Group_6-2" data-name="Group 6" transform="translate(170.573 385)">
            <path id="Path-136" data-name="Path" d="M44.169,88.169A44.085,44.085,0,1,1,88.341,44.085,44.12,44.12,0,0,1,44.169,88.169Z" transform="translate(0)" fill="#e0e0e0"/>
            <g id="Group_2-3" data-name="Group 2" transform="translate(19.066 16.179)">
              <path id="Path-137" data-name="Path" d="M0,46.629A12.65,12.65,0,0,0,1.674,48.3a34.807,34.807,0,0,0,23.849,9.409,35.694,35.694,0,0,0,20.082-6.273,39.99,39.99,0,0,0,4.6-3.765C49.373,46.629,48.116,46,45.4,44.957l-1.046-.42c-2.092-.835-5.022-1.881-8.786-3.554A3.724,3.724,0,0,1,34.1,39.937a1.081,1.081,0,0,1-.42-.835,3.881,3.881,0,0,1-.418-1.464v-7.11l.418-.418a5.13,5.13,0,0,0,1.046-3.136l.628-.209c1.881.418,1.673-1.464,2.092-5.229.209-1.673,0-1.881-.837-2.09l-.628-.837a21.591,21.591,0,0,0,1.883-7.736c0-3.554-1.464-5.853-3.556-6.9A14.619,14.619,0,0,0,35.565,0S28.242,1.255,25.524.837c-3.138-.628-8.16.209-10.043,4.391-3.138,1.253-4.184,3.136-4.6,5.227-.418,3.345,1.464,7.11,1.883,8.365v.209c-.42.209-.628.627-.42,2.09.42,3.554.42,5.646,2.092,5.227l1.674,2.719c0,.42,0,.42.209.628V37.22a2.921,2.921,0,0,1-.627,1.881c-.211.209-.211.418-.42.418a5.556,5.556,0,0,1-1.255,1.046L4.6,44.328A15.413,15.413,0,0,0,0,46.629Z" transform="translate(0 0)" fill="#fff"/>
              <path id="Path-138" data-name="Path" d="M0,6.692A12.65,12.65,0,0,0,1.674,8.365a34.807,34.807,0,0,0,23.849,9.409A35.694,35.694,0,0,0,45.606,11.5a39.99,39.99,0,0,0,4.6-3.765C49.373,6.692,48.116,6.064,45.4,5.02L44.351,4.6c-2.092-.835-5.022-1.881-8.786-3.554A3.724,3.724,0,0,1,34.1,0a11.4,11.4,0,0,1-9.415,4.809A11.692,11.692,0,0,1,15.48.209a5.466,5.466,0,0,1-1.255,1.046Q7.949,3.764,4.813,5.02A8.023,8.023,0,0,0,0,6.692Z" transform="translate(0 39.937)" fill="#ff66a9"/>
              <path id="Path-139" data-name="Path" d="M2.108,18.82A4.057,4.057,0,0,1,2.737,16.1c0-.209.209-.209.209-.42,1.464-2.926,4.6-3.972,7.531-4.181,7.74-.42,8.367,1.044,10.878-1.046-.837,1.046-.837,2.928.418,5.018a6.142,6.142,0,0,0,3.767,2.719C29.1,10.246,27.212,5.229,23.865,3.556A15.385,15.385,0,0,0,24.7,0S17.38,1.255,14.661.837C11.523.209,6.5,1.046,4.618,5.229,1.48,6.482.434,8.365.016,10.455-.193,13.8,1.691,17.356,2.108,18.82Z" transform="translate(10.862 0)" fill="#263238"/>
              <path id="Path-140" data-name="Path" d="M17.364,7.947V.837L17.781.42V0a5.62,5.62,0,0,1-1.464,1.673l-5.65,3.974a3.763,3.763,0,0,1-4.6,0l-5.23-4.6C.627.837.418.628.209.628V8.156A1.883,1.883,0,0,1,0,9.2H17.153A2.627,2.627,0,0,0,17.364,7.947Z" transform="translate(15.9 29.273)" fill="url(#linear-gradient-4)"/>
            </g>
          </g>
          <g id="Group_7-2" data-name="Group 7" transform="translate(170.573 0)">
            <path id="Path-141" data-name="Path" d="M44.169,88.169A44.085,44.085,0,1,1,88.341,44.085,44.12,44.12,0,0,1,44.169,88.169Z" transform="translate(0)" fill="#e0e0e0"/>
            <g id="Group_2-4" data-name="Group 2" transform="translate(19.066 16.179)">
              <path id="Path-142" data-name="Path" d="M0,46.629A12.65,12.65,0,0,0,1.674,48.3a34.807,34.807,0,0,0,23.849,9.409,35.694,35.694,0,0,0,20.082-6.273,39.99,39.99,0,0,0,4.6-3.765C49.373,46.629,48.116,46,45.4,44.957l-1.046-.42c-2.092-.835-5.022-1.881-8.786-3.554A3.724,3.724,0,0,1,34.1,39.937a1.081,1.081,0,0,1-.42-.835,3.881,3.881,0,0,1-.418-1.464v-7.11l.418-.418a5.13,5.13,0,0,0,1.046-3.136l.628-.209c1.881.418,1.673-1.464,2.092-5.229.209-1.673,0-1.881-.837-2.09l-.628-.837a21.591,21.591,0,0,0,1.883-7.736c0-3.554-1.464-5.853-3.556-6.9A14.619,14.619,0,0,0,35.565,0S28.242,1.255,25.524.837c-3.138-.628-8.16.209-10.043,4.391-3.138,1.253-4.184,3.136-4.6,5.227-.418,3.345,1.464,7.11,1.883,8.365v.209c-.42.209-.628.627-.42,2.09.42,3.554.42,5.646,2.092,5.227l1.674,2.719c0,.42,0,.42.209.628V37.22a2.921,2.921,0,0,1-.627,1.881c-.211.209-.211.418-.42.418a5.556,5.556,0,0,1-1.255,1.046L4.6,44.328A15.413,15.413,0,0,0,0,46.629Z" transform="translate(0 0)" fill="#fff"/>
              <path id="Path-143" data-name="Path" d="M0,6.692A12.65,12.65,0,0,0,1.674,8.365a34.807,34.807,0,0,0,23.849,9.409A35.694,35.694,0,0,0,45.606,11.5a39.99,39.99,0,0,0,4.6-3.765C49.373,6.692,48.116,6.064,45.4,5.02L44.351,4.6c-2.092-.835-5.022-1.881-8.786-3.554A3.724,3.724,0,0,1,34.1,0a11.4,11.4,0,0,1-9.415,4.809A11.692,11.692,0,0,1,15.48.209a5.466,5.466,0,0,1-1.255,1.046Q7.949,3.764,4.813,5.02A8.023,8.023,0,0,0,0,6.692Z" transform="translate(0 39.937)" fill="#e2a122"/>
              <path id="Path-144" data-name="Path" d="M2.108,18.82A4.057,4.057,0,0,1,2.737,16.1c0-.209.209-.209.209-.42,1.464-2.926,4.6-3.972,7.531-4.181,7.74-.42,8.367,1.044,10.878-1.046-.837,1.046-.837,2.928.418,5.018a6.142,6.142,0,0,0,3.767,2.719C29.1,10.246,27.212,5.229,23.865,3.556A15.385,15.385,0,0,0,24.7,0S17.38,1.255,14.661.837C11.523.209,6.5,1.046,4.618,5.229,1.48,6.482.434,8.365.016,10.455-.193,13.8,1.691,17.356,2.108,18.82Z" transform="translate(10.862 0)" fill="#263238"/>
              <path id="Path-145" data-name="Path" d="M17.364,7.947V.837L17.781.42V0a5.62,5.62,0,0,1-1.464,1.673l-5.65,3.974a3.763,3.763,0,0,1-4.6,0l-5.23-4.6C.627.837.418.628.209.628V8.156A1.883,1.883,0,0,1,0,9.2H17.153A2.627,2.627,0,0,0,17.364,7.947Z" transform="translate(15.9 29.273)" fill="url(#linear-gradient-4)"/>
            </g>
          </g>
          <g id="Group_8-2" data-name="Group 8" transform="translate(226.831 179.376)">
            <path id="Path-146" data-name="Path" d="M50.231,100.27a50.135,50.135,0,1,1,50.234-50.135A50.175,50.175,0,0,1,50.231,100.27Z" transform="translate(0)" fill="#e0e0e0"/>
            <g id="Group_3-2" data-name="Group 3" transform="translate(20.553 12.504)">
              <path id="Shape-2" data-name="Shape" d="M2.178,0A2.186,2.186,0,0,0,.018,2.491,18.535,18.535,0,0,0,6.661,14.116a3.3,3.3,0,0,0,2.159,1,11.114,11.114,0,0,0-6.643,3.653,8.827,8.827,0,0,0-1,1.66c-1.826,4.483,1.328,10.3,8.635,12.621l2.158.83c.167,0,.167.167.334.167-1.827,1.494-3.654,1.163-4.485,3.653a3.734,3.734,0,0,0,.332,3.321c.166.167.166.332.331.5.334.334.167.334.167.831v.331a18.991,18.991,0,0,0,.83,8.637,16.253,16.253,0,0,0,4.65,7.306.583.583,0,0,1,.332.166c.332.332.83.665,1.163,1a17.507,17.507,0,0,0,6.642,3.155,16.385,16.385,0,0,0,3.987.5,17.846,17.846,0,0,0,15.776-9.466c.166-.5.5-1,.665-1.494a18,18,0,0,0,1.163-4.485,3.254,3.254,0,0,0,.166-1.163V44.006c0-1.163.663-1.991.83-3.154A4.625,4.625,0,0,0,41.2,35.7a19.154,19.154,0,0,0-2.988-6.476,31.084,31.084,0,0,0-5.147-5.313V17.769s.166-.331.994-.5a10.421,10.421,0,0,1,2.99-.331h1.66a14.425,14.425,0,0,0,5.978-1.495A18.249,18.249,0,0,0,52.661,6.81a8.189,8.189,0,0,0,.5-1.163c.167-.5.332-1,.5-1.662a3.066,3.066,0,0,0,.332-1.163A2.473,2.473,0,0,0,51.665,0Z" transform="translate(54.321 63.437) rotate(180)" fill="#fff"/>
              <path id="Path-147" data-name="Path" d="M0,16.441c1.494,1.494,3.819,1.161,5.48,2.324h46A26.887,26.887,0,0,0,54.3,16.938v-.664A18.963,18.963,0,0,0,47.66,4.65a4.342,4.342,0,0,0-2.159-1A11.121,11.121,0,0,0,52.143,0H42.181A15.421,15.421,0,0,1,29.559,6.477,15.684,15.684,0,0,1,18.266,1.661H15.775A14.459,14.459,0,0,0,9.8,3.155a17.472,17.472,0,0,0-7.971,8.636c-.167.331-.333.83-.5,1.163C1,13.783.166,15.942,0,16.441Z" transform="translate(0 44.506)" fill="#703372"/>
              <path id="Path-148" data-name="Path" d="M0,16.441a27.068,27.068,0,0,0,10.3,1.328,26.261,26.261,0,0,0,14.946-6.31c1.163,3.985,4.65,6.974,8.469,8.635.5.167,1,.5,1.5.664v-.166a19.216,19.216,0,0,0-.831-8.635A17.8,17.8,0,0,0,29.727,4.65c-.167-.166-.167-.166-.333-.166-.333-.333-.83-.664-1.163-1A16.108,16.108,0,0,0,21.589.5,16.42,16.42,0,0,0,17.6,0,17.85,17.85,0,0,0,1.828,9.466,15.481,15.481,0,0,0,0,15.278Z" transform="translate(10.627 0.331)" fill="#263238"/>
              <path id="Path-149" data-name="Path" d="M1.169,25.74c1.494,1.827,4.152,1.827,6.477,1.827-2.492-2.325-1-9.963,7.472-9.133h.167c11.624-2.159,10.3-14.282-1-17.769L12.461,0l-.333.331a20.962,20.962,0,0,1-3.488,5.98c4.65,3.819-1.827,5.147-4.981,7.971C.836,15.942-1.489,22.585,1.169,25.74Z" transform="translate(30.383 29.726)" fill="#263238"/>
            </g>
          </g>
        </g>
        <path id="Path_3" data-name="Path 3" d="M295,145.82a16.09,16.09,0,0,0-5.092-5.257,25.476,25.476,0,0,0-6.53-3c-1.273-.394-2.813-.8-4.57-1.273-1.413-.394-2.953-.764-5.334-1.273h0a47.938,47.938,0,0,1-7.243-2.138,7.642,7.642,0,0,1-2.966-2.165,4.416,4.416,0,0,1-.9-2.978v-.484a4.618,4.618,0,0,1,.9-2.5,8.3,8.3,0,0,1,3.628-2.546,20.174,20.174,0,0,1,7.255-1.044,22.046,22.046,0,0,1,5.652.739,10.723,10.723,0,0,1,3.4,1.655,6.364,6.364,0,0,1,1.643,1.731l2.762,4.277,8.567-5.511-2.762-4.277a16.455,16.455,0,0,0-4.239-4.48,20.829,20.829,0,0,0-6.568-3.2,28.269,28.269,0,0,0-2.788-.637V100.8H269.631v10.451a30.853,30.853,0,0,0-6,1.374,18.485,18.485,0,0,0-8.159,5.613l-.14.165a14.893,14.893,0,0,0-3.182,8.707,14.638,14.638,0,0,0,2.94,9.725l.165.217h0a17.825,17.825,0,0,0,7.357,5.334,58.053,58.053,0,0,0,8.757,2.546c2.176.484,3.564.815,4.812,1.171h.14c1.617.408,2.979.776,4.162,1.133a15.261,15.261,0,0,1,3.908,1.782,5.9,5.9,0,0,1,1.782,1.858,6.012,6.012,0,0,1,.637,2.953v.229a5.8,5.8,0,0,1-1.006,3.474,8.721,8.721,0,0,1-4.048,3.093,19.489,19.489,0,0,1-7.751,1.273h-.319a17.924,17.924,0,0,1-8.3-1.757,9.128,9.128,0,0,1-3.195-2.877l-2.9-4.188-8.363,5.8,2.9,4.188h0a19.486,19.486,0,0,0,6.887,6.134l.14.064a28.363,28.363,0,0,0,8.77,2.609v10.387h10.183V171.647a28.536,28.536,0,0,0,5.651-1.6,19,19,0,0,0,8.58-6.555,17.285,17.285,0,0,0,1.043-17.54Z" transform="translate(2992.95 1249.484)" fill="#e2a122"/>
      </g>
    </g>
  </g>
</svg>
