<svg xmlns="http://www.w3.org/2000/svg" xmlns:xlink="http://www.w3.org/1999/xlink" width="621" height="355" viewBox="0 0 621 355">
  <defs>
    <clipPath id="clip-path">
      <rect id="Rectangle_1" data-name="Rectangle 1" width="621" height="355" transform="translate(2034 345)" fill="#fff"/>
    </clipPath>
  </defs>
  <g id="Mask_Group_1" data-name="Mask Group 1" transform="translate(-2034 -345)" clip-path="url(#clip-path)">
    <g id="Group_1" data-name="Group 1" transform="translate(1675 -17.574)">
      <g id="Group_108" data-name="Group 108" transform="translate(401 362.574)">
        <path id="Path_301" data-name="Path 301" d="M423.984,51.448H238.517A13.343,13.343,0,0,1,225.2,38.132V36.717A13.343,13.343,0,0,1,238.517,23.4H424.048a13.343,13.343,0,0,1,13.317,13.317v1.415a13.44,13.44,0,0,1-13.381,13.316Z" transform="translate(-80.326 -23.4)" fill="#f0f0f0"/>
        <path id="Path_302" data-name="Path 302" d="M202.716,95.048H51.151A11.476,11.476,0,0,1,39.7,83.6V78.451A11.476,11.476,0,0,1,51.151,67H202.716a11.476,11.476,0,0,1,11.451,11.451V83.6a11.476,11.476,0,0,1-11.451,11.448Z" transform="translate(-14.16 -38.952)" fill="#f0f0f0"/>
        <path id="Path_303" data-name="Path 303" d="M580.591,95.048H462.029A10.255,10.255,0,0,1,451.8,84.82V77.229A10.255,10.255,0,0,1,462.029,67H580.591A10.255,10.255,0,0,1,590.82,77.229V84.82A10.3,10.3,0,0,1,580.591,95.048Z" transform="translate(-161.151 -38.952)" fill="#f0f0f0"/>
        <path id="Path_304" data-name="Path 304" d="M247.419,174.948H14.024A14.057,14.057,0,0,1,0,160.924H0A14.057,14.057,0,0,1,14.024,146.9H247.483a14.057,14.057,0,0,1,14.024,14.024h0a14.154,14.154,0,0,1-14.088,14.024Z" transform="translate(0 -67.451)" fill="#f0f0f0"/>
        <path id="Path_305" data-name="Path 305" d="M445.012,131.348H160.924A14.057,14.057,0,0,1,146.9,117.324h0A14.057,14.057,0,0,1,160.924,103.3H445.012a14.057,14.057,0,0,1,14.024,14.024h0A14.057,14.057,0,0,1,445.012,131.348Z" transform="translate(-52.397 -51.899)" fill="#e0e0e0"/>
        <path id="Path_306" data-name="Path 306" d="M370.171,216.648H204.324A14.057,14.057,0,0,1,190.3,202.624h0A14.057,14.057,0,0,1,204.324,188.6H370.106a14.057,14.057,0,0,1,14.024,14.024h0a13.961,13.961,0,0,1-13.959,14.024Z" transform="translate(-67.877 -82.325)" fill="#f0f0f0"/>
        <path id="Path_307" data-name="Path 307" d="M584.48,347.249H435.424A14.057,14.057,0,0,1,421.4,333.224h0A14.057,14.057,0,0,1,435.424,319.2H584.48a14.057,14.057,0,0,1,14.02,14.024h0a14.057,14.057,0,0,1-14.02,14.025Z" transform="translate(-150.308 -128.908)" fill="#f0f0f0"/>
        <path id="Path_308" data-name="Path 308" d="M572.964,388.562h-36.54A13.179,13.179,0,0,1,523.3,375.438v-.515A13.179,13.179,0,0,1,536.424,361.8h36.54a13.179,13.179,0,0,1,13.124,13.124v.515a13.137,13.137,0,0,1-13.124,13.123Z" transform="translate(-186.654 -144.103)" fill="#f0f0f0"/>
        <path id="Path_309" data-name="Path 309" d="M784.857,347.249H749.024A14.057,14.057,0,0,1,735,333.224h0A14.057,14.057,0,0,1,749.024,319.2h35.833a14.057,14.057,0,0,1,14.024,14.024h0A14.057,14.057,0,0,1,784.857,347.249Z" transform="translate(-262.164 -128.908)" fill="#e0e0e0"/>
        <path id="Path_310" data-name="Path 310" d="M406.966,95.048H297.924A14.057,14.057,0,0,1,283.9,81.024h0A14.057,14.057,0,0,1,297.924,67H407.03a14.057,14.057,0,0,1,14.024,14.024h0A14.154,14.154,0,0,1,406.966,95.048Z" transform="translate(-101.263 -38.952)" fill="#f0f0f0"/>
        <path id="Path_311" data-name="Path 311" d="M258.92,90.2H212.6a11.916,11.916,0,0,1-11.9-11.9h0a11.916,11.916,0,0,1,11.9-11.9h46.32a11.916,11.916,0,0,1,11.9,11.9h0A11.957,11.957,0,0,1,258.92,90.2Z" transform="translate(-71.587 -38.738)" fill="#f5f5f5"/>
        <path id="Path_312" data-name="Path 312" d="M527.12,90.2H480.8a11.916,11.916,0,0,1-11.9-11.9h0a11.916,11.916,0,0,1,11.9-11.9h46.32a11.916,11.916,0,0,1,11.9,11.9h0A11.957,11.957,0,0,1,527.12,90.2Z" transform="translate(-167.25 -38.738)" fill="#f5f5f5"/>
        <path id="Path_313" data-name="Path 313" d="M565.48,431.449H416.424A14.057,14.057,0,0,1,402.4,417.424h0A14.057,14.057,0,0,1,416.424,403.4H565.48a14.057,14.057,0,0,1,14.02,14.024h0a14.057,14.057,0,0,1-14.02,14.025Z" transform="translate(-143.531 -158.941)" fill="#f0f0f0"/>
        <path id="Path_314" data-name="Path 314" d="M530.306,524.248H516.024A14.057,14.057,0,0,1,502,510.224h0A14.057,14.057,0,0,1,516.024,496.2H530.3a14.057,14.057,0,0,1,14.024,14.024h0A14.057,14.057,0,0,1,530.306,524.248Z" transform="translate(-179.056 -192.041)" fill="#e0e0e0"/>
        <path id="Path_315" data-name="Path 315" d="M186.89,310.448H53.724A14.057,14.057,0,0,1,39.7,296.424h0A14.057,14.057,0,0,1,53.724,282.4H186.89a14.057,14.057,0,0,1,14.024,14.024h0A14.057,14.057,0,0,1,186.89,310.448Z" transform="translate(-14.16 -115.782)" fill="#e0e0e0"/>
        <path id="Path_316" data-name="Path 316" d="M224.511,396.249H112.124A14.057,14.057,0,0,1,98.1,382.224h0A14.057,14.057,0,0,1,112.124,368.2H224.447a14.057,14.057,0,0,1,14.024,14.024h0a14.044,14.044,0,0,1-13.96,14.025Z" transform="translate(-34.991 -146.385)" fill="#f0f0f0"/>
        <path id="Path_317" data-name="Path 317" d="M172.083,352.149H99.775A14.5,14.5,0,0,1,85.3,337.675h0A14.5,14.5,0,0,1,99.775,323.2h72.308a14.5,14.5,0,0,1,14.475,14.475h0A14.58,14.58,0,0,1,172.083,352.149Z" transform="translate(-30.425 -130.335)" fill="#f0f0f0"/>
        <path id="Path_318" data-name="Path 318" d="M275.542,477.849H29.024A14.057,14.057,0,0,1,15,463.824h0A14.057,14.057,0,0,1,29.024,449.8H275.542a14.057,14.057,0,0,1,14.024,14.024h0a14.057,14.057,0,0,1-14.024,14.025Z" transform="translate(-5.35 -175.491)" fill="#e0e0e0"/>
        <path id="Path_319" data-name="Path 319" d="M264.811,354.949H223.575A14.5,14.5,0,0,1,209.1,340.475h0A14.5,14.5,0,0,1,223.575,326h41.236a14.5,14.5,0,0,1,14.475,14.475h0A14.538,14.538,0,0,1,264.811,354.949Z" transform="translate(-74.583 -131.333)" fill="#f0f0f0"/>
        <path id="Path_320" data-name="Path 320" d="M314.154,559.448H201.124A14.057,14.057,0,0,1,187.1,545.424h0A14.057,14.057,0,0,1,201.124,531.4h113.03a14.057,14.057,0,0,1,14.024,14.024h0A14.057,14.057,0,0,1,314.154,559.448Z" transform="translate(-66.736 -204.597)" fill="#f0f0f0"/>
        <path id="Path_321" data-name="Path 321" d="M78.817,353.448H28.574A13.618,13.618,0,0,1,15,339.874h0A13.618,13.618,0,0,1,28.574,326.3H78.817a13.618,13.618,0,0,1,13.574,13.574h0a13.535,13.535,0,0,1-13.574,13.574Z" transform="translate(-5.35 -131.44)" fill="#f0f0f0"/>
        <path id="Path_322" data-name="Path 322" d="M293.117,517.846H221.323A12.259,12.259,0,0,1,209.1,505.623h0A12.259,12.259,0,0,1,221.323,493.4h71.73a12.259,12.259,0,0,1,12.223,12.223h0a12.163,12.163,0,0,1-12.159,12.223Z" transform="translate(-74.583 -191.043)" fill="#f0f0f0"/>
        <path id="Path_323" data-name="Path 323" d="M192.168,517.846H139.223A12.259,12.259,0,0,1,127,505.623h0A12.259,12.259,0,0,1,139.223,493.4h52.945a12.259,12.259,0,0,1,12.223,12.223h0a12.259,12.259,0,0,1-12.223,12.223Z" transform="translate(-45.299 -191.043)" fill="#f0f0f0"/>
        <path id="Path_324" data-name="Path 324" d="M391.868,517.846H338.923A12.259,12.259,0,0,1,326.7,505.623h0A12.259,12.259,0,0,1,338.923,493.4h52.945a12.259,12.259,0,0,1,12.223,12.223h0a12.259,12.259,0,0,1-12.223,12.223Z" transform="translate(-116.529 -191.043)" fill="#f0f0f0"/>
        <path id="Path_325" data-name="Path 325" d="M659.617,388.847H607.573A12.74,12.74,0,0,1,594.9,376.174v-.9A12.74,12.74,0,0,1,607.573,362.6h52.044a12.74,12.74,0,0,1,12.673,12.673v.9A12.7,12.7,0,0,1,659.617,388.847Z" transform="translate(-212.193 -144.388)" fill="#f0f0f0"/>
      </g>
      <g id="Group_109" data-name="Group 109" transform="translate(548.157 399.082)">
        <path id="pinl" d="M388.158,327.451,247.851,306.414a12.453,12.453,0,0,1-10.422-14.089L266.765,96.951A12.453,12.453,0,0,1,280.853,86.53L421.16,107.566a12.453,12.453,0,0,1,10.422,14.089L402.247,317.029a12.453,12.453,0,0,1-14.089,10.422Z" transform="translate(-231.799 -82.379)" fill="#68366f" stroke="#181e22" stroke-miterlimit="10" stroke-width="3.26"/>
        <path id="blue" d="M430.2,298.715,286.615,330.237a12.722,12.722,0,0,1-15.054-9.585L229.039,127.015a12.722,12.722,0,0,1,9.585-15.054L382.212,80.439a12.722,12.722,0,0,1,15.054,9.585l42.523,193.637a12.658,12.658,0,0,1-9.589,15.054Z" transform="translate(-228.748 -80.148)" fill="#d1c2d3" stroke="#181e22" stroke-miterlimit="10" stroke-width="3.26"/>
        <g id="white_1_" transform="translate(17.017 16.052)">
          <path id="white" d="M381.418,105.1H262.469a7.3,7.3,0,0,0-7.269,7.269V321.7a7.3,7.3,0,0,0,7.269,7.269H417.315a7.3,7.3,0,0,0,7.269-7.269V148.91Z" transform="translate(-255.2 -105.1)" fill="#fff" stroke="#181e22" stroke-miterlimit="10" stroke-width="3.26"/>
          <g id="Group_110" data-name="Group 110">
            <path id="Path_326" data-name="Path 326" d="M335.259,241.2h-28.82a3.57,3.57,0,0,1-3.538-3.538v-28.82a3.57,3.57,0,0,1,3.538-3.538h28.82a3.57,3.57,0,0,1,3.538,3.538v28.82a3.528,3.528,0,0,1-3.538,3.538Z" transform="translate(-272.213 -140.84)" fill="#d1c2d3"/>
            <line id="Line_91" data-name="Line 91" x2="37.827" transform="translate(88.648 69.478)" fill="none" stroke="#542c58" stroke-linecap="round" stroke-miterlimit="10" stroke-width="12.898"/>
            <line id="Line_92" data-name="Line 92" x2="37.827" transform="translate(88.648 104.989)" fill="none" stroke="#542c58" stroke-linecap="round" stroke-miterlimit="10" stroke-width="12.898"/>
            <line id="Line_93" data-name="Line 93" x2="96.433" transform="translate(30.043 140.114)" fill="none" stroke="#542c58" stroke-linecap="round" stroke-miterlimit="10" stroke-width="12.898"/>
            <line id="Line_94" data-name="Line 94" x2="96.433" transform="translate(30.043 175.174)" fill="none" stroke="#542c58" stroke-linecap="round" stroke-miterlimit="10" stroke-width="12.898"/>
          </g>
          <path id="Path_327" data-name="Path 327" d="M454.017,149.808l38.792-1.158-40.85-40.85L450.8,146.592a3.185,3.185,0,0,0,3.217,3.216Z" transform="translate(-324.968 -106.063)" fill="#fff" stroke="#181e22" stroke-miterlimit="10" stroke-width="3.26"/>
        </g>
      </g>
    </g>
  </g>
</svg>
