<svg xmlns="http://www.w3.org/2000/svg" xmlns:xlink="http://www.w3.org/1999/xlink" width="384.372" height="307.932" viewBox="0 0 384.372 307.932">
  <defs>
    <filter id="Path" x="0" y="18.468" width="255.112" height="289.464" filterUnits="userSpaceOnUse">
      <feOffset dy="3" input="SourceAlpha"/>
      <feGaussianBlur stdDeviation="6" result="blur"/>
      <feFlood flood-opacity="0.353"/>
      <feComposite operator="in" in2="blur"/>
      <feComposite in="SourceGraphic"/>
    </filter>
    <filter id="Path-2" x="133.09" y="9.523" width="251.282" height="287.775" filterUnits="userSpaceOnUse">
      <feOffset dy="3" input="SourceAlpha"/>
      <feGaussianBlur stdDeviation="6" result="blur-2"/>
      <feFlood flood-opacity="0.353"/>
      <feComposite operator="in" in2="blur-2"/>
      <feComposite in="SourceGraphic"/>
    </filter>
    <filter id="Path-3" x="98.699" y="0" width="188.398" height="250.304" filterUnits="userSpaceOnUse">
      <feOffset dy="3" input="SourceAlpha"/>
      <feGaussianBlur stdDeviation="6" result="blur-3"/>
      <feFlood flood-opacity="0.353"/>
      <feComposite operator="in" in2="blur-3"/>
      <feComposite in="SourceGraphic"/>
    </filter>
  </defs>
  <g id="Group_121" data-name="Group 121" transform="translate(-18 -203.534)">
    <g id="_19" data-name="19" transform="translate(36.004 194.206)">
      <path id="Path-4" data-name="Path" d="M10.625,21.279A10.632,10.632,0,1,0,3.1,18.155a10.64,10.64,0,0,0,7.521,3.124Z" transform="translate(19.573 48.394)" fill="#e6e6e6"/>
      <path id="Path-5" data-name="Path" d="M10.625,21.25A10.625,10.625,0,1,0,0,10.625,10.625,10.625,0,0,0,10.625,21.25Z" transform="translate(310.343 80.85)" fill="#eaeef9"/>
      <path id="Path-6" data-name="Path" d="M4.192,8.39A4.179,4.179,0,1,0,1.228,7.17,4.2,4.2,0,0,0,4.192,8.39Z" transform="translate(47.532 25.169)" fill="#703372"/>
      <path id="Path-7" data-name="Path" d="M4.471,8.941A4.471,4.471,0,1,0,0,4.47,4.471,4.471,0,0,0,4.471,8.941Z" transform="translate(304.194 48.133)" fill="#e6e6e6"/>
      <g transform="matrix(1, 0, 0, 1, -18, 9.33)" filter="url(#Path)">
        <path id="Path-8" data-name="Path" d="M216.4,199.2,82.761,253.167a4.44,4.44,0,0,1-5.591-2.235L.282,59.881a4.477,4.477,0,0,1,2.235-5.6l133.645-54a4.47,4.47,0,0,1,5.591,2.235l76.884,190.789a4.241,4.241,0,0,1-2.237,5.9Z" transform="translate(18 33.47)" fill="#d2c5d3"/>
      </g>
      <path id="Path-9" data-name="Path" d="M114.85,4.119,3.016,49.174a2.043,2.043,0,0,1-2.8-1.132,2.035,2.035,0,0,1,1.118-2.787L112.893.229a2.032,2.032,0,0,1,2.8,1.1,2.157,2.157,0,0,1-.843,2.79Z" transform="translate(42.56 124.835)" fill="#703372"/>
      <path id="Path-10" data-name="Path" d="M114.571,4.135,3.016,49.19a2.043,2.043,0,0,1-2.8-1.132,2.035,2.035,0,0,1,1.118-2.787L112.893.216a2.044,2.044,0,0,1,2.8,1.132,2.037,2.037,0,0,1-1.122,2.787Z" transform="translate(47.034 135.734)" fill="#703372"/>
      <path id="Path-11" data-name="Path" d="M114.568,3.845,3.016,49.19a2.043,2.043,0,0,1-2.8-1.132,2.027,2.027,0,0,1,1.118-2.787L112.893.216a2.044,2.044,0,0,1,2.8,1.132,1.741,1.741,0,0,1-1.125,2.5Z" transform="translate(51.507 146.65)" fill="#703372"/>
      <path id="Path-12" data-name="Path" d="M44.955,4.148,3.017,21.189a2.034,2.034,0,0,1-2.8-1.1A2.066,2.066,0,0,1,1.339,17.27L43.277.229a2.032,2.032,0,0,1,2.8,1.1A2.319,2.319,0,0,1,44.955,4.148Z" transform="translate(55.979 185.537)" fill="#703372"/>
      <path id="Path-13" data-name="Path" d="M116.517,1.841l3.635,9.232c.56,1.684,0,3.658-1.675,4.209L8.038,60.047c-1.678.552-3.635,0-4.2-1.684L.209,48.841c-.557-1.655,0-3.629,1.678-4.18L112.325.186a3.558,3.558,0,0,1,4.192,1.655Z" transform="translate(64.097 176.349)" fill="#703372"/>
      <path id="Path-14" data-name="Path" d="M116.8,1.855l3.635,9.232a3.173,3.173,0,0,1-1.678,4.18L8.318,60.032c-1.678.552-3.635,0-4.2-1.684L.21,48.855c-.56-1.684,0-3.658,1.675-4.209L112.323.171A4,4,0,0,1,116.8,1.855Z" transform="translate(72.486 197.614)" fill="#f1f3f9"/>
      <path id="Path-15" data-name="Path" d="M116.517,1.73l3.635,9.232a3.216,3.216,0,0,1-1.678,4.209L8.038,59.936c-1.678.552-3.635,0-4.2-1.684L.209,49.02c-.557-1.684,0-3.658,1.678-4.209L112.325.336a3.087,3.087,0,0,1,4.192,1.394Z" transform="translate(81.152 218.99)" fill="#703372"/>
      <path id="Path-16" data-name="Path" d="M13.351,0,19.5,15.386,8.038,19.857c-1.678.552-3.635,0-4.2-1.684L.209,8.651C-.348,7,.209,5.022,1.887,4.471Z" transform="translate(64.097 216.539)" fill="#e0e0e0"/>
      <path id="Path-17" data-name="Path" d="M2.13,13.7,35.68,0l6.152,15.386L8.281,29.089c-1.678.552-3.635,0-4.2-1.684L.173,17.912A3.587,3.587,0,0,1,2.13,13.7Z" transform="translate(72.523 228.557)" fill="#703372"/>
      <path id="Path-18" data-name="Path" d="M1.887,1.974,6.639,0l6.152,15.386L8.038,17.36c-1.678.552-3.635,0-4.2-1.684L.209,6.445A3.618,3.618,0,0,1,1.887,1.974Z" transform="translate(81.152 261.565)" fill="#e0e0e0"/>
      <path id="Shape" d="M0,28.536A28.4,28.4,0,0,1,28.239,0h.277a28.542,28.542,0,0,1,28.52,27.985c0,.261,0,.261.28.261A27.724,27.724,0,0,1,50.324,47,28.731,28.731,0,0,1,0,28.536Z" transform="translate(27.681 91.475)" fill="#703372"/>
      <path id="Path-19" data-name="Path" d="M28.52,27.985H19.294A18.981,18.981,0,0,0,.282,9.232H0V0H.282A28.482,28.482,0,0,1,28.52,27.985Z" transform="translate(56.198 91.475)" fill="#3f2440"/>
      <g transform="matrix(1, 0, 0, 1, -18, 9.33)" filter="url(#Path-2)">
        <path id="Path-20" data-name="Path" d="M137.835,251.483,2.794,201.144a4.361,4.361,0,0,1-2.517-5.6L71.852,2.779a4.332,4.332,0,0,1,5.591-2.5L212.485,50.36A4.324,4.324,0,0,1,215,55.934L143.427,248.958a4.323,4.323,0,0,1-5.592,2.525Z" transform="translate(151.09 24.53)" fill="#d2c5d3"/>
      </g>
      <path id="Path-21" data-name="Path" d="M10.9,29.089,0,24.879,8.947,0l10.9,3.919Z" transform="translate(242.124 91.766)" fill="#e0e0e0"/>
      <path id="Path-22" data-name="Path" d="M11.185,42.239,0,38.059,13.7,0,24.6,4.209Z" transform="translate(256.662 83.927)" fill="#703372"/>
      <path id="Path-23" data-name="Path" d="M10.9,54,0,50.078,17.894,0,29.077,3.919Z" transform="translate(286.299 82.534)" fill="#703372"/>
      <path id="Path-24" data-name="Path" d="M10.9,17.622,0,13.7,4.755,0,15.938,4.209Z" transform="translate(300.278 123.931)" fill="#e0e0e0"/>
      <path id="Path-25" data-name="Path" d="M114.423,46.235,1.468,4.257A2.307,2.307,0,0,1,.072,1.47,2.282,2.282,0,0,1,2.868.076L115.82,42.026a2.312,2.312,0,0,1,1.4,2.787,2.473,2.473,0,0,1-2.8,1.422Z" transform="translate(188.932 115.755)" fill="#703372"/>
      <path id="Path-26" data-name="Path" d="M114.422,46.223,1.47,4.273A2.309,2.309,0,0,1,.07,1.486,2.325,2.325,0,0,1,2.867.064L115.822,42.042a2.3,2.3,0,0,1,1.4,2.787,2.063,2.063,0,0,1-2.8,1.394Z" transform="translate(184.738 126.654)" fill="#703372"/>
      <path id="Path-27" data-name="Path" d="M114.423,46.223,1.468,4.274a2.327,2.327,0,0,1-1.4-2.816A2.336,2.336,0,0,1,2.868.064L115.82,42.042a2.284,2.284,0,0,1,1.4,2.787C116.659,46.223,115.541,46.774,114.423,46.223Z" transform="translate(180.823 137.57)" fill="#703372"/>
      <path id="Path-28" data-name="Path" d="M43.966,19.933,1.468,4.257A2.293,2.293,0,0,1,.072,1.47,2.281,2.281,0,0,1,2.868.076L45.363,15.724a2.329,2.329,0,0,1,1.4,2.816,2.487,2.487,0,0,1-2.8,1.393Z" transform="translate(176.91 148.763)" fill="#ddd"/>
      <path id="Path-29" data-name="Path" d="M121.512,46.051l-3.356,9.522a3.342,3.342,0,0,1-4.192,1.945L89.918,48.577,2.13,15.83A3.314,3.314,0,0,1,.173,11.65L3.526,2.128A3.3,3.3,0,0,1,7.721.183L94.952,32.61l24.325,8.97C121.233,42.684,122.072,44.367,121.512,46.051Z" transform="translate(165.905 167.962)" fill="#e0e0e0"/>
      <path id="Path-30" data-name="Path" d="M121.233,45.775,117.88,55.3a3.346,3.346,0,0,1-4.2,1.945l-8.108-3.077L2.13,15.845a3.335,3.335,0,0,1-1.957-4.21L3.529,2.142A3.331,3.331,0,0,1,7.721.168L111.447,38.779l7.83,3.077a3.02,3.02,0,0,1,1.956,3.919Z" transform="translate(158.076 189.778)" fill="#e0e0e0"/>
      <path id="Path-31" data-name="Path" d="M121.235,45.775,117.879,55.3a3.346,3.346,0,0,1-4.195,1.945L72.307,41.856,2.128,15.845a3.34,3.34,0,0,1-1.956-4.21L3.528,2.142A3.336,3.336,0,0,1,7.722.168L79.576,26.76l39.7,14.806a3.351,3.351,0,0,1,1.959,4.209Z" transform="translate(150.248 211.319)" fill="#e0e0e0"/>
      <path id="Path-32" data-name="Path" d="M7.722.171,79.576,26.763,72.307,41.568,2.128,15.557a3.319,3.319,0,0,1-1.957-4.18L3.528,1.855A3.476,3.476,0,0,1,7.722.171Z" transform="translate(150.248 211.316)" fill="#703372"/>
      <path id="Path-33" data-name="Path" d="M.173,11.635,3.526,2.142A3.336,3.336,0,0,1,7.721.168L94.952,32.624,89.361,48.011,2.13,15.554A3.02,3.02,0,0,1,.173,11.635Z" transform="translate(165.905 168.238)" fill="#703372"/>
      <path id="Path-34" data-name="Path" d="M111.447,38.779l-5.87,15.386L2.13,15.845a3.335,3.335,0,0,1-1.957-4.21L3.529,2.142A3.331,3.331,0,0,1,7.721.168Z" transform="translate(158.076 189.778)" fill="#703372"/>
      <path id="Path-35" data-name="Path" d="M28.69,8.283,23.1,23.669,2.13,15.83A3.314,3.314,0,0,1,.173,11.65L3.526,2.128A3.3,3.3,0,0,1,7.721.183Z" transform="translate(165.905 167.962)" fill="#ddd"/>
      <path id="Path-36" data-name="Path" d="M7.721.171,28.69,8.009,23.1,23.4,2.13,15.557a3.314,3.314,0,0,1-1.957-4.18L3.529,1.855A3.609,3.609,0,0,1,7.721.171Z" transform="translate(158.076 189.776)" fill="#ddd"/>
      <path id="Path-37" data-name="Path" d="M7.722.171,28.691,8.009,23.1,23.4,2.128,15.557a3.319,3.319,0,0,1-1.957-4.18L3.528,1.855A3.476,3.476,0,0,1,7.722.171Z" transform="translate(150.248 211.316)" fill="#ddd"/>
      <g transform="matrix(1, 0, 0, 1, -18, 9.33)" filter="url(#Path-3)">
        <path id="Path-38" data-name="Path" d="M148.181,214.3H4.2A4.315,4.315,0,0,1,0,210.094V4.209A4.315,4.315,0,0,1,4.2,0H148.181a4.315,4.315,0,0,1,4.2,4.209V209.833a4.046,4.046,0,0,1-4.2,4.467Z" transform="translate(116.7 15)" fill="#b799b8"/>
      </g>
      <path id="Path-39" data-name="Path" d="M122.459,4.471H2.235A2.188,2.188,0,0,1,0,2.235,2.213,2.213,0,0,1,2.235,0H122.459a2.206,2.206,0,0,1,2.235,2.235,2.392,2.392,0,0,1-2.235,2.236Z" transform="translate(111.838 99.023)" fill="#703372"/>
      <path id="Path-40" data-name="Path" d="M122.459,4.5H2.235A2.206,2.206,0,0,1,0,2.264,2.219,2.219,0,0,1,2.235,0H122.459a2.213,2.213,0,0,1,2.235,2.264A2.206,2.206,0,0,1,122.459,4.5Z" transform="translate(111.838 110.49)" fill="#703372"/>
      <path id="Path-41" data-name="Path" d="M122.459,4.471H2.235A2.206,2.206,0,0,1,0,2.235,2.213,2.213,0,0,1,2.235,0H122.459a2.206,2.206,0,0,1,2.235,2.235,2.206,2.206,0,0,1-2.235,2.236Z" transform="translate(111.838 122.248)" fill="#703372"/>
      <path id="Path-42" data-name="Path" d="M42.776,4.471H2.238A2.207,2.207,0,0,1,0,2.235,2.214,2.214,0,0,1,2.238,0H42.776a2.209,2.209,0,0,1,2.238,2.235C44.733,3.368,43.894,4.471,42.776,4.471Z" transform="translate(191.239 166.171)" fill="#703372"/>
      <path id="Shape-2" data-name="Shape" d="M0,28.536A28.4,28.4,0,0,1,28.239,0h.282A28.541,28.541,0,0,1,57.036,27.985v.551A27.818,27.818,0,0,1,50.044,47.29,28.954,28.954,0,0,1,28.52,57.072,28.643,28.643,0,0,1,0,28.536Z" transform="translate(111.556 154.704)" fill="#703372"/>
      <path id="Path-43" data-name="Path" d="M28.8,27.985H19.569A19.222,19.222,0,0,0,.279,9.232H0V0H.279A28.35,28.35,0,0,1,28.8,27.985Z" transform="translate(139.797 154.704)" fill="#5a295b"/>
      <path id="Path-44" data-name="Path" d="M13.978.261A27.786,27.786,0,0,1,6.991,19.015L0,13.151A18.573,18.573,0,0,0,4.752.552V0h9.226Z" transform="translate(154.614 182.689)" fill="#3f2440"/>
      <path id="Path-45" data-name="Path" d="M3.077,6.154A3.067,3.067,0,1,0,.9,5.256a3.077,3.077,0,0,0,2.179.9Z" transform="translate(180.614 165.329)" fill="#e0e0e0"/>
      <path id="Path-46" data-name="Path" d="M42.776,4.471H2.238A2.189,2.189,0,0,1,0,2.235,2.214,2.214,0,0,1,2.238,0H42.776a2.209,2.209,0,0,1,2.238,2.235C44.733,3.368,43.894,4.471,42.776,4.471Z" transform="translate(191.239 179.031)" fill="#703372"/>
      <path id="Path-47" data-name="Path" d="M3.077,6.154A3.067,3.067,0,1,0,.9,5.256a3.077,3.077,0,0,0,2.179.9Z" transform="translate(180.614 178.189)" fill="#e0e0e0"/>
      <path id="Path-48" data-name="Path" d="M42.776,4.471H2.238A2.207,2.207,0,0,1,0,2.235,2.2,2.2,0,0,1,2.238,0H42.776a2.209,2.209,0,0,1,2.238,2.235C44.733,3.339,43.894,4.471,42.776,4.471Z" transform="translate(191.239 191.921)" fill="#703372"/>
      <path id="Path-49" data-name="Path" d="M3.077,6.154A3.077,3.077,0,1,0,0,3.077,3.077,3.077,0,0,0,3.077,6.154Z" transform="translate(180.614 191.079)" fill="#e0e0e0"/>
      <path id="Path-50" data-name="Path" d="M0,50.078H123.577V0L104,9.783,93.661,17.041,75.206,16.78,58.992,25.17l-13.98,1.945-5.031,5.6L25.442,41.949l-14.26,2.526Z" transform="translate(112.677 38.059)" fill="#531b55"/>
      <path id="Path-51" data-name="Path" d="M0,38.059H123.577V0L104,7.287,93.661,12.861,75.206,12.6,58.993,19.015,45.012,20.7l-5.031,3.919L25.442,31.9,11.183,33.85Z" transform="translate(112.677 50.078)" fill="#865188"/>
      <path id="Path-52" data-name="Path" d="M0,21.541H123.577V0L104,4.18,93.661,7.258H75.206L58.993,10.625l-13.981,1.1L39.981,13.96,25.442,17.883l-14.26,1.132Z" transform="translate(112.677 66.596)" fill="#d2c5d3"/>
    </g>
  </g>
</svg>
