<svg xmlns="http://www.w3.org/2000/svg" xmlns:xlink="http://www.w3.org/1999/xlink" width="911" height="570" viewBox="0 0 911 570">
  <defs>
    <clipPath id="clip-path">
      <rect id="Rectangle_2" data-name="Rectangle 2" width="911" height="570" transform="translate(2630 1279)" fill="#fff" stroke="#707070" stroke-width="1"/>
    </clipPath>
    <linearGradient id="linear-gradient" x1="0.5" y1="0.968" x2="0.5" y2="0.076" gradientUnits="objectBoundingBox">
      <stop offset="0" stop-color="#f5f8ff"/>
      <stop offset="0.991" stop-color="#e0e0e0"/>
      <stop offset="1" stop-color="#d8e0eb"/>
    </linearGradient>
  </defs>
  <g id="Mask_Group_2" data-name="Mask Group 2" transform="translate(-2630 -1279)" clip-path="url(#clip-path)">
    <g id="Group_16" data-name="Group 16" transform="translate(-0.191 11.718)">
      <g id="Group_15" data-name="Group 15">
        <path id="Path" d="M197.81,74.926c-32.361.916-71.559,0-98.9-.456-27.348.456-66.546,1.372-98.907.456C31.906,56.654,43.3,22.388,45.122,0H152.688C154.967,22.388,165.9,56.654,197.81,74.926Z" transform="translate(2984.008 1693.59)" fill="url(#linear-gradient)"/>
        <path id="Path-2" data-name="Path" d="M5.013,10.05H196.9a5.064,5.064,0,0,0,5.013-5.027A5.063,5.063,0,0,0,196.9,0H5.013A5.063,5.063,0,0,0,0,5.023,5.064,5.064,0,0,0,5.013,10.05Z" transform="translate(2982.185 1763.95)" fill="#e0e0e0"/>
        <path id="Path-3" data-name="Path" d="M405.66,11.909V293.338a11.779,11.779,0,0,1-11.849,11.878H11.854A11.783,11.783,0,0,1,0,293.338V11.909A11.787,11.787,0,0,1,11.854.026H393.811C400.191-.429,405.66,5.054,405.66,11.909Z" transform="translate(2880.999 1396.597)" fill="#f5f5f5"/>
        <path id="Path-4" data-name="Path" d="M405.66,11.909v242.14H0V11.909A11.787,11.787,0,0,1,11.854.026H393.811C400.191-.429,405.66,5.054,405.66,11.909Z" transform="translate(2880.999 1396.597)" fill="#676f73"/>
        <path id="Path-5" data-name="Path" d="M376.489,0H0V225.7H376.489Z" transform="translate(2894.675 1411.701)" fill="#fff"/>
        <path id="Path-6" data-name="Path" d="M5.924,11.883A5.941,5.941,0,1,0,0,5.939a5.941,5.941,0,0,0,5.924,5.944Z" transform="translate(2911.082 1425.407)" fill="#fd724f"/>
        <path id="Path-7" data-name="Path" d="M5.924,11.883A5.941,5.941,0,1,0,0,5.939a5.941,5.941,0,0,0,5.924,5.944Z" transform="translate(2930.227 1425.407)" fill="#ffcb00"/>
        <path id="Path-8" data-name="Path" d="M5.924,11.883A5.941,5.941,0,1,0,0,5.939a5.941,5.941,0,0,0,5.924,5.944Z" transform="translate(2949.367 1425.407)" fill="#7ed171"/>
        <path id="Path-9" data-name="Path" d="M376.489,0H0V186.4H81.129V2.739h295.36Z" transform="translate(2894.675 1450.994)" fill="#f5f5f5"/>
        <path id="Path-10" data-name="Path" d="M10.026,20.1A10.052,10.052,0,1,0,0,10.05,10.052,10.052,0,0,0,10.026,20.1Z" transform="translate(2926.125 1471.094)" fill="#fff"/>
        <path id="Path-11" data-name="Path" d="M57.431,4.591H2.279A2.154,2.154,0,0,1,0,2.307,2.157,2.157,0,0,1,2.279.024H57.431A2.157,2.157,0,0,1,59.71,2.307C60.166,3.224,58.8,4.591,57.431,4.591Z" transform="translate(2906.069 1501.681)" fill="#fff"/>
        <path id="Path-12" data-name="Path" d="M57.431,4.6H2.279A2.157,2.157,0,0,1,0,2.312,2.158,2.158,0,0,1,2.279.023H57.431A2.158,2.158,0,0,1,59.71,2.312C60.166,3.223,58.8,4.6,57.431,4.6Z" transform="translate(2906.069 1515.843)" fill="#fff"/>
        <path id="Path-13" data-name="Path" d="M57.431,4.591H2.279A2.154,2.154,0,0,1,0,2.307,2.154,2.154,0,0,1,2.279.024H57.431A2.154,2.154,0,0,1,59.71,2.307C60.166,3.224,58.8,4.591,57.431,4.591Z" transform="translate(2906.069 1530.008)" fill="#fff"/>
        <path id="Path-14" data-name="Path" d="M57.431,4.6H2.279A2.158,2.158,0,0,1,0,2.307,2.157,2.157,0,0,1,2.279.023H57.431A2.157,2.157,0,0,1,59.71,2.307C60.166,3.223,58.8,4.6,57.431,4.6Z" transform="translate(2906.069 1544.17)" fill="#fff"/>
        <path id="Path-15" data-name="Path" d="M57.431,4.591H2.279A2.154,2.154,0,0,1,0,2.307,2.154,2.154,0,0,1,2.279.024H57.431A2.154,2.154,0,0,1,59.71,2.307C60.166,3.219,58.8,4.591,57.431,4.591Z" transform="translate(2906.069 1558.335)" fill="#fff"/>
        <path id="Path-16" data-name="Path" d="M30.994,5.023H1.823A1.961,1.961,0,0,1,0,3.2V1.828A1.961,1.961,0,0,1,1.823,0H30.994a1.961,1.961,0,0,1,1.823,1.828V3.195C32.361,4.111,31.906,5.023,30.994,5.023Z" transform="translate(2906.069 1572.065)" fill="#fff"/>
        <path id="Path-17" data-name="Path" d="M10.031,20.1A10.05,10.05,0,1,0,0,10.05,10.05,10.05,0,0,0,10.031,20.1Z" transform="translate(3072.884 1667.552)" fill="#e0e0e0"/>
        <path id="Path-18" data-name="Path" d="M118.969,59.393a65.4,65.4,0,0,1-1.391,13.25v.916A60.455,60.455,0,0,1,81.12,115.592c-.911.456-1.343.456-2.255.911a52.856,52.856,0,0,1-19.141,3.2,59.851,59.851,0,1,1,0-119.7,59.2,59.2,0,0,1,59.245,59.392Z" transform="translate(3207.01 1331.281)" fill="#703372" stroke="#fff" stroke-width="6"/>
        <path id="Path-19" data-name="Path" d="M20.968,0H0V50.715H20.968Z" transform="translate(3000.87 1555.615)" fill="#f5f5f5"/>
        <path id="Path-20" data-name="Path" d="M20.963,0H0V74.015H20.963Z" transform="translate(3052.376 1532.315)" fill="#f5f5f5"/>
        <path id="Path-21" data-name="Path" d="M20.968,0H0V50.715H20.968Z" transform="translate(3103.878 1555.615)" fill="#f5f5f5"/>
        <path id="Path-22" data-name="Path" d="M20.963,0H0V109.653H20.963Z" transform="translate(3155.385 1496.678)" fill="#f5f5f5"/>
        <path id="Path-23" data-name="Path" d="M20.963,0H0V75.387H20.963Z" transform="translate(3206.882 1530.944)" fill="#f5f5f5"/>
        <path id="Path-24" data-name="Path" d="M20.968,0H0V11.422H20.968Z" transform="translate(3000.87 1594.908)" fill="#e0e0e0"/>
        <path id="Path-25" data-name="Path" d="M20.963,0H0V16.449H20.963Z" transform="translate(3052.376 1589.881)" fill="#e0e0e0"/>
        <path id="Path-26" data-name="Path" d="M20.968,0H0V11.422H20.968Z" transform="translate(3103.878 1594.908)" fill="#e0e0e0"/>
        <path id="Path-27" data-name="Path" d="M20.963,0H0V24.672H20.963Z" transform="translate(3155.385 1581.659)" fill="#e0e0e0"/>
        <path id="Path-28" data-name="Path" d="M20.963,0H0V16.905H20.963Z" transform="translate(3206.882 1589.425)" fill="#e0e0e0"/>
        <path id="Path-29" data-name="Path" d="M26.214,126.57c-9.115,0-16.867-2.744-21.424-4.116a7.237,7.237,0,0,1-4.557-8.678,7.212,7.212,0,0,1,8.659-4.567c12.309,4.111,26.893,7.306,39.653-6.855L52.2,98.243c16.4-17.817,25.975-28.327,56.058-11.878,24.158,13.705,32.817,8.678,42.387-6.855,3.646-6.395,6.38-13.25,9.115-19.644,5.013-12.794,10.031-26.044,23.7-24.216h.911c13.216,1.372,29.167,3.2,49.219-24.672a55.584,55.584,0,0,1,7.771-9.134A6.562,6.562,0,0,1,250.9,2.3a6.634,6.634,0,0,1-.432,9.594c-1.823,1.372-3.646,4.111-5.948,7.311C220.4,53.01,197.131,50.727,183,49.355h-.911c-3.19-.456-5.924,5.483-9.57,15.533-2.734,6.855-5.469,14.622-10.031,21.932C147.9,111.036,130.131,114.231,101.871,98.7c-20.513-11.422-23.247-8.222-39.2,9.139l-4.1,4.567C48.088,123.826,36.24,126.57,26.214,126.57Z" transform="translate(2986.965 1471.994)" fill="#ff66a9" stroke="#fff" stroke-width="4"/>
        <path id="Path-30" data-name="Path" d="M31.45,7.311H3.651A3.6,3.6,0,0,1,0,3.655,3.6,3.6,0,0,1,3.651,0h27.8A3.6,3.6,0,0,1,35.1,3.655a3.6,3.6,0,0,1-3.65,3.656Z" transform="translate(2997.679 1479.317)" fill="#e0e0e0"/>
        <path id="Path-31" data-name="Path" d="M56.52,7.311H3.651A3.6,3.6,0,0,1,0,3.655,3.6,3.6,0,0,1,3.651,0H56.064A3.6,3.6,0,0,1,59.71,3.655C60.166,5.483,58.343,7.311,56.52,7.311Z" transform="translate(2997.679 1497.138)" fill="#e0e0e0"/>
        <g id="Group_12" data-name="Group 12" transform="translate(528 1090.084)">
          <path id="Path-32" data-name="Path" d="M4.652,9.277A4.276,4.276,0,0,1,0,4.636,4.272,4.272,0,0,1,4.652,0,4.273,4.273,0,0,1,9.309,4.636,4.585,4.585,0,0,1,4.652,9.277Z" transform="translate(2331.416 389.309)" fill="#e0e0e0"/>
          <path id="Path-33" data-name="Path" d="M4.652,9.277A4.276,4.276,0,0,1,0,4.636,4.272,4.272,0,0,1,4.652,0,4.273,4.273,0,0,1,9.309,4.636,4.585,4.585,0,0,1,4.652,9.277Z" transform="translate(2331.416 487.905)" fill="#e0e0e0"/>
          <path id="Path-34" data-name="Path" d="M5.822,0H4.657A4.58,4.58,0,0,0,0,4.636,4.278,4.278,0,0,0,4.657,9.277H5.822a4.583,4.583,0,0,0,4.652-4.641A4.579,4.579,0,0,0,5.822,0Z" transform="translate(2165.035 246.636)" fill="#e0e0e0"/>
          <path id="Path-35" data-name="Path" d="M5.816,0H4.652A4.579,4.579,0,0,0,0,4.636,4.276,4.276,0,0,0,4.652,9.277H5.816a4.58,4.58,0,0,0,4.652-4.641A4.576,4.576,0,0,0,5.816,0Z" transform="translate(2146.422 246.636)" fill="#e0e0e0"/>
          <path id="Path-36" data-name="Path" d="M5.816,0H4.652C2.323,0,0,1.736,0,4.059S1.741,8.695,4.07,8.695H5.816a3.968,3.968,0,0,0,4.07-4.059A4.922,4.922,0,0,0,5.816,0Z" transform="translate(2183.654 246.636)" fill="#e0e0e0"/>
          <path id="Path-37" data-name="Path" d="M9.309,4.641A4.581,4.581,0,0,0,4.657,0,4.278,4.278,0,0,0,0,4.641V5.8a4.585,4.585,0,0,0,4.657,4.641A4.276,4.276,0,0,0,9.309,5.8Z" transform="translate(2220.881 298.832)" fill="#e0e0e0"/>
          <path id="Path-38" data-name="Path" d="M8.169,2.921,7.587,1.763A4.518,4.518,0,0,0,1.77.6,4.486,4.486,0,0,0,.606,6.4l.582,1.159C1.77,8.722,3.517,9.3,4.681,9.3A3.486,3.486,0,0,0,7,8.722C9.333,7.563,9.915,5.245,8.169,2.921Z" transform="translate(2214.459 264.01)" fill="#e0e0e0"/>
          <path id="Path-39" data-name="Path" d="M4.657,0A4.585,4.585,0,0,0,0,4.641V5.8a4.585,4.585,0,0,0,4.657,4.641A4.584,4.584,0,0,0,9.309,5.8V4.641A4.583,4.583,0,0,0,4.657,0Z" transform="translate(2220.881 317.391)" fill="#e0e0e0"/>
          <path id="Path-40" data-name="Path" d="M5.822,0H4.657A4.58,4.58,0,0,0,0,4.636,4.278,4.278,0,0,0,4.657,9.277H5.822a4.583,4.583,0,0,0,4.652-4.641A4.579,4.579,0,0,0,5.822,0Z" transform="translate(2128.385 246.636)" fill="#e0e0e0"/>
          <path id="Path-41" data-name="Path" d="M7.563,1.161,6.4.579C4.075-.58,1.747,0,.582,2.32S0,6.961,2.329,8.12l.582.582a3.511,3.511,0,0,0,2.323.577c1.747,0,2.911-.577,3.493-2.318a4.486,4.486,0,0,0-1.164-5.8Z" transform="translate(2201.104 251.852)" fill="#e0e0e0"/>
          <path id="Path-42" data-name="Path" d="M7.584,1.763A4.517,4.517,0,0,0,1.768.6,4.492,4.492,0,0,0,.6,6.4l.582,1.159C1.768,8.722,3.514,9.3,4.679,9.3A3.479,3.479,0,0,0,7,8.722a4.486,4.486,0,0,0,1.164-5.8Z" transform="translate(2227.841 371.306)" fill="#e0e0e0"/>
          <path id="Path-43" data-name="Path" d="M7.006,1.184,6.424.6C4.1-.557,1.766.026.6,1.761-.557,4.085.025,6.4,1.766,7.561l1.164.582c.582.582,1.164.582,2.329.582A4.392,4.392,0,0,0,9.329,6.4C9.912,5.243,8.747,2.343,7.006,1.184Z" transform="translate(2241.222 383.484)" fill="#e0e0e0"/>
          <path id="Path-44" data-name="Path" d="M5.822,0H4.657C2.329,0,0,1.736,0,4.059S1.747,8.7,4.075,8.7H5.822a3.972,3.972,0,0,0,4.07-4.064C10.474,2.318,8.727.577,5.822,0Z" transform="translate(2257.532 389.309)" fill="#e0e0e0"/>
          <path id="Path-45" data-name="Path" d="M4.77,9.394C7.676,8.812,9.422,7.07,8.84,4.753V3.594C8.258,1.27,6.511-.465,3.606.111,1.277.694-.469,2.429.113,5.329V6.494a5.554,5.554,0,0,0,4.657,2.9Z" transform="translate(2220.77 281.32)" fill="#e0e0e0"/>
          <path id="Path-46" data-name="Path" d="M8.727,5.218V4.059C8.727,1.741,6.4,0,4.075,0S0,2.318,0,4.636V5.8A4.247,4.247,0,0,0,4.075,9.277h.582a3.282,3.282,0,0,0,4.07-4.059Z" transform="translate(2221.463 353.35)" fill="#e0e0e0"/>
          <path id="Path-47" data-name="Path" d="M4.657,10.441A4.583,4.583,0,0,0,9.309,5.8V4.641A4.584,4.584,0,0,0,4.657,0,4.278,4.278,0,0,0,0,4.641V5.8C.582,8.123,2.329,10.441,4.657,10.441Z" transform="translate(2220.881 335.368)" fill="#e0e0e0"/>
          <path id="Path-48" data-name="Path" d="M4.652,0A4.576,4.576,0,0,0,0,4.636,4.276,4.276,0,0,0,4.652,9.277h.582c2.329,0,4.075-1.741,4.075-4.641A4.58,4.58,0,0,0,4.652,0Z" transform="translate(2110.354 246.636)" fill="#e0e0e0"/>
          <path id="Path-49" data-name="Path" d="M60.5,0H4.652A4.58,4.58,0,0,0,0,4.641,4.273,4.273,0,0,0,4.652,9.282H61.08a4.58,4.58,0,0,0,4.652-4.641C65.732,1.741,62.827,0,60.5,0Z" transform="translate(2275.568 389.886)" fill="#e0e0e0"/>
          <path id="Path-50" data-name="Path" d="M4.652,9.282A4.276,4.276,0,0,1,0,4.641,4.276,4.276,0,0,1,4.652,0,4.278,4.278,0,0,1,9.309,4.641,4.585,4.585,0,0,1,4.652,9.282Z" transform="translate(2331.416 436.863)" fill="#e0e0e0"/>
          <path id="Path-51" data-name="Path" d="M5.816,0H4.657A4.585,4.585,0,0,0,0,4.641,4.273,4.273,0,0,0,4.657,9.277H5.816a4.58,4.58,0,0,0,4.657-4.636A4.585,4.585,0,0,0,5.816,0Z" transform="translate(2177.833 437.446)" fill="#e0e0e0"/>
          <path id="Path-52" data-name="Path" d="M5.816,0H4.652A4.58,4.58,0,0,0,0,4.641,4.269,4.269,0,0,0,4.652,9.277H5.816a4.579,4.579,0,0,0,4.652-4.636A4.583,4.583,0,0,0,5.816,0Z" transform="translate(2197.033 437.446)" fill="#e0e0e0"/>
          <path id="Path-53" data-name="Path" d="M5.816,0H4.652A4.583,4.583,0,0,0,0,4.641,4.272,4.272,0,0,0,4.652,9.277H5.816a4.58,4.58,0,0,0,4.657-4.636A4.585,4.585,0,0,0,5.816,0Z" transform="translate(2158.637 437.446)" fill="#e0e0e0"/>
          <path id="Path-54" data-name="Path" d="M5.816,0H4.652A4.58,4.58,0,0,0,0,4.641,4.272,4.272,0,0,0,4.652,9.277H5.816a4.576,4.576,0,0,0,4.652-4.636A4.58,4.58,0,0,0,5.816,0Z" transform="translate(2139.441 437.446)" fill="#e0e0e0"/>
          <path id="Path-55" data-name="Path" d="M5.822,0H4.657A4.585,4.585,0,0,0,0,4.641,4.273,4.273,0,0,0,4.657,9.277H5.822a4.579,4.579,0,0,0,4.652-4.636A4.276,4.276,0,0,0,5.822,0Z" transform="translate(2120.24 437.446)" fill="#e0e0e0"/>
          <path id="Path-56" data-name="Path" d="M5.816,0H4.652A4.58,4.58,0,0,0,0,4.641,4.269,4.269,0,0,0,4.652,9.277H5.816a4.579,4.579,0,0,0,4.652-4.636A4.583,4.583,0,0,0,5.816,0Z" transform="translate(2254.626 437.446)" fill="#e0e0e0"/>
          <path id="Path-57" data-name="Path" d="M5.816,0H4.652A4.583,4.583,0,0,0,0,4.641,4.272,4.272,0,0,0,4.652,9.277H5.816a4.576,4.576,0,0,0,4.652-4.636A4.58,4.58,0,0,0,5.816,0Z" transform="translate(2216.229 437.446)" fill="#e0e0e0"/>
          <path id="Path-58" data-name="Path" d="M5.822,0H4.657A4.585,4.585,0,0,0,0,4.641,4.273,4.273,0,0,0,4.657,9.277H5.822a4.579,4.579,0,0,0,4.652-4.636A4.583,4.583,0,0,0,5.822,0Z" transform="translate(2235.425 437.446)" fill="#e0e0e0"/>
          <path id="Path-59" data-name="Path" d="M5.234,0H4.652A4.583,4.583,0,0,0,0,4.641,4.272,4.272,0,0,0,4.652,9.277h.582A4.58,4.58,0,0,0,9.892,4.641,4.585,4.585,0,0,0,5.234,0Z" transform="translate(2102.208 437.446)" fill="#e0e0e0"/>
          <path id="Path-60" data-name="Path" d="M62.245,0H4.652A4.583,4.583,0,0,0,0,4.641,4.272,4.272,0,0,0,4.652,9.277H62.245A4.576,4.576,0,0,0,66.9,4.641,4.58,4.58,0,0,0,62.245,0Z" transform="translate(2273.822 437.446)" fill="#e0e0e0"/>
          <path id="Path-61" data-name="Path" d="M2.911.835l-.582.582a4.133,4.133,0,0,0-1.747,5.8,4.9,4.9,0,0,0,4.07,2.318,4.435,4.435,0,0,0,2.329-.577l1.164-.582a3.607,3.607,0,0,0,1.164-5.8C7.563.258,4.652-.9,2.911.835Z" transform="translate(2201.104 625.679)" fill="#e0e0e0"/>
          <path id="Path-62" data-name="Path" d="M5.234,0H4.07C1.741,0,0,2.323,0,4.641A4.362,4.362,0,0,0,4.07,8.7H5.234C7.563,8.7,9.3,6.382,9.3,4.059,9.886,1.741,7.563,0,5.234,0Z" transform="translate(2183.072 631.155)" fill="#e0e0e0"/>
          <path id="Path-63" data-name="Path" d="M4.77.112C2.442-.47.113,1.271.113,4.171V5.33a4.519,4.519,0,0,0,3.493,5.223h.582a3.887,3.887,0,0,0,4.07-3.482V5.912A4.826,4.826,0,0,0,4.77.112Z" transform="translate(2221.352 595.666)" fill="#e0e0e0"/>
          <path id="Path-64" data-name="Path" d="M5.822,0H4.657A4.585,4.585,0,0,0,0,4.641,4.273,4.273,0,0,0,4.657,9.277H5.822a4.579,4.579,0,0,0,4.652-4.636A4.583,4.583,0,0,0,5.822,0Z" transform="translate(2165.035 631.737)" fill="#e0e0e0"/>
          <path id="Path-65" data-name="Path" d="M4.657,0A4.58,4.58,0,0,0,0,4.636V5.8a4.581,4.581,0,0,0,4.657,4.636A4.272,4.272,0,0,0,9.309,5.8V4.636A4.579,4.579,0,0,0,4.657,0Z" transform="translate(2220.881 577.801)" fill="#e0e0e0"/>
          <path id="Path-66" data-name="Path" d="M5.822,0H4.657A4.585,4.585,0,0,0,0,4.641,4.273,4.273,0,0,0,4.657,9.277H5.822a4.579,4.579,0,0,0,4.652-4.636A4.583,4.583,0,0,0,5.822,0Z" transform="translate(2128.385 631.737)" fill="#e0e0e0"/>
          <path id="Path-67" data-name="Path" d="M5.816,0H4.652A4.583,4.583,0,0,0,0,4.641,4.272,4.272,0,0,0,4.652,9.277H5.816a4.576,4.576,0,0,0,4.652-4.636A4.58,4.58,0,0,0,5.816,0Z" transform="translate(2146.422 631.737)" fill="#e0e0e0"/>
          <path id="Path-68" data-name="Path" d="M7,.6A4.521,4.521,0,0,0,1.188,1.766L.606,2.925a4.486,4.486,0,0,0,1.164,5.8A3.526,3.526,0,0,0,4.1,9.3c1.163,0,2.9-.575,3.487-1.734L8.169,6.4A3.608,3.608,0,0,0,7,.6Z" transform="translate(2214.459 613.153)" fill="#e0e0e0"/>
          <path id="Path-69" data-name="Path" d="M3.339.466l-1.164.582a3.609,3.609,0,0,0-1.159,5.8A4.769,4.769,0,0,0,4.5,9.167a3.5,3.5,0,0,0,2.329-.582l.582-.577a4.135,4.135,0,0,0,1.741-5.8A4.526,4.526,0,0,0,3.339.466Z" transform="translate(2240.231 493.816)" fill="#e0e0e0"/>
          <path id="Path-70" data-name="Path" d="M5.24,0H4.075C1.747,0,0,2.323,0,4.641A4.367,4.367,0,0,0,4.075,8.7H5.822c2.323,0,4.07-2.318,4.07-4.641S7.563,0,5.24,0Z" transform="translate(2257.532 488.482)" fill="#e0e0e0"/>
          <path id="Path-71" data-name="Path" d="M1.186,2.056.6,3.22a4.486,4.486,0,0,0,1.168,5.8A3.5,3.5,0,0,0,4.1,9.6c1.161,0,2.9-.585,3.484-1.744l.582-.577A4.486,4.486,0,0,0,7,1.479a3.312,3.312,0,0,0-5.814.577Z" transform="translate(2227.841 506.144)" fill="#e0e0e0"/>
          <path id="Path-72" data-name="Path" d="M4.657,0A4.58,4.58,0,0,0,0,4.636V5.8a4.581,4.581,0,0,0,4.657,4.636A4.275,4.275,0,0,0,9.309,5.8V4.636A5,5,0,0,0,4.657,0Z" transform="translate(2220.881 559.242)" fill="#e0e0e0"/>
          <path id="Path-73" data-name="Path" d="M4.657,0A4.585,4.585,0,0,0,0,4.641V5.8a4.582,4.582,0,0,0,4.657,4.641A4.276,4.276,0,0,0,9.309,5.8V4.641A4.583,4.583,0,0,0,4.657,0Z" transform="translate(2220.881 541.259)" fill="#e0e0e0"/>
          <path id="Path-74" data-name="Path" d="M5.234.113A4.528,4.528,0,0,0,0,3.59V4.749C0,7.072,1.747,9.39,4.075,9.39h.582a3.971,3.971,0,0,0,4.07-4.059V4.172C9.309,2.431,7.563.113,5.234.113Z" transform="translate(2221.463 523.169)" fill="#e0e0e0"/>
          <path id="Path-75" data-name="Path" d="M4.652,0A4.583,4.583,0,0,0,0,4.641,4.272,4.272,0,0,0,4.652,9.277h.582c2.329,0,4.075-1.736,4.075-4.636A4.585,4.585,0,0,0,4.652,0Z" transform="translate(2110.354 631.737)" fill="#e0e0e0"/>
          <path id="Path-76" data-name="Path" d="M61.08,0H4.652A4.58,4.58,0,0,0,0,4.641,4.276,4.276,0,0,0,4.652,9.282h57.01a4.58,4.58,0,0,0,4.652-4.641C66.314,1.741,63.409,0,61.08,0Z" transform="translate(2274.986 488.482)" fill="#e0e0e0"/>
        </g>
        <g id="Group_14" data-name="Group 14" transform="translate(3302.03 1300.831)">
          <path id="Path-77" data-name="Path" d="M4.657,9.277A4.276,4.276,0,0,0,9.309,4.636,4.272,4.272,0,0,0,4.657,0,4.273,4.273,0,0,0,0,4.636,4.585,4.585,0,0,0,4.657,9.277Z" transform="translate(0.576 178.562)" fill="#e0e0e0"/>
          <path id="Path-78" data-name="Path" d="M4.657,9.277A4.276,4.276,0,0,0,9.309,4.636,4.272,4.272,0,0,0,4.657,0,4.273,4.273,0,0,0,0,4.636,4.585,4.585,0,0,0,4.657,9.277Z" transform="translate(0.576 277.158)" fill="#e0e0e0"/>
          <path id="Path-79" data-name="Path" d="M4.635,0H5.8a4.58,4.58,0,0,1,4.657,4.636A4.278,4.278,0,0,1,5.8,9.277H4.635A4.583,4.583,0,0,1-.017,4.636,4.579,4.579,0,0,1,4.635,0Z" transform="translate(165.808 35.889)" fill="#e0e0e0"/>
          <path id="Path-80" data-name="Path" d="M4.635,0H5.8a4.579,4.579,0,0,1,4.652,4.636A4.276,4.276,0,0,1,5.8,9.277H4.635A4.58,4.58,0,0,1-.017,4.636,4.576,4.576,0,0,1,4.635,0Z" transform="translate(184.427 35.889)" fill="#e0e0e0"/>
          <path id="Path-81" data-name="Path" d="M4.071,0H5.235C7.564,0,9.887,1.736,9.887,4.059S8.146,8.7,5.817,8.7H4.071A3.968,3.968,0,0,1,0,4.636,4.922,4.922,0,0,1,4.071,0Z" transform="translate(147.759 35.889)" fill="#e0e0e0"/>
          <path id="Path-82" data-name="Path" d="M0,4.641A4.581,4.581,0,0,1,4.652,0,4.278,4.278,0,0,1,9.309,4.641V5.8a4.585,4.585,0,0,1-4.657,4.641A4.276,4.276,0,0,1,0,5.8Z" transform="translate(111.11 88.085)" fill="#e0e0e0"/>
          <path id="Path-83" data-name="Path" d="M1.023,2.921l.582-1.158A4.518,4.518,0,0,1,7.422.6,4.486,4.486,0,0,1,8.586,6.4L8,7.559C7.422,8.722,5.675,9.3,4.511,9.3a3.486,3.486,0,0,1-2.319-.578C-.141,7.563-.723,5.245,1.023,2.921Z" transform="translate(117.649 53.263)" fill="#e0e0e0"/>
          <path id="Path-84" data-name="Path" d="M4.652,0A4.585,4.585,0,0,1,9.309,4.641V5.8a4.585,4.585,0,0,1-4.657,4.641A4.584,4.584,0,0,1,0,5.8V4.641A4.583,4.583,0,0,1,4.652,0Z" transform="translate(111.11 106.644)" fill="#e0e0e0"/>
          <path id="Path-85" data-name="Path" d="M4.635,0H5.8a4.58,4.58,0,0,1,4.657,4.636A4.278,4.278,0,0,1,5.8,9.277H4.635A4.583,4.583,0,0,1-.017,4.636,4.579,4.579,0,0,1,4.635,0Z" transform="translate(202.458 35.889)" fill="#e0e0e0"/>
          <path id="Path-86" data-name="Path" d="M1.761,1.161,2.924.579C5.249-.58,7.577,0,8.742,2.32S9.324,6.961,7,8.12L6.413,8.7a3.511,3.511,0,0,1-2.323.577C2.343,9.279,1.179,8.7.6,6.961a4.486,4.486,0,0,1,1.164-5.8Z" transform="translate(130.873 41.105)" fill="#e0e0e0"/>
          <path id="Path-87" data-name="Path" d="M1.183,1.763A4.517,4.517,0,0,1,7,.6,4.492,4.492,0,0,1,8.167,6.4L7.585,7.559C7,8.722,5.253,9.3,4.088,9.3a3.479,3.479,0,0,1-2.321-.578A4.486,4.486,0,0,1,.6,2.922Z" transform="translate(104.692 160.559)" fill="#e0e0e0"/>
          <path id="Path-88" data-name="Path" d="M2.474,1.184,3.056.6C5.38-.557,7.714.026,8.88,1.761c1.157,2.324.575,4.639-1.166,5.8L6.55,8.143c-.582.582-1.164.582-2.329.582A4.392,4.392,0,0,1,.151,6.4C-.432,5.243.733,2.343,2.474,1.184Z" transform="translate(90.598 172.737)" fill="#e0e0e0"/>
          <path id="Path-89" data-name="Path" d="M4.181,0H5.346C7.674,0,10,1.736,10,4.059S8.256,8.7,5.928,8.7H4.181A3.972,3.972,0,0,1,.111,4.636C-.471,2.318,1.276.577,4.181,0Z" transform="translate(73.765 178.562)" fill="#e0e0e0"/>
          <path id="Path-90" data-name="Path" d="M4.182,9.394C1.276,8.812-.47,7.07.112,4.753V3.594C.694,1.27,2.441-.465,5.346.111,7.675.694,9.421,2.429,8.839,5.329V6.494a5.554,5.554,0,0,1-4.657,2.9Z" transform="translate(111.579 70.573)" fill="#e0e0e0"/>
          <path id="Path-91" data-name="Path" d="M.128,5.218V4.059C.128,1.741,2.455,0,4.78,0S8.855,2.318,8.855,4.636V5.8A4.247,4.247,0,0,1,4.78,9.277H4.2A3.282,3.282,0,0,1,.128,5.218Z" transform="translate(110.982 142.603)" fill="#e0e0e0"/>
          <path id="Path-92" data-name="Path" d="M4.635,10.441A4.583,4.583,0,0,1-.017,5.8V4.641A4.584,4.584,0,0,1,4.635,0,4.278,4.278,0,0,1,9.292,4.641V5.8C8.71,8.123,6.963,10.441,4.635,10.441Z" transform="translate(111.127 124.621)" fill="#e0e0e0"/>
          <path id="Path-93" data-name="Path" d="M4.64,0A4.576,4.576,0,0,1,9.292,4.636,4.276,4.276,0,0,1,4.64,9.277H4.058c-2.329,0-4.075-1.741-4.075-4.641A4.58,4.58,0,0,1,4.64,0Z" transform="translate(221.655 35.889)" fill="#e0e0e0"/>
          <path id="Path-94" data-name="Path" d="M5.215,0H61.063a4.58,4.58,0,0,1,4.652,4.641,4.273,4.273,0,0,1-4.652,4.641H4.635A4.58,4.58,0,0,1-.017,4.641C-.017,1.741,2.888,0,5.215,0Z" transform="translate(0.018 179.139)" fill="#e0e0e0"/>
          <path id="Path-95" data-name="Path" d="M4.657,9.282A4.276,4.276,0,0,0,9.309,4.641,4.276,4.276,0,0,0,4.657,0,4.278,4.278,0,0,0,0,4.641,4.585,4.585,0,0,0,4.657,9.282Z" transform="translate(0.576 226.116)" fill="#e0e0e0"/>
          <path id="Path-96" data-name="Path" d="M4.64,0H5.8a4.585,4.585,0,0,1,4.657,4.641A4.273,4.273,0,0,1,5.8,9.277H4.64A4.58,4.58,0,0,1-.017,4.641,4.585,4.585,0,0,1,4.64,0Z" transform="translate(153.012 226.699)" fill="#e0e0e0"/>
          <path id="Path-97" data-name="Path" d="M4.635,0H5.8a4.58,4.58,0,0,1,4.652,4.641A4.269,4.269,0,0,1,5.8,9.277H4.635A4.579,4.579,0,0,1-.017,4.641,4.583,4.583,0,0,1,4.635,0Z" transform="translate(133.816 226.699)" fill="#e0e0e0"/>
          <path id="Path-98" data-name="Path" d="M4.64,0H5.8a4.583,4.583,0,0,1,4.652,4.641A4.272,4.272,0,0,1,5.8,9.277H4.64A4.58,4.58,0,0,1-.017,4.641,4.585,4.585,0,0,1,4.64,0Z" transform="translate(172.207 226.699)" fill="#e0e0e0"/>
          <path id="Path-99" data-name="Path" d="M4.635,0H5.8a4.58,4.58,0,0,1,4.652,4.641A4.272,4.272,0,0,1,5.8,9.277H4.635A4.576,4.576,0,0,1-.017,4.641,4.58,4.58,0,0,1,4.635,0Z" transform="translate(191.408 226.699)" fill="#e0e0e0"/>
          <path id="Path-100" data-name="Path" d="M4.652,0H5.817a4.585,4.585,0,0,1,4.657,4.641A4.273,4.273,0,0,1,5.817,9.277H4.652A4.579,4.579,0,0,1,0,4.641,4.276,4.276,0,0,1,4.652,0Z" transform="translate(210.586 226.699)" fill="#e0e0e0"/>
          <path id="Path-101" data-name="Path" d="M4.635,0H5.8a4.58,4.58,0,0,1,4.652,4.641A4.269,4.269,0,0,1,5.8,9.277H4.635A4.579,4.579,0,0,1-.017,4.641,4.583,4.583,0,0,1,4.635,0Z" transform="translate(76.223 226.699)" fill="#e0e0e0"/>
          <path id="Path-102" data-name="Path" d="M4.635,0H5.8a4.583,4.583,0,0,1,4.652,4.641A4.272,4.272,0,0,1,5.8,9.277H4.635A4.576,4.576,0,0,1-.017,4.641,4.58,4.58,0,0,1,4.635,0Z" transform="translate(114.62 226.699)" fill="#e0e0e0"/>
          <path id="Path-103" data-name="Path" d="M4.635,0H5.8a4.585,4.585,0,0,1,4.657,4.641A4.273,4.273,0,0,1,5.8,9.277H4.635A4.579,4.579,0,0,1-.017,4.641,4.583,4.583,0,0,1,4.635,0Z" transform="translate(95.418 226.699)" fill="#e0e0e0"/>
          <path id="Path-104" data-name="Path" d="M4.641,0h.582A4.583,4.583,0,0,1,9.875,4.641,4.272,4.272,0,0,1,5.223,9.277H4.641A4.58,4.58,0,0,1-.017,4.641,4.585,4.585,0,0,1,4.641,0Z" transform="translate(229.217 226.699)" fill="#e0e0e0"/>
          <path id="Path-105" data-name="Path" d="M4.638,0H62.231a4.583,4.583,0,0,1,4.652,4.641,4.272,4.272,0,0,1-4.652,4.636H4.638A4.576,4.576,0,0,1-.017,4.641,4.58,4.58,0,0,1,4.638,0Z" transform="translate(0.595 226.699)" fill="#e0e0e0"/>
          <path id="Path-106" data-name="Path" d="M7.414.835,8,1.417a4.133,4.133,0,0,1,1.747,5.8,4.9,4.9,0,0,1-4.07,2.318,4.435,4.435,0,0,1-2.329-.577L2.18,8.376a3.607,3.607,0,0,1-1.164-5.8C2.762.258,5.673-.9,7.414.835Z" transform="translate(129.872 414.932)" fill="#e0e0e0"/>
          <path id="Path-107" data-name="Path" d="M4.158,0H5.322c2.329,0,4.07,2.323,4.07,4.641A4.362,4.362,0,0,1,5.322,8.7H4.158C1.829,8.7.092,6.382.092,4.059-.494,1.741,1.829,0,4.158,0Z" transform="translate(148.837 420.408)" fill="#e0e0e0"/>
          <path id="Path-108" data-name="Path" d="M3.662.112C5.99-.47,8.319,1.271,8.319,4.171V5.33a4.519,4.519,0,0,1-3.493,5.223H4.244A3.887,3.887,0,0,1,.174,7.071V5.912A4.826,4.826,0,0,1,3.662.112Z" transform="translate(111.517 384.919)" fill="#e0e0e0"/>
          <path id="Path-109" data-name="Path" d="M4.635,0H5.8a4.585,4.585,0,0,1,4.657,4.641A4.273,4.273,0,0,1,5.8,9.277H4.635A4.579,4.579,0,0,1-.017,4.641,4.583,4.583,0,0,1,4.635,0Z" transform="translate(165.808 420.99)" fill="#e0e0e0"/>
          <path id="Path-110" data-name="Path" d="M4.669,0A4.58,4.58,0,0,1,9.326,4.636V5.8a4.581,4.581,0,0,1-4.657,4.636A4.272,4.272,0,0,1,.017,5.8V4.636A4.579,4.579,0,0,1,4.669,0Z" transform="translate(111.094 367.054)" fill="#e0e0e0"/>
          <path id="Path-111" data-name="Path" d="M4.635,0H5.8a4.585,4.585,0,0,1,4.657,4.641A4.273,4.273,0,0,1,5.8,9.277H4.635A4.579,4.579,0,0,1-.017,4.641,4.583,4.583,0,0,1,4.635,0Z" transform="translate(202.458 420.99)" fill="#e0e0e0"/>
          <path id="Path-112" data-name="Path" d="M4.635,0H5.8a4.583,4.583,0,0,1,4.652,4.641A4.272,4.272,0,0,1,5.8,9.277H4.635A4.576,4.576,0,0,1-.017,4.641,4.58,4.58,0,0,1,4.635,0Z" transform="translate(184.427 420.99)" fill="#e0e0e0"/>
          <path id="Path-113" data-name="Path" d="M2.176.6A4.521,4.521,0,0,1,7.988,1.766L8.57,2.925a4.486,4.486,0,0,1-1.164,5.8,3.526,3.526,0,0,1-2.33.575c-1.163,0-2.9-.575-3.487-1.734L1.007,6.4A3.608,3.608,0,0,1,2.176.6Z" transform="translate(117.665 402.406)" fill="#e0e0e0"/>
          <path id="Path-114" data-name="Path" d="M6.4.466l1.164.582a3.609,3.609,0,0,1,1.159,5.8A4.769,4.769,0,0,1,5.234,9.167a3.5,3.5,0,0,1-2.329-.582l-.582-.577a4.135,4.135,0,0,1-1.741-5.8A4.526,4.526,0,0,1,6.4.466Z" transform="translate(91.335 283.069)" fill="#e0e0e0"/>
          <path id="Path-115" data-name="Path" d="M4.652,0H5.817C8.145,0,9.892,2.323,9.892,4.641A4.367,4.367,0,0,1,5.817,8.7H4.07C1.747,8.7,0,6.382,0,4.059S2.329,0,4.652,0Z" transform="translate(73.876 277.735)" fill="#e0e0e0"/>
          <path id="Path-116" data-name="Path" d="M7.583,2.056,8.169,3.22A4.486,4.486,0,0,1,7,9.015,3.5,3.5,0,0,1,4.669,9.6c-1.161,0-2.9-.585-3.484-1.744L.6,7.279a4.486,4.486,0,0,1,1.166-5.8,3.312,3.312,0,0,1,5.814.577Z" transform="translate(104.691 295.397)" fill="#e0e0e0"/>
          <path id="Path-117" data-name="Path" d="M4.669,0A4.58,4.58,0,0,1,9.326,4.636V5.8a4.581,4.581,0,0,1-4.657,4.636A4.275,4.275,0,0,1,.017,5.8V4.636A5,5,0,0,1,4.669,0Z" transform="translate(111.094 348.495)" fill="#e0e0e0"/>
          <path id="Path-118" data-name="Path" d="M4.669,0A4.585,4.585,0,0,1,9.326,4.641V5.8a4.582,4.582,0,0,1-4.657,4.641A4.276,4.276,0,0,1,.017,5.8V4.641A4.583,4.583,0,0,1,4.669,0Z" transform="translate(111.094 330.512)" fill="#e0e0e0"/>
          <path id="Path-119" data-name="Path" d="M3.606.113A4.528,4.528,0,0,1,8.84,3.59V4.749c0,2.323-1.747,4.641-4.075,4.641H4.183A3.971,3.971,0,0,1,.113,5.331V4.172C-.469,2.431,1.277.113,3.606.113Z" transform="translate(110.998 312.422)" fill="#e0e0e0"/>
          <path id="Path-120" data-name="Path" d="M4.64,0A4.583,4.583,0,0,1,9.292,4.641,4.272,4.272,0,0,1,4.64,9.277H4.058c-2.329,0-4.075-1.736-4.075-4.636A4.585,4.585,0,0,1,4.64,0Z" transform="translate(221.655 420.99)" fill="#e0e0e0"/>
          <path id="Path-121" data-name="Path" d="M5.217,0H61.645A4.58,4.58,0,0,1,66.3,4.641a4.276,4.276,0,0,1-4.652,4.641H4.635A4.58,4.58,0,0,1-.017,4.641C-.017,1.741,2.888,0,5.217,0Z" transform="translate(0.017 277.735)" fill="#e0e0e0"/>
        </g>
        <path id="Path_3" data-name="Path 3" d="M295,145.82a16.09,16.09,0,0,0-5.092-5.257,25.476,25.476,0,0,0-6.53-3c-1.273-.394-2.813-.8-4.57-1.273-1.413-.394-2.953-.764-5.334-1.273h0a47.938,47.938,0,0,1-7.243-2.138,7.642,7.642,0,0,1-2.966-2.165,4.416,4.416,0,0,1-.9-2.978v-.484a4.618,4.618,0,0,1,.9-2.5,8.3,8.3,0,0,1,3.628-2.546,20.174,20.174,0,0,1,7.255-1.044,22.046,22.046,0,0,1,5.652.739,10.723,10.723,0,0,1,3.4,1.655,6.364,6.364,0,0,1,1.643,1.731l2.762,4.277,8.567-5.511-2.762-4.277a16.455,16.455,0,0,0-4.239-4.48,20.829,20.829,0,0,0-6.568-3.2,28.269,28.269,0,0,0-2.788-.637V100.8H269.631v10.451a30.853,30.853,0,0,0-6,1.374,18.485,18.485,0,0,0-8.159,5.613l-.14.165a14.893,14.893,0,0,0-3.182,8.707,14.638,14.638,0,0,0,2.94,9.725l.165.217h0a17.825,17.825,0,0,0,7.357,5.334,58.053,58.053,0,0,0,8.757,2.546c2.176.484,3.564.815,4.812,1.171h.14c1.617.408,2.979.776,4.162,1.133a15.261,15.261,0,0,1,3.908,1.782,5.9,5.9,0,0,1,1.782,1.858,6.012,6.012,0,0,1,.637,2.953v.229a5.8,5.8,0,0,1-1.006,3.474,8.721,8.721,0,0,1-4.048,3.093,19.489,19.489,0,0,1-7.751,1.273h-.319a17.924,17.924,0,0,1-8.3-1.757,9.128,9.128,0,0,1-3.195-2.877l-2.9-4.188-8.363,5.8,2.9,4.188h0a19.486,19.486,0,0,0,6.887,6.134l.14.064a28.363,28.363,0,0,0,8.77,2.609v10.387h10.183V171.647a28.536,28.536,0,0,0,5.651-1.6,19,19,0,0,0,8.58-6.555,17.285,17.285,0,0,0,1.043-17.54Z" transform="translate(2992.95 1249.484)" fill="#e2a122"/>
      </g>
    </g>
  </g>
</svg>
