<svg xmlns="http://www.w3.org/2000/svg" xmlns:xlink="http://www.w3.org/1999/xlink" width="34" height="26" viewBox="0 0 34 26">
  <defs>
    <clipPath id="clip-path">
      <rect id="Rectangle_1" data-name="Rectangle 1" width="34" height="26" fill="#fff"/>
    </clipPath>
  </defs>
  <g id="Mask_Group_1" data-name="Mask Group 1" clip-path="url(#clip-path)">
    <path id="Vector" d="M26.994.357a1.155,1.155,0,0,1,1.67,0l3.229,3.251a1.1,1.1,0,0,1,.4.862.958.958,0,0,1-.4.818L28.664,8.54a1.091,1.091,0,0,1-1.67,0,1.18,1.18,0,0,1,0-1.682l1.166-1.214H19.375A1.177,1.177,0,0,1,18.164,4.47a1.214,1.214,0,0,1,1.211-1.219l8.784-.045L26.994,2.082a1.232,1.232,0,0,1,0-1.724ZM5.252,19.108,4.134,20.322l8.737-.046A1.212,1.212,0,0,1,14.082,21.5a1.162,1.162,0,0,1-1.211,1.219l-8.736.046L5.252,23.93a1.109,1.109,0,0,1,0,1.682,1.089,1.089,0,0,1-1.669,0L.355,22.36A1.08,1.08,0,0,1,0,21.5a1.2,1.2,0,0,1,.355-.818l3.229-3.252a1.159,1.159,0,0,1,1.669,0,1.109,1.109,0,0,1,0,1.682ZM4.8,3.252H17.049a2.566,2.566,0,0,0-.3,1.174,2.605,2.605,0,0,0,2.624,2.642h4.9A3.253,3.253,0,0,0,25.7,9.242a3.167,3.167,0,0,0,.293.351,2.615,2.615,0,0,0,3.714,0l.969-.981v10.9a3.243,3.243,0,0,1-3.229,3.252H15.243a2.754,2.754,0,0,0-2.371-3.907L8.017,18.9A3.284,3.284,0,0,0,6.59,16.771,3.166,3.166,0,0,0,6.3,16.42a2.613,2.613,0,0,0-3.712,0L1.569,17.4V6.5A3.27,3.27,0,0,1,4.8,3.252Zm0,6.5A3.215,3.215,0,0,0,8.027,6.5H4.8Zm22.65,9.755V16.258a3.243,3.243,0,0,0-3.229,3.252ZM16.1,17.884a4.878,4.878,0,1,0-4.844-4.877A4.872,4.872,0,0,0,16.1,17.884Z" transform="translate(0.854 0)" fill="#703372"/>
  </g>
</svg>
