<svg xmlns="http://www.w3.org/2000/svg" xmlns:xlink="http://www.w3.org/1999/xlink" width="307" height="140" viewBox="0 0 307 140">
  <defs>
    <clipPath id="clip-path">
      <rect id="Rectangle_3" data-name="Rectangle 3" width="307" height="140" fill="#fff"/>
    </clipPath>
  </defs>
  <g id="Mask_Group_2" data-name="Mask Group 2" clip-path="url(#clip-path)">
    <g id="fidelity-seeklogo.com" transform="translate(24.585 -209.883)">
      <path id="Path_41" data-name="Path 41" d="M29.72,295.83H15.1L26.84,254H56.819l-2.843,9.931H38.655L36.7,271.057H51.983l-2.547,9.119H34.114Z" transform="translate(0 -0.063)" fill="#408800"/>
      <path id="Path_42" data-name="Path 42" d="M121.772,295.83H107.3l8.565-30.569h14.472Zm9.341-33.486H116.641L119,254h14.472Z" transform="translate(-58.16 -0.063)" fill="#408800"/>
      <path id="Path_43" data-name="Path 43" d="M194.671,295.767H180.494l1-3.433c-2.843,2.4-5.759,4.135-10.411,4.135-4.726,0-7.679-2.252-7.679-7.015a42.927,42.927,0,0,1,5.169-18.607,12.059,12.059,0,0,1,11.039-6.239c4.1,0,7.125,1.809,8.307,4.024l4.024-14.731h14.472ZM183.817,274.28a3.26,3.26,0,0,0-3.323,2.178,20.5,20.5,0,0,0-2.031,7.642,2.133,2.133,0,0,0,2.252,2.178,4.278,4.278,0,0,0,2.474-.738l2.917-10.042a2.976,2.976,0,0,0-2.289-1.218" transform="translate(-93.548)" fill="#408800"/>
      <path id="Path_44" data-name="Path 44" d="M300.072,300.48H280.1a16.639,16.639,0,0,0-.775,4.024,1.941,1.941,0,0,0,2.141,2.178c2.031,0,2.917-.775,3.766-3.766h14.177c-1.809,8.676-12.11,11.667-18.46,11.667-8.565,0-15.248-1.218-15.248-9.488,0-4.541,2.289-12.073,5.316-16.023,3.655-4.763,9.968-6.572,15.8-6.572,8.971,0,14.8,1.846,14.8,9.488a38.924,38.924,0,0,1-1.551,8.492M285.6,290.216c-1.809,0-3.027,1.218-3.8,4.32h5.944a9.466,9.466,0,0,0,.406-2.141c-.037-1.7-1.034-2.178-2.547-2.178" transform="translate(-158.08 -18.041)" fill="#408800"/>
      <path id="Path_45" data-name="Path 45" d="M373.472,295.83H359L370.7,254h14.472Z" transform="translate(-216.934 -0.063)" fill="#408800"/>
      <path id="Path_46" data-name="Path 46" d="M425.172,295.83H410.7l8.565-30.569h14.472Zm9.378-33.486H420.078L422.44,254h14.472Z" transform="translate(-249.546 -0.063)" fill="#408800"/>
      <path id="Path_47" data-name="Path 47" d="M496.371,272.956l1.255,6.9H486.551L483.3,291.453a10.079,10.079,0,0,0-.517,2.732c0,1.329.554,1.809,2.511,1.809h3.1l-2.141,7.532H473.37c-4.246,0-5.87-2.067-5.87-5.206a15.358,15.358,0,0,1,.628-4.246l7.864-27.874h14.472l-1.92,6.793h7.827Z" transform="translate(-285.376 -7.759)" fill="#408800"/>
      <path id="Path_48" data-name="Path 48" d="M601.65,350.7a3.95,3.95,0,1,0,3.95,3.95,3.955,3.955,0,0,0-3.95-3.95m0,7.162a3.249,3.249,0,1,1,3.249-3.249,3.254,3.254,0,0,1-3.249,3.249" transform="translate(-367.507 -61.062)" fill="#408800"/>
      <path id="Path_49" data-name="Path 49" d="M607.654,357.018c0-.775-.443-1.218-1.44-1.218H604.7v4.061h.7V358.2h.554l1,1.661h.775l-1.071-1.7a1.077,1.077,0,0,0,1-1.144m-2.252.554v-1.145h.554c.443,0,.96.037.96.554,0,.554-.517.591-.96.591Z" transform="translate(-371.922 -64.279)" fill="#408800"/>
      <path id="Path_50" data-name="Path 50" d="M549.019,284.437l-7.864,16.946.222-16.946h-14.62l2.806,30.569c-.369,1.772-.96,2.806-2.067,3.286-1.218.554-3.987.443-4.984.406h-.185L520,327.005h9.894c5.833,0,8.676-2.917,12.848-9.451L563.823,284.4h-14.8Z" transform="translate(-318.493 -19.24)" fill="#408800"/>
    </g>
  </g>
</svg>
