<svg xmlns="http://www.w3.org/2000/svg" xmlns:xlink="http://www.w3.org/1999/xlink" width="80" height="80" viewBox="0 0 80 80">
  <defs>
    <clipPath id="clip-path">
      <rect id="Rectangle_4" data-name="Rectangle 4" width="80" height="80" fill="#fff"/>
    </clipPath>
  </defs>
  <g id="Mask_Group_5" data-name="Mask Group 5" clip-path="url(#clip-path)">
    <path id="Path_2" data-name="Path 2" d="M63.407,40.285h12.21L79.19,42.6H62.869l-6.5,20.515-.828,2.138A33.832,33.832,0,0,1,36.9,20.832a34.036,34.036,0,0,1,63.876,23.3A33.345,33.345,0,0,1,89.868,60.262l-.9-1.393L80.846,45.238,93.4,52.232a.085.085,0,0,0,.069-.138L77.024,37.9,98.3,41.14c.069,0,.1-.028.1-.069l-.138-.11L78.21,33.938,99.043,28.9c.069,0,.069-.069.041-.11l-21.37,1.393,15.3-11.52,1.435-1.145c.028-.069-.11-.11-.152-.041L78.431,25.537,75.506,27,85.881,8.705c0-.041,0-.11-.069-.069L72.264,24.543l2.594-20.9c0-.041-.069-.083-.138-.041L68.47,23.909l-1.738-6.291L63.021,2.994c-.041-.041-.11-.069-.138,0l.1,1.78,1.393,19.908L51.487,7.919c-.028-.028-.069,0-.1.028L61.131,26.5,42.7,16.445c-.028,0-.1.041-.1.069L57.3,28.572l1.683,1.393L38.064,27.758c-.069.028-.069.1,0,.138L58.33,33.828l-20.156,5.9a.138.138,0,0,0,0,.152l20.8-2.428L42.644,51.335a.059.059,0,0,0,0,.11l.221-.069L55.957,44.52l3.063-4.884h3.49l-2.428-1.711,8.1-12.982L63.407,40.285" transform="translate(-28.319 7)" fill="#408800"/>
  </g>
</svg>
