<svg xmlns="http://www.w3.org/2000/svg" xmlns:xlink="http://www.w3.org/1999/xlink" width="307" height="140" viewBox="0 0 307 140">
  <defs>
    <clipPath id="clip-path">
      <rect id="Rectangle_7" data-name="Rectangle 7" width="307" height="140" fill="#fff"/>
    </clipPath>
    <linearGradient id="linear-gradient" x1="136.044" y1="0.501" x2="137.044" y2="0.501" gradientUnits="objectBoundingBox">
      <stop offset="0" stop-color="#d81222"/>
      <stop offset="1" stop-color="#960b1a"/>
    </linearGradient>
    <clipPath id="clip-Web_1920_8">
      <rect width="307" height="140"/>
    </clipPath>
  </defs>
  <g id="Web_1920_8" data-name="Web 1920 – 8" clip-path="url(#clip-Web_1920_8)">
    <rect width="307" height="140" fill="#fff"/>
    <g id="Mask_Group_5" data-name="Mask Group 5" clip-path="url(#clip-path)">
      <g id="Group_9" data-name="Group 9" transform="translate(612.486 -160.152)">
        <g id="ib-logo-text-black" transform="translate(-571.4 192.356)">
          <g id="Group_6" data-name="Group 6" transform="translate(47.601 8.837)">
            <path id="Path_59" data-name="Path 59" d="M54.272,56.539H48.9V30.5h5.372Z" transform="translate(-48.9 -30.425)" fill="#222"/>
            <path id="Path_60" data-name="Path 60" d="M77.919,40.567c1.268,1.045,1.865,2.761,1.865,5.148V58.7H74.636V46.983a5.933,5.933,0,0,0-.373-2.313,2.908,2.908,0,0,0-2.835-1.492,3.552,3.552,0,0,0-3.507,2.164,7.809,7.809,0,0,0-.522,2.91V58.7h-5V39.522h4.85v2.835a11.889,11.889,0,0,1,1.791-2.164A6.554,6.554,0,0,1,72.995,39,7.493,7.493,0,0,1,77.919,40.567Z" transform="translate(-52.328 -32.584)" fill="#222"/>
            <path id="Path_61" data-name="Path 61" d="M88.9,41.653V38.072h2.686V32.7h5v5.372h3.134v3.581H96.585V51.8c0,.821.075,1.268.3,1.492s.821.3,1.865.3h1.045v3.73l-2.388.075c-2.387.075-4.029-.3-4.85-1.268a3.631,3.631,0,0,1-.821-2.686V41.653Z" transform="translate(-59.056 -30.984)" fill="#222"/>
            <path id="Path_62" data-name="Path 62" d="M119.327,39.87a8.176,8.176,0,0,1,3.357,2.835,9.79,9.79,0,0,1,1.567,3.954,18.76,18.76,0,0,1,.149,3.805H110.373a4.494,4.494,0,0,0,2.014,4.029,5.43,5.43,0,0,0,2.761.746,4.1,4.1,0,0,0,2.761-.9A4,4,0,0,0,118.954,53H124.1a6.5,6.5,0,0,1-1.865,3.507A9.327,9.327,0,0,1,115,59.343a10.615,10.615,0,0,1-6.789-2.388c-1.94-1.567-2.91-4.178-2.91-7.685,0-3.357.9-5.894,2.686-7.685A9.218,9.218,0,0,1,114.85,38.9,10.93,10.93,0,0,1,119.327,39.87ZM111.866,44.2a4.836,4.836,0,0,0-1.343,2.984h8.655a4.192,4.192,0,0,0-1.343-3.059,4.54,4.54,0,0,0-2.984-1.045A3.775,3.775,0,0,0,111.866,44.2Z" transform="translate(-63.22 -32.558)" fill="#222"/>
            <path id="Path_63" data-name="Path 63" d="M145.444,39h.448v5.223c-.3,0-.6-.075-.821-.075h-.6c-2.014,0-3.357.671-4.1,1.94a7.856,7.856,0,0,0-.6,3.432V58.7H134.7V39.448h4.775v3.357a9.27,9.27,0,0,1,2.014-2.611A5.4,5.4,0,0,1,145.145,39Z" transform="translate(-70.685 -32.584)" fill="#222"/>
            <path id="Path_64" data-name="Path 64" d="M160.779,46.983a10.5,10.5,0,0,0,2.014-.448,1.479,1.479,0,0,0,1.119-1.418,1.721,1.721,0,0,0-.821-1.641,5.159,5.159,0,0,0-2.462-.448,3.073,3.073,0,0,0-2.537.9,3.943,3.943,0,0,0-.746,1.791H152.5a7.371,7.371,0,0,1,1.418-4.178C155.257,39.821,157.57,39,160.779,39a12.678,12.678,0,0,1,5.67,1.268q2.462,1.231,2.462,4.7V56.011a2.522,2.522,0,0,0,.3,1.343,2.031,2.031,0,0,0,.746.6V58.7h-5.447a6.216,6.216,0,0,1-.3-1.119c-.075-.373-.075-.746-.149-1.194a10.077,10.077,0,0,1-2.388,1.94,7.7,7.7,0,0,1-3.73.97,6.482,6.482,0,0,1-4.327-1.492,5.343,5.343,0,0,1-1.716-4.253,5.413,5.413,0,0,1,2.761-5.148,12.944,12.944,0,0,1,4.477-1.268Zm3.059,2.388a6.167,6.167,0,0,1-.97.522,7.929,7.929,0,0,1-1.343.373l-1.119.224a11.281,11.281,0,0,0-2.313.671,2.278,2.278,0,0,0-1.194,2.164,2.088,2.088,0,0,0,.746,1.865,2.722,2.722,0,0,0,1.791.6,5.137,5.137,0,0,0,3.059-.97,4.078,4.078,0,0,0,1.418-3.507v-1.94Z" transform="translate(-75.052 -32.584)" fill="#222"/>
            <path id="Path_65" data-name="Path 65" d="M191.609,46.386a3.659,3.659,0,0,0-.746-1.94,3.129,3.129,0,0,0-2.611-1.194,3.491,3.491,0,0,0-3.507,2.537,11.372,11.372,0,0,0-.522,3.581,8.976,8.976,0,0,0,.522,3.432,3.387,3.387,0,0,0,3.432,2.388,2.969,2.969,0,0,0,2.537-.97,4.47,4.47,0,0,0,.9-2.462h5.148a8.59,8.59,0,0,1-1.641,4.327,8.094,8.094,0,0,1-7.013,3.283c-3.134,0-5.372-.9-6.864-2.761A10.968,10.968,0,0,1,179,49.445c0-3.283.821-5.894,2.388-7.685A8.357,8.357,0,0,1,188.1,39,9.67,9.67,0,0,1,194,40.641c1.492,1.119,2.462,2.984,2.761,5.745Z" transform="translate(-81.933 -32.584)" fill="#222"/>
            <path id="Path_66" data-name="Path 66" d="M205,41.653V38.072h2.686V32.7h5v5.372h3.134v3.581h-3.134V51.8c0,.821.075,1.268.3,1.492s.821.3,1.865.3h1.045v3.73l-2.388.075c-2.387.075-4.029-.3-4.85-1.268a3.631,3.631,0,0,1-.821-2.686V41.653Z" transform="translate(-88.534 -30.984)" fill="#222"/>
            <path id="Path_67" data-name="Path 67" d="M228.973,35.026H223.9V30.4h5.073ZM223.9,37.264h5.073V56.513H223.9Z" transform="translate(-93.333 -30.4)" fill="#222"/>
            <path id="Path_68" data-name="Path 68" d="M247.928,39.6H253.3l-6.939,19.249h-5.3L234.2,39.6h5.67L243.9,53.776Z" transform="translate(-95.948 -32.736)" fill="#222"/>
            <path id="Path_69" data-name="Path 69" d="M274.827,39.87a8.176,8.176,0,0,1,3.357,2.835,9.79,9.79,0,0,1,1.567,3.954,18.761,18.761,0,0,1,.149,3.805H265.873a4.494,4.494,0,0,0,2.014,4.029,5.43,5.43,0,0,0,2.761.746,4.1,4.1,0,0,0,2.761-.9A4,4,0,0,0,274.454,53H279.6a6.5,6.5,0,0,1-1.865,3.507,9.327,9.327,0,0,1-7.237,2.835,10.615,10.615,0,0,1-6.789-2.388c-1.94-1.567-2.91-4.178-2.91-7.685,0-3.357.9-5.894,2.686-7.685A9.218,9.218,0,0,1,270.35,38.9,11.2,11.2,0,0,1,274.827,39.87ZM267.291,44.2a4.836,4.836,0,0,0-1.343,2.984H274.6a4.192,4.192,0,0,0-1.343-3.059,4.54,4.54,0,0,0-2.984-1.045A3.882,3.882,0,0,0,267.291,44.2Z" transform="translate(-102.702 -32.558)" fill="#222"/>
            <g id="Group_8" data-name="Group 8" transform="translate(0 32.306)">
              <path id="Path_70" data-name="Path 70" d="M290.749,30.7h11.191q4.589,0,6.491,2.686a6.3,6.3,0,0,1,1.119,3.73,5.663,5.663,0,0,1-1.418,4.029,6.847,6.847,0,0,1-2.089,1.492,8.5,8.5,0,0,1,2.984,1.716,6.089,6.089,0,0,1,1.716,4.7,7.322,7.322,0,0,1-1.567,4.551c-1.567,2.014-4.1,3.059-7.536,3.059H290.6V30.7Zm9.923,10.968a8.732,8.732,0,0,0,3.507-.6,3.494,3.494,0,0,0,1.94-3.507,3.334,3.334,0,0,0-2.089-3.432,10.2,10.2,0,0,0-3.507-.522h-6.342v8.058Zm1.119,11.938c2.164,0,3.73-.6,4.626-1.865a4.592,4.592,0,0,0,.9-2.835,3.88,3.88,0,0,0-2.537-3.88,9.559,9.559,0,0,0-3.581-.522h-7.013v9.1Z" transform="translate(-290.6 -30.7)" fill="#222"/>
              <path id="Path_71" data-name="Path 71" d="M322.7,39.973h2.984v3.283a6.22,6.22,0,0,1,1.791-2.313,4.8,4.8,0,0,1,3.357-1.343h.3a3.426,3.426,0,0,1,.746.075v3.357c-.224,0-.373-.075-.522-.075h-.522a4.43,4.43,0,0,0-3.656,1.567,5.276,5.276,0,0,0-1.268,3.581V59H322.7V39.973Z" transform="translate(-298.75 -32.96)" fill="#222"/>
              <path id="Path_72" data-name="Path 72" d="M351.7,41.762a9.73,9.73,0,0,1,2.537,7.163,12.062,12.062,0,0,1-2.238,7.536c-1.492,2.014-3.73,2.984-6.864,2.984a7.678,7.678,0,0,1-6.118-2.611,10.649,10.649,0,0,1-2.313-7.088,11.611,11.611,0,0,1,2.388-7.61A8,8,0,0,1,345.5,39.3,8.742,8.742,0,0,1,351.7,41.762Zm-1.94,12.609a12.279,12.279,0,0,0,1.194-5.3,10.161,10.161,0,0,0-.821-4.327,4.723,4.723,0,0,0-4.551-2.611,4.476,4.476,0,0,0-4.178,2.238,10.252,10.252,0,0,0-1.343,5.372,8.762,8.762,0,0,0,1.343,5,4.611,4.611,0,0,0,4.178,2.014A4.386,4.386,0,0,0,349.757,54.371Z" transform="translate(-302.305 -32.884)" fill="#222"/>
              <path id="Path_73" data-name="Path 73" d="M365,30.7h3.059V45.771l8.132-8.058h4.029l-7.237,7.013,7.685,11.863h-4.029l-5.969-9.625L368.059,49.5V56.59H365Z" transform="translate(-309.49 -30.7)" fill="#222"/>
              <path id="Path_74" data-name="Path 74" d="M399.333,40.508a6.174,6.174,0,0,1,2.835,2.462,9.525,9.525,0,0,1,1.268,3.357,19.045,19.045,0,0,1,.3,4.178H390.007a8.488,8.488,0,0,0,1.343,4.626,4.386,4.386,0,0,0,3.88,1.716,4.97,4.97,0,0,0,3.954-1.641,5.886,5.886,0,0,0,1.194-2.238h3.134a6.669,6.669,0,0,1-.821,2.313,7.826,7.826,0,0,1-5.148,4.029,9.31,9.31,0,0,1-2.611.3,7.957,7.957,0,0,1-5.969-2.537,9.94,9.94,0,0,1-2.462-7.163,10.773,10.773,0,0,1,2.462-7.386,8.21,8.21,0,0,1,6.416-2.835A6.676,6.676,0,0,1,399.333,40.508Zm1.119,7.386a9.075,9.075,0,0,0-.9-3.283,4.556,4.556,0,0,0-4.327-2.313,4.854,4.854,0,0,0-3.656,1.567,6.116,6.116,0,0,0-1.567,4.029Z" transform="translate(-314.949 -32.972)" fill="#222"/>
              <path id="Path_75" data-name="Path 75" d="M414.6,39.973h2.984v3.283a6.22,6.22,0,0,1,1.791-2.313,4.8,4.8,0,0,1,3.357-1.343h.3a3.426,3.426,0,0,1,.746.075v3.357c-.224,0-.373-.075-.522-.075h-.522a4.43,4.43,0,0,0-3.656,1.567,5.276,5.276,0,0,0-1.268,3.581V59H414.6Z" transform="translate(-322.084 -32.96)" fill="#222"/>
              <path id="Path_76" data-name="Path 76" d="M432.21,52.93a4.59,4.59,0,0,0,.821,2.462q1.231,1.567,4.253,1.567a6.566,6.566,0,0,0,3.208-.746,2.531,2.531,0,0,0,1.343-2.388,2.052,2.052,0,0,0-1.119-1.865,19.811,19.811,0,0,0-2.761-.9l-2.537-.671a11.8,11.8,0,0,1-3.656-1.343,3.958,3.958,0,0,1-2.089-3.581,5.5,5.5,0,0,1,1.94-4.327,7.768,7.768,0,0,1,5.3-1.641c2.91,0,5,.821,6.267,2.537a5.491,5.491,0,0,1,1.194,3.432h-2.984a3.659,3.659,0,0,0-.746-1.94,5.036,5.036,0,0,0-3.88-1.268,4.709,4.709,0,0,0-2.761.671,2.2,2.2,0,0,0-.97,1.791,2.173,2.173,0,0,0,1.268,1.94,7.337,7.337,0,0,0,2.089.746l2.164.522a16.14,16.14,0,0,1,4.7,1.641,4.186,4.186,0,0,1,1.865,3.805,5.725,5.725,0,0,1-1.94,4.327,8.449,8.449,0,0,1-5.894,1.865c-2.835,0-4.85-.671-6.043-1.94a7.476,7.476,0,0,1-1.94-4.775h2.91Z" transform="translate(-325.816 -32.934)" fill="#222"/>
            </g>
          </g>
          <g id="Group_7" data-name="Group 7" transform="translate(0 0)">
            <path id="Path_77" data-name="Path 77" d="M31.885,68.029H1.1V34.1Z" transform="translate(-1.1 1.563)" fill="url(#linear-gradient)"/>
            <circle id="Ellipse_1" data-name="Ellipse 1" cx="9.214" cy="9.214" r="9.214" transform="translate(17.236 34.796)" fill="#d81222"/>
            <path id="Path_78" data-name="Path 78" d="M31.885,1.2,1.1,36.863V70.792Z" transform="translate(-1.1 -1.2)" fill="#d81222"/>
          </g>
        </g>
      </g>
    </g>
  </g>
</svg>
