<svg width="99" height="99" viewBox="0 0 99 99" fill="none" xmlns="http://www.w3.org/2000/svg">
<g clip-path="url(#clip0_1066_64248)">
<mask id="mask0_1066_64248" style="mask-type:alpha" maskUnits="userSpaceOnUse" x="23" y="26" width="54" height="48">
<path d="M43.9585 45.1667C45.0693 45.1667 46.1691 44.9479 47.1954 44.5228C48.2216 44.0977 49.154 43.4747 49.9394 42.6893C50.7249 41.9038 51.3479 40.9714 51.773 39.9452C52.198 38.919 52.4168 37.8191 52.4168 36.7083C52.4168 35.5976 52.198 34.4977 51.773 33.4715C51.3479 32.4453 50.7249 31.5128 49.9394 30.7274C49.154 29.942 48.2216 29.3189 47.1954 28.8939C46.1691 28.4688 45.0693 28.25 43.9585 28.25C41.7152 28.25 39.5638 29.1411 37.9776 30.7274C36.3913 32.3136 35.5002 34.465 35.5002 36.7083C35.5002 38.9516 36.3913 41.103 37.9776 42.6893C39.5638 44.2755 41.7152 45.1667 43.9585 45.1667ZM25.8335 70.3V71.75H62.0835V70.3C62.0835 64.8867 62.0835 62.18 61.0298 60.1113C60.1031 58.2925 58.6243 56.8138 56.8055 55.887C54.7368 54.8333 52.0302 54.8333 46.6168 54.8333H41.3002C35.8868 54.8333 33.1802 54.8333 31.1115 55.887C29.2927 56.8138 27.8139 58.2925 26.8872 60.1113C25.8335 62.18 25.8335 64.8867 25.8335 70.3Z" fill="white" stroke="white" stroke-width="4" stroke-linecap="round" stroke-linejoin="round"/>
<path fill-rule="evenodd" clip-rule="evenodd" d="M66.917 36.7083V51.2083V36.7083ZM59.667 43.9583H74.167H59.667Z" fill="white"/>
<path d="M66.917 36.7083V51.2083M59.667 43.9583H74.167" stroke="white" stroke-width="4" stroke-linecap="round" stroke-linejoin="round"/>
</mask>
<g mask="url(#mask0_1066_64248)">
</g>
<path d="M48.9999 39.85C46.5233 39.85 44.3106 40.981 42.849 42.75C41.9471 43.843 41.3527 45.1566 41.127 46.5556C40.9014 47.9546 41.0525 49.3885 41.565 50.7097C42.0775 52.0309 42.9327 53.1917 44.0427 54.0726C45.1528 54.9535 46.4774 55.5227 47.8805 55.7217C49.7877 52.0426 53.0479 49.2471 56.9749 47.9236V47.825C56.9749 45.8965 56.2905 44.1275 55.1508 42.75C53.6892 40.981 51.4765 39.85 48.9999 39.85ZM74.1632 52.6738C72.4265 50.6413 70.2058 49.0791 67.706 48.1313C65.2063 47.1835 62.5081 46.8807 59.8604 47.2508C59.7802 45.6783 59.3576 44.1422 58.6221 42.75H70.7499C71.9036 42.75 73.01 43.2083 73.8258 44.0241C74.6416 44.8399 75.0999 45.9463 75.0999 47.1V48.55C75.0999 49.942 74.7809 51.3456 74.1632 52.6738ZM46.7002 58.7C46.3005 60.1154 46.0985 61.5793 46.0999 63.05C46.0999 68.2613 48.5968 72.8868 52.4625 75.7955C51.3198 76.0008 50.1609 76.1027 48.9999 76.1C39.8939 76.1 34.4999 70.2159 34.4999 64.5V63.05C34.4984 62.4783 34.6098 61.912 34.8279 61.3835C35.046 60.8551 35.3663 60.3749 35.7706 59.9707C36.1748 59.5664 36.655 59.2461 37.1834 59.028C37.7119 58.8099 38.2782 58.6985 38.8499 58.7H46.7002ZM32.5134 59.5236C26.3944 57.8677 22.8999 53.1523 22.8999 48.55V47.1C22.8999 45.9463 23.3582 44.8399 24.174 44.0241C24.9898 43.2083 26.0962 42.75 27.2499 42.75H39.3806C38.5538 44.3137 38.1227 46.0562 38.1249 47.825C38.123 49.3225 38.4312 50.8042 39.0301 52.1768C39.629 53.5493 40.5057 54.783 41.6049 55.8H38.8499C37.5577 55.7997 36.2889 56.1447 35.1748 56.7994C34.0608 57.454 33.1419 58.3946 32.5134 59.5236ZM37.3999 23.9C39.515 23.9 41.5435 24.7402 43.0391 26.2358C44.5347 27.7314 45.3749 29.7599 45.3749 31.875C45.3749 33.9901 44.5347 36.0186 43.0391 37.5142C41.5435 39.0098 39.515 39.85 37.3999 39.85C35.2848 39.85 33.2563 39.0098 31.7607 37.5142C30.2651 36.0186 29.4249 33.9901 29.4249 31.875C29.4249 29.7599 30.2651 27.7314 31.7607 26.2358C33.2563 24.7402 35.2848 23.9 37.3999 23.9ZM60.5999 23.9C62.715 23.9 64.7435 24.7402 66.2391 26.2358C67.7347 27.7314 68.5749 29.7599 68.5749 31.875C68.5749 33.9901 67.7347 36.0186 66.2391 37.5142C64.7435 39.0098 62.715 39.85 60.5999 39.85C58.4848 39.85 56.4563 39.0098 54.9607 37.5142C53.4651 36.0186 52.6249 33.9901 52.6249 31.875C52.6249 29.7599 53.4651 27.7314 54.9607 26.2358C56.4563 24.7402 58.4848 23.9 60.5999 23.9ZM62.0499 76.1C65.511 76.1 68.8303 74.7251 71.2776 72.2777C73.725 69.8304 75.0999 66.5111 75.0999 63.05C75.0999 59.5889 73.725 56.2696 71.2776 53.8223C68.8303 51.3749 65.511 50 62.0499 50C58.5888 50 55.2695 51.3749 52.8222 53.8223C50.3748 56.2696 48.9999 59.5889 48.9999 63.05C48.9999 66.5111 50.3748 69.8304 52.8222 72.2777C55.2695 74.7251 58.5888 76.1 62.0499 76.1ZM62.0499 55.8C62.4345 55.8 62.8033 55.9528 63.0752 56.2247C63.3471 56.4966 63.4999 56.8654 63.4999 57.25V61.6H67.8499C68.2345 61.6 68.6033 61.7528 68.8752 62.0247C69.1471 62.2966 69.2999 62.6654 69.2999 63.05C69.2999 63.4346 69.1471 63.8034 68.8752 64.0753C68.6033 64.3472 68.2345 64.5 67.8499 64.5H63.4999V68.85C63.4999 69.2346 63.3471 69.6034 63.0752 69.8753C62.8033 70.1472 62.4345 70.3 62.0499 70.3C61.6653 70.3 61.2965 70.1472 61.0246 69.8753C60.7527 69.6034 60.5999 69.2346 60.5999 68.85V64.5H56.2499C55.8653 64.5 55.4965 64.3472 55.2246 64.0753C54.9527 63.8034 54.7999 63.4346 54.7999 63.05C54.7999 62.6654 54.9527 62.2966 55.2246 62.0247C55.4965 61.7528 55.8653 61.6 56.2499 61.6H60.5999V57.25C60.5999 56.8654 60.7527 56.4966 61.0246 56.2247C61.2965 55.9528 61.6653 55.8 62.0499 55.8Z" fill="#703372"/>
</g>
<circle cx="49.5" cy="49.5" r="47.5" stroke="#703372" stroke-width="4"/>
<defs>
<clipPath id="clip0_1066_64248">
<rect width="58" height="58" fill="white" transform="translate(21 21)"/>
</clipPath>
</defs>
</svg>
