<svg width="14" height="14" viewBox="0 0 14 14" fill="none" xmlns="http://www.w3.org/2000/svg">
<path d="M7.79961 1.4001C7.79961 1.18792 7.71532 0.984441 7.56529 0.834412C7.41526 0.684383 7.21178 0.600098 6.99961 0.600098C6.78744 0.600098 6.58395 0.684383 6.43392 0.834412C6.28389 0.984441 6.19961 1.18792 6.19961 1.4001V2.2001C6.19961 2.41227 6.28389 2.61575 6.43392 2.76578C6.58395 2.91581 6.78744 3.0001 6.99961 3.0001C7.21178 3.0001 7.41526 2.91581 7.56529 2.76578C7.71532 2.61575 7.79961 2.41227 7.79961 2.2001V1.4001ZM11.5252 3.6057C11.6709 3.45482 11.7516 3.25273 11.7497 3.04298C11.7479 2.83322 11.6638 2.63257 11.5155 2.48424C11.3671 2.33592 11.1665 2.25178 10.9567 2.24996C10.747 2.24814 10.5449 2.32877 10.394 2.4745L9.82841 3.0401C9.68268 3.19098 9.60205 3.39306 9.60387 3.60282C9.60569 3.81258 9.68983 4.01323 9.83815 4.16155C9.98648 4.30988 10.1871 4.39401 10.3969 4.39584C10.6066 4.39766 10.8087 4.31702 10.9596 4.1713L11.5252 3.6057ZM13.3996 7.0001C13.3996 7.21227 13.3153 7.41575 13.1653 7.56578C13.0153 7.71581 12.8118 7.8001 12.5996 7.8001H11.7996C11.5874 7.8001 11.384 7.71581 11.2339 7.56578C11.0839 7.41575 10.9996 7.21227 10.9996 7.0001C10.9996 6.78792 11.0839 6.58444 11.2339 6.43441C11.384 6.28438 11.5874 6.2001 11.7996 6.2001H12.5996C12.8118 6.2001 13.0153 6.28438 13.1653 6.43441C13.3153 6.58444 13.3996 6.78792 13.3996 7.0001ZM3.03961 4.1713C3.11341 4.24771 3.20168 4.30865 3.29929 4.35058C3.39689 4.39251 3.50186 4.41457 3.60809 4.4155C3.71431 4.41642 3.81965 4.39618 3.91797 4.35595C4.01629 4.31573 4.10561 4.25633 4.18073 4.18121C4.25584 4.1061 4.31524 4.01678 4.35547 3.91846C4.39569 3.82014 4.41593 3.7148 4.41501 3.60858C4.41409 3.50235 4.39202 3.39738 4.35009 3.29977C4.30816 3.20217 4.24722 3.11389 4.17081 3.0401L3.60521 2.4745C3.45433 2.32877 3.25225 2.24814 3.04249 2.24996C2.83273 2.25178 2.63208 2.33592 2.48375 2.48424C2.33543 2.63257 2.25129 2.83322 2.24947 3.04298C2.24765 3.25273 2.32828 3.45482 2.47401 3.6057L3.03961 4.1713ZM2.99961 7.0001C2.99961 7.21227 2.91532 7.41575 2.76529 7.56578C2.61527 7.71581 2.41178 7.8001 2.19961 7.8001H1.39961C1.18744 7.8001 0.983953 7.71581 0.833924 7.56578C0.683895 7.41575 0.599609 7.21227 0.599609 7.0001C0.599609 6.78792 0.683895 6.58444 0.833924 6.43441C0.983953 6.28438 1.18744 6.2001 1.39961 6.2001H2.19961C2.41178 6.2001 2.61527 6.28438 2.76529 6.43441C2.91532 6.58444 2.99961 6.78792 2.99961 7.0001ZM5.39961 11.8001V11.0001H8.59961V11.8001C8.59961 12.2244 8.43104 12.6314 8.13098 12.9315C7.83092 13.2315 7.42395 13.4001 6.99961 13.4001C6.57526 13.4001 6.1683 13.2315 5.86824 12.9315C5.56818 12.6314 5.39961 12.2244 5.39961 11.8001ZM8.59961 10.2001C8.61161 9.9281 8.76601 9.6833 8.98121 9.5129C9.50335 9.1011 9.88424 8.53687 10.0709 7.89862C10.2576 7.26038 10.2408 6.57982 10.0229 5.95156C9.80495 5.3233 9.3967 4.77853 8.85489 4.39299C8.31307 4.00745 7.6646 3.80028 6.99961 3.80028C6.33462 3.80028 5.68615 4.00745 5.14433 4.39299C4.60251 4.77853 4.19427 5.3233 3.97633 5.95156C3.7584 6.57982 3.74161 7.26038 3.92829 7.89862C4.11498 8.53687 4.49586 9.1011 5.01801 9.5129C5.23401 9.6833 5.38761 9.9281 5.39881 10.2001H8.60041H8.59961Z" fill="#FBD62E"/>
</svg>
