<svg xmlns="http://www.w3.org/2000/svg" xmlns:xlink="http://www.w3.org/1999/xlink" width="366.036" height="357.801" viewBox="0 0 366.036 357.801">
  <defs>
    <filter id="Path" x="31.882" y="0" width="319.36" height="357.801" filterUnits="userSpaceOnUse">
      <feOffset dy="1" input="SourceAlpha"/>
      <feGaussianBlur stdDeviation="4.5" result="blur"/>
      <feFlood flood-opacity="0.078"/>
      <feComposite operator="in" in2="blur"/>
      <feComposite in="SourceGraphic"/>
    </filter>
    <filter id="Path-2" x="0" y="117.98" width="228.295" height="157.795" filterUnits="userSpaceOnUse">
      <feOffset dy="5" input="SourceAlpha"/>
      <feGaussianBlur stdDeviation="4" result="blur-2"/>
      <feFlood flood-color="#703372" flood-opacity="0.22"/>
      <feComposite operator="in" in2="blur-2"/>
      <feComposite in="SourceGraphic"/>
    </filter>
  </defs>
  <g id="Group_123" data-name="Group 123" transform="translate(-71.614 -439.101)">
    <g transform="matrix(1, 0, 0, 1, 71.61, 439.1)" filter="url(#Path)">
      <path id="Path-3" data-name="Path" d="M288.743,259.981,110.429,330.414a5.977,5.977,0,0,1-7.46-2.917L.378,78.153A5.793,5.793,0,0,1,3.36,70.844L181.682.368a6.018,6.018,0,0,1,7.46,2.917l102.586,249a5.426,5.426,0,0,1,.259,4.5,5.6,5.6,0,0,1-3.244,3.2Z" transform="translate(45.39 12.5)" fill="#d2c5d3"/>
    </g>
    <g id="_16" data-name="16" transform="translate(87.37 438.289)">
      <path id="Path-4" data-name="Path" d="M4,8.028A3.97,3.97,0,0,0,7.99,4.014,3.97,3.97,0,0,0,4,0,3.97,3.97,0,0,0,0,4.014,3.97,3.97,0,0,0,4,8.028Z" transform="translate(303.563 21.008)" fill="#703372"/>
      <path id="Path-5" data-name="Path" d="M5.644,11.34a5.585,5.585,0,0,0,5.644-5.671A5.584,5.584,0,0,0,5.644,0,5.585,5.585,0,0,0,0,5.668,5.585,5.585,0,0,0,5.644,11.34Z" transform="translate(50.56 17.696)" fill="#703372"/>
      <path id="Path-6" data-name="Path" d="M23.985,9.212H4.585A4.679,4.679,0,0,1,0,4.606,4.679,4.679,0,0,1,4.585,0h19.4a4.679,4.679,0,0,1,4.585,4.606A4.679,4.679,0,0,1,23.985,9.212Z" transform="translate(146.383 125.793)" fill="#4988fd"/>
      <path id="Path-7" data-name="Path" d="M25.4,9.212H4.585A4.679,4.679,0,0,1,0,4.606,4.679,4.679,0,0,1,4.585,0H25.4a4.679,4.679,0,0,1,4.585,4.606A4.679,4.679,0,0,1,25.4,9.212Z" transform="translate(146.383 170.086)" fill="#4988fd"/>
      <g id="Group_122" data-name="Group 122" transform="matrix(0.985, 0.174, -0.174, 0.985, 40.963, -20.242)">
        <path id="Path-8" data-name="Path" d="M206.464,9.793V269.857a4.822,4.822,0,0,1-8.31,3.533l-5.432-5.139a5,5,0,0,0-7.032,0l-10.227,9.955a5,5,0,0,1-7.03,0l-10.227-9.955a5,5,0,0,0-7.032,0l-10.227,9.955a5,5,0,0,1-7.032,0l-10.227-9.955a5,5,0,0,0-7.031,0l-9.908,9.955a5,5,0,0,1-7.031,0l-10.227-9.955a5,5,0,0,0-7.031,0l-10.227,9.955a5,5,0,0,1-7.032,0l-10.227-9.955a5,5,0,0,0-7.031,0l-10.227,9.955a5,5,0,0,1-7.031,0L17.259,264.721l-.959.963-7.99,7.707A4.822,4.822,0,0,1,0,269.857V9.793A4.821,4.821,0,0,1,8.31,6.262L13.743,11.4a5,5,0,0,0,7.032,0L31,1.446a5,5,0,0,1,7.031,0L48.26,11.4a5,5,0,0,0,7.031,0L65.519,1.446a5,5,0,0,1,7.031,0L82.778,11.4a5,5,0,0,0,7.031,0l10.227-9.952a5,5,0,0,1,7.031,0l9.908,9.952a5,5,0,0,0,7.031,0l10.227-9.952a5,5,0,0,1,7.032,0L151.493,11.4a5,5,0,0,0,7.03,0L168.75,1.446a5,5,0,0,1,7.032,0L186.01,11.4a5,5,0,0,0,7.032,0l5.432-5.136C201.352,3.051,206.464,5.3,206.464,9.793Z" transform="translate(110.404 15.768)" fill="#f5f5f5"/>
        <path id="Path-9" data-name="Path" d="M26.527,8.349H4.155A4.242,4.242,0,0,1,0,4.173,4.241,4.241,0,0,1,4.155,0H26.527a4.241,4.241,0,0,1,4.155,4.173A4.242,4.242,0,0,1,26.527,8.349Z" transform="translate(251.671 75.647)" fill="#e0e0e0"/>
        <path id="Path-10" data-name="Path" d="M92.367,8.349H4.155A4.242,4.242,0,0,1,0,4.173,4.241,4.241,0,0,1,4.155,0H92.367a4.243,4.243,0,0,1,4.155,4.173A4.244,4.244,0,0,1,92.367,8.349Z" transform="translate(143.004 75.647)" fill="#e0e0e0"/>
        <path id="Path-11" data-name="Path" d="M42.509,8.347H4.155A4.239,4.239,0,0,1,0,4.173,4.239,4.239,0,0,1,4.155,0H42.509a4.239,4.239,0,0,1,4.155,4.173A4.239,4.239,0,0,1,42.509,8.347Z" transform="translate(235.688 115.461)" fill="#e0e0e0"/>
        <path id="Path-12" data-name="Path" d="M43.466,8.347H4.155A4.24,4.24,0,0,1,0,4.173,4.24,4.24,0,0,1,4.155,0H43.786a4.24,4.24,0,0,1,4.155,4.173A4.531,4.531,0,0,1,43.466,8.347Z" transform="translate(175.923 115.461)" fill="#e0e0e0"/>
        <path id="Path-13" data-name="Path" d="M34.517,8.347H4.155A4.239,4.239,0,0,1,0,4.173,4.239,4.239,0,0,1,4.155,0H34.517a4.24,4.24,0,0,1,4.155,4.173A4.24,4.24,0,0,1,34.517,8.347Z" transform="translate(178.161 155.594)" fill="#e0e0e0"/>
        <path id="Path-14" data-name="Path" d="M69.674,8.349H4.155A4.242,4.242,0,0,1,0,4.173,4.241,4.241,0,0,1,4.155,0H69.674a4.241,4.241,0,0,1,4.155,4.173A4.242,4.242,0,0,1,69.674,8.349Z" transform="translate(143.004 195.406)" fill="#e0e0e0"/>
        <path id="Path-15" data-name="Path" d="M69.594,0H4.075c-5.433,0-5.433,8.027,0,8.027H69.594a4.24,4.24,0,0,0,4.155-4.173A3.971,3.971,0,0,0,69.594,0Z" transform="translate(143.084 235.539)" fill="#e0e0e0"/>
        <path id="Path-16" data-name="Path" d="M22.369,99.212a5.743,5.743,0,0,1-5.752-5.781v-6.1a41.386,41.386,0,0,1-13.1-3.211,6.221,6.221,0,0,1-3.2-7.707,6.147,6.147,0,0,1,5.755-4.173,7.448,7.448,0,0,1,2.555.643,27.016,27.016,0,0,0,11.827,2.568c7.03,0,11.825-3.853,11.825-9.312,0-5.136-3.515-8.347-11.825-11.877C9.9,50.089.314,44.63.314,32.43c0-9.955,6.712-17.982,17.26-20.23V5.779a5.754,5.754,0,1,1,11.507,0V11.56a34.106,34.106,0,0,1,10.227,2.245A6.047,6.047,0,0,1,42.5,21.512a6.31,6.31,0,0,1-5.752,3.853,4.7,4.7,0,0,1-2.237-.323,25.975,25.975,0,0,0-9.907-1.925c-7.672,0-10.227,4.173-10.227,8.027,0,4.5,2.875,7.064,13.1,11.237C40.905,47.841,46.658,54.9,46.658,65.5s-7.35,18.942-18.217,21.19V93.43A6.247,6.247,0,0,1,22.369,99.212Z" transform="translate(243.684 148.851)" fill="#cecdcd"/>
      </g>
      <g id="Group_124" data-name="Group 124" transform="translate(-3.756 13.821)">
        <g transform="matrix(1, 0, 0, 1, -12, -13.01)" filter="url(#Path-2)">
          <path id="Path-17" data-name="Path" d="M204.295,12.1V121.7A11.911,11.911,0,0,1,192.255,133.8H12.04A11.911,11.911,0,0,1,0,121.7V12.1A11.914,11.914,0,0,1,12.04,0H192.255A12.151,12.151,0,0,1,204.295,12.1Z" transform="translate(12 124.98)" fill="#b799b8"/>
        </g>
        <path id="Path-18" data-name="Path" d="M32.356,9.069H4.515A4.585,4.585,0,0,1,0,4.536,4.585,4.585,0,0,1,4.515,0H32.356a4.585,4.585,0,0,1,4.515,4.536C36.495,7.179,34.614,9.069,32.356,9.069Z" transform="translate(16.554 178.871)" fill="#703372"/>
        <path id="Path-19" data-name="Path" d="M32.356,9.069H4.515A4.584,4.584,0,0,1,0,4.536,4.585,4.585,0,0,1,4.515,0H32.356a4.585,4.585,0,0,1,4.515,4.536C36.494,7.179,34.613,9.069,32.356,9.069Z" transform="translate(61.702 178.871)" fill="#703372"/>
        <path id="Path-20" data-name="Path" d="M32.356,9.069H4.515A4.585,4.585,0,0,1,0,4.536,4.585,4.585,0,0,1,4.515,0H32.356a4.585,4.585,0,0,1,4.515,4.536C36.494,7.179,34.613,9.069,32.356,9.069Z" transform="translate(106.85 178.871)" fill="#703372"/>
        <path id="Path-21" data-name="Path" d="M56.059,9.069H4.515A4.585,4.585,0,0,1,0,4.536,4.585,4.585,0,0,1,4.515,0H55.683A4.585,4.585,0,0,1,60.2,4.536,4.281,4.281,0,0,1,56.059,9.069Z" transform="translate(128.296 212.888)" fill="#703372"/>
        <path id="Path-22" data-name="Path" d="M32.356,9.069H4.515A4.585,4.585,0,0,1,0,4.536,4.585,4.585,0,0,1,4.515,0H32.356a4.585,4.585,0,0,1,4.515,4.536C36.495,7.179,34.614,9.069,32.356,9.069Z" transform="translate(151.998 178.871)" fill="#703372"/>
        <path id="Path-23" data-name="Path" d="M12.04,24.191A12.1,12.1,0,1,0,0,12.1,12.069,12.069,0,0,0,12.04,24.191Z" transform="translate(33.861 205.705)" fill="#3f2440"/>
        <path id="Path-24" data-name="Path" d="M12.039,24.191A12.1,12.1,0,1,0,0,12.1,12.069,12.069,0,0,0,12.039,24.191Z" transform="translate(17.683 205.705)" fill="#703372"/>
        <path id="Path-25" data-name="Path" d="M204.295,0H0V25.7H204.295Z" transform="translate(0 134.273)" fill="#3f2440"/>
      </g>
      <path id="Path-26" data-name="Path" d="M10.625,21.279A10.632,10.632,0,1,0,3.1,18.155a10.64,10.64,0,0,0,7.521,3.124Z" transform="translate(26.507 49.135)" fill="#e6e6e6"/>
    </g>
    <path id="Path-27" data-name="Path" d="M6.97,13.939A6.97,6.97,0,1,0,0,6.97a6.97,6.97,0,0,0,6.97,6.969Z" transform="translate(147.372 742.619)" fill="#e6e6e6"/>
  </g>
</svg>
