<svg xmlns="http://www.w3.org/2000/svg" width="604.724" height="328.783" viewBox="0 0 604.724 328.783">
  <g id="Group_168" data-name="Group 168" transform="translate(-85 8.877)">
    <g id="Group_163" data-name="Group 163" transform="translate(-30.993 -88.753)">
      <path id="Path_123" data-name="Path 123" d="M231.85,206.569A90.491,90.491,0,0,1,249.3,220.354a44.2,44.2,0,1,0-57.93-23.315C205.225,195.144,219.32,198.934,231.85,206.569Z" fill="#fff" opacity="0.35"/>
      <path id="Path_124" data-name="Path 124" d="M248.945,144.084a19.295,19.295,0,1,0-19.3-19.3,19.295,19.295,0,0,0,19.3,19.3Z" fill="#fff" opacity="0.35"/>
      <path id="Path_125" data-name="Path 125" d="M178.571,123.075a22.451,22.451,0,1,0-29.333-12.15,22.451,22.451,0,0,0,29.333,12.15Z" fill="#fdfdfd"/>
      <path id="Path_126" data-name="Path 126" d="M169.975,119.159a16.825,16.825,0,1,0-16.825-16.825A16.825,16.825,0,0,0,169.975,119.159Z" fill="#fff" opacity="0.35"/>
      <path id="Path_127" data-name="Path 127" d="M182.245,204.5c.445-.22.88-.45,1.335-.655a42.182,42.182,0,0,1,52.235,15.115l.435.665c.415.645.915,1.315,1.295,1.98l13.66,20.875,24.61,37.61a84.327,84.327,0,1,0-154.04-6.915c11.29,28.94,38.91,50.41,69.855,53.84,29.055,3.22,58.28-9.765,76.1-32.8l-.3-.44L241.14,254.86a42.2,42.2,0,1,1-58.9-50.361Z" fill="#fff"/>
      <path id="Path_128" data-name="Path 128" d="M200.36,197.039a40.45,40.45,0,0,0-16.49,3.5,53.287,53.287,0,0,0,56.28,28.71,40.747,40.747,0,0,0-39.79-32.215Z" fill="#e92c79"/>
      <path id="Path_129" data-name="Path 129" d="M275.665,206.574a53.329,53.329,0,0,0-6.3-67.515A26.472,26.472,0,0,1,221.6,124.244a53.4,53.4,0,0,0-40.225,34.225,81.411,81.411,0,0,1,94.285,48.105Z" fill="#e92c79"/>
      <path id="Path_130" data-name="Path 130" d="M183.865,200.544a40.651,40.651,0,0,1,56.28,28.715,53.336,53.336,0,0,0,35.52-22.685,81.417,81.417,0,0,0-94.29-48.105,53.343,53.343,0,0,0,2.49,42.075Z" fill="#e92c79"/>
      <path id="Path_131" data-name="Path 131" d="M269.37,139.059a26.5,26.5,0,1,0-47.8-15.755c0,.315.035.625.045.935a53.277,53.277,0,0,1,47.76,14.82Z" fill="#e92c79"/>
      <path id="Path_132" data-name="Path 132" d="M248.075,142.059A18.755,18.755,0,1,0,229.32,123.3a18.755,18.755,0,0,0,18.755,18.756Z" fill="#fff" opacity="0.35"/>
      <path id="Path_133" data-name="Path 133" d="M231.62,219.609a42.975,42.975,0,1,0-42.975-42.975,42.975,42.975,0,0,0,42.975,42.975Z" fill="#fff" opacity="0.35"/>
      <path id="Path_134" data-name="Path 134" d="M248.075,149.819a26.45,26.45,0,0,0,21.293-10.763A53.287,53.287,0,0,0,221.6,124.234,26.5,26.5,0,0,0,248.075,149.819Z" fill="#e92c79"/>
    </g>
    <path id="Path_153" data-name="Path 153" d="M20.143,257.931a31.122,31.122,0,0,1-7.355-.773,11.48,11.48,0,0,1-5.309-2.981,14.036,14.036,0,0,1-3.152-6.292,54.54,54.54,0,0,1,0-21.308,14.481,14.481,0,0,1,3.207-6.348,10.911,10.911,0,0,1,5.254-3.036,29.129,29.129,0,0,1,7.355-.828,29.127,29.127,0,0,1,7.355.828,10.911,10.911,0,0,1,5.254,3.036,14.07,14.07,0,0,1,3.152,6.348,44.069,44.069,0,0,1,1.051,10.654A44.069,44.069,0,0,1,35.9,247.885a14.036,14.036,0,0,1-3.152,6.292,11.117,11.117,0,0,1-5.254,2.981A31.121,31.121,0,0,1,20.143,257.931Zm0-7.342a13.308,13.308,0,0,0,4.148-.552,4.932,4.932,0,0,0,2.6-1.932,10.054,10.054,0,0,0,1.438-4.029,43.018,43.018,0,0,0,.442-6.845,44.808,44.808,0,0,0-.442-7.066,9.647,9.647,0,0,0-1.438-4.029,4.582,4.582,0,0,0-2.6-1.932,14.7,14.7,0,0,0-4.148-.5,14.229,14.229,0,0,0-4.037.5,5.094,5.094,0,0,0-2.71,1.932,10.144,10.144,0,0,0-1.493,4.029,44.808,44.808,0,0,0-.442,7.066,49.057,49.057,0,0,0,.387,6.845,10.052,10.052,0,0,0,1.438,4.029,5.217,5.217,0,0,0,2.655,1.932A13.852,13.852,0,0,0,20.143,250.589ZM79.6,257.876a34.069,34.069,0,0,1-6.3-.552,14.91,14.91,0,0,1-5.143-2.043,10,10,0,0,1-3.373-4.084,16.868,16.868,0,0,1-1.161-6.735v-27.71h8.185v27.655a6.382,6.382,0,0,0,.885,3.588,5.33,5.33,0,0,0,2.654,1.932,13.18,13.18,0,0,0,4.258.607,12.478,12.478,0,0,0,4.148-.607,5.026,5.026,0,0,0,2.654-1.932,6.091,6.091,0,0,0,.94-3.588V216.752h8.24v27.71a16.189,16.189,0,0,1-1.217,6.735A10,10,0,0,1,91,255.281a14.333,14.333,0,0,1-5.088,2.043A33.5,33.5,0,0,1,79.6,257.876Zm52.234-.276V224.093H120.612v-7.341H151.3v7.341H140.023V257.6Zm54.743,0a13.713,13.713,0,0,1-5.364-.939,6.816,6.816,0,0,1-3.263-3.091,12.9,12.9,0,0,1-1.05-5.63V216.752h8.184v29.863a4.559,4.559,0,0,0,.443,2.153,2.7,2.7,0,0,0,1.327,1.159,5.943,5.943,0,0,0,1.88.276h12.941v7.4Zm41.1,0V216.752h8.185V257.6Zm46.418.276a19.389,19.389,0,0,1-3.042-.276,9.3,9.3,0,0,1-3.318-1.1,7.191,7.191,0,0,1-2.6-2.65,10.423,10.423,0,0,1-.995-4.968v-22.8a10.918,10.918,0,0,1,.829-4.527,7.327,7.327,0,0,1,2.212-2.87,8.7,8.7,0,0,1,3.042-1.491,12.669,12.669,0,0,1,3.263-.441q4.147,0,7.3.11,3.207.111,5.751.276,2.544.111,4.645.331v6.845H275.922a3.883,3.883,0,0,0-2.654.828,3.209,3.209,0,0,0-.941,2.539v5.907l16.2.441v6.459l-16.2.441v5.631a4.837,4.837,0,0,0,.443,2.263,2.823,2.823,0,0,0,1.272,1.1,5.392,5.392,0,0,0,1.714.276h15.429v6.845q-2.433.276-5.419.441-2.931.166-5.973.276Q276.807,257.876,274.1,257.876Zm44.223-.276V216.752h16.922a16.265,16.265,0,0,1,4.535.607,8.843,8.843,0,0,1,3.7,1.987,9.313,9.313,0,0,1,2.489,3.975,19.024,19.024,0,0,1,.94,6.513,18.1,18.1,0,0,1-.553,4.8,9.9,9.9,0,0,1-1.493,3.256,7.7,7.7,0,0,1-2.046,2.043,13.5,13.5,0,0,1-2.378,1.269l7.631,16.4h-8.35l-6.581-15.125h-1.548q-.829-.056-1.715-.055h-1.769q-.885,0-1.6-.055V257.6Zm8.185-21.694h7.3a6.678,6.678,0,0,0,1.991-.276,3.745,3.745,0,0,0,1.548-.938,4.567,4.567,0,0,0,.995-1.877,9.592,9.592,0,0,0,.387-2.981,8.639,8.639,0,0,0-.387-2.815,3.713,3.713,0,0,0-.995-1.766,3.289,3.289,0,0,0-1.548-.884,6.677,6.677,0,0,0-1.991-.276h-7.3Zm60,22.025q-1.6,0-3.318-.11-1.659-.056-3.429-.221-1.714-.221-3.263-.442-1.548-.276-2.82-.607v-6.458q1.659.165,3.76.276t4.369.165q2.268.056,4.314.055a16.816,16.816,0,0,0,3.594-.331,4.747,4.747,0,0,0,2.378-1.269,3.7,3.7,0,0,0,.83-2.54v-1.49a3.42,3.42,0,0,0-1.106-2.76,4.267,4.267,0,0,0-3.042-.994h-3.484q-5.862,0-9.014-2.539-3.1-2.594-3.1-8.777V227.9q0-5.961,3.429-8.721t9.788-2.76q2.268,0,4.48.22,2.267.222,4.313.552,2.1.276,3.6.608v6.458q-2.544-.165-5.7-.331-3.1-.166-5.752-.166a13.468,13.468,0,0,0-3.373.387,3.758,3.758,0,0,0-2.212,1.324,4.493,4.493,0,0,0-.774,2.816v1.1a3.664,3.664,0,0,0,1.216,3.091,5.823,5.823,0,0,0,3.6.938h4.037a12,12,0,0,1,6.083,1.38,8.3,8.3,0,0,1,3.6,3.7,11.688,11.688,0,0,1,1.216,5.409v2.319q0,4.8-1.825,7.341a8.9,8.9,0,0,1-4.977,3.478A27.62,27.62,0,0,1,386.5,257.931Zm84.039-.331-9.788-40.848h8.461l6.581,28.814,7.687-28.814h7.521l7.631,28.814,6.581-28.814h8.461L503.89,257.6h-8.351l-8.3-28.815-8.35,28.815Zm68.806,0V216.752h8.185V257.6Zm36.742,0V216.752h6.581l17.143,26.937V216.752H608V257.6h-6.581l-17.088-26.938V257.6Z" transform="translate(81.724 61.975)" fill="#fff"/>
  </g>
</svg>
