<svg width="30" height="30" viewBox="0 0 30 30" fill="none" xmlns="http://www.w3.org/2000/svg">
<path d="M11.1071 6C10.8502 5.73856 10.5306 5.54727 10.1788 5.44436C9.82698 5.34145 9.45468 5.33034 9.09736 5.41211C8.73679 5.4918 8.40226 5.66147 8.12495 5.90531C7.84765 6.14916 7.63658 6.45923 7.51142 6.80664L0.142279 27.0547C0.027361 27.3842 -0.00754848 27.7364 0.0404309 28.0821C0.0884102 28.4278 0.217903 28.7571 0.418225 29.0429C0.618546 29.3287 0.883955 29.5627 1.19255 29.7258C1.50114 29.8888 1.84408 29.9761 2.19306 29.9805C2.44875 29.9809 2.70278 29.9393 2.94501 29.8574L23.1931 22.4883C23.5405 22.3631 23.8505 22.1521 24.0944 21.8747C24.3382 21.5974 24.5079 21.2629 24.5876 20.9023C24.6694 20.545 24.6583 20.1727 24.5553 19.8209C24.4524 19.4691 24.2611 19.1495 23.9997 18.8926L11.1071 6ZM4.72236 20.8477L7.34736 13.6289L16.3708 22.6523L9.15204 25.2773L4.72236 20.8477ZM17.8747 8.84375C17.8948 8.10404 18.0719 7.37704 18.3942 6.71094C19.1188 5.26172 20.486 4.46875 22.2497 4.46875C23.1657 4.46875 23.7536 4.1543 24.1227 3.48438C24.3109 3.10502 24.418 2.69061 24.4372 2.26758C24.4372 2.12458 24.4656 1.98301 24.5207 1.85107C24.5758 1.71913 24.6566 1.59945 24.7584 1.49897C24.8601 1.3985 24.9808 1.31923 25.1134 1.26576C25.246 1.21229 25.388 1.18569 25.5309 1.1875C25.821 1.1875 26.0992 1.30273 26.3043 1.50785C26.5095 1.71297 26.6247 1.99117 26.6247 2.28125C26.6247 4.04492 25.4626 6.65625 22.2497 6.65625C21.3337 6.65625 20.7458 6.9707 20.3767 7.64062C20.1885 8.01998 20.0814 8.43439 20.0622 8.85742C20.0622 9.00042 20.0338 9.14199 19.9787 9.27393C19.9236 9.40587 19.8428 9.52555 19.741 9.62603C19.6393 9.7265 19.5186 9.80577 19.386 9.85924C19.2534 9.91271 19.1114 9.93931 18.9684 9.9375C18.6784 9.9375 18.4002 9.82227 18.195 9.61715C17.9899 9.41203 17.8747 9.13383 17.8747 8.84375ZM14.5934 4.46875V1.1875C14.5934 0.897419 14.7087 0.61922 14.9138 0.414102C15.1189 0.208984 15.3971 0.09375 15.6872 0.09375C15.9773 0.09375 16.2555 0.208984 16.4606 0.414102C16.6657 0.61922 16.781 0.897419 16.781 1.1875V4.46875C16.781 4.75883 16.6657 5.03703 16.4606 5.24215C16.2555 5.44727 15.9773 5.5625 15.6872 5.5625C15.3971 5.5625 15.1189 5.44727 14.9138 5.24215C14.7087 5.03703 14.5934 4.75883 14.5934 4.46875ZM28.4977 15.7207C28.7031 15.9281 28.8183 16.2081 28.8183 16.5C28.8183 16.7919 28.7031 17.0719 28.4977 17.2793C28.2887 17.4814 28.0093 17.5944 27.7184 17.5944C27.4276 17.5944 27.1482 17.4814 26.9392 17.2793L24.7517 15.0918C24.5772 14.8793 24.4881 14.6095 24.5016 14.3349C24.5151 14.0603 24.6302 13.8006 24.8246 13.6062C25.019 13.4118 25.2788 13.2966 25.5534 13.2831C25.8279 13.2697 26.0977 13.3588 26.3102 13.5332L28.4977 15.7207ZM29.154 9.88281L25.8727 10.9766C25.7629 11.0146 25.6472 11.0331 25.5309 11.0312C25.2708 11.0313 25.0192 10.9387 24.8212 10.7699C24.6232 10.6012 24.4919 10.3674 24.4507 10.1106C24.4095 9.85372 24.4613 9.59061 24.5966 9.36846C24.7319 9.14631 24.942 8.97966 25.1891 8.89844L28.4704 7.80469C28.6069 7.7598 28.7508 7.74223 28.8941 7.75298C29.0373 7.76373 29.177 7.80259 29.3052 7.86734C29.4335 7.93208 29.5477 8.02145 29.6414 8.13034C29.7351 8.23923 29.8064 8.3655 29.8513 8.50195C29.8961 8.6384 29.9137 8.78236 29.903 8.9256C29.8922 9.06884 29.8534 9.20857 29.7886 9.33679C29.7239 9.46502 29.6345 9.57923 29.5256 9.67292C29.4167 9.7666 29.2904 9.83793 29.154 9.88281Z" fill="#703372"/>
</svg>
