<svg width="33" height="27" viewBox="0 0 33 27" fill="none" xmlns="http://www.w3.org/2000/svg">
<path d="M30.0018 22.7755C33.0682 19.4475 32.7594 15.1737 32.7497 15.125V2.125C32.7497 1.69402 32.5785 1.2807 32.2737 0.975952C31.969 0.671205 31.5556 0.5 31.1247 0.5H21.3747C19.5823 0.5 18.1247 1.95762 18.1247 3.75V15.125C18.1247 15.556 18.2959 15.9693 18.6006 16.274C18.9054 16.5788 19.3187 16.75 19.7497 16.75H24.7514C24.7171 17.5534 24.477 18.3345 24.0543 19.0185C23.2288 20.3201 21.6737 21.209 19.4295 21.6575L18.1247 21.9175V26.5H19.7497C24.272 26.5 27.7219 25.2471 30.0018 22.7755ZM12.1154 22.7755C15.1834 19.4475 14.873 15.1737 14.8633 15.125V2.125C14.8633 1.69402 14.6921 1.2807 14.3873 0.975952C14.0826 0.671205 13.6693 0.5 13.2383 0.5H3.48828C1.69591 0.5 0.238281 1.95762 0.238281 3.75V15.125C0.238281 15.556 0.409486 15.9693 0.714233 16.274C1.01898 16.5788 1.4323 16.75 1.86328 16.75H6.86503C6.8307 17.5534 6.59066 18.3345 6.16791 19.0185C5.34241 20.3201 3.78728 21.209 1.54316 21.6575L0.238281 21.9175V26.5H1.86328C6.38566 26.5 9.83553 25.2471 12.1154 22.7755Z" fill="#E92C79"/>
</svg>
