<svg xmlns="http://www.w3.org/2000/svg" width="176.343" height="140.969" viewBox="0 0 176.343 140.969">
  <path id="Vector" d="M162.032,121.109c16.626-18.044,14.951-41.216,14.9-41.48V9.145a8.81,8.81,0,0,0-8.81-8.811H115.256A17.639,17.639,0,0,0,97.635,17.955V79.629a8.811,8.811,0,0,0,8.811,8.81h27.119a25.472,25.472,0,0,1-3.78,12.3c-4.476,7.057-12.908,11.876-25.075,14.308l-7.075,1.409V141.3h8.811C130.965,141.3,149.67,134.51,162.032,121.109Zm-96.978,0C81.688,103.065,80,79.893,79.952,79.629V9.145A8.81,8.81,0,0,0,71.142.334H18.278A17.639,17.639,0,0,0,.657,17.955V79.629a8.81,8.81,0,0,0,8.811,8.81H36.587a25.465,25.465,0,0,1-3.78,12.3C28.331,107.8,19.9,112.616,7.732,115.048L.657,116.457V141.3H9.468C33.988,141.3,52.692,134.51,65.054,121.109Z" transform="translate(-0.657 -0.334)" fill="#703372"/>
</svg>
