<svg xmlns="http://www.w3.org/2000/svg" xmlns:xlink="http://www.w3.org/1999/xlink" width="80" height="80" viewBox="0 0 80 80">
  <defs>
    <clipPath id="clip-path">
      <rect id="Rectangle_1" data-name="Rectangle 1" width="80" height="80" fill="#fff"/>
    </clipPath>
  </defs>
  <g id="Mask_Group_8" data-name="Mask Group 8" clip-path="url(#clip-path)">
    <g id="robinhood-logo" transform="translate(-204.19 5.565)">
      <path id="Path_11" data-name="Path 11" d="M135.947,26.039l-.4.133a99.427,99.427,0,0,0-9.846,3.765.824.824,0,0,0-.3.33c-.066.148-.142.33-.231.533l-.011.028c-.386.875-.914,2.191-1.144,2.73l-.176.423a.169.169,0,0,0,.044.193.155.155,0,0,0,.12.05.21.21,0,0,0,.077-.017l.413-.2c.942-.446,2.131-1.123,3.375-1.717l.044-.022c2.372-1.123,5.048-2.392,6.658-3.164a1.033,1.033,0,0,0,.391-.4l1.207-2.422a.177.177,0,0,0-.022-.193A.172.172,0,0,0,135.947,26.039Z" transform="translate(104.196 25.861)" fill="#00c705"/>
      <path id="Path_12" data-name="Path 12" d="M130.026,40.978c.171-.33.957-1.838,1.129-2.174l.033-.061a149.52,149.52,0,0,1,18.967-27.7l.2-.239a.245.245,0,0,0,.026-.264.239.239,0,0,0-.239-.12l-.307.044c-4.821.666-9.7,1.586-14.514,2.735a1.906,1.906,0,0,0-.853.518,163.062,163.062,0,0,0-10.134,13.5,1.188,1.188,0,0,0-.169.8A103.919,103.919,0,0,0,126.1,38.522c-2.839,8.173-5.382,18.944-5.382,18.944a.239.239,0,0,0,.033.2.224.224,0,0,0,.187.093h1.617a.249.249,0,0,0,.233-.154l.11-.3c1.65-4.5,3.534-8.949,5.615-13.286C129,43.02,130.026,40.978,130.026,40.978Z" transform="translate(100.479 7.168)" fill="#00c705"/>
      <path id="Path_13" data-name="Path 13" d="M147.282,11.8l-.007-.309a.239.239,0,0,0-.411-.148l-.2.231a146.887,146.887,0,0,0-21.407,32.692l-.132.275a.23.23,0,0,0,.2.336.306.306,0,0,0,.094-.017l.281-.12a141.066,141.066,0,0,1,14.61-5.135,1.113,1.113,0,0,0,.679-.561c2.141-4.173,7.111-12.252,7.111-12.252a.749.749,0,0,0,.092-.451S147.337,16.687,147.282,11.8Z" transform="translate(105.724 8.182)" fill="#00c705"/>
      <path id="Path_14" data-name="Path 14" d="M154.365,6.047c-1.215-1.057-2.981-1.555-5.722-1.612a27.018,27.018,0,0,0-8.8,1.585,3.393,3.393,0,0,0-1.259.8c-3.408,3.2-6.722,6.593-9.853,10.093l-.239.264a.232.232,0,0,0,.226.38l.352-.077a150.988,150.988,0,0,1,15.145-2.448,1.161,1.161,0,0,1,.914.3,1.174,1.174,0,0,1,.378.886,139.5,139.5,0,0,0,.541,14.822l.026.319a.239.239,0,0,0,.178.2.112.112,0,0,1,.055.011.252.252,0,0,0,.2-.1l.181-.258a140.746,140.746,0,0,1,9.11-11.624,1.863,1.863,0,0,0,.523-1.045C157.334,12.062,155.765,7.263,154.365,6.047Z" transform="translate(109.724 0)" fill="#00c705"/>
    </g>
  </g>
</svg>
