<svg xmlns="http://www.w3.org/2000/svg" xmlns:xlink="http://www.w3.org/1999/xlink" width="307" height="140" viewBox="0 0 307 140">
  <defs>
    <clipPath id="clip-path">
      <rect id="Rectangle_1" data-name="Rectangle 1" width="307" height="140" fill="#fff"/>
    </clipPath>
  </defs>
  <g id="Mask_Group_1" data-name="Mask Group 1" clip-path="url(#clip-path)">
    <g id="robinhood-logo" transform="translate(23.652 40.345)">
      <path id="Path_1" data-name="Path 1" d="M39.79,15.632a9.154,9.154,0,0,0-6.627,3.037H33.07V7.118H28.606v33.6h4.1V38.367h.092A9.792,9.792,0,0,0,39.7,41.4c6.443,0,10.585-5.062,10.585-12.886C50.283,20.925,45.957,15.632,39.79,15.632Zm-.782,21.722c-3.36,0-5.937-2.3-5.937-5.339V25.481a5.741,5.741,0,0,1,5.937-5.753c4.372,0,6.811,3.176,6.811,8.79C45.818,34.179,43.379,37.355,39.007,37.355Z" transform="translate(23.345 2.25)" fill="#00c705"/>
      <path id="Path_2" data-name="Path 2" d="M25.813,11.752c-6.627,0-11.183,5.292-11.183,12.886,0,7.778,4.418,12.886,11.183,12.886,6.673,0,11.045-5.108,11.045-12.886C36.859,17.045,32.348,11.752,25.813,11.752Zm0,21.722c-4.188,0-6.765-3.406-6.765-8.836s2.577-8.79,6.765-8.79c4.05,0,6.627,3.452,6.627,8.79C32.44,30.023,29.863,33.475,25.813,33.475Z" transform="translate(11.641 6.13)" fill="#00c705"/>
      <path id="Path_3" data-name="Path 3" d="M24.2,17.212c0-5.707-4.234-9.343-10.861-9.343H.729V40.085h4.6V27.337h6.581c5.062,0,6.9,2.025,6.9,7.64v5.109H23.28V34.977c0-5.141-1.565-8.2-4.975-9.453A8.419,8.419,0,0,0,24.2,17.212ZM12.971,23.241H5.331V12.058h7.594c4.372,0,6.627,1.887,6.627,5.615C19.552,21.262,17.251,23.241,12.971,23.241Z" transform="translate(0 2.879)" fill="#00c705"/>
      <path id="Path_4" data-name="Path 4" d="M58.729,11.752a8.732,8.732,0,0,0-6.673,3.037h-.092V12.442H47.592V36.834h4.464V21.509c0-3.452,2.255-5.615,5.8-5.615,3.5,0,5.154,2.025,5.154,6.259V36.834h4.51V20.864C67.519,15.25,64.114,11.752,58.729,11.752Z" transform="translate(39.244 6.13)" fill="#00c705"/>
      <path id="Path_5" data-name="Path 5" d="M98.375,11.752c-6.627,0-11.184,5.292-11.184,12.886,0,7.778,4.418,12.886,11.184,12.886,6.673,0,11.045-5.108,11.045-12.886C109.42,17.045,104.91,11.752,98.375,11.752Zm0,21.722c-4.188,0-6.765-3.406-6.765-8.836s2.577-8.79,6.765-8.79c4.05,0,6.627,3.452,6.627,8.79C105,30.023,102.425,33.475,98.375,33.475Z" transform="translate(72.405 6.13)" fill="#00c705"/>
      <path id="Path_6" data-name="Path 6" d="M118,7.118V18.67h-.092a8.887,8.887,0,0,0-6.582-3.037c-6.166,0-10.539,5.385-10.539,12.886,0,7.824,4.143,12.886,10.585,12.886a9.788,9.788,0,0,0,6.9-3.037h.092v2.347h4.1V7.118Zm0,24.9c0,3.037-2.578,5.339-5.937,5.339-4.373,0-6.811-3.176-6.811-8.836,0-5.615,2.438-8.79,6.811-8.79A5.741,5.741,0,0,1,118,25.481Z" transform="translate(83.795 2.25)" fill="#00c705"/>
      <path id="Path_7" data-name="Path 7" d="M84.774,11.752c-6.627,0-11.183,5.292-11.183,12.886,0,7.778,4.418,12.886,11.183,12.886,6.673,0,11.045-5.108,11.045-12.886C95.82,17.045,91.31,11.752,84.774,11.752Zm0,21.722c-4.188,0-6.765-3.406-6.765-8.836s2.577-8.79,6.765-8.79c4.05,0,6.627,3.452,6.627,8.79C91.4,30.023,88.824,33.475,84.774,33.475Z" transform="translate(61.016 6.13)" fill="#00c705"/>
      <path id="Path_8" data-name="Path 8" d="M47.14,7.118H42.307v4.74H47.14Z" transform="translate(34.818 2.25)" fill="#00c705"/>
      <path id="Path_9" data-name="Path 9" d="M72.264,15.632A8.566,8.566,0,0,0,65.5,18.762h-.092V7.118H60.942v33.6h4.464V25.389a5.463,5.463,0,0,1,5.8-5.615c3.36,0,5.292,2.209,5.292,6.029V40.714h4.464V24.7C80.962,19.13,77.6,15.632,72.264,15.632Z" transform="translate(50.424 2.25)" fill="#00c705"/>
      <path id="Path_10" data-name="Path 10" d="M46.872,12.128H42.407V36.519h4.464Z" transform="translate(34.902 6.445)" fill="#00c705"/>
      <path id="Path_11" data-name="Path 11" d="M133.961,26.037l-.336.111a83.138,83.138,0,0,0-8.233,3.148.689.689,0,0,0-.254.276c-.055.124-.119.276-.193.446l-.009.023c-.323.732-.764,1.832-.957,2.283l-.147.354a.141.141,0,0,0,.037.161.13.13,0,0,0,.1.042.176.176,0,0,0,.064-.014l.345-.166c.788-.373,1.782-.939,2.822-1.436l.037-.018c1.983-.939,4.221-2,5.567-2.646a.864.864,0,0,0,.327-.331l1.009-2.025a.148.148,0,0,0-.018-.161A.144.144,0,0,0,133.961,26.037Z" transform="translate(103.078 18.087)" fill="#00c705"/>
      <path id="Path_12" data-name="Path 12" d="M128.5,35.972c.143-.276.8-1.537.944-1.818l.028-.051A125.026,125.026,0,0,1,145.332,10.94l.171-.2a.205.205,0,0,0,.022-.221.2.2,0,0,0-.2-.1l-.257.037c-4.031.557-8.114,1.326-12.136,2.287a1.594,1.594,0,0,0-.713.433,136.347,136.347,0,0,0-8.474,11.285.993.993,0,0,0-.141.667,86.888,86.888,0,0,0,1.615,8.79c-2.374,6.834-4.5,15.841-4.5,15.841a.2.2,0,0,0,.028.17.187.187,0,0,0,.156.078h1.352a.208.208,0,0,0,.195-.129l.092-.253c1.38-3.765,2.955-7.483,4.695-11.11C127.645,37.679,128.5,35.972,128.5,35.972Z" transform="translate(100.479 5.014)" fill="#00c705"/>
      <path id="Path_13" data-name="Path 13" d="M143.648,11.714l-.006-.258a.2.2,0,0,0-.344-.124l-.171.193a122.825,122.825,0,0,0-17.9,27.337l-.11.23a.2.2,0,0,0,.031.221.2.2,0,0,0,.138.06.256.256,0,0,0,.079-.014l.235-.1a117.962,117.962,0,0,1,12.217-4.294.931.931,0,0,0,.568-.469c1.79-3.489,5.946-10.245,5.946-10.245a.627.627,0,0,0,.077-.377S143.694,15.8,143.648,11.714Z" transform="translate(104.146 5.722)" fill="#00c705"/>
      <path id="Path_14" data-name="Path 14" d="M150.118,5.783c-1.016-.884-2.493-1.3-4.785-1.348a22.592,22.592,0,0,0-7.355,1.325,2.837,2.837,0,0,0-1.053.672c-2.85,2.674-5.621,5.513-8.239,8.44l-.2.221a.194.194,0,0,0,.189.318l.294-.064A126.258,126.258,0,0,1,141.633,13.3a.971.971,0,0,1,.764.249.982.982,0,0,1,.316.741,116.641,116.641,0,0,0,.452,12.394l.022.267a.2.2,0,0,0,.149.17c.013,0,.028,0,.046.009a.211.211,0,0,0,.165-.083l.151-.216a117.69,117.69,0,0,1,7.618-9.72,1.558,1.558,0,0,0,.437-.874C152.6,10.813,151.288,6.8,150.118,5.783Z" transform="translate(106.944)" fill="#00c705"/>
    </g>
  </g>
</svg>
