<svg xmlns="http://www.w3.org/2000/svg" xmlns:xlink="http://www.w3.org/1999/xlink" width="120" height="120" viewBox="0 0 120 120">
  <defs>
    <clipPath id="clip-path">
      <rect id="Rectangle_60" data-name="Rectangle 60" width="120" height="120" fill="#fff"/>
    </clipPath>
    <clipPath id="clip-path-2">
      <rect id="Rectangle_58" data-name="Rectangle 58" width="100" height="99" transform="translate(-0.25 -0.627)" fill="#fff"/>
    </clipPath>
    <linearGradient id="linear-gradient" x1="0.5" x2="0.5" y2="1" gradientUnits="objectBoundingBox">
      <stop offset="0" stop-color="#2aabee"/>
      <stop offset="1" stop-color="#229ed9"/>
    </linearGradient>
  </defs>
  <g id="Mask_Group_29" data-name="Mask Group 29" clip-path="url(#clip-path)">
    <g id="Group_323" data-name="Group 323" transform="translate(10.25 11.627)" clip-path="url(#clip-path-2)">
      <path id="Path_535" data-name="Path 535" d="M49.753,0A50.178,50.178,0,0,0,14.576,14.329a48.341,48.341,0,0,0,0,69.189,50.342,50.342,0,0,0,70.354,0,48.341,48.341,0,0,0,0-69.189A50.177,50.177,0,0,0,49.753,0Z" transform="translate(-0.003 -0.051)" fill="url(#linear-gradient)"/>
      <path id="Path_536" data-name="Path 536" d="M15.053,36.713q21.759-9.32,29.012-12.289c13.822-5.651,16.69-6.633,18.564-6.666a3.321,3.321,0,0,1,1.928.57,2.092,2.092,0,0,1,.707,1.325,8.522,8.522,0,0,1,.078,1.926c-.746,7.736-3.988,26.509-5.636,35.174-.692,3.666-2.068,4.9-3.4,5.015-2.892.262-5.084-1.877-7.883-3.681-4.377-2.823-6.849-4.58-11.1-7.334C32.413,47.57,35.6,45.82,38.4,42.961c.731-.748,13.464-12.135,13.705-13.167a.973.973,0,0,0-.233-.865,1.154,1.154,0,0,0-1.026-.1q-.665.147-20.99,13.64a9.523,9.523,0,0,1-5.4,1.96,36.083,36.083,0,0,1-7.735-1.8c-3.11-1-5.589-1.523-5.372-3.214q.163-1.321,3.7-2.7Z" transform="translate(7.464 11.642)" fill="#fff"/>
    </g>
  </g>
</svg>
