<svg xmlns="http://www.w3.org/2000/svg" xmlns:xlink="http://www.w3.org/1999/xlink" width="120" height="120" viewBox="0 0 120 120">
  <defs>
    <clipPath id="clip-path">
      <rect id="Rectangle_61" data-name="Rectangle 61" width="120" height="120" fill="#fff"/>
    </clipPath>
    <linearGradient id="linear-gradient" x1="0.5" x2="0.5" y2="1" gradientUnits="objectBoundingBox">
      <stop offset="0" stop-color="#60d669"/>
      <stop offset="1" stop-color="#1faf38"/>
    </linearGradient>
  </defs>
  <g id="Mask_Group_30" data-name="Mask Group 30" clip-path="url(#clip-path)">
    <g id="Group_327" data-name="Group 327" transform="translate(4 3)">
      <path id="Path_532" data-name="Path 532" d="M1.61,55.484a54.524,54.524,0,0,0,7.2,27.154L1.158,110.782l28.593-7.552a53.6,53.6,0,0,0,25.774,6.61h.024c29.725,0,53.922-24.365,53.935-54.313A54.176,54.176,0,0,0,93.7,17.1,53.4,53.4,0,0,0,55.546,1.174C25.818,1.174,1.622,25.538,1.61,55.484Z" transform="translate(0.782 0.793)" fill="url(#linear-gradient)"/>
      <path id="Path_533" data-name="Path 533" d="M.469,56.258A56.479,56.479,0,0,0,7.927,84.386L0,113.539l29.618-7.823a55.525,55.525,0,0,0,26.7,6.849h.024c30.792,0,55.858-25.242,55.871-56.261a56.129,56.129,0,0,0-16.35-39.8A55.319,55.319,0,0,0,56.341,0C25.544,0,.482,25.238.469,56.258ZM18.107,82.917,17,81.148A46.852,46.852,0,0,1,56.358,9.5,45.97,45.97,0,0,1,89.189,23.216a46.853,46.853,0,0,1-32.848,79.847h-.018a46.13,46.13,0,0,1-23.635-6.519l-1.7-1.013-17.576,4.642,4.693-17.256Z" fill="#fff" stroke="#ebebeb" stroke-width="1"/>
      <path id="Path_534" data-name="Path 534" d="M31.109,20.535c-1.046-2.341-2.146-2.389-3.141-2.43-.814-.035-1.745-.033-2.676-.033a5.114,5.114,0,0,0-3.722,1.759,15.814,15.814,0,0,0-4.886,11.728c0,6.919,5,13.605,5.7,14.544s9.658,15.589,23.847,21.226c11.793,4.684,14.193,3.753,16.752,3.518s8.26-3.4,9.423-6.684,1.164-6.1.815-6.686-1.28-.938-2.676-1.641S62.285,51.73,61,51.261s-2.21-.7-3.141.705-3.6,4.573-4.419,5.51-1.629,1.057-3.024.354a38.13,38.13,0,0,1-11.227-6.979,42.309,42.309,0,0,1-7.766-9.739c-.814-1.406-.087-2.168.613-2.868.627-.63,1.4-1.642,2.1-2.463a9.669,9.669,0,0,0,1.394-2.345,2.605,2.605,0,0,0-.116-2.463C35.063,30.27,32.35,23.315,31.109,20.535Z" transform="translate(11.265 12.203)" fill="#fff"/>
    </g>
  </g>
</svg>
