<svg width="349" height="498" viewBox="0 0 349 498" fill="none" xmlns="http://www.w3.org/2000/svg">
<circle cx="184.546" cy="422.547" r="6.5" transform="rotate(179.582 184.546 422.547)" fill="#E25822"/>
<circle cx="84.5337" cy="75.5327" r="4.5" transform="rotate(179.582 84.5337 75.5327)" fill="#5CD822"/>
<g filter="url(#filter0_d_210_3377)">
<circle cx="221.395" cy="22.6062" r="14.5" transform="rotate(179.582 221.395 22.6062)" fill="white"/>
</g>
<path d="M221.482 35.5296C214.348 35.5816 208.524 29.8412 208.472 22.7075C208.419 15.5738 214.16 9.74897 221.294 9.69691C228.427 9.64486 234.252 15.3853 234.304 22.519C234.356 29.6527 228.616 35.4775 221.482 35.5296ZM221.444 30.363C221.761 30.3607 222.065 30.2423 222.3 30.0304C222.535 29.8184 222.684 29.5276 222.719 29.2132L222.727 29.062L222.717 27.7703L224.009 27.7609C224.848 27.7568 225.653 27.426 226.253 26.8386C226.852 26.2512 227.2 25.4534 227.221 24.6142C227.243 23.775 226.936 22.9605 226.368 22.3433C225.799 21.726 225.012 21.3546 224.174 21.3077L223.962 21.3028L222.67 21.3122L222.661 20.0205L225.244 20.0017C225.573 19.9989 225.889 19.8706 226.127 19.6428C226.364 19.4151 226.506 19.1051 226.523 18.7764C226.54 18.4476 226.431 18.1247 226.217 17.8738C226.004 17.6229 225.703 17.4629 225.376 17.4264L225.225 17.4184L222.642 17.4373L222.632 16.1457C222.63 15.8164 222.501 15.5007 222.273 15.263C222.046 15.0252 221.736 14.8834 221.407 14.8665C221.078 14.8497 220.755 14.9589 220.504 15.1721C220.254 15.3852 220.094 15.6861 220.057 16.0133L220.049 16.1645L220.059 17.4561L218.767 17.4656C217.927 17.4696 217.123 17.8005 216.523 18.3879C215.923 18.9753 215.576 19.7731 215.554 20.6123C215.533 21.4514 215.839 22.266 216.408 22.8832C216.977 23.5005 217.764 23.8719 218.602 23.9188L218.814 23.9237L220.106 23.9143L220.115 25.2059L217.532 25.2248C217.203 25.2275 216.887 25.3559 216.649 25.5837C216.411 25.8114 216.27 26.1213 216.253 26.4501C216.236 26.7789 216.345 27.1017 216.558 27.3526C216.771 27.6036 217.072 27.7636 217.399 27.8001L217.551 27.808L220.134 27.7892L220.143 29.0808C220.146 29.4234 220.284 29.7509 220.528 29.9914C220.772 30.2318 221.102 30.3655 221.444 30.363ZM218.795 21.3405C218.624 21.3417 218.459 21.2749 218.337 21.1546C218.215 21.0344 218.146 20.8706 218.145 20.6994C218.143 20.5281 218.21 20.3633 218.33 20.2413C218.451 20.1193 218.614 20.0501 218.786 20.0488L220.077 20.0394L220.087 21.331L218.795 21.3405ZM222.698 25.1871L222.689 23.8954L223.981 23.886C224.152 23.8848 224.317 23.9516 224.439 24.0718C224.561 24.1921 224.63 24.3558 224.631 24.5271C224.632 24.6984 224.565 24.8632 224.445 24.9852C224.325 25.1072 224.161 25.1764 223.99 25.1777L222.698 25.1871Z" fill="#7DD30F"/>
<g filter="url(#filter1_d_210_3377)">
<circle cx="135.606" cy="470.605" r="14.5" transform="rotate(179.582 135.606 470.605)" fill="#E2A122"/>
<circle cx="135.606" cy="470.605" r="14" transform="rotate(179.582 135.606 470.605)" stroke="white"/>
</g>
<path d="M140.09 468.323L142.572 465.855L142.623 472.888L140.123 472.906M135.934 469.886L137.251 470.994L138.435 469.885L138.481 476.251L135.981 476.27M131.778 471.3L134.26 468.782L134.339 479.615L131.839 479.633M129.438 471.476L130.957 472.973L126.79 473.003L126.76 468.837L128.262 470.317L134.227 464.315L137.137 466.811L140.265 463.738L142.556 463.721L137.203 469.044L134.244 466.582" fill="white"/>
<path d="M270.357 177.856H86.0263C85.9711 177.856 85.9163 177.846 85.865 177.826C85.8138 177.805 85.7671 177.775 85.7277 177.736C85.6884 177.697 85.6571 177.651 85.6358 177.6C85.6145 177.549 85.6035 177.495 85.6035 177.44C85.6035 177.327 85.6481 177.22 85.7273 177.141C85.8066 177.061 85.9142 177.017 86.0263 177.017H270.357C270.412 177.017 270.467 177.028 270.517 177.049C270.568 177.07 270.614 177.102 270.653 177.141C270.692 177.18 270.722 177.227 270.743 177.278C270.763 177.33 270.773 177.384 270.773 177.44C270.773 177.55 270.729 177.656 270.651 177.734C270.573 177.812 270.467 177.856 270.357 177.856Z" fill="#FE6B97"/>
<g opacity="0.3">
<path d="M270.357 177.856H86.0263C85.9711 177.856 85.9163 177.846 85.865 177.826C85.8138 177.805 85.7671 177.775 85.7277 177.736C85.6884 177.697 85.6571 177.651 85.6358 177.6C85.6145 177.549 85.6035 177.495 85.6035 177.44C85.6035 177.327 85.6481 177.22 85.7273 177.141C85.8066 177.061 85.9142 177.017 86.0263 177.017H270.357C270.412 177.017 270.467 177.028 270.517 177.049C270.568 177.07 270.614 177.102 270.653 177.141C270.692 177.18 270.722 177.227 270.743 177.278C270.763 177.33 270.773 177.384 270.773 177.44C270.773 177.55 270.729 177.656 270.651 177.734C270.573 177.812 270.467 177.856 270.357 177.856Z" fill="white"/>
</g>
<path d="M269.986 250.966H85.6552C85.6 250.967 85.5452 250.957 85.4939 250.936C85.4427 250.916 85.396 250.885 85.3567 250.847C85.3173 250.808 85.2861 250.762 85.2647 250.711C85.2434 250.66 85.2324 250.605 85.2324 250.55C85.2324 250.438 85.277 250.33 85.3562 250.251C85.4355 250.172 85.5431 250.127 85.6552 250.127H269.986C270.041 250.127 270.095 250.138 270.146 250.16C270.197 250.181 270.243 250.212 270.282 250.251C270.321 250.291 270.351 250.337 270.372 250.389C270.392 250.44 270.402 250.495 270.402 250.55C270.402 250.605 270.391 250.659 270.37 250.709C270.349 250.76 270.318 250.805 270.28 250.844C270.241 250.883 270.195 250.913 270.145 250.934C270.094 250.955 270.04 250.966 269.986 250.966V250.966Z" fill="#FE6B97"/>
<g opacity="0.3">
<path d="M269.986 250.966H85.6552C85.6 250.967 85.5452 250.956 85.4939 250.936C85.4427 250.915 85.396 250.885 85.3567 250.846C85.3173 250.808 85.2861 250.761 85.2647 250.71C85.2434 250.66 85.2324 250.605 85.2324 250.55C85.2324 250.438 85.277 250.33 85.3562 250.251C85.4355 250.172 85.5431 250.127 85.6552 250.127H269.986C270.041 250.127 270.095 250.138 270.146 250.159C270.197 250.181 270.243 250.212 270.282 250.251C270.321 250.291 270.351 250.337 270.372 250.388C270.392 250.44 270.402 250.495 270.402 250.55C270.402 250.604 270.391 250.658 270.37 250.709C270.349 250.759 270.318 250.805 270.28 250.844C270.241 250.882 270.195 250.913 270.145 250.934C270.094 250.955 270.04 250.966 269.986 250.966V250.966Z" fill="white"/>
</g>
<path d="M269.986 310.732H85.6552C85.5431 310.732 85.4355 310.688 85.3562 310.608C85.277 310.529 85.2324 310.421 85.2324 310.309C85.2324 310.254 85.2434 310.199 85.2647 310.149C85.2861 310.098 85.3173 310.051 85.3567 310.013C85.396 309.974 85.4427 309.944 85.4939 309.923C85.5452 309.903 85.6 309.892 85.6552 309.893H269.986C270.04 309.893 270.094 309.904 270.145 309.925C270.195 309.946 270.241 309.977 270.28 310.015C270.318 310.054 270.349 310.1 270.37 310.15C270.391 310.201 270.402 310.255 270.402 310.309C270.402 310.364 270.392 310.419 270.372 310.471C270.351 310.522 270.321 310.568 270.282 310.608C270.243 310.647 270.197 310.678 270.146 310.7C270.095 310.721 270.041 310.732 269.986 310.732Z" fill="#FE6B97"/>
<g opacity="0.3">
<path d="M269.986 310.732H85.6552C85.5431 310.732 85.4355 310.687 85.3562 310.608C85.277 310.529 85.2324 310.421 85.2324 310.309C85.2324 310.254 85.2434 310.199 85.2647 310.148C85.2861 310.097 85.3173 310.051 85.3567 310.013C85.396 309.974 85.4427 309.943 85.4939 309.923C85.5452 309.902 85.6 309.892 85.6552 309.893H269.986C270.04 309.893 270.094 309.904 270.145 309.925C270.195 309.946 270.241 309.976 270.28 310.015C270.318 310.054 270.349 310.099 270.37 310.15C270.391 310.2 270.402 310.254 270.402 310.309C270.402 310.364 270.392 310.419 270.372 310.47C270.351 310.522 270.321 310.568 270.282 310.608C270.243 310.647 270.197 310.678 270.146 310.7C270.095 310.721 270.041 310.732 269.986 310.732Z" fill="white"/>
</g>
<path d="M124.844 320.844V383.044" stroke="#703372" stroke-width="0.265171" stroke-miterlimit="10"/>
<path d="M133.727 320.844V383.044" stroke="#703372" stroke-width="0.265171" stroke-miterlimit="10"/>
<path d="M142.615 320.844V383.044" stroke="#703372" stroke-width="0.265171" stroke-miterlimit="10"/>
<path d="M151.498 320.844V383.044" stroke="#703372" stroke-width="0.265171" stroke-miterlimit="10"/>
<path d="M160.381 320.844V383.044" stroke="#703372" stroke-width="0.265171" stroke-miterlimit="10"/>
<path d="M169.268 320.844V383.044" stroke="#703372" stroke-width="0.265171" stroke-miterlimit="10"/>
<path d="M178.154 320.844V383.044" stroke="#703372" stroke-width="0.265171" stroke-miterlimit="10"/>
<path d="M187.037 320.844V383.044" stroke="#703372" stroke-width="0.265171" stroke-miterlimit="10"/>
<path d="M195.922 320.844V383.044" stroke="#703372" stroke-width="0.265171" stroke-miterlimit="10"/>
<path d="M204.807 320.844V383.044" stroke="#703372" stroke-width="0.265171" stroke-miterlimit="10"/>
<path d="M213.691 320.844V383.044" stroke="#703372" stroke-width="0.265171" stroke-miterlimit="10"/>
<path d="M222.576 320.844V383.044" stroke="#703372" stroke-width="0.265171" stroke-miterlimit="10"/>
<path d="M125.287 326.619H222.133" stroke="#703372" stroke-width="0.265171" stroke-miterlimit="10"/>
<path d="M125.287 335.061H222.133" stroke="#703372" stroke-width="0.265171" stroke-miterlimit="10"/>
<path d="M125.287 343.502H222.133" stroke="#703372" stroke-width="0.265171" stroke-miterlimit="10"/>
<path d="M125.287 351.944H222.133" stroke="#703372" stroke-width="0.265171" stroke-miterlimit="10"/>
<path d="M125.287 360.385H222.133" stroke="#703372" stroke-width="0.265171" stroke-miterlimit="10"/>
<path d="M125.287 368.827H222.133" stroke="#703372" stroke-width="0.265171" stroke-miterlimit="10"/>
<path d="M125.287 377.269H222.133" stroke="#703372" stroke-width="0.265171" stroke-miterlimit="10"/>
<path d="M145.635 342.664L132.639 382.731H159.859L146.856 342.664C146.814 342.535 146.733 342.422 146.623 342.342C146.513 342.262 146.381 342.219 146.245 342.219C146.11 342.219 145.977 342.262 145.868 342.342C145.758 342.422 145.677 342.535 145.635 342.664V342.664Z" fill="#FE6B97" stroke="#703372" stroke-width="1.06068" stroke-miterlimit="10"/>
<path d="M170.414 329.395L153.115 382.731H188.954L171.635 329.395C171.593 329.265 171.512 329.153 171.402 329.073C171.293 328.993 171.16 328.95 171.025 328.95C170.889 328.95 170.757 328.993 170.647 329.073C170.537 329.153 170.456 329.265 170.414 329.395V329.395Z" fill="#703372" stroke="#703372" stroke-width="1.06068" stroke-miterlimit="10"/>
<path d="M193.212 351.828L183.182 382.731H204.456L194.405 351.828C194.358 351.708 194.276 351.605 194.17 351.533C194.063 351.46 193.937 351.421 193.809 351.421C193.68 351.421 193.554 351.46 193.448 351.533C193.341 351.605 193.259 351.708 193.212 351.828V351.828Z" fill="#FE6B97" stroke="#703372" stroke-width="1.06068" stroke-miterlimit="10"/>
<path d="M206.955 362.438L200.375 382.731H214.756L208.176 362.438C208.134 362.309 208.053 362.196 207.943 362.116C207.833 362.036 207.701 361.993 207.565 361.993C207.43 361.993 207.297 362.036 207.188 362.116C207.078 362.196 206.997 362.309 206.955 362.438V362.438Z" fill="#703372" stroke="#703372" stroke-width="1.06068" stroke-miterlimit="10"/>
<path d="M123.672 301.186C119.773 301.186 115.962 300.03 112.72 297.864C109.478 295.698 106.952 292.619 105.46 289.017C103.968 285.415 103.577 281.451 104.338 277.627C105.098 273.803 106.976 270.291 109.733 267.534C112.49 264.777 116.002 262.899 119.826 262.139C123.65 261.378 127.614 261.769 131.216 263.261C134.818 264.753 137.897 267.279 140.063 270.521C142.229 273.763 143.385 277.574 143.385 281.473C143.379 286.699 141.301 291.71 137.605 295.406C133.909 299.102 128.898 301.18 123.672 301.186V301.186ZM123.672 267.549C120.918 267.55 118.227 268.368 115.938 269.899C113.649 271.43 111.866 273.605 110.813 276.149C109.76 278.694 109.485 281.493 110.023 284.194C110.561 286.894 111.888 289.374 113.836 291.321C115.783 293.268 118.264 294.593 120.965 295.13C123.666 295.666 126.465 295.39 129.009 294.336C131.553 293.282 133.727 291.497 135.256 289.208C136.786 286.918 137.603 284.227 137.603 281.473C137.599 277.78 136.13 274.24 133.518 271.629C130.906 269.018 127.365 267.551 123.672 267.549Z" fill="#703372" stroke="#703372" stroke-width="1.06068" stroke-miterlimit="10"/>
<path d="M123.67 301.186C121.01 301.194 118.375 300.659 115.929 299.615C113.482 298.57 111.274 297.037 109.439 295.11L113.619 291.108C114.914 292.469 116.474 293.552 118.202 294.289C119.93 295.027 121.791 295.404 123.67 295.397C125.499 295.397 127.309 295.037 128.999 294.337C130.688 293.637 132.223 292.611 133.516 291.319C134.809 290.026 135.834 288.491 136.534 286.801C137.234 285.112 137.594 283.301 137.594 281.473C137.594 279.644 137.234 277.834 136.534 276.144C135.834 274.455 134.809 272.92 133.516 271.627C132.223 270.334 130.688 269.309 128.999 268.609C127.309 267.909 125.499 267.549 123.67 267.549V261.76C126.259 261.76 128.822 262.27 131.214 263.261C133.606 264.251 135.779 265.703 137.609 267.534C139.44 269.364 140.892 271.537 141.882 273.929C142.873 276.321 143.383 278.884 143.383 281.473C143.383 284.062 142.873 286.625 141.882 289.017C140.892 291.408 139.44 293.582 137.609 295.412C135.779 297.243 133.606 298.695 131.214 299.685C128.822 300.676 126.259 301.186 123.67 301.186V301.186Z" fill="#FE6B97" stroke="#703372" stroke-width="1.06068" stroke-miterlimit="10"/>
<path d="M172.29 301.186C168.391 301.187 164.579 300.032 161.336 297.867C158.094 295.702 155.566 292.623 154.073 289.021C152.58 285.42 152.188 281.456 152.948 277.631C153.708 273.807 155.585 270.294 158.342 267.536C161.098 264.779 164.611 262.9 168.435 262.139C172.259 261.378 176.223 261.768 179.825 263.26C183.428 264.752 186.507 267.278 188.673 270.52C190.84 273.762 191.996 277.574 191.996 281.473C191.991 286.698 189.913 291.708 186.219 295.404C182.525 299.099 177.515 301.179 172.29 301.186V301.186ZM172.29 267.549C169.537 267.552 166.846 268.371 164.558 269.902C162.27 271.434 160.488 273.609 159.436 276.154C158.384 278.698 158.11 281.498 158.649 284.198C159.188 286.898 160.515 289.377 162.463 291.323C164.411 293.269 166.892 294.594 169.592 295.13C172.293 295.666 175.092 295.39 177.635 294.336C180.179 293.281 182.353 291.497 183.882 289.207C185.411 286.918 186.228 284.226 186.228 281.473C186.222 277.779 184.752 274.239 182.139 271.628C179.526 269.018 175.984 267.551 172.29 267.549V267.549Z" fill="#703372" stroke="#703372" stroke-width="1.06068" stroke-miterlimit="10"/>
<path d="M179.96 299.631L177.71 294.306C180.667 293.052 183.1 290.816 184.598 287.974C186.095 285.133 186.564 281.861 185.927 278.714C185.289 275.566 183.583 272.735 181.098 270.701C178.613 268.666 175.501 267.553 172.289 267.549V261.76C176.838 261.76 181.246 263.334 184.767 266.213C188.288 269.093 190.705 273.101 191.608 277.559C192.511 282.017 191.844 286.65 189.721 290.673C187.598 294.696 184.15 297.861 179.96 299.631V299.631Z" fill="#FE6B97" stroke="#703372" stroke-width="1.06068" stroke-miterlimit="10"/>
<path d="M220.898 301.186C217 301.186 213.188 300.03 209.947 297.864C206.705 295.698 204.178 292.619 202.686 289.017C201.194 285.415 200.804 281.451 201.564 277.627C202.325 273.803 204.202 270.291 206.959 267.534C209.716 264.777 213.229 262.899 217.053 262.139C220.877 261.378 224.84 261.769 228.442 263.261C232.044 264.753 235.123 267.279 237.289 270.521C239.455 273.763 240.611 277.574 240.611 281.473C240.606 286.699 238.527 291.71 234.832 295.406C231.136 299.102 226.125 301.18 220.898 301.186V301.186ZM220.898 267.549C218.145 267.549 215.453 268.366 213.163 269.896C210.873 271.426 209.088 273.6 208.035 276.145C206.981 278.689 206.705 281.488 207.242 284.189C207.779 286.89 209.106 289.371 211.053 291.319C213 293.266 215.481 294.592 218.182 295.129C220.883 295.666 223.683 295.391 226.227 294.337C228.771 293.283 230.946 291.498 232.476 289.209C234.006 286.919 234.822 284.227 234.822 281.473C234.819 277.781 233.351 274.242 230.74 271.631C228.13 269.021 224.59 267.553 220.898 267.549V267.549Z" fill="#703372" stroke="#703372" stroke-width="1.06068" stroke-miterlimit="10"/>
<path d="M234.551 278.698C233.905 275.556 232.196 272.732 229.712 270.702C227.229 268.672 224.122 267.558 220.914 267.549V261.76C225.457 261.772 229.858 263.347 233.376 266.222C236.894 269.097 239.315 273.095 240.231 277.545L234.551 278.698Z" fill="#FE6B97" stroke="#703372" stroke-width="1.06068" stroke-miterlimit="10"/>
<path d="M131.533 239.933H224.111" stroke="#703372" stroke-width="1.06068" stroke-miterlimit="10"/>
<path d="M131.533 239.933V237.962" stroke="#703372" stroke-width="1.06068" stroke-miterlimit="10"/>
<path d="M150.045 239.933V237.962" stroke="#703372" stroke-width="1.06068" stroke-miterlimit="10"/>
<path d="M168.564 239.933V237.962" stroke="#703372" stroke-width="1.06068" stroke-miterlimit="10"/>
<path d="M187.078 239.933V237.962" stroke="#703372" stroke-width="1.06068" stroke-miterlimit="10"/>
<path d="M205.59 239.933V237.962" stroke="#703372" stroke-width="1.06068" stroke-miterlimit="10"/>
<path d="M224.111 239.933V237.962" stroke="#703372" stroke-width="1.06068" stroke-miterlimit="10"/>
<path d="M147.456 213.62H134.125V229.405H147.456V213.62Z" fill="#FE6B97" stroke="#703372" stroke-width="1.06068" stroke-miterlimit="10"/>
<path d="M165.967 195.202H152.637V232.037H165.967V195.202Z" fill="#FE6B97" stroke="#703372" stroke-width="1.06068" stroke-miterlimit="10"/>
<path d="M184.487 169.421H171.156V210.47H184.487V169.421Z" fill="#FE6B97" stroke="#703372" stroke-width="1.06068" stroke-miterlimit="10"/>
<path d="M203.001 207.837H189.67V215.733H203.001V207.837Z" fill="#FE6B97" stroke="#703372" stroke-width="1.06068" stroke-miterlimit="10"/>
<path d="M221.512 203.098H208.182V223.622H221.512V203.098Z" fill="#FE6B97" stroke="#703372" stroke-width="1.06068" stroke-miterlimit="10"/>
<path d="M147.456 229.412H134.125V239.94H147.456V229.412Z" fill="#703372" stroke="#703372" stroke-width="1.06068" stroke-miterlimit="10"/>
<path d="M165.967 232.044H152.637V239.94H165.967V232.044Z" fill="#703372" stroke="#703372" stroke-width="1.06068" stroke-miterlimit="10"/>
<path d="M184.487 210.462H171.156V239.933H184.487V210.462Z" fill="#703372" stroke="#703372" stroke-width="1.06068" stroke-miterlimit="10"/>
<path d="M203.001 215.727H189.67V239.933H203.001V215.727Z" fill="#703372" stroke="#703372" stroke-width="1.06068" stroke-miterlimit="10"/>
<path d="M221.512 223.623H208.182V239.933H221.512V223.623Z" fill="#703372" stroke="#703372" stroke-width="1.06068" stroke-miterlimit="10"/>
<path d="M248.783 161.968C248.623 161.969 248.465 161.931 248.323 161.856C248.182 161.781 248.061 161.672 247.972 161.539L219.292 119.713L190.197 150.738L160.487 131.373L131.747 138.041L102.556 161.75C102.353 161.915 102.094 161.992 101.834 161.965C101.574 161.938 101.336 161.809 101.171 161.607C101.007 161.404 100.93 161.145 100.956 160.885C100.983 160.625 101.112 160.387 101.315 160.223L130.86 136.227L160.863 129.266L189.897 148.194L219.538 116.583L249.594 160.427C249.696 160.574 249.756 160.746 249.767 160.925C249.778 161.104 249.741 161.282 249.658 161.441C249.575 161.599 249.45 161.732 249.297 161.825C249.144 161.918 248.969 161.968 248.79 161.968H248.783Z" fill="#703372"/>
<path d="M104.402 160.986C104.402 161.468 104.259 161.938 103.992 162.339C103.724 162.739 103.344 163.051 102.899 163.235C102.454 163.42 101.965 163.468 101.493 163.374C101.02 163.28 100.587 163.048 100.246 162.708C99.9057 162.367 99.6739 161.933 99.58 161.461C99.4861 160.989 99.5343 160.5 99.7185 160.055C99.9027 159.61 100.215 159.23 100.615 158.962C101.015 158.695 101.486 158.552 101.967 158.552C102.613 158.552 103.232 158.808 103.689 159.265C104.145 159.721 104.402 160.341 104.402 160.986Z" fill="#FE6B97"/>
<path d="M131.301 139.569C132.646 139.569 133.736 138.479 133.736 137.134C133.736 135.79 132.646 134.7 131.301 134.7C129.957 134.7 128.867 135.79 128.867 137.134C128.867 138.479 129.957 139.569 131.301 139.569Z" fill="#FE6B97"/>
<path d="M160.671 132.75C162.015 132.75 163.105 131.66 163.105 130.316C163.105 128.971 162.015 127.881 160.671 127.881C159.326 127.881 158.236 128.971 158.236 130.316C158.236 131.66 159.326 132.75 160.671 132.75Z" fill="#FE6B97"/>
<path d="M190.038 151.897C191.382 151.897 192.472 150.807 192.472 149.463C192.472 148.118 191.382 147.028 190.038 147.028C188.693 147.028 187.604 148.118 187.604 149.463C187.604 150.807 188.693 151.897 190.038 151.897Z" fill="#FE6B97"/>
<path d="M221.841 118.151C221.841 118.633 221.698 119.103 221.431 119.503C221.163 119.904 220.783 120.216 220.338 120.4C219.894 120.584 219.404 120.633 218.932 120.539C218.46 120.445 218.026 120.213 217.686 119.872C217.345 119.532 217.113 119.098 217.019 118.626C216.926 118.154 216.974 117.664 217.158 117.22C217.342 116.775 217.654 116.395 218.055 116.127C218.455 115.86 218.925 115.717 219.407 115.717C220.053 115.717 220.672 115.973 221.128 116.43C221.585 116.886 221.841 117.505 221.841 118.151V118.151Z" fill="#FE6B97"/>
<path d="M251.206 160.986C251.206 161.468 251.064 161.938 250.796 162.339C250.529 162.739 250.149 163.051 249.704 163.235C249.259 163.42 248.769 163.468 248.297 163.374C247.825 163.28 247.391 163.048 247.051 162.708C246.71 162.367 246.479 161.933 246.385 161.461C246.291 160.989 246.339 160.5 246.523 160.055C246.707 159.61 247.019 159.23 247.42 158.962C247.82 158.695 248.291 158.552 248.772 158.552C249.418 158.552 250.037 158.808 250.493 159.265C250.95 159.721 251.206 160.341 251.206 160.986Z" fill="#FE6B97"/>
<path d="M301.272 393C327.264 393 348.335 390.17 348.335 386.679C348.335 383.188 327.264 380.358 301.272 380.358C275.28 380.358 254.209 383.188 254.209 386.679C254.209 390.17 275.28 393 301.272 393Z" fill="#FE6B97"/>
<path opacity="0.7" d="M301.272 393C327.264 393 348.335 390.17 348.335 386.679C348.335 383.188 327.264 380.358 301.272 380.358C275.28 380.358 254.209 383.188 254.209 386.679C254.209 390.17 275.28 393 301.272 393Z" fill="white"/>
<path d="M43.4284 393C67.4132 393 86.8568 390.17 86.8568 386.679C86.8568 383.188 67.4132 380.358 43.4284 380.358C19.4436 380.358 0 383.188 0 386.679C0 390.17 19.4436 393 43.4284 393Z" fill="#FE6B97"/>
<path opacity="0.7" d="M43.4284 393C67.4132 393 86.8568 390.17 86.8568 386.679C86.8568 383.188 67.4132 380.358 43.4284 380.358C19.4436 380.358 0 383.188 0 386.679C0 390.17 19.4436 393 43.4284 393Z" fill="white"/>
<path d="M287.99 164C287.99 164 305.869 162.268 306.892 165.248C307.915 168.228 307.574 175.033 307.574 175.033C308.474 175.267 309.353 175.58 310.199 175.967C310.438 176.199 313.083 177.931 310.615 180.774C309.97 181.495 309.189 182.082 308.317 182.499C307.228 182.981 306.193 183.575 305.228 184.272L301.641 188.343L302.323 193.587C302.323 193.587 303.926 194.746 305.883 198.789C305.883 198.789 310.506 201.517 313.22 203.065C315.451 204.237 317.772 205.231 320.161 206.038C320.161 206.038 321.402 206.44 321.313 207.333C321.225 208.226 315.136 228.471 315.136 228.471L311.931 238.699C311.87 239.956 311.706 241.206 311.44 242.436C310.983 244.638 309.265 246.084 307.485 245.634L307.662 253.135C307.662 253.135 299.303 257.314 285.515 256.605C285.515 256.605 279.024 255.978 274.223 252.425L274.135 234.901L252.015 230.619C252.015 230.619 249.212 230.026 250.651 227.503C252.09 224.98 256.924 218.72 256.924 218.72L272.464 199.71C272.464 199.71 273.535 198.448 273.93 198.046C274.326 197.644 275.294 197.364 279.133 197.044C282.972 196.723 287.274 195.98 287.274 195.98C287.274 195.98 289.606 193.975 289.94 193.975C290.275 193.975 290.343 190.975 290.343 190.975C289.163 190.124 288.183 189.027 287.468 187.761C286.754 186.494 286.322 185.088 286.204 183.638C285.87 178.77 288.004 167.362 288.004 167.362L287.99 164Z" fill="white"/>
<path d="M274.495 252.357C274.495 252.357 272.613 280.314 272.613 293.692C272.613 307.07 273.452 317.905 273.868 327.301C274.284 336.698 272.613 343.169 274.072 350.056C275.532 356.942 278.88 376.989 278.88 376.989L282.814 379.362C282.814 379.362 283.496 363.413 284.928 357.781C286.36 352.149 286.81 328.345 287.655 321.035C288.501 313.725 291.208 287.842 291.208 287.842C291.208 287.842 301.647 314.98 304.163 325.631C306.68 336.282 315.23 360.284 317.119 366.127C319.008 371.971 321.919 380.631 321.919 380.631C322.804 380.889 323.733 380.959 324.647 380.835C325.041 380.804 325.421 380.672 325.751 380.452C326.08 380.233 326.348 379.933 326.529 379.581C326.529 379.581 323.754 362.097 322.533 353.601C321.026 343.094 318.571 327.301 317.078 321.458C315.585 315.614 313.321 306.423 313.321 302.038C313.321 297.654 307.689 253.625 307.689 253.625C307.689 253.625 288.064 262.169 274.495 252.357Z" fill="#703372"/>
<path d="M291.194 287.841L282.82 278.077" stroke="white" stroke-width="0.530341" stroke-miterlimit="10" stroke-linecap="round"/>
<path d="M280.68 278.793L287.573 285.21" stroke="white" stroke-width="0.530341" stroke-miterlimit="10" stroke-linecap="round"/>
<path d="M295.414 279.509C297.179 275.043 300.46 271.34 304.681 269.049" stroke="white" stroke-width="0.530341" stroke-miterlimit="10" stroke-linecap="round"/>
<path d="M305.151 255.985C305.151 255.985 304.204 259.544 305.39 261.685C306.577 263.826 307.77 263.826 307.77 263.826C307.77 263.826 309.904 275.466 309.904 282.121C309.904 288.776 308.479 289.485 309.904 296.849C311.329 304.214 312.284 306.593 312.284 310.869C312.284 315.144 314.18 318.001 315.843 320.613C317.507 323.224 317.984 330.841 317.984 333.916C317.984 336.991 318.932 340.332 319.887 343.421C319.887 343.421 320.112 350.349 321.312 351.972C322.512 353.595 322.737 359.104 322.737 359.104" stroke="white" stroke-width="0.530341" stroke-miterlimit="10" stroke-linecap="round"/>
<path d="M289.476 286.873C289.476 286.873 289.947 292.328 288.283 301.84C286.619 311.352 285.433 313.957 285.194 324.887C284.956 335.818 285.91 337.72 285.433 343.421C284.956 349.121 282.105 358.129 282.105 362.22C282.105 366.311 282.542 379.389 282.542 379.389" stroke="white" stroke-width="0.530341" stroke-miterlimit="10" stroke-linecap="round"/>
<path d="M284.246 257.41L284.723 259.312L287.812 260.021L287.335 257.648" stroke="white" stroke-width="0.530341" stroke-miterlimit="10" stroke-linecap="round"/>
<path d="M287.826 260.021C287.826 260.021 293.527 259.783 296.377 258.835L295.695 256.932" stroke="white" stroke-width="0.530341" stroke-miterlimit="10" stroke-linecap="round"/>
<path d="M298.266 256.455L298.947 258.835C298.947 258.835 303.509 258.576 304.191 257.894" stroke="white" stroke-width="0.530341" stroke-miterlimit="10" stroke-linecap="round"/>
<path d="M284.723 259.312C283.148 259.263 281.604 258.854 280.209 258.119L278.068 256.932L278.75 255.269" stroke="white" stroke-width="0.530341" stroke-miterlimit="10" stroke-linecap="round"/>
<path d="M278.878 376.989C278.878 376.989 268.649 383.665 267.183 386.795C265.717 389.924 271.568 388.677 275.741 387.006C279.914 385.335 282.56 379.362 282.56 379.362L278.878 376.989Z" fill="white" stroke="#703372" stroke-width="1.06068" stroke-miterlimit="10" stroke-linecap="round"/>
<path d="M322.246 380.719C322.762 383.579 323.778 386.326 325.246 388.833C327.497 392.331 331.745 395.332 331.745 389.829C331.745 384.326 326.501 379.601 326.501 379.601C326.501 379.601 323.896 381.012 322.246 380.719Z" fill="white" stroke="#703372" stroke-width="1.06068" stroke-miterlimit="10" stroke-linecap="round"/>
<path d="M287.93 167.778C287.93 167.778 285.714 181.524 286.464 184.934C288.175 192.564 294.182 192.237 297.939 190.777C301.451 189.414 304.956 184.593 305.406 183.959C305.438 183.914 305.483 183.88 305.536 183.863C306.095 183.706 309.565 182.602 311.093 179.922C312.763 176.997 309.634 175.749 309.634 175.749" fill="white"/>
<g style="mix-blend-mode:multiply" opacity="0.5">
<path d="M302.147 187.497L305.461 183.856C305.461 183.856 309.382 182.649 311.093 179.887C312.096 178.271 311.544 176.86 310.937 176.478C310.105 176.028 309.247 175.629 308.366 175.285L307.255 177.733L306.307 177.896C306.307 177.896 306.702 175.373 305.557 173.88C304.411 172.387 304.152 168.064 304.152 168.064C304.152 168.064 302.55 176.683 302.352 180.29C302.301 182.297 301.674 184.248 300.545 185.908C300.545 185.908 300.749 188.111 301.145 190.313C301.193 190.572 301.24 190.961 301.288 191.445L301.834 190.572L302.134 191.404C301.793 189.972 301.636 188.452 302.147 187.497Z" fill="#FE6B97"/>
</g>
<path d="M287.93 167.778C287.93 167.778 285.714 181.524 286.464 184.934C288.175 192.564 294.182 192.237 297.939 190.777C301.451 189.414 304.956 184.593 305.406 183.959C305.438 183.914 305.483 183.88 305.536 183.863C306.095 183.706 309.565 182.602 311.093 179.922C312.763 176.997 309.634 175.749 309.634 175.749" stroke="#703372" stroke-width="1.06068" stroke-miterlimit="10" stroke-linecap="round"/>
<path d="M296.412 174.767C296.283 175.312 296.412 175.803 296.665 175.864C296.917 175.926 297.258 175.544 297.387 175.005C297.517 174.467 297.387 173.976 297.135 173.907C296.883 173.839 296.542 174.228 296.412 174.767Z" fill="#703372"/>
<path d="M290.553 173.342C290.423 173.887 290.553 174.378 290.805 174.439C291.057 174.501 291.398 174.119 291.528 173.58C291.658 173.042 291.528 172.544 291.276 172.482C291.023 172.421 290.676 172.796 290.553 173.342Z" fill="#703372"/>
<path d="M300.046 172.38C299.724 171.813 299.265 171.336 298.711 170.992C298.157 170.648 297.526 170.447 296.875 170.41" stroke="#703372" stroke-width="1.06068" stroke-miterlimit="10" stroke-linecap="round"/>
<path d="M292.386 170.512C291.85 170.277 291.254 170.212 290.679 170.324C290.104 170.436 289.577 170.72 289.168 171.139" stroke="#703372" stroke-width="1.06068" stroke-miterlimit="10" stroke-linecap="round"/>
<path d="M292.784 172.994C292.796 173.908 292.728 174.82 292.579 175.722C292.354 176.86 291.468 177.085 291.693 177.965C291.918 178.845 293.056 178.933 293.056 178.933" stroke="#703372" stroke-width="1.06068" stroke-miterlimit="10" stroke-linecap="round"/>
<path d="M294.242 182.485C294.725 182.639 295.235 182.686 295.738 182.624C296.24 182.562 296.723 182.391 297.154 182.124" stroke="#703372" stroke-width="1.06068" stroke-miterlimit="10" stroke-linecap="round"/>
<path d="M305.041 158.177C305.041 158.177 300.452 154.208 296.068 154.208C291.684 154.208 288.131 156.718 285.417 156.936C282.703 157.154 280.828 154.638 279.158 157.979C277.487 161.32 283.753 166.959 287.927 167.791C292.1 168.623 297.943 167.375 299.614 167.164C301.214 167.054 302.82 167.054 304.421 167.164C304.421 167.164 303.166 171.132 304.421 172.387C305.676 173.642 305.88 174.473 305.88 175.305C305.952 176.223 306.091 177.135 306.296 178.033L307.551 178.456L308.178 176.158C309.871 174.353 311.028 172.112 311.519 169.687C312.14 165.93 309.01 162.186 309.01 162.186L305.041 158.177Z" fill="#703372"/>
<path d="M287.465 166.08C287.465 166.08 294.604 167.443 300.195 165.118C305.787 162.793 300.966 158.177 300.966 158.177" stroke="white" stroke-width="0.530341" stroke-miterlimit="10" stroke-linecap="round"/>
<path d="M302.143 157.788C302.722 157.788 307.543 161.45 306.575 164.15C305.606 166.85 303.684 167.048 303.684 167.048" stroke="white" stroke-width="0.530341" stroke-miterlimit="10" stroke-linecap="round"/>
<path d="M301.351 240.615L295.323 237.438C293.774 237.352 292.233 237.151 290.713 236.838C289.309 236.435 274.894 235.058 274.894 235.058L274.676 238.467C274.676 238.467 291.116 240.676 294.518 241.079C297.921 241.481 300.935 243.083 301.535 244.086C302.135 245.088 303.342 246.091 302.742 248.859C302.142 251.627 298.132 255.678 298.132 255.678C297.941 255.391 307.774 254.682 307.678 253.632C307.467 251.546 306.356 245.45 306.356 245.45L301.351 240.615Z" fill="#FE6B97"/>
<path opacity="0.5" d="M301.351 240.615L295.323 237.438C293.774 237.352 292.233 237.151 290.713 236.838C289.309 236.435 274.894 235.058 274.894 235.058L274.676 238.467C274.676 238.467 291.116 240.676 294.518 241.079C297.921 241.481 300.935 243.083 301.535 244.086C302.135 245.088 303.342 246.091 302.742 248.859C302.142 251.627 298.132 255.678 298.132 255.678C297.975 255.371 307.794 254.675 307.678 253.632C307.358 250.973 306.356 245.45 306.356 245.45L301.351 240.615Z" fill="white"/>
<path d="M321.236 207.258C320.704 204.762 316.735 205.096 314.342 203.712C311.949 202.328 306.16 199.123 306.16 199.123L303.357 194.909C302.851 193.773 302.443 192.596 302.137 191.391L301.837 190.559L301.291 191.432C301.639 195.168 301.973 204.735 301.973 204.735L303.173 210.749C303.173 210.749 307.789 230.592 308.989 235.003C310.189 239.415 310.189 242.415 309.392 243.82C308.594 245.224 308.86 245.865 308.86 245.865C308.86 245.865 311.99 243.445 311.799 241.045C311.546 238.222 321.611 208.949 321.236 207.258Z" fill="#FE6B97"/>
<path opacity="0.5" d="M321.236 207.258C320.963 204.721 316.735 205.096 314.342 203.712C311.949 202.328 306.16 199.123 306.16 199.123L303.357 194.909C302.851 193.773 302.443 192.596 302.137 191.391L301.837 190.559L301.291 191.432C301.639 195.168 301.973 204.735 301.973 204.735L303.173 210.749C303.173 210.749 307.789 230.592 308.989 235.003C310.189 239.415 310.189 242.415 309.392 243.82C308.594 245.224 308.86 245.865 308.86 245.865C308.86 245.865 312.078 243.438 311.799 241.045C311.478 238.474 321.481 209.365 321.236 207.258Z" fill="white"/>
<path d="M303.721 204.755C303.721 204.755 302.466 193.484 301.839 190.559C301.211 187.634 301.634 185.97 298.92 185.97C296.206 185.97 292.865 185.547 293.465 187.013C294.065 188.479 298.238 187.218 298.92 187.845C299.602 188.472 299.125 189.932 299.125 189.932C299.125 189.932 293.67 190.354 293.67 191.814C293.67 193.273 293.881 197.269 294.924 197.657C295.968 198.046 296.384 195.782 296.384 195.782C296.384 195.782 296.595 200.555 297.638 202.253C298.303 203.302 299.073 204.279 299.936 205.171L303.721 204.755Z" fill="white" stroke="#703372" stroke-width="1.06068" stroke-miterlimit="10" stroke-linecap="round"/>
<path d="M299.96 207.885C299.96 207.885 299.333 233.796 300.376 237.949C301.42 242.101 307.059 247.761 309.977 245.047C312.896 242.333 311.443 236.49 311.443 233.776C311.443 231.062 304.761 211.022 304.761 209.556C304.662 208.338 304.379 207.143 303.922 206.01" stroke="#703372" stroke-width="1.06068" stroke-miterlimit="10" stroke-linecap="round"/>
<path d="M300.377 211.022L304.55 210.599" stroke="#703372" stroke-width="1.06068" stroke-miterlimit="10" stroke-linecap="round"/>
<path d="M273.691 223.977L274.496 200.923C274.496 200.923 273.493 200.323 273.091 202.525C272.689 204.728 272.491 209.146 272.491 209.146C272.491 209.146 267.677 206.139 268.884 207.939C270.091 209.74 272.089 213.756 272.089 213.756L264.643 221.168L268.052 222.572L273.691 223.977Z" fill="#FE6B97"/>
<path opacity="0.5" d="M273.691 223.977L274.496 200.923C274.496 200.923 273.493 200.323 273.091 202.525C272.689 204.728 272.491 209.146 272.491 209.146C272.491 209.146 267.677 206.139 268.884 207.939C270.091 209.74 272.089 213.756 272.089 213.756L264.643 221.168L268.052 222.572L273.691 223.977Z" fill="white"/>
<path d="M283.673 206.072C283.673 206.072 283.291 207.435 284.893 207.435C286.496 207.435 289.312 206.297 289.312 206.297L289.107 204.033C289.107 204.033 285.255 205.908 283.673 206.072Z" fill="#FE6B97"/>
<path opacity="0.5" d="M283.673 206.072C283.673 206.072 283.291 207.435 284.893 207.435C286.496 207.435 289.312 206.297 289.312 206.297L289.107 204.033C289.107 204.033 285.255 205.908 283.673 206.072Z" fill="white"/>
<path d="M290.552 190.825C290.552 190.825 288.465 203.099 289.72 205.826C290.975 208.554 292.85 207.913 294.309 206.665C295.768 205.417 297.65 202.28 297.65 202.28" stroke="#703372" stroke-width="1.06068" stroke-miterlimit="10" stroke-linecap="round"/>
<path d="M274.074 235.235L274.497 252.357C274.497 252.357 279.27 256.946 288.482 256.946C297.694 256.946 307.691 253.605 307.691 253.605V247.55" stroke="#703372" stroke-width="1.06068" stroke-miterlimit="10" stroke-linecap="round"/>
<path d="M302.262 193.273C302.262 193.273 306.019 197.03 306.019 200.583C306.019 204.135 305.392 204.967 305.392 204.967" stroke="#703372" stroke-width="1.06068" stroke-miterlimit="10" stroke-linecap="round"/>
<path d="M305.594 198.496C305.594 198.496 311.233 201.83 314.363 203.712C317.492 205.594 321.256 205.588 321.256 207.258C321.256 208.929 312.487 237.322 312.487 237.322" stroke="#703372" stroke-width="1.06068" stroke-miterlimit="10" stroke-linecap="round"/>
<path d="M309.147 207.885L307.061 216.238" stroke="#703372" stroke-width="1.06068" stroke-miterlimit="10" stroke-linecap="round"/>
<path d="M274.127 212.788L270.752 205.71" stroke="#703372" stroke-width="0.530341" stroke-miterlimit="10" stroke-linecap="round"/>
<path d="M274.128 214.813L269.068 211.779" stroke="#703372" stroke-width="0.530341" stroke-miterlimit="10" stroke-linecap="round"/>
<path d="M290.634 230.646L289.625 235.705" stroke="#703372" stroke-width="0.530341" stroke-miterlimit="10" stroke-linecap="round"/>
<path d="M317.929 207.06C317.929 207.06 312.877 208.069 308.158 213.797" stroke="#703372" stroke-width="0.530341" stroke-miterlimit="10" stroke-linecap="round"/>
<path d="M314.562 206.753C314.562 206.753 313.198 206.412 308.5 210.456" stroke="#703372" stroke-width="0.530341" stroke-miterlimit="10" stroke-linecap="round"/>
<path d="M290.634 208.41L288.615 224.243L290.299 224.584L291.65 219.532" stroke="#703372" stroke-width="0.530341" stroke-miterlimit="10" stroke-linecap="round"/>
<path d="M291.986 249.854C285.917 254.914 277.496 254.573 277.496 254.573" stroke="#703372" stroke-width="0.530341" stroke-miterlimit="10" stroke-linecap="round"/>
<path d="M266.34 222.355C266.34 222.355 262.215 218.577 256.371 223.384" stroke="#703372" stroke-width="0.530341" stroke-miterlimit="10" stroke-linecap="round"/>
<path d="M290.149 193.9C290.149 193.9 288.479 194.316 286.597 197.241C284.715 200.167 282.424 205.171 284.094 205.587C285.765 206.003 288.868 204.128 288.868 204.128" stroke="#703372" stroke-width="1.06068" stroke-miterlimit="10" stroke-linecap="round"/>
<path d="M296.623 204.967L298.71 206.842" stroke="#703372" stroke-width="1.06068" stroke-miterlimit="10" stroke-linecap="round"/>
<path d="M287.225 195.987C287.225 195.987 279.5 197.03 276.37 197.241C273.24 197.453 273.847 198.605 272.824 199.328C271.174 200.48 252.245 224.475 251.004 226.773C249.763 229.071 249.961 230.114 252.048 230.742C254.134 231.369 274.918 235.024 274.918 235.024L293.28 236.906L294.74 232.31C294.74 232.31 299.008 232.876 299.758 232.876" stroke="#703372" stroke-width="1.06068" stroke-miterlimit="10" stroke-linecap="round"/>
<path d="M292.652 230.619C288.599 229.443 284.682 227.844 280.965 225.846" stroke="#703372" stroke-width="1.06068" stroke-miterlimit="10" stroke-linecap="round"/>
<path d="M279.297 225.423C279.297 225.423 273.16 223.146 269.839 222.73C266.518 222.314 261.432 222.177 261.432 222.177" stroke="#703372" stroke-width="1.06068" stroke-miterlimit="10" stroke-linecap="round"/>
<path d="M273.656 222.709L274.284 206.215" stroke="#703372" stroke-width="1.06068" stroke-miterlimit="10" stroke-linecap="round"/>
<path d="M293.279 236.906C294.712 237.626 296.212 238.202 297.759 238.624" stroke="#703372" stroke-width="1.06068" stroke-miterlimit="10" stroke-linecap="round"/>
<path d="M20.074 223.616L22.5356 210.163L38.1163 204.026C38.1163 204.026 38.8732 199.846 39.6369 199.662C40.4006 199.478 41.1506 197.76 41.1506 197.76L40.7756 194.316C40.7756 194.316 42.2007 188.861 49.3672 193.109C49.3672 193.109 47.1988 194.555 47.5739 195.155C47.9489 195.755 47.1579 197.664 48.1057 197.664C49.0535 197.664 50.9696 198.871 51.9378 199.846C52.6155 200.574 53.2144 201.372 53.7243 202.226L61.7909 202.69C62.6177 202.696 63.4404 202.809 64.2388 203.024C64.3752 199.082 63.8911 196.075 62.9364 193.737C59.4657 185.295 53.1379 182.281 52.2311 178.054C51.3242 173.826 51.781 173.383 51.781 173.383C52.7031 172.445 53.3783 171.293 53.746 170.031C54.1137 168.768 54.1625 167.434 53.888 166.148C52.9879 161.627 49.5172 158.457 37.0049 157.856C24.4925 157.256 26.3063 165.841 26.3063 165.841L26.4563 166.441C26.4563 166.441 18.4648 169.169 19.9785 179.254C21.4923 189.338 25.8563 193.723 25.7063 196.887C25.5562 200.051 20.8786 201.258 14.244 208.479C7.60938 215.7 6.25928 226.562 8.97313 233.647C10.3369 237.131 13.003 240.036 16.351 242.204L20.074 223.616Z" fill="#703372"/>
<path d="M30.5196 224.946V227.987L24.7441 245.832C28.3531 246.787 32.1378 246.866 35.7836 246.064C37.8416 245.527 39.8087 244.689 41.6205 243.575L30.5196 224.946Z" fill="#703372"/>
<path d="M47.1245 195.046L47.8064 198.114C47.8064 198.114 49.852 196.069 53.8478 202.28C53.8478 202.28 62.153 202.083 64.4168 203.215C64.4168 203.215 64.8873 203.351 66.4215 204.981C67.9557 206.61 73.7243 211.799 73.7243 211.799C73.7243 211.799 81.1294 218.673 81.8659 219.205C82.6023 219.736 85.3639 222.375 87.4299 223.296L92.9667 210.688L95.4351 204.449L96.7989 199.314H97.2353L97.3307 195.175L96.9966 190.239C97.051 189.988 97.1656 189.754 97.3307 189.557C97.9024 188.764 98.3422 187.885 98.6331 186.952C98.6331 186.488 98.1626 183.747 98.1626 183.747C98.1626 183.747 97.9308 183.065 98.4353 182.983C98.9399 182.902 100.801 183.549 101.033 184.852L101.715 184.62C102.28 183.271 102.984 181.984 103.815 180.781C104.92 179.349 106.052 178.449 106.754 178.913C106.947 179.046 107.086 179.243 107.146 179.469C107.206 179.696 107.183 179.936 107.081 180.147L104.886 184.184C104.886 184.184 103.918 185.486 105.118 185.95C105.118 185.95 107.716 187.62 107.886 189.086C108.057 190.552 107.116 191.814 106.284 192.891C105.452 193.968 103.986 196.3 103.986 196.3L102.281 197.807L101.599 200.405L102.404 201.408L101.204 206.61L100.338 210.511L99.9014 212.877L97.1739 222.218L94.4464 230.36C94.4464 230.36 93.0417 235.024 89.6392 234.894C86.2367 234.765 82.5068 232.924 81.2999 232.324C80.093 231.724 70.1445 226.528 70.1445 226.528L68.0989 225.56C68.3719 226.491 68.4894 227.461 68.4466 228.43C68.4125 230.23 66.476 234.199 65.9101 235.099L65.576 242.136C65.4439 243.357 65.4668 244.589 65.6441 245.804C65.9442 247.639 67.4784 258.017 67.8125 259.312C67.8125 259.312 64.4986 262.312 54.6251 263.738C44.7516 265.163 40.1285 262.851 40.1285 262.851L35.7304 260.267L41.1513 249.555C41.1513 249.555 42.5151 246.37 42.3787 245.532C42.2423 244.693 39.9103 241.079 39.9103 241.079L31.3528 225.846L30.9505 225.982L29.6209 230.428L24.8137 245.504L18.4859 264.324C18.4859 264.324 16.754 269.097 16.038 270.509L14.0401 276.598C14.1511 277.685 14.4198 278.751 14.8379 279.762L9.8125 276.509L10.7058 271.736L11.8172 264.617L13.1809 256.878L14.381 250.475L16.2971 241.938L16.979 239.579L18.3427 232.91L20.7429 220.814L22.7885 210.456L37.1078 204.762L38.0011 204.081C38.1997 202.762 38.6837 201.503 39.4194 200.392C39.9299 199.66 40.5379 199.002 41.2263 198.435C41.2263 198.435 41.1581 197.541 41.1104 196.696C41.0627 195.85 40.8445 194.296 40.8445 194.296C40.8445 194.296 45.2698 196.198 47.1245 195.046Z" fill="white"/>
<path d="M27.9414 167.641C27.9414 167.641 30.5939 161.771 35.8988 161.771C41.2038 161.771 52.1888 172.19 52.1888 172.19" stroke="white" stroke-width="0.530341" stroke-miterlimit="10" stroke-linecap="round"/>
<path d="M30.2129 168.569C30.2129 168.569 33.4313 165.159 37.4135 166.482C41.3956 167.805 41.9615 172.544 41.9615 172.544" stroke="white" stroke-width="0.530341" stroke-miterlimit="10" stroke-linecap="round"/>
<path d="M27.5607 169.155C27.5607 169.155 22.8285 171.808 22.4467 176.738C22.0648 181.668 29.0745 187.532 30.0223 194.166C30.9701 200.801 26.047 202.308 18.0895 207.804C10.1321 213.3 11.4617 225.607 13.1664 228.26" stroke="white" stroke-width="0.530341" stroke-miterlimit="10" stroke-linecap="round"/>
<path d="M14.1133 229.78C14.1133 229.78 15.2452 232.242 16.9499 232.999" stroke="white" stroke-width="0.530341" stroke-miterlimit="10" stroke-linecap="round"/>
<path d="M28.1323 182.036C27.9082 182.517 27.8077 183.046 27.8398 183.576C27.872 184.106 28.0358 184.619 28.3164 185.07C29.2642 186.775 36.4989 195.298 35.8988 199.28C35.2988 203.262 31.5417 205.717 31.5417 205.717" stroke="white" stroke-width="0.530341" stroke-miterlimit="10" stroke-linecap="round"/>
<path d="M31.729 169.155C31.729 169.155 27.3718 171.051 27.5627 175.408C27.7537 179.765 28.7015 180.904 28.7015 180.904" stroke="white" stroke-width="0.530341" stroke-miterlimit="10" stroke-linecap="round"/>
<path d="M52.1895 183.57C53.5433 186.635 55.401 189.451 57.6853 191.902C61.0947 195.312 61.4697 200.242 61.4697 200.242" stroke="white" stroke-width="0.530341" stroke-miterlimit="10" stroke-linecap="round"/>
<path d="M56.166 194.35C56.166 194.35 57.8707 198.332 57.8707 200.794" stroke="white" stroke-width="0.530341" stroke-miterlimit="10" stroke-linecap="round"/>
<path d="M46.7363 195.407L41.3836 200.228C41.3836 200.228 40.8109 201.687 39.7335 204.026C38.6561 206.365 38.8334 210.845 38.8334 210.845L42.1337 217.411C42.1337 217.411 35.7855 210.129 35.4241 209.229C35.0627 208.329 28.4212 209.951 27.1666 210.49C25.912 211.029 24.2891 212.106 24.6505 213.722C25.0119 215.338 26.6279 217.486 25.9051 217.848C25.1824 218.209 23.2117 217.309 23.2117 218.386C23.2117 219.464 25.5506 223.596 24.4732 225.028C23.3959 226.46 16.5703 249.63 16.5703 249.63C16.5703 249.63 20.8797 246.036 19.8024 247.475C18.725 248.914 13.5224 260.58 13.5224 260.58L11.5449 267.399L16.2157 243.165L20.1638 222.709L22.5367 210.163C24.8278 209.399 38.1175 204.026 38.1175 204.026C38.1175 204.026 39.1675 199.607 41.1518 197.76L40.7768 194.316C40.7768 194.316 44.3975 195.584 46.7363 195.407Z" fill="#FE6B97"/>
<path opacity="0.5" d="M46.7363 195.407L41.3836 200.228C41.3836 200.228 40.8109 201.687 39.7335 204.026C38.6561 206.365 38.8334 210.845 38.8334 210.845L42.1337 217.411C42.1337 217.411 35.7855 210.129 35.4241 209.229C35.0627 208.329 28.4212 209.951 27.1666 210.49C25.912 211.029 24.2891 212.106 24.6505 213.722C25.0119 215.338 26.6279 217.486 25.9051 217.848C25.1824 218.209 23.2117 217.309 23.2117 218.386C23.2117 219.464 25.5506 223.596 24.4732 225.028C23.3959 226.46 16.5703 249.63 16.5703 249.63C16.5703 249.63 20.8797 246.036 19.8024 247.475C18.725 248.914 13.5224 260.58 13.5224 260.58L11.5449 267.399L16.2157 243.165L20.1638 222.709L22.5367 210.163C24.8278 209.399 38.1175 204.026 38.1175 204.026C38.1175 204.026 38.4038 199.935 41.1586 198.503L40.7768 194.316C40.7768 194.316 44.3975 195.584 46.7363 195.407Z" fill="white"/>
<path d="M66.6602 219.641C66.6602 219.641 69.8922 214.261 70.2536 215.515C70.615 216.77 69.3536 221.073 69.3536 221.073C69.3536 221.073 72.7629 219.818 72.4083 220.895C72.0538 221.973 71.331 222.511 71.5083 223.05C71.6856 223.589 83.3592 229.691 84.7979 230.407C86.2367 231.123 89.646 226.998 91.2621 228.253C92.8781 229.507 91.2621 233.81 88.03 233.817C84.7979 233.824 75.4631 229.726 75.4631 229.726L68.1125 225.45" fill="#FE6B97"/>
<path opacity="0.5" d="M66.6602 219.641C66.6602 219.641 69.8922 214.261 70.2536 215.515C70.615 216.77 69.3536 221.073 69.3536 221.073C69.3536 221.073 72.7629 219.818 72.4083 220.895C72.0538 221.973 71.331 222.511 71.5083 223.05C71.6856 223.589 83.3592 229.691 84.7979 230.407C86.2367 231.123 89.646 226.998 91.2621 228.253C92.8781 229.507 91.2621 233.81 88.03 233.817C84.7979 233.824 75.4631 229.726 75.4631 229.726L68.1398 225.464" fill="white"/>
<path d="M47.2754 241.365C47.2754 241.365 68.2634 230.237 64.854 234.362C61.4447 238.488 50.1461 243.165 47.2754 241.365Z" fill="#FE6B97"/>
<path opacity="0.5" d="M47.2754 241.365C47.2754 241.365 68.2634 230.237 64.854 234.362C61.4447 238.488 50.1461 243.165 47.2754 241.365Z" fill="white"/>
<path d="M40.7754 194.35C40.7754 194.35 40.9254 197.214 41.3823 200.228C41.8391 203.242 41.6823 203.242 44.5461 206.856C47.41 210.47 50.4239 213.49 50.8739 212.89" stroke="#703372" stroke-width="1.06068" stroke-miterlimit="10" stroke-linecap="round"/>
<path d="M51.0241 211.833C51.0241 211.833 51.3241 206.556 50.274 203.092C49.2239 199.628 47.7102 198.414 47.7102 197.637C47.6592 196.827 47.559 196.021 47.4102 195.223" stroke="#703372" stroke-width="1.06068" stroke-miterlimit="10" stroke-linecap="round"/>
<path d="M40.7748 198.721C39.5704 199.805 38.7278 201.233 38.361 202.812C37.911 205.219 37.4609 208.083 37.4609 208.083L42.1318 217.432C42.5384 215.804 43.1454 214.232 43.9387 212.754C44.3316 212.024 44.8406 211.363 45.4456 210.797" stroke="#703372" stroke-width="1.06068" stroke-miterlimit="10" stroke-linecap="round"/>
<path d="M52.0813 209.27C52.4111 209.187 52.754 209.171 53.09 209.223C53.426 209.274 53.7484 209.392 54.0383 209.57C55.2452 210.177 57.659 213.341 57.659 213.341C57.659 213.341 56.0021 205.499 53.1382 201.435C50.2743 197.371 48.3105 197.664 48.3105 197.664" stroke="#703372" stroke-width="1.06068" stroke-miterlimit="10" stroke-linecap="round"/>
<path d="M37.0061 204.599L22.5368 210.163C22.5368 210.163 17.2659 238.952 15.3021 246.636C13.3383 254.321 10.0312 276.032 10.0312 276.032L13.9452 276.782L15.3089 272.868" stroke="#703372" stroke-linecap="round" stroke-linejoin="round"/>
<path d="M16.0566 270.618C16.0566 270.618 16.9567 269.254 19.3705 261.753C21.7844 254.253 28.2349 235.842 29.319 232.208C30.4032 228.574 31.276 226.18 31.276 226.18" stroke="#703372" stroke-width="1.06068" stroke-miterlimit="10" stroke-linecap="round"/>
<path d="M28.7129 221.755C28.7129 221.755 40.9184 243.575 41.9753 244.516C43.0322 245.456 41.5253 247.979 41.2184 249.336" stroke="#703372" stroke-width="1.06068" stroke-miterlimit="10" stroke-linecap="round"/>
<path d="M39.869 252.077L35.9551 260.219C35.9551 260.219 38.5189 264.14 49.3675 264.14C55.8236 264.159 62.1873 262.605 67.9076 259.612C67.9076 259.612 65.3438 246.05 65.4938 243.636C65.6438 241.222 65.9506 234.894 65.9506 234.894C65.9506 234.894 68.6781 230.803 68.3576 227.66C68.0371 224.516 66.7007 220.875 66.7007 220.275C66.7007 219.675 66.4007 213.19 66.4007 213.19" stroke="#703372" stroke-width="1.06068" stroke-miterlimit="10" stroke-linecap="round"/>
<path d="M49.3477 238.679L60.1485 232.051" stroke="#703372" stroke-width="0.530341" stroke-miterlimit="10" stroke-linecap="round"/>
<path d="M55.0312 236.599L60.9022 233.19" stroke="#703372" stroke-width="0.530341" stroke-miterlimit="10" stroke-linecap="round"/>
<path d="M87.3528 223.439L85.1504 228.832" stroke="#703372" stroke-width="0.530341" stroke-miterlimit="10" stroke-linecap="round"/>
<path d="M86.4762 225.798L84.3965 227.885" stroke="#703372" stroke-width="0.530341" stroke-miterlimit="10" stroke-linecap="round"/>
<path d="M24.9075 244.938C24.9075 244.938 21.3073 249.104 18.8457 250.809" stroke="#703372" stroke-width="0.530341" stroke-miterlimit="10" stroke-linecap="round"/>
<path d="M22.829 246.07C22.829 246.07 16.5763 250.993 15.0625 252.132" stroke="#703372" stroke-width="0.530341" stroke-miterlimit="10" stroke-linecap="round"/>
<path d="M23.9414 211.022C25.8263 213.687 27.5346 216.473 29.0554 219.361" stroke="#703372" stroke-width="0.530341" stroke-miterlimit="10" stroke-linecap="round"/>
<path d="M29.6484 220.684L30.9713 222.955" stroke="#703372" stroke-width="0.530341" stroke-miterlimit="10" stroke-linecap="round"/>
<path d="M66.6992 220.275L68.3562 211.833" stroke="#703372" stroke-width="0.530341" stroke-miterlimit="10" stroke-linecap="round"/>
<path d="M67.3086 220.875L69.8656 217.261" stroke="#703372" stroke-width="0.530341" stroke-miterlimit="10" stroke-linecap="round"/>
<path d="M31.2776 226.152L24.043 222.232" stroke="#703372" stroke-width="0.530341" stroke-miterlimit="10" stroke-linecap="round"/>
<path d="M50.7227 213.64C50.7227 213.64 53.4501 219.095 54.3434 222.989" stroke="#703372" stroke-width="0.530341" stroke-miterlimit="10" stroke-linecap="round"/>
<path d="M95.4883 204.142C96.2097 204.089 96.9345 204.182 97.6188 204.417C98.3032 204.651 98.9331 205.021 99.4704 205.506" stroke="#703372" stroke-width="0.530341" stroke-miterlimit="10" stroke-linecap="round"/>
<path d="M12.6484 272.288L14.5168 272.984" stroke="#703372" stroke-width="0.530341" stroke-miterlimit="10" stroke-linecap="round"/>
<path d="M9.98134 276.304C10.0048 278.897 9.86815 281.488 9.57222 284.064C9.12218 287.235 9.27219 294.47 9.87224 296.727C10.4723 298.984 10.7791 299.454 11.3792 298.09C11.9792 296.727 13.793 288.749 13.793 288.749C13.793 288.749 14.093 294.019 15.45 293.569C16.8069 293.119 16.0568 290.556 16.0568 288.292C16.0568 286.028 16.2068 285.278 16.0568 283.471C15.9068 281.664 13.8953 277.198 13.8953 277.198" fill="white"/>
<path d="M9.98134 276.304C10.0048 278.897 9.86815 281.488 9.57222 284.064C9.12218 287.235 9.27219 294.47 9.87224 296.727C10.4723 298.984 10.7791 299.454 11.3792 298.09C11.9792 296.727 13.793 288.749 13.793 288.749C13.793 288.749 14.093 294.019 15.45 293.569C16.8069 293.119 16.0568 290.556 16.0568 288.292C16.0568 286.028 16.2068 285.278 16.0568 283.471C15.9068 281.664 13.8953 277.198 13.8953 277.198" stroke="#703372" stroke-miterlimit="10" stroke-linecap="round"/>
<path d="M97.2485 199.198C97.1799 197.865 97.1799 196.529 97.2485 195.196C97.3712 193.941 96.8735 192.066 96.9962 190.423C97.1189 188.779 98.7486 188.172 98.4963 186.045C98.244 183.918 97.7463 183.665 98.1213 183.167C98.4963 182.67 100.849 183.413 100.999 184.79C101.132 186.208 101.132 187.635 100.999 189.052C100.876 189.427 101.749 191.78 101.251 192.802C100.966 193.356 100.755 193.946 100.624 194.555" stroke="#703372" stroke-width="0.880843" stroke-miterlimit="10" stroke-linecap="round"/>
<path d="M101.504 184.681C101.504 184.681 104.381 178.926 106.011 178.796C107.641 178.667 107.136 180.16 106.632 180.924C106.127 181.688 104.504 184.429 104.381 185.561C104.259 186.693 102.752 190.436 102.752 190.436" stroke="#703372" stroke-width="0.880843" stroke-miterlimit="10" stroke-linecap="round"/>
<path d="M104.401 185.561C104.401 185.561 108.785 188.186 107.81 190.334C106.835 192.482 106.303 193.341 105.553 193.061C104.888 192.722 104.294 192.259 103.801 191.698" stroke="#703372" stroke-width="0.880843" stroke-miterlimit="10" stroke-linecap="round"/>
<path d="M106.012 193.068C106.012 193.068 104.88 194.944 104.007 196.075C103.505 196.729 102.91 197.306 102.241 197.787L101.709 199.635" stroke="#703372" stroke-width="0.880843" stroke-miterlimit="10" stroke-linecap="round"/>
<path d="M53.4395 202.185C53.4395 202.185 63.838 202.035 65.1949 203.692C66.5518 205.349 82.985 220.425 84.9692 221.782C86.9534 223.139 87.383 223.439 87.383 223.439C87.383 223.439 95.5178 205.028 95.5178 204.142C95.5178 203.255 96.8815 199.171 96.8815 199.171C96.8815 199.171 99.4453 199.471 100.052 199.471C100.659 199.471 102.309 201.435 102.309 201.435C102.309 201.435 100.052 210.626 100.052 211.663C100.052 212.699 95.8314 227.039 93.8676 231.437C91.9038 235.835 89.1968 235.201 84.826 233.844C80.4552 232.487 68.5497 225.709 68.5497 225.709" stroke="#703372" stroke-width="1.06068" stroke-miterlimit="10" stroke-linecap="round"/>
<path d="M35.9545 260.219C35.9545 260.219 29.9199 275.316 28.2902 285.591C26.6606 295.867 27.3561 319.896 26.8856 322.467C26.4151 325.038 19.8828 337.168 19.8828 343.005C19.8828 348.842 16.3848 378.946 16.3848 378.946L18.7168 380.344C18.7168 380.344 26.8992 355.115 29.9199 348.603C32.9406 342.091 37.1546 326.667 38.3206 323.633C39.4866 320.599 47.6622 296.324 48.1259 293.29C48.5896 290.255 51.3921 282.789 51.3921 282.789C51.3921 282.789 57.4607 319.896 58.6267 327.602C59.7927 335.307 67.9615 377.078 67.9615 377.078C68.498 377.209 69.0462 377.287 69.598 377.31C70.2799 377.31 70.5322 376.144 70.5322 376.144C70.5322 376.144 73.7984 346.503 72.8642 338.566C71.93 330.629 69.1344 320.837 69.1344 318.028C69.1344 315.219 73.3347 290.958 73.3347 282.571C73.3347 274.184 67.8797 259.626 67.8797 259.626C67.8797 259.626 48.5214 269.39 35.9545 260.219Z" fill="#703372"/>
<path d="M69.0462 319.569C69.0462 319.569 66.9665 328.475 64.123 333.207" stroke="white" stroke-width="0.530341" stroke-miterlimit="10" stroke-linecap="round"/>
<path d="M68.4793 328.665C68.4793 328.665 66.7746 335.102 63.3652 338.136" stroke="white" stroke-width="0.530341" stroke-miterlimit="10" stroke-linecap="round"/>
<path d="M28.1328 325.822C28.1328 325.822 29.4556 333.588 30.9694 336.807" stroke="white" stroke-width="0.530341" stroke-miterlimit="10" stroke-linecap="round"/>
<path d="M27.752 330.37C27.752 330.37 28.8907 335.866 30.9704 339.084" stroke="white" stroke-width="0.530341" stroke-miterlimit="10" stroke-linecap="round"/>
<path d="M51.998 282.823L59.5736 276.57" stroke="white" stroke-width="0.530341" stroke-miterlimit="10" stroke-linecap="round"/>
<path d="M55.5977 280.171L64.5029 276.188" stroke="white" stroke-width="0.530341" stroke-miterlimit="10" stroke-linecap="round"/>
<path d="M36.082 269.561C36.082 269.561 41.9598 273.345 45.3691 276.57" stroke="white" stroke-width="0.530341" stroke-miterlimit="10" stroke-linecap="round"/>
<path d="M16.63 378.926C16.63 378.926 7.76562 386.427 7.76562 390.15C7.76562 393.873 11.2636 393.648 15.0003 390.15C18.7369 386.652 18.9279 379.444 18.9279 379.444L16.63 378.926Z" fill="white" stroke="#703372" stroke-width="1.06068" stroke-miterlimit="10" stroke-linecap="round"/>
<path d="M67.9609 377.078C67.9609 377.078 70.9953 384.545 74.2682 387.818C77.5412 391.091 79.4027 392.25 79.4027 388.745C79.4027 385.24 77.3026 381.279 70.5384 376.144C70.5316 376.144 72.3999 377.542 67.9609 377.078Z" fill="white" stroke="#703372" stroke-width="1.06068" stroke-miterlimit="10" stroke-linecap="round"/>
<path d="M36.6507 170.41C36.0438 170.185 35.471 169.912 34.8778 169.66C34.2846 169.407 33.2004 169.271 32.7913 171.132C32.1844 173.86 36.4052 176.11 35.0483 178.367C34.2041 179.74 32.9354 180.801 31.4343 181.388C31.19 181.472 30.9354 181.522 30.6775 181.538C29.4706 181.688 27.5136 181.538 28.1136 183.645C28.7137 185.752 30.6775 187.565 31.8844 187.565H33.0913C33.0913 187.565 34.455 191.657 39.5691 193.893C44.6831 196.13 48.1606 196.007 49.3676 193.143C50.5745 190.279 51.4814 187.866 51.4814 184.095C51.4814 180.324 50.1176 173.996 50.1176 173.996C50.1176 173.996 48.9107 175.66 44.2399 173.546C41.151 172.148 38.2599 171.016 36.6507 170.41Z" fill="white"/>
<g style="mix-blend-mode:multiply" opacity="0.5">
<path d="M44.2477 173.546C44.2477 173.546 37.0403 173.144 35.9629 173.321C34.8856 173.498 36.1402 176.73 35.7856 179.962C35.4311 183.195 35.6015 188.404 37.0403 190.02C38.7381 191.686 40.5371 193.246 42.4271 194.691C42.4271 194.691 36.8971 193.798 34.8856 191.459C32.874 189.12 32.5536 187.865 32.5536 187.865C32.5536 187.865 27.8827 185.138 27.5213 183.017C27.16 180.897 30.2488 182.022 31.7285 180.972C32.5604 180.399 36.0038 179.321 35.1379 176.451C34.2719 173.58 32.874 173.041 32.8195 171.119C32.7786 169.755 33.9787 169.359 34.7151 169.237C35.0471 169.181 35.3883 169.231 35.6902 169.38L44.2477 173.546Z" fill="#FE6B97"/>
</g>
<path d="M36.6507 170.41C36.0438 170.185 35.471 169.912 34.8778 169.66C34.2846 169.407 33.2004 169.271 32.7913 171.132C32.1844 173.86 36.4052 176.11 35.0483 178.367C34.2041 179.74 32.9354 180.801 31.4343 181.388C31.19 181.472 30.9354 181.522 30.6775 181.538C29.4706 181.688 27.5136 181.538 28.1136 183.645C28.7137 185.752 30.6775 187.565 31.8844 187.565H33.0913C33.0913 187.565 34.455 191.657 39.5691 193.893C44.6831 196.13 48.1606 196.007 49.3676 193.143C50.5745 190.279 51.4814 187.866 51.4814 184.095C51.4814 180.324 50.1176 173.996 50.1176 173.996C50.1176 173.996 48.9107 175.66 44.2399 173.546C41.151 172.148 38.2599 171.016 36.6507 170.41Z" stroke="#703372" stroke-width="1.06068" stroke-miterlimit="10" stroke-linecap="round"/>
<path d="M41.9752 179.342C42.0707 179.915 41.9139 180.42 41.6207 180.467C41.3275 180.515 41.0274 180.086 40.9388 179.513C40.8502 178.94 41.007 178.429 41.2934 178.381C41.5798 178.333 41.8798 178.797 41.9752 179.342Z" fill="#703372"/>
<path d="M48.2161 178.299C48.3048 178.872 48.1479 179.376 47.8616 179.424C47.5752 179.472 47.2683 179.042 47.1797 178.469C47.091 177.897 47.2411 177.392 47.5274 177.344C47.8138 177.296 48.1207 177.726 48.2161 178.299Z" fill="#703372"/>
<path d="M38.3633 176.56C38.7448 175.993 39.2623 175.53 39.8686 175.215C40.4749 174.899 41.1506 174.74 41.834 174.753" stroke="#703372" stroke-width="1.06068" stroke-miterlimit="10" stroke-linecap="round"/>
<path d="M46.5039 175.203C47.0831 175.001 47.7102 174.979 48.302 175.141C48.8938 175.303 49.4224 175.641 49.8178 176.11" stroke="#703372" stroke-width="1.06068" stroke-miterlimit="10" stroke-linecap="round"/>
<path d="M45.9014 177.767C45.8181 178.72 45.8181 179.678 45.9014 180.631C46.0514 181.838 46.9515 182.138 46.6515 183.045C46.3514 183.952 45.1445 183.945 45.1445 183.945" stroke="#703372" stroke-width="1.06068" stroke-miterlimit="10" stroke-linecap="round"/>
<path d="M43.6389 187.566C43.1224 187.688 42.5858 187.697 42.0656 187.592C41.5454 187.487 41.054 187.271 40.625 186.959" stroke="#703372" stroke-width="1.06068" stroke-miterlimit="10" stroke-linecap="round"/>
<defs>
<filter id="filter0_d_210_3377" x="198.895" y="0.106201" width="49" height="49" filterUnits="userSpaceOnUse" color-interpolation-filters="sRGB">
<feFlood flood-opacity="0" result="BackgroundImageFix"/>
<feColorMatrix in="SourceAlpha" type="matrix" values="0 0 0 0 0 0 0 0 0 0 0 0 0 0 0 0 0 0 127 0" result="hardAlpha"/>
<feOffset dx="2" dy="2"/>
<feGaussianBlur stdDeviation="5"/>
<feComposite in2="hardAlpha" operator="out"/>
<feColorMatrix type="matrix" values="0 0 0 0 0 0 0 0 0 0 0 0 0 0 0 0 0 0 0.2 0"/>
<feBlend mode="normal" in2="BackgroundImageFix" result="effect1_dropShadow_210_3377"/>
<feBlend mode="normal" in="SourceGraphic" in2="effect1_dropShadow_210_3377" result="shape"/>
</filter>
<filter id="filter1_d_210_3377" x="113.105" y="448.105" width="49" height="49" filterUnits="userSpaceOnUse" color-interpolation-filters="sRGB">
<feFlood flood-opacity="0" result="BackgroundImageFix"/>
<feColorMatrix in="SourceAlpha" type="matrix" values="0 0 0 0 0 0 0 0 0 0 0 0 0 0 0 0 0 0 127 0" result="hardAlpha"/>
<feOffset dx="2" dy="2"/>
<feGaussianBlur stdDeviation="5"/>
<feComposite in2="hardAlpha" operator="out"/>
<feColorMatrix type="matrix" values="0 0 0 0 0 0 0 0 0 0 0 0 0 0 0 0 0 0 0.2 0"/>
<feBlend mode="normal" in2="BackgroundImageFix" result="effect1_dropShadow_210_3377"/>
<feBlend mode="normal" in="SourceGraphic" in2="effect1_dropShadow_210_3377" result="shape"/>
</filter>
</defs>
</svg>
