<svg width="355" height="483" viewBox="0 0 355 483" fill="none" xmlns="http://www.w3.org/2000/svg">
<g filter="url(#filter0_d_210_3375)">
<circle cx="197.5" cy="178.5" r="14.5" fill="white"/>
</g>
<g clip-path="url(#clip0_210_3375)">
<path d="M197.499 165.583C204.633 165.583 210.415 171.366 210.415 178.5C210.415 185.634 204.633 191.417 197.499 191.417C190.365 191.417 184.582 185.634 184.582 178.5C184.582 171.366 190.365 165.583 197.499 165.583ZM197.499 170.75C197.182 170.75 196.877 170.866 196.641 171.077C196.404 171.287 196.253 171.577 196.216 171.891L196.207 172.042V173.333H194.915C194.076 173.331 193.269 173.656 192.665 174.239C192.061 174.822 191.708 175.618 191.68 176.457C191.653 177.296 191.953 178.112 192.517 178.734C193.082 179.355 193.866 179.732 194.704 179.785L194.915 179.792H196.207V181.083H193.624C193.294 181.084 192.978 181.21 192.738 181.436C192.499 181.662 192.355 181.971 192.336 182.299C192.316 182.628 192.423 182.952 192.635 183.204C192.846 183.457 193.146 183.619 193.473 183.658L193.624 183.667H196.207V184.958C196.207 185.288 196.333 185.604 196.559 185.844C196.785 186.083 197.094 186.227 197.423 186.247C197.752 186.266 198.075 186.159 198.328 185.948C198.58 185.736 198.742 185.437 198.781 185.11L198.79 184.958V183.667H200.082C200.921 183.669 201.729 183.344 202.333 182.761C202.937 182.178 203.29 181.383 203.317 180.544C203.345 179.705 203.045 178.888 202.48 178.267C201.916 177.645 201.132 177.268 200.294 177.215L200.082 177.208H198.79V175.917H201.374C201.703 175.916 202.02 175.79 202.259 175.564C202.498 175.338 202.642 175.03 202.662 174.701C202.681 174.372 202.574 174.049 202.363 173.796C202.151 173.544 201.852 173.381 201.525 173.343L201.374 173.333H198.79V172.042C198.79 171.699 198.654 171.371 198.412 171.128C198.17 170.886 197.841 170.75 197.499 170.75ZM200.082 179.792C200.253 179.792 200.418 179.86 200.539 179.981C200.66 180.102 200.728 180.266 200.728 180.438C200.728 180.609 200.66 180.773 200.539 180.894C200.418 181.015 200.253 181.083 200.082 181.083H198.79V179.792H200.082ZM196.207 175.917V177.208H194.915C194.744 177.208 194.58 177.14 194.459 177.019C194.338 176.898 194.27 176.734 194.27 176.563C194.27 176.391 194.338 176.227 194.459 176.106C194.58 175.985 194.744 175.917 194.915 175.917H196.207Z" fill="#7DD30F"/>
</g>
<g filter="url(#filter1_d_210_3375)">
<circle cx="148.5" cy="22.5" r="14.5" fill="#E2A122"/>
<circle cx="148.5" cy="22.5" r="14" stroke="white"/>
</g>
<path d="M144 24.75L141.5 27.2V20.1667H144M148.167 23.2167L146.858 22.1L145.667 23.2V16.8333H148.167M152.333 21.8333L149.833 24.3333V13.5H152.333M154.675 21.675L153.167 20.1667H157.333V24.3333L155.842 22.8417L149.833 28.8L146.942 26.2833L143.792 29.3333H141.5L146.892 24.05L149.833 26.5333" fill="white"/>
<g filter="url(#filter2_d_210_3375)">
<circle cx="328.5" cy="142.5" r="14.5" fill="#703372"/>
<circle cx="328.5" cy="142.5" r="14" stroke="white"/>
</g>
<path d="M321.656 137.188H332.281C332.563 137.188 332.833 137.299 333.033 137.499C333.232 137.698 333.344 137.968 333.344 138.25V146.219C333.344 146.36 333.4 146.495 333.499 146.594C333.599 146.694 333.734 146.75 333.875 146.75C334.016 146.75 334.151 146.694 334.251 146.594C334.35 146.495 334.406 146.36 334.406 146.219V139.844C334.406 139.703 334.462 139.568 334.562 139.468C334.661 139.368 334.797 139.312 334.938 139.312C335.078 139.312 335.214 139.368 335.313 139.468C335.413 139.568 335.469 139.703 335.469 139.844V146.219C335.469 146.641 335.301 147.047 335.002 147.346C334.703 147.645 334.298 147.812 333.875 147.812H322.188C321.765 147.811 321.361 147.642 321.062 147.344C320.764 147.045 320.595 146.641 320.594 146.219V138.25C320.594 137.968 320.706 137.698 320.905 137.499C321.104 137.299 321.374 137.188 321.656 137.188V137.188ZM324.312 144.094H329.625C329.766 144.094 329.901 144.038 330.001 143.938C330.1 143.839 330.156 143.703 330.156 143.562C330.156 143.422 330.1 143.286 330.001 143.187C329.901 143.087 329.766 143.031 329.625 143.031H324.312C324.172 143.031 324.036 143.087 323.937 143.187C323.837 143.286 323.781 143.422 323.781 143.562C323.781 143.703 323.837 143.839 323.937 143.938C324.036 144.038 324.172 144.094 324.312 144.094ZM324.312 141.969H329.625C329.766 141.969 329.901 141.913 330.001 141.813C330.1 141.714 330.156 141.578 330.156 141.438C330.156 141.297 330.1 141.161 330.001 141.062C329.901 140.962 329.766 140.906 329.625 140.906H324.312C324.172 140.906 324.036 140.962 323.937 141.062C323.837 141.161 323.781 141.297 323.781 141.438C323.781 141.578 323.837 141.714 323.937 141.813C324.036 141.913 324.172 141.969 324.312 141.969Z" fill="white"/>
<circle cx="230.5" cy="80.5" r="6.5" fill="#E25822"/>
<circle cx="295.5" cy="222.5" r="4.5" fill="#5CD822"/>
<path d="M282.611 301.209L294.253 309.862L212.755 359.626L198.096 387.32L104.521 421.936L7.0957 486.438H64.381L125.653 440.107L218.791 405.923L235.178 375.632L313.657 321.545L330.044 334.096L348.588 288.657V283.441L282.611 301.209Z" fill="#252253" stroke="#252253" stroke-linecap="round" stroke-linejoin="round"/>
<path d="M282.611 295.987L294.253 304.64L212.756 354.404L198.096 382.098L104.521 416.714L1.32617 486.438H58.5832L125.653 434.891L218.792 400.707L235.178 370.416L313.658 316.329L330.044 328.875L348.588 283.441L282.611 295.987Z" fill="white" stroke="#252253" stroke-linecap="round" stroke-linejoin="round"/>
<path d="M213.004 395.207L214.912 396.809" stroke="#252253" stroke-linecap="round" stroke-linejoin="round"/>
<path d="M201.547 385.559L210.635 393.213" stroke="#252253" stroke-linecap="round" stroke-linejoin="round"/>
<path d="M216.207 355.705L222.243 360.029" stroke="#252253" stroke-linecap="round" stroke-linejoin="round"/>
<path d="M122.635 433.158L105.314 420.947" stroke="#252253" stroke-linecap="round" stroke-linejoin="round"/>
<path d="M282.611 301.208V295.987L294.253 304.64L290.42 307.027L282.611 301.208Z" fill="white" stroke="#252253" stroke-linecap="round" stroke-linejoin="round"/>
<path d="M330.043 334.096V328.875L313.656 316.329V321.545L330.043 334.096Z" fill="white" stroke="#252253" stroke-miterlimit="10"/>
<path d="M132.626 326.613L129.229 333.022C129.229 333.022 130.05 334.108 130.361 333.932C130.672 333.755 132.343 330.852 132.343 330.852L131.006 335.812C131.006 335.812 131.544 336.67 131.878 336.295C132.213 335.92 133.43 332.369 133.736 332.318C134.041 332.267 134.761 330.983 134.761 330.983L133.526 335.011C133.526 335.011 133.062 336.903 133.883 336.773C134.704 336.642 134.761 334.812 134.761 334.812L136.505 332.125L135.853 335.011C135.853 335.011 136.986 335.818 137.161 335.125C137.337 334.432 137.954 331.716 137.954 331.716C137.954 331.716 140.785 328.306 141.114 327.926C141.442 327.545 143.112 323.431 143.112 323.431L140.587 319.863L132.626 326.613Z" fill="white" stroke="#252253" stroke-linecap="round" stroke-linejoin="round"/>
<path d="M140.116 320.658L133.389 322.414C133.389 322.414 131.345 327.414 130.762 328.278C130.179 329.142 130.881 329.306 131.928 328.886C132.976 328.465 134.793 326.09 134.793 326.09C134.793 326.09 137.993 326.568 139.051 324.829" fill="white"/>
<path d="M140.116 320.658L133.389 322.414C133.389 322.414 131.345 327.414 130.762 328.278C130.179 329.142 130.881 329.306 131.928 328.886C132.976 328.465 134.793 326.09 134.793 326.09C134.793 326.09 137.993 326.568 139.051 324.829" stroke="#252253" stroke-linecap="round" stroke-linejoin="round"/>
<path d="M134.047 328.966L136.935 330.636" stroke="#252253" stroke-linecap="round" stroke-linejoin="round"/>
<path d="M181.405 265.235L195.397 301.067L196.631 304.947C196.631 304.947 183.16 310.595 180.363 311.044C179.058 311.223 177.767 311.498 176.502 311.868L162.408 276.401L167.187 268.764L178.636 263.985L181.405 265.235Z" fill="white" stroke="#252253" stroke-linecap="round" stroke-linejoin="round"/>
<path d="M181.486 284.043L188.072 304.845" stroke="#252253" stroke-linecap="round" stroke-linejoin="round"/>
<path d="M177.804 384.155C177.607 386.022 177.314 387.876 176.926 389.712C176.496 391.286 175.125 395.593 175.329 396.718C175.533 397.843 176.626 402.662 177.294 403.02C177.962 403.378 178.959 403.463 179.502 403.02C180.046 402.577 182.809 397.167 183.069 395.281C183.33 393.394 183.154 387.241 183.194 386.758C183.234 386.275 177.804 384.155 177.804 384.155Z" fill="#252253" stroke="#252253" stroke-linecap="round" stroke-linejoin="round"/>
<path d="M236.835 348.995C236.835 348.995 241.365 351.097 241.965 351.148C242.565 351.2 247.729 351.717 247.729 351.717C247.729 351.717 252.01 350.876 252.678 351.234C253.346 351.592 253.114 353.183 253.114 353.183C253.114 353.183 244.502 357.774 243.279 358.069C242.056 358.365 240.589 357.842 239.768 358.069L238.947 358.302L239.638 359.569L234.491 362.348C234.491 362.348 232.226 359.734 232.135 358.223C232.045 356.711 231.988 354.086 231.988 354.086L231.252 351.001L236.835 348.995Z" fill="#252253" stroke="#252253" stroke-linecap="round" stroke-linejoin="round"/>
<path d="M180.223 264.394C180.223 264.394 189.849 289.049 191.672 292.844C193.495 296.64 195.114 301.22 196.519 302.407C197.923 303.595 192.9 289.839 192.425 287.134C191.949 284.429 192.023 279.372 192.023 279.372L234.331 264.809L232.746 259.519L197.413 263.764C197.413 263.764 190.222 262.968 188.716 263.019C187.21 263.07 180.223 264.394 180.223 264.394Z" fill="#E92C79" stroke="#252253" stroke-linecap="round" stroke-linejoin="round"/>
<path d="M183.433 263.809C181.695 264.116 180.223 264.377 180.223 264.377C180.223 264.377 186.961 281.588 190.228 289.463C189.956 284.931 189.291 280.431 188.24 276.014C187.071 271.787 185.459 267.696 183.433 263.809V263.809Z" fill="#E92C79" stroke="#252253" stroke-linecap="round" stroke-linejoin="round"/>
<path d="M193.32 268.383L192.023 279.372L195.398 268.917" stroke="#252253" stroke-linecap="round" stroke-linejoin="round"/>
<path d="M232.746 259.519L235.345 259.121L236.37 263.741L234.332 264.803L232.746 259.519Z" fill="white" stroke="#252253" stroke-linecap="round" stroke-linejoin="round"/>
<path d="M244.665 257.792C244.665 257.792 246.845 258.156 246.8 258.684C246.754 259.213 245.979 262.093 245.979 262.093C244.934 262.355 243.841 262.355 242.796 262.093C241.42 261.622 240.973 260.605 241.319 259.656C241.664 258.707 244.665 257.792 244.665 257.792Z" fill="white" stroke="#252253" stroke-linecap="round" stroke-linejoin="round"/>
<path d="M243.074 258.809L244.875 259.496L244.682 261.701" stroke="#252253" stroke-linecap="round" stroke-linejoin="round"/>
<path d="M242.412 259.286L243.482 260.264C243.546 260.527 243.546 260.802 243.482 261.065" stroke="#252253" stroke-linecap="round" stroke-linejoin="round"/>
<path d="M235.352 259.121L242.146 257.57C242.146 257.57 248.664 254.848 248.896 255.223C249.029 255.389 249.093 255.599 249.075 255.811C249.057 256.023 248.958 256.219 248.799 256.36C248.414 256.684 243.664 258.405 243.103 258.803C242.543 259.201 242.192 260.144 242.594 260.627C242.831 260.961 243.144 261.234 243.508 261.423C243.871 261.612 244.274 261.711 244.683 261.712C245.668 261.616 248.08 261.292 248.143 261.656C248.205 262.019 248.426 262.479 247.576 262.792C246.727 263.105 245.436 262.962 244.808 263.087C244.179 263.212 241.637 263.968 240.668 263.883C239.783 263.747 238.912 263.524 238.069 263.218L236.342 263.786L235.352 259.121Z" fill="white" stroke="#252253" stroke-linecap="round" stroke-linejoin="round"/>
<path d="M194.582 301.14C194.582 301.14 201.659 314.948 202.214 314.959C202.769 314.97 209.179 310.123 209.349 309.902C209.519 309.68 200.81 304.686 198.353 302.117C195.895 299.549 193.727 296.702 193.727 296.702L194.582 301.14Z" fill="#E92C79" stroke="#252253" stroke-linecap="round" stroke-linejoin="round"/>
<path d="M196.632 304.947L200.029 310.891C200.029 310.891 217.792 308.839 223.811 308.436C229.83 308.033 231.953 308.675 231.953 308.675L237.933 348.978L228.38 353.228L219.451 323.079C219.451 323.079 199.565 328.517 196.66 328.846C195.202 328.977 193.758 329.237 192.346 329.625C192.346 329.625 186.864 366.871 186.445 371.791C186.026 376.712 186.06 385.712 186.06 385.712L183.309 388.36C183.309 388.36 177.369 385.195 177.08 384.707C176.791 384.218 173.779 338.523 173.779 338.523L172.646 320.67L176.497 311.891L196.632 304.947Z" fill="#E92C79" stroke="#252253" stroke-linecap="round" stroke-linejoin="round"/>
<path d="M178.7 313.084L197.47 306.606L196.632 304.947L178.434 311.152L178.7 313.084Z" fill="#252253" stroke="#252253" stroke-linecap="round" stroke-linejoin="round"/>
<path d="M186.586 308.34L187.464 310.448L191.671 308.953L190.878 306.93L186.586 308.34Z" fill="white" stroke="#252253" stroke-linecap="round" stroke-linejoin="round"/>
<path d="M182.606 347.358L182.566 345.069" stroke="#252253" stroke-linecap="round" stroke-linejoin="round"/>
<path d="M183.311 388.337L182.648 349.768" stroke="#252253" stroke-linecap="round" stroke-linejoin="round"/>
<path d="M192.346 329.602C192.346 329.602 193.45 321.942 195.715 317.397" stroke="#252253" stroke-linecap="round" stroke-linejoin="round"/>
<path d="M196.848 313.834C196.848 313.834 193.559 319.232 193.055 320.408" stroke="#252253" stroke-linecap="round" stroke-linejoin="round"/>
<path d="M225.477 321.147L227.113 320.63" stroke="#252253" stroke-linecap="round" stroke-linejoin="round"/>
<path d="M219.451 323.056L223.788 321.681" stroke="#252253" stroke-linecap="round" stroke-linejoin="round"/>
<path d="M175.898 278.253L180.706 281.304L182.218 274.219L176.793 272.537L175.898 278.253Z" fill="#252253" stroke="#252253" stroke-linecap="round" stroke-linejoin="round"/>
<path d="M178.06 275.35L173.961 284.384L168.52 269.793L180.223 264.395L186.667 276.634L178.06 275.35Z" fill="white" stroke="#252253" stroke-linecap="round" stroke-linejoin="round"/>
<path d="M141.815 318.323L139.596 320.652L143.129 324.636L144.273 322.834L141.815 318.323Z" stroke="#252253" stroke-linecap="round" stroke-linejoin="round"/>
<path d="M167.189 268.764L153.815 279.327L152.467 306.953L141.143 318.886L144.461 323.943L160.881 310.925L163.112 295.191L166.221 304.169L162.625 326.113C165.102 327.095 167.636 327.924 170.213 328.596C173.978 329.528 178.791 328.926 178.791 328.926L179.618 302.578L169.075 268.344L167.189 268.764Z" fill="#E92C79" stroke="#252253" stroke-linecap="round" stroke-linejoin="round"/>
<path d="M167.72 308.368L177.357 309.3V313.022L167.533 311.533" fill="#E92C79"/>
<path d="M167.72 308.368L177.357 309.3V313.022L167.533 311.533" stroke="#252253" stroke-linecap="round" stroke-linejoin="round"/>
<path d="M169.051 268.315L167.188 268.764L164.748 270.69C165.872 274.921 167.33 279.055 169.108 283.054C171.158 287.6 175.036 292.861 177.601 296.123L169.051 268.315Z" fill="#E92C79" stroke="#252253" stroke-linecap="round" stroke-linejoin="round"/>
<path d="M180.704 281.304L171.316 289.259L153.893 286.946L145.643 293.452L143.865 297.669L150.96 298.805L157.653 291.555C157.653 291.555 171.112 294.038 171.843 293.793C172.573 293.549 179.77 283.708 179.77 283.708L180.704 281.304Z" fill="#252253" stroke="#252253" stroke-linecap="round" stroke-linejoin="round"/>
<path d="M160.937 250.627C160.937 250.627 158.519 251.326 157.404 249.877C156.288 248.428 155.552 246.553 156.537 246.865C157.369 247.183 158.164 247.588 158.91 248.075C158.91 248.075 158.531 244.666 159.329 244.496C160.127 244.325 160.461 245.837 160.461 245.837C160.461 245.837 163.938 243.314 167.822 242.854C171.707 242.393 177.448 244.587 178.286 245.445C179.124 246.303 178.564 254.047 178.4 254.598C178.235 255.15 177.907 256.473 177.307 256.871C176.706 257.269 175.314 257.826 174.583 257.201C173.853 256.576 173.926 255.678 172.596 255.451C171.265 255.223 168.004 255.167 167.788 253.792C167.573 252.416 169.011 249.95 167.664 249.945C166.316 249.939 162.953 251.121 162.052 251.155C161.152 251.189 160.937 250.627 160.937 250.627Z" fill="#252253" stroke="#252253" stroke-linecap="round" stroke-linejoin="round"/>
<path d="M160.938 250.627V257.513L162.308 259.326L161.742 265.826L164.573 265.616C164.573 265.616 166.458 271.196 167.007 271.355C167.557 271.514 169.935 270.025 169.935 270.025C169.935 270.025 177.664 275.656 178.026 275.349C178.389 275.043 179.889 265.355 180.144 265.037C180.399 264.718 179.012 259.639 179.012 259.639C179.012 259.639 180.11 257.366 179.804 255.661C179.498 253.956 178.955 253.78 178.955 253.78C178.955 253.78 177.771 253.116 177.381 253.78C176.99 254.445 175.801 256.468 175.801 256.468L174.074 254.286C174.074 254.286 169.165 253.866 169.221 253.189C169.278 252.513 170.354 249.115 170.048 248.746C169.742 248.377 163.922 248.644 160.938 250.627Z" fill="white" stroke="#252253" stroke-linecap="round" stroke-linejoin="round"/>
<path d="M167.589 258.792C167.816 259.36 167.77 259.928 167.487 260.031C167.204 260.133 166.791 259.775 166.559 259.207C166.326 258.638 166.377 258.07 166.661 257.974C166.944 257.877 167.357 258.224 167.589 258.792Z" fill="#252253"/>
<path d="M163.541 258.138C163.541 258.138 165.183 261.621 166.18 261.894C167.176 262.167 170.002 261.57 170.364 260.582C170.726 259.593 169.73 256.076 169.73 256.076L163.541 258.138Z" stroke="#252253" stroke-linecap="round" stroke-linejoin="round"/>
<path d="M169.73 256.076L177.431 253.74" stroke="#252253" stroke-linecap="round" stroke-linejoin="round"/>
<path d="M163.543 258.138L158.656 260.133C158.656 260.133 159.76 262.366 161.635 262.059" stroke="#252253" stroke-linecap="round" stroke-linejoin="round"/>
<path d="M167.969 264.923C167.969 264.923 170.675 264.599 171.259 262.144" stroke="#252253" stroke-linecap="round" stroke-linejoin="round"/>
<path d="M169.969 270.025C169.969 270.025 174.051 267.213 174.55 266.792C175.048 266.372 175.552 264.832 175.552 264.832C175.552 264.832 174.986 269.519 174.6 270.514C174.215 271.508 173.779 272.576 173.779 272.576L169.969 270.025Z" fill="#252253" stroke="#252253" stroke-linecap="round" stroke-linejoin="round"/>
<path d="M179.062 259.639C179.062 259.639 178.433 261.372 177.408 261.468" stroke="#252253" stroke-linecap="round" stroke-linejoin="round"/>
<path d="M165.059 256.598C165.393 256.092 165.877 255.703 166.442 255.486C167.008 255.269 167.627 255.235 168.212 255.388" stroke="#252253" stroke-linecap="round" stroke-linejoin="round"/>
<path d="M117.459 338.085L118.71 334.784L121.315 332.312C121.315 332.312 122.221 330.659 122.77 330.994C123.319 331.329 122.997 331.687 122.77 332.341C122.357 333.038 121.85 333.674 121.264 334.233C121.264 334.233 126.36 330.824 126.643 330.75C126.926 330.676 127.776 331.227 127.323 331.773C126.87 332.318 123.438 334.614 123.438 334.614L129.021 332.108C129.021 332.108 129.469 333.591 128.863 333.92C128.257 334.25 125.109 336.392 125.109 336.392C125.109 336.392 127.56 335.733 128.257 335.409C128.953 335.085 129.248 336.171 128.738 336.511C128.229 336.852 125.092 338.784 125.092 338.784C125.092 338.784 128.127 338.08 127.996 338.455C127.866 338.83 127.94 339.125 127.062 339.335C126.185 339.546 122.685 341.171 122.685 341.171L117.867 342.586L117.459 338.085Z" fill="white" stroke="#252253" stroke-linecap="round" stroke-linejoin="round"/>
<path d="M115.697 339.244L117.464 338.085L119.565 342.682L117.051 344.25L115.697 339.244Z" fill="white" stroke="#252253" stroke-linecap="round" stroke-linejoin="round"/>
<path d="M49.6309 381.371C49.6309 381.371 50.1235 387.406 50.0725 388.008C50.0216 388.61 52.6205 391.377 53.2887 391.838C53.9568 392.298 56.3463 391.593 56.3463 391.593C56.3463 391.593 58.9736 388.065 58.7585 387.048C58.6514 386.458 58.3381 385.926 57.8751 385.548L54.6307 382.496L53.5945 381.207L49.6309 381.371Z" fill="white" stroke="#252253" stroke-linecap="round" stroke-linejoin="round"/>
<path d="M54.2052 388.264L52.8633 389.77C52.8633 389.77 53.4861 390.741 54.109 390.588L54.7262 390.44" stroke="#252253" stroke-linecap="round" stroke-linejoin="round"/>
<path d="M53.5914 381.207C53.5914 381.207 56.9887 384.235 57.6625 384.496C57.9455 384.625 58.1821 384.838 58.3402 385.107C58.4982 385.375 58.5701 385.686 58.5459 385.997C57.4924 387.101 56.3566 388.122 55.1485 389.053C54.503 389.508 53.9254 389.15 54.2029 388.264C54.4803 387.377 55.1032 385.991 55.1032 385.991C55.1032 385.991 53.7782 386.076 53.4668 385.036" fill="white"/>
<path d="M53.5914 381.207C53.5914 381.207 56.9887 384.235 57.6625 384.496C57.9455 384.625 58.1821 384.838 58.3402 385.107C58.4982 385.375 58.5701 385.686 58.5459 385.997C57.4924 387.101 56.3566 388.122 55.1485 389.053C54.503 389.508 53.9254 389.15 54.2029 388.264C54.4803 387.377 55.1032 385.991 55.1032 385.991C55.1032 385.991 53.7782 386.076 53.4668 385.036" stroke="#252253" stroke-linecap="round" stroke-linejoin="round"/>
<path d="M49.3633 378.61L49.6351 381.371C49.6351 381.371 51.0733 382.309 52.0925 382.195C52.9088 382.027 53.689 381.716 54.397 381.275L55.2237 379.371L49.3633 378.61Z" fill="white" stroke="#252253" stroke-linecap="round" stroke-linejoin="round"/>
<path d="M106.363 420.123C106.363 420.123 104.46 426.987 104.438 428.413C104.501 429.926 104.645 431.434 104.868 432.931C104.868 432.931 105.434 433.499 106.867 433.306C107.889 433.228 108.884 432.932 109.783 432.436C110.111 432.158 110.071 430.22 110.071 430.22C110.071 430.22 111.476 430.442 112.472 430.629C113.469 430.817 116.736 429.493 118.004 428.862C119.273 428.232 121.645 426.629 121.968 425.334C122.291 424.038 121.402 423.453 121.011 423.419C120.62 423.385 115.638 423.362 114.539 423.163C113.441 422.964 111.566 421.078 111.493 420.765C111.419 420.453 106.363 420.123 106.363 420.123Z" fill="#252253" stroke="#252253" stroke-linecap="round" stroke-linejoin="round"/>
<path d="M79.5646 447.465L79.8024 450.642C79.8024 450.642 82.0673 453.591 82.7694 453.954C83.4715 454.318 84.9664 454.346 85.091 455.272C85.2155 456.199 85.4817 456.63 84.7456 456.977C84.0095 457.324 81.0707 458.392 79.9496 458.398C78.8285 458.403 76.7787 457.511 76.7787 457.511L76.473 458.71C75.816 458.961 75.1142 459.074 74.4119 459.04C73.5955 459.028 72.7857 458.89 72.0111 458.631C72.0111 458.631 71.5241 456.045 71.745 454.653C71.9658 453.261 72.8774 449.539 72.8774 449.539L73.6701 446.244L79.5646 447.465Z" fill="#252253" stroke="#252253" stroke-linecap="round" stroke-linejoin="round"/>
<path d="M67.6367 382.616L70.2131 388.014L77.3758 414.112L73.0612 446.835C73.0612 446.835 74.6749 448.09 75.9829 448.204C77.2909 448.318 80.5411 448.085 80.5411 448.085L88.1455 413.515L89.4195 387.946L109.283 388.741L105.319 420.953C105.319 420.953 107.794 421.572 108.717 421.646C110.121 421.586 111.521 421.436 112.907 421.197C112.907 421.197 122.227 381.019 122.504 380.127C122.63 379.859 122.69 379.564 122.68 379.268C122.67 378.972 122.591 378.682 122.448 378.422C122.193 377.888 99.3965 372.377 99.3965 372.377C99.3965 372.377 72.6592 383.048 67.6367 382.616Z" fill="#E92C79" stroke="#252253" stroke-linecap="round" stroke-linejoin="round"/>
<path d="M89.4355 387.94L78.043 387.184L88.9315 395.224L89.4355 387.94Z" fill="#252253" stroke="#252253" stroke-linecap="round" stroke-linejoin="round"/>
<path d="M67.6687 329.631C67.6687 329.631 60.8739 333.699 60.4266 335.091C59.9793 336.483 50.6365 359.297 50.5573 360.246C50.478 361.195 48.7793 379.65 48.7793 379.65C49.7142 380.017 50.6924 380.262 51.6897 380.377C53.1053 380.497 55.223 379.372 55.223 379.372L59.3678 360.052L66.8023 350.921L68.971 358.979L63.7843 383.565C63.7843 383.565 72.4816 386.099 81.6149 383.565C90.7481 381.031 101.121 372.241 101.121 372.241C101.121 372.241 95.7932 362.24 94.3267 360.206C92.8602 358.172 91.5918 356.035 91.5918 356.035L91.722 351.751C91.722 351.751 99.5586 360.177 100.414 359.893C101.269 359.609 118.035 344.234 118.035 344.234L115.724 339.262L100.465 346.779C100.465 346.779 92.8035 329.301 91.1954 328.687C89.5874 328.074 86.0541 327.648 86.0541 327.648C86.0541 327.648 75.0749 325.023 67.6687 329.631Z" fill="#E92C79" stroke="#252253" stroke-linecap="round" stroke-linejoin="round"/>
<path d="M78.7901 299.584C79.4695 300.366 80.0513 301.228 80.5227 302.152C81.4004 303.811 81.6212 305.601 82.9575 306.277C84.2938 306.953 86.1567 306.845 86.1057 307.476C86.0548 308.107 85.0016 309.527 85.0016 309.527C85.0016 309.527 86.5474 315.34 86.185 316.346C85.8226 317.352 81.2645 319.556 81.2645 319.556V324.778L74.532 325.318C73.4029 322.449 72.4757 319.504 71.7575 316.505C70.9648 312.709 74.6793 310.516 74.5887 306.039C74.4981 301.561 75.2738 299.106 76.2194 298.908C77.165 298.709 78.7901 299.584 78.7901 299.584Z" fill="white" stroke="#252253" stroke-linecap="round" stroke-linejoin="round"/>
<path d="M81.6826 306.402C81.9091 306.97 81.8808 307.539 81.6203 307.624C81.3599 307.709 80.9635 307.351 80.737 306.783C80.5105 306.215 80.5388 305.647 80.7993 305.556C81.0598 305.465 81.4561 305.828 81.6826 306.402Z" fill="#252253"/>
<path d="M79.8085 305.072C79.8085 305.072 79.7179 303.936 80.8107 304.226" stroke="#252253" stroke-linecap="round" stroke-linejoin="round"/>
<path d="M85.5371 311.903C85.3131 312.143 85.022 312.311 84.7017 312.382C84.3815 312.454 84.0471 312.428 83.7422 312.306" stroke="#252253" stroke-linecap="round" stroke-linejoin="round"/>
<path d="M77.8667 301.737C77.8667 301.737 79.3502 305.033 78.5972 307.3C78.0987 308.749 77.4195 310.13 76.5757 311.408C76.5757 311.408 75.0865 313.613 75.3357 315.033C75.5848 316.454 77.0797 321.795 77.5213 322.113L77.9573 322.431L78.8916 323.443C78.8916 323.443 73.9881 326.471 68.6429 327.13C63.2977 327.789 59.7814 326.46 59.0793 326.028C58.6206 325.74 58.1817 325.421 57.7656 325.073C57.7656 325.073 60.4892 320.369 60.5401 315.414C60.5911 310.459 59.0849 307.459 60.5401 303.118C61.9954 298.777 73.0764 296.555 73.0764 296.555C73.0764 296.555 73.586 294.919 75.7094 295.101C77.8328 295.282 79.9561 299.754 79.9561 299.754L77.8667 301.737Z" fill="#252253" stroke="#252253" stroke-linecap="round" stroke-linejoin="round"/>
<path d="M77.2723 313.056C77.2723 313.056 75.6189 310.675 74.7129 312.556C73.807 314.436 76.706 317.476 78.1782 316.579" fill="white"/>
<path d="M77.2723 313.056C77.2723 313.056 75.6189 310.675 74.7129 312.556C73.807 314.436 76.706 317.476 78.1782 316.579" stroke="#252253" stroke-linecap="round" stroke-linejoin="round"/>
<path d="M75.0281 324.181C75.0281 324.181 80.4185 323.693 81.3585 323.772C82.2984 323.852 84.552 325.357 84.552 325.357L84.3991 327.136C84.3991 327.136 79.1728 325.732 76.2681 326.318C73.3633 326.903 69.2129 328.193 69.2129 328.193L70.0452 325.397C70.0452 325.397 72.8821 324.215 75.0281 324.181Z" fill="white" stroke="#252253" stroke-linecap="round" stroke-linejoin="round"/>
<path d="M67.6699 329.631L68.6438 327.13C68.6438 327.13 75.75 325.386 78.5189 325.079C80.9334 324.869 83.3593 325.325 85.5344 326.397C86.2664 326.797 86.8414 327.434 87.1652 328.204C87.1652 328.204 81.5708 326.892 76.6446 327.54C73.5942 327.952 70.5894 328.652 67.6699 329.631V329.631Z" fill="#E92C79" stroke="#252253" stroke-linecap="round" stroke-linejoin="round"/>
<path d="M91.6944 351.734L84.5713 344.671C84.5713 344.671 82.9745 342.506 83.8748 338.887" stroke="#252253" stroke-linecap="round" stroke-linejoin="round"/>
<path d="M66.8034 350.904L62.6133 340.171" stroke="#252253" stroke-linecap="round" stroke-linejoin="round"/>
<defs>
<filter id="filter0_d_210_3375" x="175" y="156" width="49" height="49" filterUnits="userSpaceOnUse" color-interpolation-filters="sRGB">
<feFlood flood-opacity="0" result="BackgroundImageFix"/>
<feColorMatrix in="SourceAlpha" type="matrix" values="0 0 0 0 0 0 0 0 0 0 0 0 0 0 0 0 0 0 127 0" result="hardAlpha"/>
<feOffset dx="2" dy="2"/>
<feGaussianBlur stdDeviation="5"/>
<feComposite in2="hardAlpha" operator="out"/>
<feColorMatrix type="matrix" values="0 0 0 0 0 0 0 0 0 0 0 0 0 0 0 0 0 0 0.2 0"/>
<feBlend mode="normal" in2="BackgroundImageFix" result="effect1_dropShadow_210_3375"/>
<feBlend mode="normal" in="SourceGraphic" in2="effect1_dropShadow_210_3375" result="shape"/>
</filter>
<filter id="filter1_d_210_3375" x="126" y="0" width="49" height="49" filterUnits="userSpaceOnUse" color-interpolation-filters="sRGB">
<feFlood flood-opacity="0" result="BackgroundImageFix"/>
<feColorMatrix in="SourceAlpha" type="matrix" values="0 0 0 0 0 0 0 0 0 0 0 0 0 0 0 0 0 0 127 0" result="hardAlpha"/>
<feOffset dx="2" dy="2"/>
<feGaussianBlur stdDeviation="5"/>
<feComposite in2="hardAlpha" operator="out"/>
<feColorMatrix type="matrix" values="0 0 0 0 0 0 0 0 0 0 0 0 0 0 0 0 0 0 0.2 0"/>
<feBlend mode="normal" in2="BackgroundImageFix" result="effect1_dropShadow_210_3375"/>
<feBlend mode="normal" in="SourceGraphic" in2="effect1_dropShadow_210_3375" result="shape"/>
</filter>
<filter id="filter2_d_210_3375" x="306" y="120" width="49" height="49" filterUnits="userSpaceOnUse" color-interpolation-filters="sRGB">
<feFlood flood-opacity="0" result="BackgroundImageFix"/>
<feColorMatrix in="SourceAlpha" type="matrix" values="0 0 0 0 0 0 0 0 0 0 0 0 0 0 0 0 0 0 127 0" result="hardAlpha"/>
<feOffset dx="2" dy="2"/>
<feGaussianBlur stdDeviation="5"/>
<feComposite in2="hardAlpha" operator="out"/>
<feColorMatrix type="matrix" values="0 0 0 0 0 0 0 0 0 0 0 0 0 0 0 0 0 0 0.2 0"/>
<feBlend mode="normal" in2="BackgroundImageFix" result="effect1_dropShadow_210_3375"/>
<feBlend mode="normal" in="SourceGraphic" in2="effect1_dropShadow_210_3375" result="shape"/>
</filter>
<clipPath id="clip0_210_3375">
<rect width="31" height="31" fill="white" transform="translate(182 163)"/>
</clipPath>
</defs>
</svg>
