<svg width="16" height="17" viewBox="0 0 16 17" fill="none" xmlns="http://www.w3.org/2000/svg">
<path fill-rule="evenodd" clip-rule="evenodd" d="M1.5 8.90759C1.5 7.18368 2.18482 5.53038 3.40381 4.3114C4.62279 3.09241 6.27609 2.40759 8 2.40759C9.72391 2.40759 11.3772 3.09241 12.5962 4.3114C13.8152 5.53038 14.5 7.18368 14.5 8.90759C14.5 10.6315 13.8152 12.2848 12.5962 13.5038C11.3772 14.7228 9.72391 15.4076 8 15.4076C6.27609 15.4076 4.62279 14.7228 3.40381 13.5038C2.18482 12.2848 1.5 10.6315 1.5 8.90759ZM8 0.907593C5.87827 0.907593 3.84344 1.75045 2.34315 3.25074C0.842855 4.75103 0 6.78586 0 8.90759C0 11.0293 0.842855 13.0642 2.34315 14.5645C3.84344 16.0647 5.87827 16.9076 8 16.9076C10.1217 16.9076 12.1566 16.0647 13.6569 14.5645C15.1571 13.0642 16 11.0293 16 8.90759C16 6.78586 15.1571 4.75103 13.6569 3.25074C12.1566 1.75045 10.1217 0.907593 8 0.907593ZM5 8.90759C5.26522 8.90759 5.51957 8.80223 5.70711 8.6147C5.89464 8.42716 6 8.17281 6 7.90759C6 7.64237 5.89464 7.38802 5.70711 7.20048C5.51957 7.01295 5.26522 6.90759 5 6.90759C4.73478 6.90759 4.48043 7.01295 4.29289 7.20048C4.10536 7.38802 4 7.64237 4 7.90759C4 8.17281 4.10536 8.42716 4.29289 8.6147C4.48043 8.80223 4.73478 8.90759 5 8.90759ZM12 7.90759C12 8.17281 11.8946 8.42716 11.7071 8.6147C11.5196 8.80223 11.2652 8.90759 11 8.90759C10.7348 8.90759 10.4804 8.80223 10.2929 8.6147C10.1054 8.42716 10 8.17281 10 7.90759C10 7.64237 10.1054 7.38802 10.2929 7.20048C10.4804 7.01295 10.7348 6.90759 11 6.90759C11.2652 6.90759 11.5196 7.01295 11.7071 7.20048C11.8946 7.38802 12 7.64237 12 7.90759ZM5.32 10.5436C5.48134 10.4306 5.68064 10.3857 5.87486 10.4184C6.06908 10.4511 6.24262 10.559 6.358 10.7186L6.365 10.7276C6.46785 10.8455 6.58549 10.9497 6.715 11.0376C6.979 11.2156 7.398 11.4076 8 11.4076C8.602 11.4076 9.02 11.2156 9.285 11.0366C9.41451 10.9487 9.53215 10.8445 9.635 10.7266L9.642 10.7186C9.75737 10.5565 9.93239 10.447 10.1285 10.414C10.3247 10.381 10.526 10.4272 10.688 10.5426C10.85 10.658 10.9596 10.833 10.9926 11.0291C11.0256 11.2253 10.9794 11.4266 10.864 11.5886L10.25 11.1576C10.864 11.5876 10.864 11.5886 10.863 11.5886V11.5896L10.862 11.5916L10.86 11.5946L10.855 11.6016L10.841 11.6206C10.7848 11.6959 10.7233 11.767 10.657 11.8336C10.4963 12 10.3187 12.1491 10.127 12.2786C9.49722 12.697 8.75607 12.9162 8 12.9076C7.054 12.9076 6.348 12.5996 5.874 12.2776C5.62319 12.1079 5.39676 11.9047 5.201 11.6736C5.1867 11.6562 5.1727 11.6385 5.159 11.6206L5.145 11.6006L5.14 11.5946L5.138 11.5916V11.5896H5.137L5.75 11.1576L5.136 11.5876C5.02196 11.4248 4.97718 11.2235 5.01149 11.0277C5.04581 10.832 5.1564 10.6579 5.319 10.5436H5.32Z" fill="#2C2C2E" fill-opacity="0.5"/>
</svg>
