<svg xmlns="http://www.w3.org/2000/svg" width="188.279" height="251.011" viewBox="0 0 188.279 251.011">
  <path id="Vector_1_" data-name="Vector (1)" d="M105.261,97.983a5.67,5.67,0,0,1,10.761,0l10.119,30.388a45.34,45.34,0,0,0,28.694,28.679l30.372,10.118a5.67,5.67,0,0,1,0,10.762l-30.389,10.119a45.342,45.342,0,0,0-28.678,28.694l-10.119,30.372a5.663,5.663,0,0,1-10.761,0L95.142,216.727a45.34,45.34,0,0,0-28.678-28.678L36.075,177.93a5.664,5.664,0,0,1,0-10.762l30.388-10.118a45.338,45.338,0,0,0,28.678-28.679l10.119-30.388Zm-60.6-79.994a3.4,3.4,0,0,1,6.464,0l6.071,18.23A27.232,27.232,0,0,0,74.4,53.428L92.632,59.5a3.4,3.4,0,0,1,0,6.464L74.4,72.035a27.2,27.2,0,0,0-17.21,17.21l-6.071,18.23a3.4,3.4,0,0,1-6.464,0l-6.071-18.23a27.2,27.2,0,0,0-17.21-17.21L3.146,65.963a3.4,3.4,0,0,1,0-6.464l18.23-6.071a27.2,27.2,0,0,0,17.21-17.21l6.071-18.23Zm110.9-16.457a2.275,2.275,0,0,1,4.3,0L163.9,13.674a18.115,18.115,0,0,0,11.483,11.484l12.143,4.048a2.275,2.275,0,0,1,0,4.3l-12.143,4.048A18.133,18.133,0,0,0,163.9,49.036l-4.047,12.143a2.275,2.275,0,0,1-4.3,0l-4.047-12.143a18.138,18.138,0,0,0-11.483-11.484L127.9,33.5a2.275,2.275,0,0,1,0-4.3l12.143-4.048a18.115,18.115,0,0,0,11.483-11.484l4.032-12.127Z" transform="translate(-0.812 -0.002)" fill="#703372"/>
</svg>
