<svg xmlns="http://www.w3.org/2000/svg" width="34" height="26" viewBox="0 0 34 26">
  <path id="Vector" d="M33.66,22.935H.34a.341.341,0,0,0-.34.341v2.384A.341.341,0,0,0,.34,26H33.66a.341.341,0,0,0,.34-.341V23.275A.341.341,0,0,0,33.66,22.935ZM2.282,17.6,3.97,19.286a.341.341,0,0,0,.48,0l9.975-9.958,4.148,4.142a1.363,1.363,0,0,0,1.921,0L31.722,2.266a.342.342,0,0,0,0-.481L30.035.1a.341.341,0,0,0-.48,0l-10.017,10L15.385,5.961a1.363,1.363,0,0,0-1.921,0L2.282,17.124a.338.338,0,0,0,0,.481Z" fill="#703372"/>
</svg>
