<svg width="177" height="152" viewBox="0 0 177 152" fill="none" xmlns="http://www.w3.org/2000/svg">
<path d="M175 3.5C175.828 3.5 176.5 2.82843 176.5 2C176.5 1.17157 175.828 0.5 175 0.5V3.5ZM108.167 22.857L108.877 24.1786L108.877 24.1786L108.167 22.857ZM41.2008 66.9673L42.1543 68.1252L41.2008 66.9673ZM10.9393 151.061C11.5251 151.646 12.4749 151.646 13.0607 151.061L22.6066 141.515C23.1924 140.929 23.1924 139.979 22.6066 139.393C22.0208 138.808 21.0711 138.808 20.4853 139.393L12 147.879L3.51472 139.393C2.92893 138.808 1.97919 138.808 1.3934 139.393C0.807611 139.979 0.807611 140.929 1.3934 141.515L10.9393 151.061ZM13.5085 147.153C13.5137 146.325 12.8463 145.649 12.0179 145.644C11.1895 145.639 10.5137 146.306 10.5086 147.134L13.5085 147.153ZM10.5881 141.398C10.5696 142.226 11.226 142.913 12.0542 142.931C12.8824 142.95 13.5688 142.293 13.5873 141.465L10.5881 141.398ZM13.7727 135.788C13.809 134.961 13.1675 134.26 12.3399 134.224C11.5122 134.188 10.8119 134.829 10.7756 135.657L13.7727 135.788ZM11.1032 129.913C11.0443 130.739 11.6665 131.457 12.4928 131.516C13.3192 131.575 14.0367 130.953 14.0956 130.126L11.1032 129.913ZM14.5893 124.486C14.6759 123.662 14.0781 122.924 13.2542 122.838C12.4303 122.751 11.6923 123.349 11.6057 124.173L14.5893 124.486ZM12.3207 118.445C12.2011 119.265 12.7686 120.027 13.5884 120.146C14.4081 120.266 15.1696 119.698 15.2892 118.879L12.3207 118.445ZM16.2322 113.318C16.3906 112.505 15.8598 111.717 15.0466 111.559C14.2335 111.401 13.4459 111.931 13.2876 112.745L16.2322 113.318ZM14.5469 107.09C14.3442 107.893 14.8311 108.709 15.6343 108.911C16.4376 109.114 17.253 108.627 17.4557 107.824L14.5469 107.09ZM18.9956 102.422C19.2478 101.632 18.8126 100.788 18.0235 100.536C17.2344 100.284 16.3903 100.719 16.138 101.508L18.9956 102.422ZM18.0959 96.033C17.7898 96.8028 18.1656 97.675 18.9354 97.9811C19.7052 98.2873 20.5774 97.9114 20.8835 97.1416L18.0959 96.033ZM23.1433 92.02C23.5062 91.2753 23.1966 90.3774 22.4519 90.0145C21.7072 89.6516 20.8093 89.9612 20.4464 90.7059L23.1433 92.02ZM23.2031 85.5708C22.7826 86.2846 23.0202 87.2041 23.734 87.6247C24.4477 88.0452 25.3672 87.8075 25.7878 87.0938L23.2031 85.5708ZM28.8169 82.3981C29.2938 81.7208 29.1314 80.785 28.454 80.3081C27.7767 79.8311 26.8409 79.9936 26.364 80.6709L28.8169 82.3981ZM29.9112 76.0434C29.3811 76.68 29.4676 77.6258 30.1042 78.1559C30.7409 78.6859 31.6867 78.5995 32.2168 77.9628L29.9112 76.0434ZM35.962 73.8088C36.5402 73.2156 36.528 72.2659 35.9348 71.6877C35.3415 71.1095 34.3918 71.1216 33.8136 71.7149L35.962 73.8088ZM38.0323 67.6993C37.4117 68.248 37.3534 69.196 37.9022 69.8166C38.451 70.4372 39.399 70.4954 40.0196 69.9466L38.0323 67.6993ZM44.3962 66.4286C45.0748 65.9534 45.2396 65.0181 44.7644 64.3395C44.2892 63.6609 43.3539 63.4961 42.6753 63.9713L44.3962 66.4286ZM47.7978 60.8041C47.0725 61.2044 46.809 62.1169 47.2093 62.8422C47.6096 63.5675 48.5221 63.831 49.2474 63.4307L47.7978 60.8041ZM54.3789 60.8516C55.1316 60.5055 55.4613 59.6149 55.1153 58.8621C54.7693 58.1094 53.8786 57.7797 53.1259 58.1258L54.3789 60.8516ZM58.6176 55.7963C57.8462 56.0984 57.4659 56.9687 57.7681 57.74C58.0703 58.5114 58.9405 58.8917 59.7119 58.5896L58.6176 55.7963ZM65.1536 56.6123C65.9387 56.348 66.3609 55.4973 66.0966 54.7121C65.8323 53.927 64.9816 53.5048 64.1964 53.7691L65.1536 56.6123ZM69.8713 51.9988C69.0753 52.2282 68.6159 53.0595 68.8453 53.8555C69.0747 54.6515 69.906 55.1109 70.702 54.8815L69.8713 51.9988ZM76.3081 53.393C77.113 53.1972 77.6068 52.3859 77.411 51.581C77.2152 50.776 76.4039 50.2822 75.5989 50.4781L76.3081 53.393ZM81.3922 49.196C80.5798 49.358 80.0525 50.1479 80.2145 50.9604C80.3765 51.7728 81.1665 52.3001 81.9789 52.138L81.3922 49.196ZM87.6948 51.1249C88.5135 50.9982 89.0744 50.2318 88.9476 49.4131C88.8208 48.5944 88.0544 48.0335 87.2357 48.1603L87.6948 51.1249ZM93.1258 47.3857C92.3022 47.4744 91.7063 48.2139 91.795 49.0376C91.8836 49.8613 92.6232 50.4571 93.4469 50.3685L93.1258 47.3857ZM99.2148 49.8945C100.042 49.8483 100.675 49.1404 100.629 48.3133C100.583 47.4861 99.8749 46.853 99.0478 46.8991L99.2148 49.8945ZM105.009 46.7395C104.18 46.7364 103.506 47.4055 103.503 48.2339C103.5 49.0623 104.169 49.7364 104.998 49.7395L105.009 46.7395ZM110.753 49.9586C111.579 50.0204 112.299 49.4009 112.361 48.5747C112.423 47.7486 111.803 47.0288 110.977 46.9669L110.753 49.9586ZM116.939 47.6691C116.122 47.5345 115.35 48.0881 115.215 48.9055C115.081 49.7229 115.634 50.4947 116.452 50.6293L116.939 47.6691ZM122.001 51.8568C122.798 52.0839 123.628 51.6222 123.855 50.8255C124.082 50.0288 123.62 49.1988 122.824 48.9717L122.001 51.8568ZM128.556 51.0718C127.804 50.7247 126.913 51.0531 126.566 51.8052C126.218 52.5574 126.547 53.4486 127.299 53.7957L128.556 51.0718ZM132.073 56.6065C132.737 57.1031 133.677 56.9682 134.173 56.3052C134.67 55.6421 134.535 54.702 133.872 54.2054L132.073 56.6065ZM138.339 58.5726C137.832 57.9168 136.89 57.7955 136.235 58.3017C135.579 58.8079 135.458 59.7498 135.964 60.4056L138.339 58.5726ZM138.595 65.1164C138.889 65.8908 139.755 66.2802 140.53 65.986C141.304 65.6919 141.694 64.8256 141.399 64.0512L138.595 65.1164ZM142.819 70.1252C142.731 69.3014 141.993 68.7042 141.169 68.7914C140.345 68.8786 139.748 69.6171 139.835 70.441L142.819 70.1252ZM139.867 76.075C139.802 76.9008 140.418 77.6232 141.244 77.6885C142.07 77.7538 142.792 77.1373 142.858 76.3114L139.867 76.075ZM141.87 82.3958C142.071 81.5921 141.582 80.7777 140.778 80.5768C139.975 80.3759 139.16 80.8646 138.959 81.6683L141.87 82.3958ZM137.113 87.0037C136.772 87.7589 137.108 88.6472 137.864 88.9878C138.619 89.3284 139.507 88.9923 139.848 88.2371L137.113 87.0037ZM136.771 93.6215C137.25 92.9458 137.091 92.0095 136.416 91.5302C135.74 91.0509 134.803 91.2102 134.324 91.8859L136.771 93.6215ZM130.633 96.0959C130.025 96.658 129.987 97.607 130.549 98.2156C131.111 98.8241 132.06 98.8618 132.669 98.2997L130.633 96.0959ZM127.653 102.008C128.369 101.592 128.612 100.674 128.196 99.9577C127.78 99.2414 126.862 98.9983 126.146 99.4146L127.653 102.008ZM121.042 101.668C120.252 101.917 119.814 102.76 120.064 103.55C120.313 104.34 121.156 104.778 121.946 104.529L121.042 101.668ZM115.846 105.765C116.67 105.685 117.274 104.951 117.194 104.127C117.114 103.302 116.38 102.699 115.556 102.779L115.846 105.765ZM109.794 102.798C108.968 102.732 108.245 103.348 108.18 104.174C108.114 105 108.73 105.723 109.556 105.788L109.794 102.798ZM103.248 104.746C104.05 104.953 104.868 104.47 105.075 103.667C105.281 102.865 104.798 102.047 103.996 101.841L103.248 104.746ZM98.516 99.8445C97.7708 99.4827 96.8733 99.7934 96.5115 100.539C96.1496 101.284 96.4603 102.181 97.2055 102.543L98.516 99.8445ZM91.739 99.0805C92.3826 99.6022 93.3272 99.5034 93.8489 98.8599C94.3706 98.2164 94.2718 97.2718 93.6283 96.7501L91.739 99.0805ZM89.6263 92.6054C89.1277 91.9439 88.1871 91.8118 87.5256 92.3105C86.8641 92.8091 86.732 93.7497 87.2307 94.4112L89.6263 92.6054ZM83.9668 88.8227C84.3012 89.5806 85.1868 89.9239 85.9447 89.5895C86.7026 89.2551 87.0459 88.3695 86.7115 87.6116L83.9668 88.8227ZM84.9064 82.0592C84.7255 81.2508 83.9235 80.7421 83.115 80.923C82.3066 81.1039 81.7979 81.9059 81.9788 82.7144L84.9064 82.0592ZM81.0945 76.4101C81.148 77.2368 81.8616 77.8636 82.6883 77.8101C83.515 77.7565 84.1418 77.043 84.0882 76.2163L81.0945 76.4101ZM84.0495 70.3239C84.0812 69.4961 83.4358 68.7993 82.608 68.7676C81.7802 68.7359 81.0834 69.3813 81.0517 70.2091L84.0495 70.3239ZM81.5184 64.1728C81.4221 64.9956 82.011 65.7407 82.8338 65.837C83.6567 65.9333 84.4017 65.3444 84.498 64.5216L81.5184 64.1728ZM85.408 58.7799C85.5715 57.9677 85.0457 57.1768 84.2336 57.0133C83.4215 56.8498 82.6306 57.3756 82.467 58.1877L85.408 58.7799ZM83.9223 52.2964C83.688 53.091 84.1422 53.9251 84.9367 54.1595C85.7313 54.3938 86.5655 53.9397 86.7998 53.1451L83.9223 52.2964ZM88.6991 47.6731C89.0085 46.9046 88.6365 46.0308 87.868 45.7213C87.0996 45.4118 86.2257 45.7839 85.9163 46.5524L88.6991 47.6731ZM88.4836 41.0255C88.0947 41.7571 88.3726 42.6653 89.1041 43.0541C89.8356 43.4429 90.7438 43.1651 91.1326 42.4336L88.4836 41.0255ZM94.1228 37.5106C94.594 36.8292 94.4236 35.8949 93.7423 35.4237C93.0609 34.9525 92.1266 35.1229 91.6554 35.8043L94.1228 37.5106ZM95.448 30.9951C94.8943 31.6113 94.9448 32.5597 95.5609 33.1135C96.1771 33.6672 97.1255 33.6167 97.6792 33.0006L95.448 30.9951ZM101.787 29.0065C102.419 28.471 102.497 27.5245 101.962 26.8924C101.426 26.2603 100.48 26.182 99.8478 26.7175L101.787 29.0065ZM104.8 23.0842C104.1 23.5262 103.89 24.4525 104.332 25.1532C104.774 25.8539 105.7 26.0636 106.401 25.6216L104.8 23.0842ZM111.494 22.7676C112.222 22.3733 112.493 21.463 112.099 20.7344C111.705 20.0059 110.794 19.735 110.066 20.1293L111.494 22.7676ZM115.279 17.2917C114.552 17.6889 114.285 18.6002 114.682 19.3272C115.079 20.0542 115.99 20.3216 116.717 19.9244L115.279 17.2917ZM121.929 17.081C122.657 16.6858 122.927 15.7752 122.532 15.0471C122.137 14.319 121.226 14.0492 120.498 14.4445L121.929 17.081ZM125.742 11.6379C125.009 12.0226 124.726 12.9292 125.11 13.6629C125.495 14.3966 126.402 14.6795 127.135 14.2948L125.742 11.6379ZM132.384 11.641C133.13 11.281 133.443 10.3843 133.083 9.6382C132.723 8.89207 131.826 8.57906 131.08 8.93905L132.384 11.641ZM136.574 6.4696C135.808 6.78531 135.443 7.66214 135.759 8.42805C136.075 9.19396 136.952 9.55891 137.718 9.2432L136.574 6.4696ZM143.171 7.24125C143.96 6.98873 144.395 6.14441 144.143 5.35541C143.89 4.5664 143.046 4.1315 142.257 4.38402L143.171 7.24125ZM148.107 2.79467C147.299 2.97645 146.791 3.77901 146.973 4.58725C147.155 5.39549 147.957 5.90333 148.765 5.72155L148.107 2.79467ZM154.484 4.67603C155.304 4.55775 155.873 3.79717 155.755 2.97723C155.636 2.15729 154.876 1.58848 154.056 1.70677L154.484 4.67603ZM160.039 1.03434C159.213 1.10356 158.6 1.8289 158.669 2.65443C158.738 3.47996 159.464 4.09307 160.289 4.02385L160.039 1.03434ZM166.151 3.66529C166.979 3.63129 167.622 2.93271 167.588 2.10498C167.554 1.27725 166.856 0.633815 166.028 0.667823L166.151 3.66529ZM172.015 0.516368C171.187 0.525728 170.523 1.20485 170.532 2.03322C170.541 2.8616 171.22 3.52554 172.049 3.51618L172.015 0.516368ZM13.5 150C13.5 149.048 13.5027 148.099 13.5085 147.153L10.5086 147.134C10.5027 148.087 10.5 149.043 10.5 150H13.5ZM13.5873 141.465C13.6299 139.56 13.6902 137.667 13.7727 135.788L10.7756 135.657C10.6921 137.56 10.6311 139.474 10.5881 141.398L13.5873 141.465ZM14.0956 130.126C14.2307 128.23 14.3937 126.35 14.5893 124.486L11.6057 124.173C11.4063 126.073 11.2404 127.986 11.1032 129.913L14.0956 130.126ZM15.2892 118.879C15.5626 117.005 15.8753 115.151 16.2322 113.318L13.2876 112.745C12.9209 114.628 12.6004 116.528 12.3207 118.445L15.2892 118.879ZM17.4557 107.824C17.916 106 18.4275 104.199 18.9956 102.422L16.138 101.508C15.55 103.348 15.0215 105.209 14.5469 107.09L17.4557 107.824ZM20.8835 97.1416C21.5727 95.4087 22.3241 93.7011 23.1433 92.02L20.4464 90.7059C19.5933 92.4568 18.8117 94.2331 18.0959 96.033L20.8835 97.1416ZM25.7878 87.0938C26.7255 85.5023 27.7335 83.9367 28.8169 82.3981L26.364 80.6709C25.2333 82.2767 24.1814 83.9105 23.2031 85.5708L25.7878 87.0938ZM32.2168 77.9628C33.3906 76.5529 34.6374 75.1678 35.962 73.8088L33.8136 71.7149C32.4347 73.1297 31.1353 74.5729 29.9112 76.0434L32.2168 77.9628ZM40.0196 69.9466C40.7129 69.3336 41.4243 68.7264 42.1543 68.1252L40.2473 65.8093C39.4904 66.4327 38.7522 67.0627 38.0323 67.6993L40.0196 69.9466ZM42.1543 68.1252C42.8407 67.56 43.5891 66.9938 44.3962 66.4286L42.6753 63.9713C41.8115 64.5762 41.0002 65.1894 40.2473 65.8093L42.1543 68.1252ZM49.2474 63.4307C50.8412 62.551 52.5578 61.6887 54.3789 60.8516L53.1259 58.1258C51.2452 58.9903 49.4624 59.8854 47.7978 60.8041L49.2474 63.4307ZM59.7119 58.5896C61.4651 57.9027 63.2833 57.2419 65.1536 56.6123L64.1964 53.7691C62.282 54.4135 60.418 55.0909 58.6176 55.7963L59.7119 58.5896ZM70.702 54.8815C72.5403 54.3517 74.4126 53.8542 76.3081 53.393L75.5989 50.4781C73.6629 50.9491 71.75 51.4574 69.8713 51.9988L70.702 54.8815ZM81.9789 52.138C83.8762 51.7597 85.7849 51.4207 87.6948 51.1249L87.2357 48.1603C85.282 48.4628 83.3307 48.8094 81.3922 49.196L81.9789 52.138ZM93.4469 50.3685C95.3834 50.1601 97.3096 50.0007 99.2148 49.8945L99.0478 46.8991C97.0885 47.0084 95.1108 47.1721 93.1258 47.3857L93.4469 50.3685ZM104.998 49.7395C106.958 49.7468 108.881 49.8184 110.753 49.9586L110.977 46.9669C109.028 46.821 107.034 46.7471 105.009 46.7395L104.998 49.7395ZM116.452 50.6293C118.388 50.948 120.243 51.3555 122.001 51.8568L122.824 48.9717C120.943 48.4357 118.975 48.0044 116.939 47.6691L116.452 50.6293ZM127.299 53.7957C129.051 54.6043 130.649 55.5394 132.073 56.6065L133.872 54.2054C132.259 52.9974 130.476 51.9579 128.556 51.0718L127.299 53.7957ZM135.964 60.4056C137.048 61.8106 137.934 63.3757 138.595 65.1164L141.399 64.0512C140.633 62.0325 139.602 60.2089 138.339 58.5726L135.964 60.4056ZM139.835 70.441C139.93 71.3343 139.979 72.2651 139.979 73.2345H142.979C142.979 72.1644 142.925 71.1281 142.819 70.1252L139.835 70.441ZM139.979 73.2345C139.979 74.1926 139.941 75.1401 139.867 76.075L142.858 76.3114C142.938 75.2974 142.979 74.271 142.979 73.2345H139.979ZM138.959 81.6683C138.494 83.5306 137.874 85.3156 137.113 87.0037L139.848 88.2371C140.684 86.3823 141.362 84.4277 141.87 82.3958L138.959 81.6683ZM134.324 91.8859C133.233 93.4249 131.998 94.8355 130.633 96.0959L132.669 98.2997C134.191 96.8941 135.562 95.3257 136.771 93.6215L134.324 91.8859ZM126.146 99.4146C124.558 100.338 122.853 101.096 121.042 101.668L121.946 104.529C123.968 103.89 125.875 103.042 127.653 102.008L126.146 99.4146ZM115.556 102.779C114.639 102.868 113.701 102.913 112.743 102.913V105.913C113.796 105.913 114.831 105.863 115.846 105.765L115.556 102.779ZM112.743 102.913C111.76 102.913 110.775 102.875 109.794 102.798L109.556 105.788C110.618 105.872 111.682 105.913 112.743 105.913V102.913ZM103.996 101.841C102.099 101.352 100.259 100.691 98.516 99.8445L97.2055 102.543C99.1424 103.484 101.172 104.212 103.248 104.746L103.996 101.841ZM93.6283 96.7501C92.1624 95.5617 90.817 94.1851 89.6263 92.6054L87.2307 94.4112C88.5722 96.1909 90.0888 97.7427 91.739 99.0805L93.6283 96.7501ZM86.7115 87.6116C85.9692 85.9293 85.3592 84.0823 84.9064 82.0592L81.9788 82.7144C82.4722 84.9189 83.1418 86.9529 83.9668 88.8227L86.7115 87.6116ZM84.0882 76.2163C84.0259 75.254 83.9939 74.2603 83.9939 73.2345H80.9939C80.9939 74.3228 81.0279 75.3811 81.0945 76.4101L84.0882 76.2163ZM83.9939 73.2345C83.9939 72.2656 84.0123 71.295 84.0495 70.3239L81.0517 70.2091C81.013 71.2186 80.9939 72.2276 80.9939 73.2345H83.9939ZM84.498 64.5216C84.7237 62.5935 85.0263 60.6758 85.408 58.7799L82.467 58.1877C82.0686 60.1666 81.7533 62.1655 81.5184 64.1728L84.498 64.5216ZM86.7998 53.1451C87.3491 51.2828 87.9814 49.455 88.6991 47.6731L85.9163 46.5524C85.1612 48.4271 84.4976 50.3459 83.9223 52.2964L86.7998 53.1451ZM91.1326 42.4336C92.0386 40.7291 93.0346 39.0842 94.1228 37.5106L91.6554 35.8043C90.498 37.4779 89.4418 39.2228 88.4836 41.0255L91.1326 42.4336ZM97.6792 33.0006C98.9531 31.5833 100.321 30.2482 101.787 29.0065L99.8478 26.7175C98.2755 28.0497 96.8099 29.48 95.448 30.9951L97.6792 33.0006ZM106.401 25.6216C107.202 25.116 108.028 24.6346 108.877 24.1786L107.458 21.5355C106.547 22.0246 105.661 22.5414 104.8 23.0842L106.401 25.6216ZM108.877 24.1786C109.771 23.6986 110.643 23.2283 111.494 22.7676L110.066 20.1293C109.217 20.5886 108.348 21.0572 107.458 21.5355L108.877 24.1786ZM116.717 19.9244C118.55 18.9234 120.279 17.9771 121.929 17.081L120.498 14.4445C118.843 15.343 117.108 16.2923 115.279 17.2917L116.717 19.9244ZM127.135 14.2948C128.963 13.3366 130.7 12.4536 132.384 11.641L131.08 8.93905C129.358 9.77018 127.59 10.6691 125.742 11.6379L127.135 14.2948ZM137.718 9.2432C139.534 8.49435 141.335 7.82905 143.171 7.24125L142.257 4.38402C140.335 4.99895 138.459 5.69288 136.574 6.4696L137.718 9.2432ZM148.765 5.72155C150.578 5.31394 152.47 4.96655 154.484 4.67603L154.056 1.70677C151.97 2.0077 150 2.36888 148.107 2.79467L148.765 5.72155ZM160.289 4.02385C162.131 3.86944 164.077 3.75051 166.151 3.66529L166.028 0.667823C163.917 0.754568 161.927 0.875955 160.039 1.03434L160.289 4.02385ZM172.049 3.51618C173.007 3.50535 173.99 3.5 175 3.5V0.5C173.98 0.5 172.985 0.505404 172.015 0.516368L172.049 3.51618Z" fill="#703372"/>
</svg>
