<svg width="124" height="96" viewBox="0 0 124 96" fill="none" xmlns="http://www.w3.org/2000/svg">
<path d="M2.38449 8.85589C1.58375 9.06824 0.762466 8.59125 0.550117 7.7905C0.337769 6.98975 0.814758 6.16847 1.61551 5.95612L2.38449 8.85589ZM47.5 8.99999L46.7922 10.3225V10.3225L47.5 8.99999ZM92.4148 38.4894L91.4632 39.6489L92.4148 38.4894ZM113.061 95.0607C112.475 95.6464 111.525 95.6464 110.939 95.0607L101.393 85.5147C100.808 84.9289 100.808 83.9792 101.393 83.3934C101.979 82.8076 102.929 82.8076 103.515 83.3934L112 91.8787L120.485 83.3934C121.071 82.8076 122.021 82.8076 122.607 83.3934C123.192 83.9792 123.192 84.9289 122.607 85.5147L113.061 95.0607ZM110.485 90.958C110.476 90.1296 111.14 89.4509 111.969 89.4422C112.797 89.4334 113.476 90.0979 113.485 90.9263L110.485 90.958ZM113.331 84.7687C113.365 85.5964 112.722 86.2953 111.895 86.3298C111.067 86.3642 110.368 85.7212 110.334 84.8935L113.331 84.7687ZM109.952 78.8619C109.88 78.0367 110.49 77.309 111.315 77.2367C112.141 77.1644 112.868 77.7748 112.94 78.6L109.952 78.8619ZM112.215 72.4377C112.339 73.2568 111.775 74.0211 110.956 74.1448C110.137 74.2686 109.372 73.7048 109.249 72.8857L112.215 72.4377ZM108.124 67.0011C107.935 66.1947 108.435 65.3872 109.241 65.1977C110.048 65.0081 110.855 65.5082 111.045 66.3147L108.124 67.0011ZM109.319 60.2972C109.588 61.0807 109.171 61.934 108.388 62.203C107.604 62.472 106.751 62.0549 106.482 61.2714L109.319 60.2972ZM104.238 55.7771C103.879 55.0302 104.194 54.1342 104.941 53.7759C105.688 53.4176 106.584 53.7326 106.943 54.4796L104.238 55.7771ZM103.865 48.9839C104.316 49.6792 104.117 50.608 103.422 51.0582C102.726 51.5085 101.798 51.3098 101.347 50.6145L103.865 48.9839ZM97.8179 45.8699C97.2816 45.2384 97.3588 44.2918 97.9903 43.7556C98.6218 43.2194 99.5684 43.2966 100.105 43.928L97.8179 45.8699ZM95.7419 39.3943C96.3514 39.9555 96.3905 40.9044 95.8294 41.5138C95.2682 42.1233 94.3193 42.1624 93.7099 41.6013L95.7419 39.3943ZM89.338 38.0957C88.6462 37.6398 88.455 36.7095 88.9108 36.0178C89.3667 35.326 90.297 35.1348 90.9887 35.5907L89.338 38.0957ZM85.91 32.7347C86.6548 33.0974 86.9646 33.9952 86.6018 34.74C86.2391 35.4848 85.3413 35.7945 84.5965 35.4318L85.91 32.7347ZM79.5659 33.2532C78.7931 32.9547 78.4087 32.0862 78.7072 31.3134C79.0057 30.5406 79.8741 30.1562 80.6469 30.4547L79.5659 33.2532ZM75.2434 28.579C76.0345 28.8249 76.4765 29.6656 76.2306 30.4566C75.9847 31.2477 75.144 31.6897 74.3529 31.4438L75.2434 28.579ZM69.0247 29.9643C68.2202 29.7667 67.7282 28.9543 67.9258 28.1497C68.1235 27.3452 68.9359 26.8533 69.7404 27.0509L69.0247 29.9643ZM64.1573 25.8541C64.9721 26.0033 65.5117 26.7849 65.3625 27.5998C65.2132 28.4147 64.4316 28.9543 63.6168 28.805L64.1573 25.8541ZM58.155 27.9808C57.3323 27.8838 56.7439 27.1383 56.8408 26.3155C56.9378 25.4928 57.6833 24.9044 58.506 25.0014L58.155 27.9808ZM52.7963 24.5345C53.6239 24.5707 54.2654 25.2711 54.2292 26.0987C54.1929 26.9263 53.4926 27.5679 52.665 27.5316L52.7963 24.5345ZM47.1824 27.5304C46.3549 27.5695 45.6523 26.9304 45.6132 26.1029C45.5741 25.2754 46.2132 24.5728 47.0407 24.5337L47.1824 27.5304ZM41.2705 25.1418C42.087 25.0022 42.8622 25.551 43.0018 26.3676C43.1414 27.1842 42.5925 27.9593 41.776 28.0989L41.2705 25.1418ZM36.6018 29.4297C35.8227 29.7115 34.9628 29.3084 34.681 28.5294C34.3992 27.7504 34.8022 26.8904 35.5813 26.6086L36.6018 29.4297ZM30.2349 29.361C30.9078 28.8778 31.845 29.0317 32.3282 29.7047C32.8113 30.3776 32.6574 31.3148 31.9845 31.798L30.2349 29.361ZM28.5476 35.4148C28.1115 36.1192 27.187 36.3366 26.4826 35.9005C25.7783 35.4644 25.5609 34.5399 25.997 33.8355L28.5476 35.4148ZM23.8881 39.6343C24.017 38.816 24.7849 38.2571 25.6032 38.3859C26.4216 38.5148 26.9805 39.2827 26.8516 40.101L23.8881 39.6343ZM26.7888 45.1597C26.8767 45.9835 26.2802 46.7225 25.4565 46.8104C24.6327 46.8983 23.8937 46.3018 23.8058 45.4781L26.7888 45.1597ZM25.0231 50.9602C24.7514 50.1776 25.1656 49.3229 25.9482 49.0512C26.7308 48.7795 27.5855 49.1937 27.8572 49.9764L25.0231 50.9602ZM30.0203 54.3677C30.4784 55.0579 30.2902 55.9888 29.6 56.447C28.9098 56.9051 27.9789 56.7169 27.5207 56.0267L30.0203 54.3677ZM31.2814 60.2894C30.6517 59.7512 30.5775 58.8043 31.1158 58.1746C31.6541 57.5449 32.6009 57.4707 33.2307 58.009L31.2814 60.2894ZM37.3189 60.5779C38.0775 60.911 38.4224 61.7959 38.0893 62.5544C37.7563 63.3129 36.8714 63.6578 36.1128 63.3248L37.3189 60.5779ZM41.5989 64.842C40.7774 64.7349 40.1984 63.9821 40.3055 63.1606C40.4127 62.3391 41.1655 61.7601 41.9869 61.8672L41.5989 64.842ZM47.0094 61.8885C47.8332 61.8009 48.572 62.3977 48.6596 63.2215C48.7472 64.0453 48.1504 64.7841 47.3266 64.8717L47.0094 61.8885ZM53.0135 63.5845C52.2343 63.8659 51.3746 63.4623 51.0932 62.6831C50.8118 61.9039 51.2154 61.0442 51.9945 60.7628L53.0135 63.5845ZM56.4347 58.4058C57.0998 57.9118 58.0394 58.0505 58.5333 58.7156C59.0273 59.3806 58.8886 60.3202 58.2235 60.8142L56.4347 58.4058ZM62.3618 56.5504C61.8883 57.2301 60.9534 57.3974 60.2736 56.9239C59.5938 56.4505 59.4266 55.5156 59.9001 54.8358L62.3618 56.5504ZM62.1121 50.3264C62.3683 49.5386 63.2146 49.1076 64.0024 49.3637C64.7902 49.6199 65.2212 50.4662 64.9651 51.254L62.1121 50.3264ZM66.0959 45.5501C66.0229 46.3753 65.2948 46.9851 64.4696 46.9121C63.6444 46.8391 63.0346 46.111 63.1076 45.2858L66.0959 45.5501ZM63.1163 39.4671C63.0631 38.6404 63.6901 37.927 64.5168 37.8738C65.3435 37.8206 66.0569 38.4476 66.1101 39.2743L63.1163 39.4671ZM65.2197 32.5129C65.3839 33.3249 64.8587 34.1163 64.0467 34.2804C63.2347 34.4446 62.4434 33.9194 62.2792 33.1074L65.2197 32.5129ZM60.5536 26.9563C60.2686 26.1785 60.6682 25.3169 61.4461 25.0319C62.2239 24.7469 63.0855 25.1465 63.3705 25.9243L60.5536 26.9563ZM60.4578 19.6932C60.8751 20.4088 60.6333 21.3273 59.9176 21.7446C59.202 22.1619 58.2836 21.9201 57.8662 21.2045L60.4578 19.6932ZM54.1613 16.1074C53.6063 15.4923 53.6549 14.5438 54.27 13.9888C54.885 13.4338 55.8335 13.4825 56.3885 14.0975L54.1613 16.1074ZM51.1798 9.49774C51.8598 9.97089 52.0275 10.9057 51.5543 11.5857C51.0812 12.2657 50.1464 12.4334 49.4664 11.9603L51.1798 9.49774ZM44.1981 8.98553C43.4555 8.6183 43.1513 7.71862 43.5185 6.97603C43.8857 6.23345 44.7854 5.92916 45.528 6.29639L44.1981 8.98553ZM40.0138 3.84524C40.7858 4.14583 41.1679 5.0153 40.8674 5.78728C40.5668 6.55925 39.6973 6.94139 38.9253 6.6408L40.0138 3.84524ZM33.4878 4.9005C32.6831 4.70374 32.1903 3.89187 32.387 3.08715C32.5838 2.28243 33.3957 1.78959 34.2004 1.98635L33.4878 4.9005ZM28.1142 1.03391C28.9408 1.08857 29.5666 1.80298 29.512 2.62961C29.4573 3.45623 28.7429 4.08203 27.9163 4.02737L28.1142 1.03391ZM22.2719 4.15579C21.4481 4.24264 20.7098 3.64518 20.6229 2.82132C20.5361 1.99746 21.1335 1.25918 21.9574 1.17232L22.2719 4.15579ZM15.9697 2.1802C16.7787 2.00203 17.579 2.51345 17.7572 3.32249C17.9354 4.13153 17.424 4.93182 16.6149 5.11L15.9697 2.1802ZM10.9493 6.52341C10.1493 6.73868 9.32629 6.26468 9.11103 5.46471C8.89576 4.66475 9.36975 3.84173 10.1697 3.62646L10.9493 6.52341ZM4.46429 5.18843C5.26348 4.97026 6.08821 5.44126 6.30639 6.24044C6.52456 7.03962 6.05356 7.86435 5.25438 8.08253L4.46429 5.18843ZM110.5 94C110.5 92.9811 110.495 91.967 110.485 90.958L113.485 90.9263C113.495 91.9474 113.5 92.9721 113.5 94H110.5ZM110.334 84.8935C110.249 82.8562 110.126 80.8449 109.952 78.8619L112.94 78.6C113.119 80.6357 113.245 82.6933 113.331 84.7687L110.334 84.8935ZM109.249 72.8857C108.947 70.8876 108.577 68.9252 108.124 67.0011L111.045 66.3147C111.518 68.3259 111.902 70.3685 112.215 72.4377L109.249 72.8857ZM106.482 61.2714C105.838 59.3961 105.095 57.5637 104.238 55.7771L106.943 54.4796C107.853 56.3779 108.64 58.3188 109.319 60.2972L106.482 61.2714ZM101.347 50.6145C100.295 48.9893 99.123 47.4068 97.8179 45.8699L100.105 43.928C101.494 45.5645 102.743 47.2511 103.865 48.9839L101.347 50.6145ZM93.7099 41.6013C92.9923 40.9406 92.2438 40.2896 91.4632 39.6489L93.3665 37.33C94.1905 38.0063 94.9819 38.6945 95.7419 39.3943L93.7099 41.6013ZM91.4632 39.6489C90.8349 39.1332 90.1246 38.6141 89.338 38.0957L90.9887 35.5907C91.8494 36.1579 92.6459 36.7385 93.3665 37.33L91.4632 39.6489ZM84.5965 35.4318C83.0419 34.6748 81.3551 33.9443 79.5659 33.2532L80.6469 30.4547C82.5066 31.173 84.2717 31.9368 85.91 32.7347L84.5965 35.4318ZM74.3529 31.4438C72.6247 30.9066 70.8414 30.4106 69.0247 29.9643L69.7404 27.0509C71.6152 27.5115 73.4567 28.0236 75.2434 28.579L74.3529 31.4438ZM63.6168 28.805C61.7994 28.4721 59.9721 28.1949 58.155 27.9808L58.506 25.0014C60.3896 25.2233 62.2801 25.5103 64.1573 25.8541L63.6168 28.805ZM52.665 27.5316C50.7923 27.4495 48.9571 27.4465 47.1824 27.5304L47.0407 24.5337C48.9154 24.4451 50.8421 24.4489 52.7963 24.5345L52.665 27.5316ZM41.776 28.0989C39.9186 28.4164 38.1839 28.8574 36.6018 29.4297L35.5813 26.6086C37.3566 25.9664 39.2672 25.4843 41.2705 25.1418L41.776 28.0989ZM31.9845 31.798C30.5725 32.8117 29.4164 34.0117 28.5476 35.4148L25.997 33.8355C27.0954 32.0615 28.5372 30.5798 30.2349 29.361L31.9845 31.798ZM26.8516 40.101C26.7247 40.9067 26.6579 41.765 26.6579 42.6792H23.6579C23.6579 41.6187 23.7354 40.6038 23.8881 39.6343L26.8516 40.101ZM26.6579 42.6792C26.6579 43.52 26.7022 44.3479 26.7888 45.1597L23.8058 45.4781C23.7078 44.5596 23.6579 43.6254 23.6579 42.6792H26.6579ZM27.8572 49.9764C28.4063 51.5583 29.1341 53.0325 30.0203 54.3677L27.5207 56.0267C26.4904 54.4743 25.6521 52.7722 25.0231 50.9602L27.8572 49.9764ZM33.2307 58.009C34.451 59.0521 35.8196 59.9195 37.3189 60.5779L36.1128 63.3248C34.3387 62.5458 32.7206 61.5196 31.2814 60.2894L33.2307 58.009ZM41.9869 61.8672C42.7762 61.9701 43.5914 62.0236 44.4312 62.0236V65.0236C43.4639 65.0236 42.5191 64.962 41.5989 64.842L41.9869 61.8672ZM44.4312 62.0236C45.292 62.0236 46.1541 61.9794 47.0094 61.8885L47.3266 64.8717C46.3624 64.9742 45.3944 65.0236 44.4312 65.0236V62.0236ZM51.9945 60.7628C53.5872 60.1877 55.0855 59.4079 56.4347 58.4058L58.2235 60.8142C56.6178 62.0068 54.8554 62.9193 53.0135 63.5845L51.9945 60.7628ZM59.9001 54.8358C60.7983 53.546 61.5514 52.0508 62.1121 50.3264L64.9651 51.254C64.3167 53.2481 63.4346 55.0101 62.3618 56.5504L59.9001 54.8358ZM63.1076 45.2858C63.181 44.4556 63.2193 43.5872 63.2193 42.6792H66.2193C66.2193 43.6714 66.1775 44.6282 66.0959 45.5501L63.1076 45.2858ZM63.2193 42.6792C63.2193 41.6103 63.1853 40.5381 63.1163 39.4671L66.1101 39.2743C66.1833 40.4102 66.2193 41.5467 66.2193 42.6792H63.2193ZM62.2792 33.1074C61.8536 31.0022 61.2805 28.9404 60.5536 26.9563L63.3705 25.9243C64.1529 28.0598 64.766 30.2686 65.2197 32.5129L62.2792 33.1074ZM57.8662 21.2045C56.7993 19.3749 55.5665 17.6645 54.1613 16.1074L56.3885 14.0975C57.9413 15.8182 59.2941 17.6978 60.4578 19.6932L57.8662 21.2045ZM49.4664 11.9603C48.6185 11.3703 47.7275 10.823 46.7922 10.3225L48.2078 7.67747C49.2465 8.23335 50.2369 8.84165 51.1798 9.49774L49.4664 11.9603ZM46.7922 10.3225C45.9018 9.84597 45.0379 9.40081 44.1981 8.98553L45.528 6.29639C46.3984 6.72685 47.2909 7.18681 48.2078 7.67747L46.7922 10.3225ZM38.9253 6.6408C36.9964 5.88975 35.1976 5.31857 33.4878 4.9005L34.2004 1.98635C36.0517 2.43902 37.9763 3.05188 40.0138 3.84524L38.9253 6.6408ZM27.9163 4.02737C26.0165 3.90175 24.1598 3.95676 22.2719 4.15579L21.9574 1.17232C23.9952 0.957491 26.0244 0.895725 28.1142 1.03391L27.9163 4.02737ZM16.6149 5.11C14.8228 5.50466 12.9538 5.98399 10.9493 6.52341L10.1697 3.62646C12.1912 3.0825 14.1113 2.58946 15.9697 2.1802L16.6149 5.11ZM5.25438 8.08253C4.32721 8.33564 3.37151 8.59414 2.38449 8.85589L1.61551 5.95612C2.59338 5.6968 3.54168 5.44031 4.46429 5.18843L5.25438 8.08253Z" fill="#703372"/>
</svg>
