<svg width="16" height="17" viewBox="0 0 16 17" fill="none" xmlns="http://www.w3.org/2000/svg">
<g clip-path="url(#clip0_666_10583)">
<path fill-rule="evenodd" clip-rule="evenodd" d="M4.74995 2.37448C4.01061 2.80209 3.36257 3.3714 2.84283 4.04992C2.3231 4.72843 1.94185 5.50287 1.72084 6.32902C1.27451 7.99748 1.508 9.77525 2.36995 11.2712C3.2319 12.7673 4.65171 13.8589 6.31704 14.3061C7.98236 14.7532 9.75678 14.5194 11.25 13.6557C11.4216 13.5642 11.622 13.5429 11.8089 13.5965C11.9958 13.6501 12.1546 13.7744 12.2519 13.9431C12.3492 14.1117 12.3773 14.3116 12.3303 14.5006C12.2833 14.6896 12.1649 14.853 12 14.9562C10.4875 15.8306 8.7309 16.1853 6.9984 15.966C5.26589 15.7466 3.65261 14.9653 2.40478 13.7414C1.15696 12.5175 0.343132 10.9181 0.0875203 9.1873C-0.168092 7.45657 0.148553 5.68958 0.989124 4.15603C1.82969 2.62248 3.14802 1.4066 4.74288 0.693984C6.33774 -0.0186335 8.12153 -0.188849 9.82198 0.209318C11.5225 0.607485 13.0462 1.55216 14.1606 2.89916C15.275 4.24617 15.9189 5.9215 15.994 7.66945C15.998 7.70102 16 7.73281 16 7.76463V7.86883C16.0007 7.93228 16.0007 7.99574 16 8.05919V9.26746C16.0004 9.86426 15.8073 10.445 15.4498 10.9224C15.0924 11.3998 14.5899 11.748 14.0179 11.9146C13.4459 12.0814 12.8354 12.0574 12.2782 11.8465C11.721 11.6356 11.2471 11.2492 10.928 10.7452C10.2933 11.4284 9.44045 11.8683 8.51667 11.9889C7.59288 12.1094 6.65607 11.9031 5.86785 11.4057C5.07964 10.9082 4.48946 10.1506 4.19914 9.26378C3.90883 8.37692 3.93659 7.41634 4.27763 6.54778C4.61867 5.67923 5.2516 4.95718 6.06722 4.5062C6.88285 4.05523 7.83 3.90361 8.74528 4.07753C9.66055 4.25144 10.4866 4.73997 11.0808 5.45881C11.6749 6.17766 12.0001 7.08176 12 8.0151V9.26746C12 9.59961 12.1317 9.91815 12.3661 10.153C12.6005 10.3879 12.9185 10.5198 13.25 10.5198C13.5815 10.5198 13.8995 10.3879 14.1339 10.153C14.3683 9.91815 14.5 9.59961 14.5 9.26746V7.88185C14.477 6.75006 14.1599 5.64382 13.58 4.67225C13.0001 3.70068 12.1775 2.89734 11.1932 2.34145C10.2089 1.78557 9.09691 1.49635 7.96703 1.50232C6.83715 1.50828 5.72834 1.80924 4.74995 2.37548V2.37448ZM10.5 8.0151C10.5 7.35081 10.2366 6.71373 9.76772 6.244C9.29888 5.77427 8.66299 5.51039 7.99995 5.51039C7.33691 5.51039 6.70102 5.77427 6.23218 6.244C5.76334 6.71373 5.49995 7.35081 5.49995 8.0151C5.49995 8.6794 5.76334 9.31648 6.23218 9.78621C6.70102 10.2559 7.33691 10.5198 7.99995 10.5198C8.66299 10.5198 9.29888 10.2559 9.76772 9.78621C10.2366 9.31648 10.5 8.6794 10.5 8.0151Z" fill="#3D3D3D" fill-opacity="0.5"/>
</g>
<defs>
<clipPath id="clip0_666_10583">
<rect width="16" height="16.0302" rx="8" fill="white"/>
</clipPath>
</defs>
</svg>
