<svg xmlns="http://www.w3.org/2000/svg" xmlns:xlink="http://www.w3.org/1999/xlink" width="100" height="100" viewBox="0 0 100 100">
  <defs>
    <clipPath id="clip-path">
      <rect id="Rectangle_74" data-name="Rectangle 74" width="100" height="100" fill="#fff"/>
    </clipPath>
  </defs>
  <g id="Mask_Group_39" data-name="Mask Group 39" clip-path="url(#clip-path)">
    <path id="Vector_1_" data-name="Vector (1)" d="M54.17,4.167V5.99c1.111.208,2.187.469,3.16.729a4.169,4.169,0,0,1-2.153,8.056,21.985,21.985,0,0,0-5.243-.868,7,7,0,0,0-3.368.764,1.992,1.992,0,0,0-.608.521.828.828,0,0,0-.121.486v.1a1.984,1.984,0,0,0,.573.451,22.673,22.673,0,0,0,4.757,1.754l.156.052a27.234,27.234,0,0,1,6.58,2.656,9.121,9.121,0,0,1,4.584,7.8,9.547,9.547,0,0,1-4.635,8.42,12.929,12.929,0,0,1-3.7,1.528v1.84a4.167,4.167,0,0,1-8.333,0V38.3c-1.649-.4-3.16-.92-4.444-1.354-.365-.121-.712-.243-1.042-.347a4.172,4.172,0,1,1,2.639-7.917c.451.156.868.3,1.267.434a21.039,21.039,0,0,0,5.886,1.441,6.3,6.3,0,0,0,3.333-.712,1.609,1.609,0,0,0,.556-.5,1.168,1.168,0,0,0,.139-.712v-.035c0-.174,0-.365-.694-.8a21.112,21.112,0,0,0-4.7-1.788l-.33-.1a27.6,27.6,0,0,1-6.32-2.5,8.777,8.777,0,0,1-4.618-7.656A9.351,9.351,0,0,1,42.3,7.517,13.54,13.54,0,0,1,45.8,6.094V4.167a4.167,4.167,0,1,1,8.333,0ZM98.65,58.386a6.937,6.937,0,0,1-1.476,9.7l-21.979,16.2a23.632,23.632,0,0,1-14.011,4.6H5.559A5.55,5.55,0,0,1,0,83.334V72.223a5.55,5.55,0,0,1,5.556-5.556h6.389l7.8-6.25a22.178,22.178,0,0,1,13.889-4.861H61.115a5.556,5.556,0,1,1,0,11.111H47.226a2.778,2.778,0,1,0,0,5.556H68.163L88.945,56.91A6.937,6.937,0,0,1,98.65,58.386ZM33.614,66.667h0Z" transform="translate(-0.003 6)" fill="#703372"/>
  </g>
</svg>
