<svg xmlns="http://www.w3.org/2000/svg" xmlns:xlink="http://www.w3.org/1999/xlink" width="307" height="140" viewBox="0 0 307 140">
  <defs>
    <clipPath id="clip-path">
      <rect id="Rectangle_1" data-name="Rectangle 1" width="307" height="140" fill="#fff"/>
    </clipPath>
  </defs>
  <g id="Mask_Group_1" data-name="Mask Group 1" clip-path="url(#clip-path)">
    <g id="帮助" transform="translate(30.157 49.672)">
      <g id="详情问题列表页3" transform="translate(6.286 1.096)">
        <g id="编组-16" transform="translate(0)">
          <g id="编组-12" transform="translate(0)">
            <g id="分组-2" transform="translate(0)">
              <g id="分组">
                <path id="路径" d="M4.109.343A.789.789,0,0,1,4.76,0a.818.818,0,0,1,.807.8.739.739,0,0,1-.028.2L5.545.993,5.553.968C2.527,11.933,17.13,20.78,38.431,20.78c21.264,0,35.852-8.817,32.888-19.756l0,0a.787.787,0,0,1-.044-.261A.757.757,0,0,1,72.037,0a.779.779,0,0,1,.7.431A20.087,20.087,0,0,1,76.775,12c.185,14.586-17,28.945-38.393,28.945S-.19,26.588,0,12A20.127,20.127,0,0,1,4.109.343Z" transform="translate(0)" fill="#0043e9" fill-rule="evenodd"/>
              </g>
            </g>
            <g id="分组-2-2" data-name="分组" transform="translate(89.514 2.105)">
              <g id="Group-22-Copy-2" transform="translate(0)">
                <path id="Combined-Shape" d="M.192.373a9.928,9.928,0,0,0,3.551.652A9.942,9.942,0,0,0,6.887.518l3.4,28.107c.048.429.048.714.239.714s.191-.286.287-.714l4.108-16.712c.287-1.143.955-2.143,3.01-2.143h3.3c2.054,0,2.723,1,3.01,2.143l4.108,16.712c.1.429.1.714.287.714s.191-.286.239-.714L32.3.282a9.922,9.922,0,0,0,3.78.743A9.954,9.954,0,0,0,38.933.611L34.509,31.244c-.43,3-1.815,3.857-4.3,3.857h-2.58c-2.15,0-3.3-1.047-3.965-3.809L19.89,15.58c-.1-.429-.1-.524-.287-.524s-.239.1-.334.524L15.5,31.292C14.826,34.053,13.68,35.1,11.53,35.1H8.95c-2.484,0-3.87-.857-4.3-3.857Z" transform="translate(-0.192 0.308)" fill-rule="evenodd"/>
                <path id="Combined-Shape-2" data-name="Combined-Shape" d="M39.535,17.875c0,.762-.287,1.19-.955,1.19H23.006v.143c0,2.761,1.147,6.047,5.733,6.047,3.487,0,6.784-.286,8.79-.476h.143c.478,0,.86.238.86.714v3.142c0,.762-.143,1.1-1,1.238a42.628,42.628,0,0,1-9.268.809c-4.777,0-11.561-2.571-11.561-11.951V15.209c0-7.427,4.156-12.093,11.465-12.093,7.357,0,11.37,5,11.37,12.093ZM33.181,14.59V14.4c0-3.714-2.054-5.856-5.016-5.856s-5.112,2.095-5.112,5.856v.19Z" transform="translate(25.547 4.726)" fill-rule="evenodd"/>
                <path id="Combined-Shape-3" data-name="Combined-Shape" d="M27.732.226a9.952,9.952,0,0,0,2.892.427,9.932,9.932,0,0,0,3.414-.6V8.226a36.27,36.27,0,0,1,4.586-.333c7.691,0,11.418,4.523,11.418,11.951V23.51c0,7.427-3.726,11.951-11.418,11.951a40.841,40.841,0,0,1-9.6-1.238c-1.1-.286-1.29-.571-1.29-1.286Zm16,23.284V19.844c0-3.9-1-6.808-5.112-6.808a40.012,40.012,0,0,0-4.586.333V29.985a27.9,27.9,0,0,0,4.586.333C42.732,30.318,43.735,27.414,43.735,23.51Z" transform="translate(42.749 -0.051)" fill-rule="evenodd"/>
                <path id="Combined-Shape-4" data-name="Combined-Shape" d="M60.48,3.885v14.27c0,10.379-8.074,11.522-10.892,11.522H49.3c-2.819,0-10.892-1.143-10.892-11.522V3.761a9.93,9.93,0,0,0,3.495.631,9.956,9.956,0,0,0,2.811-.4V18.155c0,4.952,1.815,6.094,4.586,6.094h.287c2.771,0,4.586-1.143,4.586-6.094V3.878a9.941,9.941,0,0,0,3.164.513A9.942,9.942,0,0,0,60.48,3.885Z" transform="translate(59.397 5.732)" fill-rule="evenodd"/>
                <path id="Combined-Shape-5" data-name="Combined-Shape" d="M49.46.093A9.942,9.942,0,0,0,52.6.6,9.941,9.941,0,0,0,55.766.086V34.026a.959.959,0,0,1-.908,1H50.415a1,1,0,0,1-.955-1Z" transform="translate(76.628 0.002)" fill-rule="evenodd"/>
                <path id="Combined-Shape-6" data-name="Combined-Shape" d="M54.537.057a9.934,9.934,0,0,0,3.377.588A9.951,9.951,0,0,0,60.843.206V34.071a.959.959,0,0,1-.908,1H55.493a1,1,0,0,1-.955-1Z" transform="translate(84.544 -0.043)" fill-rule="evenodd"/>
              </g>
            </g>
          </g>
        </g>
      </g>
    </g>
  </g>
</svg>
