<svg width="68" height="75" viewBox="0 0 68 75" fill="none" xmlns="http://www.w3.org/2000/svg">
<path d="M0.968893 0.293942C0.555036 0.311122 0.233465 0.660547 0.250645 1.0744C0.267825 1.48826 0.61725 1.80983 1.03111 1.79265L0.968893 0.293942ZM45.6734 29.2092L44.9321 29.3226L45.6734 29.2092ZM24.273 32.4295L23.661 32.8631L24.273 32.4295ZM57.9564 9.03862L57.5405 9.66273L57.5405 9.66273L57.9564 9.03862ZM34.1038 75L42.3816 72.4547L36.0384 66.5586L34.1038 75ZM4.57566 1.77052C4.98971 1.78205 5.33471 1.45574 5.34623 1.04168C5.35776 0.627631 5.03145 0.282631 4.61739 0.271105L4.57566 1.77052ZM11.8744 0.937388C11.4651 0.873982 11.0819 1.15441 11.0185 1.56374C10.9551 1.97307 11.2355 2.3563 11.6448 2.41971L11.8744 0.937388ZM18.5816 3.93685C18.9799 4.0505 19.395 3.81973 19.5086 3.42141C19.6223 3.02309 19.3915 2.60806 18.9932 2.49441L18.5816 3.93685ZM25.8588 4.95928C25.4797 4.79245 25.0371 4.96456 24.8703 5.34369C24.7034 5.72282 24.8755 6.16541 25.2547 6.33224L25.8588 4.95928ZM31.4819 9.67653C31.8292 9.90235 32.2937 9.80393 32.5196 9.4567C32.7454 9.10946 32.647 8.6449 32.2997 8.41907L31.4819 9.67653ZM38.0349 12.9935C37.7395 12.7031 37.2647 12.707 36.9742 13.0024C36.6838 13.2977 36.6878 13.7725 36.9831 14.063L38.0349 12.9935ZM41.3577 19.5248C41.5743 19.8779 42.0361 19.9886 42.3892 19.772C42.7423 19.5555 42.853 19.0937 42.6364 18.7406L41.3577 19.5248ZM45.6213 25.486C45.5059 25.0881 45.0899 24.8591 44.6921 24.9744C44.2943 25.0898 44.0652 25.5058 44.1806 25.9036L45.6213 25.486ZM44.6931 32.3234C44.5454 32.7104 44.7394 33.1438 45.1264 33.2915C45.5134 33.4392 45.9468 33.2451 46.0945 32.8581L44.6931 32.3234ZM40.3202 37.2937C40.7223 37.1943 40.9676 36.7877 40.8682 36.3856C40.7687 35.9835 40.3621 35.7382 39.96 35.8376L40.3202 37.2937ZM33.4301 36.0454C33.0201 35.9865 32.6399 36.2711 32.581 36.6811C32.5221 37.0911 32.8067 37.4713 33.2167 37.5302L33.4301 36.0454ZM26.4638 35.3034C26.821 35.5131 27.2806 35.3935 27.4903 35.0362C27.7 34.679 27.5803 34.2194 27.2231 34.0098L26.4638 35.3034ZM23.1089 28.3419C23.0005 27.9421 22.5885 27.7059 22.1887 27.8144C21.789 27.9228 21.5528 28.3348 21.6613 28.7346L23.1089 28.3419ZM22.9964 19.8254C22.7915 20.1854 22.9173 20.6433 23.2773 20.8481C23.6373 21.053 24.0952 20.9272 24.3001 20.5672L22.9964 19.8254ZM29.9508 14.4673C30.2822 14.2188 30.3493 13.7487 30.1008 13.4173C29.8522 13.0859 29.3821 13.0188 29.0508 13.2673L29.9508 14.4673ZM36.7464 8.92209C36.3641 9.08152 36.1834 9.52068 36.3429 9.90298C36.5023 10.2853 36.9415 10.466 37.3238 10.3065L36.7464 8.92209ZM45.4739 7.9741C45.8832 7.91058 46.1635 7.52727 46.1 7.11796C46.0365 6.70865 45.6532 6.42832 45.2439 6.49184L45.4739 7.9741ZM54.1501 6.64159C53.747 6.54628 53.3429 6.7958 53.2476 7.1989C53.1523 7.602 53.4018 8.00603 53.8049 8.10134L54.1501 6.64159ZM60.6257 12.0706C60.9302 12.3514 61.4047 12.3322 61.6855 12.0278C61.9663 11.7233 61.9472 11.2488 61.6427 10.968L60.6257 12.0706ZM66.4341 17.7034C66.2772 17.3201 65.8393 17.1364 65.4559 17.2933C65.0726 17.4501 64.8889 17.8881 65.0458 18.2715L66.4341 17.7034ZM66.2166 25.7949C66.193 26.2084 66.5091 26.5628 66.9226 26.5864C67.3362 26.6101 67.6906 26.294 67.7142 25.8804L66.2166 25.7949ZM65.9904 33.9045C66.1288 33.5141 65.9244 33.0854 65.534 32.9471C65.1436 32.8087 64.7149 33.0131 64.5766 33.4035L65.9904 33.9045ZM61.2891 40.5767C61.0889 40.9393 61.2204 41.3956 61.583 41.5958C61.9456 41.7961 62.4019 41.6646 62.6021 41.302L61.2891 40.5767ZM58.3081 48.1621C58.5442 47.8218 58.4598 47.3545 58.1194 47.1183C57.7791 46.8822 57.3118 46.9666 57.0757 47.3069L58.3081 48.1621ZM52.2979 53.6874C52.0392 54.0109 52.0918 54.4829 52.4153 54.7415C52.7388 55.0002 53.2108 54.9477 53.4694 54.6242L52.2979 53.6874ZM48.2829 60.7915C48.5563 60.4804 48.5257 60.0065 48.2146 59.7331C47.9034 59.4597 47.4295 59.4902 47.1561 59.8014L48.2829 60.7915ZM41.7776 65.7271C41.4952 66.0301 41.5119 66.5047 41.8149 66.7871C42.1179 67.0695 42.5925 67.0528 42.8749 66.7498L41.7776 65.7271ZM37.3724 72.5851C37.6567 72.2838 37.6429 71.8091 37.3416 71.5248C37.0403 71.2406 36.5656 71.2544 36.2814 71.5557L37.3724 72.5851ZM1.03111 1.79265C2.1872 1.74466 3.37134 1.737 4.57566 1.77052L4.61739 0.271105C3.3795 0.236646 2.16067 0.24447 0.968893 0.293942L1.03111 1.79265ZM11.6448 2.41971C13.9592 2.77821 16.2882 3.28246 18.5816 3.93685L18.9932 2.49441C16.638 1.82242 14.2482 1.30509 11.8744 0.937388L11.6448 2.41971ZM25.2547 6.33224C27.4348 7.29156 29.527 8.40512 31.4819 9.67653L32.2997 8.41907C30.2708 7.09952 28.1063 5.94823 25.8588 4.95928L25.2547 6.33224ZM36.9831 14.063C38.6588 15.711 40.1344 17.5301 41.3577 19.5248L42.6364 18.7406C41.3442 16.6336 39.7903 14.7199 38.0349 12.9935L36.9831 14.063ZM44.1806 25.9036C44.499 27.002 44.7514 28.1414 44.9321 29.3226L46.4148 29.0958C46.2244 27.8505 45.9579 26.6473 45.6213 25.486L44.1806 25.9036ZM44.9321 29.3226C45.1152 30.52 45.0038 31.5089 44.6931 32.3234L46.0945 32.8581C46.5112 31.766 46.6311 30.5099 46.4148 29.0958L44.9321 29.3226ZM39.96 35.8376C38.0024 36.322 35.6915 36.3703 33.4301 36.0454L33.2167 37.5302C35.6249 37.8762 38.1359 37.8342 40.3202 37.2937L39.96 35.8376ZM27.2231 34.0098C26.2 33.4092 25.402 32.7257 24.885 31.9959L23.661 32.8631C24.3363 33.8161 25.3186 34.6312 26.4638 35.3034L27.2231 34.0098ZM24.885 31.9959C24.0093 30.76 23.4333 29.5377 23.1089 28.3419L21.6613 28.7346C22.0363 30.1172 22.694 31.4983 23.661 32.8631L24.885 31.9959ZM24.3001 20.5672C25.5567 18.3588 27.5268 16.2854 29.9508 14.4673L29.0508 13.2673C26.5113 15.172 24.3812 17.3916 22.9964 19.8254L24.3001 20.5672ZM37.3238 10.3065C39.987 9.19589 42.7758 8.3928 45.4739 7.9741L45.2439 6.49184C42.4174 6.93046 39.5123 7.76864 36.7464 8.92209L37.3238 10.3065ZM53.8049 8.10134C55.2143 8.43456 56.4739 8.95196 57.5405 9.66273L58.3723 8.4145C57.132 7.58801 55.7007 7.0082 54.1501 6.64159L53.8049 8.10134ZM57.5405 9.66273C58.6986 10.4345 59.7238 11.2386 60.6257 12.0706L61.6427 10.968C60.6784 10.0785 59.5906 9.22637 58.3723 8.4145L57.5405 9.66273ZM65.0458 18.2715C66.0145 20.6391 66.3671 23.1613 66.2166 25.7949L67.7142 25.8804C67.8755 23.0557 67.4989 20.3059 66.4341 17.7034L65.0458 18.2715ZM64.5766 33.4035C63.7384 35.7689 62.6178 38.1713 61.2891 40.5767L62.6021 41.302C63.9615 38.841 65.1193 36.3631 65.9904 33.9045L64.5766 33.4035ZM57.0757 47.3069C55.5727 49.4729 53.9603 51.6085 52.2979 53.6874L53.4694 54.6242C55.1489 52.524 56.7823 50.3609 58.3081 48.1621L57.0757 47.3069ZM47.1561 59.8014C45.3236 61.8868 43.5058 63.8729 41.7776 65.7271L42.8749 66.7498C44.6094 64.8888 46.4377 62.8914 48.2829 60.7915L47.1561 59.8014Z" fill="#FEFEFE"/>
</svg>
