<svg xmlns="http://www.w3.org/2000/svg" width="167.286" height="70.611" viewBox="0 0 167.286 70.611">
  <g id="Group_334" data-name="Group 334" transform="translate(-14.253 -29.575)">
    <path id="Path_591" data-name="Path 591" d="M65.67,100.186,25.323,82.94l38.534.247Z" fill="#a60032"/>
    <path id="Path_592" data-name="Path 592" d="M14.252,29.575l167.287,1.25L169.755,84.283,25.668,83.59Z" fill="#ff014a"/>
    <path id="Path_593" data-name="Path 593" d="M66.048,60.1c0,1.25-.819,1.9-2.244,1.889l-3.15-.015L60.642,58.1l3.1.015C65.167,58.126,66.044,58.855,66.048,60.1ZM65.6,53.178c0,1.2-.769,1.821-2.169,1.815l-2.8-.013L60.62,51.3l2.8.013C64.82,51.324,65.6,51.978,65.6,53.178ZM70.375,60.7a4.3,4.3,0,0,0-3.388-4.241,3.943,3.943,0,0,0,2.962-3.986c-.009-2.775-2.139-4.56-5.714-4.577l-7.9-.037.055,17.55,8.175.039C68.265,65.465,70.384,63.6,70.375,60.7Zm19.742-3.957a8.835,8.835,0,0,0-9-9.017,8.726,8.726,0,0,0-9,8.932A8.912,8.912,0,0,0,81.17,65.7,8.706,8.706,0,0,0,90.116,56.744Zm-13.625-.064c-.01-3.125,1.784-5.091,4.634-5.078,2.8.013,4.631,2,4.641,5.122.01,3.075-1.809,5.091-4.609,5.078C78.307,61.788,76.5,59.754,76.491,56.679Zm27.4-8.6.034,10.875L96.742,48.05l-4.275-.02.055,17.55,4.275.02-.034-10.825,7.184,10.859,4.275.02-.055-17.55Zm7.332,10.509c.015,4.85,3.2,7.265,7.272,7.284,4.05.019,7.443-2.365,7.427-7.215l-.032-10.475-4.275-.02.033,10.5c.006,2.075-1.065,3.27-3.09,3.26s-3.054-1.214-3.06-3.289l-.033-10.5-4.275-.02Zm30.457,1.994c-.018-5.875-8.689-4.541-8.7-7.591a1.541,1.541,0,0,1,1.794-1.591,1.917,1.917,0,0,1,2.031,1.834l4.625.022c-.185-3.351-2.766-5.263-6.591-5.281-3.675-.017-6.394,1.82-6.384,5.145-.03,6.225,8.739,4.516,8.749,7.766,0,1.025-.795,1.646-2.045,1.64a2.03,2.03,0,0,1-2.181-2.01l-4.55-.021c.136,3.551,3.092,5.439,6.867,5.457C139.4,65.976,141.69,63.537,141.681,60.587Z" fill="#fbfbfb"/>
  </g>
</svg>
