<svg width="361" height="175" viewBox="0 0 361 175" fill="none" xmlns="http://www.w3.org/2000/svg">
<g filter="url(#filter0_d_296_6157)">
<circle cx="82.5207" cy="59.094" r="7.94161" fill="white"/>
</g>
<g clip-path="url(#clip0_296_6157)">
<path d="M82.5202 52.0195C86.4274 52.0195 89.5947 55.1868 89.5947 59.094C89.5947 63.0012 86.4274 66.1684 82.5202 66.1684C78.613 66.1684 75.4458 63.0012 75.4458 59.094C75.4458 55.1868 78.613 52.0195 82.5202 52.0195ZM82.5202 54.8493C82.3469 54.8493 82.1797 54.9129 82.0502 55.0281C81.9207 55.1432 81.838 55.3019 81.8177 55.474L81.8128 55.5567V56.2642H81.1053C80.6456 56.2631 80.2035 56.441 79.8727 56.7603C79.5419 57.0797 79.3485 57.5152 79.3334 57.9747C79.3183 58.4343 79.4827 58.8816 79.7919 59.2219C80.101 59.5622 80.5305 59.7688 80.9893 59.7979L81.1053 59.8014H81.8128V60.5088H80.3979C80.2176 60.509 80.0442 60.5781 79.913 60.7019C79.7819 60.8256 79.703 60.9948 79.6925 61.1748C79.6819 61.3548 79.7405 61.5321 79.8562 61.6703C79.9719 61.8086 80.1361 61.8975 80.3151 61.9188L80.3979 61.9237H81.8128V62.6312C81.813 62.8115 81.882 62.9849 82.0058 63.116C82.1296 63.2471 82.2988 63.326 82.4788 63.3366C82.6588 63.3472 82.836 63.2886 82.9743 63.1729C83.1126 63.0572 83.2014 62.893 83.2227 62.7139L83.2277 62.6312V61.9237H83.9351C84.3949 61.9248 84.837 61.7469 85.1678 61.4276C85.4985 61.1082 85.692 60.6727 85.7071 60.2132C85.7222 59.7537 85.5577 59.3063 85.2486 58.966C84.9395 58.6257 84.51 58.4191 84.0511 58.3901L83.9351 58.3865H83.2277V57.6791H84.6426C84.8229 57.6789 84.9963 57.6098 85.1274 57.486C85.2585 57.3623 85.3374 57.1931 85.348 57.0131C85.3586 56.8331 85.3 56.6558 85.1843 56.5176C85.0685 56.3793 84.9044 56.2904 84.7253 56.2691L84.6426 56.2642H83.2277V55.5567C83.2277 55.3691 83.1531 55.1892 83.0205 55.0565C82.8878 54.9238 82.7079 54.8493 82.5202 54.8493ZM83.9351 59.8014C84.0289 59.8014 84.1189 59.8387 84.1852 59.905C84.2516 59.9713 84.2888 60.0613 84.2888 60.1551C84.2888 60.2489 84.2516 60.3389 84.1852 60.4052C84.1189 60.4716 84.0289 60.5088 83.9351 60.5088H83.2277V59.8014H83.9351ZM81.8128 57.6791V58.3865H81.1053C81.0115 58.3865 80.9216 58.3492 80.8552 58.2829C80.7889 58.2166 80.7516 58.1266 80.7516 58.0328C80.7516 57.939 80.7889 57.849 80.8552 57.7827C80.9216 57.7163 81.0115 57.6791 81.1053 57.6791H81.8128Z" fill="#7DD30F"/>
</g>
<g filter="url(#filter1_d_296_6157)">
<circle cx="340.666" cy="53.4895" r="7.94161" fill="white"/>
</g>
<g clip-path="url(#clip1_296_6157)">
<path d="M340.665 46.415C344.572 46.415 347.74 49.5823 347.74 53.4895C347.74 57.3967 344.572 60.5639 340.665 60.5639C336.758 60.5639 333.591 57.3967 333.591 53.4895C333.591 49.5823 336.758 46.415 340.665 46.415ZM340.665 49.2448C340.492 49.2448 340.325 49.3084 340.195 49.4236C340.066 49.5387 339.983 49.6974 339.963 49.8695L339.958 49.9523V50.6597H339.25C338.791 50.6586 338.348 50.8365 338.018 51.1559C337.687 51.4752 337.493 51.9107 337.478 52.3703C337.463 52.8298 337.628 53.2771 337.937 53.6174C338.246 53.9577 338.675 54.1643 339.134 54.1934L339.25 54.1969H339.958V54.9043H338.543C338.363 54.9045 338.189 54.9736 338.058 55.0974C337.927 55.2212 337.848 55.3903 337.837 55.5703C337.827 55.7503 337.885 55.9276 338.001 56.0659C338.117 56.2041 338.281 56.293 338.46 56.3143L338.543 56.3192H339.958V57.0267C339.958 57.207 340.027 57.3804 340.151 57.5115C340.275 57.6426 340.444 57.7216 340.624 57.7321C340.804 57.7427 340.981 57.6841 341.119 57.5684C341.258 57.4527 341.346 57.2885 341.368 57.1094L341.373 57.0267V56.3192H342.08C342.54 56.3204 342.982 56.1424 343.313 55.8231C343.644 55.5038 343.837 55.0682 343.852 54.6087C343.867 54.1492 343.703 53.7018 343.394 53.3615C343.084 53.0212 342.655 52.8146 342.196 52.7856L342.08 52.782H341.373V52.0746H342.788C342.968 52.0744 343.141 52.0053 343.272 51.8816C343.404 51.7578 343.482 51.5886 343.493 51.4086C343.504 51.2286 343.445 51.0513 343.329 50.9131C343.214 50.7748 343.049 50.6859 342.87 50.6646L342.788 50.6597H341.373V49.9523C341.373 49.7646 341.298 49.5847 341.165 49.452C341.033 49.3193 340.853 49.2448 340.665 49.2448ZM342.08 54.1969C342.174 54.1969 342.264 54.2342 342.33 54.3005C342.397 54.3668 342.434 54.4568 342.434 54.5506C342.434 54.6444 342.397 54.7344 342.33 54.8007C342.264 54.8671 342.174 54.9043 342.08 54.9043H341.373V54.1969H342.08ZM339.958 52.0746V52.782H339.25C339.157 52.782 339.067 52.7448 339 52.6784C338.934 52.6121 338.897 52.5221 338.897 52.4283C338.897 52.3345 338.934 52.2445 339 52.1782C339.067 52.1118 339.157 52.0746 339.25 52.0746H339.958Z" fill="#7DD30F"/>
</g>
<g filter="url(#filter2_d_296_6157)">
<circle cx="273.942" cy="21.9416" r="7.94161" fill="#E2A122"/>
<circle cx="273.942" cy="21.9416" r="7.44161" stroke="white"/>
</g>
<path d="M271.477 23.1743L270.107 24.5161V20.664H271.477M273.759 22.3345L273.042 21.7229L272.389 22.3254V18.8384H273.759M276.041 21.5768L274.672 22.9461V17.0127H276.041M277.323 21.4901L276.497 20.664H278.779V22.9461L277.962 22.1291L274.672 25.3925L273.088 24.0141L271.363 25.6846H270.107L273.06 22.7909L274.672 24.151" fill="white"/>
<g filter="url(#filter3_d_296_6157)">
<circle cx="323.235" cy="128.742" r="7.94161" fill="#703372"/>
<circle cx="323.235" cy="128.742" r="7.44161" stroke="white"/>
</g>
<g clip-path="url(#clip2_296_6157)">
<path d="M319.486 125.833H325.305C325.46 125.833 325.608 125.894 325.717 126.003C325.826 126.113 325.887 126.261 325.887 126.415V130.779C325.887 130.857 325.918 130.931 325.973 130.985C326.027 131.04 326.101 131.07 326.178 131.07C326.256 131.07 326.33 131.04 326.384 130.985C326.439 130.931 326.469 130.857 326.469 130.779V127.288C326.469 127.211 326.5 127.137 326.555 127.082C326.609 127.028 326.683 126.997 326.76 126.997C326.837 126.997 326.911 127.028 326.966 127.082C327.021 127.137 327.051 127.211 327.051 127.288V130.779C327.051 131.011 326.959 131.233 326.796 131.397C326.632 131.56 326.41 131.652 326.178 131.652H319.777C319.546 131.651 319.324 131.559 319.161 131.396C318.998 131.232 318.905 131.011 318.904 130.779V126.415C318.904 126.261 318.966 126.113 319.075 126.003C319.184 125.894 319.332 125.833 319.486 125.833V125.833ZM320.941 129.616H323.851C323.928 129.616 324.002 129.585 324.056 129.53C324.111 129.476 324.142 129.402 324.142 129.325C324.142 129.247 324.111 129.173 324.056 129.119C324.002 129.064 323.928 129.034 323.851 129.034H320.941C320.864 129.034 320.79 129.064 320.735 129.119C320.681 129.173 320.65 129.247 320.65 129.325C320.65 129.402 320.681 129.476 320.735 129.53C320.79 129.585 320.864 129.616 320.941 129.616ZM320.941 128.452H323.851C323.928 128.452 324.002 128.421 324.056 128.366C324.111 128.312 324.142 128.238 324.142 128.161C324.142 128.084 324.111 128.01 324.056 127.955C324.002 127.9 323.928 127.87 323.851 127.87H320.941C320.864 127.87 320.79 127.9 320.735 127.955C320.681 128.01 320.65 128.084 320.65 128.161C320.65 128.238 320.681 128.312 320.735 128.366C320.79 128.421 320.864 128.452 320.941 128.452Z" fill="white"/>
</g>
<ellipse cx="282.176" cy="61.5" rx="4" ry="3.5" fill="#E25822"/>
<ellipse cx="16" cy="71.5" rx="4" ry="3.5" fill="#E25822"/>
<circle cx="81.5" cy="122.5" r="2.5" fill="#E92C79"/>
<circle cx="304.676" cy="172.5" r="2.5" fill="#5CD822"/>
<g filter="url(#filter4_d_296_6157)">
<circle cx="29.9416" cy="148.915" r="7.94161" fill="white"/>
</g>
<path d="M30.6264 144.123C30.6264 143.942 30.5543 143.767 30.4259 143.639C30.2975 143.511 30.1234 143.438 29.9418 143.438C29.7602 143.438 29.5861 143.511 29.4577 143.639C29.3293 143.767 29.2572 143.942 29.2572 144.123V144.808C29.2572 144.989 29.3293 145.163 29.4577 145.292C29.5861 145.42 29.7602 145.492 29.9418 145.492C30.1234 145.492 30.2975 145.42 30.4259 145.292C30.5543 145.163 30.6264 144.989 30.6264 144.808V144.123ZM33.8147 146.011C33.9394 145.881 34.0084 145.709 34.0069 145.529C34.0053 145.35 33.9333 145.178 33.8064 145.051C33.6794 144.924 33.5077 144.852 33.3282 144.85C33.1487 144.849 32.9758 144.918 32.8467 145.043L32.3626 145.527C32.2379 145.656 32.1689 145.829 32.1705 146.008C32.172 146.188 32.244 146.359 32.371 146.486C32.4979 146.613 32.6696 146.685 32.8491 146.687C33.0286 146.688 33.2016 146.619 33.3307 146.495L33.8147 146.011ZM35.4188 148.915C35.4188 149.097 35.3467 149.271 35.2183 149.4C35.0899 149.528 34.9157 149.6 34.7342 149.6H34.0495C33.868 149.6 33.6938 149.528 33.5654 149.4C33.4371 149.271 33.3649 149.097 33.3649 148.915C33.3649 148.734 33.4371 148.56 33.5654 148.431C33.6938 148.303 33.868 148.231 34.0495 148.231H34.7342C34.9157 148.231 35.0899 148.303 35.2183 148.431C35.3467 148.56 35.4188 148.734 35.4188 148.915ZM26.5529 146.495C26.6161 146.56 26.6916 146.612 26.7752 146.648C26.8587 146.684 26.9485 146.703 27.0394 146.704C27.1303 146.704 27.2205 146.687 27.3046 146.653C27.3888 146.618 27.4652 146.567 27.5295 146.503C27.5938 146.439 27.6446 146.362 27.679 146.278C27.7134 146.194 27.7308 146.104 27.73 146.013C27.7292 145.922 27.7103 145.832 27.6744 145.749C27.6385 145.665 27.5864 145.59 27.521 145.527L27.037 145.043C26.9078 144.918 26.7349 144.849 26.5554 144.85C26.3759 144.852 26.2042 144.924 26.0773 145.051C25.9503 145.178 25.8783 145.35 25.8768 145.529C25.8752 145.709 25.9442 145.881 26.0689 146.011L26.5529 146.495V146.495ZM26.5187 148.915C26.5187 149.097 26.4466 149.271 26.3182 149.4C26.1898 149.528 26.0157 149.6 25.8341 149.6H25.1495C24.9679 149.6 24.7938 149.528 24.6654 149.4C24.537 149.271 24.4648 149.097 24.4648 148.915C24.4648 148.734 24.537 148.56 24.6654 148.431C24.7938 148.303 24.9679 148.231 25.1495 148.231H25.8341C26.0157 148.231 26.1898 148.303 26.3182 148.431C26.4466 148.56 26.5187 148.734 26.5187 148.915ZM28.5726 153.023V152.339H31.3111V153.023C31.3111 153.386 31.1668 153.735 30.91 153.991C30.6532 154.248 30.305 154.392 29.9418 154.392C29.5787 154.392 29.2304 154.248 28.9736 153.991C28.7168 153.735 28.5726 153.386 28.5726 153.023V153.023ZM31.3111 151.654C31.3213 151.421 31.4535 151.212 31.6376 151.066C32.0845 150.713 32.4104 150.231 32.5702 149.684C32.7299 149.138 32.7156 148.556 32.5291 148.018C32.3426 147.48 31.9932 147.014 31.5295 146.684C31.0658 146.354 30.5109 146.177 29.9418 146.177C29.3727 146.177 28.8178 146.354 28.3541 146.684C27.8904 147.014 27.5411 147.48 27.3546 148.018C27.1681 148.556 27.1537 149.138 27.3135 149.684C27.4732 150.231 27.7992 150.713 28.246 151.066C28.4309 151.212 28.5623 151.421 28.5719 151.654H31.3117H31.3111Z" fill="#FBD62E"/>
<g filter="url(#filter5_d_296_6157)">
<circle cx="15.9416" cy="15.9416" r="7.94161" fill="#E2A122"/>
<circle cx="15.9416" cy="15.9416" r="7.44161" stroke="white"/>
</g>
<path d="M13.4767 17.1743L12.1074 18.5161V14.664H13.4767M15.7587 16.3345L15.0422 15.7229L14.3895 16.3254V12.8384H15.7587M18.0408 15.5768L16.6716 16.9461V11.0127H18.0408M19.3233 15.4901L18.4972 14.664H20.7793V16.9461L19.9623 16.1291L16.6716 19.3925L15.0878 18.0141L13.3626 19.6846H12.1074L15.0604 16.7909L16.6716 18.151" fill="white"/>
<defs>
<filter id="filter0_d_296_6157" x="66.5791" y="43.1523" width="35.8833" height="35.8828" filterUnits="userSpaceOnUse" color-interpolation-filters="sRGB">
<feFlood flood-opacity="0" result="BackgroundImageFix"/>
<feColorMatrix in="SourceAlpha" type="matrix" values="0 0 0 0 0 0 0 0 0 0 0 0 0 0 0 0 0 0 127 0" result="hardAlpha"/>
<feOffset dx="2" dy="2"/>
<feGaussianBlur stdDeviation="5"/>
<feComposite in2="hardAlpha" operator="out"/>
<feColorMatrix type="matrix" values="0 0 0 0 0 0 0 0 0 0 0 0 0 0 0 0 0 0 0.2 0"/>
<feBlend mode="normal" in2="BackgroundImageFix" result="effect1_dropShadow_296_6157"/>
<feBlend mode="normal" in="SourceGraphic" in2="effect1_dropShadow_296_6157" result="shape"/>
</filter>
<filter id="filter1_d_296_6157" x="324.724" y="37.5479" width="35.8833" height="35.8828" filterUnits="userSpaceOnUse" color-interpolation-filters="sRGB">
<feFlood flood-opacity="0" result="BackgroundImageFix"/>
<feColorMatrix in="SourceAlpha" type="matrix" values="0 0 0 0 0 0 0 0 0 0 0 0 0 0 0 0 0 0 127 0" result="hardAlpha"/>
<feOffset dx="2" dy="2"/>
<feGaussianBlur stdDeviation="5"/>
<feComposite in2="hardAlpha" operator="out"/>
<feColorMatrix type="matrix" values="0 0 0 0 0 0 0 0 0 0 0 0 0 0 0 0 0 0 0.2 0"/>
<feBlend mode="normal" in2="BackgroundImageFix" result="effect1_dropShadow_296_6157"/>
<feBlend mode="normal" in="SourceGraphic" in2="effect1_dropShadow_296_6157" result="shape"/>
</filter>
<filter id="filter2_d_296_6157" x="258" y="6" width="35.8833" height="35.8828" filterUnits="userSpaceOnUse" color-interpolation-filters="sRGB">
<feFlood flood-opacity="0" result="BackgroundImageFix"/>
<feColorMatrix in="SourceAlpha" type="matrix" values="0 0 0 0 0 0 0 0 0 0 0 0 0 0 0 0 0 0 127 0" result="hardAlpha"/>
<feOffset dx="2" dy="2"/>
<feGaussianBlur stdDeviation="5"/>
<feComposite in2="hardAlpha" operator="out"/>
<feColorMatrix type="matrix" values="0 0 0 0 0 0 0 0 0 0 0 0 0 0 0 0 0 0 0.2 0"/>
<feBlend mode="normal" in2="BackgroundImageFix" result="effect1_dropShadow_296_6157"/>
<feBlend mode="normal" in="SourceGraphic" in2="effect1_dropShadow_296_6157" result="shape"/>
</filter>
<filter id="filter3_d_296_6157" x="307.293" y="112.801" width="35.8833" height="35.8828" filterUnits="userSpaceOnUse" color-interpolation-filters="sRGB">
<feFlood flood-opacity="0" result="BackgroundImageFix"/>
<feColorMatrix in="SourceAlpha" type="matrix" values="0 0 0 0 0 0 0 0 0 0 0 0 0 0 0 0 0 0 127 0" result="hardAlpha"/>
<feOffset dx="2" dy="2"/>
<feGaussianBlur stdDeviation="5"/>
<feComposite in2="hardAlpha" operator="out"/>
<feColorMatrix type="matrix" values="0 0 0 0 0 0 0 0 0 0 0 0 0 0 0 0 0 0 0.2 0"/>
<feBlend mode="normal" in2="BackgroundImageFix" result="effect1_dropShadow_296_6157"/>
<feBlend mode="normal" in="SourceGraphic" in2="effect1_dropShadow_296_6157" result="shape"/>
</filter>
<filter id="filter4_d_296_6157" x="14" y="132.974" width="35.8833" height="35.8828" filterUnits="userSpaceOnUse" color-interpolation-filters="sRGB">
<feFlood flood-opacity="0" result="BackgroundImageFix"/>
<feColorMatrix in="SourceAlpha" type="matrix" values="0 0 0 0 0 0 0 0 0 0 0 0 0 0 0 0 0 0 127 0" result="hardAlpha"/>
<feOffset dx="2" dy="2"/>
<feGaussianBlur stdDeviation="5"/>
<feComposite in2="hardAlpha" operator="out"/>
<feColorMatrix type="matrix" values="0 0 0 0 0 0 0 0 0 0 0 0 0 0 0 0 0 0 0.2 0"/>
<feBlend mode="normal" in2="BackgroundImageFix" result="effect1_dropShadow_296_6157"/>
<feBlend mode="normal" in="SourceGraphic" in2="effect1_dropShadow_296_6157" result="shape"/>
</filter>
<filter id="filter5_d_296_6157" x="0" y="0" width="35.8833" height="35.8828" filterUnits="userSpaceOnUse" color-interpolation-filters="sRGB">
<feFlood flood-opacity="0" result="BackgroundImageFix"/>
<feColorMatrix in="SourceAlpha" type="matrix" values="0 0 0 0 0 0 0 0 0 0 0 0 0 0 0 0 0 0 127 0" result="hardAlpha"/>
<feOffset dx="2" dy="2"/>
<feGaussianBlur stdDeviation="5"/>
<feComposite in2="hardAlpha" operator="out"/>
<feColorMatrix type="matrix" values="0 0 0 0 0 0 0 0 0 0 0 0 0 0 0 0 0 0 0.2 0"/>
<feBlend mode="normal" in2="BackgroundImageFix" result="effect1_dropShadow_296_6157"/>
<feBlend mode="normal" in="SourceGraphic" in2="effect1_dropShadow_296_6157" result="shape"/>
</filter>
<clipPath id="clip0_296_6157">
<rect width="16.9786" height="16.9786" fill="white" transform="translate(74.0312 50.6045)"/>
</clipPath>
<clipPath id="clip1_296_6157">
<rect width="16.9786" height="16.9786" fill="white" transform="translate(332.176 45)"/>
</clipPath>
<clipPath id="clip2_296_6157">
<rect width="9.31086" height="9.31086" fill="white" transform="matrix(-1 0 0 1 327.342 124.087)"/>
</clipPath>
</defs>
</svg>
