<svg xmlns="http://www.w3.org/2000/svg" width="269.425" height="148.561" viewBox="0 0 269.425 148.561">
  <g id="Scoops_Logo_svg" data-name="Scoops Logo_svg" transform="translate(-0.335 -1.143)">
    <path id="Path_537" data-name="Path 537" d="M28.833,84.276q-12.936,0-20.717-4.85Q.335,74.479.335,64.39q0-5.335,1.848-8.148A6.1,6.1,0,0,1,7.63,53.429a6.523,6.523,0,0,1,4.28,1.358,4.315,4.315,0,0,1,1.654,3.492,17.439,17.439,0,0,1-.292,3.4,8.151,8.151,0,0,1-.195,1.358q-.1.97-.1,2.037,0,4.365,4.377,6.5Q21.83,73.7,29.806,73.7q8.268,0,12.936-2.91a9.419,9.419,0,0,0,4.669-8.342,8.019,8.019,0,0,0-2.14-5.626,16.75,16.75,0,0,0-5.35-3.977q-3.21-1.649-9.046-3.977A104.844,104.844,0,0,1,18.621,43.34a26.254,26.254,0,0,1-8.073-7.081A18.654,18.654,0,0,1,7.241,25.006a21.549,21.549,0,0,1,3.7-12.417,24.606,24.606,0,0,1,10.8-8.439A42.412,42.412,0,0,1,38.365,1.143,38.258,38.258,0,0,1,51.4,3.277a20.46,20.46,0,0,1,9.435,6.305,15.7,15.7,0,0,1,3.6,10.476q0,6.111-1.848,9.215a5.959,5.959,0,0,1-5.447,3.1,6.222,6.222,0,0,1-4.28-1.552A4.889,4.889,0,0,1,51.2,27.14a18.409,18.409,0,0,1,.292-3.4q.292-2.91.292-3.686A6.725,6.725,0,0,0,47.8,13.851a20.843,20.843,0,0,0-9.921-2.134q-8.365,0-12.839,3.1a9.749,9.749,0,0,0-4.377,8.537A9.384,9.384,0,0,0,22.9,29.662a19.519,19.519,0,0,0,5.739,4.365q3.4,1.746,9.532,4.171a122.79,122.79,0,0,1,11.866,5.432,23.131,23.131,0,0,1,7.587,6.6,16.359,16.359,0,0,1,3.21,10.283q0,11.446-8.754,17.655Q43.423,84.276,28.833,84.276Zm58.88-.291q-9.532,0-14.881-5.335-5.252-5.433-5.252-14.26a29.168,29.168,0,0,1,3.113-13.775A23.666,23.666,0,0,1,78.765,41.5a18.9,18.9,0,0,1,10.407-3.2q5.349,0,8.268,3.2a11.071,11.071,0,0,1,3.015,8.052,12.275,12.275,0,0,1-1.848,6.887,5.3,5.3,0,0,1-4.669,2.813,4.9,4.9,0,0,1-3.015-.873,2.957,2.957,0,0,1-1.07-2.425,7.213,7.213,0,0,1,.195-1.552q.195-.873.292-1.261a8.591,8.591,0,0,0,.486-2.716,2.621,2.621,0,0,0-.681-1.94,2.183,2.183,0,0,0-1.751-.679,5.745,5.745,0,0,0-4.182,2.037A13.682,13.682,0,0,0,81.1,55.175a22.85,22.85,0,0,0-1.167,7.469q0,11.253,9.824,11.253a17.367,17.367,0,0,0,8.559-2.619,35.544,35.544,0,0,0,9.143-8.051,3.417,3.417,0,0,1,2.626-1.358,2.14,2.14,0,0,1,1.945,1.164,5.7,5.7,0,0,1,.778,3.2,9.381,9.381,0,0,1-1.848,6.014,31.927,31.927,0,0,1-10.991,8.731A28.463,28.463,0,0,1,87.713,83.985ZM154.55,53.72a2.122,2.122,0,0,1,1.945,1.261,6.685,6.685,0,0,1,.681,3.2q0,4.656-2.821,5.529a44.378,44.378,0,0,1-12.838,2.328,24.454,24.454,0,0,1-7.295,13.1,18.072,18.072,0,0,1-12.353,4.85,17.525,17.525,0,0,1-10.018-2.813,18.007,18.007,0,0,1-6.225-7.469,23.868,23.868,0,0,1-2.14-10.089,29.246,29.246,0,0,1,2.821-13.1,21.71,21.71,0,0,1,7.781-9.022,19.426,19.426,0,0,1,10.991-3.3,14.957,14.957,0,0,1,11.867,5.141,21.39,21.39,0,0,1,5.348,12.514,59.084,59.084,0,0,0,10.894-1.94A5.724,5.724,0,0,1,154.55,53.72ZM122.647,73.7A6.916,6.916,0,0,0,128,71.181a13.746,13.746,0,0,0,3.112-7.275,13.782,13.782,0,0,1-4.669-5.335,16.17,16.17,0,0,1-1.556-6.984,16.771,16.771,0,0,1,.292-3.1h-.486q-3.89,0-6.517,3.783-2.529,3.686-2.529,10.476,0,5.335,2.043,8.148A6.164,6.164,0,0,0,122.647,73.7ZM198.434,53.72a2.123,2.123,0,0,1,1.945,1.261,6.686,6.686,0,0,1,.681,3.2q0,4.656-2.821,5.529A44.4,44.4,0,0,1,185.4,66.039a24.454,24.454,0,0,1-7.295,13.1,18.069,18.069,0,0,1-12.353,4.85,17.528,17.528,0,0,1-10.018-2.813,18.006,18.006,0,0,1-6.224-7.469,23.868,23.868,0,0,1-2.14-10.089,29.241,29.241,0,0,1,2.821-13.1,21.708,21.708,0,0,1,7.78-9.022,19.429,19.429,0,0,1,10.992-3.3,14.952,14.952,0,0,1,11.866,5.141,21.391,21.391,0,0,1,5.35,12.514,59.073,59.073,0,0,0,10.893-1.94A5.734,5.734,0,0,1,198.434,53.72ZM166.531,73.7a6.918,6.918,0,0,0,5.35-2.522,13.748,13.748,0,0,0,3.112-7.275,13.789,13.789,0,0,1-4.669-5.335,16.172,16.172,0,0,1-1.556-6.984,16.759,16.759,0,0,1,.292-3.1h-.487q-3.891,0-6.516,3.783-2.53,3.686-2.529,10.476,0,5.335,2.042,8.148A6.164,6.164,0,0,0,166.531,73.7Zm64.7-19.789a30.983,30.983,0,0,1-3.6,14.551,30.736,30.736,0,0,1-9.435,11.059,21.971,21.971,0,0,1-12.547,4.462q-1.264,18.722-5.739,31.236-4.473,12.61-13.13,12.611-5.253,0-7.781-3.783t-2.529-10.477q0-9.507,4.377-22.214a152.035,152.035,0,0,1,13.521-27.84q0-14.163-.195-19.692a4.959,4.959,0,0,1,2.237-4.462,9.862,9.862,0,0,1,5.835-1.649,4.033,4.033,0,0,1,2.918.873q.974.776,1.071,3.2,0,2.425.1,3.589a21.42,21.42,0,0,1,6.127-5.529,12.609,12.609,0,0,1,6.42-1.746,10.707,10.707,0,0,1,8.851,4.365Q231.228,46.832,231.227,53.914ZM206.134,74.673a12.77,12.77,0,0,0,6.419-3.783,22.489,22.489,0,0,0,4.766-7.566,26.282,26.282,0,0,0,1.752-9.507,6.879,6.879,0,0,0-1.168-4.365A3.7,3.7,0,0,0,214.79,47.9q-3.5,0-8.461,7.372-.1,4.269-.1,12.514Q206.231,72.247,206.134,74.673Zm-18.577,43.652q2.626,0,4.377-11.447a235.048,235.048,0,0,0,2.237-28.326,142.67,142.67,0,0,0-6.614,18.528,57.754,57.754,0,0,0-2.432,14.842,11.486,11.486,0,0,0,.777,4.753Q186.584,118.325,187.557,118.325Zm67.224-32.206q-5.059,0-7.781-2.328a6.891,6.891,0,0,1-2.626-5.238,5.958,5.958,0,0,1,1.848-4.365,7.4,7.4,0,0,1,5.447-1.843,17.076,17.076,0,0,1,2.918.291l2.626.291a11.947,11.947,0,0,0-1.168-4.753,20.475,20.475,0,0,0-2.529-4.268q-1.556-2.134-2.917-3.686a60.771,60.771,0,0,1-6.031,9.507,66.922,66.922,0,0,1-6.419,7.178,5.215,5.215,0,0,1-3.7,1.746,3.264,3.264,0,0,1-2.529-1.067,4.245,4.245,0,0,1-.972-2.813,5.52,5.52,0,0,1,1.361-3.589l1.265-1.552a125.417,125.417,0,0,0,8.072-10.865,57.525,57.525,0,0,0,3.5-6.693Q247,48.19,249.917,41.5q1.848-4.268,7.684-4.268a10.222,10.222,0,0,1,3.793.485,1.618,1.618,0,0,1,1.07,1.552,7.158,7.158,0,0,1-.389,1.843,13.994,13.994,0,0,1-1.071,2.522,13.812,13.812,0,0,0-1.75,5.917,6.669,6.669,0,0,0,.973,3.2,41.737,41.737,0,0,0,3.209,4.365,53.886,53.886,0,0,1,4.669,6.984,12.027,12.027,0,0,1,1.654,6.208,16.413,16.413,0,0,1-1.945,7.76,15.155,15.155,0,0,1-5.253,5.82A13.876,13.876,0,0,1,254.781,86.119Z" fill="#703372"/>
    <path id="Path_538" data-name="Path 538" d="M58.276,96.82a5.85,5.85,0,0,0-.695-7.427,2.924,2.924,0,0,1-5.273-1.629,5.889,5.889,0,0,0-4.441,3.765A9,9,0,0,1,58.276,96.82Z" transform="translate(15.835 28.856)" fill="#e92c79"/>
    <path id="Path_539" data-name="Path 539" d="M56.474,90.147a2.89,2.89,0,0,0,.577-1.732,2.927,2.927,0,0,0-5.854,0c0,.035,0,.069.006.1a5.966,5.966,0,0,1,1.1-.1A5.867,5.867,0,0,1,56.474,90.147Z" transform="translate(16.943 28.101)" fill="#e92c79"/>
    <path id="Path_540" data-name="Path 540" d="M53.2,96.146a9.663,9.663,0,0,1,1.871,1.474,4.737,4.737,0,1,0-6.216-2.494A6.676,6.676,0,0,1,53.2,96.146Z" transform="translate(16.036 29.114)" fill="#fff" opacity="0.35"/>
    <path id="Path_541" data-name="Path 541" d="M53.909,90.265A2.064,2.064,0,1,0,51.838,88.2,2.067,2.067,0,0,0,53.909,90.265Z" transform="translate(17.157 28.314)" fill="#fff" opacity="0.35"/>
    <path id="Path_542" data-name="Path 542" d="M90.427,108.378H88.238a9.9,9.9,0,0,1-9.905-9.87v-8.05H82.84v8.05a5.4,5.4,0,0,0,5.4,5.38h2.189v4.49Z" transform="translate(25.983 29.753)" fill="#703372"/>
    <path id="Path_543" data-name="Path 543" d="M73.947,94.621H69.375v11.588h4.572Z" transform="translate(22.999 31.14)" fill="#703372"/>
    <path id="Path_544" data-name="Path 544" d="M70.361,90.4l-5.011,4.49H80.708v-4.45Z" transform="translate(21.658 29.735)" fill="#703372"/>
    <path id="Path_545" data-name="Path 545" d="M112.572,102.481a5.967,5.967,0,0,0,3.262-5.759c0-3.993-2.722-6.246-7.473-6.246h-8.04V94.06h8.04c1.977,0,3.133.947,3.133,2.815,0,1.894-1.156,2.892-3.133,2.892h-3.467V96h-4.573v12.393h4.573V103.35h3.6l2.672,5.043h5.189Z" transform="translate(33.308 29.759)" fill="#703372"/>
    <path id="Path_546" data-name="Path 546" d="M66.311,91.234v5.729c.028-.043.055-.085.084-.128a4.491,4.491,0,0,1,3.644-1.941V90.4A8.965,8.965,0,0,0,66.311,91.234Z" transform="translate(21.978 29.735)" fill="#1a1a1a"/>
    <path id="Path_547" data-name="Path 547" d="M52.2,95.262l.822,1.251v-1.5Z" transform="translate(17.277 31.271)" fill="#1a1a1a"/>
    <path id="Path_548" data-name="Path 548" d="M72.538,91.238a9.032,9.032,0,0,0-4.307,4.226h0l-.2.362-4.491,8.233-5.389-8.595h0a9,9,0,0,0-10.191-4.817,5.86,5.86,0,0,0,.275,4.63,4.492,4.492,0,0,1,5.549,1.6l.046.071c.044.068.1.139.137.209h0l1.45,2.21,4.68,7.127a4.087,4.087,0,0,0,6.933-.168L72.519,97l.019-.031c.03-.047.059-.093.09-.139a4.491,4.491,0,0,1,3.644-1.941V90.4A8.97,8.97,0,0,0,72.538,91.238Z" transform="translate(15.748 29.734)" fill="#703372"/>
    <path id="Path_549" data-name="Path 549" d="M48.56,88.7a2.4,2.4,0,1,0-3.148-1.3A2.4,2.4,0,0,0,48.56,88.7Z" transform="translate(14.955 27.629)" fill="#703372"/>
    <path id="Path_550" data-name="Path 550" d="M54.123,90.6a2.924,2.924,0,0,0,2.35-1.184A5.88,5.88,0,0,0,52.3,87.685a5.966,5.966,0,0,0-1.1.1A2.92,2.92,0,0,0,54.123,90.6Z" transform="translate(16.945 28.829)" fill="#e92c79"/>
    <path id="Path_551" data-name="Path 551" d="M47.486,88.132a1.8,1.8,0,1,0-1.8-1.8A1.8,1.8,0,0,0,47.486,88.132Z" transform="translate(15.106 27.78)" fill="#fff" opacity="0.35"/>
    <path id="Path_552" data-name="Path 552" d="M90.078,90.4h-4.6l6.69,12.329v5.688h4.572V102.6Z" transform="translate(28.364 29.734)" fill="#703372"/>
    <path id="Path_553" data-name="Path 553" d="M95.262,100.768,100.836,90.4h-4.6l-3.36,6.188Z" transform="translate(30.829 29.734)" fill="#e92c79"/>
    <path id="Path_554" data-name="Path 554" d="M55.983,100.615a4.488,4.488,0,1,1-6.115-5.4,5.861,5.861,0,0,1-.275-4.63,8.969,8.969,0,1,0,9.212,14.194Z" transform="translate(14.11 29.796)" fill="#703372"/>
    <path id="Path_555" data-name="Path 555" d="M5.579,79.186H162.918" transform="translate(1.747 25.998)" fill="none" stroke="#000" stroke-linecap="round" stroke-width="2"/>
    <path id="Path_556" data-name="Path 556" d="M5.579,111.671H162.918" transform="translate(1.747 36.82)" fill="none" stroke="#000" stroke-linecap="round" stroke-width="2"/>
    <path id="Path_557" data-name="Path 557" d="M187.146,93.461a7.672,7.672,0,1,1,10.048-4.15A7.662,7.662,0,0,1,187.146,93.461Z" transform="translate(60.65 25.838)" fill="#703372"/>
    <path id="Path_558" data-name="Path 558" d="M172.605,118.4a13.735,13.735,0,1,1,17.987-7.431A13.717,13.717,0,0,1,172.605,118.4Z" transform="translate(54.556 30.26)" fill="#703372"/>
    <path id="Path_559" data-name="Path 559" d="M189.838,91.454a5.706,5.706,0,1,1,5.722-5.706A5.714,5.714,0,0,1,189.838,91.454Z" transform="translate(61.222 26.283)" fill="#fff" opacity="0.35"/>
    <path id="Path_560" data-name="Path 560" d="M176.818,115.708a10.56,10.56,0,1,1,10.3-10.557A10.431,10.431,0,0,1,176.818,115.708Z" transform="translate(55.361 31.131)" fill="#fff" opacity="0.35"/>
    <path id="Path_561" data-name="Path 561" d="M23.515,108.554a4.156,4.156,0,0,1-2.266-.64,3.9,3.9,0,0,1-1.44-1.466v.747a.98.98,0,0,1-.453.773,1.68,1.68,0,0,1-1.093.347,2,2,0,0,1-1.2-.347.97.97,0,0,1-.48-.773V89.33a.879.879,0,0,1,.48-.773,2.264,2.264,0,0,1,1.2-.293,2.466,2.466,0,0,1,1.253.293.875.875,0,0,1,.507.773v8.185a4.172,4.172,0,0,1,1.306-1.386,3.528,3.528,0,0,1,2.133-.64,4.044,4.044,0,0,1,2.373.747,5.2,5.2,0,0,1,1.706,1.946,5.789,5.789,0,0,1,.64,2.72v2.186a5.786,5.786,0,0,1-.64,2.667,5.611,5.611,0,0,1-1.706,2.026A3.8,3.8,0,0,1,23.515,108.554Zm-1.093-3.013a2.112,2.112,0,0,0,1.173-.347,2.6,2.6,0,0,0,.827-.933,2.333,2.333,0,0,0,.32-1.174V100.9a2.19,2.19,0,0,0-.32-1.146,2.444,2.444,0,0,0-.827-.88,2.043,2.043,0,0,0-1.2-.373,2.394,2.394,0,0,0-1.12.293,2.674,2.674,0,0,0-.907.827,2.3,2.3,0,0,0-.347,1.28v2.666a1.538,1.538,0,0,0,.32.747,3.894,3.894,0,0,0,.853.853A2.173,2.173,0,0,0,22.422,105.541Zm8.255,8.665a2.181,2.181,0,0,1-1.12-.267q-.453-.24-.453-1.2a2.511,2.511,0,0,1,.187-1.013.72.72,0,0,1,.693-.427,4.01,4.01,0,0,0,1.04-.16,3.625,3.625,0,0,0,1.226-.613,3.479,3.479,0,0,0,1.04-1.2,4.525,4.525,0,0,0,.507-1.946l-4.586-9.812a1.119,1.119,0,0,1-.107-.453,1.147,1.147,0,0,1,.373-.827,2.969,2.969,0,0,1,.933-.587,2.422,2.422,0,0,1,.987-.24,1.292,1.292,0,0,1,.587.133.726.726,0,0,1,.4.453l3.2,7.972,2.56-7.972a.845.845,0,0,1,.4-.453,1.183,1.183,0,0,1,.533-.133,2.519,2.519,0,0,1,.96.24,2.7,2.7,0,0,1,.96.613,1.111,1.111,0,0,1,.427.853.89.89,0,0,1-.08.4l-3.893,9.946q-.48,1.2-.933,2.373a9.249,9.249,0,0,1-1.146,2.16,4.809,4.809,0,0,1-1.786,1.573A6.262,6.262,0,0,1,30.677,114.207Z" transform="translate(5.413 29.022)"/>
  </g>
</svg>
