<svg xmlns="http://www.w3.org/2000/svg" width="628.19" height="179.489" viewBox="0 0 628.19 179.489">
  <g id="OVTLYR_New_LOGO" data-name="OVTLYR_New LOGO" transform="translate(-186 -412.993)">
    <g id="Group">
      <path id="Vector" d="M303.12,507.782a39.816,39.816,0,0,0-4.7-50.42,19.768,19.768,0,0,1-35.67-11.06,39.88,39.88,0,0,0-30.04,25.56,60.821,60.821,0,0,1,70.41,35.92Z" fill="#e92c79"/>
      <path id="Vector_2" d="M298.42,457.362a19.79,19.79,0,1,0-35.7-11.76c0,.24.03.47.04.7a40.205,40.205,0,0,1,7.41-.7A39.622,39.622,0,0,1,298.42,457.362Z" fill="#e92c79"/>
      <path id="Vector_3" d="M270.11,504.962a65.4,65.4,0,0,1,12.66,10.01,32.089,32.089,0,1,0-42.05-16.93C250.78,496.672,261.01,499.422,270.11,504.962Z" fill="#fff" opacity="0.35"/>
      <path id="Vector_4" d="M282.52,459.6a14.01,14.01,0,1,0-14.01-14.01A14.01,14.01,0,0,0,282.52,459.6Z" fill="#fff" opacity="0.35"/>
      <g id="Group_2">
        <g id="Group_3">
          <path id="Vector_5" d="M589.26,592.342H574.45a67.085,67.085,0,0,1-67.01-67.01v-54.65h30.49v54.65a36.575,36.575,0,0,0,36.53,36.53h14.81v30.48Z" fill="#703372"/>
        </g>
      </g>
      <path id="Vector_6" d="M457.6,508.362H426.67v78.67H457.6Z" fill="#703372"/>
      <path id="Vector_7" d="M424.26,470.182l-33.9,30.48h103.9v-30.21Z" fill="#703372"/>
      <path id="Vector_8" d="M788.64,552.352c14.25-7.12,22.07-20.5,22.07-39.1,0-27.11-18.42-42.4-50.56-42.4H705.76v24.33h54.39c13.38,0,21.2,6.43,21.2,19.11,0,12.86-7.82,19.63-21.2,19.63H736.69v-25.57H705.76v84.13h30.93v-34.23h24.33l18.07,34.23h35.1Z" fill="#703372"/>
      <g id="Group_4">
        <path id="Vector_9" d="M399.04,475.832v38.89c.19-.29.37-.58.57-.87a30.353,30.353,0,0,1,24.65-13.18v-30.49A60.484,60.484,0,0,0,399.04,475.832Z" fill="#1a1a1a"/>
        <path id="Vector_10" d="M271.75,513.6l5.56,8.49v-10.17Z" fill="#1a1a1a"/>
      </g>
      <path id="Vector_11" d="M399,475.852a61.207,61.207,0,0,0-29.14,28.69h-.01L368.51,507l-30.38,55.89-36.46-58.35-.02.01a60.782,60.782,0,0,0-68.94-32.7,39.911,39.911,0,0,0,1.86,31.43,30.316,30.316,0,0,1,37.54,10.86l.31.48c.3.46.66.94.93,1.42h0l9.81,15,31.66,48.38a27.6,27.6,0,0,0,46.9-1.14l37.15-63.29c.04-.07.09-.14.13-.21.2-.32.4-.63.61-.94a30.354,30.354,0,0,1,24.65-13.18v-30.49A60.5,60.5,0,0,0,399,475.852Z" fill="#703372"/>
      <path id="Vector_12" d="M231.438,444.357a16.3,16.3,0,1,0-21.3-8.821A16.3,16.3,0,0,0,231.438,444.357Z" fill="#703372"/>
      <path id="Vector_13" d="M282.52,465.392a19.755,19.755,0,0,0,15.9-8.04,39.71,39.71,0,0,0-28.26-11.76,40.208,40.208,0,0,0-7.41.7A19.787,19.787,0,0,0,282.52,465.392Z" fill="#e92c79"/>
      <path id="Vector_14" d="M225.31,442.162a12.21,12.21,0,1,0-12.21-12.21A12.21,12.21,0,0,0,225.31,442.162Z" fill="#fff" opacity="0.35"/>
      <g id="Group_5">
        <path id="Vector_15" d="M603,470.172H571.89l45.26,83.7v38.61h30.93v-39.49Z" fill="#703372"/>
        <path id="Vector_16" d="M654.75,540.552l37.71-70.38h-31.1l-22.73,42.01Z" fill="#e92c79"/>
      </g>
      <g id="Group_6">
        <path id="Vector_17" d="M275.93,539.932a30.379,30.379,0,1,1-41.37-36.65,39.911,39.911,0,0,1-1.86-31.43,60.86,60.86,0,1,0,62.32,96.36Z" fill="#703372"/>
      </g>
    </g>
  </g>
</svg>
