<?xml version="1.0" encoding="utf-8"?>
<!-- Generator: Adobe Illustrator 27.2.0, SVG Export Plug-In . SVG Version: 6.00 Build 0)  -->
<svg version="1.1" id="Layer_1" xmlns="http://www.w3.org/2000/svg" xmlns:xlink="http://www.w3.org/1999/xlink" x="0px" y="0px"
	 viewBox="0 0 893.3 320.4" style="enable-background:new 0 0 893.3 320.4;" xml:space="preserve">
<style type="text/css">
	.st0{fill:#FBD62E;}
</style>
<g>
	<path class="st0" d="M0.3,43.9c4.2-16.2,12.4-29.8,27.9-37c7.9-3.7,17-6.7,25.6-6.8c275.9-0.3,551.8-0.3,827.7-0.3
		c3.2,0,6.4,0,11.3,0c-2.2,3.7-3.6,6.3-5.3,8.8c-25.3,38.3-50.6,76.7-76.2,114.9c-3.4,5.1-3.5,8.6-0.2,13.9
		c25.7,41.2,51.1,82.6,76.6,124c1.6,2.6,3.1,5.4,5.4,9.5c-4.7,0-8.1,0-11.4,0c-274.7,0-549.5,0.3-824.2-0.4
		c-31.7-0.1-45.5,11.6-54.7,42.2c-0.7,2.4-1.7,4.8-2.5,7.2C0.3,228,0.3,136,0.3,43.9z"/>
</g>
</svg>
